<?xml version="1.0" encoding="UTF-8"?>
<!--Generator: Apple Native CoreSVG 175.5-->
<!DOCTYPE svg
PUBLIC "-//W3C//DTD SVG 1.1//EN"
       "http://www.w3.org/Graphics/SVG/1.1/DTD/svg11.dtd">
<svg version="1.1" xmlns="http://www.w3.org/2000/svg" xmlns:xlink="http://www.w3.org/1999/xlink" width="3300" height="2200">
 <!--glyph: "", point size: 100.0, font version: "18.0d12e2", template writer version: "101"-->
 <g id="Notes">
  <rect height="2200" id="artboard" style="fill:white;opacity:1" width="3300" x="0" y="0"/>
  <line style="fill:none;stroke:black;opacity:1;stroke-width:0.5;" x1="263" x2="3036" y1="292" y2="292"/>
  <text style="stroke:none;fill:black;font-family:sans-serif;font-size:13;font-weight:bold;" transform="matrix(1 0 0 1 263 322)">Weight/Scale Variations</text>
  <text style="stroke:none;fill:black;font-family:sans-serif;font-size:13;text-anchor:middle;" transform="matrix(1 0 0 1 559.711 322)">Ultralight</text>
  <text style="stroke:none;fill:black;font-family:sans-serif;font-size:13;text-anchor:middle;" transform="matrix(1 0 0 1 856.422 322)">Thin</text>
  <text style="stroke:none;fill:black;font-family:sans-serif;font-size:13;text-anchor:middle;" transform="matrix(1 0 0 1 1153.13 322)">Light</text>
  <text style="stroke:none;fill:black;font-family:sans-serif;font-size:13;text-anchor:middle;" transform="matrix(1 0 0 1 1449.84 322)">Regular</text>
  <text style="stroke:none;fill:black;font-family:sans-serif;font-size:13;text-anchor:middle;" transform="matrix(1 0 0 1 1746.56 322)">Medium</text>
  <text style="stroke:none;fill:black;font-family:sans-serif;font-size:13;text-anchor:middle;" transform="matrix(1 0 0 1 2043.27 322)">Semibold</text>
  <text style="stroke:none;fill:black;font-family:sans-serif;font-size:13;text-anchor:middle;" transform="matrix(1 0 0 1 2339.98 322)">Bold</text>
  <text style="stroke:none;fill:black;font-family:sans-serif;font-size:13;text-anchor:middle;" transform="matrix(1 0 0 1 2636.69 322)">Heavy</text>
  <text style="stroke:none;fill:black;font-family:sans-serif;font-size:13;text-anchor:middle;" transform="matrix(1 0 0 1 2933.4 322)">Black</text>
  <line style="fill:none;stroke:black;opacity:1;stroke-width:0.5;" x1="263" x2="3036" y1="1903" y2="1903"/>
  <g transform="matrix(1 0 0 1 263 1933)">
   <path d="M9.24805 0.830078C13.5547 0.830078 17.1387-2.74414 17.1387-7.05078C17.1387-11.3574 13.5449-14.9316 9.23828-14.9316C4.94141-14.9316 1.36719-11.3574 1.36719-7.05078C1.36719-2.74414 4.95117 0.830078 9.24805 0.830078ZM9.24805-0.654297C5.70312-0.654297 2.87109-3.49609 2.87109-7.05078C2.87109-10.6055 5.69336-13.4473 9.23828-13.4473C12.793-13.4473 15.6445-10.6055 15.6445-7.05078C15.6445-3.49609 12.8027-0.654297 9.24805-0.654297ZM5.6543-7.05078C5.6543-6.62109 5.95703-6.32812 6.40625-6.32812L8.50586-6.32812L8.50586-4.20898C8.50586-3.76953 8.79883-3.4668 9.22852-3.4668C9.67773-3.4668 9.9707-3.76953 9.9707-4.20898L9.9707-6.32812L12.0898-6.32812C12.5293-6.32812 12.832-6.62109 12.832-7.05078C12.832-7.49023 12.5293-7.79297 12.0898-7.79297L9.9707-7.79297L9.9707-9.90234C9.9707-10.3516 9.67773-10.6543 9.22852-10.6543C8.79883-10.6543 8.50586-10.3516 8.50586-9.90234L8.50586-7.79297L6.40625-7.79297C5.95703-7.79297 5.6543-7.49023 5.6543-7.05078Z"/>
  </g>
  <g transform="matrix(1 0 0 1 281.867 1933)">
   <path d="M11.709 2.91016C17.1582 2.91016 21.6699-1.61133 21.6699-7.05078C21.6699-12.5 17.1484-17.0117 11.6992-17.0117C6.25977-17.0117 1.74805-12.5 1.74805-7.05078C1.74805-1.61133 6.26953 2.91016 11.709 2.91016ZM11.709 1.25C7.09961 1.25 3.41797-2.44141 3.41797-7.05078C3.41797-11.6602 7.08984-15.3516 11.6992-15.3516C16.3086-15.3516 20.0098-11.6602 20.0098-7.05078C20.0098-2.44141 16.3184 1.25 11.709 1.25ZM7.17773-7.05078C7.17773-6.57227 7.50977-6.25 8.00781-6.25L10.8789-6.25L10.8789-3.36914C10.8789-2.88086 11.2109-2.53906 11.6895-2.53906C12.1777-2.53906 12.5195-2.87109 12.5195-3.36914L12.5195-6.25L15.4004-6.25C15.8887-6.25 16.2305-6.57227 16.2305-7.05078C16.2305-7.53906 15.8887-7.88086 15.4004-7.88086L12.5195-7.88086L12.5195-10.752C12.5195-11.25 12.1777-11.5918 11.6895-11.5918C11.2109-11.5918 10.8789-11.25 10.8789-10.752L10.8789-7.88086L8.00781-7.88086C7.50977-7.88086 7.17773-7.53906 7.17773-7.05078Z"/>
  </g>
  <g transform="matrix(1 0 0 1 305.646 1933)">
   <path d="M14.9707 5.66406C21.9336 5.66406 27.6953-0.0976562 27.6953-7.05078C27.6953-14.0137 21.9238-19.7754 14.9609-19.7754C8.00781-19.7754 2.25586-14.0137 2.25586-7.05078C2.25586-0.0976562 8.01758 5.66406 14.9707 5.66406ZM14.9707 3.84766C8.93555 3.84766 4.08203-1.01562 4.08203-7.05078C4.08203-13.0957 8.92578-17.9492 14.9609-17.9492C21.0059-17.9492 25.8691-13.0957 25.8691-7.05078C25.8691-1.01562 21.0156 3.84766 14.9707 3.84766ZM9.19922-7.05078C9.19922-6.5332 9.57031-6.17188 10.1172-6.17188L14.0625-6.17188L14.0625-2.2168C14.0625-1.67969 14.4336-1.29883 14.9512-1.29883C15.4883-1.29883 15.8594-1.66992 15.8594-2.2168L15.8594-6.17188L19.8145-6.17188C20.3516-6.17188 20.7324-6.5332 20.7324-7.05078C20.7324-7.59766 20.3613-7.96875 19.8145-7.96875L15.8594-7.96875L15.8594-11.9141C15.8594-12.4609 15.4883-12.8418 14.9512-12.8418C14.4336-12.8418 14.0625-12.4609 14.0625-11.9141L14.0625-7.96875L10.1172-7.96875C9.57031-7.96875 9.19922-7.59766 9.19922-7.05078Z"/>
  </g>
  <text style="stroke:none;fill:black;font-family:sans-serif;font-size:13;font-weight:bold;" transform="matrix(1 0 0 1 263 1953)">Design Variations</text>
  <text style="stroke:none;fill:black;font-family:sans-serif;font-size:13;" transform="matrix(1 0 0 1 263 1971)">Symbols are supported in up to nine weights and three scales.</text>
  <text style="stroke:none;fill:black;font-family:sans-serif;font-size:13;" transform="matrix(1 0 0 1 263 1989)">For optimal layout with text and other symbols, vertically align</text>
  <text style="stroke:none;fill:black;font-family:sans-serif;font-size:13;" transform="matrix(1 0 0 1 263 2007)">symbols with the adjacent text.</text>
  <line style="fill:none;stroke:#00AEEF;stroke-width:0.5;opacity:1.0;" x1="776" x2="776" y1="1919" y2="1933"/>
  <g transform="matrix(1 0 0 1 776 1933)">
   <path d="M3.31055 0.15625C3.82812 0.15625 4.08203-0.0390625 4.26758-0.585938L5.52734-4.0332L11.2891-4.0332L12.5488-0.585938C12.7344-0.0390625 12.9883 0.15625 13.4961 0.15625C14.0137 0.15625 14.3457-0.15625 14.3457-0.644531C14.3457-0.810547 14.3164-0.966797 14.2383-1.17188L9.6582-13.3691C9.43359-13.9648 9.0332-14.2676 8.4082-14.2676C7.80273-14.2676 7.39258-13.9746 7.17773-13.3789L2.59766-1.16211C2.51953-0.957031 2.49023-0.800781 2.49023-0.634766C2.49023-0.146484 2.80273 0.15625 3.31055 0.15625ZM6.00586-5.51758L8.37891-12.0898L8.42773-12.0898L10.8008-5.51758Z"/>
  </g>
  <line style="fill:none;stroke:#00AEEF;stroke-width:0.5;opacity:1.0;" x1="793.197" x2="793.197" y1="1919" y2="1933"/>
  <text style="stroke:none;fill:black;font-family:sans-serif;font-size:13;font-weight:bold;" transform="matrix(1 0 0 1 776 1953)">Margins</text>
  <text style="stroke:none;fill:black;font-family:sans-serif;font-size:13;" transform="matrix(1 0 0 1 776 1971)">Leading and trailing margins on the left and right side of each symbol</text>
  <text style="stroke:none;fill:black;font-family:sans-serif;font-size:13;" transform="matrix(1 0 0 1 776 1989)">can be adjusted by modifying the x-location of the margin guidelines.</text>
  <text style="stroke:none;fill:black;font-family:sans-serif;font-size:13;" transform="matrix(1 0 0 1 776 2007)">Modifications are automatically applied proportionally to all</text>
  <text style="stroke:none;fill:black;font-family:sans-serif;font-size:13;" transform="matrix(1 0 0 1 776 2025)">scales and weights.</text>
  <g transform="matrix(1 0 0 1 1289 1933)">
   <path d="M2.8418 1.86523L4.54102 3.57422C5.40039 4.44336 6.38672 4.38477 7.31445 3.35938L18.0078-8.42773L17.041-9.4043L6.42578 2.27539C6.07422 2.67578 5.74219 2.77344 5.27344 2.30469L4.10156 1.14258C3.63281 0.683594 3.74023 0.341797 4.14062-0.0195312L15.6152-10.8203L14.6387-11.7871L3.04688-0.898438C2.06055 0.0195312 1.98242 0.996094 2.8418 1.86523ZM9.25781-16.3281C8.83789-15.918 8.80859-15.3418 9.04297-14.9512C9.27734-14.5898 9.73633-14.3555 10.3809-14.5215C11.8457-14.8633 13.3691-14.9219 14.7949-13.9844L14.209-12.5293C13.8672-11.6992 14.043-11.1133 14.5801-10.5664L16.875-8.25195C17.3633-7.76367 17.7734-7.74414 18.3398-7.8418L19.4043-8.03711L20.0684-7.36328L20.0293-6.80664C19.9902-6.30859 20.1172-5.92773 20.6055-5.44922L21.3672-4.70703C21.8457-4.22852 22.4609-4.19922 22.9297-4.66797L25.8398-7.58789C26.3086-8.05664 26.2891-8.65234 25.8105-9.13086L25.0391-9.89258C24.5605-10.3711 24.1895-10.5273 23.7109-10.4883L23.1348-10.4395L22.4902-11.0742L22.7344-12.1973C22.8613-12.7637 22.7051-13.2031 22.1191-13.7891L19.9219-15.9766C16.582-19.2969 12.1484-19.2188 9.25781-16.3281ZM10.752-15.957C13.1836-17.7344 16.4746-17.4316 18.7012-15.2051L21.1328-12.793C21.3672-12.5586 21.4062-12.373 21.3379-12.0312L21.0156-10.5469L22.5195-9.0625L23.5059-9.12109C23.7598-9.13086 23.8379-9.11133 24.0332-8.91602L24.6094-8.33984L22.168-5.89844L21.5918-6.47461C21.3965-6.66992 21.3672-6.74805 21.377-7.01172L21.4453-7.98828L19.9512-9.47266L18.4277-9.21875C18.1055-9.15039 17.959-9.17969 17.7148-9.41406L15.7129-11.416C15.459-11.6504 15.4297-11.8164 15.5859-12.1875L16.4648-14.2773C14.9023-15.7324 12.8711-16.3574 10.8398-15.7617C10.6836-15.7227 10.625-15.8496 10.752-15.957Z"/>
  </g>
  <text style="stroke:none;fill:black;font-family:sans-serif;font-size:13;font-weight:bold;" transform="matrix(1 0 0 1 1289 1953)">Exporting</text>
  <text style="stroke:none;fill:black;font-family:sans-serif;font-size:13;" transform="matrix(1 0 0 1 1289 1971)">Symbols should be outlined when exporting to ensure the</text>
  <text style="stroke:none;fill:black;font-family:sans-serif;font-size:13;" transform="matrix(1 0 0 1 1289 1989)">design is preserved when submitting to Xcode.</text>
  <text id="template-version" style="stroke:none;fill:black;font-family:sans-serif;font-size:13;text-anchor:end;" transform="matrix(1 0 0 1 3036 1933)">Template v.4.0</text>
  <text style="stroke:none;fill:black;font-family:sans-serif;font-size:13;text-anchor:end;" transform="matrix(1 0 0 1 3036 1951)">Requires Xcode 14 or greater</text>
  <text id="descriptive-name" style="stroke:none;fill:black;font-family:sans-serif;font-size:13;text-anchor:end;" transform="matrix(1 0 0 1 3036 1969)">Generated from case.bartender6.fill</text>
  <text style="stroke:none;fill:black;font-family:sans-serif;font-size:13;text-anchor:end;" transform="matrix(1 0 0 1 3036 1987)">Typeset at 100 points</text>
  <text style="stroke:none;fill:black;font-family:sans-serif;font-size:13;" transform="matrix(1 0 0 1 263 726)">Small</text>
  <text style="stroke:none;fill:black;font-family:sans-serif;font-size:13;" transform="matrix(1 0 0 1 263 1156)">Medium</text>
  <text style="stroke:none;fill:black;font-family:sans-serif;font-size:13;" transform="matrix(1 0 0 1 263 1586)">Large</text>
 </g>
 <g id="Guides">
  <g id="H-reference" style="fill:#27AAE1;stroke:none;" transform="matrix(1 0 0 1 339 696)">
   <path d="M0.993654 0L3.63775 0L29.3281-67.1323L30.0303-67.1323L30.0303-70.459L28.1226-70.459ZM11.6885-24.4799L46.9815-24.4799L46.2315-26.7285L12.4385-26.7285ZM55.1196 0L57.7637 0L30.6382-70.459L29.4326-70.459L29.4326-67.1323Z"/>
  </g>
  <line id="Baseline-S" style="fill:none;stroke:#27AAE1;opacity:1;stroke-width:0.5;" x1="263" x2="3036" y1="696" y2="696"/>
  <line id="Capline-S" style="fill:none;stroke:#27AAE1;opacity:1;stroke-width:0.5;" x1="263" x2="3036" y1="625.541" y2="625.541"/>
  <g id="H-reference" style="fill:#27AAE1;stroke:none;" transform="matrix(1 0 0 1 339 1126)">
   <path d="M0.993654 0L3.63775 0L29.3281-67.1323L30.0303-67.1323L30.0303-70.459L28.1226-70.459ZM11.6885-24.4799L46.9815-24.4799L46.2315-26.7285L12.4385-26.7285ZM55.1196 0L57.7637 0L30.6382-70.459L29.4326-70.459L29.4326-67.1323Z"/>
  </g>
  <line id="Baseline-M" style="fill:none;stroke:#27AAE1;opacity:1;stroke-width:0.5;" x1="263" x2="3036" y1="1126" y2="1126"/>
  <line id="Capline-M" style="fill:none;stroke:#27AAE1;opacity:1;stroke-width:0.5;" x1="263" x2="3036" y1="1055.54" y2="1055.54"/>
  <g id="H-reference" style="fill:#27AAE1;stroke:none;" transform="matrix(1 0 0 1 339 1556)">
   <path d="M0.993654 0L3.63775 0L29.3281-67.1323L30.0303-67.1323L30.0303-70.459L28.1226-70.459ZM11.6885-24.4799L46.9815-24.4799L46.2315-26.7285L12.4385-26.7285ZM55.1196 0L57.7637 0L30.6382-70.459L29.4326-70.459L29.4326-67.1323Z"/>
  </g>
  <line id="Baseline-L" style="fill:none;stroke:#27AAE1;opacity:1;stroke-width:0.5;" x1="263" x2="3036" y1="1556" y2="1556"/>
  <line id="Capline-L" style="fill:none;stroke:#27AAE1;opacity:1;stroke-width:0.5;" x1="263" x2="3036" y1="1485.54" y2="1485.54"/>
  <line id="left-margin-Ultralight-S" style="fill:none;stroke:#00AEEF;stroke-width:0.5;opacity:1.0;" x1="508.811" x2="508.811" y1="600.785" y2="720.121"/>
  <line id="right-margin-Ultralight-S" style="fill:none;stroke:#00AEEF;stroke-width:0.5;opacity:1.0;" x1="610.611" x2="610.611" y1="600.785" y2="720.121"/>
  <line id="left-margin-Regular-S" style="fill:none;stroke:#00AEEF;stroke-width:0.5;opacity:1.0;" x1="1395.19" x2="1395.19" y1="600.785" y2="720.121"/>
  <line id="right-margin-Regular-S" style="fill:none;stroke:#00AEEF;stroke-width:0.5;opacity:1.0;" x1="1504.49" x2="1504.49" y1="600.785" y2="720.121"/>
  <line id="left-margin-Black-S" style="fill:none;stroke:#00AEEF;stroke-width:0.5;opacity:1.0;" x1="2875.7" x2="2875.7" y1="600.785" y2="720.121"/>
  <line id="right-margin-Black-S" style="fill:none;stroke:#00AEEF;stroke-width:0.5;opacity:1.0;" x1="2991.1" x2="2991.1" y1="600.785" y2="720.121"/>
 </g>
 <g id="Symbols">
  <g id="Black-S" transform="matrix(1 0 0 1 2875.7 696)">
   <path d="M55.11-68.5L47.81-70.6C41.21-72.5 34.31-73.3 27.41-72.9L24.41-72.7C23.71-72.7 23.11-72.2 22.91-71.5L19.71-60.3C19.51-59.6 19.81-58.9 20.41-58.5L22.91-56.8C28.51-52.9 34.81-49.9 41.41-48L48.71-45.9L55.11-68.5ZM94.51-39.2L79.21-39.2C78.11-39.2 77.01-38.8 76.21-37.9L75.01-36.7C74.91-36.6 74.91-36.6 74.81-36.6L62.71-36.6L62.71-41.5C62.71-43.7 61.51-45.8 59.51-46.8L69.31-81.3C69.51-82 69.11-82.7 68.41-82.9C67.71-83.1 67.01-82.7 66.81-82L62.61-67.4L58.71-68.5C58.11-68.7 57.51-68.3 57.31-67.7L50.81-45C50.61-44.4 51.01-43.8 51.61-43.6L56.21-42.3C56.31-42.2 56.51-42.1 56.71-42C56.81-42 56.91-41.9 57.11-41.9C57.71-41.9 58.21-42.3 58.41-42.9L58.71-44C59.51-43.4 60.01-42.4 60.01-41.3L60.01-36.4L46.91-36.4C46.21-36.4 45.61-35.8 45.61-35.1C45.61-34.4 46.21-33.8 46.91-33.8L50.41-33.8L58.01-22.6C58.51-21.8 59.21-21.3 60.01-21.1L60.01-18.5L49.31-18.5C49.31-18.5 49.31-18 49.31-17.7C49.31-11.5 54.01-6.3 60.11-5.7L60.11 6.8L52.91 11.3C52.21 11.7 52.51 12.8 53.31 12.8L69.41 12.8C70.21 12.8 70.51 11.7 69.81 11.3L62.61 6.8L62.61-5.6C68.71-6.3 73.41-11.4 73.41-17.6C73.41-17.9 73.41-18.4 73.41-18.4L62.71-18.4L62.71-21C63.51-21.3 64.21-21.8 64.71-22.5L72.31-34L74.81-34C75.61-34 76.31-34.3 76.91-34.9L78.11-36.1C78.41-36.4 78.81-36.6 79.31-36.6L94.51-36.6C95.21-36.6 95.81-37.2 95.81-37.9C95.81-38.6 95.21-39.2 94.51-39.2ZM60.01-15.8L60.01-13.2L53.01-13.2C52.61-14 52.21-14.9 52.01-15.8L60.01-15.8ZM70.61-15.8C70.41-14.9 70.11-14 69.61-13.2L62.61-13.2L62.61-15.8L70.61-15.8Z"/>
  </g>
  <g id="Regular-S" transform="matrix(1 0 0 1 1395.19 696)">
   <path d="M52.1-66.7L45.2-68.7C39-70.5 32.5-71.2 26-70.8L23.2-70.6C22.5-70.6 21.9-70.1 21.8-69.5L18.8-58.9C18.6-58.3 18.9-57.6 19.4-57.2L21.7-55.6C27-51.9 32.9-49.1 39.1-47.3L46-45.3L52.1-66.7ZM89.3-39.1L74.9-39.1C73.8-39.1 72.8-38.7 72-37.9L70.8-36.7C70.7-36.6 70.7-36.6 70.6-36.6L59.3-36.6L59.3-41.2C59.3-43.3 58.1-45.2 56.3-46.2L65.6-78.7C65.8-79.4 65.4-80.1 64.7-80.2C64-80.4 63.3-80 63.2-79.3L59.3-65.5L55.6-66.5C55-66.7 54.4-66.3 54.3-65.8L48.2-44.4C48-43.8 48.4-43.2 48.9-43.1L53.2-41.9C53.3-41.8 53.5-41.7 53.7-41.6C53.8-41.6 53.9-41.6 54-41.6C54.5-41.6 55-42 55.2-42.5L55.5-43.6C56.2-43 56.7-42.1 56.7-41.1L56.7-36.5L44.5-36.5C43.8-36.5 43.3-35.9 43.3-35.3C43.3-34.7 43.9-34.1 44.5-34.1L47.8-34.1L55-23.3C55.5-22.6 56.2-22.1 56.9-21.9L56.9-19.5L46.7-19.5C46.7-19.5 46.7-19 46.7-18.7C46.7-12.8 51.2-8 56.9-7.4L56.9 4.4L50 8.6C49.4 9 49.7 10 50.4 10L65.6 10C66.4 10 66.7 9 66 8.6L59.2 4.4L59.2-7.4C65-8 69.5-12.8 69.5-18.7C69.5-19 69.5-19.5 69.5-19.5L59.3-19.5L59.3-21.9C60-22.2 60.7-22.6 61.2-23.3L68.4-34.1L70.7-34.1C71.4-34.1 72.1-34.4 72.7-34.9L73.9-36.1C74.2-36.4 74.6-36.6 75-36.6L89.4-36.6C90.1-36.6 90.6-37.2 90.6-37.8C90.6-38.4 90-39.1 89.3-39.1ZM56.8-17L56.8-14.5L50.2-14.5C49.8-15.3 49.5-16.1 49.3-17L56.8-17ZM66.8-17C66.6-16.1 66.3-15.3 65.9-14.5L59.3-14.5L59.3-17L66.8-17Z"/>
  </g>
  <g id="Ultralight-S" transform="matrix(1 0 0 1 508.811 696)">
   <path d="M48.604-64.1L42.304-65.9C36.604-67.5 30.604-68.2 24.704-67.9L22.104-67.8C21.504-67.8 20.904-67.3 20.804-66.8L18.004-56.9C17.804-56.3 18.104-55.7 18.604-55.3L20.704-53.8C25.604-50.4 31.004-47.8 36.704-46.2L43.004-44.4L48.604-64.1ZM82.704-38.7L69.504-38.7C68.504-38.7 67.604-38.3 66.904-37.6L65.804-36.5C65.704-36.4 65.704-36.4 65.604-36.4L55.204-36.4L55.204-40.6C55.204-42.5 54.104-44.3 52.504-45.2L61.004-75.1C61.204-75.7 60.804-76.3 60.204-76.5C59.604-76.7 59.004-76.3 58.804-75.7L55.204-63.1L51.804-64.1C51.304-64.2 50.704-63.9 50.604-63.4L45.004-43.8C44.904-43.3 45.204-42.7 45.704-42.6L49.704-41.5C49.804-41.4 50.004-41.3 50.104-41.2C50.204-41.2 50.304-41.2 50.404-41.2C50.904-41.2 51.404-41.5 51.504-42L51.804-43C52.504-42.4 52.904-41.6 52.904-40.7L52.904-36.5L41.604-36.5C41.004-36.5 40.504-36 40.504-35.4C40.504-34.8 41.004-34.3 41.604-34.3L44.604-34.3L51.204-24.4C51.604-23.7 52.304-23.3 52.904-23.1L52.904-20.9L43.604-20.9C43.604-20.9 43.604-20.4 43.604-20.2C43.604-14.8 47.704-10.4 52.904-9.8L52.904 1.1L46.704 5C46.104 5.4 46.404 6.3 47.104 6.3L61.104 6.3C61.804 6.3 62.104 5.4 61.504 5L55.304 1.1L55.304-9.6C60.504-10.2 64.604-14.6 64.604-20C64.604-20.2 64.604-20.7 64.604-20.7L55.304-20.7L55.304-23C56.004-23.2 56.604-23.7 57.004-24.3L63.604-34.2L65.704-34.2C66.404-34.2 67.004-34.5 67.504-35L68.604-36.1C68.904-36.4 69.204-36.5 69.604-36.5L82.804-36.5C83.404-36.5 83.904-37 83.904-37.6C83.904-38.2 83.404-38.7 82.704-38.7ZM52.904-18.5L52.904-16.2L46.804-16.2C46.404-16.9 46.104-17.7 46.004-18.5L52.904-18.5ZM62.104-18.5C61.904-17.7 61.704-16.9 61.304-16.2L55.204-16.2L55.204-18.5L62.104-18.5Z"/>
  </g>
 </g>
</svg>
