<?xml version="1.0" encoding="UTF-8"?>
<!--Generator: Apple Native CoreSVG 175.5-->
<!DOCTYPE svg
PUBLIC "-//W3C//DTD SVG 1.1//EN"
       "http://www.w3.org/Graphics/SVG/1.1/DTD/svg11.dtd">
<svg version="1.1" xmlns="http://www.w3.org/2000/svg" xmlns:xlink="http://www.w3.org/1999/xlink" width="3300" height="2200">
 <!--glyph: "", point size: 100.0, font version: "18.0d12e2", template writer version: "101"-->
 <style>.monochrome-0 {fill:#000000}

.SFSymbolsPreview000000 {fill:#000000;opacity:1.0}
</style>
 <g id="Notes">
  <rect height="2200" id="artboard" style="fill:white;opacity:1" width="3300" x="0" y="0"/>
  <line style="fill:none;stroke:black;opacity:1;stroke-width:0.5;" x1="263" x2="3036" y1="292" y2="292"/>
  <text style="stroke:none;fill:black;font-family:sans-serif;font-size:13;font-weight:bold;" transform="matrix(1 0 0 1 263 322)">Weight/Scale Variations</text>
  <text style="stroke:none;fill:black;font-family:sans-serif;font-size:13;text-anchor:middle;" transform="matrix(1 0 0 1 559.711 322)">Ultralight</text>
  <text style="stroke:none;fill:black;font-family:sans-serif;font-size:13;text-anchor:middle;" transform="matrix(1 0 0 1 856.422 322)">Thin</text>
  <text style="stroke:none;fill:black;font-family:sans-serif;font-size:13;text-anchor:middle;" transform="matrix(1 0 0 1 1153.13 322)">Light</text>
  <text style="stroke:none;fill:black;font-family:sans-serif;font-size:13;text-anchor:middle;" transform="matrix(1 0 0 1 1449.84 322)">Regular</text>
  <text style="stroke:none;fill:black;font-family:sans-serif;font-size:13;text-anchor:middle;" transform="matrix(1 0 0 1 1746.56 322)">Medium</text>
  <text style="stroke:none;fill:black;font-family:sans-serif;font-size:13;text-anchor:middle;" transform="matrix(1 0 0 1 2043.27 322)">Semibold</text>
  <text style="stroke:none;fill:black;font-family:sans-serif;font-size:13;text-anchor:middle;" transform="matrix(1 0 0 1 2339.98 322)">Bold</text>
  <text style="stroke:none;fill:black;font-family:sans-serif;font-size:13;text-anchor:middle;" transform="matrix(1 0 0 1 2636.69 322)">Heavy</text>
  <text style="stroke:none;fill:black;font-family:sans-serif;font-size:13;text-anchor:middle;" transform="matrix(1 0 0 1 2933.4 322)">Black</text>
  <line style="fill:none;stroke:black;opacity:1;stroke-width:0.5;" x1="263" x2="3036" y1="1903" y2="1903"/>
  <g transform="matrix(1 0 0 1 263 1933)">
   <path d="M9.24805 0.830078C13.5547 0.830078 17.1387-2.74414 17.1387-7.05078C17.1387-11.3574 13.5449-14.9316 9.23828-14.9316C4.94141-14.9316 1.36719-11.3574 1.36719-7.05078C1.36719-2.74414 4.95117 0.830078 9.24805 0.830078ZM9.24805-0.654297C5.70312-0.654297 2.87109-3.49609 2.87109-7.05078C2.87109-10.6055 5.69336-13.4473 9.23828-13.4473C12.793-13.4473 15.6445-10.6055 15.6445-7.05078C15.6445-3.49609 12.8027-0.654297 9.24805-0.654297ZM5.6543-7.05078C5.6543-6.62109 5.95703-6.32812 6.40625-6.32812L8.50586-6.32812L8.50586-4.20898C8.50586-3.76953 8.79883-3.4668 9.22852-3.4668C9.67773-3.4668 9.9707-3.76953 9.9707-4.20898L9.9707-6.32812L12.0898-6.32812C12.5293-6.32812 12.832-6.62109 12.832-7.05078C12.832-7.49023 12.5293-7.79297 12.0898-7.79297L9.9707-7.79297L9.9707-9.90234C9.9707-10.3516 9.67773-10.6543 9.22852-10.6543C8.79883-10.6543 8.50586-10.3516 8.50586-9.90234L8.50586-7.79297L6.40625-7.79297C5.95703-7.79297 5.6543-7.49023 5.6543-7.05078Z"/>
  </g>
  <g transform="matrix(1 0 0 1 281.867 1933)">
   <path d="M11.709 2.91016C17.1582 2.91016 21.6699-1.61133 21.6699-7.05078C21.6699-12.5 17.1484-17.0117 11.6992-17.0117C6.25977-17.0117 1.74805-12.5 1.74805-7.05078C1.74805-1.61133 6.26953 2.91016 11.709 2.91016ZM11.709 1.25C7.09961 1.25 3.41797-2.44141 3.41797-7.05078C3.41797-11.6602 7.08984-15.3516 11.6992-15.3516C16.3086-15.3516 20.0098-11.6602 20.0098-7.05078C20.0098-2.44141 16.3184 1.25 11.709 1.25ZM7.17773-7.05078C7.17773-6.57227 7.50977-6.25 8.00781-6.25L10.8789-6.25L10.8789-3.36914C10.8789-2.88086 11.2109-2.53906 11.6895-2.53906C12.1777-2.53906 12.5195-2.87109 12.5195-3.36914L12.5195-6.25L15.4004-6.25C15.8887-6.25 16.2305-6.57227 16.2305-7.05078C16.2305-7.53906 15.8887-7.88086 15.4004-7.88086L12.5195-7.88086L12.5195-10.752C12.5195-11.25 12.1777-11.5918 11.6895-11.5918C11.2109-11.5918 10.8789-11.25 10.8789-10.752L10.8789-7.88086L8.00781-7.88086C7.50977-7.88086 7.17773-7.53906 7.17773-7.05078Z"/>
  </g>
  <g transform="matrix(1 0 0 1 305.646 1933)">
   <path d="M14.9707 5.66406C21.9336 5.66406 27.6953-0.0976562 27.6953-7.05078C27.6953-14.0137 21.9238-19.7754 14.9609-19.7754C8.00781-19.7754 2.25586-14.0137 2.25586-7.05078C2.25586-0.0976562 8.01758 5.66406 14.9707 5.66406ZM14.9707 3.84766C8.93555 3.84766 4.08203-1.01562 4.08203-7.05078C4.08203-13.0957 8.92578-17.9492 14.9609-17.9492C21.0059-17.9492 25.8691-13.0957 25.8691-7.05078C25.8691-1.01562 21.0156 3.84766 14.9707 3.84766ZM9.19922-7.05078C9.19922-6.5332 9.57031-6.17188 10.1172-6.17188L14.0625-6.17188L14.0625-2.2168C14.0625-1.67969 14.4336-1.29883 14.9512-1.29883C15.4883-1.29883 15.8594-1.66992 15.8594-2.2168L15.8594-6.17188L19.8145-6.17188C20.3516-6.17188 20.7324-6.5332 20.7324-7.05078C20.7324-7.59766 20.3613-7.96875 19.8145-7.96875L15.8594-7.96875L15.8594-11.9141C15.8594-12.4609 15.4883-12.8418 14.9512-12.8418C14.4336-12.8418 14.0625-12.4609 14.0625-11.9141L14.0625-7.96875L10.1172-7.96875C9.57031-7.96875 9.19922-7.59766 9.19922-7.05078Z"/>
  </g>
  <text style="stroke:none;fill:black;font-family:sans-serif;font-size:13;font-weight:bold;" transform="matrix(1 0 0 1 263 1953)">Design Variations</text>
  <text style="stroke:none;fill:black;font-family:sans-serif;font-size:13;" transform="matrix(1 0 0 1 263 1971)">Symbols are supported in up to nine weights and three scales.</text>
  <text style="stroke:none;fill:black;font-family:sans-serif;font-size:13;" transform="matrix(1 0 0 1 263 1989)">For optimal layout with text and other symbols, vertically align</text>
  <text style="stroke:none;fill:black;font-family:sans-serif;font-size:13;" transform="matrix(1 0 0 1 263 2007)">symbols with the adjacent text.</text>
  <line style="fill:none;stroke:#00AEEF;stroke-width:0.5;opacity:1.0;" x1="776" x2="776" y1="1919" y2="1933"/>
  <g transform="matrix(1 0 0 1 776 1933)">
   <path d="M3.31055 0.15625C3.82812 0.15625 4.08203-0.0390625 4.26758-0.585938L5.52734-4.0332L11.2891-4.0332L12.5488-0.585938C12.7344-0.0390625 12.9883 0.15625 13.4961 0.15625C14.0137 0.15625 14.3457-0.15625 14.3457-0.644531C14.3457-0.810547 14.3164-0.966797 14.2383-1.17188L9.6582-13.3691C9.43359-13.9648 9.0332-14.2676 8.4082-14.2676C7.80273-14.2676 7.39258-13.9746 7.17773-13.3789L2.59766-1.16211C2.51953-0.957031 2.49023-0.800781 2.49023-0.634766C2.49023-0.146484 2.80273 0.15625 3.31055 0.15625ZM6.00586-5.51758L8.37891-12.0898L8.42773-12.0898L10.8008-5.51758Z"/>
  </g>
  <line style="fill:none;stroke:#00AEEF;stroke-width:0.5;opacity:1.0;" x1="793.197" x2="793.197" y1="1919" y2="1933"/>
  <text style="stroke:none;fill:black;font-family:sans-serif;font-size:13;font-weight:bold;" transform="matrix(1 0 0 1 776 1953)">Margins</text>
  <text style="stroke:none;fill:black;font-family:sans-serif;font-size:13;" transform="matrix(1 0 0 1 776 1971)">Leading and trailing margins on the left and right side of each symbol</text>
  <text style="stroke:none;fill:black;font-family:sans-serif;font-size:13;" transform="matrix(1 0 0 1 776 1989)">can be adjusted by modifying the x-location of the margin guidelines.</text>
  <text style="stroke:none;fill:black;font-family:sans-serif;font-size:13;" transform="matrix(1 0 0 1 776 2007)">Modifications are automatically applied proportionally to all</text>
  <text style="stroke:none;fill:black;font-family:sans-serif;font-size:13;" transform="matrix(1 0 0 1 776 2025)">scales and weights.</text>
  <g transform="matrix(1 0 0 1 1289 1933)">
   <path d="M2.8418 1.86523L4.54102 3.57422C5.40039 4.44336 6.38672 4.38477 7.31445 3.35938L18.0078-8.42773L17.041-9.4043L6.42578 2.27539C6.07422 2.67578 5.74219 2.77344 5.27344 2.30469L4.10156 1.14258C3.63281 0.683594 3.74023 0.341797 4.14062-0.0195312L15.6152-10.8203L14.6387-11.7871L3.04688-0.898438C2.06055 0.0195312 1.98242 0.996094 2.8418 1.86523ZM9.25781-16.3281C8.83789-15.918 8.80859-15.3418 9.04297-14.9512C9.27734-14.5898 9.73633-14.3555 10.3809-14.5215C11.8457-14.8633 13.3691-14.9219 14.7949-13.9844L14.209-12.5293C13.8672-11.6992 14.043-11.1133 14.5801-10.5664L16.875-8.25195C17.3633-7.76367 17.7734-7.74414 18.3398-7.8418L19.4043-8.03711L20.0684-7.36328L20.0293-6.80664C19.9902-6.30859 20.1172-5.92773 20.6055-5.44922L21.3672-4.70703C21.8457-4.22852 22.4609-4.19922 22.9297-4.66797L25.8398-7.58789C26.3086-8.05664 26.2891-8.65234 25.8105-9.13086L25.0391-9.89258C24.5605-10.3711 24.1895-10.5273 23.7109-10.4883L23.1348-10.4395L22.4902-11.0742L22.7344-12.1973C22.8613-12.7637 22.7051-13.2031 22.1191-13.7891L19.9219-15.9766C16.582-19.2969 12.1484-19.2188 9.25781-16.3281ZM10.752-15.957C13.1836-17.7344 16.4746-17.4316 18.7012-15.2051L21.1328-12.793C21.3672-12.5586 21.4062-12.373 21.3379-12.0312L21.0156-10.5469L22.5195-9.0625L23.5059-9.12109C23.7598-9.13086 23.8379-9.11133 24.0332-8.91602L24.6094-8.33984L22.168-5.89844L21.5918-6.47461C21.3965-6.66992 21.3672-6.74805 21.377-7.01172L21.4453-7.98828L19.9512-9.47266L18.4277-9.21875C18.1055-9.15039 17.959-9.17969 17.7148-9.41406L15.7129-11.416C15.459-11.6504 15.4297-11.8164 15.5859-12.1875L16.4648-14.2773C14.9023-15.7324 12.8711-16.3574 10.8398-15.7617C10.6836-15.7227 10.625-15.8496 10.752-15.957Z"/>
  </g>
  <text style="stroke:none;fill:black;font-family:sans-serif;font-size:13;font-weight:bold;" transform="matrix(1 0 0 1 1289 1953)">Exporting</text>
  <text style="stroke:none;fill:black;font-family:sans-serif;font-size:13;" transform="matrix(1 0 0 1 1289 1971)">Symbols should be outlined when exporting to ensure the</text>
  <text style="stroke:none;fill:black;font-family:sans-serif;font-size:13;" transform="matrix(1 0 0 1 1289 1989)">design is preserved when submitting to Xcode.</text>
  <text id="template-version" style="stroke:none;fill:black;font-family:sans-serif;font-size:13;text-anchor:end;" transform="matrix(1 0 0 1 3036 1933)">Template v.4.0</text>
  <text style="stroke:none;fill:black;font-family:sans-serif;font-size:13;text-anchor:end;" transform="matrix(1 0 0 1 3036 1951)">Requires Xcode 14 or greater</text>
  <text id="descriptive-name" style="stroke:none;fill:black;font-family:sans-serif;font-size:13;text-anchor:end;" transform="matrix(1 0 0 1 3036 1969)">Generated from cellar.three.bottles</text>
  <text style="stroke:none;fill:black;font-family:sans-serif;font-size:13;text-anchor:end;" transform="matrix(1 0 0 1 3036 1987)">Typeset at 100 points</text>
  <text style="stroke:none;fill:black;font-family:sans-serif;font-size:13;" transform="matrix(1 0 0 1 263 726)">Small</text>
  <text style="stroke:none;fill:black;font-family:sans-serif;font-size:13;" transform="matrix(1 0 0 1 263 1156)">Medium</text>
  <text style="stroke:none;fill:black;font-family:sans-serif;font-size:13;" transform="matrix(1 0 0 1 263 1586)">Large</text>
 </g>
 <g id="Guides">
  <g id="H-reference" style="fill:#27AAE1;stroke:none;" transform="matrix(1 0 0 1 339 696)">
   <path d="M0.993654 0L3.63775 0L29.3281-67.1323L30.0303-67.1323L30.0303-70.459L28.1226-70.459ZM11.6885-24.4799L46.9815-24.4799L46.2315-26.7285L12.4385-26.7285ZM55.1196 0L57.7637 0L30.6382-70.459L29.4326-70.459L29.4326-67.1323Z"/>
  </g>
  <line id="Baseline-S" style="fill:none;stroke:#27AAE1;opacity:1;stroke-width:0.5;" x1="263" x2="3036" y1="696" y2="696"/>
  <line id="Capline-S" style="fill:none;stroke:#27AAE1;opacity:1;stroke-width:0.5;" x1="263" x2="3036" y1="625.541" y2="625.541"/>
  <g id="H-reference" style="fill:#27AAE1;stroke:none;" transform="matrix(1 0 0 1 339 1126)">
   <path d="M0.993654 0L3.63775 0L29.3281-67.1323L30.0303-67.1323L30.0303-70.459L28.1226-70.459ZM11.6885-24.4799L46.9815-24.4799L46.2315-26.7285L12.4385-26.7285ZM55.1196 0L57.7637 0L30.6382-70.459L29.4326-70.459L29.4326-67.1323Z"/>
  </g>
  <line id="Baseline-M" style="fill:none;stroke:#27AAE1;opacity:1;stroke-width:0.5;" x1="263" x2="3036" y1="1126" y2="1126"/>
  <line id="Capline-M" style="fill:none;stroke:#27AAE1;opacity:1;stroke-width:0.5;" x1="263" x2="3036" y1="1055.54" y2="1055.54"/>
  <g id="H-reference" style="fill:#27AAE1;stroke:none;" transform="matrix(1 0 0 1 339 1556)">
   <path d="M0.993654 0L3.63775 0L29.3281-67.1323L30.0303-67.1323L30.0303-70.459L28.1226-70.459ZM11.6885-24.4799L46.9815-24.4799L46.2315-26.7285L12.4385-26.7285ZM55.1196 0L57.7637 0L30.6382-70.459L29.4326-70.459L29.4326-67.1323Z"/>
  </g>
  <line id="Baseline-L" style="fill:none;stroke:#27AAE1;opacity:1;stroke-width:0.5;" x1="263" x2="3036" y1="1556" y2="1556"/>
  <line id="Capline-L" style="fill:none;stroke:#27AAE1;opacity:1;stroke-width:0.5;" x1="263" x2="3036" y1="1485.54" y2="1485.54"/>
  <line id="left-margin-Ultralight-S" style="fill:none;stroke:#00AEEF;stroke-width:0.5;opacity:1.0;" x1="522.811" x2="522.811" y1="600.785" y2="720.121"/>
  <line id="right-margin-Ultralight-S" style="fill:none;stroke:#00AEEF;stroke-width:0.5;opacity:1.0;" x1="596.611" x2="596.611" y1="600.785" y2="720.121"/>
  <line id="left-margin-Regular-S" style="fill:none;stroke:#00AEEF;stroke-width:0.5;opacity:1.0;" x1="1409.19" x2="1409.19" y1="600.785" y2="720.121"/>
  <line id="right-margin-Regular-S" style="fill:none;stroke:#00AEEF;stroke-width:0.5;opacity:1.0;" x1="1490.49" x2="1490.49" y1="600.785" y2="720.121"/>
  <line id="left-margin-Black-S" style="fill:none;stroke:#00AEEF;stroke-width:0.5;opacity:1.0;" x1="2889.7" x2="2889.7" y1="600.785" y2="720.121"/>
  <line id="right-margin-Black-S" style="fill:none;stroke:#00AEEF;stroke-width:0.5;opacity:1.0;" x1="2977.1" x2="2977.1" y1="600.785" y2="720.121"/>
 </g>
 <g id="Symbols">
  <g id="Black-S" transform="matrix(1 0 0 1 2889.7 696)">
   <path class="monochrome-0 SFSymbolsPreview000000" d="M73.41-51.4C74.41-51.4 75.31-52.2 75.31-53.3L75.31-71C75.31-72 74.51-72.9 73.41-72.9L56.81-72.9L56.81-80.9C56.81-82.4 55.61-83.6 54.11-83.6C52.61-83.6 51.41-82.4 51.41-80.9L51.41-72.9L41.31-72.9C36.91-72.9 33.11-70.2 31.51-66.4L20.31-66.4L20.31-58L31.51-58C33.11-54.2 36.91-51.5 41.31-51.5L51.41-51.5L51.41-46L41.31-46C36.91-46 33.11-43.3 31.51-39.5L20.31-39.5L20.31-31.1L31.51-31.1C33.11-27.3 36.91-24.6 41.31-24.6L51.41-24.6L51.41-19.1L41.31-19.1C36.91-19.1 33.11-16.4 31.51-12.6L20.31-12.6L20.31-4.2L31.51-4.2C33.11-0.4 36.91 2.3 41.31 2.3L51.41 2.3L51.41 10.2C51.41 11.7 52.61 12.9 54.11 12.9C55.61 12.9 56.81 11.7 56.81 10.2L56.81 2.6L73.51 2.6C74.51 2.6 75.41 1.8 75.41 0.7L75.41-17C75.41-18 74.61-18.9 73.51-18.9L56.81-18.9L56.81-24.4L73.51-24.4C74.51-24.4 75.41-25.2 75.41-26.3L75.41-44C75.41-45 74.61-45.9 73.51-45.9L56.81-45.9L56.81-51.4L73.41-51.4ZM72.61-16.2L72.61-0.1L41.31-0.1C38.11-0.1 35.21-2 33.91-5C33.51-6 32.51-6.6 31.41-6.6L22.91-6.6L22.91-9.7L31.41-9.7C32.51-9.7 33.41-10.3 33.91-11.3C35.21-14.3 38.11-16.2 41.31-16.2L72.61-16.2ZM72.61-43.1L72.61-27L41.31-27C38.11-27 35.21-28.9 33.91-31.9C33.51-32.9 32.51-33.5 31.41-33.5L22.91-33.5L22.91-36.6L31.41-36.6C32.51-36.6 33.41-37.2 33.91-38.2C35.21-41.2 38.11-43.1 41.31-43.1L72.61-43.1ZM41.31-54C38.11-54 35.21-55.9 33.91-58.9C33.51-59.9 32.51-60.5 31.41-60.5L22.91-60.5L22.91-63.6L31.41-63.6C32.51-63.6 33.41-64.2 33.91-65.2C35.21-68.2 38.11-70.1 41.31-70.1L72.61-70.1L72.61-54L41.31-54ZM44.21-30.3L44.21-40C44.21-40.5 44.61-40.9 45.11-40.9L62.71-40.9C63.21-40.9 63.61-40.5 63.61-40L63.61-30.2C63.61-29.7 63.21-29.3 62.71-29.3L45.11-29.3C44.61-29.3 44.21-29.8 44.21-30.3ZM44.21-3.3L44.21-13C44.21-13.5 44.61-13.9 45.11-13.9L62.71-13.9C63.21-13.9 63.61-13.5 63.61-13L63.61-3.2C63.61-2.7 63.21-2.3 62.71-2.3L45.11-2.3C44.61-2.3 44.21-2.7 44.21-3.3ZM44.21-57.2L44.21-67C44.21-67.5 44.61-67.9 45.11-67.9L62.71-67.9C63.21-67.9 63.61-67.5 63.61-67L63.61-57.2C63.61-56.7 63.21-56.3 62.71-56.3L45.11-56.3C44.61-56.3 44.21-56.7 44.21-57.2ZM17.91-39.2L13.91-39.2C12.81-39.2 11.91-38.4 11.91-37.2L11.91-32.7C11.91-31.6 12.71-30.7 13.91-30.7L13.91-30.7L17.91-30.7L17.91-39.2L17.91-39.2ZM17.91-12.3L13.91-12.3C12.81-12.3 11.91-11.5 11.91-10.3L11.91-5.8C11.91-4.7 12.71-3.8 13.91-3.8L13.91-3.8L17.91-3.8L17.91-12.3L17.91-12.3ZM17.91-66.2L13.91-66.2C12.81-66.2 11.91-65.4 11.91-64.2L11.91-59.7C11.91-58.6 12.71-57.7 13.91-57.7L13.91-57.7L17.91-57.7L17.91-66.2L17.91-66.2Z"/>
  </g>
  <g id="Regular-S" transform="matrix(1 0 0 1 1409.19 696)">
   <path class="monochrome-0 SFSymbolsPreview000000" d="M68.6-50.4C69.6-50.4 70.3-51.2 70.3-52.1L70.3-68.6C70.3-69.6 69.5-70.3 68.6-70.3L52.9-70.3L52.9-77.8C52.9-79.2 51.8-80.3 50.4-80.3C49-80.3 47.9-79.2 47.9-77.8L47.9-70.3L38.4-70.3C34.3-70.3 30.7-67.8 29.2-64.2L18.8-64.2L18.8-56.3L29.2-56.3C30.7-52.7 34.3-50.2 38.4-50.2L47.9-50.2L47.9-45L38.4-45C34.3-45 30.7-42.5 29.2-38.9L18.8-38.9L18.8-31L29.2-31C30.7-27.4 34.3-24.9 38.4-24.9L47.9-24.9L47.9-19.7L38.4-19.7C34.3-19.7 30.7-17.2 29.2-13.6L18.8-13.6L18.8-6L29.2-6C30.7-2.4 34.3 0.1 38.4 0.1L47.9 0.1L47.9 7.5C47.9 8.9 49 10 50.4 10C51.8 10 52.9 8.9 52.9 7.5L52.9 0.1L68.5 0.1C69.5 0.1 70.2-0.7 70.2-1.6L70.2-18.1C70.2-19.1 69.4-19.8 68.5-19.8L52.9-19.8L52.9-25L68.5-25C69.5-25 70.2-25.8 70.2-26.7L70.2-43.2C70.2-44.2 69.4-44.9 68.5-44.9L52.9-44.9L52.9-50.1L68.6-50.1ZM67.8-17.5L67.8-2.5L38.5-2.5C35.5-2.5 32.8-4.3 31.6-7.1C31.2-8 30.3-8.6 29.3-8.6L21.4-8.6L21.4-11.5L29.3-11.5C30.3-11.5 31.2-12.1 31.6-13C32.8-15.8 35.5-17.6 38.5-17.6L67.8-17.6ZM67.8-42.7L67.8-27.7L38.5-27.7C35.5-27.7 32.8-29.5 31.6-32.3C31.2-33.2 30.3-33.8 29.3-33.8L21.4-33.8L21.4-36.7L29.3-36.7C30.3-36.7 31.2-37.3 31.6-38.2C32.8-41 35.5-42.8 38.5-42.8L67.8-42.8ZM38.5-52.9C35.5-52.9 32.8-54.7 31.6-57.5C31.2-58.4 30.3-59 29.3-59L21.4-59L21.4-61.9L29.3-61.9C30.3-61.9 31.2-62.5 31.6-63.4C32.8-66.2 35.5-68 38.5-68L67.8-68L67.8-53L38.5-53ZM41.2-30.7L41.2-39.8C41.2-40.3 41.6-40.7 42.1-40.7L58.6-40.7C59.1-40.7 59.5-40.3 59.5-39.8L59.5-30.7C59.5-30.2 59.1-29.8 58.6-29.8L42.1-29.8C41.6-29.8 41.2-30.2 41.2-30.7ZM41.2-5.4L41.2-14.5C41.2-15 41.6-15.4 42.1-15.4L58.6-15.4C59.1-15.4 59.5-15 59.5-14.5L59.5-5.4C59.5-4.9 59.1-4.5 58.6-4.5L42.1-4.5C41.6-4.5 41.2-4.9 41.2-5.4ZM41.2-55.9L41.2-65C41.2-65.5 41.6-65.9 42.1-65.9L58.6-65.9C59.1-65.9 59.5-65.5 59.5-65L59.5-55.9C59.5-55.4 59.1-55 58.6-55L42.1-55C41.6-55 41.2-55.4 41.2-55.9ZM16.6-39.1L12.9-39.1C11.9-39.1 11.1-38.3 11.1-37.3L11.1-33.1C11.1-32.1 11.9-31.3 12.9-31.3L12.9-31.3L16.6-31.3L16.6-39.1L16.6-39.1ZM16.6-13.8L12.9-13.8C11.9-13.8 11.1-13 11.1-12L11.1-7.8C11.1-6.8 11.9-6 12.9-6L12.9-6L16.6-6L16.6-13.8L16.6-13.8ZM16.6-64.3L12.9-64.3C11.9-64.3 11.1-63.5 11.1-62.5L11.1-58.3C11.1-57.3 11.9-56.5 12.9-56.5L12.9-56.5L16.6-56.5L16.6-64.3L16.6-64.3Z"/>
  </g>
  <g id="Ultralight-S" transform="matrix(1 0 0 1 522.811 696)">
   <path class="monochrome-0 SFSymbolsPreview000000" d="M62.504-49.1C63.404-49.1 64.104-49.8 64.104-50.7L64.104-65.9C64.104-66.8 63.404-67.5 62.504-67.5L48.204-67.5L48.204-74.4C48.204-75.7 47.204-76.7 45.904-76.7C44.604-76.7 43.604-75.7 43.604-74.4L43.604-67.5L34.904-67.5C31.104-67.5 27.804-65.2 26.404-61.9L16.804-61.9L16.804-54.7L26.404-54.7C27.804-51.4 31.104-49.1 34.904-49.1L43.604-49.1L43.604-44.3L34.904-44.3C31.104-44.3 27.804-42 26.404-38.7L16.804-38.7L16.804-31.5L26.404-31.5C27.804-28.2 31.104-25.9 34.904-25.9L43.604-25.9L43.604-21.1L34.904-21.1C31.104-21.1 27.804-18.8 26.404-15.5L16.804-15.5L16.804-8.3L26.404-8.3C27.804-5 31.104-2.7 34.904-2.7L43.604-2.7L43.604 4C43.604 5.3 44.604 6.3 45.904 6.3C47.204 6.3 48.204 5.3 48.204 4L48.204-2.8L62.504-2.8C63.404-2.8 64.104-3.5 64.104-4.4L64.104-19.6C64.104-20.5 63.404-21.2 62.504-21.2L48.204-21.2L48.204-26L62.504-26C63.404-26 64.104-26.7 64.104-27.6L64.104-42.8C64.104-43.7 63.404-44.4 62.504-44.4L48.204-44.4L48.204-49.2L62.504-49.2ZM61.804-18.9L61.804-5.1L34.904-5.1C32.104-5.1 29.604-6.7 28.604-9.3C28.204-10.1 27.404-10.7 26.504-10.7L19.204-10.7L19.204-13.3L26.504-13.3C27.404-13.3 28.204-13.8 28.604-14.7C29.704-17.2 32.204-18.9 34.904-18.9L61.804-18.9ZM61.804-42L61.804-28.2L34.904-28.2C32.104-28.2 29.604-29.8 28.604-32.4C28.204-33.2 27.404-33.8 26.504-33.8L19.204-33.8L19.204-36.4L26.504-36.4C27.404-36.4 28.204-36.9 28.604-37.8C29.704-40.3 32.204-42 34.904-42L61.804-42ZM34.904-51.4C32.104-51.4 29.604-53 28.604-55.6C28.204-56.4 27.404-57 26.504-57L19.204-57L19.204-59.6L26.504-59.6C27.404-59.6 28.204-60.1 28.604-61C29.704-63.5 32.204-65.2 34.904-65.2L61.804-65.2L61.804-51.4L34.904-51.4ZM37.404-31L37.404-39.4C37.404-39.8 37.804-40.2 38.204-40.2L53.304-40.2C53.704-40.2 54.104-39.8 54.104-39.4L54.104-31C54.104-30.6 53.704-30.2 53.304-30.2L38.204-30.2C37.704-30.2 37.404-30.5 37.404-31ZM37.404-7.8L37.404-16.2C37.404-16.6 37.804-17 38.204-17L53.304-17C53.704-17 54.104-16.6 54.104-16.2L54.104-7.8C54.104-7.4 53.704-7 53.304-7L38.204-7C37.704-7 37.404-7.3 37.404-7.8ZM37.404-54.1L37.404-62.5C37.404-62.9 37.804-63.3 38.204-63.3L53.304-63.3C53.704-63.3 54.104-62.9 54.104-62.5L54.104-54.1C54.104-53.7 53.704-53.3 53.304-53.3L38.204-53.3C37.704-53.3 37.404-53.7 37.404-54.1ZM14.804-38.7L11.404-38.7C10.504-38.7 9.704-38 9.704-37L9.704-33.1C9.704-32.2 10.404-31.4 11.404-31.4L11.404-31.4L14.804-31.4L14.804-38.7L14.804-38.7ZM14.804-15.5L11.404-15.5C10.504-15.5 9.704-14.8 9.704-13.8L9.704-9.9C9.704-9 10.404-8.2 11.404-8.2L11.404-8.2L14.804-8.2L14.804-15.5L14.804-15.5ZM14.804-61.9L11.404-61.9C10.504-61.9 9.704-61.2 9.704-60.2L9.704-56.3C9.704-55.4 10.404-54.6 11.404-54.6L11.404-54.6L14.804-54.6L14.804-61.9L14.804-61.9Z"/>
  </g>
 </g>
</svg>
