<?xml version="1.0" encoding="UTF-8"?>
<!--Generator: Apple Native CoreSVG 175.5-->
<!DOCTYPE svg
PUBLIC "-//W3C//DTD SVG 1.1//EN"
       "http://www.w3.org/Graphics/SVG/1.1/DTD/svg11.dtd">
<svg version="1.1" xmlns="http://www.w3.org/2000/svg" xmlns:xlink="http://www.w3.org/1999/xlink" width="3300" height="2200">
 <!--glyph: "", point size: 100.0, font version: "18.0d12e2", template writer version: "101"-->
 <style>.monochrome-0 {fill:#000000}

.SFSymbolsPreview000000 {fill:#000000;opacity:1.0}
</style>
 <g id="Notes">
  <rect height="2200" id="artboard" style="fill:white;opacity:1" width="3300" x="0" y="0"/>
  <line style="fill:none;stroke:black;opacity:1;stroke-width:0.5;" x1="263" x2="3036" y1="292" y2="292"/>
  <text style="stroke:none;fill:black;font-family:sans-serif;font-size:13;font-weight:bold;" transform="matrix(1 0 0 1 263 322)">Weight/Scale Variations</text>
  <text style="stroke:none;fill:black;font-family:sans-serif;font-size:13;text-anchor:middle;" transform="matrix(1 0 0 1 559.711 322)">Ultralight</text>
  <text style="stroke:none;fill:black;font-family:sans-serif;font-size:13;text-anchor:middle;" transform="matrix(1 0 0 1 856.422 322)">Thin</text>
  <text style="stroke:none;fill:black;font-family:sans-serif;font-size:13;text-anchor:middle;" transform="matrix(1 0 0 1 1153.13 322)">Light</text>
  <text style="stroke:none;fill:black;font-family:sans-serif;font-size:13;text-anchor:middle;" transform="matrix(1 0 0 1 1449.84 322)">Regular</text>
  <text style="stroke:none;fill:black;font-family:sans-serif;font-size:13;text-anchor:middle;" transform="matrix(1 0 0 1 1746.56 322)">Medium</text>
  <text style="stroke:none;fill:black;font-family:sans-serif;font-size:13;text-anchor:middle;" transform="matrix(1 0 0 1 2043.27 322)">Semibold</text>
  <text style="stroke:none;fill:black;font-family:sans-serif;font-size:13;text-anchor:middle;" transform="matrix(1 0 0 1 2339.98 322)">Bold</text>
  <text style="stroke:none;fill:black;font-family:sans-serif;font-size:13;text-anchor:middle;" transform="matrix(1 0 0 1 2636.69 322)">Heavy</text>
  <text style="stroke:none;fill:black;font-family:sans-serif;font-size:13;text-anchor:middle;" transform="matrix(1 0 0 1 2933.4 322)">Black</text>
  <line style="fill:none;stroke:black;opacity:1;stroke-width:0.5;" x1="263" x2="3036" y1="1903" y2="1903"/>
  <g transform="matrix(1 0 0 1 263 1933)">
   <path d="M9.24805 0.830078C13.5547 0.830078 17.1387-2.74414 17.1387-7.05078C17.1387-11.3574 13.5449-14.9316 9.23828-14.9316C4.94141-14.9316 1.36719-11.3574 1.36719-7.05078C1.36719-2.74414 4.95117 0.830078 9.24805 0.830078ZM9.24805-0.654297C5.70312-0.654297 2.87109-3.49609 2.87109-7.05078C2.87109-10.6055 5.69336-13.4473 9.23828-13.4473C12.793-13.4473 15.6445-10.6055 15.6445-7.05078C15.6445-3.49609 12.8027-0.654297 9.24805-0.654297ZM5.6543-7.05078C5.6543-6.62109 5.95703-6.32812 6.40625-6.32812L8.50586-6.32812L8.50586-4.20898C8.50586-3.76953 8.79883-3.4668 9.22852-3.4668C9.67773-3.4668 9.9707-3.76953 9.9707-4.20898L9.9707-6.32812L12.0898-6.32812C12.5293-6.32812 12.832-6.62109 12.832-7.05078C12.832-7.49023 12.5293-7.79297 12.0898-7.79297L9.9707-7.79297L9.9707-9.90234C9.9707-10.3516 9.67773-10.6543 9.22852-10.6543C8.79883-10.6543 8.50586-10.3516 8.50586-9.90234L8.50586-7.79297L6.40625-7.79297C5.95703-7.79297 5.6543-7.49023 5.6543-7.05078Z"/>
  </g>
  <g transform="matrix(1 0 0 1 281.867 1933)">
   <path d="M11.709 2.91016C17.1582 2.91016 21.6699-1.61133 21.6699-7.05078C21.6699-12.5 17.1484-17.0117 11.6992-17.0117C6.25977-17.0117 1.74805-12.5 1.74805-7.05078C1.74805-1.61133 6.26953 2.91016 11.709 2.91016ZM11.709 1.25C7.09961 1.25 3.41797-2.44141 3.41797-7.05078C3.41797-11.6602 7.08984-15.3516 11.6992-15.3516C16.3086-15.3516 20.0098-11.6602 20.0098-7.05078C20.0098-2.44141 16.3184 1.25 11.709 1.25ZM7.17773-7.05078C7.17773-6.57227 7.50977-6.25 8.00781-6.25L10.8789-6.25L10.8789-3.36914C10.8789-2.88086 11.2109-2.53906 11.6895-2.53906C12.1777-2.53906 12.5195-2.87109 12.5195-3.36914L12.5195-6.25L15.4004-6.25C15.8887-6.25 16.2305-6.57227 16.2305-7.05078C16.2305-7.53906 15.8887-7.88086 15.4004-7.88086L12.5195-7.88086L12.5195-10.752C12.5195-11.25 12.1777-11.5918 11.6895-11.5918C11.2109-11.5918 10.8789-11.25 10.8789-10.752L10.8789-7.88086L8.00781-7.88086C7.50977-7.88086 7.17773-7.53906 7.17773-7.05078Z"/>
  </g>
  <g transform="matrix(1 0 0 1 305.646 1933)">
   <path d="M14.9707 5.66406C21.9336 5.66406 27.6953-0.0976562 27.6953-7.05078C27.6953-14.0137 21.9238-19.7754 14.9609-19.7754C8.00781-19.7754 2.25586-14.0137 2.25586-7.05078C2.25586-0.0976562 8.01758 5.66406 14.9707 5.66406ZM14.9707 3.84766C8.93555 3.84766 4.08203-1.01562 4.08203-7.05078C4.08203-13.0957 8.92578-17.9492 14.9609-17.9492C21.0059-17.9492 25.8691-13.0957 25.8691-7.05078C25.8691-1.01562 21.0156 3.84766 14.9707 3.84766ZM9.19922-7.05078C9.19922-6.5332 9.57031-6.17188 10.1172-6.17188L14.0625-6.17188L14.0625-2.2168C14.0625-1.67969 14.4336-1.29883 14.9512-1.29883C15.4883-1.29883 15.8594-1.66992 15.8594-2.2168L15.8594-6.17188L19.8145-6.17188C20.3516-6.17188 20.7324-6.5332 20.7324-7.05078C20.7324-7.59766 20.3613-7.96875 19.8145-7.96875L15.8594-7.96875L15.8594-11.9141C15.8594-12.4609 15.4883-12.8418 14.9512-12.8418C14.4336-12.8418 14.0625-12.4609 14.0625-11.9141L14.0625-7.96875L10.1172-7.96875C9.57031-7.96875 9.19922-7.59766 9.19922-7.05078Z"/>
  </g>
  <text style="stroke:none;fill:black;font-family:sans-serif;font-size:13;font-weight:bold;" transform="matrix(1 0 0 1 263 1953)">Design Variations</text>
  <text style="stroke:none;fill:black;font-family:sans-serif;font-size:13;" transform="matrix(1 0 0 1 263 1971)">Symbols are supported in up to nine weights and three scales.</text>
  <text style="stroke:none;fill:black;font-family:sans-serif;font-size:13;" transform="matrix(1 0 0 1 263 1989)">For optimal layout with text and other symbols, vertically align</text>
  <text style="stroke:none;fill:black;font-family:sans-serif;font-size:13;" transform="matrix(1 0 0 1 263 2007)">symbols with the adjacent text.</text>
  <line style="fill:none;stroke:#00AEEF;stroke-width:0.5;opacity:1.0;" x1="776" x2="776" y1="1919" y2="1933"/>
  <g transform="matrix(1 0 0 1 776 1933)">
   <path d="M3.31055 0.15625C3.82812 0.15625 4.08203-0.0390625 4.26758-0.585938L5.52734-4.0332L11.2891-4.0332L12.5488-0.585938C12.7344-0.0390625 12.9883 0.15625 13.4961 0.15625C14.0137 0.15625 14.3457-0.15625 14.3457-0.644531C14.3457-0.810547 14.3164-0.966797 14.2383-1.17188L9.6582-13.3691C9.43359-13.9648 9.0332-14.2676 8.4082-14.2676C7.80273-14.2676 7.39258-13.9746 7.17773-13.3789L2.59766-1.16211C2.51953-0.957031 2.49023-0.800781 2.49023-0.634766C2.49023-0.146484 2.80273 0.15625 3.31055 0.15625ZM6.00586-5.51758L8.37891-12.0898L8.42773-12.0898L10.8008-5.51758Z"/>
  </g>
  <line style="fill:none;stroke:#00AEEF;stroke-width:0.5;opacity:1.0;" x1="793.197" x2="793.197" y1="1919" y2="1933"/>
  <text style="stroke:none;fill:black;font-family:sans-serif;font-size:13;font-weight:bold;" transform="matrix(1 0 0 1 776 1953)">Margins</text>
  <text style="stroke:none;fill:black;font-family:sans-serif;font-size:13;" transform="matrix(1 0 0 1 776 1971)">Leading and trailing margins on the left and right side of each symbol</text>
  <text style="stroke:none;fill:black;font-family:sans-serif;font-size:13;" transform="matrix(1 0 0 1 776 1989)">can be adjusted by modifying the x-location of the margin guidelines.</text>
  <text style="stroke:none;fill:black;font-family:sans-serif;font-size:13;" transform="matrix(1 0 0 1 776 2007)">Modifications are automatically applied proportionally to all</text>
  <text style="stroke:none;fill:black;font-family:sans-serif;font-size:13;" transform="matrix(1 0 0 1 776 2025)">scales and weights.</text>
  <g transform="matrix(1 0 0 1 1289 1933)">
   <path d="M2.8418 1.86523L4.54102 3.57422C5.40039 4.44336 6.38672 4.38477 7.31445 3.35938L18.0078-8.42773L17.041-9.4043L6.42578 2.27539C6.07422 2.67578 5.74219 2.77344 5.27344 2.30469L4.10156 1.14258C3.63281 0.683594 3.74023 0.341797 4.14062-0.0195312L15.6152-10.8203L14.6387-11.7871L3.04688-0.898438C2.06055 0.0195312 1.98242 0.996094 2.8418 1.86523ZM9.25781-16.3281C8.83789-15.918 8.80859-15.3418 9.04297-14.9512C9.27734-14.5898 9.73633-14.3555 10.3809-14.5215C11.8457-14.8633 13.3691-14.9219 14.7949-13.9844L14.209-12.5293C13.8672-11.6992 14.043-11.1133 14.5801-10.5664L16.875-8.25195C17.3633-7.76367 17.7734-7.74414 18.3398-7.8418L19.4043-8.03711L20.0684-7.36328L20.0293-6.80664C19.9902-6.30859 20.1172-5.92773 20.6055-5.44922L21.3672-4.70703C21.8457-4.22852 22.4609-4.19922 22.9297-4.66797L25.8398-7.58789C26.3086-8.05664 26.2891-8.65234 25.8105-9.13086L25.0391-9.89258C24.5605-10.3711 24.1895-10.5273 23.7109-10.4883L23.1348-10.4395L22.4902-11.0742L22.7344-12.1973C22.8613-12.7637 22.7051-13.2031 22.1191-13.7891L19.9219-15.9766C16.582-19.2969 12.1484-19.2188 9.25781-16.3281ZM10.752-15.957C13.1836-17.7344 16.4746-17.4316 18.7012-15.2051L21.1328-12.793C21.3672-12.5586 21.4062-12.373 21.3379-12.0312L21.0156-10.5469L22.5195-9.0625L23.5059-9.12109C23.7598-9.13086 23.8379-9.11133 24.0332-8.91602L24.6094-8.33984L22.168-5.89844L21.5918-6.47461C21.3965-6.66992 21.3672-6.74805 21.377-7.01172L21.4453-7.98828L19.9512-9.47266L18.4277-9.21875C18.1055-9.15039 17.959-9.17969 17.7148-9.41406L15.7129-11.416C15.459-11.6504 15.4297-11.8164 15.5859-12.1875L16.4648-14.2773C14.9023-15.7324 12.8711-16.3574 10.8398-15.7617C10.6836-15.7227 10.625-15.8496 10.752-15.957Z"/>
  </g>
  <text style="stroke:none;fill:black;font-family:sans-serif;font-size:13;font-weight:bold;" transform="matrix(1 0 0 1 1289 1953)">Exporting</text>
  <text style="stroke:none;fill:black;font-family:sans-serif;font-size:13;" transform="matrix(1 0 0 1 1289 1971)">Symbols should be outlined when exporting to ensure the</text>
  <text style="stroke:none;fill:black;font-family:sans-serif;font-size:13;" transform="matrix(1 0 0 1 1289 1989)">design is preserved when submitting to Xcode.</text>
  <text id="template-version" style="stroke:none;fill:black;font-family:sans-serif;font-size:13;text-anchor:end;" transform="matrix(1 0 0 1 3036 1933)">Template v.4.0</text>
  <text style="stroke:none;fill:black;font-family:sans-serif;font-size:13;text-anchor:end;" transform="matrix(1 0 0 1 3036 1951)">Requires Xcode 14 or greater</text>
  <text id="descriptive-name" style="stroke:none;fill:black;font-family:sans-serif;font-size:13;text-anchor:end;" transform="matrix(1 0 0 1 3036 1969)">Generated from case.sake</text>
  <text style="stroke:none;fill:black;font-family:sans-serif;font-size:13;text-anchor:end;" transform="matrix(1 0 0 1 3036 1987)">Typeset at 100 points</text>
  <text style="stroke:none;fill:black;font-family:sans-serif;font-size:13;" transform="matrix(1 0 0 1 263 726)">Small</text>
  <text style="stroke:none;fill:black;font-family:sans-serif;font-size:13;" transform="matrix(1 0 0 1 263 1156)">Medium</text>
  <text style="stroke:none;fill:black;font-family:sans-serif;font-size:13;" transform="matrix(1 0 0 1 263 1586)">Large</text>
 </g>
 <g id="Guides">
  <g id="H-reference" style="fill:#27AAE1;stroke:none;" transform="matrix(1 0 0 1 339 696)">
   <path d="M0.993654 0L3.63775 0L29.3281-67.1323L30.0303-67.1323L30.0303-70.459L28.1226-70.459ZM11.6885-24.4799L46.9815-24.4799L46.2315-26.7285L12.4385-26.7285ZM55.1196 0L57.7637 0L30.6382-70.459L29.4326-70.459L29.4326-67.1323Z"/>
  </g>
  <line id="Baseline-S" style="fill:none;stroke:#27AAE1;opacity:1;stroke-width:0.5;" x1="263" x2="3036" y1="696" y2="696"/>
  <line id="Capline-S" style="fill:none;stroke:#27AAE1;opacity:1;stroke-width:0.5;" x1="263" x2="3036" y1="625.541" y2="625.541"/>
  <g id="H-reference" style="fill:#27AAE1;stroke:none;" transform="matrix(1 0 0 1 339 1126)">
   <path d="M0.993654 0L3.63775 0L29.3281-67.1323L30.0303-67.1323L30.0303-70.459L28.1226-70.459ZM11.6885-24.4799L46.9815-24.4799L46.2315-26.7285L12.4385-26.7285ZM55.1196 0L57.7637 0L30.6382-70.459L29.4326-70.459L29.4326-67.1323Z"/>
  </g>
  <line id="Baseline-M" style="fill:none;stroke:#27AAE1;opacity:1;stroke-width:0.5;" x1="263" x2="3036" y1="1126" y2="1126"/>
  <line id="Capline-M" style="fill:none;stroke:#27AAE1;opacity:1;stroke-width:0.5;" x1="263" x2="3036" y1="1055.54" y2="1055.54"/>
  <g id="H-reference" style="fill:#27AAE1;stroke:none;" transform="matrix(1 0 0 1 339 1556)">
   <path d="M0.993654 0L3.63775 0L29.3281-67.1323L30.0303-67.1323L30.0303-70.459L28.1226-70.459ZM11.6885-24.4799L46.9815-24.4799L46.2315-26.7285L12.4385-26.7285ZM55.1196 0L57.7637 0L30.6382-70.459L29.4326-70.459L29.4326-67.1323Z"/>
  </g>
  <line id="Baseline-L" style="fill:none;stroke:#27AAE1;opacity:1;stroke-width:0.5;" x1="263" x2="3036" y1="1556" y2="1556"/>
  <line id="Capline-L" style="fill:none;stroke:#27AAE1;opacity:1;stroke-width:0.5;" x1="263" x2="3036" y1="1485.54" y2="1485.54"/>
  <line id="left-margin-Ultralight-S" style="fill:none;stroke:#00AEEF;stroke-width:0.5;opacity:1.0;" x1="508.611" x2="508.611" y1="600.785" y2="720.121"/>
  <line id="right-margin-Ultralight-S" style="fill:none;stroke:#00AEEF;stroke-width:0.5;opacity:1.0;" x1="610.811" x2="610.811" y1="600.785" y2="720.121"/>
  <line id="left-margin-Regular-S" style="fill:none;stroke:#00AEEF;stroke-width:0.5;opacity:1.0;" x1="1391.89" x2="1391.89" y1="600.785" y2="720.121"/>
  <line id="right-margin-Regular-S" style="fill:none;stroke:#00AEEF;stroke-width:0.5;opacity:1.0;" x1="1507.79" x2="1507.79" y1="600.785" y2="720.121"/>
  <line id="left-margin-Black-S" style="fill:none;stroke:#00AEEF;stroke-width:0.5;opacity:1.0;" x1="2872.6" x2="2872.6" y1="600.785" y2="720.121"/>
  <line id="right-margin-Black-S" style="fill:none;stroke:#00AEEF;stroke-width:0.5;opacity:1.0;" x1="2994.2" x2="2994.2" y1="600.785" y2="720.121"/>
 </g>
 <g id="Symbols">
  <g id="Black-S" transform="matrix(1 0 0 1 2872.6 696)">
   <path class="monochrome-0 SFSymbolsPreview000000" d="M65.12-33L54.72-52.3C53.72-54.2 53.12-56.4 53.12-58.6C53.12-60.8 53.82-63 55.02-64.8L58.52-70C60.12-72.3 61.02-75.1 61.02-77.9L61.02-80.4C61.02-82.1 59.72-83.4 58.02-83.4L27.42-83.4C25.72-83.4 24.42-82.1 24.42-80.4L24.42-77.9C24.42-75.1 25.32-72.3 26.92-70L30.42-64.8C31.72-63 32.42-60.8 32.32-58.6C32.32-56.4 31.72-54.2 30.72-52.3L20.32-33C16.72-26.4 14.92-19 14.92-11.4L14.92 5.2C14.92 9.4 18.32 12.9 22.62 12.9L62.92 12.9C67.12 12.9 70.62 9.5 70.62 5.2L70.62-11.3C70.62-18.9 68.72-26.3 65.12-33ZM66.82 5.2C66.82 7.4 65.02 9.1 62.92 9.1L22.62 9.1C20.42 9.1 18.72 7.3 18.72 5.2L18.72-11.3C18.72-18.2 20.42-25 23.72-31.1L34.02-50.5C35.32-53 36.02-55.7 36.12-58.5C36.12-61.4 35.22-64.3 33.52-66.9L30.02-72.1C28.82-73.8 28.22-75.8 28.22-77.9L28.22-79.6L57.42-79.6L57.42-77.9C57.42-75.8 56.82-73.8 55.62-72.1L52.02-66.9C50.32-64.4 49.42-61.5 49.42-58.5C49.42-55.7 50.22-52.9 51.52-50.5L61.92-31.1C65.22-25 66.92-18.2 66.92-11.3L66.92 5.2ZM105.02-22.8L79.42-22.8C78.52-22.8 77.82-22.1 77.82-21.2L77.82-3.4C77.82 1.8 82.02 6.1 87.32 6.1L85.42 6.1C83.32 6.1 81.52 7.8 81.52 10L81.52 11.7C81.52 12.4 82.12 13 82.82 13L101.62 13C102.32 13 102.92 12.4 102.92 11.7L102.92 9.8C103.02 7.7 101.22 6 99.12 6L97.22 6C102.42 6 106.72 1.8 106.72-3.5L106.72-21.3C106.62-22.1 105.92-22.8 105.02-22.8ZM44.6776-29.8016C51.274-28.731 55.7536-22.5157 54.6831-15.9192C53.6125-9.32279 47.3972-4.84318 40.8007-5.91374C34.2043-6.9843 29.7247-13.1996 30.7952-19.7961C31.8658-26.3925 38.0811-30.8721 44.6776-29.8016ZM102.92-3.5C102.92-0.3 100.32 2.2 97.22 2.2L87.32 2.2C84.12 2.2 81.62-0.4 81.62-3.5L81.62-19.1L103.02-19.1L103.02-3.5Z"/>
  </g>
  <g id="Regular-S" transform="matrix(1 0 0 1 1391.89 696)">
   <path class="monochrome-0 SFSymbolsPreview000000" d="M62.01-33.4L52.21-51.6C51.21-53.4 50.71-55.5 50.71-57.5C50.71-59.6 51.31-61.6 52.51-63.3L55.81-68.1C57.31-70.3 58.11-72.9 58.11-75.5L58.11-77.8C58.11-79.4 56.81-80.6 55.31-80.6L26.61-80.6C25.01-80.6 23.81-79.3 23.81-77.8L23.81-75.5C23.81-72.9 24.61-70.3 26.11-68.1L29.41-63.3C30.61-61.6 31.21-59.6 31.21-57.5C31.21-55.4 30.61-53.4 29.71-51.6L19.91-33.4C16.61-27.2 14.81-20.2 14.81-13.1L14.81 2.5C14.81 6.5 18.01 9.7 22.01 9.7L59.91 9.7C63.91 9.7 67.11 6.5 67.11 2.5L67.11-13.1C67.11-20.2 65.41-27.1 62.01-33.4ZM63.61 2.5C63.61 4.5 61.91 6.2 59.91 6.2L22.01 6.2C20.01 6.2 18.31 4.5 18.31 2.5L18.31-13.1C18.31-19.6 19.91-26 23.01-31.7L32.81-49.9C34.01-52.2 34.71-54.8 34.81-57.4C34.81-60.2 34.01-62.9 32.41-65.3L29.11-70.1C28.01-71.7 27.41-73.6 27.41-75.5L27.41-77.1L54.81-77.1L54.81-75.5C54.81-73.6 54.21-71.7 53.11-70.1L49.81-65.3C48.21-62.9 47.31-60.2 47.41-57.4C47.41-54.8 48.11-52.2 49.41-49.9L59.21-31.7C62.31-26 63.91-19.5 63.91-13.1L63.91 2.5ZM99.61-23.9L75.51-23.9C74.71-23.9 74.01-23.2 74.01-22.4L74.01-5.7C74.01-0.8 78.01 3.2 82.91 3.2L81.11 3.2C79.11 3.2 77.51 4.8 77.51 6.8L77.51 8.4C77.51 9.1 78.11 9.7 78.81 9.7L96.51 9.7C97.21 9.7 97.81 9.1 97.81 8.4L97.81 6.9C97.81 4.9 96.21 3.3 94.21 3.3L92.41 3.3C97.31 3.3 101.31-0.7 101.31-5.6L101.31-22.3C101.11-23.2 100.41-23.9 99.61-23.9ZM42.8001-30.4877C49.0149-29.4791 53.2353-23.6233 52.2267-17.4085C51.2181-11.1936 45.3623-6.97317 39.1475-7.9818C32.9327-8.99043 28.7122-14.8462 29.7208-21.061C30.7295-27.2758 36.5852-31.4963 42.8001-30.4877ZM97.61-5.6C97.61-2.6 95.21-0.2 92.21-0.2L82.91-0.2C79.91-0.2 77.51-2.6 77.51-5.6L77.51-20.3L97.61-20.3L97.61-5.6Z"/>
  </g>
  <g id="Ultralight-S" transform="matrix(1 0 0 1 508.611 696)">
   <path class="monochrome-0 SFSymbolsPreview000000" d="M54.849-33.5L45.849-50.2C44.949-51.9 44.449-53.7 44.449-55.6C44.449-57.5 45.049-59.4 46.149-60.9L49.249-65.3C50.649-67.3 51.349-69.7 51.349-72.1L51.349-74.2C51.349-75.6 50.149-76.8 48.749-76.8L22.349-76.8C20.949-76.8 19.749-75.6 19.749-74.2L19.749-72.1C19.749-69.7 20.449-67.3 21.849-65.3L24.949-60.9C26.049-59.3 26.649-57.5 26.649-55.6C26.649-53.7 26.149-51.8 25.249-50.2L16.249-33.5C13.149-27.8 11.549-21.4 11.549-14.9L11.549-0.6C11.549 3.1 14.549 6 18.149 6L52.949 6C56.649 6 59.549 3 59.549-0.6L59.549-14.9C59.549-21.3 57.949-27.7 54.849-33.5ZM56.349-0.6C56.349 1.3 54.849 2.8 52.949 2.8L18.149 2.8C16.249 2.8 14.749 1.3 14.749-0.6L14.749-14.9C14.749-20.8 16.249-26.8 19.049-32L28.049-48.7C29.149-50.8 29.849-53.2 29.849-55.6C29.849-58.1 29.149-60.6 27.649-62.8L24.549-67.2C23.549-68.7 22.949-70.4 22.949-72.2L22.949-73.7L48.149-73.7L48.149-72.2C48.149-70.4 47.649-68.7 46.549-67.2L43.449-62.8C41.949-60.6 41.149-58.1 41.249-55.6C41.249-53.2 41.949-50.8 43.049-48.7L52.049-32C54.849-26.8 56.349-20.8 56.349-14.9L56.349-0.6ZM89.349-24.7L67.249-24.7C66.449-24.7 65.849-24.1 65.849-23.3L65.849-8C65.849-3.5 69.549 0.2 74.049 0.2L72.449 0.2C70.649 0.2 69.149 1.7 69.149 3.5L69.149 4.9C69.149 5.5 69.649 6 70.249 6L86.449 6C87.049 6 87.549 5.5 87.549 4.9L87.549 3.5C87.549 1.7 86.049 0.2 84.249 0.2L82.649 0.2C87.149 0.2 90.849-3.5 90.849-8L90.849-23.3C90.749-24.1 90.049-24.7 89.349-24.7ZM37.1588-30.7499C42.8285-29.8297 46.6787-24.4876 45.7586-18.818C44.8384-13.1483 39.4963-9.29806 33.8267-10.2182C28.157-11.1384 24.3068-16.4805 25.2269-22.1501C26.1471-27.8198 31.4892-31.67 37.1588-30.7499ZM87.549-8C87.549-5.3 85.349-3.1 82.649-3.1L74.049-3.1C71.249-3.1 69.049-5.3 69.049-8L69.049-21.5L87.549-21.5L87.549-8Z"/>
  </g>
 </g>
</svg>
