<?xml version="1.0" encoding="UTF-8"?>
<!--Generator: Apple Native CoreSVG 175.5-->
<!DOCTYPE svg
PUBLIC "-//W3C//DTD SVG 1.1//EN"
       "http://www.w3.org/Graphics/SVG/1.1/DTD/svg11.dtd">
<svg version="1.1" xmlns="http://www.w3.org/2000/svg" xmlns:xlink="http://www.w3.org/1999/xlink" width="3300" height="2200">
 <!--glyph: "", point size: 100.0, font version: "18.0d12e2", template writer version: "101"-->
 <style>.monochrome-0 {fill:#000000}

.SFSymbolsPreview000000 {fill:#000000;opacity:1.0}
</style>
 <g id="Notes">
  <rect height="2200" id="artboard" style="fill:white;opacity:1" width="3300" x="0" y="0"/>
  <line style="fill:none;stroke:black;opacity:1;stroke-width:0.5;" x1="263" x2="3036" y1="292" y2="292"/>
  <text style="stroke:none;fill:black;font-family:sans-serif;font-size:13;font-weight:bold;" transform="matrix(1 0 0 1 263 322)">Weight/Scale Variations</text>
  <text style="stroke:none;fill:black;font-family:sans-serif;font-size:13;text-anchor:middle;" transform="matrix(1 0 0 1 559.711 322)">Ultralight</text>
  <text style="stroke:none;fill:black;font-family:sans-serif;font-size:13;text-anchor:middle;" transform="matrix(1 0 0 1 856.422 322)">Thin</text>
  <text style="stroke:none;fill:black;font-family:sans-serif;font-size:13;text-anchor:middle;" transform="matrix(1 0 0 1 1153.13 322)">Light</text>
  <text style="stroke:none;fill:black;font-family:sans-serif;font-size:13;text-anchor:middle;" transform="matrix(1 0 0 1 1449.84 322)">Regular</text>
  <text style="stroke:none;fill:black;font-family:sans-serif;font-size:13;text-anchor:middle;" transform="matrix(1 0 0 1 1746.56 322)">Medium</text>
  <text style="stroke:none;fill:black;font-family:sans-serif;font-size:13;text-anchor:middle;" transform="matrix(1 0 0 1 2043.27 322)">Semibold</text>
  <text style="stroke:none;fill:black;font-family:sans-serif;font-size:13;text-anchor:middle;" transform="matrix(1 0 0 1 2339.98 322)">Bold</text>
  <text style="stroke:none;fill:black;font-family:sans-serif;font-size:13;text-anchor:middle;" transform="matrix(1 0 0 1 2636.69 322)">Heavy</text>
  <text style="stroke:none;fill:black;font-family:sans-serif;font-size:13;text-anchor:middle;" transform="matrix(1 0 0 1 2933.4 322)">Black</text>
  <line style="fill:none;stroke:black;opacity:1;stroke-width:0.5;" x1="263" x2="3036" y1="1903" y2="1903"/>
  <g transform="matrix(1 0 0 1 263 1933)">
   <path d="M9.24805 0.830078C13.5547 0.830078 17.1387-2.74414 17.1387-7.05078C17.1387-11.3574 13.5449-14.9316 9.23828-14.9316C4.94141-14.9316 1.36719-11.3574 1.36719-7.05078C1.36719-2.74414 4.95117 0.830078 9.24805 0.830078ZM9.24805-0.654297C5.70312-0.654297 2.87109-3.49609 2.87109-7.05078C2.87109-10.6055 5.69336-13.4473 9.23828-13.4473C12.793-13.4473 15.6445-10.6055 15.6445-7.05078C15.6445-3.49609 12.8027-0.654297 9.24805-0.654297ZM5.6543-7.05078C5.6543-6.62109 5.95703-6.32812 6.40625-6.32812L8.50586-6.32812L8.50586-4.20898C8.50586-3.76953 8.79883-3.4668 9.22852-3.4668C9.67773-3.4668 9.9707-3.76953 9.9707-4.20898L9.9707-6.32812L12.0898-6.32812C12.5293-6.32812 12.832-6.62109 12.832-7.05078C12.832-7.49023 12.5293-7.79297 12.0898-7.79297L9.9707-7.79297L9.9707-9.90234C9.9707-10.3516 9.67773-10.6543 9.22852-10.6543C8.79883-10.6543 8.50586-10.3516 8.50586-9.90234L8.50586-7.79297L6.40625-7.79297C5.95703-7.79297 5.6543-7.49023 5.6543-7.05078Z"/>
  </g>
  <g transform="matrix(1 0 0 1 281.867 1933)">
   <path d="M11.709 2.91016C17.1582 2.91016 21.6699-1.61133 21.6699-7.05078C21.6699-12.5 17.1484-17.0117 11.6992-17.0117C6.25977-17.0117 1.74805-12.5 1.74805-7.05078C1.74805-1.61133 6.26953 2.91016 11.709 2.91016ZM11.709 1.25C7.09961 1.25 3.41797-2.44141 3.41797-7.05078C3.41797-11.6602 7.08984-15.3516 11.6992-15.3516C16.3086-15.3516 20.0098-11.6602 20.0098-7.05078C20.0098-2.44141 16.3184 1.25 11.709 1.25ZM7.17773-7.05078C7.17773-6.57227 7.50977-6.25 8.00781-6.25L10.8789-6.25L10.8789-3.36914C10.8789-2.88086 11.2109-2.53906 11.6895-2.53906C12.1777-2.53906 12.5195-2.87109 12.5195-3.36914L12.5195-6.25L15.4004-6.25C15.8887-6.25 16.2305-6.57227 16.2305-7.05078C16.2305-7.53906 15.8887-7.88086 15.4004-7.88086L12.5195-7.88086L12.5195-10.752C12.5195-11.25 12.1777-11.5918 11.6895-11.5918C11.2109-11.5918 10.8789-11.25 10.8789-10.752L10.8789-7.88086L8.00781-7.88086C7.50977-7.88086 7.17773-7.53906 7.17773-7.05078Z"/>
  </g>
  <g transform="matrix(1 0 0 1 305.646 1933)">
   <path d="M14.9707 5.66406C21.9336 5.66406 27.6953-0.0976562 27.6953-7.05078C27.6953-14.0137 21.9238-19.7754 14.9609-19.7754C8.00781-19.7754 2.25586-14.0137 2.25586-7.05078C2.25586-0.0976562 8.01758 5.66406 14.9707 5.66406ZM14.9707 3.84766C8.93555 3.84766 4.08203-1.01562 4.08203-7.05078C4.08203-13.0957 8.92578-17.9492 14.9609-17.9492C21.0059-17.9492 25.8691-13.0957 25.8691-7.05078C25.8691-1.01562 21.0156 3.84766 14.9707 3.84766ZM9.19922-7.05078C9.19922-6.5332 9.57031-6.17188 10.1172-6.17188L14.0625-6.17188L14.0625-2.2168C14.0625-1.67969 14.4336-1.29883 14.9512-1.29883C15.4883-1.29883 15.8594-1.66992 15.8594-2.2168L15.8594-6.17188L19.8145-6.17188C20.3516-6.17188 20.7324-6.5332 20.7324-7.05078C20.7324-7.59766 20.3613-7.96875 19.8145-7.96875L15.8594-7.96875L15.8594-11.9141C15.8594-12.4609 15.4883-12.8418 14.9512-12.8418C14.4336-12.8418 14.0625-12.4609 14.0625-11.9141L14.0625-7.96875L10.1172-7.96875C9.57031-7.96875 9.19922-7.59766 9.19922-7.05078Z"/>
  </g>
  <text style="stroke:none;fill:black;font-family:sans-serif;font-size:13;font-weight:bold;" transform="matrix(1 0 0 1 263 1953)">Design Variations</text>
  <text style="stroke:none;fill:black;font-family:sans-serif;font-size:13;" transform="matrix(1 0 0 1 263 1971)">Symbols are supported in up to nine weights and three scales.</text>
  <text style="stroke:none;fill:black;font-family:sans-serif;font-size:13;" transform="matrix(1 0 0 1 263 1989)">For optimal layout with text and other symbols, vertically align</text>
  <text style="stroke:none;fill:black;font-family:sans-serif;font-size:13;" transform="matrix(1 0 0 1 263 2007)">symbols with the adjacent text.</text>
  <line style="fill:none;stroke:#00AEEF;stroke-width:0.5;opacity:1.0;" x1="776" x2="776" y1="1919" y2="1933"/>
  <g transform="matrix(1 0 0 1 776 1933)">
   <path d="M3.31055 0.15625C3.82812 0.15625 4.08203-0.0390625 4.26758-0.585938L5.52734-4.0332L11.2891-4.0332L12.5488-0.585938C12.7344-0.0390625 12.9883 0.15625 13.4961 0.15625C14.0137 0.15625 14.3457-0.15625 14.3457-0.644531C14.3457-0.810547 14.3164-0.966797 14.2383-1.17188L9.6582-13.3691C9.43359-13.9648 9.0332-14.2676 8.4082-14.2676C7.80273-14.2676 7.39258-13.9746 7.17773-13.3789L2.59766-1.16211C2.51953-0.957031 2.49023-0.800781 2.49023-0.634766C2.49023-0.146484 2.80273 0.15625 3.31055 0.15625ZM6.00586-5.51758L8.37891-12.0898L8.42773-12.0898L10.8008-5.51758Z"/>
  </g>
  <line style="fill:none;stroke:#00AEEF;stroke-width:0.5;opacity:1.0;" x1="793.197" x2="793.197" y1="1919" y2="1933"/>
  <text style="stroke:none;fill:black;font-family:sans-serif;font-size:13;font-weight:bold;" transform="matrix(1 0 0 1 776 1953)">Margins</text>
  <text style="stroke:none;fill:black;font-family:sans-serif;font-size:13;" transform="matrix(1 0 0 1 776 1971)">Leading and trailing margins on the left and right side of each symbol</text>
  <text style="stroke:none;fill:black;font-family:sans-serif;font-size:13;" transform="matrix(1 0 0 1 776 1989)">can be adjusted by modifying the x-location of the margin guidelines.</text>
  <text style="stroke:none;fill:black;font-family:sans-serif;font-size:13;" transform="matrix(1 0 0 1 776 2007)">Modifications are automatically applied proportionally to all</text>
  <text style="stroke:none;fill:black;font-family:sans-serif;font-size:13;" transform="matrix(1 0 0 1 776 2025)">scales and weights.</text>
  <g transform="matrix(1 0 0 1 1289 1933)">
   <path d="M2.8418 1.86523L4.54102 3.57422C5.40039 4.44336 6.38672 4.38477 7.31445 3.35938L18.0078-8.42773L17.041-9.4043L6.42578 2.27539C6.07422 2.67578 5.74219 2.77344 5.27344 2.30469L4.10156 1.14258C3.63281 0.683594 3.74023 0.341797 4.14062-0.0195312L15.6152-10.8203L14.6387-11.7871L3.04688-0.898438C2.06055 0.0195312 1.98242 0.996094 2.8418 1.86523ZM9.25781-16.3281C8.83789-15.918 8.80859-15.3418 9.04297-14.9512C9.27734-14.5898 9.73633-14.3555 10.3809-14.5215C11.8457-14.8633 13.3691-14.9219 14.7949-13.9844L14.209-12.5293C13.8672-11.6992 14.043-11.1133 14.5801-10.5664L16.875-8.25195C17.3633-7.76367 17.7734-7.74414 18.3398-7.8418L19.4043-8.03711L20.0684-7.36328L20.0293-6.80664C19.9902-6.30859 20.1172-5.92773 20.6055-5.44922L21.3672-4.70703C21.8457-4.22852 22.4609-4.19922 22.9297-4.66797L25.8398-7.58789C26.3086-8.05664 26.2891-8.65234 25.8105-9.13086L25.0391-9.89258C24.5605-10.3711 24.1895-10.5273 23.7109-10.4883L23.1348-10.4395L22.4902-11.0742L22.7344-12.1973C22.8613-12.7637 22.7051-13.2031 22.1191-13.7891L19.9219-15.9766C16.582-19.2969 12.1484-19.2188 9.25781-16.3281ZM10.752-15.957C13.1836-17.7344 16.4746-17.4316 18.7012-15.2051L21.1328-12.793C21.3672-12.5586 21.4062-12.373 21.3379-12.0312L21.0156-10.5469L22.5195-9.0625L23.5059-9.12109C23.7598-9.13086 23.8379-9.11133 24.0332-8.91602L24.6094-8.33984L22.168-5.89844L21.5918-6.47461C21.3965-6.66992 21.3672-6.74805 21.377-7.01172L21.4453-7.98828L19.9512-9.47266L18.4277-9.21875C18.1055-9.15039 17.959-9.17969 17.7148-9.41406L15.7129-11.416C15.459-11.6504 15.4297-11.8164 15.5859-12.1875L16.4648-14.2773C14.9023-15.7324 12.8711-16.3574 10.8398-15.7617C10.6836-15.7227 10.625-15.8496 10.752-15.957Z"/>
  </g>
  <text style="stroke:none;fill:black;font-family:sans-serif;font-size:13;font-weight:bold;" transform="matrix(1 0 0 1 1289 1953)">Exporting</text>
  <text style="stroke:none;fill:black;font-family:sans-serif;font-size:13;" transform="matrix(1 0 0 1 1289 1971)">Symbols should be outlined when exporting to ensure the</text>
  <text style="stroke:none;fill:black;font-family:sans-serif;font-size:13;" transform="matrix(1 0 0 1 1289 1989)">design is preserved when submitting to Xcode.</text>
  <text id="template-version" style="stroke:none;fill:black;font-family:sans-serif;font-size:13;text-anchor:end;" transform="matrix(1 0 0 1 3036 1933)">Template v.4.0</text>
  <text style="stroke:none;fill:black;font-family:sans-serif;font-size:13;text-anchor:end;" transform="matrix(1 0 0 1 3036 1951)">Requires Xcode 14 or greater</text>
  <text id="descriptive-name" style="stroke:none;fill:black;font-family:sans-serif;font-size:13;text-anchor:end;" transform="matrix(1 0 0 1 3036 1969)">Generated from case.bartender5</text>
  <text style="stroke:none;fill:black;font-family:sans-serif;font-size:13;text-anchor:end;" transform="matrix(1 0 0 1 3036 1987)">Typeset at 100 points</text>
  <text style="stroke:none;fill:black;font-family:sans-serif;font-size:13;" transform="matrix(1 0 0 1 263 726)">Small</text>
  <text style="stroke:none;fill:black;font-family:sans-serif;font-size:13;" transform="matrix(1 0 0 1 263 1156)">Medium</text>
  <text style="stroke:none;fill:black;font-family:sans-serif;font-size:13;" transform="matrix(1 0 0 1 263 1586)">Large</text>
 </g>
 <g id="Guides">
  <g id="H-reference" style="fill:#27AAE1;stroke:none;" transform="matrix(1 0 0 1 339 696)">
   <path d="M0.993654 0L3.63775 0L29.3281-67.1323L30.0303-67.1323L30.0303-70.459L28.1226-70.459ZM11.6885-24.4799L46.9815-24.4799L46.2315-26.7285L12.4385-26.7285ZM55.1196 0L57.7637 0L30.6382-70.459L29.4326-70.459L29.4326-67.1323Z"/>
  </g>
  <line id="Baseline-S" style="fill:none;stroke:#27AAE1;opacity:1;stroke-width:0.5;" x1="263" x2="3036" y1="696" y2="696"/>
  <line id="Capline-S" style="fill:none;stroke:#27AAE1;opacity:1;stroke-width:0.5;" x1="263" x2="3036" y1="625.541" y2="625.541"/>
  <g id="H-reference" style="fill:#27AAE1;stroke:none;" transform="matrix(1 0 0 1 339 1126)">
   <path d="M0.993654 0L3.63775 0L29.3281-67.1323L30.0303-67.1323L30.0303-70.459L28.1226-70.459ZM11.6885-24.4799L46.9815-24.4799L46.2315-26.7285L12.4385-26.7285ZM55.1196 0L57.7637 0L30.6382-70.459L29.4326-70.459L29.4326-67.1323Z"/>
  </g>
  <line id="Baseline-M" style="fill:none;stroke:#27AAE1;opacity:1;stroke-width:0.5;" x1="263" x2="3036" y1="1126" y2="1126"/>
  <line id="Capline-M" style="fill:none;stroke:#27AAE1;opacity:1;stroke-width:0.5;" x1="263" x2="3036" y1="1055.54" y2="1055.54"/>
  <g id="H-reference" style="fill:#27AAE1;stroke:none;" transform="matrix(1 0 0 1 339 1556)">
   <path d="M0.993654 0L3.63775 0L29.3281-67.1323L30.0303-67.1323L30.0303-70.459L28.1226-70.459ZM11.6885-24.4799L46.9815-24.4799L46.2315-26.7285L12.4385-26.7285ZM55.1196 0L57.7637 0L30.6382-70.459L29.4326-70.459L29.4326-67.1323Z"/>
  </g>
  <line id="Baseline-L" style="fill:none;stroke:#27AAE1;opacity:1;stroke-width:0.5;" x1="263" x2="3036" y1="1556" y2="1556"/>
  <line id="Capline-L" style="fill:none;stroke:#27AAE1;opacity:1;stroke-width:0.5;" x1="263" x2="3036" y1="1485.54" y2="1485.54"/>
  <line id="left-margin-Ultralight-S" style="fill:none;stroke:#00AEEF;stroke-width:0.5;opacity:1.0;" x1="508.811" x2="508.811" y1="600.785" y2="720.121"/>
  <line id="right-margin-Ultralight-S" style="fill:none;stroke:#00AEEF;stroke-width:0.5;opacity:1.0;" x1="610.611" x2="610.611" y1="600.785" y2="720.121"/>
  <line id="left-margin-Regular-S" style="fill:none;stroke:#00AEEF;stroke-width:0.5;opacity:1.0;" x1="1395.19" x2="1395.19" y1="600.785" y2="720.121"/>
  <line id="right-margin-Regular-S" style="fill:none;stroke:#00AEEF;stroke-width:0.5;opacity:1.0;" x1="1504.49" x2="1504.49" y1="600.785" y2="720.121"/>
  <line id="left-margin-Black-S" style="fill:none;stroke:#00AEEF;stroke-width:0.5;opacity:1.0;" x1="2875.7" x2="2875.7" y1="600.785" y2="720.121"/>
  <line id="right-margin-Black-S" style="fill:none;stroke:#00AEEF;stroke-width:0.5;opacity:1.0;" x1="2991.1" x2="2991.1" y1="600.785" y2="720.121"/>
 </g>
 <g id="Symbols">
  <g id="Black-S" transform="matrix(1 0 0 1 2875.7 696)">
   <path class="monochrome-0 SFSymbolsPreview000000" d="M99.01-45.2L82.01-45.2C80.81-45.2 79.61-44.7 78.71-43.8L77.31-42.4C77.21-42.3 77.11-42.3 76.91-42.3L63.31-42.3L63.31-47.9C63.31-50.8 61.51-53.3 58.81-54.2L58.51-54.3L64.51-75.2C64.71-75.9 64.31-76.6 63.61-76.8L58.51-78.3C58.41-78.3 58.31-78.4 58.11-78.4C57.61-78.4 57.11-78.1 56.91-77.5L46.81-80.4C40.61-82.1 34.31-83 27.91-83C26.61-83 25.31-83 24.11-82.9L20.71-82.7C19.91-82.7 19.21-82.1 19.01-81.4L15.41-68.8C15.21-68 15.51-67.2 16.11-66.8L18.81-64.9C25.11-60.5 32.11-57.1 39.51-55L49.61-52.1C49.51-51.4 49.81-50.8 50.51-50.6L55.61-49.1C55.71-49.1 55.81-49 56.01-49C56.61-49 57.11-49.4 57.31-50L57.81-51.7L58.01-51.6C59.61-51 60.71-49.5 60.71-47.8L60.71-42.2L45.91-42.2C45.21-42.2 44.61-41.6 44.61-40.9C44.61-40.2 45.21-39.6 45.91-39.6L49.71-39.6L58.31-26.7C58.91-25.8 59.81-25.2 60.71-24.9L60.71-22.1L48.51-22.1C48.51-22.1 48.51-21.5 48.51-21.2C48.51-14.2 53.91-8.4 60.71-7.7L60.71 6L52.51 11.1C51.71 11.6 52.11 12.8 53.01 12.8L71.01 12.8C71.91 12.8 72.31 11.6 71.51 11.1L63.31 6L63.31-7.7C70.11-8.4 75.51-14.1 75.51-21.2C75.51-21.5 75.51-22.1 75.51-22.1L63.31-22.1L63.31-24.9C64.21-25.2 65.11-25.8 65.71-26.7L74.31-39.6L77.01-39.6C77.81-39.6 78.61-39.9 79.21-40.5L80.61-41.9C81.01-42.3 81.51-42.5 82.01-42.5L99.01-42.5C99.71-42.5 100.31-43.1 100.31-43.8C100.31-44.6 99.71-45.2 99.01-45.2ZM20.41-67L18.11-68.6L21.41-80.1L24.21-80.3C25.41-80.4 26.71-80.4 27.91-80.4C34.01-80.4 40.21-79.5 46.11-77.8L56.21-75L50.41-54.7L40.31-57.6C33.11-59.6 26.41-62.8 20.41-67ZM55.11-52L52.61-52.7L59.01-75.4L61.51-74.7L55.11-52ZM60.51-28.2L52.91-39.6L60.71-39.6L60.71-28C60.61-28 60.51-28.1 60.51-28.2ZM63.51-28.2C63.41-28.1 63.41-28 63.31-28L63.31-39.7L71.11-39.7L63.51-28.2ZM60.71-19.5L60.71-16.2L52.41-16.2C51.91-17.2 51.51-18.3 51.31-19.5L60.71-19.5ZM72.71-19.5C72.51-18.3 72.11-17.2 71.61-16.2L63.31-16.2L63.31-19.5L72.71-19.5Z"/>
  </g>
  <g id="Regular-S" transform="matrix(1 0 0 1 1395.19 696)">
   <path class="monochrome-0 SFSymbolsPreview000000" d="M93.6-44.7L77.5-44.7C76.3-44.7 75.2-44.2 74.4-43.4L73.1-42.1C73.1-42 72.9-42 72.8-42L59.9-42L59.9-47.3C59.9-50 58.2-52.4 55.6-53.3L55.3-53.4L60.9-73.1C61.1-73.8 60.7-74.5 60-74.6L55.4-76C55.3-76 55.2-76 55.1-76C54.6-76 54.1-75.7 53.9-75.2L44.4-77.9C38.6-79.6 32.6-80.4 26.6-80.4C25.4-80.4 24.2-80.4 23-80.3L19.8-80.1C19-80.1 18.4-79.6 18.2-78.8L14.7-67C14.5-66.3 14.8-65.5 15.4-65.1L18-63.3C23.9-59.1 30.5-56 37.5-54L47-51.3C46.9-50.7 47.2-50 47.9-49.9L52.7-48.5C52.8-48.5 52.9-48.5 53-48.5C53.5-48.5 54-48.9 54.2-49.4L54.7-51L54.8-51C56.3-50.5 57.4-49 57.4-47.4L57.4-42.1L43.4-42.1C42.7-42.1 42.2-41.5 42.2-40.9C42.2-40.3 42.8-39.7 43.4-39.7L47-39.7L55.1-27.5C55.7-26.6 56.5-26.1 57.4-25.8L57.4-23.1L46-23.1C46-23.1 46-22.5 46-22.2C46-15.6 51.1-10.1 57.5-9.5L57.5 3.5L49.8 8.3C49 8.9 49.3 10 50.2 10L67.2 10C68.1 10 68.4 8.9 67.7 8.4L60 3.6L60-9.4C66.5-10 71.5-15.5 71.5-22.1C71.5-22.4 71.5-23 71.5-23L59.9-23L59.9-25.7C60.8-26 61.6-26.5 62.2-27.4L70.3-39.6L72.8-39.6C73.6-39.6 74.3-39.9 74.9-40.5L76.2-41.8C76.6-42.2 77-42.3 77.5-42.3L93.6-42.3C94.3-42.3 94.8-42.9 94.8-43.5C94.8-44.1 94.3-44.7 93.6-44.7ZM19.4-65.3L17.2-66.8L20.3-77.6L23-77.8C24.2-77.9 25.3-77.9 26.5-77.9C32.3-77.9 38.1-77.1 43.7-75.5L53.2-72.8L47.7-53.6L38.2-56.3C31.4-58.3 25.1-61.3 19.4-65.3ZM52.2-51.2L49.8-51.9L55.9-73.3L58.3-72.6L52.2-51.2ZM57.3-28.7L50.1-39.5L57.5-39.5L57.5-28.5C57.4-28.5 57.3-28.6 57.3-28.7ZM60.1-28.7C60-28.6 60-28.5 59.9-28.5L59.9-39.5L67.3-39.5L60.1-28.7ZM57.4-20.5L57.4-17.4L49.5-17.4C49-18.4 48.6-19.4 48.5-20.5L57.4-20.5ZM68.8-20.5C68.6-19.4 68.3-18.4 67.8-17.4L59.9-17.4L59.9-20.5L68.8-20.5Z"/>
  </g>
  <g id="Ultralight-S" transform="matrix(1 0 0 1 508.811 696)">
   <path class="monochrome-0 SFSymbolsPreview000000" d="M86.704-43.9L71.904-43.9C70.804-43.9 69.804-43.5 69.104-42.7L67.904-41.5C67.804-41.4 67.704-41.4 67.604-41.4L55.804-41.4L55.804-46.3C55.804-48.8 54.204-51 51.904-51.8L51.704-51.9L56.904-70C57.104-70.6 56.704-71.2 56.104-71.4L51.704-72.7C51.604-72.7 51.504-72.7 51.404-72.7C50.904-72.7 50.504-72.4 50.304-71.9L41.504-74.4C36.204-75.9 30.704-76.7 25.104-76.7C24.004-76.7 22.904-76.7 21.804-76.6L18.904-76.4C18.204-76.4 17.604-75.9 17.404-75.2L14.304-64.3C14.104-63.6 14.404-62.9 14.904-62.5L17.304-60.8C22.704-57 28.804-54.1 35.204-52.3L44.004-49.8C43.904-49.2 44.204-48.6 44.804-48.5L49.204-47.2C49.304-47.2 49.404-47.2 49.504-47.2C50.004-47.2 50.504-47.5 50.604-48L51.004-49.5L51.104-49.5C52.504-49 53.504-47.7 53.504-46.2L53.504-41.3L40.704-41.3C40.104-41.3 39.604-40.8 39.604-40.2C39.604-39.6 40.104-39.1 40.704-39.1L44.004-39.1L51.404-27.9C51.904-27.1 52.704-26.6 53.504-26.4L53.504-24L43.004-24C43.004-24 43.004-23.5 43.004-23.2C43.004-17.1 47.604-12.1 53.604-11.5L53.604 0.4L46.504 4.8C45.804 5.2 46.104 6.3 46.904 6.3L62.504 6.3C63.304 6.3 63.604 5.3 62.904 4.8L55.804 0.4L55.804-11.5C61.704-12.1 66.404-17.1 66.404-23.2C66.404-23.5 66.404-24 66.404-24L55.804-24L55.804-26.4C56.604-26.6 57.404-27.2 57.904-27.9L65.304-39.1L67.604-39.1C68.304-39.1 69.004-39.4 69.504-39.9L70.704-41.1C71.004-41.4 71.504-41.6 71.904-41.6L86.704-41.6C87.304-41.6 87.804-42.1 87.804-42.7C87.804-43.3 87.304-43.9 86.704-43.9ZM18.604-62.8L16.604-64.2L19.404-74.1L21.804-74.2C22.904-74.3 23.904-74.3 25.004-74.3C30.304-74.3 35.604-73.6 40.704-72.1L49.404-69.6L44.404-52L35.704-54.5C29.604-56.4 23.904-59.1 18.604-62.8ZM48.704-49.8L46.504-50.4L52.104-70L54.304-69.4L48.704-49.8ZM53.304-29.2L46.704-39.1L53.504-39.1L53.504-29C53.404-29 53.404-29.1 53.304-29.2ZM55.904-29.2C55.804-29.1 55.804-29 55.704-29L55.704-39.1L62.504-39.1L55.904-29.2ZM53.504-21.6L53.504-18.8L46.304-18.8C45.804-19.7 45.504-20.6 45.404-21.6L53.504-21.6ZM63.904-21.6C63.704-20.6 63.404-19.6 63.004-18.8L55.804-18.8L55.804-21.6L63.904-21.6Z"/>
  </g>
 </g>
</svg>
