<?xml version="1.0" encoding="UTF-8"?>
<!--Generator: Apple Native CoreSVG 175.5-->
<!DOCTYPE svg
PUBLIC "-//W3C//DTD SVG 1.1//EN"
       "http://www.w3.org/Graphics/SVG/1.1/DTD/svg11.dtd">
<svg version="1.1" xmlns="http://www.w3.org/2000/svg" xmlns:xlink="http://www.w3.org/1999/xlink" width="3300" height="2200">
 <!--glyph: "", point size: 100.0, font version: "18.0d12e2", template writer version: "101"-->
 <g id="Notes">
  <rect height="2200" id="artboard" style="fill:white;opacity:1" width="3300" x="0" y="0"/>
  <line style="fill:none;stroke:black;opacity:1;stroke-width:0.5;" x1="263" x2="3036" y1="292" y2="292"/>
  <text style="stroke:none;fill:black;font-family:sans-serif;font-size:13;font-weight:bold;" transform="matrix(1 0 0 1 263 322)">Weight/Scale Variations</text>
  <text style="stroke:none;fill:black;font-family:sans-serif;font-size:13;text-anchor:middle;" transform="matrix(1 0 0 1 559.711 322)">Ultralight</text>
  <text style="stroke:none;fill:black;font-family:sans-serif;font-size:13;text-anchor:middle;" transform="matrix(1 0 0 1 856.422 322)">Thin</text>
  <text style="stroke:none;fill:black;font-family:sans-serif;font-size:13;text-anchor:middle;" transform="matrix(1 0 0 1 1153.13 322)">Light</text>
  <text style="stroke:none;fill:black;font-family:sans-serif;font-size:13;text-anchor:middle;" transform="matrix(1 0 0 1 1449.84 322)">Regular</text>
  <text style="stroke:none;fill:black;font-family:sans-serif;font-size:13;text-anchor:middle;" transform="matrix(1 0 0 1 1746.56 322)">Medium</text>
  <text style="stroke:none;fill:black;font-family:sans-serif;font-size:13;text-anchor:middle;" transform="matrix(1 0 0 1 2043.27 322)">Semibold</text>
  <text style="stroke:none;fill:black;font-family:sans-serif;font-size:13;text-anchor:middle;" transform="matrix(1 0 0 1 2339.98 322)">Bold</text>
  <text style="stroke:none;fill:black;font-family:sans-serif;font-size:13;text-anchor:middle;" transform="matrix(1 0 0 1 2636.69 322)">Heavy</text>
  <text style="stroke:none;fill:black;font-family:sans-serif;font-size:13;text-anchor:middle;" transform="matrix(1 0 0 1 2933.4 322)">Black</text>
  <line style="fill:none;stroke:black;opacity:1;stroke-width:0.5;" x1="263" x2="3036" y1="1903" y2="1903"/>
  <g transform="matrix(1 0 0 1 263 1933)">
   <path d="M9.24805 0.830078C13.5547 0.830078 17.1387-2.74414 17.1387-7.05078C17.1387-11.3574 13.5449-14.9316 9.23828-14.9316C4.94141-14.9316 1.36719-11.3574 1.36719-7.05078C1.36719-2.74414 4.95117 0.830078 9.24805 0.830078ZM9.24805-0.654297C5.70312-0.654297 2.87109-3.49609 2.87109-7.05078C2.87109-10.6055 5.69336-13.4473 9.23828-13.4473C12.793-13.4473 15.6445-10.6055 15.6445-7.05078C15.6445-3.49609 12.8027-0.654297 9.24805-0.654297ZM5.6543-7.05078C5.6543-6.62109 5.95703-6.32812 6.40625-6.32812L8.50586-6.32812L8.50586-4.20898C8.50586-3.76953 8.79883-3.4668 9.22852-3.4668C9.67773-3.4668 9.9707-3.76953 9.9707-4.20898L9.9707-6.32812L12.0898-6.32812C12.5293-6.32812 12.832-6.62109 12.832-7.05078C12.832-7.49023 12.5293-7.79297 12.0898-7.79297L9.9707-7.79297L9.9707-9.90234C9.9707-10.3516 9.67773-10.6543 9.22852-10.6543C8.79883-10.6543 8.50586-10.3516 8.50586-9.90234L8.50586-7.79297L6.40625-7.79297C5.95703-7.79297 5.6543-7.49023 5.6543-7.05078Z"/>
  </g>
  <g transform="matrix(1 0 0 1 281.867 1933)">
   <path d="M11.709 2.91016C17.1582 2.91016 21.6699-1.61133 21.6699-7.05078C21.6699-12.5 17.1484-17.0117 11.6992-17.0117C6.25977-17.0117 1.74805-12.5 1.74805-7.05078C1.74805-1.61133 6.26953 2.91016 11.709 2.91016ZM11.709 1.25C7.09961 1.25 3.41797-2.44141 3.41797-7.05078C3.41797-11.6602 7.08984-15.3516 11.6992-15.3516C16.3086-15.3516 20.0098-11.6602 20.0098-7.05078C20.0098-2.44141 16.3184 1.25 11.709 1.25ZM7.17773-7.05078C7.17773-6.57227 7.50977-6.25 8.00781-6.25L10.8789-6.25L10.8789-3.36914C10.8789-2.88086 11.2109-2.53906 11.6895-2.53906C12.1777-2.53906 12.5195-2.87109 12.5195-3.36914L12.5195-6.25L15.4004-6.25C15.8887-6.25 16.2305-6.57227 16.2305-7.05078C16.2305-7.53906 15.8887-7.88086 15.4004-7.88086L12.5195-7.88086L12.5195-10.752C12.5195-11.25 12.1777-11.5918 11.6895-11.5918C11.2109-11.5918 10.8789-11.25 10.8789-10.752L10.8789-7.88086L8.00781-7.88086C7.50977-7.88086 7.17773-7.53906 7.17773-7.05078Z"/>
  </g>
  <g transform="matrix(1 0 0 1 305.646 1933)">
   <path d="M14.9707 5.66406C21.9336 5.66406 27.6953-0.0976562 27.6953-7.05078C27.6953-14.0137 21.9238-19.7754 14.9609-19.7754C8.00781-19.7754 2.25586-14.0137 2.25586-7.05078C2.25586-0.0976562 8.01758 5.66406 14.9707 5.66406ZM14.9707 3.84766C8.93555 3.84766 4.08203-1.01562 4.08203-7.05078C4.08203-13.0957 8.92578-17.9492 14.9609-17.9492C21.0059-17.9492 25.8691-13.0957 25.8691-7.05078C25.8691-1.01562 21.0156 3.84766 14.9707 3.84766ZM9.19922-7.05078C9.19922-6.5332 9.57031-6.17188 10.1172-6.17188L14.0625-6.17188L14.0625-2.2168C14.0625-1.67969 14.4336-1.29883 14.9512-1.29883C15.4883-1.29883 15.8594-1.66992 15.8594-2.2168L15.8594-6.17188L19.8145-6.17188C20.3516-6.17188 20.7324-6.5332 20.7324-7.05078C20.7324-7.59766 20.3613-7.96875 19.8145-7.96875L15.8594-7.96875L15.8594-11.9141C15.8594-12.4609 15.4883-12.8418 14.9512-12.8418C14.4336-12.8418 14.0625-12.4609 14.0625-11.9141L14.0625-7.96875L10.1172-7.96875C9.57031-7.96875 9.19922-7.59766 9.19922-7.05078Z"/>
  </g>
  <text style="stroke:none;fill:black;font-family:sans-serif;font-size:13;font-weight:bold;" transform="matrix(1 0 0 1 263 1953)">Design Variations</text>
  <text style="stroke:none;fill:black;font-family:sans-serif;font-size:13;" transform="matrix(1 0 0 1 263 1971)">Symbols are supported in up to nine weights and three scales.</text>
  <text style="stroke:none;fill:black;font-family:sans-serif;font-size:13;" transform="matrix(1 0 0 1 263 1989)">For optimal layout with text and other symbols, vertically align</text>
  <text style="stroke:none;fill:black;font-family:sans-serif;font-size:13;" transform="matrix(1 0 0 1 263 2007)">symbols with the adjacent text.</text>
  <line style="fill:none;stroke:#00AEEF;stroke-width:0.5;opacity:1.0;" x1="776" x2="776" y1="1919" y2="1933"/>
  <g transform="matrix(1 0 0 1 776 1933)">
   <path d="M3.31055 0.15625C3.82812 0.15625 4.08203-0.0390625 4.26758-0.585938L5.52734-4.0332L11.2891-4.0332L12.5488-0.585938C12.7344-0.0390625 12.9883 0.15625 13.4961 0.15625C14.0137 0.15625 14.3457-0.15625 14.3457-0.644531C14.3457-0.810547 14.3164-0.966797 14.2383-1.17188L9.6582-13.3691C9.43359-13.9648 9.0332-14.2676 8.4082-14.2676C7.80273-14.2676 7.39258-13.9746 7.17773-13.3789L2.59766-1.16211C2.51953-0.957031 2.49023-0.800781 2.49023-0.634766C2.49023-0.146484 2.80273 0.15625 3.31055 0.15625ZM6.00586-5.51758L8.37891-12.0898L8.42773-12.0898L10.8008-5.51758Z"/>
  </g>
  <line style="fill:none;stroke:#00AEEF;stroke-width:0.5;opacity:1.0;" x1="793.197" x2="793.197" y1="1919" y2="1933"/>
  <text style="stroke:none;fill:black;font-family:sans-serif;font-size:13;font-weight:bold;" transform="matrix(1 0 0 1 776 1953)">Margins</text>
  <text style="stroke:none;fill:black;font-family:sans-serif;font-size:13;" transform="matrix(1 0 0 1 776 1971)">Leading and trailing margins on the left and right side of each symbol</text>
  <text style="stroke:none;fill:black;font-family:sans-serif;font-size:13;" transform="matrix(1 0 0 1 776 1989)">can be adjusted by modifying the x-location of the margin guidelines.</text>
  <text style="stroke:none;fill:black;font-family:sans-serif;font-size:13;" transform="matrix(1 0 0 1 776 2007)">Modifications are automatically applied proportionally to all</text>
  <text style="stroke:none;fill:black;font-family:sans-serif;font-size:13;" transform="matrix(1 0 0 1 776 2025)">scales and weights.</text>
  <g transform="matrix(1 0 0 1 1289 1933)">
   <path d="M2.8418 1.86523L4.54102 3.57422C5.40039 4.44336 6.38672 4.38477 7.31445 3.35938L18.0078-8.42773L17.041-9.4043L6.42578 2.27539C6.07422 2.67578 5.74219 2.77344 5.27344 2.30469L4.10156 1.14258C3.63281 0.683594 3.74023 0.341797 4.14062-0.0195312L15.6152-10.8203L14.6387-11.7871L3.04688-0.898438C2.06055 0.0195312 1.98242 0.996094 2.8418 1.86523ZM9.25781-16.3281C8.83789-15.918 8.80859-15.3418 9.04297-14.9512C9.27734-14.5898 9.73633-14.3555 10.3809-14.5215C11.8457-14.8633 13.3691-14.9219 14.7949-13.9844L14.209-12.5293C13.8672-11.6992 14.043-11.1133 14.5801-10.5664L16.875-8.25195C17.3633-7.76367 17.7734-7.74414 18.3398-7.8418L19.4043-8.03711L20.0684-7.36328L20.0293-6.80664C19.9902-6.30859 20.1172-5.92773 20.6055-5.44922L21.3672-4.70703C21.8457-4.22852 22.4609-4.19922 22.9297-4.66797L25.8398-7.58789C26.3086-8.05664 26.2891-8.65234 25.8105-9.13086L25.0391-9.89258C24.5605-10.3711 24.1895-10.5273 23.7109-10.4883L23.1348-10.4395L22.4902-11.0742L22.7344-12.1973C22.8613-12.7637 22.7051-13.2031 22.1191-13.7891L19.9219-15.9766C16.582-19.2969 12.1484-19.2188 9.25781-16.3281ZM10.752-15.957C13.1836-17.7344 16.4746-17.4316 18.7012-15.2051L21.1328-12.793C21.3672-12.5586 21.4062-12.373 21.3379-12.0312L21.0156-10.5469L22.5195-9.0625L23.5059-9.12109C23.7598-9.13086 23.8379-9.11133 24.0332-8.91602L24.6094-8.33984L22.168-5.89844L21.5918-6.47461C21.3965-6.66992 21.3672-6.74805 21.377-7.01172L21.4453-7.98828L19.9512-9.47266L18.4277-9.21875C18.1055-9.15039 17.959-9.17969 17.7148-9.41406L15.7129-11.416C15.459-11.6504 15.4297-11.8164 15.5859-12.1875L16.4648-14.2773C14.9023-15.7324 12.8711-16.3574 10.8398-15.7617C10.6836-15.7227 10.625-15.8496 10.752-15.957Z"/>
  </g>
  <text style="stroke:none;fill:black;font-family:sans-serif;font-size:13;font-weight:bold;" transform="matrix(1 0 0 1 1289 1953)">Exporting</text>
  <text style="stroke:none;fill:black;font-family:sans-serif;font-size:13;" transform="matrix(1 0 0 1 1289 1971)">Symbols should be outlined when exporting to ensure the</text>
  <text style="stroke:none;fill:black;font-family:sans-serif;font-size:13;" transform="matrix(1 0 0 1 1289 1989)">design is preserved when submitting to Xcode.</text>
  <text id="template-version" style="stroke:none;fill:black;font-family:sans-serif;font-size:13;text-anchor:end;" transform="matrix(1 0 0 1 3036 1933)">Template v.4.0</text>
  <text style="stroke:none;fill:black;font-family:sans-serif;font-size:13;text-anchor:end;" transform="matrix(1 0 0 1 3036 1951)">Requires Xcode 14 or greater</text>
  <text id="descriptive-name" style="stroke:none;fill:black;font-family:sans-serif;font-size:13;text-anchor:end;" transform="matrix(1 0 0 1 3036 1969)">Generated from cellar.six.bottles.fill</text>
  <text style="stroke:none;fill:black;font-family:sans-serif;font-size:13;text-anchor:end;" transform="matrix(1 0 0 1 3036 1987)">Typeset at 100 points</text>
  <text style="stroke:none;fill:black;font-family:sans-serif;font-size:13;" transform="matrix(1 0 0 1 263 726)">Small</text>
  <text style="stroke:none;fill:black;font-family:sans-serif;font-size:13;" transform="matrix(1 0 0 1 263 1156)">Medium</text>
  <text style="stroke:none;fill:black;font-family:sans-serif;font-size:13;" transform="matrix(1 0 0 1 263 1586)">Large</text>
 </g>
 <g id="Guides">
  <g id="H-reference" style="fill:#27AAE1;stroke:none;" transform="matrix(1 0 0 1 339 696)">
   <path d="M0.993654 0L3.63775 0L29.3281-67.1323L30.0303-67.1323L30.0303-70.459L28.1226-70.459ZM11.6885-24.4799L46.9815-24.4799L46.2315-26.7285L12.4385-26.7285ZM55.1196 0L57.7637 0L30.6382-70.459L29.4326-70.459L29.4326-67.1323Z"/>
  </g>
  <line id="Baseline-S" style="fill:none;stroke:#27AAE1;opacity:1;stroke-width:0.5;" x1="263" x2="3036" y1="696" y2="696"/>
  <line id="Capline-S" style="fill:none;stroke:#27AAE1;opacity:1;stroke-width:0.5;" x1="263" x2="3036" y1="625.541" y2="625.541"/>
  <g id="H-reference" style="fill:#27AAE1;stroke:none;" transform="matrix(1 0 0 1 339 1126)">
   <path d="M0.993654 0L3.63775 0L29.3281-67.1323L30.0303-67.1323L30.0303-70.459L28.1226-70.459ZM11.6885-24.4799L46.9815-24.4799L46.2315-26.7285L12.4385-26.7285ZM55.1196 0L57.7637 0L30.6382-70.459L29.4326-70.459L29.4326-67.1323Z"/>
  </g>
  <line id="Baseline-M" style="fill:none;stroke:#27AAE1;opacity:1;stroke-width:0.5;" x1="263" x2="3036" y1="1126" y2="1126"/>
  <line id="Capline-M" style="fill:none;stroke:#27AAE1;opacity:1;stroke-width:0.5;" x1="263" x2="3036" y1="1055.54" y2="1055.54"/>
  <g id="H-reference" style="fill:#27AAE1;stroke:none;" transform="matrix(1 0 0 1 339 1556)">
   <path d="M0.993654 0L3.63775 0L29.3281-67.1323L30.0303-67.1323L30.0303-70.459L28.1226-70.459ZM11.6885-24.4799L46.9815-24.4799L46.2315-26.7285L12.4385-26.7285ZM55.1196 0L57.7637 0L30.6382-70.459L29.4326-70.459L29.4326-67.1323Z"/>
  </g>
  <line id="Baseline-L" style="fill:none;stroke:#27AAE1;opacity:1;stroke-width:0.5;" x1="263" x2="3036" y1="1556" y2="1556"/>
  <line id="Capline-L" style="fill:none;stroke:#27AAE1;opacity:1;stroke-width:0.5;" x1="263" x2="3036" y1="1485.54" y2="1485.54"/>
  <line id="left-margin-Ultralight-S" style="fill:none;stroke:#00AEEF;stroke-width:0.5;opacity:1.0;" x1="492.811" x2="492.811" y1="600.785" y2="720.121"/>
  <line id="right-margin-Ultralight-S" style="fill:none;stroke:#00AEEF;stroke-width:0.5;opacity:1.0;" x1="626.611" x2="626.611" y1="600.785" y2="720.121"/>
  <line id="left-margin-Regular-S" style="fill:none;stroke:#00AEEF;stroke-width:0.5;opacity:1.0;" x1="1376.19" x2="1376.19" y1="600.785" y2="720.121"/>
  <line id="right-margin-Regular-S" style="fill:none;stroke:#00AEEF;stroke-width:0.5;opacity:1.0;" x1="1523.49" x2="1523.49" y1="600.785" y2="720.121"/>
  <line id="left-margin-Black-S" style="fill:none;stroke:#00AEEF;stroke-width:0.5;opacity:1.0;" x1="2856.7" x2="2856.7" y1="600.785" y2="720.121"/>
  <line id="right-margin-Black-S" style="fill:none;stroke:#00AEEF;stroke-width:0.5;opacity:1.0;" x1="3010.1" x2="3010.1" y1="600.785" y2="720.121"/>
 </g>
 <g id="Symbols">
  <g id="Black-S" transform="matrix(1 0 0 1 2856.7 696)">
   <path d="M17.51-66L13.51-66C12.51-66 11.61-65.2 11.61-64.1L11.61-59.6C11.61-58.6 12.41-57.7 13.51-57.7L13.51-57.7L17.51-57.7L17.51-66L17.51-66ZM17.51-39.2L13.51-39.2C12.51-39.2 11.61-38.4 11.61-37.3L11.61-32.8C11.61-31.8 12.41-30.9 13.51-30.9L13.51-30.9L17.51-30.9L17.51-39.2L17.51-39.2ZM17.51-12.4L13.51-12.4C12.51-12.4 11.61-11.6 11.61-10.5L11.61-6C11.61-5 12.41-4.1 13.51-4.1L13.51-4.1L17.51-4.1L17.51-12.4L17.51-12.4ZM84.81-66L80.81-66C79.81-66 78.91-65.2 78.91-64.1L78.91-59.6C78.91-58.6 79.71-57.7 80.81-57.7L80.81-57.7L84.81-57.7L84.81-66L84.81-66ZM84.81-39.2L80.81-39.2C79.81-39.2 78.91-38.4 78.91-37.3L78.91-32.8C78.91-31.8 79.71-30.9 80.81-30.9L80.81-30.9L84.81-30.9L84.81-39.2L84.81-39.2ZM84.81-12.4L80.81-12.4C79.81-12.4 78.91-11.6 78.91-10.5L78.91-6C78.91-5 79.71-4.1 80.81-4.1L80.81-4.1L84.81-4.1L84.81-12.4L84.81-12.4ZM139.91-51.2C140.91-51.2 141.81-52 141.81-53.1L141.81-70.6C141.81-71.6 141.01-72.5 139.91-72.5L122.91-72.5L122.91-80.5C122.91-82 121.71-83.2 120.21-83.2C118.71-83.2 117.51-82 117.51-80.5L117.51-72.5L108.01-72.5C103.61-72.5 99.81-69.8 98.21-66L87.21-66L87.21-57.6L98.31-57.6C99.91-53.8 103.71-51.1 108.11-51.1L117.71-51.1L117.71-45.6L108.01-45.6C103.61-45.6 99.81-42.9 98.21-39.1L87.21-39.1L87.21-30.7L98.31-30.7C99.91-26.9 103.71-24.2 108.11-24.2L117.71-24.2L117.71-18.7L108.01-18.7C103.61-18.7 99.81-16 98.21-12.2L87.21-12.2L87.21-3.8L98.31-3.8C99.91 0 103.71 2.7 108.11 2.7L117.71 2.7L117.71 10.5C117.71 12 118.91 13.2 120.41 13.2C121.91 13.2 123.11 12 123.11 10.5L123.11 2.3L140.11 2.3C141.11 2.3 142.01 1.5 142.01 0.4L142.01-17.1C142.01-18.1 141.21-19 140.11-19L123.11-19L123.11-24.5L140.11-24.5C141.11-24.5 142.01-25.3 142.01-26.4L142.01-43.9C142.01-44.9 141.21-45.8 140.11-45.8L123.11-45.8L123.11-51.3L139.91-51.3ZM131.31-13.7L131.31-2.9C131.31-2.3 130.81-1.9 130.31-1.9L110.91-1.9C110.31-1.9 109.91-2.4 109.91-2.9L109.91-13.7C109.91-14.3 110.41-14.7 110.91-14.7L130.31-14.7C130.81-14.7 131.31-14.3 131.31-13.7ZM131.31-40.5L131.31-29.7C131.31-29.1 130.81-28.7 130.31-28.7L110.91-28.7C110.31-28.7 109.91-29.2 109.91-29.7L109.91-40.5C109.91-41.1 110.41-41.5 110.91-41.5L130.31-41.5C130.81-41.5 131.31-41 131.31-40.5ZM109.81-56.5L109.81-67.3C109.81-67.9 110.31-68.3 110.81-68.3L130.21-68.3C130.81-68.3 131.21-67.8 131.21-67.3L131.21-56.5C131.21-55.9 130.71-55.5 130.21-55.5L110.91-55.5C110.31-55.5 109.81-55.9 109.81-56.5ZM72.71-51.2C73.71-51.2 74.61-52 74.61-53.1L74.61-70.6C74.61-71.6 73.81-72.5 72.71-72.5L56.11-72.5L56.11-80.5C56.11-82 54.91-83.2 53.41-83.2C51.91-83.2 50.71-82 50.71-80.5L50.71-72.5L40.71-72.5C36.31-72.5 32.51-69.8 30.91-66L19.91-66L19.91-57.6L31.01-57.6C32.61-53.8 36.41-51.1 40.81-51.1L50.91-51.1L50.91-45.6L40.71-45.6C36.31-45.6 32.51-42.9 30.91-39.1L19.91-39.1L19.91-30.7L31.01-30.7C32.61-26.9 36.41-24.2 40.81-24.2L50.91-24.2L50.91-18.7L40.71-18.7C36.31-18.7 32.51-16 30.91-12.2L19.91-12.2L19.91-3.8L31.01-3.8C32.61 0 36.41 2.7 40.81 2.7L50.91 2.7L50.91 10.5C50.91 12 52.11 13.2 53.61 13.2C55.11 13.2 56.31 12 56.31 10.5L56.31 2.3L72.91 2.3C73.91 2.3 74.81 1.5 74.81 0.4L74.81-17.1C74.81-18.1 74.01-19 72.91-19L56.11-19L56.11-24.5L72.71-24.5C73.71-24.5 74.61-25.3 74.61-26.4L74.61-43.9C74.61-44.9 73.81-45.8 72.71-45.8L56.11-45.8L56.11-51.3L72.71-51.3ZM64.01-13.7L64.01-2.9C64.01-2.3 63.51-1.9 63.01-1.9L43.61-1.9C43.01-1.9 42.61-2.4 42.61-2.9L42.61-13.7C42.61-14.3 43.11-14.7 43.61-14.7L63.01-14.7C63.51-14.7 64.01-14.3 64.01-13.7ZM64.01-40.5L64.01-29.7C64.01-29.1 63.51-28.7 63.01-28.7L43.61-28.7C43.01-28.7 42.61-29.2 42.61-29.7L42.61-40.5C42.61-41.1 43.11-41.5 43.61-41.5L63.01-41.5C63.51-41.5 64.01-41 64.01-40.5ZM42.61-56.5L42.61-67.3C42.61-67.9 43.11-68.3 43.61-68.3L63.01-68.3C63.61-68.3 64.01-67.8 64.01-67.3L64.01-56.5C64.01-55.9 63.51-55.5 63.01-55.5L43.61-55.5C43.01-55.5 42.61-55.9 42.61-56.5Z"/>
  </g>
  <g id="Regular-S" transform="matrix(1 0 0 1 1376.19 696)">
   <path d="M17.9-64.3L14.2-64.3C13.2-64.3 12.4-63.5 12.4-62.5L12.4-58.3C12.4-57.3 13.2-56.5 14.2-56.5L14.2-56.5L17.9-56.5L17.9-64.3L17.9-64.3ZM17.9-39.1L14.2-39.1C13.2-39.1 12.4-38.3 12.4-37.3L12.4-33.1C12.4-32.1 13.2-31.3 14.2-31.3L14.2-31.3L17.9-31.3L17.9-39.1L17.9-39.1ZM17.9-13.8L14.2-13.8C13.2-13.8 12.4-13 12.4-12L12.4-7.8C12.4-6.8 13.2-6 14.2-6L14.2-6L17.9-6L17.9-13.8L17.9-13.8ZM81.4-64.3L77.7-64.3C76.7-64.3 75.9-63.5 75.9-62.5L75.9-58.3C75.9-57.3 76.7-56.5 77.7-56.5L77.7-56.5L81.4-56.5L81.4-64.3L81.4-64.3ZM81.4-39.1L77.7-39.1C76.7-39.1 75.9-38.3 75.9-37.3L75.9-33.1C75.9-32.1 76.7-31.3 77.7-31.3L77.7-31.3L81.4-31.3L81.4-39.1L81.4-39.1ZM81.4-13.8L77.7-13.8C76.7-13.8 75.9-13 75.9-12L75.9-7.8C75.9-6.8 76.7-6 77.7-6L77.7-6L81.4-6L81.4-13.8L81.4-13.8ZM133.4-50.4C134.4-50.4 135.2-51.2 135.2-52.2L135.2-68.8C135.2-69.8 134.4-70.5 133.4-70.5L117.3-70.5L117.3-78C117.3-79.4 116.2-80.5 114.8-80.5C113.4-80.5 112.3-79.4 112.3-78L112.3-70.5L103.2-70.5C99.1-70.5 95.5-68 94-64.4L83.6-64.4L83.6-56.5L94-56.5C95.5-52.9 99.1-50.4 103.2-50.4L112.3-50.4L112.3-45.2L103.2-45.2C99.1-45.2 95.5-42.7 94-39.1L83.6-39.1L83.6-31.2L94-31.2C95.5-27.6 99.1-25.1 103.2-25.1L112.3-25.1L112.3-19.9L103.2-19.9C99.1-19.9 95.5-17.4 94-13.8L83.6-13.8L83.6-6L94-6C95.5-2.4 99.1 0.1 103.2 0.1L112.3 0.1L112.3 7.5C112.3 8.9 113.4 10 114.8 10C116.2 10 117.3 8.9 117.3 7.5L117.3 0.1L133.4 0.1C134.4 0.1 135.2-0.7 135.2-1.7L135.2-18.3C135.2-19.3 134.4-20 133.4-20L117.3-20L117.3-25.2L133.4-25.2C134.4-25.2 135.2-26 135.2-27L135.2-43.6C135.2-44.6 134.4-45.3 133.4-45.3L117.3-45.3L117.3-50.5L133.4-50.5ZM125.2-15L125.2-4.8C125.2-4.3 124.8-3.8 124.2-3.8L106-3.8C105.5-3.8 105-4.2 105-4.8L105-15C105-15.5 105.4-16 106-16L124.3-16C124.8-16 125.2-15.6 125.2-15ZM125.2-40.3L125.2-30.1C125.2-29.6 124.8-29.1 124.2-29.1L106-29.1C105.5-29.1 105-29.5 105-30.1L105-40.3C105-40.8 105.4-41.3 106-41.3L124.3-41.3C124.8-41.2 125.2-40.8 125.2-40.3ZM105-55.4L105-65.6C105-66.1 105.4-66.6 106-66.6L124.3-66.6C124.8-66.6 125.3-66.2 125.3-65.6L125.3-55.4C125.3-54.9 124.9-54.4 124.3-54.4L106-54.4C105.4-54.4 105-54.8 105-55.4ZM69.9-50.4C70.9-50.4 71.6-51.2 71.6-52.2L71.6-68.8C71.6-69.8 70.8-70.5 69.9-70.5L54.3-70.5L54.3-78C54.3-79.4 53.2-80.5 51.8-80.5C50.4-80.5 49.3-79.4 49.3-78L49.3-70.5L39.8-70.5C35.7-70.5 32.1-68 30.6-64.4L20.1-64.4L20.1-56.5L30.6-56.5C32.1-52.9 35.7-50.4 39.8-50.4L49.3-50.4L49.3-45.2L39.8-45.2C35.7-45.2 32.1-42.7 30.6-39.1L20.1-39.1L20.1-31.2L30.6-31.2C32.1-27.6 35.7-25.1 39.8-25.1L49.3-25.1L49.3-19.9L39.8-19.9C35.7-19.9 32.1-17.4 30.6-13.8L20.1-13.8L20.1-6L30.6-6C32.1-2.4 35.7 0.1 39.8 0.1L49.3 0.1L49.3 7.5C49.3 8.9 50.4 10 51.8 10C53.2 10 54.3 8.9 54.3 7.5L54.3 0.1L69.9 0.1C70.9 0.1 71.6-0.7 71.6-1.7L71.6-18.3C71.6-19.3 70.8-20 69.9-20L54.3-20L54.3-25.2L69.9-25.2C70.9-25.2 71.6-26 71.6-27L71.6-43.6C71.6-44.6 70.8-45.3 69.9-45.3L54.3-45.3L54.3-50.5L69.9-50.5ZM61.7-15L61.7-4.8C61.7-4.3 61.3-3.8 60.7-3.8L42.5-3.8C42-3.8 41.5-4.2 41.5-4.8L41.5-15C41.5-15.5 41.9-16 42.5-16L60.8-16C61.3-16 61.7-15.6 61.7-15ZM61.7-40.3L61.7-30.1C61.7-29.6 61.3-29.1 60.7-29.1L42.5-29.1C42-29.1 41.5-29.5 41.5-30.1L41.5-40.3C41.5-40.8 41.9-41.3 42.5-41.3L60.8-41.3C61.3-41.2 61.7-40.8 61.7-40.3ZM41.5-55.4L41.5-65.6C41.5-66.1 41.9-66.6 42.5-66.6L60.8-66.6C61.3-66.6 61.8-66.2 61.8-65.6L61.8-55.4C61.8-54.9 61.4-54.4 60.8-54.4L42.5-54.4C41.9-54.4 41.5-54.8 41.5-55.4Z"/>
  </g>
  <g id="Ultralight-S" transform="matrix(1 0 0 1 492.811 696)">
   <path d="M15.704-61.9L12.304-61.9C11.404-61.9 10.604-61.2 10.604-60.2L10.604-56.3C10.604-55.4 11.304-54.6 12.304-54.6L12.304-54.6L15.704-54.6L15.704-61.9L15.704-61.9ZM15.704-38.7L12.304-38.7C11.404-38.7 10.604-38 10.604-37L10.604-33.1C10.604-32.2 11.304-31.4 12.304-31.4L12.304-31.4L15.704-31.4L15.704-38.7L15.704-38.7ZM15.704-15.5L12.304-15.5C11.404-15.5 10.604-14.8 10.604-13.8L10.604-9.9C10.604-9 11.304-8.2 12.304-8.2L12.304-8.2L15.704-8.2L15.704-15.5L15.704-15.5ZM73.904-61.9L70.504-61.9C69.604-61.9 68.804-61.2 68.804-60.2L68.804-56.3C68.804-55.4 69.504-54.6 70.504-54.6L70.504-54.6L73.904-54.6L73.904-61.9L73.904-61.9ZM73.904-38.7L70.504-38.7C69.604-38.7 68.804-38 68.804-37L68.804-33.1C68.804-32.2 69.504-31.4 70.504-31.4L70.504-31.4L73.904-31.4L73.904-38.7L73.904-38.7ZM73.904-15.5L70.504-15.5C69.604-15.5 68.804-14.8 68.804-13.8L68.804-9.9C68.804-9 69.504-8.2 70.504-8.2L70.504-8.2L73.904-8.2L73.904-15.5L73.904-15.5ZM121.604-49.1C122.504-49.1 123.204-49.8 123.204-50.7L123.204-65.9C123.204-66.8 122.504-67.5 121.604-67.5L106.904-67.5L106.904-74.4C106.904-75.7 105.904-76.7 104.604-76.7C103.304-76.7 102.304-75.7 102.304-74.4L102.304-67.5L94.004-67.5C90.204-67.5 86.904-65.2 85.504-61.9L76.004-61.9L76.004-54.7L85.604-54.7C87.004-51.4 90.304-49.1 94.104-49.1L102.404-49.1L102.404-44.3L94.004-44.3C90.204-44.3 86.904-42 85.504-38.7L76.004-38.7L76.004-31.5L85.604-31.5C87.004-28.3 90.204-26 94.004-26L102.304-26L102.304-21.2L94.004-21.2C90.204-21.2 86.904-18.9 85.504-15.6L76.004-15.6L76.004-8.4L85.604-8.4C87.004-5.1 90.204-2.8 94.004-2.8L102.304-2.8L102.304 4C102.304 5.3 103.304 6.3 104.604 6.3C105.904 6.3 106.904 5.3 106.904 4L106.904-2.8L121.604-2.8C122.504-2.8 123.204-3.5 123.204-4.4L123.204-19.6C123.204-20.5 122.504-21.2 121.604-21.2L106.904-21.2L106.904-26L121.604-26C122.504-26 123.204-26.7 123.204-27.6L123.204-42.8C123.204-43.7 122.504-44.4 121.604-44.4L106.904-44.4L106.904-49.2L121.604-49.2ZM114.204-16.6L114.204-7.3C114.204-6.8 113.804-6.4 113.304-6.4L96.504-6.4C96.004-6.4 95.604-6.8 95.604-7.3L95.604-16.6C95.604-17.1 96.004-17.5 96.504-17.5L113.304-17.5C113.804-17.5 114.204-17.1 114.204-16.6ZM114.204-39.8L114.204-30.5C114.204-30 113.804-29.6 113.304-29.6L96.504-29.6C96.004-29.6 95.604-30 95.604-30.5L95.604-39.8C95.604-40.3 96.004-40.7 96.504-40.7L113.304-40.7C113.804-40.7 114.204-40.3 114.204-39.8ZM95.604-53.7L95.604-63C95.604-63.5 96.004-63.9 96.504-63.9L113.304-63.9C113.804-63.9 114.204-63.5 114.204-63L114.204-53.7C114.204-53.2 113.804-52.8 113.304-52.8L96.504-52.8C96.004-52.8 95.604-53.2 95.604-53.7ZM63.404-49.1C64.304-49.1 65.004-49.8 65.004-50.7L65.004-65.9C65.004-66.8 64.304-67.5 63.404-67.5L49.104-67.5L49.104-74.4C49.104-75.7 48.104-76.7 46.804-76.7C45.504-76.7 44.504-75.7 44.504-74.4L44.504-67.5L35.804-67.5C32.004-67.5 28.704-65.2 27.304-61.9L17.704-61.9L17.704-54.7L27.304-54.7C28.704-51.4 32.004-49.1 35.804-49.1L44.504-49.1L44.504-44.3L35.804-44.3C32.004-44.3 28.704-42 27.304-38.7L17.704-38.7L17.704-31.5L27.304-31.5C28.704-28.2 32.004-25.9 35.804-25.9L44.504-25.9L44.504-21.1L35.804-21.1C32.004-21.1 28.704-18.8 27.304-15.5L17.704-15.5L17.704-8.3L27.304-8.3C28.704-5 32.004-2.7 35.804-2.7L44.504-2.7L44.504 4C44.504 5.3 45.504 6.3 46.804 6.3C48.104 6.3 49.104 5.3 49.104 4L49.104-2.8L63.404-2.8C64.304-2.8 65.004-3.5 65.004-4.4L65.004-19.6C65.004-20.5 64.304-21.2 63.404-21.2L49.104-21.2L49.104-26L63.404-26C64.304-26 65.004-26.7 65.004-27.6L65.004-42.8C65.004-43.7 64.304-44.4 63.404-44.4L49.104-44.4L49.104-49.2L63.404-49.2ZM55.904-16.6L55.904-7.3C55.904-6.8 55.504-6.4 55.004-6.4L38.304-6.4C37.804-6.4 37.404-6.8 37.404-7.3L37.404-16.6C37.404-17.1 37.804-17.5 38.304-17.5L55.004-17.5C55.504-17.5 55.904-17.1 55.904-16.6ZM55.904-39.8L55.904-30.5C55.904-30 55.504-29.6 55.004-29.6L38.304-29.6C37.804-29.6 37.404-30 37.404-30.5L37.404-39.8C37.404-40.3 37.804-40.7 38.304-40.7L55.004-40.7C55.504-40.7 55.904-40.3 55.904-39.8ZM37.404-53.7L37.404-63C37.404-63.5 37.804-63.9 38.304-63.9L55.004-63.9C55.504-63.9 55.904-63.5 55.904-63L55.904-53.7C55.904-53.2 55.504-52.8 55.004-52.8L38.304-52.8C37.804-52.8 37.404-53.2 37.404-53.7Z"/>
  </g>
 </g>
</svg>
