<?xml version="1.0" encoding="UTF-8"?>
<!--Generator: Apple Native CoreSVG 175.5-->
<!DOCTYPE svg
PUBLIC "-//W3C//DTD SVG 1.1//EN"
       "http://www.w3.org/Graphics/SVG/1.1/DTD/svg11.dtd">
<svg version="1.1" xmlns="http://www.w3.org/2000/svg" xmlns:xlink="http://www.w3.org/1999/xlink" width="3300" height="2200">
 <!--glyph: "", point size: 100.0, font version: "18.0d12e2", template writer version: "101"-->
 <g id="Notes">
  <rect height="2200" id="artboard" style="fill:white;opacity:1" width="3300" x="0" y="0"/>
  <line style="fill:none;stroke:black;opacity:1;stroke-width:0.5;" x1="263" x2="3036" y1="292" y2="292"/>
  <text style="stroke:none;fill:black;font-family:sans-serif;font-size:13;font-weight:bold;" transform="matrix(1 0 0 1 263 322)">Weight/Scale Variations</text>
  <text style="stroke:none;fill:black;font-family:sans-serif;font-size:13;text-anchor:middle;" transform="matrix(1 0 0 1 559.711 322)">Ultralight</text>
  <text style="stroke:none;fill:black;font-family:sans-serif;font-size:13;text-anchor:middle;" transform="matrix(1 0 0 1 856.422 322)">Thin</text>
  <text style="stroke:none;fill:black;font-family:sans-serif;font-size:13;text-anchor:middle;" transform="matrix(1 0 0 1 1153.13 322)">Light</text>
  <text style="stroke:none;fill:black;font-family:sans-serif;font-size:13;text-anchor:middle;" transform="matrix(1 0 0 1 1449.84 322)">Regular</text>
  <text style="stroke:none;fill:black;font-family:sans-serif;font-size:13;text-anchor:middle;" transform="matrix(1 0 0 1 1746.56 322)">Medium</text>
  <text style="stroke:none;fill:black;font-family:sans-serif;font-size:13;text-anchor:middle;" transform="matrix(1 0 0 1 2043.27 322)">Semibold</text>
  <text style="stroke:none;fill:black;font-family:sans-serif;font-size:13;text-anchor:middle;" transform="matrix(1 0 0 1 2339.98 322)">Bold</text>
  <text style="stroke:none;fill:black;font-family:sans-serif;font-size:13;text-anchor:middle;" transform="matrix(1 0 0 1 2636.69 322)">Heavy</text>
  <text style="stroke:none;fill:black;font-family:sans-serif;font-size:13;text-anchor:middle;" transform="matrix(1 0 0 1 2933.4 322)">Black</text>
  <line style="fill:none;stroke:black;opacity:1;stroke-width:0.5;" x1="263" x2="3036" y1="1903" y2="1903"/>
  <g transform="matrix(1 0 0 1 263 1933)">
   <path d="M9.24805 0.830078C13.5547 0.830078 17.1387-2.74414 17.1387-7.05078C17.1387-11.3574 13.5449-14.9316 9.23828-14.9316C4.94141-14.9316 1.36719-11.3574 1.36719-7.05078C1.36719-2.74414 4.95117 0.830078 9.24805 0.830078ZM9.24805-0.654297C5.70312-0.654297 2.87109-3.49609 2.87109-7.05078C2.87109-10.6055 5.69336-13.4473 9.23828-13.4473C12.793-13.4473 15.6445-10.6055 15.6445-7.05078C15.6445-3.49609 12.8027-0.654297 9.24805-0.654297ZM5.6543-7.05078C5.6543-6.62109 5.95703-6.32812 6.40625-6.32812L8.50586-6.32812L8.50586-4.20898C8.50586-3.76953 8.79883-3.4668 9.22852-3.4668C9.67773-3.4668 9.9707-3.76953 9.9707-4.20898L9.9707-6.32812L12.0898-6.32812C12.5293-6.32812 12.832-6.62109 12.832-7.05078C12.832-7.49023 12.5293-7.79297 12.0898-7.79297L9.9707-7.79297L9.9707-9.90234C9.9707-10.3516 9.67773-10.6543 9.22852-10.6543C8.79883-10.6543 8.50586-10.3516 8.50586-9.90234L8.50586-7.79297L6.40625-7.79297C5.95703-7.79297 5.6543-7.49023 5.6543-7.05078Z"/>
  </g>
  <g transform="matrix(1 0 0 1 281.867 1933)">
   <path d="M11.709 2.91016C17.1582 2.91016 21.6699-1.61133 21.6699-7.05078C21.6699-12.5 17.1484-17.0117 11.6992-17.0117C6.25977-17.0117 1.74805-12.5 1.74805-7.05078C1.74805-1.61133 6.26953 2.91016 11.709 2.91016ZM11.709 1.25C7.09961 1.25 3.41797-2.44141 3.41797-7.05078C3.41797-11.6602 7.08984-15.3516 11.6992-15.3516C16.3086-15.3516 20.0098-11.6602 20.0098-7.05078C20.0098-2.44141 16.3184 1.25 11.709 1.25ZM7.17773-7.05078C7.17773-6.57227 7.50977-6.25 8.00781-6.25L10.8789-6.25L10.8789-3.36914C10.8789-2.88086 11.2109-2.53906 11.6895-2.53906C12.1777-2.53906 12.5195-2.87109 12.5195-3.36914L12.5195-6.25L15.4004-6.25C15.8887-6.25 16.2305-6.57227 16.2305-7.05078C16.2305-7.53906 15.8887-7.88086 15.4004-7.88086L12.5195-7.88086L12.5195-10.752C12.5195-11.25 12.1777-11.5918 11.6895-11.5918C11.2109-11.5918 10.8789-11.25 10.8789-10.752L10.8789-7.88086L8.00781-7.88086C7.50977-7.88086 7.17773-7.53906 7.17773-7.05078Z"/>
  </g>
  <g transform="matrix(1 0 0 1 305.646 1933)">
   <path d="M14.9707 5.66406C21.9336 5.66406 27.6953-0.0976562 27.6953-7.05078C27.6953-14.0137 21.9238-19.7754 14.9609-19.7754C8.00781-19.7754 2.25586-14.0137 2.25586-7.05078C2.25586-0.0976562 8.01758 5.66406 14.9707 5.66406ZM14.9707 3.84766C8.93555 3.84766 4.08203-1.01562 4.08203-7.05078C4.08203-13.0957 8.92578-17.9492 14.9609-17.9492C21.0059-17.9492 25.8691-13.0957 25.8691-7.05078C25.8691-1.01562 21.0156 3.84766 14.9707 3.84766ZM9.19922-7.05078C9.19922-6.5332 9.57031-6.17188 10.1172-6.17188L14.0625-6.17188L14.0625-2.2168C14.0625-1.67969 14.4336-1.29883 14.9512-1.29883C15.4883-1.29883 15.8594-1.66992 15.8594-2.2168L15.8594-6.17188L19.8145-6.17188C20.3516-6.17188 20.7324-6.5332 20.7324-7.05078C20.7324-7.59766 20.3613-7.96875 19.8145-7.96875L15.8594-7.96875L15.8594-11.9141C15.8594-12.4609 15.4883-12.8418 14.9512-12.8418C14.4336-12.8418 14.0625-12.4609 14.0625-11.9141L14.0625-7.96875L10.1172-7.96875C9.57031-7.96875 9.19922-7.59766 9.19922-7.05078Z"/>
  </g>
  <text style="stroke:none;fill:black;font-family:sans-serif;font-size:13;font-weight:bold;" transform="matrix(1 0 0 1 263 1953)">Design Variations</text>
  <text style="stroke:none;fill:black;font-family:sans-serif;font-size:13;" transform="matrix(1 0 0 1 263 1971)">Symbols are supported in up to nine weights and three scales.</text>
  <text style="stroke:none;fill:black;font-family:sans-serif;font-size:13;" transform="matrix(1 0 0 1 263 1989)">For optimal layout with text and other symbols, vertically align</text>
  <text style="stroke:none;fill:black;font-family:sans-serif;font-size:13;" transform="matrix(1 0 0 1 263 2007)">symbols with the adjacent text.</text>
  <line style="fill:none;stroke:#00AEEF;stroke-width:0.5;opacity:1.0;" x1="776" x2="776" y1="1919" y2="1933"/>
  <g transform="matrix(1 0 0 1 776 1933)">
   <path d="M3.31055 0.15625C3.82812 0.15625 4.08203-0.0390625 4.26758-0.585938L5.52734-4.0332L11.2891-4.0332L12.5488-0.585938C12.7344-0.0390625 12.9883 0.15625 13.4961 0.15625C14.0137 0.15625 14.3457-0.15625 14.3457-0.644531C14.3457-0.810547 14.3164-0.966797 14.2383-1.17188L9.6582-13.3691C9.43359-13.9648 9.0332-14.2676 8.4082-14.2676C7.80273-14.2676 7.39258-13.9746 7.17773-13.3789L2.59766-1.16211C2.51953-0.957031 2.49023-0.800781 2.49023-0.634766C2.49023-0.146484 2.80273 0.15625 3.31055 0.15625ZM6.00586-5.51758L8.37891-12.0898L8.42773-12.0898L10.8008-5.51758Z"/>
  </g>
  <line style="fill:none;stroke:#00AEEF;stroke-width:0.5;opacity:1.0;" x1="793.197" x2="793.197" y1="1919" y2="1933"/>
  <text style="stroke:none;fill:black;font-family:sans-serif;font-size:13;font-weight:bold;" transform="matrix(1 0 0 1 776 1953)">Margins</text>
  <text style="stroke:none;fill:black;font-family:sans-serif;font-size:13;" transform="matrix(1 0 0 1 776 1971)">Leading and trailing margins on the left and right side of each symbol</text>
  <text style="stroke:none;fill:black;font-family:sans-serif;font-size:13;" transform="matrix(1 0 0 1 776 1989)">can be adjusted by modifying the x-location of the margin guidelines.</text>
  <text style="stroke:none;fill:black;font-family:sans-serif;font-size:13;" transform="matrix(1 0 0 1 776 2007)">Modifications are automatically applied proportionally to all</text>
  <text style="stroke:none;fill:black;font-family:sans-serif;font-size:13;" transform="matrix(1 0 0 1 776 2025)">scales and weights.</text>
  <g transform="matrix(1 0 0 1 1289 1933)">
   <path d="M2.8418 1.86523L4.54102 3.57422C5.40039 4.44336 6.38672 4.38477 7.31445 3.35938L18.0078-8.42773L17.041-9.4043L6.42578 2.27539C6.07422 2.67578 5.74219 2.77344 5.27344 2.30469L4.10156 1.14258C3.63281 0.683594 3.74023 0.341797 4.14062-0.0195312L15.6152-10.8203L14.6387-11.7871L3.04688-0.898438C2.06055 0.0195312 1.98242 0.996094 2.8418 1.86523ZM9.25781-16.3281C8.83789-15.918 8.80859-15.3418 9.04297-14.9512C9.27734-14.5898 9.73633-14.3555 10.3809-14.5215C11.8457-14.8633 13.3691-14.9219 14.7949-13.9844L14.209-12.5293C13.8672-11.6992 14.043-11.1133 14.5801-10.5664L16.875-8.25195C17.3633-7.76367 17.7734-7.74414 18.3398-7.8418L19.4043-8.03711L20.0684-7.36328L20.0293-6.80664C19.9902-6.30859 20.1172-5.92773 20.6055-5.44922L21.3672-4.70703C21.8457-4.22852 22.4609-4.19922 22.9297-4.66797L25.8398-7.58789C26.3086-8.05664 26.2891-8.65234 25.8105-9.13086L25.0391-9.89258C24.5605-10.3711 24.1895-10.5273 23.7109-10.4883L23.1348-10.4395L22.4902-11.0742L22.7344-12.1973C22.8613-12.7637 22.7051-13.2031 22.1191-13.7891L19.9219-15.9766C16.582-19.2969 12.1484-19.2188 9.25781-16.3281ZM10.752-15.957C13.1836-17.7344 16.4746-17.4316 18.7012-15.2051L21.1328-12.793C21.3672-12.5586 21.4062-12.373 21.3379-12.0312L21.0156-10.5469L22.5195-9.0625L23.5059-9.12109C23.7598-9.13086 23.8379-9.11133 24.0332-8.91602L24.6094-8.33984L22.168-5.89844L21.5918-6.47461C21.3965-6.66992 21.3672-6.74805 21.377-7.01172L21.4453-7.98828L19.9512-9.47266L18.4277-9.21875C18.1055-9.15039 17.959-9.17969 17.7148-9.41406L15.7129-11.416C15.459-11.6504 15.4297-11.8164 15.5859-12.1875L16.4648-14.2773C14.9023-15.7324 12.8711-16.3574 10.8398-15.7617C10.6836-15.7227 10.625-15.8496 10.752-15.957Z"/>
  </g>
  <text style="stroke:none;fill:black;font-family:sans-serif;font-size:13;font-weight:bold;" transform="matrix(1 0 0 1 1289 1953)">Exporting</text>
  <text style="stroke:none;fill:black;font-family:sans-serif;font-size:13;" transform="matrix(1 0 0 1 1289 1971)">Symbols should be outlined when exporting to ensure the</text>
  <text style="stroke:none;fill:black;font-family:sans-serif;font-size:13;" transform="matrix(1 0 0 1 1289 1989)">design is preserved when submitting to Xcode.</text>
  <text id="template-version" style="stroke:none;fill:black;font-family:sans-serif;font-size:13;text-anchor:end;" transform="matrix(1 0 0 1 3036 1933)">Template v.4.0</text>
  <text style="stroke:none;fill:black;font-family:sans-serif;font-size:13;text-anchor:end;" transform="matrix(1 0 0 1 3036 1951)">Requires Xcode 14 or greater</text>
  <text id="descriptive-name" style="stroke:none;fill:black;font-family:sans-serif;font-size:13;text-anchor:end;" transform="matrix(1 0 0 1 3036 1969)">Generated from case.bartender7.fill</text>
  <text style="stroke:none;fill:black;font-family:sans-serif;font-size:13;text-anchor:end;" transform="matrix(1 0 0 1 3036 1987)">Typeset at 100 points</text>
  <text style="stroke:none;fill:black;font-family:sans-serif;font-size:13;" transform="matrix(1 0 0 1 263 726)">Small</text>
  <text style="stroke:none;fill:black;font-family:sans-serif;font-size:13;" transform="matrix(1 0 0 1 263 1156)">Medium</text>
  <text style="stroke:none;fill:black;font-family:sans-serif;font-size:13;" transform="matrix(1 0 0 1 263 1586)">Large</text>
 </g>
 <g id="Guides">
  <g id="H-reference" style="fill:#27AAE1;stroke:none;" transform="matrix(1 0 0 1 339 696)">
   <path d="M0.993654 0L3.63775 0L29.3281-67.1323L30.0303-67.1323L30.0303-70.459L28.1226-70.459ZM11.6885-24.4799L46.9815-24.4799L46.2315-26.7285L12.4385-26.7285ZM55.1196 0L57.7637 0L30.6382-70.459L29.4326-70.459L29.4326-67.1323Z"/>
  </g>
  <line id="Baseline-S" style="fill:none;stroke:#27AAE1;opacity:1;stroke-width:0.5;" x1="263" x2="3036" y1="696" y2="696"/>
  <line id="Capline-S" style="fill:none;stroke:#27AAE1;opacity:1;stroke-width:0.5;" x1="263" x2="3036" y1="625.541" y2="625.541"/>
  <g id="H-reference" style="fill:#27AAE1;stroke:none;" transform="matrix(1 0 0 1 339 1126)">
   <path d="M0.993654 0L3.63775 0L29.3281-67.1323L30.0303-67.1323L30.0303-70.459L28.1226-70.459ZM11.6885-24.4799L46.9815-24.4799L46.2315-26.7285L12.4385-26.7285ZM55.1196 0L57.7637 0L30.6382-70.459L29.4326-70.459L29.4326-67.1323Z"/>
  </g>
  <line id="Baseline-M" style="fill:none;stroke:#27AAE1;opacity:1;stroke-width:0.5;" x1="263" x2="3036" y1="1126" y2="1126"/>
  <line id="Capline-M" style="fill:none;stroke:#27AAE1;opacity:1;stroke-width:0.5;" x1="263" x2="3036" y1="1055.54" y2="1055.54"/>
  <g id="H-reference" style="fill:#27AAE1;stroke:none;" transform="matrix(1 0 0 1 339 1556)">
   <path d="M0.993654 0L3.63775 0L29.3281-67.1323L30.0303-67.1323L30.0303-70.459L28.1226-70.459ZM11.6885-24.4799L46.9815-24.4799L46.2315-26.7285L12.4385-26.7285ZM55.1196 0L57.7637 0L30.6382-70.459L29.4326-70.459L29.4326-67.1323Z"/>
  </g>
  <line id="Baseline-L" style="fill:none;stroke:#27AAE1;opacity:1;stroke-width:0.5;" x1="263" x2="3036" y1="1556" y2="1556"/>
  <line id="Capline-L" style="fill:none;stroke:#27AAE1;opacity:1;stroke-width:0.5;" x1="263" x2="3036" y1="1485.54" y2="1485.54"/>
  <line id="left-margin-Ultralight-S" style="fill:none;stroke:#00AEEF;stroke-width:0.5;opacity:1.0;" x1="521.811" x2="521.811" y1="600.785" y2="720.121"/>
  <line id="right-margin-Ultralight-S" style="fill:none;stroke:#00AEEF;stroke-width:0.5;opacity:1.0;" x1="597.611" x2="597.611" y1="600.785" y2="720.121"/>
  <line id="left-margin-Regular-S" style="fill:none;stroke:#00AEEF;stroke-width:0.5;opacity:1.0;" x1="1408.19" x2="1408.19" y1="600.785" y2="720.121"/>
  <line id="right-margin-Regular-S" style="fill:none;stroke:#00AEEF;stroke-width:0.5;opacity:1.0;" x1="1491.49" x2="1491.49" y1="600.785" y2="720.121"/>
  <line id="left-margin-Black-S" style="fill:none;stroke:#00AEEF;stroke-width:0.5;opacity:1.0;" x1="2888.7" x2="2888.7" y1="600.785" y2="720.121"/>
  <line id="right-margin-Black-S" style="fill:none;stroke:#00AEEF;stroke-width:0.5;opacity:1.0;" x1="2978.1" x2="2978.1" y1="600.785" y2="720.121"/>
 </g>
 <g id="Symbols">
  <g id="Black-S" transform="matrix(1 0 0 1 2888.7 696)">
   <path d="M68.41-36.6L53.21-36.6C52.11-36.6 51.01-36.2 50.21-35.3L49.01-34.1C48.91-34 48.91-34 48.81-34L36.81-34L36.81-39.5C43.71-40.2 49.21-46 49.21-53.1C49.21-57.5 47.11-61.4 43.91-63.9C43.31-64.4 42.41-64.2 42.01-63.6C41.61-63 41.81-62.3 42.31-61.8C45.41-59.4 47.21-55.4 46.41-51.1C45.61-46.7 42.11-43.1 37.61-42.3C37.31-42.3 37.11-42.2 36.81-42.2L36.81-44.4C41.11-45 44.41-48.8 44.41-53.3C44.41-57.2 41.91-60.6 38.41-61.8L39.81-83.5C40.01-86 38.01-88.1 35.51-88.1C33.01-88.1 31.01-86 31.21-83.5L32.61-61.8C28.61-60.4 25.81-56.2 26.71-51.5C27.41-48 30.21-45.2 33.71-44.5C33.91-44.5 34.01-44.5 34.21-44.4L34.21-42.2C28.71-42.9 24.51-47.5 24.51-53.1C24.51-56.6 26.21-59.8 28.81-61.8C29.31-62.2 29.51-63 29.11-63.6C28.71-64.2 27.81-64.4 27.21-63.9C23.51-61.1 21.41-56.4 22.01-51.3C22.81-45.1 27.81-40.2 34.01-39.5C34.11-39.5 34.21-39.5 34.31-39.5L34.31-34L21.01-34C20.31-34 19.71-33.4 19.71-32.7C19.71-32 20.31-31.4 21.01-31.4L24.51-31.4L32.01-20C32.51-19.2 33.31-18.7 34.11-18.4L34.11-13.2C29.01-13.2 24.31-13.2 24.21-13.2C23.91-13.2 23.71-13.1 23.61-13C23.51-12.9 23.41-12.7 23.41-12.4C23.41-6.2 28.11-1 34.21-0.4L34.21 12L27.01 16.4C26.31 16.8 26.61 17.9 27.41 17.9L43.51 17.9C44.31 17.9 44.61 16.8 43.91 16.4L36.71 11.9L36.71-0.5C42.81-1.2 47.51-6.3 47.51-12.5C47.51-12.8 47.41-12.9 47.21-13.1C47.01-13.3 46.71-13.3 46.51-13.3C46.41-13.3 41.81-13.3 36.71-13.3L36.71-18.5C37.41-18.8 38.11-19.3 38.61-20L46.21-31.4L48.71-31.4C49.51-31.4 50.21-31.7 50.81-32.3L52.01-33.5C52.31-33.8 52.71-34 53.21-34L68.41-34C69.11-34 69.71-34.6 69.71-35.3C69.71-36 69.21-36.6 68.41-36.6ZM34.11-10.7L34.11-8L27.11-8C26.71-8.8 26.31-9.7 26.11-10.6L34.11-10.6ZM44.71-10.7C44.51-9.8 44.21-8.9 43.71-8.1L36.71-8.1L36.71-10.7L44.71-10.7Z"/>
  </g>
  <g id="Regular-S" transform="matrix(1 0 0 1 1408.19 696)">
   <path d="M64.1-36.5L49.7-36.5C48.6-36.5 47.6-36.1 46.8-35.3L45.6-34.1C45.5-34 45.5-34 45.4-34L34.2-34L34.2-39.2C40.8-39.8 45.9-45.3 45.9-52.1C45.9-56.3 43.9-59.9 40.9-62.3C40.3-62.7 39.5-62.6 39.1-62C38.7-61.5 38.9-60.7 39.4-60.3C42.3-58 44-54.3 43.3-50.1C42.5-45.9 39.2-42.6 35-41.8C34.8-41.8 34.5-41.7 34.3-41.7L34.3-43.8C38.4-44.4 41.5-47.9 41.5-52.2C41.5-55.9 39.1-59.1 35.8-60.2L37-80.7C37.2-83.1 35.3-85.1 32.9-85.1C30.5-85.1 28.7-83.1 28.8-80.7L30.1-60.2C26.3-58.9 23.7-54.9 24.6-50.5C25.2-47.2 27.9-44.5 31.2-43.9C31.4-43.9 31.5-43.9 31.7-43.8L31.7-41.7C26.5-42.3 22.5-46.7 22.5-52C22.5-55.3 24.1-58.3 26.5-60.2C27-60.6 27.1-61.3 26.8-61.9C26.4-62.5 25.6-62.7 25-62.2C21.5-59.5 19.5-55.1 20.1-50.3C20.8-44.5 25.6-39.8 31.4-39.2C31.5-39.2 31.6-39.2 31.6-39.2L31.6-34L19.2-34C18.5-34 18-33.4 18-32.8C18-32.2 18.6-31.6 19.2-31.6L22.5-31.6L29.7-20.8C30.2-20 30.9-19.6 31.7-19.3L31.7-14.4C26.9-14.4 22.4-14.4 22.3-14.4C22-14.4 21.9-14.3 21.7-14.2C21.6-14.1 21.5-13.9 21.5-13.6C21.5-7.7 26-2.9 31.7-2.3L31.7 9.4L24.9 13.6C24.2 14 24.5 15 25.3 15L40.5 15C41.3 15 41.6 14 40.9 13.6L34.1 9.4L34.1-2.3C39.9-3 44.3-7.8 44.3-13.7C44.3-14 44.2-14.1 44-14.3C43.8-14.5 43.5-14.5 43.3-14.5C43.2-14.5 38.8-14.5 34.1-14.5L34.1-19.4C34.8-19.7 35.4-20.1 35.9-20.8L43.1-31.6L45.4-31.6C46.1-31.6 46.8-31.9 47.4-32.4L48.6-33.6C48.9-33.9 49.3-34.1 49.7-34.1L64.1-34.1C64.8-34.1 65.3-34.7 65.3-35.3C65.3-35.9 64.8-36.5 64.1-36.5ZM31.7-12L31.7-9.5L25.1-9.5C24.7-10.3 24.4-11.1 24.2-12L31.7-12ZM41.7-12C41.5-11.1 41.2-10.3 40.8-9.5L34.2-9.5L34.2-12L41.7-12Z"/>
  </g>
  <g id="Ultralight-S" transform="matrix(1 0 0 1 521.811 696)">
   <path d="M58.404-36.4L45.304-36.4C44.304-36.4 43.404-36 42.704-35.3L41.604-34.2C41.504-34.1 41.504-34.1 41.404-34.1L31.004-34.1L31.004-39C37.004-39.6 41.704-44.6 41.704-50.8C41.704-54.6 39.904-58 37.104-60.1C36.604-60.5 35.804-60.4 35.404-59.8C35.104-59.3 35.204-58.6 35.704-58.3C38.404-56.2 39.904-52.8 39.204-49C38.504-45.2 35.404-42.1 31.604-41.4C31.404-41.4 31.204-41.3 30.904-41.3L30.904-43.2C34.604-43.8 37.504-47 37.504-50.9C37.504-54.3 35.304-57.2 32.304-58.2L33.604-77C33.704-79.2 32.004-81 29.904-81C27.704-81 26.004-79.2 26.204-77L27.404-58.2C23.904-57 21.504-53.4 22.304-49.3C22.904-46.3 25.304-43.8 28.304-43.3C28.404-43.3 28.604-43.3 28.704-43.2L28.704-41.3C24.004-41.9 20.304-45.9 20.304-50.8C20.304-53.9 21.804-56.6 24.004-58.3C24.504-58.7 24.604-59.3 24.304-59.8C23.904-60.4 23.204-60.5 22.604-60.1C19.404-57.6 17.504-53.6 18.104-49.2C18.804-43.9 23.104-39.6 28.504-39C28.604-39 28.704-39 28.704-39L28.704-34.2L17.404-34.2C16.804-34.2 16.304-33.7 16.304-33.1C16.304-32.5 16.804-32 17.404-32L20.404-32L27.004-22.2C27.504-21.5 28.104-21.1 28.804-20.8L28.804-16.3C24.404-16.3 20.304-16.3 20.204-16.3C20.004-16.3 19.804-16.2 19.704-16.1C19.604-16 19.504-15.8 19.504-15.6C19.504-10.2 23.604-5.8 28.804-5.2L28.804 5.6L22.604 9.5C22.004 9.9 22.304 10.8 23.004 10.8L36.904 10.8C37.604 10.8 37.904 9.9 37.304 9.5L31.004 5.6L31.004-5.1C36.204-5.7 40.304-10.1 40.304-15.5C40.304-15.7 40.204-15.9 40.104-16C39.904-16.2 39.604-16.2 39.504-16.2C39.404-16.2 35.404-16.2 31.004-16.2L31.004-20.7C31.604-20.9 32.204-21.4 32.704-22L39.304-31.8L41.404-31.8C42.104-31.8 42.704-32.1 43.204-32.5L44.304-33.6C44.604-33.9 44.904-34 45.304-34L58.504-34C59.104-34 59.604-34.5 59.604-35.1C59.604-35.9 59.104-36.4 58.404-36.4ZM28.804-14L28.804-11.7L22.804-11.7C22.404-12.4 22.104-13.2 22.004-14L28.804-14ZM37.904-14C37.704-13.2 37.504-12.4 37.104-11.7L31.104-11.7L31.104-14L37.904-14Z"/>
  </g>
 </g>
</svg>
