<?xml version="1.0" encoding="UTF-8"?>
<!--Generator: Apple Native CoreSVG 175.5-->
<!DOCTYPE svg
PUBLIC "-//W3C//DTD SVG 1.1//EN"
       "http://www.w3.org/Graphics/SVG/1.1/DTD/svg11.dtd">
<svg version="1.1" xmlns="http://www.w3.org/2000/svg" xmlns:xlink="http://www.w3.org/1999/xlink" width="3300" height="2200">
 <!--glyph: "", point size: 100.0, font version: "18.0d12e2", template writer version: "101"-->
 <g id="Notes">
  <rect height="2200" id="artboard" style="fill:white;opacity:1" width="3300" x="0" y="0"/>
  <line style="fill:none;stroke:black;opacity:1;stroke-width:0.5;" x1="263" x2="3036" y1="292" y2="292"/>
  <text style="stroke:none;fill:black;font-family:sans-serif;font-size:13;font-weight:bold;" transform="matrix(1 0 0 1 263 322)">Weight/Scale Variations</text>
  <text style="stroke:none;fill:black;font-family:sans-serif;font-size:13;text-anchor:middle;" transform="matrix(1 0 0 1 559.711 322)">Ultralight</text>
  <text style="stroke:none;fill:black;font-family:sans-serif;font-size:13;text-anchor:middle;" transform="matrix(1 0 0 1 856.422 322)">Thin</text>
  <text style="stroke:none;fill:black;font-family:sans-serif;font-size:13;text-anchor:middle;" transform="matrix(1 0 0 1 1153.13 322)">Light</text>
  <text style="stroke:none;fill:black;font-family:sans-serif;font-size:13;text-anchor:middle;" transform="matrix(1 0 0 1 1449.84 322)">Regular</text>
  <text style="stroke:none;fill:black;font-family:sans-serif;font-size:13;text-anchor:middle;" transform="matrix(1 0 0 1 1746.56 322)">Medium</text>
  <text style="stroke:none;fill:black;font-family:sans-serif;font-size:13;text-anchor:middle;" transform="matrix(1 0 0 1 2043.27 322)">Semibold</text>
  <text style="stroke:none;fill:black;font-family:sans-serif;font-size:13;text-anchor:middle;" transform="matrix(1 0 0 1 2339.98 322)">Bold</text>
  <text style="stroke:none;fill:black;font-family:sans-serif;font-size:13;text-anchor:middle;" transform="matrix(1 0 0 1 2636.69 322)">Heavy</text>
  <text style="stroke:none;fill:black;font-family:sans-serif;font-size:13;text-anchor:middle;" transform="matrix(1 0 0 1 2933.4 322)">Black</text>
  <line style="fill:none;stroke:black;opacity:1;stroke-width:0.5;" x1="263" x2="3036" y1="1903" y2="1903"/>
  <g transform="matrix(1 0 0 1 263 1933)">
   <path d="M9.24805 0.830078C13.5547 0.830078 17.1387-2.74414 17.1387-7.05078C17.1387-11.3574 13.5449-14.9316 9.23828-14.9316C4.94141-14.9316 1.36719-11.3574 1.36719-7.05078C1.36719-2.74414 4.95117 0.830078 9.24805 0.830078ZM9.24805-0.654297C5.70312-0.654297 2.87109-3.49609 2.87109-7.05078C2.87109-10.6055 5.69336-13.4473 9.23828-13.4473C12.793-13.4473 15.6445-10.6055 15.6445-7.05078C15.6445-3.49609 12.8027-0.654297 9.24805-0.654297ZM5.6543-7.05078C5.6543-6.62109 5.95703-6.32812 6.40625-6.32812L8.50586-6.32812L8.50586-4.20898C8.50586-3.76953 8.79883-3.4668 9.22852-3.4668C9.67773-3.4668 9.9707-3.76953 9.9707-4.20898L9.9707-6.32812L12.0898-6.32812C12.5293-6.32812 12.832-6.62109 12.832-7.05078C12.832-7.49023 12.5293-7.79297 12.0898-7.79297L9.9707-7.79297L9.9707-9.90234C9.9707-10.3516 9.67773-10.6543 9.22852-10.6543C8.79883-10.6543 8.50586-10.3516 8.50586-9.90234L8.50586-7.79297L6.40625-7.79297C5.95703-7.79297 5.6543-7.49023 5.6543-7.05078Z"/>
  </g>
  <g transform="matrix(1 0 0 1 281.867 1933)">
   <path d="M11.709 2.91016C17.1582 2.91016 21.6699-1.61133 21.6699-7.05078C21.6699-12.5 17.1484-17.0117 11.6992-17.0117C6.25977-17.0117 1.74805-12.5 1.74805-7.05078C1.74805-1.61133 6.26953 2.91016 11.709 2.91016ZM11.709 1.25C7.09961 1.25 3.41797-2.44141 3.41797-7.05078C3.41797-11.6602 7.08984-15.3516 11.6992-15.3516C16.3086-15.3516 20.0098-11.6602 20.0098-7.05078C20.0098-2.44141 16.3184 1.25 11.709 1.25ZM7.17773-7.05078C7.17773-6.57227 7.50977-6.25 8.00781-6.25L10.8789-6.25L10.8789-3.36914C10.8789-2.88086 11.2109-2.53906 11.6895-2.53906C12.1777-2.53906 12.5195-2.87109 12.5195-3.36914L12.5195-6.25L15.4004-6.25C15.8887-6.25 16.2305-6.57227 16.2305-7.05078C16.2305-7.53906 15.8887-7.88086 15.4004-7.88086L12.5195-7.88086L12.5195-10.752C12.5195-11.25 12.1777-11.5918 11.6895-11.5918C11.2109-11.5918 10.8789-11.25 10.8789-10.752L10.8789-7.88086L8.00781-7.88086C7.50977-7.88086 7.17773-7.53906 7.17773-7.05078Z"/>
  </g>
  <g transform="matrix(1 0 0 1 305.646 1933)">
   <path d="M14.9707 5.66406C21.9336 5.66406 27.6953-0.0976562 27.6953-7.05078C27.6953-14.0137 21.9238-19.7754 14.9609-19.7754C8.00781-19.7754 2.25586-14.0137 2.25586-7.05078C2.25586-0.0976562 8.01758 5.66406 14.9707 5.66406ZM14.9707 3.84766C8.93555 3.84766 4.08203-1.01562 4.08203-7.05078C4.08203-13.0957 8.92578-17.9492 14.9609-17.9492C21.0059-17.9492 25.8691-13.0957 25.8691-7.05078C25.8691-1.01562 21.0156 3.84766 14.9707 3.84766ZM9.19922-7.05078C9.19922-6.5332 9.57031-6.17188 10.1172-6.17188L14.0625-6.17188L14.0625-2.2168C14.0625-1.67969 14.4336-1.29883 14.9512-1.29883C15.4883-1.29883 15.8594-1.66992 15.8594-2.2168L15.8594-6.17188L19.8145-6.17188C20.3516-6.17188 20.7324-6.5332 20.7324-7.05078C20.7324-7.59766 20.3613-7.96875 19.8145-7.96875L15.8594-7.96875L15.8594-11.9141C15.8594-12.4609 15.4883-12.8418 14.9512-12.8418C14.4336-12.8418 14.0625-12.4609 14.0625-11.9141L14.0625-7.96875L10.1172-7.96875C9.57031-7.96875 9.19922-7.59766 9.19922-7.05078Z"/>
  </g>
  <text style="stroke:none;fill:black;font-family:sans-serif;font-size:13;font-weight:bold;" transform="matrix(1 0 0 1 263 1953)">Design Variations</text>
  <text style="stroke:none;fill:black;font-family:sans-serif;font-size:13;" transform="matrix(1 0 0 1 263 1971)">Symbols are supported in up to nine weights and three scales.</text>
  <text style="stroke:none;fill:black;font-family:sans-serif;font-size:13;" transform="matrix(1 0 0 1 263 1989)">For optimal layout with text and other symbols, vertically align</text>
  <text style="stroke:none;fill:black;font-family:sans-serif;font-size:13;" transform="matrix(1 0 0 1 263 2007)">symbols with the adjacent text.</text>
  <line style="fill:none;stroke:#00AEEF;stroke-width:0.5;opacity:1.0;" x1="776" x2="776" y1="1919" y2="1933"/>
  <g transform="matrix(1 0 0 1 776 1933)">
   <path d="M3.31055 0.15625C3.82812 0.15625 4.08203-0.0390625 4.26758-0.585938L5.52734-4.0332L11.2891-4.0332L12.5488-0.585938C12.7344-0.0390625 12.9883 0.15625 13.4961 0.15625C14.0137 0.15625 14.3457-0.15625 14.3457-0.644531C14.3457-0.810547 14.3164-0.966797 14.2383-1.17188L9.6582-13.3691C9.43359-13.9648 9.0332-14.2676 8.4082-14.2676C7.80273-14.2676 7.39258-13.9746 7.17773-13.3789L2.59766-1.16211C2.51953-0.957031 2.49023-0.800781 2.49023-0.634766C2.49023-0.146484 2.80273 0.15625 3.31055 0.15625ZM6.00586-5.51758L8.37891-12.0898L8.42773-12.0898L10.8008-5.51758Z"/>
  </g>
  <line style="fill:none;stroke:#00AEEF;stroke-width:0.5;opacity:1.0;" x1="793.197" x2="793.197" y1="1919" y2="1933"/>
  <text style="stroke:none;fill:black;font-family:sans-serif;font-size:13;font-weight:bold;" transform="matrix(1 0 0 1 776 1953)">Margins</text>
  <text style="stroke:none;fill:black;font-family:sans-serif;font-size:13;" transform="matrix(1 0 0 1 776 1971)">Leading and trailing margins on the left and right side of each symbol</text>
  <text style="stroke:none;fill:black;font-family:sans-serif;font-size:13;" transform="matrix(1 0 0 1 776 1989)">can be adjusted by modifying the x-location of the margin guidelines.</text>
  <text style="stroke:none;fill:black;font-family:sans-serif;font-size:13;" transform="matrix(1 0 0 1 776 2007)">Modifications are automatically applied proportionally to all</text>
  <text style="stroke:none;fill:black;font-family:sans-serif;font-size:13;" transform="matrix(1 0 0 1 776 2025)">scales and weights.</text>
  <g transform="matrix(1 0 0 1 1289 1933)">
   <path d="M2.8418 1.86523L4.54102 3.57422C5.40039 4.44336 6.38672 4.38477 7.31445 3.35938L18.0078-8.42773L17.041-9.4043L6.42578 2.27539C6.07422 2.67578 5.74219 2.77344 5.27344 2.30469L4.10156 1.14258C3.63281 0.683594 3.74023 0.341797 4.14062-0.0195312L15.6152-10.8203L14.6387-11.7871L3.04688-0.898438C2.06055 0.0195312 1.98242 0.996094 2.8418 1.86523ZM9.25781-16.3281C8.83789-15.918 8.80859-15.3418 9.04297-14.9512C9.27734-14.5898 9.73633-14.3555 10.3809-14.5215C11.8457-14.8633 13.3691-14.9219 14.7949-13.9844L14.209-12.5293C13.8672-11.6992 14.043-11.1133 14.5801-10.5664L16.875-8.25195C17.3633-7.76367 17.7734-7.74414 18.3398-7.8418L19.4043-8.03711L20.0684-7.36328L20.0293-6.80664C19.9902-6.30859 20.1172-5.92773 20.6055-5.44922L21.3672-4.70703C21.8457-4.22852 22.4609-4.19922 22.9297-4.66797L25.8398-7.58789C26.3086-8.05664 26.2891-8.65234 25.8105-9.13086L25.0391-9.89258C24.5605-10.3711 24.1895-10.5273 23.7109-10.4883L23.1348-10.4395L22.4902-11.0742L22.7344-12.1973C22.8613-12.7637 22.7051-13.2031 22.1191-13.7891L19.9219-15.9766C16.582-19.2969 12.1484-19.2188 9.25781-16.3281ZM10.752-15.957C13.1836-17.7344 16.4746-17.4316 18.7012-15.2051L21.1328-12.793C21.3672-12.5586 21.4062-12.373 21.3379-12.0312L21.0156-10.5469L22.5195-9.0625L23.5059-9.12109C23.7598-9.13086 23.8379-9.11133 24.0332-8.91602L24.6094-8.33984L22.168-5.89844L21.5918-6.47461C21.3965-6.66992 21.3672-6.74805 21.377-7.01172L21.4453-7.98828L19.9512-9.47266L18.4277-9.21875C18.1055-9.15039 17.959-9.17969 17.7148-9.41406L15.7129-11.416C15.459-11.6504 15.4297-11.8164 15.5859-12.1875L16.4648-14.2773C14.9023-15.7324 12.8711-16.3574 10.8398-15.7617C10.6836-15.7227 10.625-15.8496 10.752-15.957Z"/>
  </g>
  <text style="stroke:none;fill:black;font-family:sans-serif;font-size:13;font-weight:bold;" transform="matrix(1 0 0 1 1289 1953)">Exporting</text>
  <text style="stroke:none;fill:black;font-family:sans-serif;font-size:13;" transform="matrix(1 0 0 1 1289 1971)">Symbols should be outlined when exporting to ensure the</text>
  <text style="stroke:none;fill:black;font-family:sans-serif;font-size:13;" transform="matrix(1 0 0 1 1289 1989)">design is preserved when submitting to Xcode.</text>
  <text id="template-version" style="stroke:none;fill:black;font-family:sans-serif;font-size:13;text-anchor:end;" transform="matrix(1 0 0 1 3036 1933)">Template v.4.0</text>
  <text style="stroke:none;fill:black;font-family:sans-serif;font-size:13;text-anchor:end;" transform="matrix(1 0 0 1 3036 1951)">Requires Xcode 14 or greater</text>
  <text id="descriptive-name" style="stroke:none;fill:black;font-family:sans-serif;font-size:13;text-anchor:end;" transform="matrix(1 0 0 1 3036 1969)">Generated from case.garnish.fill</text>
  <text style="stroke:none;fill:black;font-family:sans-serif;font-size:13;text-anchor:end;" transform="matrix(1 0 0 1 3036 1987)">Typeset at 100 points</text>
  <text style="stroke:none;fill:black;font-family:sans-serif;font-size:13;" transform="matrix(1 0 0 1 263 726)">Small</text>
  <text style="stroke:none;fill:black;font-family:sans-serif;font-size:13;" transform="matrix(1 0 0 1 263 1156)">Medium</text>
  <text style="stroke:none;fill:black;font-family:sans-serif;font-size:13;" transform="matrix(1 0 0 1 263 1586)">Large</text>
 </g>
 <g id="Guides">
  <g id="H-reference" style="fill:#27AAE1;stroke:none;" transform="matrix(1 0 0 1 339 696)">
   <path d="M0.993654 0L3.63775 0L29.3281-67.1323L30.0303-67.1323L30.0303-70.459L28.1226-70.459ZM11.6885-24.4799L46.9815-24.4799L46.2315-26.7285L12.4385-26.7285ZM55.1196 0L57.7637 0L30.6382-70.459L29.4326-70.459L29.4326-67.1323Z"/>
  </g>
  <line id="Baseline-S" style="fill:none;stroke:#27AAE1;opacity:1;stroke-width:0.5;" x1="263" x2="3036" y1="696" y2="696"/>
  <line id="Capline-S" style="fill:none;stroke:#27AAE1;opacity:1;stroke-width:0.5;" x1="263" x2="3036" y1="625.541" y2="625.541"/>
  <g id="H-reference" style="fill:#27AAE1;stroke:none;" transform="matrix(1 0 0 1 339 1126)">
   <path d="M0.993654 0L3.63775 0L29.3281-67.1323L30.0303-67.1323L30.0303-70.459L28.1226-70.459ZM11.6885-24.4799L46.9815-24.4799L46.2315-26.7285L12.4385-26.7285ZM55.1196 0L57.7637 0L30.6382-70.459L29.4326-70.459L29.4326-67.1323Z"/>
  </g>
  <line id="Baseline-M" style="fill:none;stroke:#27AAE1;opacity:1;stroke-width:0.5;" x1="263" x2="3036" y1="1126" y2="1126"/>
  <line id="Capline-M" style="fill:none;stroke:#27AAE1;opacity:1;stroke-width:0.5;" x1="263" x2="3036" y1="1055.54" y2="1055.54"/>
  <g id="H-reference" style="fill:#27AAE1;stroke:none;" transform="matrix(1 0 0 1 339 1556)">
   <path d="M0.993654 0L3.63775 0L29.3281-67.1323L30.0303-67.1323L30.0303-70.459L28.1226-70.459ZM11.6885-24.4799L46.9815-24.4799L46.2315-26.7285L12.4385-26.7285ZM55.1196 0L57.7637 0L30.6382-70.459L29.4326-70.459L29.4326-67.1323Z"/>
  </g>
  <line id="Baseline-L" style="fill:none;stroke:#27AAE1;opacity:1;stroke-width:0.5;" x1="263" x2="3036" y1="1556" y2="1556"/>
  <line id="Capline-L" style="fill:none;stroke:#27AAE1;opacity:1;stroke-width:0.5;" x1="263" x2="3036" y1="1485.54" y2="1485.54"/>
  <line id="left-margin-Ultralight-S" style="fill:none;stroke:#00AEEF;stroke-width:0.5;opacity:1.0;" x1="502.811" x2="502.811" y1="600.785" y2="720.121"/>
  <line id="right-margin-Ultralight-S" style="fill:none;stroke:#00AEEF;stroke-width:0.5;opacity:1.0;" x1="616.611" x2="616.611" y1="600.785" y2="720.121"/>
  <line id="left-margin-Regular-S" style="fill:none;stroke:#00AEEF;stroke-width:0.5;opacity:1.0;" x1="1389.19" x2="1389.19" y1="600.785" y2="720.121"/>
  <line id="right-margin-Regular-S" style="fill:none;stroke:#00AEEF;stroke-width:0.5;opacity:1.0;" x1="1510.49" x2="1510.49" y1="600.785" y2="720.121"/>
  <line id="left-margin-Black-S" style="fill:none;stroke:#00AEEF;stroke-width:0.5;opacity:1.0;" x1="2869.7" x2="2869.7" y1="600.785" y2="720.121"/>
  <line id="right-margin-Black-S" style="fill:none;stroke:#00AEEF;stroke-width:0.5;opacity:1.0;" x1="2997.1" x2="2997.1" y1="600.785" y2="720.121"/>
 </g>
 <g id="Symbols">
  <g id="Black-S" transform="matrix(1 0 0 1 2869.7 696)">
   <path d="M55.71 12.9C33.71 12.9 15.91-5 15.91-26.9C15.91-35.9 18.81-44.4 24.31-51.4C24.91-52.2 26.11-52.4 26.91-51.7C27.71-51.1 27.91-49.9 27.21-49.1C22.21-42.7 19.61-35 19.61-26.9C19.51-7 35.71 9.2 55.71 9.2C63.91 9.2 71.51 6.5 78.01 1.5C78.81 0.9 80.01 1 80.61 1.8C81.21 2.6 81.11 3.8 80.31 4.4C73.11 10 64.61 12.9 55.71 12.9ZM57.51-15.9L57.51 2.7C57.51 4.3 58.91 5.5 60.41 5.3C65.71 4.5 70.61 2.4 74.81-0.6C76.11-1.5 76.21-3.4 75.11-4.5C72.01-7.6 66.11-13.5 61.91-17.7C60.31-19.3 57.51-18.2 57.51-15.9ZM94.21-14.6L82.51-26.2C85.21-30.1 84.81-35.5 81.31-38.9C77.81-42.4 72.51-42.8 68.61-40.1L68.31-40.4C71.01-44.3 70.61-49.7 67.11-53.1C63.61-56.6 58.31-57 54.41-54.3L41.01-67.7C44.21-66.5 47.71-65.6 50.41-65.6C55.41-65.6 59.51-69 59.51-73.2C59.51-77.4 55.41-80.8 50.41-80.8C44.21-80.8 32.51-75.1 32.01-74.8C32.01-74.8 32.01-74.8 31.91-74.8C31.81-74.7 31.71-74.7 31.61-74.6C31.61-74.6 31.51-74.6 31.51-74.5C31.51-74.5 31.51-74.5 31.51-74.5C31.41-74.4 31.31-74.3 31.21-74.2C31.21-74.2 31.21-74.2 31.21-74.1C31.11-74 31.11-73.9 31.01-73.7C31.01-73.7 31.01-73.6 31.01-73.6C31.01-73.5 30.91-73.3 30.91-73.2C30.91-73.2 30.91-73.2 30.91-73.2C30.91-73.2 30.91-73.2 30.91-73.2C30.91-73 30.91-72.9 31.01-72.7C31.01-72.7 31.01-72.6 31.01-72.6C31.01-72.5 31.11-72.4 31.21-72.3C31.21-72.3 31.21-72.2 31.21-72.2C31.31-72.1 31.41-72 31.51-71.9L51.71-51.7C49.01-47.8 49.41-42.4 52.91-39C56.41-35.5 61.71-35.1 65.61-37.8L65.91-37.5C63.21-33.6 63.61-28.2 67.11-24.8C70.61-21.3 75.91-20.9 79.81-23.6L91.51-12C91.91-11.6 92.31-11.5 92.81-11.5C93.31-11.5 93.81-11.7 94.11-12C94.91-12.7 94.91-13.9 94.21-14.6ZM50.41-77.1C53.31-77.1 55.81-75.3 55.81-73.2C55.81-71.1 53.31-69.3 50.41-69.3C47.01-69.3 41.31-71.4 37.31-73.2C41.41-75 47.21-77.1 50.41-77.1ZM101.61-73.5C92.81-82.3 78.91-83.4 73.21-83.5L97.51-59.2C98.21-58.5 98.21-57.3 97.51-56.6C97.11-56.2 96.71-56.1 96.21-56.1C95.71-56.1 95.21-56.3 94.91-56.6L70.51-80.9C70.61-75.2 71.71-61.3 80.51-52.5C88.91-44.1 101.91-42.7 108.11-42.5C110.11-42.4 111.71-44 111.61-46C111.41-52.1 110.01-65.1 101.61-73.5ZM46.41-33.2C42.31-37.3 36.31-43.3 33.21-46.4C32.11-47.5 30.31-47.4 29.31-46.1C26.31-41.9 24.21-37 23.41-31.7C23.21-30.2 24.41-28.8 26.01-28.8L44.61-28.8C46.91-28.8 48.11-31.6 46.41-33.2ZM23.51-22.1C24.31-16.7 26.41-11.8 29.51-7.6C30.41-6.4 32.31-6.3 33.41-7.4L46.81-20.8C48.41-22.4 47.31-25.2 45.01-25.2L26.11-25.2C24.51-25.1 23.31-23.7 23.51-22.1ZM49.41-18.1L36.11-4.7C35.01-3.6 35.11-1.8 36.31-0.8C40.51 2.3 45.41 4.4 50.81 5.2C52.41 5.4 53.81 4.2 53.81 2.7L53.81-16.2C53.81-18.5 51.01-19.7 49.41-18.1Z"/>
  </g>
  <g id="Regular-S" transform="matrix(1 0 0 1 1389.19 696)">
   <path d="M53.1 9.8C32.6 9.8 15.8-6.9 15.8-27.5C15.8-35.9 18.5-43.8 23.7-50.4C24.3-51.2 25.4-51.3 26.2-50.7C27-50.1 27.1-49 26.5-48.2C21.8-42.2 19.4-35 19.4-27.4C19.4-8.8 34.5 6.4 53.2 6.4C60.8 6.4 68 3.9 74-0.8C74.8-1.4 75.9-1.3 76.5-0.5C77.1 0.3 77 1.4 76.2 2C69.5 7.1 61.5 9.8 53.1 9.8ZM54.9-17.1L54.9 0.2C54.9 1.7 56.2 2.8 57.6 2.6C62.6 1.9 67.2-0.1 71-2.9C72.2-3.8 72.3-5.5 71.2-6.5C68.4-9.4 62.8-15 59-18.8C57.5-20.4 54.9-19.3 54.9-17.1ZM89.1-15.9L78.3-26.8C80.8-30.5 80.4-35.5 77.2-38.7C74-41.9 68.9-42.3 65.3-39.8L65-40.1C67.5-43.8 67.1-48.8 63.9-52C60.7-55.2 55.6-55.6 52-53.1L39.4-65.7C42.4-64.6 45.7-63.7 48.2-63.7C52.9-63.7 56.7-66.9 56.7-70.8C56.7-74.7 52.9-77.9 48.2-77.9C42.4-77.9 31.5-72.6 31-72.3C31-72.3 31-72.3 30.9-72.3C30.8-72.2 30.7-72.2 30.6-72.1C30.6-72.1 30.5-72.1 30.5-72C30.5-72 30.5-72 30.5-72C30.4-71.9 30.3-71.8 30.3-71.7C30.3-71.7 30.3-71.7 30.3-71.6C30.2-71.5 30.2-71.4 30.2-71.3C30.2-71.3 30.2-71.2 30.2-71.2C30.2-71.1 30.1-70.9 30.1-70.8C30.1-70.8 30.1-70.8 30.1-70.8C30.1-70.8 30.1-70.8 30.1-70.8C30.1-70.7 30.1-70.5 30.2-70.4C30.2-70.4 30.2-70.3 30.2-70.3C30.2-70.2 30.3-70.1 30.3-70C30.3-70 30.3-69.9 30.3-69.9C30.4-69.8 30.4-69.7 30.5-69.6L49.4-50.7C47-47 47.4-42 50.6-38.7C53.8-35.5 58.9-35.1 62.5-37.6L62.7-37.4C60.2-33.7 60.6-28.7 63.8-25.5C67-22.3 72.1-21.9 75.7-24.4L86.6-13.5C86.9-13.2 87.4-13 87.8-13C88.2-13 88.7-13.2 89-13.5C89.8-14.1 89.8-15.2 89.1-15.9ZM48.2-74.5C50.9-74.5 53.2-72.8 53.2-70.9C53.2-68.9 50.9-67.3 48.2-67.3C45-67.3 39.7-69.3 36-70.9C39.8-72.4 45.2-74.5 48.2-74.5ZM96.1-71C87.9-79.3 74.8-80.3 69.5-80.4L92.3-57.6C93-56.9 93-55.8 92.3-55.1C92-54.8 91.5-54.6 91.1-54.6C90.7-54.6 90.2-54.8 89.9-55.1L67-77.9C67.1-72.5 68.1-59.5 76.4-51.3C84.2-43.5 96.4-42.1 102.2-41.9C104-41.8 105.5-43.3 105.5-45.2C105.3-51 103.9-63.2 96.1-71ZM44.5-33.3C40.7-37.1 35.1-42.7 32.2-45.6C31.2-46.6 29.4-46.5 28.6-45.4C25.8-41.5 23.8-36.9 23.1-31.9C22.9-30.5 24-29.2 25.5-29.2L42.9-29.2C45-29.2 46-31.8 44.5-33.3ZM23.1-22.9C23.9-17.9 25.8-13.2 28.8-9.3C29.7-8.1 31.4-8 32.4-9.1L44.9-21.6C46.4-23.1 45.3-25.7 43.2-25.7L25.5-25.7C24-25.7 22.9-24.4 23.1-22.9ZM47.3-19.2L34.8-6.7C33.8-5.7 33.9-4 35-3.1C38.9-0.2 43.5 1.8 48.6 2.5C50.1 2.7 51.4 1.6 51.4 0.1L51.4-17.6C51.4-19.6 48.8-20.7 47.3-19.2Z"/>
  </g>
  <g id="Ultralight-S" transform="matrix(1 0 0 1 502.811 696)">
   <path d="M50.004 6.3C31.104 6.3 15.804-9 15.804-27.9C15.804-35.6 18.304-42.9 23.004-49C23.504-49.7 24.604-49.8 25.304-49.3C26.004-48.8 26.104-47.7 25.604-47C21.204-41.5 19.004-34.9 19.004-27.9C19.004-10.8 32.904 3.1 50.004 3.1C57.004 3.1 63.604 0.8 69.104-3.5C69.804-4 70.804-3.9 71.404-3.2C71.904-2.5 71.804-1.5 71.104-0.9C65.004 3.8 57.704 6.3 50.004 6.3ZM51.604-18.4L51.604-2.5C51.604-1.2 52.804-0.1 54.104-0.3C58.704-1 62.904-2.8 66.404-5.4C67.504-6.2 67.604-7.8 66.604-8.7C64.004-11.3 58.904-16.5 55.404-20C54.004-21.4 51.604-20.4 51.604-18.4ZM83.104-17.3L73.104-27.3C75.404-30.7 75.104-35.3 72.104-38.2C69.104-41.2 64.504-41.5 61.204-39.2L61.004-39.4C63.304-42.8 63.004-47.4 60.004-50.3C57.004-53.3 52.404-53.6 49.104-51.3L37.404-63C40.204-62 43.204-61.2 45.504-61.2C49.804-61.2 53.304-64.1 53.304-67.8C53.304-71.5 49.804-74.4 45.504-74.4C40.204-74.4 30.204-69.5 29.704-69.3C29.704-69.3 29.704-69.3 29.704-69.3C29.604-69.2 29.504-69.2 29.404-69.1C29.404-69.1 29.304-69.1 29.304-69C29.304-69 29.304-69 29.304-69C29.204-68.9 29.104-68.8 29.104-68.7C29.104-68.7 29.104-68.7 29.104-68.6C29.004-68.5 29.004-68.4 29.004-68.3C29.004-68.3 29.004-68.2 29.004-68.2C29.004-68.1 28.904-67.9 28.904-67.8C28.904-67.8 28.904-67.8 28.904-67.8C28.904-67.8 28.904-67.8 28.904-67.8C28.904-67.7 28.904-67.5 29.004-67.4C29.004-67.4 29.004-67.3 29.004-67.3C29.004-67.2 29.104-67.1 29.104-67C29.104-67 29.104-67 29.104-66.9C29.204-66.8 29.204-66.7 29.304-66.6L46.704-49.2C44.404-45.8 44.704-41.2 47.704-38.3C50.704-35.3 55.304-35 58.604-37.3L58.804-37.1C56.504-33.7 56.804-29.1 59.804-26.2C62.804-23.2 67.404-22.9 70.704-25.2L80.704-15.2C81.004-14.9 81.404-14.7 81.804-14.7C82.204-14.7 82.604-14.9 82.904-15.2C83.704-15.7 83.704-16.7 83.104-17.3ZM45.504-71C48.004-71 50.104-69.5 50.104-67.7C50.104-65.9 48.004-64.4 45.504-64.4C42.604-64.4 37.704-66.2 34.304-67.7C37.804-69.2 42.704-71 45.504-71ZM89.404-67.9C81.804-75.5 69.904-76.4 65.004-76.5L85.904-55.6C86.504-55 86.504-54 85.904-53.3C85.604-53 85.204-52.8 84.804-52.8C84.404-52.8 84.004-53 83.704-53.3L62.704-74.2C62.804-69.3 63.704-57.3 71.304-49.8C78.504-42.6 89.704-41.4 95.004-41.2C96.704-41.2 98.104-42.5 98.004-44.2C97.904-49.5 96.604-60.7 89.404-67.9ZM42.104-33.3C38.604-36.8 33.404-42 30.804-44.6C29.904-45.5 28.304-45.5 27.504-44.4C24.904-40.8 23.104-36.6 22.404-32C22.204-30.7 23.304-29.5 24.604-29.5L40.504-29.5C42.504-29.5 43.504-31.9 42.104-33.3ZM22.404-23.8C23.104-19.2 24.904-14.9 27.604-11.3C28.404-10.2 30.004-10.2 30.904-11.1L42.404-22.6C43.804-24 42.804-26.4 40.804-26.4L24.604-26.4C23.204-26.3 22.204-25.1 22.404-23.8ZM44.604-20.3L33.204-8.8C32.304-7.9 32.304-6.3 33.404-5.5C37.004-2.8 41.204-1 45.804-0.3C47.104-0.1 48.404-1.1 48.404-2.5L48.404-18.7C48.404-20.7 46.004-21.7 44.604-20.3Z"/>
  </g>
 </g>
</svg>
