<?xml version="1.0" encoding="UTF-8"?>
<!--Generator: Apple Native CoreSVG 175.5-->
<!DOCTYPE svg
PUBLIC "-//W3C//DTD SVG 1.1//EN"
       "http://www.w3.org/Graphics/SVG/1.1/DTD/svg11.dtd">
<svg version="1.1" xmlns="http://www.w3.org/2000/svg" xmlns:xlink="http://www.w3.org/1999/xlink" width="3300" height="2200">
 <!--glyph: "", point size: 100.0, font version: "18.0d12e2", template writer version: "101"-->
 <style>.monochrome-0 {fill:#000000}

.SFSymbolsPreview000000 {fill:#000000;opacity:1.0}
</style>
 <g id="Notes">
  <rect height="2200" id="artboard" style="fill:white;opacity:1" width="3300" x="0" y="0"/>
  <line style="fill:none;stroke:black;opacity:1;stroke-width:0.5;" x1="263" x2="3036" y1="292" y2="292"/>
  <text style="stroke:none;fill:black;font-family:sans-serif;font-size:13;font-weight:bold;" transform="matrix(1 0 0 1 263 322)">Weight/Scale Variations</text>
  <text style="stroke:none;fill:black;font-family:sans-serif;font-size:13;text-anchor:middle;" transform="matrix(1 0 0 1 559.711 322)">Ultralight</text>
  <text style="stroke:none;fill:black;font-family:sans-serif;font-size:13;text-anchor:middle;" transform="matrix(1 0 0 1 856.422 322)">Thin</text>
  <text style="stroke:none;fill:black;font-family:sans-serif;font-size:13;text-anchor:middle;" transform="matrix(1 0 0 1 1153.13 322)">Light</text>
  <text style="stroke:none;fill:black;font-family:sans-serif;font-size:13;text-anchor:middle;" transform="matrix(1 0 0 1 1449.84 322)">Regular</text>
  <text style="stroke:none;fill:black;font-family:sans-serif;font-size:13;text-anchor:middle;" transform="matrix(1 0 0 1 1746.56 322)">Medium</text>
  <text style="stroke:none;fill:black;font-family:sans-serif;font-size:13;text-anchor:middle;" transform="matrix(1 0 0 1 2043.27 322)">Semibold</text>
  <text style="stroke:none;fill:black;font-family:sans-serif;font-size:13;text-anchor:middle;" transform="matrix(1 0 0 1 2339.98 322)">Bold</text>
  <text style="stroke:none;fill:black;font-family:sans-serif;font-size:13;text-anchor:middle;" transform="matrix(1 0 0 1 2636.69 322)">Heavy</text>
  <text style="stroke:none;fill:black;font-family:sans-serif;font-size:13;text-anchor:middle;" transform="matrix(1 0 0 1 2933.4 322)">Black</text>
  <line style="fill:none;stroke:black;opacity:1;stroke-width:0.5;" x1="263" x2="3036" y1="1903" y2="1903"/>
  <g transform="matrix(1 0 0 1 263 1933)">
   <path d="M9.24805 0.830078C13.5547 0.830078 17.1387-2.74414 17.1387-7.05078C17.1387-11.3574 13.5449-14.9316 9.23828-14.9316C4.94141-14.9316 1.36719-11.3574 1.36719-7.05078C1.36719-2.74414 4.95117 0.830078 9.24805 0.830078ZM9.24805-0.654297C5.70312-0.654297 2.87109-3.49609 2.87109-7.05078C2.87109-10.6055 5.69336-13.4473 9.23828-13.4473C12.793-13.4473 15.6445-10.6055 15.6445-7.05078C15.6445-3.49609 12.8027-0.654297 9.24805-0.654297ZM5.6543-7.05078C5.6543-6.62109 5.95703-6.32812 6.40625-6.32812L8.50586-6.32812L8.50586-4.20898C8.50586-3.76953 8.79883-3.4668 9.22852-3.4668C9.67773-3.4668 9.9707-3.76953 9.9707-4.20898L9.9707-6.32812L12.0898-6.32812C12.5293-6.32812 12.832-6.62109 12.832-7.05078C12.832-7.49023 12.5293-7.79297 12.0898-7.79297L9.9707-7.79297L9.9707-9.90234C9.9707-10.3516 9.67773-10.6543 9.22852-10.6543C8.79883-10.6543 8.50586-10.3516 8.50586-9.90234L8.50586-7.79297L6.40625-7.79297C5.95703-7.79297 5.6543-7.49023 5.6543-7.05078Z"/>
  </g>
  <g transform="matrix(1 0 0 1 281.867 1933)">
   <path d="M11.709 2.91016C17.1582 2.91016 21.6699-1.61133 21.6699-7.05078C21.6699-12.5 17.1484-17.0117 11.6992-17.0117C6.25977-17.0117 1.74805-12.5 1.74805-7.05078C1.74805-1.61133 6.26953 2.91016 11.709 2.91016ZM11.709 1.25C7.09961 1.25 3.41797-2.44141 3.41797-7.05078C3.41797-11.6602 7.08984-15.3516 11.6992-15.3516C16.3086-15.3516 20.0098-11.6602 20.0098-7.05078C20.0098-2.44141 16.3184 1.25 11.709 1.25ZM7.17773-7.05078C7.17773-6.57227 7.50977-6.25 8.00781-6.25L10.8789-6.25L10.8789-3.36914C10.8789-2.88086 11.2109-2.53906 11.6895-2.53906C12.1777-2.53906 12.5195-2.87109 12.5195-3.36914L12.5195-6.25L15.4004-6.25C15.8887-6.25 16.2305-6.57227 16.2305-7.05078C16.2305-7.53906 15.8887-7.88086 15.4004-7.88086L12.5195-7.88086L12.5195-10.752C12.5195-11.25 12.1777-11.5918 11.6895-11.5918C11.2109-11.5918 10.8789-11.25 10.8789-10.752L10.8789-7.88086L8.00781-7.88086C7.50977-7.88086 7.17773-7.53906 7.17773-7.05078Z"/>
  </g>
  <g transform="matrix(1 0 0 1 305.646 1933)">
   <path d="M14.9707 5.66406C21.9336 5.66406 27.6953-0.0976562 27.6953-7.05078C27.6953-14.0137 21.9238-19.7754 14.9609-19.7754C8.00781-19.7754 2.25586-14.0137 2.25586-7.05078C2.25586-0.0976562 8.01758 5.66406 14.9707 5.66406ZM14.9707 3.84766C8.93555 3.84766 4.08203-1.01562 4.08203-7.05078C4.08203-13.0957 8.92578-17.9492 14.9609-17.9492C21.0059-17.9492 25.8691-13.0957 25.8691-7.05078C25.8691-1.01562 21.0156 3.84766 14.9707 3.84766ZM9.19922-7.05078C9.19922-6.5332 9.57031-6.17188 10.1172-6.17188L14.0625-6.17188L14.0625-2.2168C14.0625-1.67969 14.4336-1.29883 14.9512-1.29883C15.4883-1.29883 15.8594-1.66992 15.8594-2.2168L15.8594-6.17188L19.8145-6.17188C20.3516-6.17188 20.7324-6.5332 20.7324-7.05078C20.7324-7.59766 20.3613-7.96875 19.8145-7.96875L15.8594-7.96875L15.8594-11.9141C15.8594-12.4609 15.4883-12.8418 14.9512-12.8418C14.4336-12.8418 14.0625-12.4609 14.0625-11.9141L14.0625-7.96875L10.1172-7.96875C9.57031-7.96875 9.19922-7.59766 9.19922-7.05078Z"/>
  </g>
  <text style="stroke:none;fill:black;font-family:sans-serif;font-size:13;font-weight:bold;" transform="matrix(1 0 0 1 263 1953)">Design Variations</text>
  <text style="stroke:none;fill:black;font-family:sans-serif;font-size:13;" transform="matrix(1 0 0 1 263 1971)">Symbols are supported in up to nine weights and three scales.</text>
  <text style="stroke:none;fill:black;font-family:sans-serif;font-size:13;" transform="matrix(1 0 0 1 263 1989)">For optimal layout with text and other symbols, vertically align</text>
  <text style="stroke:none;fill:black;font-family:sans-serif;font-size:13;" transform="matrix(1 0 0 1 263 2007)">symbols with the adjacent text.</text>
  <line style="fill:none;stroke:#00AEEF;stroke-width:0.5;opacity:1.0;" x1="776" x2="776" y1="1919" y2="1933"/>
  <g transform="matrix(1 0 0 1 776 1933)">
   <path d="M3.31055 0.15625C3.82812 0.15625 4.08203-0.0390625 4.26758-0.585938L5.52734-4.0332L11.2891-4.0332L12.5488-0.585938C12.7344-0.0390625 12.9883 0.15625 13.4961 0.15625C14.0137 0.15625 14.3457-0.15625 14.3457-0.644531C14.3457-0.810547 14.3164-0.966797 14.2383-1.17188L9.6582-13.3691C9.43359-13.9648 9.0332-14.2676 8.4082-14.2676C7.80273-14.2676 7.39258-13.9746 7.17773-13.3789L2.59766-1.16211C2.51953-0.957031 2.49023-0.800781 2.49023-0.634766C2.49023-0.146484 2.80273 0.15625 3.31055 0.15625ZM6.00586-5.51758L8.37891-12.0898L8.42773-12.0898L10.8008-5.51758Z"/>
  </g>
  <line style="fill:none;stroke:#00AEEF;stroke-width:0.5;opacity:1.0;" x1="793.197" x2="793.197" y1="1919" y2="1933"/>
  <text style="stroke:none;fill:black;font-family:sans-serif;font-size:13;font-weight:bold;" transform="matrix(1 0 0 1 776 1953)">Margins</text>
  <text style="stroke:none;fill:black;font-family:sans-serif;font-size:13;" transform="matrix(1 0 0 1 776 1971)">Leading and trailing margins on the left and right side of each symbol</text>
  <text style="stroke:none;fill:black;font-family:sans-serif;font-size:13;" transform="matrix(1 0 0 1 776 1989)">can be adjusted by modifying the x-location of the margin guidelines.</text>
  <text style="stroke:none;fill:black;font-family:sans-serif;font-size:13;" transform="matrix(1 0 0 1 776 2007)">Modifications are automatically applied proportionally to all</text>
  <text style="stroke:none;fill:black;font-family:sans-serif;font-size:13;" transform="matrix(1 0 0 1 776 2025)">scales and weights.</text>
  <g transform="matrix(1 0 0 1 1289 1933)">
   <path d="M2.8418 1.86523L4.54102 3.57422C5.40039 4.44336 6.38672 4.38477 7.31445 3.35938L18.0078-8.42773L17.041-9.4043L6.42578 2.27539C6.07422 2.67578 5.74219 2.77344 5.27344 2.30469L4.10156 1.14258C3.63281 0.683594 3.74023 0.341797 4.14062-0.0195312L15.6152-10.8203L14.6387-11.7871L3.04688-0.898438C2.06055 0.0195312 1.98242 0.996094 2.8418 1.86523ZM9.25781-16.3281C8.83789-15.918 8.80859-15.3418 9.04297-14.9512C9.27734-14.5898 9.73633-14.3555 10.3809-14.5215C11.8457-14.8633 13.3691-14.9219 14.7949-13.9844L14.209-12.5293C13.8672-11.6992 14.043-11.1133 14.5801-10.5664L16.875-8.25195C17.3633-7.76367 17.7734-7.74414 18.3398-7.8418L19.4043-8.03711L20.0684-7.36328L20.0293-6.80664C19.9902-6.30859 20.1172-5.92773 20.6055-5.44922L21.3672-4.70703C21.8457-4.22852 22.4609-4.19922 22.9297-4.66797L25.8398-7.58789C26.3086-8.05664 26.2891-8.65234 25.8105-9.13086L25.0391-9.89258C24.5605-10.3711 24.1895-10.5273 23.7109-10.4883L23.1348-10.4395L22.4902-11.0742L22.7344-12.1973C22.8613-12.7637 22.7051-13.2031 22.1191-13.7891L19.9219-15.9766C16.582-19.2969 12.1484-19.2188 9.25781-16.3281ZM10.752-15.957C13.1836-17.7344 16.4746-17.4316 18.7012-15.2051L21.1328-12.793C21.3672-12.5586 21.4062-12.373 21.3379-12.0312L21.0156-10.5469L22.5195-9.0625L23.5059-9.12109C23.7598-9.13086 23.8379-9.11133 24.0332-8.91602L24.6094-8.33984L22.168-5.89844L21.5918-6.47461C21.3965-6.66992 21.3672-6.74805 21.377-7.01172L21.4453-7.98828L19.9512-9.47266L18.4277-9.21875C18.1055-9.15039 17.959-9.17969 17.7148-9.41406L15.7129-11.416C15.459-11.6504 15.4297-11.8164 15.5859-12.1875L16.4648-14.2773C14.9023-15.7324 12.8711-16.3574 10.8398-15.7617C10.6836-15.7227 10.625-15.8496 10.752-15.957Z"/>
  </g>
  <text style="stroke:none;fill:black;font-family:sans-serif;font-size:13;font-weight:bold;" transform="matrix(1 0 0 1 1289 1953)">Exporting</text>
  <text style="stroke:none;fill:black;font-family:sans-serif;font-size:13;" transform="matrix(1 0 0 1 1289 1971)">Symbols should be outlined when exporting to ensure the</text>
  <text style="stroke:none;fill:black;font-family:sans-serif;font-size:13;" transform="matrix(1 0 0 1 1289 1989)">design is preserved when submitting to Xcode.</text>
  <text id="template-version" style="stroke:none;fill:black;font-family:sans-serif;font-size:13;text-anchor:end;" transform="matrix(1 0 0 1 3036 1933)">Template v.4.0</text>
  <text style="stroke:none;fill:black;font-family:sans-serif;font-size:13;text-anchor:end;" transform="matrix(1 0 0 1 3036 1951)">Requires Xcode 14 or greater</text>
  <text id="descriptive-name" style="stroke:none;fill:black;font-family:sans-serif;font-size:13;text-anchor:end;" transform="matrix(1 0 0 1 3036 1969)">Generated from case.bitters</text>
  <text style="stroke:none;fill:black;font-family:sans-serif;font-size:13;text-anchor:end;" transform="matrix(1 0 0 1 3036 1987)">Typeset at 100 points</text>
  <text style="stroke:none;fill:black;font-family:sans-serif;font-size:13;" transform="matrix(1 0 0 1 263 726)">Small</text>
  <text style="stroke:none;fill:black;font-family:sans-serif;font-size:13;" transform="matrix(1 0 0 1 263 1156)">Medium</text>
  <text style="stroke:none;fill:black;font-family:sans-serif;font-size:13;" transform="matrix(1 0 0 1 263 1586)">Large</text>
 </g>
 <g id="Guides">
  <g id="H-reference" style="fill:#27AAE1;stroke:none;" transform="matrix(1 0 0 1 339 696)">
   <path d="M0.993654 0L3.63775 0L29.3281-67.1323L30.0303-67.1323L30.0303-70.459L28.1226-70.459ZM11.6885-24.4799L46.9815-24.4799L46.2315-26.7285L12.4385-26.7285ZM55.1196 0L57.7637 0L30.6382-70.459L29.4326-70.459L29.4326-67.1323Z"/>
  </g>
  <line id="Baseline-S" style="fill:none;stroke:#27AAE1;opacity:1;stroke-width:0.5;" x1="263" x2="3036" y1="696" y2="696"/>
  <line id="Capline-S" style="fill:none;stroke:#27AAE1;opacity:1;stroke-width:0.5;" x1="263" x2="3036" y1="625.541" y2="625.541"/>
  <g id="H-reference" style="fill:#27AAE1;stroke:none;" transform="matrix(1 0 0 1 339 1126)">
   <path d="M0.993654 0L3.63775 0L29.3281-67.1323L30.0303-67.1323L30.0303-70.459L28.1226-70.459ZM11.6885-24.4799L46.9815-24.4799L46.2315-26.7285L12.4385-26.7285ZM55.1196 0L57.7637 0L30.6382-70.459L29.4326-70.459L29.4326-67.1323Z"/>
  </g>
  <line id="Baseline-M" style="fill:none;stroke:#27AAE1;opacity:1;stroke-width:0.5;" x1="263" x2="3036" y1="1126" y2="1126"/>
  <line id="Capline-M" style="fill:none;stroke:#27AAE1;opacity:1;stroke-width:0.5;" x1="263" x2="3036" y1="1055.54" y2="1055.54"/>
  <g id="H-reference" style="fill:#27AAE1;stroke:none;" transform="matrix(1 0 0 1 339 1556)">
   <path d="M0.993654 0L3.63775 0L29.3281-67.1323L30.0303-67.1323L30.0303-70.459L28.1226-70.459ZM11.6885-24.4799L46.9815-24.4799L46.2315-26.7285L12.4385-26.7285ZM55.1196 0L57.7637 0L30.6382-70.459L29.4326-70.459L29.4326-67.1323Z"/>
  </g>
  <line id="Baseline-L" style="fill:none;stroke:#27AAE1;opacity:1;stroke-width:0.5;" x1="263" x2="3036" y1="1556" y2="1556"/>
  <line id="Capline-L" style="fill:none;stroke:#27AAE1;opacity:1;stroke-width:0.5;" x1="263" x2="3036" y1="1485.54" y2="1485.54"/>
  <line id="left-margin-Ultralight-S" style="fill:none;stroke:#00AEEF;stroke-width:0.5;opacity:1.0;" x1="516.811" x2="516.811" y1="600.785" y2="720.121"/>
  <line id="right-margin-Ultralight-S" style="fill:none;stroke:#00AEEF;stroke-width:0.5;opacity:1.0;" x1="602.611" x2="602.611" y1="600.785" y2="720.121"/>
  <line id="left-margin-Regular-S" style="fill:none;stroke:#00AEEF;stroke-width:0.5;opacity:1.0;" x1="1403.19" x2="1403.19" y1="600.785" y2="720.121"/>
  <line id="right-margin-Regular-S" style="fill:none;stroke:#00AEEF;stroke-width:0.5;opacity:1.0;" x1="1496.49" x2="1496.49" y1="600.785" y2="720.121"/>
  <line id="left-margin-Black-S" style="fill:none;stroke:#00AEEF;stroke-width:0.5;opacity:1.0;" x1="2883.7" x2="2883.7" y1="600.785" y2="720.121"/>
  <line id="right-margin-Black-S" style="fill:none;stroke:#00AEEF;stroke-width:0.5;opacity:1.0;" x1="2983.1" x2="2983.1" y1="600.785" y2="720.121"/>
 </g>
 <g id="Symbols">
  <g id="Black-S" transform="matrix(1 0 0 1 2883.7 696)">
   <path class="monochrome-0 SFSymbolsPreview000000" d="M37.81-57.4L26.21-57.4L25.31-46.6L18.51-46.6L18.51 0.5C18.51 2.7 20.31 4.5 22.51 4.5L41.41 4.5C43.61 4.5 45.41 2.7 45.41 0.5L45.41-46.6L38.61-46.6L37.81-57.4ZM79.31-13.6L75.31-18.2C73.91-19.8 72.81-21.7 72.11-23.7C71.41-25.7 71.01-27.7 71.01-29.8L71.01-45L71.01-53.3L71.01-56.8C71.01-57.4 70.51-57.9 69.91-57.9L68.21-57.9L67.41-67.4C67.41-67.9 66.91-68.3 66.41-68.3C65.91-68.3 65.41-67.9 65.41-67.4L64.61-57.9L62.91-57.9C62.31-57.9 61.81-57.4 61.81-56.8L61.81-53.3L61.81-45L61.81-29.9C61.81-27.8 61.41-25.7 60.71-23.8C60.01-21.8 58.91-19.9 57.51-18.3L53.51-13.7C51.71-11.6 51.31-8.6 52.61-6.1L57.31 3.1C57.71 3.9 58.61 4.4 59.51 4.4L73.31 4.4C74.21 4.4 75.11 3.9 75.51 3.1L80.21-6C81.51-8.5 81.11-11.5 79.31-13.6ZM41.81 0.5C41.81 0.7 41.61 0.8 41.51 0.8L22.61 0.8C22.41 0.8 22.31 0.6 22.31 0.5L22.31-42.9L25.41-42.9C27.31-42.9 28.91-44.4 29.11-46.3L29.71-53.7L34.51-53.7L35.11-46.3C35.31-44.4 36.91-42.9 38.81-42.9L41.91-42.9L41.91 0.5ZM76.91-7.7L72.61 0.9L60.31 0.9L56.01-7.7C55.41-8.9 55.61-10.3 56.41-11.3L60.41-15.9C62.11-17.9 63.41-20.1 64.31-22.5C65.21-24.9 65.61-27.4 65.61-29.9L65.61-45L67.41-45L67.41-29.9C67.41-27.4 67.81-24.9 68.71-22.5C69.61-20.1 70.91-17.9 72.61-15.9L76.61-11.3C77.41-10.2 77.51-8.8 76.91-7.7ZM35.91-39.1L28.01-39.1C26.91-39.1 26.11-38.2 26.11-37.2L26.11-9C26.11-7.9 27.01-7.1 28.01-7.1L35.91-7.1C37.01-7.1 37.91-8 37.91-9L37.91-37.1C37.91-38.2 37.01-39.1 35.91-39.1ZM25.61-60.8L38.31-60.8C39.11-60.8 39.71-61.5 39.61-62.3L38.11-72.8C37.91-74.1 36.81-75.1 35.51-75.1L28.31-75.1C27.01-75.1 25.91-74.1 25.71-72.8L24.21-62.3C24.21-61.5 24.81-60.8 25.61-60.8Z"/>
  </g>
  <g id="Regular-S" transform="matrix(1 0 0 1 1403.19 696)">
   <path class="monochrome-0 SFSymbolsPreview000000" d="M35.6-56.3L24.6-56.3L23.8-46.1L17.4-46.1L17.4-1.5C17.4 0.6 19.1 2.3 21.2 2.3L39 2.3C41.1 2.3 42.8 0.6 42.8-1.5L42.8-46.1L36.4-46.1L35.6-56.3ZM74.8-14.9L71.1-19.3C69.8-20.8 68.8-22.6 68.1-24.5C67.4-26.4 67.1-28.3 67.1-30.3L67.1-44.6L67.1-52.4L67.1-55.7C67.1-56.3 66.6-56.7 66.1-56.7L64.5-56.7L63.7-65.7C63.7-66.2 63.2-66.6 62.8-66.6C62.3-66.6 61.9-66.2 61.9-65.7L61.1-56.7L59.5-56.7C58.9-56.7 58.5-56.2 58.5-55.7L58.5-52.4L58.5-44.6L58.5-30.3C58.5-28.3 58.2-26.4 57.5-24.5C56.8-22.6 55.8-20.9 54.5-19.3L50.8-14.9C49.1-12.9 48.7-10 49.9-7.7L54 1C54.4 1.8 55.2 2.3 56.1 2.3L69.2 2.3C70.1 2.3 70.9 1.8 71.3 1L75.7-7.7C76.9-10.1 76.5-12.9 74.8-14.9ZM39.3-1.5C39.3-1.3 39.2-1.2 39-1.2L21.1-1.2C20.9-1.2 20.8-1.3 20.8-1.5L20.8-42.6L23.7-42.6C25.5-42.6 27-44 27.2-45.8L27.8-52.8L32.3-52.8L32.9-45.8C33-44 34.6-42.6 36.4-42.6L39.3-42.6L39.3-1.5ZM72.6-9.3L68.5-1.2L56.8-1.2L52.7-9.3C52.1-10.4 52.3-11.7 53.1-12.7L56.8-17.1C58.4-19 59.6-21.1 60.5-23.4C61.3-25.7 61.7-28 61.7-30.4L61.7-44.7L63.4-44.7L63.4-30.4C63.4-28 63.8-25.7 64.6-23.4C65.4-21.1 66.7-19 68.3-17.1L72-12.7C72.9-11.7 73.1-10.4 72.6-9.3ZM33.8-39L26.4-39C25.4-39 24.6-38.2 24.6-37.2L24.6-10.6C24.6-9.6 25.4-8.8 26.4-8.8L33.8-8.8C34.8-8.8 35.6-9.6 35.6-10.6L35.6-37.2C35.6-38.2 34.8-39 33.8-39ZM24-59.5L36.1-59.5C36.9-59.5 37.4-60.2 37.3-60.9L36-70.8C35.8-72 34.8-73 33.5-73L26.7-73C25.5-73 24.4-72.1 24.2-70.8L22.8-60.9C22.7-60.2 23.3-59.5 24-59.5Z"/>
  </g>
  <g id="Ultralight-S" transform="matrix(1 0 0 1 516.811 696)">
   <path class="monochrome-0 SFSymbolsPreview000000" d="M32.304-54.9L22.004-54.9L21.204-45.3L15.204-45.3L15.204-3.6C15.204-1.6 16.804 0 18.804 0L35.504 0C37.504 0 39.104-1.6 39.104-3.6L39.104-45.3L33.104-45.3L32.304-54.9ZM69.004-16.1L65.504-20.2C64.304-21.6 63.304-23.3 62.704-25.1C62.104-26.8 61.704-28.7 61.704-30.5L61.704-43.9L61.704-51.2L61.704-54.3C61.704-54.8 61.304-55.3 60.704-55.3L59.204-55.3L58.504-63.7C58.504-64.2 58.104-64.5 57.604-64.5C57.104-64.5 56.804-64.1 56.704-63.7L56.004-55.3L54.504-55.3C54.004-55.3 53.504-54.9 53.504-54.3L53.504-51.2L53.504-43.9L53.504-30.5C53.504-28.7 53.204-26.8 52.504-25.1C51.904-23.3 50.904-21.7 49.704-20.2L46.204-16.1C44.604-14.2 44.304-11.5 45.404-9.3L49.504-1.1C49.904-0.4 50.604 0.1 51.504 0.1L63.704 0.1C64.504 0.1 65.304-0.4 65.704-1.1L69.804-9.3C71.004-11.5 70.704-14.2 69.004-16.1ZM35.804-3.6C35.804-3.4 35.704-3.3 35.504-3.3L18.804-3.3C18.604-3.3 18.504-3.4 18.504-3.6L18.504-42L21.204-42C22.904-42 24.304-43.3 24.504-45L25.004-51.6L29.204-51.6L29.704-45C29.804-43.3 31.304-42 33.004-42L35.704-42L35.704-3.6ZM66.904-10.8L63.104-3.2L52.204-3.2L48.404-10.8C47.904-11.8 48.004-13.1 48.804-14L52.304-18.1C53.804-19.8 54.904-21.8 55.704-24C56.504-26.1 56.904-28.3 56.904-30.6L56.904-44L58.504-44L58.504-30.6C58.504-28.4 58.904-26.2 59.704-24C60.504-21.9 61.604-19.9 63.104-18.1L66.604-14C67.304-13.1 67.504-11.8 66.904-10.8ZM30.604-38.6L23.604-38.6C22.704-38.6 21.904-37.8 21.904-36.9L21.904-12C21.904-11.1 22.704-10.3 23.604-10.3L30.604-10.3C31.504-10.3 32.304-11.1 32.304-12L32.304-36.9C32.304-37.9 31.604-38.6 30.604-38.6ZM21.504-57.9L32.804-57.9C33.504-57.9 34.104-58.5 34.004-59.2L32.704-68.5C32.504-69.7 31.604-70.5 30.404-70.5L24.004-70.5C22.804-70.5 21.804-69.6 21.704-68.5L20.404-59.2C20.304-58.5 20.804-57.9 21.504-57.9Z"/>
  </g>
 </g>
</svg>
