<?xml version="1.0" encoding="UTF-8"?>
<!--Generator: Apple Native CoreSVG 175.5-->
<!DOCTYPE svg
PUBLIC "-//W3C//DTD SVG 1.1//EN"
       "http://www.w3.org/Graphics/SVG/1.1/DTD/svg11.dtd">
<svg version="1.1" xmlns="http://www.w3.org/2000/svg" xmlns:xlink="http://www.w3.org/1999/xlink" width="3300" height="2200">
 <!--glyph: "", point size: 100.0, font version: "18.0d12e2", template writer version: "101"-->
 <style>.monochrome-0 {fill:#000000}

.SFSymbolsPreview000000 {fill:#000000;opacity:1.0}
</style>
 <g id="Notes">
  <rect height="2200" id="artboard" style="fill:white;opacity:1" width="3300" x="0" y="0"/>
  <line style="fill:none;stroke:black;opacity:1;stroke-width:0.5;" x1="263" x2="3036" y1="292" y2="292"/>
  <text style="stroke:none;fill:black;font-family:sans-serif;font-size:13;font-weight:bold;" transform="matrix(1 0 0 1 263 322)">Weight/Scale Variations</text>
  <text style="stroke:none;fill:black;font-family:sans-serif;font-size:13;text-anchor:middle;" transform="matrix(1 0 0 1 559.711 322)">Ultralight</text>
  <text style="stroke:none;fill:black;font-family:sans-serif;font-size:13;text-anchor:middle;" transform="matrix(1 0 0 1 856.422 322)">Thin</text>
  <text style="stroke:none;fill:black;font-family:sans-serif;font-size:13;text-anchor:middle;" transform="matrix(1 0 0 1 1153.13 322)">Light</text>
  <text style="stroke:none;fill:black;font-family:sans-serif;font-size:13;text-anchor:middle;" transform="matrix(1 0 0 1 1449.84 322)">Regular</text>
  <text style="stroke:none;fill:black;font-family:sans-serif;font-size:13;text-anchor:middle;" transform="matrix(1 0 0 1 1746.56 322)">Medium</text>
  <text style="stroke:none;fill:black;font-family:sans-serif;font-size:13;text-anchor:middle;" transform="matrix(1 0 0 1 2043.27 322)">Semibold</text>
  <text style="stroke:none;fill:black;font-family:sans-serif;font-size:13;text-anchor:middle;" transform="matrix(1 0 0 1 2339.98 322)">Bold</text>
  <text style="stroke:none;fill:black;font-family:sans-serif;font-size:13;text-anchor:middle;" transform="matrix(1 0 0 1 2636.69 322)">Heavy</text>
  <text style="stroke:none;fill:black;font-family:sans-serif;font-size:13;text-anchor:middle;" transform="matrix(1 0 0 1 2933.4 322)">Black</text>
  <line style="fill:none;stroke:black;opacity:1;stroke-width:0.5;" x1="263" x2="3036" y1="1903" y2="1903"/>
  <g transform="matrix(1 0 0 1 263 1933)">
   <path d="M9.24805 0.830078C13.5547 0.830078 17.1387-2.74414 17.1387-7.05078C17.1387-11.3574 13.5449-14.9316 9.23828-14.9316C4.94141-14.9316 1.36719-11.3574 1.36719-7.05078C1.36719-2.74414 4.95117 0.830078 9.24805 0.830078ZM9.24805-0.654297C5.70312-0.654297 2.87109-3.49609 2.87109-7.05078C2.87109-10.6055 5.69336-13.4473 9.23828-13.4473C12.793-13.4473 15.6445-10.6055 15.6445-7.05078C15.6445-3.49609 12.8027-0.654297 9.24805-0.654297ZM5.6543-7.05078C5.6543-6.62109 5.95703-6.32812 6.40625-6.32812L8.50586-6.32812L8.50586-4.20898C8.50586-3.76953 8.79883-3.4668 9.22852-3.4668C9.67773-3.4668 9.9707-3.76953 9.9707-4.20898L9.9707-6.32812L12.0898-6.32812C12.5293-6.32812 12.832-6.62109 12.832-7.05078C12.832-7.49023 12.5293-7.79297 12.0898-7.79297L9.9707-7.79297L9.9707-9.90234C9.9707-10.3516 9.67773-10.6543 9.22852-10.6543C8.79883-10.6543 8.50586-10.3516 8.50586-9.90234L8.50586-7.79297L6.40625-7.79297C5.95703-7.79297 5.6543-7.49023 5.6543-7.05078Z"/>
  </g>
  <g transform="matrix(1 0 0 1 281.867 1933)">
   <path d="M11.709 2.91016C17.1582 2.91016 21.6699-1.61133 21.6699-7.05078C21.6699-12.5 17.1484-17.0117 11.6992-17.0117C6.25977-17.0117 1.74805-12.5 1.74805-7.05078C1.74805-1.61133 6.26953 2.91016 11.709 2.91016ZM11.709 1.25C7.09961 1.25 3.41797-2.44141 3.41797-7.05078C3.41797-11.6602 7.08984-15.3516 11.6992-15.3516C16.3086-15.3516 20.0098-11.6602 20.0098-7.05078C20.0098-2.44141 16.3184 1.25 11.709 1.25ZM7.17773-7.05078C7.17773-6.57227 7.50977-6.25 8.00781-6.25L10.8789-6.25L10.8789-3.36914C10.8789-2.88086 11.2109-2.53906 11.6895-2.53906C12.1777-2.53906 12.5195-2.87109 12.5195-3.36914L12.5195-6.25L15.4004-6.25C15.8887-6.25 16.2305-6.57227 16.2305-7.05078C16.2305-7.53906 15.8887-7.88086 15.4004-7.88086L12.5195-7.88086L12.5195-10.752C12.5195-11.25 12.1777-11.5918 11.6895-11.5918C11.2109-11.5918 10.8789-11.25 10.8789-10.752L10.8789-7.88086L8.00781-7.88086C7.50977-7.88086 7.17773-7.53906 7.17773-7.05078Z"/>
  </g>
  <g transform="matrix(1 0 0 1 305.646 1933)">
   <path d="M14.9707 5.66406C21.9336 5.66406 27.6953-0.0976562 27.6953-7.05078C27.6953-14.0137 21.9238-19.7754 14.9609-19.7754C8.00781-19.7754 2.25586-14.0137 2.25586-7.05078C2.25586-0.0976562 8.01758 5.66406 14.9707 5.66406ZM14.9707 3.84766C8.93555 3.84766 4.08203-1.01562 4.08203-7.05078C4.08203-13.0957 8.92578-17.9492 14.9609-17.9492C21.0059-17.9492 25.8691-13.0957 25.8691-7.05078C25.8691-1.01562 21.0156 3.84766 14.9707 3.84766ZM9.19922-7.05078C9.19922-6.5332 9.57031-6.17188 10.1172-6.17188L14.0625-6.17188L14.0625-2.2168C14.0625-1.67969 14.4336-1.29883 14.9512-1.29883C15.4883-1.29883 15.8594-1.66992 15.8594-2.2168L15.8594-6.17188L19.8145-6.17188C20.3516-6.17188 20.7324-6.5332 20.7324-7.05078C20.7324-7.59766 20.3613-7.96875 19.8145-7.96875L15.8594-7.96875L15.8594-11.9141C15.8594-12.4609 15.4883-12.8418 14.9512-12.8418C14.4336-12.8418 14.0625-12.4609 14.0625-11.9141L14.0625-7.96875L10.1172-7.96875C9.57031-7.96875 9.19922-7.59766 9.19922-7.05078Z"/>
  </g>
  <text style="stroke:none;fill:black;font-family:sans-serif;font-size:13;font-weight:bold;" transform="matrix(1 0 0 1 263 1953)">Design Variations</text>
  <text style="stroke:none;fill:black;font-family:sans-serif;font-size:13;" transform="matrix(1 0 0 1 263 1971)">Symbols are supported in up to nine weights and three scales.</text>
  <text style="stroke:none;fill:black;font-family:sans-serif;font-size:13;" transform="matrix(1 0 0 1 263 1989)">For optimal layout with text and other symbols, vertically align</text>
  <text style="stroke:none;fill:black;font-family:sans-serif;font-size:13;" transform="matrix(1 0 0 1 263 2007)">symbols with the adjacent text.</text>
  <line style="fill:none;stroke:#00AEEF;stroke-width:0.5;opacity:1.0;" x1="776" x2="776" y1="1919" y2="1933"/>
  <g transform="matrix(1 0 0 1 776 1933)">
   <path d="M3.31055 0.15625C3.82812 0.15625 4.08203-0.0390625 4.26758-0.585938L5.52734-4.0332L11.2891-4.0332L12.5488-0.585938C12.7344-0.0390625 12.9883 0.15625 13.4961 0.15625C14.0137 0.15625 14.3457-0.15625 14.3457-0.644531C14.3457-0.810547 14.3164-0.966797 14.2383-1.17188L9.6582-13.3691C9.43359-13.9648 9.0332-14.2676 8.4082-14.2676C7.80273-14.2676 7.39258-13.9746 7.17773-13.3789L2.59766-1.16211C2.51953-0.957031 2.49023-0.800781 2.49023-0.634766C2.49023-0.146484 2.80273 0.15625 3.31055 0.15625ZM6.00586-5.51758L8.37891-12.0898L8.42773-12.0898L10.8008-5.51758Z"/>
  </g>
  <line style="fill:none;stroke:#00AEEF;stroke-width:0.5;opacity:1.0;" x1="793.197" x2="793.197" y1="1919" y2="1933"/>
  <text style="stroke:none;fill:black;font-family:sans-serif;font-size:13;font-weight:bold;" transform="matrix(1 0 0 1 776 1953)">Margins</text>
  <text style="stroke:none;fill:black;font-family:sans-serif;font-size:13;" transform="matrix(1 0 0 1 776 1971)">Leading and trailing margins on the left and right side of each symbol</text>
  <text style="stroke:none;fill:black;font-family:sans-serif;font-size:13;" transform="matrix(1 0 0 1 776 1989)">can be adjusted by modifying the x-location of the margin guidelines.</text>
  <text style="stroke:none;fill:black;font-family:sans-serif;font-size:13;" transform="matrix(1 0 0 1 776 2007)">Modifications are automatically applied proportionally to all</text>
  <text style="stroke:none;fill:black;font-family:sans-serif;font-size:13;" transform="matrix(1 0 0 1 776 2025)">scales and weights.</text>
  <g transform="matrix(1 0 0 1 1289 1933)">
   <path d="M2.8418 1.86523L4.54102 3.57422C5.40039 4.44336 6.38672 4.38477 7.31445 3.35938L18.0078-8.42773L17.041-9.4043L6.42578 2.27539C6.07422 2.67578 5.74219 2.77344 5.27344 2.30469L4.10156 1.14258C3.63281 0.683594 3.74023 0.341797 4.14062-0.0195312L15.6152-10.8203L14.6387-11.7871L3.04688-0.898438C2.06055 0.0195312 1.98242 0.996094 2.8418 1.86523ZM9.25781-16.3281C8.83789-15.918 8.80859-15.3418 9.04297-14.9512C9.27734-14.5898 9.73633-14.3555 10.3809-14.5215C11.8457-14.8633 13.3691-14.9219 14.7949-13.9844L14.209-12.5293C13.8672-11.6992 14.043-11.1133 14.5801-10.5664L16.875-8.25195C17.3633-7.76367 17.7734-7.74414 18.3398-7.8418L19.4043-8.03711L20.0684-7.36328L20.0293-6.80664C19.9902-6.30859 20.1172-5.92773 20.6055-5.44922L21.3672-4.70703C21.8457-4.22852 22.4609-4.19922 22.9297-4.66797L25.8398-7.58789C26.3086-8.05664 26.2891-8.65234 25.8105-9.13086L25.0391-9.89258C24.5605-10.3711 24.1895-10.5273 23.7109-10.4883L23.1348-10.4395L22.4902-11.0742L22.7344-12.1973C22.8613-12.7637 22.7051-13.2031 22.1191-13.7891L19.9219-15.9766C16.582-19.2969 12.1484-19.2188 9.25781-16.3281ZM10.752-15.957C13.1836-17.7344 16.4746-17.4316 18.7012-15.2051L21.1328-12.793C21.3672-12.5586 21.4062-12.373 21.3379-12.0312L21.0156-10.5469L22.5195-9.0625L23.5059-9.12109C23.7598-9.13086 23.8379-9.11133 24.0332-8.91602L24.6094-8.33984L22.168-5.89844L21.5918-6.47461C21.3965-6.66992 21.3672-6.74805 21.377-7.01172L21.4453-7.98828L19.9512-9.47266L18.4277-9.21875C18.1055-9.15039 17.959-9.17969 17.7148-9.41406L15.7129-11.416C15.459-11.6504 15.4297-11.8164 15.5859-12.1875L16.4648-14.2773C14.9023-15.7324 12.8711-16.3574 10.8398-15.7617C10.6836-15.7227 10.625-15.8496 10.752-15.957Z"/>
  </g>
  <text style="stroke:none;fill:black;font-family:sans-serif;font-size:13;font-weight:bold;" transform="matrix(1 0 0 1 1289 1953)">Exporting</text>
  <text style="stroke:none;fill:black;font-family:sans-serif;font-size:13;" transform="matrix(1 0 0 1 1289 1971)">Symbols should be outlined when exporting to ensure the</text>
  <text style="stroke:none;fill:black;font-family:sans-serif;font-size:13;" transform="matrix(1 0 0 1 1289 1989)">design is preserved when submitting to Xcode.</text>
  <text id="template-version" style="stroke:none;fill:black;font-family:sans-serif;font-size:13;text-anchor:end;" transform="matrix(1 0 0 1 3036 1933)">Template v.4.0</text>
  <text style="stroke:none;fill:black;font-family:sans-serif;font-size:13;text-anchor:end;" transform="matrix(1 0 0 1 3036 1951)">Requires Xcode 14 or greater</text>
  <text id="descriptive-name" style="stroke:none;fill:black;font-family:sans-serif;font-size:13;text-anchor:end;" transform="matrix(1 0 0 1 3036 1969)">Generated from case.mixer</text>
  <text style="stroke:none;fill:black;font-family:sans-serif;font-size:13;text-anchor:end;" transform="matrix(1 0 0 1 3036 1987)">Typeset at 100 points</text>
  <text style="stroke:none;fill:black;font-family:sans-serif;font-size:13;" transform="matrix(1 0 0 1 263 726)">Small</text>
  <text style="stroke:none;fill:black;font-family:sans-serif;font-size:13;" transform="matrix(1 0 0 1 263 1156)">Medium</text>
  <text style="stroke:none;fill:black;font-family:sans-serif;font-size:13;" transform="matrix(1 0 0 1 263 1586)">Large</text>
 </g>
 <g id="Guides">
  <g id="H-reference" style="fill:#27AAE1;stroke:none;" transform="matrix(1 0 0 1 339 696)">
   <path d="M0.993654 0L3.63775 0L29.3281-67.1323L30.0303-67.1323L30.0303-70.459L28.1226-70.459ZM11.6885-24.4799L46.9815-24.4799L46.2315-26.7285L12.4385-26.7285ZM55.1196 0L57.7637 0L30.6382-70.459L29.4326-70.459L29.4326-67.1323Z"/>
  </g>
  <line id="Baseline-S" style="fill:none;stroke:#27AAE1;opacity:1;stroke-width:0.5;" x1="263" x2="3036" y1="696" y2="696"/>
  <line id="Capline-S" style="fill:none;stroke:#27AAE1;opacity:1;stroke-width:0.5;" x1="263" x2="3036" y1="625.541" y2="625.541"/>
  <g id="H-reference" style="fill:#27AAE1;stroke:none;" transform="matrix(1 0 0 1 339 1126)">
   <path d="M0.993654 0L3.63775 0L29.3281-67.1323L30.0303-67.1323L30.0303-70.459L28.1226-70.459ZM11.6885-24.4799L46.9815-24.4799L46.2315-26.7285L12.4385-26.7285ZM55.1196 0L57.7637 0L30.6382-70.459L29.4326-70.459L29.4326-67.1323Z"/>
  </g>
  <line id="Baseline-M" style="fill:none;stroke:#27AAE1;opacity:1;stroke-width:0.5;" x1="263" x2="3036" y1="1126" y2="1126"/>
  <line id="Capline-M" style="fill:none;stroke:#27AAE1;opacity:1;stroke-width:0.5;" x1="263" x2="3036" y1="1055.54" y2="1055.54"/>
  <g id="H-reference" style="fill:#27AAE1;stroke:none;" transform="matrix(1 0 0 1 339 1556)">
   <path d="M0.993654 0L3.63775 0L29.3281-67.1323L30.0303-67.1323L30.0303-70.459L28.1226-70.459ZM11.6885-24.4799L46.9815-24.4799L46.2315-26.7285L12.4385-26.7285ZM55.1196 0L57.7637 0L30.6382-70.459L29.4326-70.459L29.4326-67.1323Z"/>
  </g>
  <line id="Baseline-L" style="fill:none;stroke:#27AAE1;opacity:1;stroke-width:0.5;" x1="263" x2="3036" y1="1556" y2="1556"/>
  <line id="Capline-L" style="fill:none;stroke:#27AAE1;opacity:1;stroke-width:0.5;" x1="263" x2="3036" y1="1485.54" y2="1485.54"/>
  <line id="left-margin-Ultralight-S" style="fill:none;stroke:#00AEEF;stroke-width:0.5;opacity:1.0;" x1="504.811" x2="504.811" y1="600.785" y2="720.121"/>
  <line id="right-margin-Ultralight-S" style="fill:none;stroke:#00AEEF;stroke-width:0.5;opacity:1.0;" x1="614.611" x2="614.611" y1="600.785" y2="720.121"/>
  <line id="left-margin-Regular-S" style="fill:none;stroke:#00AEEF;stroke-width:0.5;opacity:1.0;" x1="1391.19" x2="1391.19" y1="600.785" y2="720.121"/>
  <line id="right-margin-Regular-S" style="fill:none;stroke:#00AEEF;stroke-width:0.5;opacity:1.0;" x1="1508.49" x2="1508.49" y1="600.785" y2="720.121"/>
  <line id="left-margin-Black-S" style="fill:none;stroke:#00AEEF;stroke-width:0.5;opacity:1.0;" x1="2871.7" x2="2871.7" y1="600.785" y2="720.121"/>
  <line id="right-margin-Black-S" style="fill:none;stroke:#00AEEF;stroke-width:0.5;opacity:1.0;" x1="2995.1" x2="2995.1" y1="600.785" y2="720.121"/>
 </g>
 <g id="Symbols">
  <g id="Black-S" transform="matrix(1 0 0 1 2871.7 696)">
   <path class="monochrome-0 SFSymbolsPreview000000" d="M103.61-37.9L100.51-44.3C97.21-51.1 95.51-58.6 95.51-66.2L95.51-71.3L86.71-71.3L86.71-66.2C86.71-58.6 85.01-51.1 81.71-44.3L78.61-37.9C76.81-34.5 76.01-30.8 76.01-27L76.01-25.7C74.61-26.1 73.11-26.4 71.61-26.5L71.61-47.1L58.21-47.1L58.21-26.5C56.81-26.4 55.41-26.2 54.01-25.9L54.01-59.7C54.01-59.7 54.01-59.7 54.01-59.7C54.01-59.7 54.01-59.7 54.01-59.7C54.01-59.8 54.01-60 53.91-60.1C53.91-60.4 53.81-60.7 53.61-61L49.71-69.4L49.71-69.4L49.71-73.1C49.71-74.7 48.41-75.9 46.91-75.9L24.31-75.9C22.71-75.9 21.51-74.6 21.51-73.1L21.51-69.4L17.61-61C17.51-60.7 17.41-60.4 17.31-60.1C17.31-60 17.21-59.8 17.21-59.7C17.21-59.7 17.21-59.7 17.21-59.7C17.21-59.7 17.21-59.7 17.21-59.7L17.21-0.3C17.21 1.3 18.51 2.5 20.01 2.5L41.71 2.5C45.01 8.6 51.51 12.7 58.91 12.7L70.21 12.7C77.61 12.7 84.11 8.6 87.41 2.5L103.21 2.5C104.81 2.5 106.01 1.2 106.01-0.3L106.01-27C106.11-30.8 105.31-34.5 103.61-37.9ZM21.01-1.1L21.01-57.9L50.31-57.9L50.31-24.4C43.81-21.2 39.41-14.5 39.41-6.8C39.41-4.8 39.71-2.9 40.31-1.1L21.01-1.1ZM70.31 9.1L59.01 9.1C50.21 9.1 43.11 2 43.11-6.8C43.11-15.4 49.81-22.3 58.41-22.7C60.41-22.8 62.01-24.4 62.01-26.4L62.01-43.3L67.91-43.3L67.91-26.4C67.91-24.4 69.41-22.8 71.41-22.7C79.81-22.2 86.31-15.2 86.31-6.8C86.21 1.9 79.11 9.1 70.31 9.1ZM102.41-1.1L89.11-1.1C89.71-2.9 90.01-4.9 90.01-6.9C90.01-6.9 90.01-7 90.01-7L96.71-7C98.11-7 99.21-8.1 99.21-9.5L99.21-18.9C99.21-20.3 98.11-21.4 96.71-21.4L83.51-21.4C82.41-22.4 81.11-23.3 79.71-24.1L79.71-27C79.71-30.2 80.41-33.4 81.81-36.3L84.91-42.7C88.41-50 90.31-58.1 90.31-66.2L90.31-67.6L91.71-67.6L91.71-66.2C91.71-58.1 93.61-50 97.11-42.7L100.21-36.3C101.61-33.4 102.31-30.2 102.31-27L102.31-1.1ZM69.31-14.8L60.41-14.8C56.11-14.8 52.61-11.3 52.61-7C52.61-2.7 56.11 0.8 60.41 0.8L69.31 0.8C73.61 0.8 77.11-2.7 77.11-7C77.11-11.3 73.61-14.8 69.31-14.8ZM24.91-67.9C25.11-68.4 25.21-68.9 25.21-69.5L25.21-72.3L46.01-72.3L46.01-69.5C46.01-68.9 46.21-68.2 46.51-67.7L49.41-61.6L21.91-61.6L24.91-67.9ZM46.31-42.3C46.41-43.1 45.81-43.8 45.01-43.8L26.31-43.8C25.51-43.8 24.91-43.1 25.01-42.3C25.71-37.1 30.21-33 35.61-33C41.01-33.1 45.51-37.1 46.31-42.3ZM71.51-57.6C71.51-59.2 70.21-60.4 68.71-60.4L61.01-60.4C59.41-60.4 58.21-59.1 58.21-57.6L58.21-50.7L71.51-50.7L71.51-57.6ZM88.51-75L93.91-75C95.51-75 96.71-76.3 96.71-77.8L96.71-80.2C96.71-81.8 95.41-83 93.91-83L88.51-83C86.91-83 85.71-81.7 85.71-80.2L85.71-77.8C85.71-76.2 86.91-75 88.51-75Z"/>
  </g>
  <g id="Regular-S" transform="matrix(1 0 0 1 1391.19 696)">
   <path class="monochrome-0 SFSymbolsPreview000000" d="M98.3-37.9L95.3-44C92.2-50.4 90.5-57.5 90.5-64.7L90.5-69.5L82.2-69.5L82.2-64.7C82.2-57.5 80.6-50.5 77.4-44L74.4-37.9C72.8-34.7 72-31.1 72-27.6L72-26.4C70.7-26.8 69.3-27.1 67.8-27.2L67.8-46.7L55.4-46.7L55.4-27.2C54-27.1 52.7-26.9 51.4-26.6L51.4-58.6C51.4-58.6 51.4-58.6 51.4-58.6C51.4-58.6 51.4-58.6 51.4-58.6C51.4-58.7 51.4-58.9 51.3-59C51.3-59.3 51.2-59.6 51.1-59.9L47.4-67.9L47.4-67.9L47.4-71.4C47.4-72.9 46.2-74.1 44.7-74.1L23.4-74.1C21.9-74.1 20.7-72.9 20.7-71.4L20.7-67.9L17-59.9C16.9-59.6 16.8-59.3 16.8-59C16.8-58.9 16.7-58.7 16.7-58.6C16.7-58.6 16.7-58.6 16.7-58.6C16.7-58.6 16.7-58.6 16.7-58.6L16.7-2.5C16.7-1 17.9 0.2 19.4 0.2L39.9 0.2C43 6.1 49.1 10 56.2 10L66.9 10C73.9 10 80 6.1 83.2 0.4L98 0.4C99.5 0.4 100.7-0.8 100.7-2.3L100.7-27.5C100.6-31.1 99.8-34.7 98.3-37.9ZM20.2-3.1L20.2-56.7L47.9-56.7L47.9-25.1C41.8-22.1 37.6-15.8 37.6-8.5C37.6-6.6 37.9-4.8 38.4-3.1L20.2-3.1ZM66.8 6.5L56.2 6.5C47.9 6.5 41.1-0.3 41.1-8.6C41.1-16.7 47.4-23.3 55.5-23.6C57.4-23.7 58.9-25.2 58.9-27.1L58.9-43.1L64.5-43.1L64.5-27.1C64.5-25.2 65.9-23.7 67.8-23.6C75.7-23.1 81.9-16.5 81.9-8.6C81.9-0.3 75.1 6.5 66.8 6.5ZM97.1-3.1L84.6-3.1C85.1-4.8 85.4-6.6 85.4-8.5C85.4-8.5 85.4-8.6 85.4-8.6L91.7-8.6C93-8.6 94.1-9.7 94.1-11L94.1-19.9C94.1-21.2 93-22.3 91.7-22.3L79.2-22.3C78.1-23.3 76.9-24.1 75.6-24.8L75.6-27.5C75.6-30.5 76.3-33.6 77.6-36.3L80.6-42.4C83.9-49.3 85.7-57 85.7-64.6L85.7-65.9L87-65.9L87-64.6C87-56.9 88.8-49.3 92.1-42.4L95.1-36.3C96.4-33.6 97.1-30.5 97.1-27.5L97.1-3.1ZM65.9-16L57.5-16C53.5-16 50.2-12.7 50.2-8.7C50.2-4.7 53.5-1.4 57.5-1.4L65.9-1.4C69.9-1.4 73.2-4.7 73.2-8.7C73.2-12.7 69.9-16 65.9-16ZM23.9-66.2C24.1-66.7 24.2-67.2 24.2-67.7L24.2-70.4L43.9-70.4L43.9-67.7C43.9-67.1 44.1-66.5 44.3-66L47-60.2L21.1-60.2L23.9-66.2ZM44.1-42C44.2-42.8 43.6-43.5 42.9-43.5L25.2-43.5C24.5-43.5 23.9-42.9 24-42.1C24.7-37.1 28.9-33.3 34-33.3C39.2-33.3 43.4-37.1 44.1-42ZM68-56.5C68-58 66.8-59.2 65.3-59.2L58-59.2C56.5-59.2 55.3-58 55.3-56.5L55.3-50L68-50L68-56.5ZM84-72.9L89.1-72.9C90.6-72.9 91.8-74.1 91.8-75.6L91.8-77.9C91.8-79.4 90.6-80.6 89.1-80.6L84-80.6C82.5-80.6 81.3-79.4 81.3-77.9L81.3-75.6C81.3-74.1 82.5-72.9 84-72.9Z"/>
  </g>
  <g id="Ultralight-S" transform="matrix(1 0 0 1 504.811 696)">
   <path class="monochrome-0 SFSymbolsPreview000000" d="M91.204-37.6L88.504-43.2C85.604-49.1 84.104-55.6 84.104-62.2L84.104-66.6L76.504-66.6L76.504-62.2C76.504-55.6 75.004-49.1 72.104-43.2L69.404-37.6C68.004-34.7 67.204-31.4 67.204-28.1L67.204-27C66.004-27.4 64.704-27.6 63.404-27.7L63.404-45.5L51.904-45.5L51.904-27.7C50.604-27.6 49.404-27.4 48.304-27.1L48.304-56.4C48.304-56.4 48.304-56.4 48.304-56.4C48.304-56.4 48.304-56.4 48.304-56.4C48.304-56.5 48.304-56.6 48.304-56.8C48.304-57.1 48.204-57.3 48.104-57.6L44.704-64.9L44.704-64.9L44.704-68.1C44.704-69.4 43.604-70.5 42.304-70.5L22.604-70.5C21.304-70.5 20.204-69.4 20.204-68.1L20.204-64.9L16.804-57.6C16.704-57.3 16.604-57.1 16.604-56.8C16.604-56.7 16.604-56.6 16.604-56.4C16.604-56.4 16.604-56.4 16.604-56.4C16.604-56.4 16.604-56.4 16.604-56.4L16.604-5C16.604-3.7 17.704-2.6 19.004-2.6L37.804-2.6C40.704 2.7 46.304 6.2 52.704 6.2L62.504 6.2C68.904 6.2 74.504 2.6 77.404-2.6L91.004-2.6C92.304-2.6 93.404-3.7 93.404-5L93.404-28.1C93.304-31.4 92.604-34.6 91.204-37.6ZM19.704-5.7L19.704-54.8L45.004-54.8L45.004-25.8C39.404-23 35.604-17.3 35.604-10.6C35.604-8.9 35.904-7.2 36.304-5.6L19.704-5.6ZM62.404 3.1L52.604 3.1C45.004 3.1 38.804-3.1 38.804-10.7C38.804-18.1 44.604-24.1 52.004-24.5C53.704-24.6 55.104-26 55.104-27.7L55.104-42.3L60.204-42.3L60.204-27.7C60.204-26 61.504-24.6 63.204-24.5C70.504-24 76.204-18 76.204-10.7C76.204-3.1 70.004 3.1 62.404 3.1ZM90.104-5.7L78.604-5.7C79.104-7.3 79.304-8.9 79.304-10.7C79.304-10.7 79.304-10.8 79.304-10.8L85.104-10.8C86.304-10.8 87.304-11.8 87.304-13L87.304-21.2C87.304-22.4 86.304-23.4 85.104-23.4L73.704-23.4C72.704-24.3 71.604-25.1 70.404-25.7L70.404-28.2C70.404-31 71.004-33.8 72.304-36.3L75.004-41.9C78.104-48.2 79.704-55.2 79.704-62.3L79.704-63.5L80.904-63.5L80.904-62.3C80.904-55.3 82.504-48.2 85.604-41.9L88.304-36.3C89.504-33.8 90.204-31 90.204-28.2L90.204-5.7ZM61.504-17.6L53.804-17.6C50.104-17.6 47.104-14.6 47.104-10.9C47.104-7.2 50.104-4.2 53.804-4.2L61.504-4.2C65.204-4.2 68.204-7.2 68.204-10.9C68.204-14.6 65.204-17.6 61.504-17.6ZM23.004-63.5C23.204-63.9 23.304-64.4 23.304-64.9L23.304-67.3L41.304-67.3L41.304-64.9C41.304-64.3 41.404-63.8 41.704-63.4L44.204-58.1L20.504-58.1L23.004-63.5ZM41.504-41.4C41.604-42.1 41.104-42.7 40.404-42.7L24.304-42.7C23.604-42.7 23.104-42.1 23.204-41.4C23.804-36.9 27.704-33.4 32.404-33.4C37.004-33.4 40.904-36.9 41.504-41.4ZM63.404-54.6C63.404-55.9 62.304-57 61.004-57L54.304-57C53.004-57 51.904-55.9 51.904-54.6L51.904-48.7L63.504-48.7L63.504-54.6ZM78.104-69.6L82.804-69.6C84.104-69.6 85.204-70.7 85.204-72L85.204-74.1C85.204-75.4 84.104-76.5 82.804-76.5L78.104-76.5C76.804-76.5 75.704-75.4 75.704-74.1L75.704-72C75.704-70.7 76.804-69.6 78.104-69.6Z"/>
  </g>
 </g>
</svg>
