<?xml version="1.0" encoding="UTF-8"?>
<!--Generator: Apple Native CoreSVG 175.5-->
<!DOCTYPE svg
PUBLIC "-//W3C//DTD SVG 1.1//EN"
       "http://www.w3.org/Graphics/SVG/1.1/DTD/svg11.dtd">
<svg version="1.1" xmlns="http://www.w3.org/2000/svg" xmlns:xlink="http://www.w3.org/1999/xlink" width="3300" height="2200">
 <!--glyph: "", point size: 100.0, font version: "18.0d12e2", template writer version: "101"-->
 <style>.monochrome-0 {fill:#000000}

.SFSymbolsPreview000000 {fill:#000000;opacity:1.0}
</style>
 <g id="Notes">
  <rect height="2200" id="artboard" style="fill:white;opacity:1" width="3300" x="0" y="0"/>
  <line style="fill:none;stroke:black;opacity:1;stroke-width:0.5;" x1="263" x2="3036" y1="292" y2="292"/>
  <text style="stroke:none;fill:black;font-family:sans-serif;font-size:13;font-weight:bold;" transform="matrix(1 0 0 1 263 322)">Weight/Scale Variations</text>
  <text style="stroke:none;fill:black;font-family:sans-serif;font-size:13;text-anchor:middle;" transform="matrix(1 0 0 1 559.711 322)">Ultralight</text>
  <text style="stroke:none;fill:black;font-family:sans-serif;font-size:13;text-anchor:middle;" transform="matrix(1 0 0 1 856.422 322)">Thin</text>
  <text style="stroke:none;fill:black;font-family:sans-serif;font-size:13;text-anchor:middle;" transform="matrix(1 0 0 1 1153.13 322)">Light</text>
  <text style="stroke:none;fill:black;font-family:sans-serif;font-size:13;text-anchor:middle;" transform="matrix(1 0 0 1 1449.84 322)">Regular</text>
  <text style="stroke:none;fill:black;font-family:sans-serif;font-size:13;text-anchor:middle;" transform="matrix(1 0 0 1 1746.56 322)">Medium</text>
  <text style="stroke:none;fill:black;font-family:sans-serif;font-size:13;text-anchor:middle;" transform="matrix(1 0 0 1 2043.27 322)">Semibold</text>
  <text style="stroke:none;fill:black;font-family:sans-serif;font-size:13;text-anchor:middle;" transform="matrix(1 0 0 1 2339.98 322)">Bold</text>
  <text style="stroke:none;fill:black;font-family:sans-serif;font-size:13;text-anchor:middle;" transform="matrix(1 0 0 1 2636.69 322)">Heavy</text>
  <text style="stroke:none;fill:black;font-family:sans-serif;font-size:13;text-anchor:middle;" transform="matrix(1 0 0 1 2933.4 322)">Black</text>
  <line style="fill:none;stroke:black;opacity:1;stroke-width:0.5;" x1="263" x2="3036" y1="1903" y2="1903"/>
  <g transform="matrix(1 0 0 1 263 1933)">
   <path d="M9.24805 0.830078C13.5547 0.830078 17.1387-2.74414 17.1387-7.05078C17.1387-11.3574 13.5449-14.9316 9.23828-14.9316C4.94141-14.9316 1.36719-11.3574 1.36719-7.05078C1.36719-2.74414 4.95117 0.830078 9.24805 0.830078ZM9.24805-0.654297C5.70312-0.654297 2.87109-3.49609 2.87109-7.05078C2.87109-10.6055 5.69336-13.4473 9.23828-13.4473C12.793-13.4473 15.6445-10.6055 15.6445-7.05078C15.6445-3.49609 12.8027-0.654297 9.24805-0.654297ZM5.6543-7.05078C5.6543-6.62109 5.95703-6.32812 6.40625-6.32812L8.50586-6.32812L8.50586-4.20898C8.50586-3.76953 8.79883-3.4668 9.22852-3.4668C9.67773-3.4668 9.9707-3.76953 9.9707-4.20898L9.9707-6.32812L12.0898-6.32812C12.5293-6.32812 12.832-6.62109 12.832-7.05078C12.832-7.49023 12.5293-7.79297 12.0898-7.79297L9.9707-7.79297L9.9707-9.90234C9.9707-10.3516 9.67773-10.6543 9.22852-10.6543C8.79883-10.6543 8.50586-10.3516 8.50586-9.90234L8.50586-7.79297L6.40625-7.79297C5.95703-7.79297 5.6543-7.49023 5.6543-7.05078Z"/>
  </g>
  <g transform="matrix(1 0 0 1 281.867 1933)">
   <path d="M11.709 2.91016C17.1582 2.91016 21.6699-1.61133 21.6699-7.05078C21.6699-12.5 17.1484-17.0117 11.6992-17.0117C6.25977-17.0117 1.74805-12.5 1.74805-7.05078C1.74805-1.61133 6.26953 2.91016 11.709 2.91016ZM11.709 1.25C7.09961 1.25 3.41797-2.44141 3.41797-7.05078C3.41797-11.6602 7.08984-15.3516 11.6992-15.3516C16.3086-15.3516 20.0098-11.6602 20.0098-7.05078C20.0098-2.44141 16.3184 1.25 11.709 1.25ZM7.17773-7.05078C7.17773-6.57227 7.50977-6.25 8.00781-6.25L10.8789-6.25L10.8789-3.36914C10.8789-2.88086 11.2109-2.53906 11.6895-2.53906C12.1777-2.53906 12.5195-2.87109 12.5195-3.36914L12.5195-6.25L15.4004-6.25C15.8887-6.25 16.2305-6.57227 16.2305-7.05078C16.2305-7.53906 15.8887-7.88086 15.4004-7.88086L12.5195-7.88086L12.5195-10.752C12.5195-11.25 12.1777-11.5918 11.6895-11.5918C11.2109-11.5918 10.8789-11.25 10.8789-10.752L10.8789-7.88086L8.00781-7.88086C7.50977-7.88086 7.17773-7.53906 7.17773-7.05078Z"/>
  </g>
  <g transform="matrix(1 0 0 1 305.646 1933)">
   <path d="M14.9707 5.66406C21.9336 5.66406 27.6953-0.0976562 27.6953-7.05078C27.6953-14.0137 21.9238-19.7754 14.9609-19.7754C8.00781-19.7754 2.25586-14.0137 2.25586-7.05078C2.25586-0.0976562 8.01758 5.66406 14.9707 5.66406ZM14.9707 3.84766C8.93555 3.84766 4.08203-1.01562 4.08203-7.05078C4.08203-13.0957 8.92578-17.9492 14.9609-17.9492C21.0059-17.9492 25.8691-13.0957 25.8691-7.05078C25.8691-1.01562 21.0156 3.84766 14.9707 3.84766ZM9.19922-7.05078C9.19922-6.5332 9.57031-6.17188 10.1172-6.17188L14.0625-6.17188L14.0625-2.2168C14.0625-1.67969 14.4336-1.29883 14.9512-1.29883C15.4883-1.29883 15.8594-1.66992 15.8594-2.2168L15.8594-6.17188L19.8145-6.17188C20.3516-6.17188 20.7324-6.5332 20.7324-7.05078C20.7324-7.59766 20.3613-7.96875 19.8145-7.96875L15.8594-7.96875L15.8594-11.9141C15.8594-12.4609 15.4883-12.8418 14.9512-12.8418C14.4336-12.8418 14.0625-12.4609 14.0625-11.9141L14.0625-7.96875L10.1172-7.96875C9.57031-7.96875 9.19922-7.59766 9.19922-7.05078Z"/>
  </g>
  <text style="stroke:none;fill:black;font-family:sans-serif;font-size:13;font-weight:bold;" transform="matrix(1 0 0 1 263 1953)">Design Variations</text>
  <text style="stroke:none;fill:black;font-family:sans-serif;font-size:13;" transform="matrix(1 0 0 1 263 1971)">Symbols are supported in up to nine weights and three scales.</text>
  <text style="stroke:none;fill:black;font-family:sans-serif;font-size:13;" transform="matrix(1 0 0 1 263 1989)">For optimal layout with text and other symbols, vertically align</text>
  <text style="stroke:none;fill:black;font-family:sans-serif;font-size:13;" transform="matrix(1 0 0 1 263 2007)">symbols with the adjacent text.</text>
  <line style="fill:none;stroke:#00AEEF;stroke-width:0.5;opacity:1.0;" x1="776" x2="776" y1="1919" y2="1933"/>
  <g transform="matrix(1 0 0 1 776 1933)">
   <path d="M3.31055 0.15625C3.82812 0.15625 4.08203-0.0390625 4.26758-0.585938L5.52734-4.0332L11.2891-4.0332L12.5488-0.585938C12.7344-0.0390625 12.9883 0.15625 13.4961 0.15625C14.0137 0.15625 14.3457-0.15625 14.3457-0.644531C14.3457-0.810547 14.3164-0.966797 14.2383-1.17188L9.6582-13.3691C9.43359-13.9648 9.0332-14.2676 8.4082-14.2676C7.80273-14.2676 7.39258-13.9746 7.17773-13.3789L2.59766-1.16211C2.51953-0.957031 2.49023-0.800781 2.49023-0.634766C2.49023-0.146484 2.80273 0.15625 3.31055 0.15625ZM6.00586-5.51758L8.37891-12.0898L8.42773-12.0898L10.8008-5.51758Z"/>
  </g>
  <line style="fill:none;stroke:#00AEEF;stroke-width:0.5;opacity:1.0;" x1="793.197" x2="793.197" y1="1919" y2="1933"/>
  <text style="stroke:none;fill:black;font-family:sans-serif;font-size:13;font-weight:bold;" transform="matrix(1 0 0 1 776 1953)">Margins</text>
  <text style="stroke:none;fill:black;font-family:sans-serif;font-size:13;" transform="matrix(1 0 0 1 776 1971)">Leading and trailing margins on the left and right side of each symbol</text>
  <text style="stroke:none;fill:black;font-family:sans-serif;font-size:13;" transform="matrix(1 0 0 1 776 1989)">can be adjusted by modifying the x-location of the margin guidelines.</text>
  <text style="stroke:none;fill:black;font-family:sans-serif;font-size:13;" transform="matrix(1 0 0 1 776 2007)">Modifications are automatically applied proportionally to all</text>
  <text style="stroke:none;fill:black;font-family:sans-serif;font-size:13;" transform="matrix(1 0 0 1 776 2025)">scales and weights.</text>
  <g transform="matrix(1 0 0 1 1289 1933)">
   <path d="M2.8418 1.86523L4.54102 3.57422C5.40039 4.44336 6.38672 4.38477 7.31445 3.35938L18.0078-8.42773L17.041-9.4043L6.42578 2.27539C6.07422 2.67578 5.74219 2.77344 5.27344 2.30469L4.10156 1.14258C3.63281 0.683594 3.74023 0.341797 4.14062-0.0195312L15.6152-10.8203L14.6387-11.7871L3.04688-0.898438C2.06055 0.0195312 1.98242 0.996094 2.8418 1.86523ZM9.25781-16.3281C8.83789-15.918 8.80859-15.3418 9.04297-14.9512C9.27734-14.5898 9.73633-14.3555 10.3809-14.5215C11.8457-14.8633 13.3691-14.9219 14.7949-13.9844L14.209-12.5293C13.8672-11.6992 14.043-11.1133 14.5801-10.5664L16.875-8.25195C17.3633-7.76367 17.7734-7.74414 18.3398-7.8418L19.4043-8.03711L20.0684-7.36328L20.0293-6.80664C19.9902-6.30859 20.1172-5.92773 20.6055-5.44922L21.3672-4.70703C21.8457-4.22852 22.4609-4.19922 22.9297-4.66797L25.8398-7.58789C26.3086-8.05664 26.2891-8.65234 25.8105-9.13086L25.0391-9.89258C24.5605-10.3711 24.1895-10.5273 23.7109-10.4883L23.1348-10.4395L22.4902-11.0742L22.7344-12.1973C22.8613-12.7637 22.7051-13.2031 22.1191-13.7891L19.9219-15.9766C16.582-19.2969 12.1484-19.2188 9.25781-16.3281ZM10.752-15.957C13.1836-17.7344 16.4746-17.4316 18.7012-15.2051L21.1328-12.793C21.3672-12.5586 21.4062-12.373 21.3379-12.0312L21.0156-10.5469L22.5195-9.0625L23.5059-9.12109C23.7598-9.13086 23.8379-9.11133 24.0332-8.91602L24.6094-8.33984L22.168-5.89844L21.5918-6.47461C21.3965-6.66992 21.3672-6.74805 21.377-7.01172L21.4453-7.98828L19.9512-9.47266L18.4277-9.21875C18.1055-9.15039 17.959-9.17969 17.7148-9.41406L15.7129-11.416C15.459-11.6504 15.4297-11.8164 15.5859-12.1875L16.4648-14.2773C14.9023-15.7324 12.8711-16.3574 10.8398-15.7617C10.6836-15.7227 10.625-15.8496 10.752-15.957Z"/>
  </g>
  <text style="stroke:none;fill:black;font-family:sans-serif;font-size:13;font-weight:bold;" transform="matrix(1 0 0 1 1289 1953)">Exporting</text>
  <text style="stroke:none;fill:black;font-family:sans-serif;font-size:13;" transform="matrix(1 0 0 1 1289 1971)">Symbols should be outlined when exporting to ensure the</text>
  <text style="stroke:none;fill:black;font-family:sans-serif;font-size:13;" transform="matrix(1 0 0 1 1289 1989)">design is preserved when submitting to Xcode.</text>
  <text id="template-version" style="stroke:none;fill:black;font-family:sans-serif;font-size:13;text-anchor:end;" transform="matrix(1 0 0 1 3036 1933)">Template v.4.0</text>
  <text style="stroke:none;fill:black;font-family:sans-serif;font-size:13;text-anchor:end;" transform="matrix(1 0 0 1 3036 1951)">Requires Xcode 14 or greater</text>
  <text id="descriptive-name" style="stroke:none;fill:black;font-family:sans-serif;font-size:13;text-anchor:end;" transform="matrix(1 0 0 1 3036 1969)">Generated from case.bartender8</text>
  <text style="stroke:none;fill:black;font-family:sans-serif;font-size:13;text-anchor:end;" transform="matrix(1 0 0 1 3036 1987)">Typeset at 100 points</text>
  <text style="stroke:none;fill:black;font-family:sans-serif;font-size:13;" transform="matrix(1 0 0 1 263 726)">Small</text>
  <text style="stroke:none;fill:black;font-family:sans-serif;font-size:13;" transform="matrix(1 0 0 1 263 1156)">Medium</text>
  <text style="stroke:none;fill:black;font-family:sans-serif;font-size:13;" transform="matrix(1 0 0 1 263 1586)">Large</text>
 </g>
 <g id="Guides">
  <g id="H-reference" style="fill:#27AAE1;stroke:none;" transform="matrix(1 0 0 1 339 696)">
   <path d="M0.993654 0L3.63775 0L29.3281-67.1323L30.0303-67.1323L30.0303-70.459L28.1226-70.459ZM11.6885-24.4799L46.9815-24.4799L46.2315-26.7285L12.4385-26.7285ZM55.1196 0L57.7637 0L30.6382-70.459L29.4326-70.459L29.4326-67.1323Z"/>
  </g>
  <line id="Baseline-S" style="fill:none;stroke:#27AAE1;opacity:1;stroke-width:0.5;" x1="263" x2="3036" y1="696" y2="696"/>
  <line id="Capline-S" style="fill:none;stroke:#27AAE1;opacity:1;stroke-width:0.5;" x1="263" x2="3036" y1="625.541" y2="625.541"/>
  <g id="H-reference" style="fill:#27AAE1;stroke:none;" transform="matrix(1 0 0 1 339 1126)">
   <path d="M0.993654 0L3.63775 0L29.3281-67.1323L30.0303-67.1323L30.0303-70.459L28.1226-70.459ZM11.6885-24.4799L46.9815-24.4799L46.2315-26.7285L12.4385-26.7285ZM55.1196 0L57.7637 0L30.6382-70.459L29.4326-70.459L29.4326-67.1323Z"/>
  </g>
  <line id="Baseline-M" style="fill:none;stroke:#27AAE1;opacity:1;stroke-width:0.5;" x1="263" x2="3036" y1="1126" y2="1126"/>
  <line id="Capline-M" style="fill:none;stroke:#27AAE1;opacity:1;stroke-width:0.5;" x1="263" x2="3036" y1="1055.54" y2="1055.54"/>
  <g id="H-reference" style="fill:#27AAE1;stroke:none;" transform="matrix(1 0 0 1 339 1556)">
   <path d="M0.993654 0L3.63775 0L29.3281-67.1323L30.0303-67.1323L30.0303-70.459L28.1226-70.459ZM11.6885-24.4799L46.9815-24.4799L46.2315-26.7285L12.4385-26.7285ZM55.1196 0L57.7637 0L30.6382-70.459L29.4326-70.459L29.4326-67.1323Z"/>
  </g>
  <line id="Baseline-L" style="fill:none;stroke:#27AAE1;opacity:1;stroke-width:0.5;" x1="263" x2="3036" y1="1556" y2="1556"/>
  <line id="Capline-L" style="fill:none;stroke:#27AAE1;opacity:1;stroke-width:0.5;" x1="263" x2="3036" y1="1485.54" y2="1485.54"/>
  <line id="left-margin-Ultralight-S" style="fill:none;stroke:#00AEEF;stroke-width:0.5;opacity:1.0;" x1="518.811" x2="518.811" y1="600.785" y2="720.121"/>
  <line id="right-margin-Ultralight-S" style="fill:none;stroke:#00AEEF;stroke-width:0.5;opacity:1.0;" x1="600.611" x2="600.611" y1="600.785" y2="720.121"/>
  <line id="left-margin-Regular-S" style="fill:none;stroke:#00AEEF;stroke-width:0.5;opacity:1.0;" x1="1405.19" x2="1405.19" y1="600.785" y2="720.121"/>
  <line id="right-margin-Regular-S" style="fill:none;stroke:#00AEEF;stroke-width:0.5;opacity:1.0;" x1="1494.49" x2="1494.49" y1="600.785" y2="720.121"/>
  <line id="left-margin-Black-S" style="fill:none;stroke:#00AEEF;stroke-width:0.5;opacity:1.0;" x1="2885.7" x2="2885.7" y1="600.785" y2="720.121"/>
  <line id="right-margin-Black-S" style="fill:none;stroke:#00AEEF;stroke-width:0.5;opacity:1.0;" x1="2981.1" x2="2981.1" y1="600.785" y2="720.121"/>
 </g>
 <g id="Symbols">
  <g id="Black-S" transform="matrix(1 0 0 1 2885.7 696)">
   <path class="monochrome-0 SFSymbolsPreview000000" d="M79.41-36.7L64.21-36.7C63.11-36.7 62.01-36.3 61.21-35.4L60.01-34.2C59.91-34.1 59.91-34.1 59.81-34.1L47.81-34.1L47.81-39.6C54.71-40.3 60.21-46.1 60.21-53.2C60.21-57.6 58.11-61.5 54.91-64C54.31-64.5 53.41-64.3 53.01-63.7C52.61-63.1 52.81-62.4 53.31-61.9C56.41-59.5 58.21-55.5 57.41-51.1C56.61-46.7 53.11-43.1 48.61-42.3C48.31-42.3 48.11-42.2 47.81-42.2L47.81-44.4C52.11-45 55.41-48.8 55.41-53.3C55.41-57.2 52.91-60.6 49.31-61.8L50.71-83.5C50.91-86 48.91-88.1 46.41-88.1C43.91-88.1 41.91-86 42.11-83.5L43.51-61.8C39.51-60.4 36.71-56.2 37.61-51.5C38.31-48 41.11-45.2 44.61-44.5C44.81-44.5 44.91-44.5 45.11-44.4L45.11-42.2C39.61-42.9 35.41-47.5 35.41-53.1C35.41-56.6 37.11-59.8 39.71-61.8C40.21-62.2 40.41-63 40.01-63.6C39.61-64.2 38.71-64.4 38.11-63.9C34.41-61.1 32.31-56.4 32.91-51.3C33.31-48.3 34.71-45.5 36.81-43.4L23.41-45.5C20.41-46 17.91-48.2 17.41-51.2C16.81-54.8 19.11-58.1 22.51-59L33.61-62C34.31-62.2 34.71-62.9 34.61-63.6C34.41-64.3 33.71-64.7 33.01-64.6L22.21-61.8C18.31-60.8 15.21-57.6 14.81-53.6C14.21-48.4 17.81-43.9 22.81-43.1L43.91-39.8C43.91-39.8 43.91-39.8 43.91-39.8C44.31-39.7 44.61-39.7 45.01-39.6C45.11-39.6 45.21-39.6 45.31-39.6L45.31-34.1L32.01-34.1C31.31-34.1 30.71-33.5 30.71-32.8C30.71-32.1 31.31-31.5 32.01-31.5L35.51-31.5L43.01-20.1C43.51-19.3 44.31-18.8 45.11-18.5L45.11-13.3C40.01-13.3 35.31-13.3 35.21-13.3C34.91-13.3 34.71-13.2 34.61-13.1C34.51-13 34.41-12.8 34.41-12.5C34.41-6.3 39.11-1.1 45.21-0.5L45.21 11.9L38.01 16.4C37.31 16.8 37.61 17.9 38.41 17.9L54.51 17.9C55.31 17.9 55.61 16.8 54.91 16.4L47.71 11.9L47.71-0.5C53.81-1.2 58.51-6.3 58.51-12.5C58.51-12.8 58.41-12.9 58.21-13.1C58.01-13.3 57.71-13.3 57.51-13.3C57.41-13.3 52.81-13.3 47.71-13.3L47.71-18.5C48.41-18.8 49.11-19.3 49.61-20L57.21-31.4L59.71-31.4C60.51-31.4 61.21-31.7 61.81-32.3L63.01-33.5C63.31-33.8 63.71-34 64.21-34L79.41-34C80.11-34 80.71-34.6 80.71-35.3C80.71-36 80.21-36.7 79.41-36.7ZM40.31-52.1C39.61-55.7 41.91-58.5 44.41-59.4C45.51-59.8 46.31-60.9 46.21-62.1L44.81-83.8C44.81-84.4 45.11-84.9 45.31-85.1C45.51-85.3 45.91-85.6 46.51-85.6C47.11-85.6 47.51-85.3 47.71-85.1C47.91-84.9 48.21-84.5 48.21-83.8L46.71-62C46.61-60.8 47.41-59.7 48.51-59.3C51.11-58.4 52.81-56 52.81-53.3C52.81-49.8 50.01-47 46.51-47C46.11-47 45.61-47 45.21-47.1C42.71-47.6 40.71-49.6 40.31-52.1ZM38.61-31.4L45.11-31.4L45.11-21.6L38.61-31.4ZM47.81-22L47.81-31.5L54.11-31.5L47.81-22ZM45.11-10.7L45.11-8L38.11-8C37.71-8.8 37.31-9.7 37.11-10.6L45.11-10.6ZM55.71-10.7C55.51-9.8 55.21-8.9 54.71-8.1L47.71-8.1L47.71-10.7L55.71-10.7Z"/>
  </g>
  <g id="Regular-S" transform="matrix(1 0 0 1 1405.19 696)">
   <path class="monochrome-0 SFSymbolsPreview000000" d="M74.6-36.5L60.3-36.5C59.2-36.5 58.2-36.1 57.4-35.3L56.2-34.1C56.1-34 56.1-34 56-34L44.7-34L44.7-39.2C51.3-39.8 56.4-45.3 56.4-52.1C56.4-56.3 54.4-59.9 51.4-62.3C50.8-62.7 50-62.6 49.6-62C49.2-61.5 49.4-60.7 49.9-60.3C52.8-58 54.5-54.3 53.8-50.1C53-45.9 49.7-42.6 45.5-41.8C45.3-41.8 45-41.7 44.8-41.7L44.8-43.8C48.9-44.4 52-47.9 52-52.2C52-55.9 49.6-59.1 46.3-60.2L47.6-80.7C47.8-83.1 45.9-85.1 43.5-85.1C41.1-85.1 39.3-83.1 39.4-80.7L40.7-60.2C36.9-58.9 34.3-54.9 35.2-50.5C35.8-47.2 38.5-44.5 41.8-43.9C42-43.9 42.1-43.9 42.3-43.8L42.3-41.7C37.1-42.3 33.1-46.7 33.1-52C33.1-55.3 34.7-58.3 37.1-60.2C37.6-60.6 37.7-61.3 37.4-61.9C37-62.5 36.2-62.7 35.6-62.2C32.1-59.5 30.1-55.1 30.7-50.3C31.1-47.4 32.4-44.8 34.4-42.9L21.7-44.9C18.9-45.3 16.5-47.5 16-50.3C15.4-53.7 17.6-56.8 20.8-57.7L31.3-60.4C32-60.6 32.4-61.3 32.2-61.9C32-62.6 31.3-63 30.7-62.8L20.5-60.1C16.8-59.1 13.9-56.1 13.5-52.3C13-47.4 16.3-43.1 21.1-42.4L41-39.5C41-39.5 41-39.5 41-39.5C41.3-39.4 41.7-39.4 42-39.3C42.1-39.3 42.2-39.3 42.2-39.3L42.2-34.1L29.8-34.1C29.1-34.1 28.6-33.5 28.6-32.9C28.6-32.3 29.2-31.7 29.8-31.7L33.1-31.7L40.3-20.9C40.8-20.1 41.5-19.7 42.3-19.4L42.3-14.5C37.5-14.5 33-14.5 32.9-14.5C32.6-14.5 32.5-14.4 32.3-14.3C32.2-14.2 32.1-14 32.1-13.7C32.1-7.8 36.6-3 42.3-2.4L42.3 9.4L35.5 13.6C34.8 14 35.1 15 35.9 15L51.1 15C51.9 15 52.2 14 51.5 13.6L44.7 9.4L44.7-2.4C50.5-3 54.9-7.8 54.9-13.7C54.9-14 54.8-14.1 54.6-14.3C54.4-14.5 54.1-14.5 53.9-14.5C53.8-14.5 49.4-14.5 44.7-14.5L44.7-19.4C45.4-19.7 46-20.1 46.5-20.8L53.7-31.6L56-31.6C56.7-31.6 57.5-31.9 58-32.4L59.2-33.6C59.5-33.9 59.9-34.1 60.3-34.1L74.7-34.1C75.4-34.1 75.9-34.7 75.9-35.3C75.9-35.9 75.3-36.5 74.6-36.5ZM37.6-51.1C36.9-54.5 39.1-57.1 41.5-58C42.6-58.4 43.3-59.4 43.2-60.5L41.9-81C41.9-81.6 42.2-82 42.3-82.2C42.5-82.4 42.9-82.7 43.5-82.7C44.1-82.7 44.5-82.4 44.7-82.2C44.9-82 45.2-81.6 45.1-81L43.8-60.5C43.7-59.4 44.4-58.3 45.5-58C47.9-57.2 49.5-54.9 49.5-52.4C49.5-49.1 46.8-46.4 43.5-46.4C43.1-46.4 42.7-46.4 42.3-46.5C40-46.9 38.1-48.8 37.6-51.1ZM36.1-31.6L42.3-31.6L42.3-22.4L36.1-31.6ZM44.7-22.7L44.7-31.7L50.7-31.7L44.7-22.7ZM42.2-12L42.2-9.5L35.6-9.5C35.2-10.3 34.9-11.1 34.7-12L42.2-12ZM52.2-12C52-11.1 51.7-10.3 51.3-9.5L44.7-9.5L44.7-12L52.2-12Z"/>
  </g>
  <g id="Ultralight-S" transform="matrix(1 0 0 1 518.811 696)">
   <path class="monochrome-0 SFSymbolsPreview000000" d="M68.304-36.4L55.104-36.4C54.104-36.4 53.204-36 52.504-35.3L51.404-34.2C51.404-34.2 51.304-34.1 51.204-34.1L40.904-34.1L40.904-39C46.904-39.6 51.604-44.6 51.604-50.8C51.604-54.6 49.804-58 47.004-60.2C46.504-60.6 45.704-60.5 45.304-59.9C45.004-59.4 45.104-58.7 45.604-58.4C48.304-56.3 49.804-52.9 49.104-49.1C48.404-45.3 45.304-42.2 41.504-41.5C41.304-41.5 41.004-41.4 40.804-41.4L40.804-43.3C44.504-43.9 47.404-47.1 47.404-51C47.404-54.4 45.204-57.3 42.204-58.3L43.504-77C43.604-79.2 41.904-81 39.804-81C37.604-81 35.904-79.2 36.104-77L37.304-58.2C33.804-57 31.404-53.4 32.204-49.3C32.804-46.3 35.204-43.8 38.204-43.2C38.304-43.2 38.504-43.2 38.604-43.1L38.604-41.2C33.904-41.8 30.204-45.8 30.204-50.7C30.204-53.8 31.704-56.5 33.904-58.2C34.404-58.6 34.504-59.2 34.204-59.7C33.804-60.3 33.104-60.4 32.504-60C29.304-57.5 27.404-53.5 28.004-49.1C28.304-46.5 29.604-44.1 31.404-42.3L19.804-44.1C17.204-44.5 15.004-46.4 14.604-49C14.104-52.1 16.004-55 19.004-55.8L28.704-58.3C29.304-58.5 29.704-59.1 29.504-59.7C29.304-60.3 28.704-60.7 28.104-60.5L18.704-58.1C15.304-57.2 12.704-54.4 12.304-51C11.804-46.5 14.904-42.6 19.204-41.9L37.504-39.1C37.504-39.1 37.504-39.1 37.504-39.1C37.804-39 38.104-39 38.404-39C38.504-39 38.604-39 38.604-39L38.604-34.2L27.204-34.2C26.604-34.2 26.104-33.7 26.104-33.1C26.104-32.5 26.604-32 27.204-32L30.204-32L36.804-22.1C37.304-21.4 37.904-21 38.604-20.7L38.604-16.2C34.204-16.2 30.104-16.2 30.004-16.2C29.804-16.2 29.604-16.1 29.504-16C29.404-15.9 29.304-15.7 29.304-15.5C29.304-10.1 33.404-5.7 38.604-5.1L38.604 5.6L32.404 9.5C31.804 9.9 32.104 10.8 32.804 10.8L46.804 10.8C47.504 10.8 47.804 9.9 47.204 9.5L41.004 5.6L41.004-5.1C46.204-5.7 50.304-10.1 50.304-15.5C50.304-15.7 50.204-15.9 50.104-16C49.904-16.2 49.604-16.2 49.504-16.2C49.404-16.2 45.404-16.2 41.004-16.2L41.004-20.7C41.604-20.9 42.204-21.4 42.704-22L49.304-31.9L51.404-31.9C52.104-31.9 52.704-32.2 53.204-32.6L54.304-33.7C54.604-34 54.904-34.1 55.304-34.1L68.504-34.1C69.104-34.1 69.604-34.6 69.604-35.2C69.604-35.8 69.004-36.4 68.304-36.4ZM34.404-49.8C33.804-52.9 35.704-55.3 38.004-56.1C39.004-56.4 39.604-57.4 39.504-58.4L38.304-77.2C38.304-77.7 38.504-78.1 38.704-78.3C38.904-78.5 39.204-78.8 39.804-78.8C40.304-78.8 40.704-78.5 40.904-78.3C41.104-78.1 41.304-77.8 41.304-77.2L40.004-58.4C39.904-57.4 40.604-56.4 41.504-56.1C43.704-55.3 45.204-53.3 45.204-50.9C45.204-47.9 42.704-45.4 39.704-45.4C39.304-45.4 39.004-45.4 38.604-45.5C36.504-46 34.804-47.7 34.404-49.8ZM33.004-31.9L38.604-31.9L38.604-23.4L33.004-31.9ZM40.904-23.7L40.904-31.9L46.404-31.9L40.904-23.7ZM38.604-13.9L38.604-11.6L32.504-11.6C32.104-12.3 31.804-13.1 31.704-13.9L38.604-13.9ZM47.804-13.9C47.604-13.1 47.404-12.3 47.004-11.6L40.904-11.6L40.904-13.9L47.804-13.9Z"/>
  </g>
 </g>
</svg>
