<?xml version="1.0" encoding="UTF-8"?>
<!--Generator: Apple Native CoreSVG 175.5-->
<!DOCTYPE svg
PUBLIC "-//W3C//DTD SVG 1.1//EN"
       "http://www.w3.org/Graphics/SVG/1.1/DTD/svg11.dtd">
<svg version="1.1" xmlns="http://www.w3.org/2000/svg" xmlns:xlink="http://www.w3.org/1999/xlink" width="3300" height="2200">
 <!--glyph: "", point size: 100.0, font version: "18.0d12e2", template writer version: "101"-->
 <style>.monochrome-0 {fill:#000000}

.SFSymbolsPreview000000 {fill:#000000;opacity:1.0}
</style>
 <g id="Notes">
  <rect height="2200" id="artboard" style="fill:white;opacity:1" width="3300" x="0" y="0"/>
  <line style="fill:none;stroke:black;opacity:1;stroke-width:0.5;" x1="263" x2="3036" y1="292" y2="292"/>
  <text style="stroke:none;fill:black;font-family:sans-serif;font-size:13;font-weight:bold;" transform="matrix(1 0 0 1 263 322)">Weight/Scale Variations</text>
  <text style="stroke:none;fill:black;font-family:sans-serif;font-size:13;text-anchor:middle;" transform="matrix(1 0 0 1 559.711 322)">Ultralight</text>
  <text style="stroke:none;fill:black;font-family:sans-serif;font-size:13;text-anchor:middle;" transform="matrix(1 0 0 1 856.422 322)">Thin</text>
  <text style="stroke:none;fill:black;font-family:sans-serif;font-size:13;text-anchor:middle;" transform="matrix(1 0 0 1 1153.13 322)">Light</text>
  <text style="stroke:none;fill:black;font-family:sans-serif;font-size:13;text-anchor:middle;" transform="matrix(1 0 0 1 1449.84 322)">Regular</text>
  <text style="stroke:none;fill:black;font-family:sans-serif;font-size:13;text-anchor:middle;" transform="matrix(1 0 0 1 1746.56 322)">Medium</text>
  <text style="stroke:none;fill:black;font-family:sans-serif;font-size:13;text-anchor:middle;" transform="matrix(1 0 0 1 2043.27 322)">Semibold</text>
  <text style="stroke:none;fill:black;font-family:sans-serif;font-size:13;text-anchor:middle;" transform="matrix(1 0 0 1 2339.98 322)">Bold</text>
  <text style="stroke:none;fill:black;font-family:sans-serif;font-size:13;text-anchor:middle;" transform="matrix(1 0 0 1 2636.69 322)">Heavy</text>
  <text style="stroke:none;fill:black;font-family:sans-serif;font-size:13;text-anchor:middle;" transform="matrix(1 0 0 1 2933.4 322)">Black</text>
  <line style="fill:none;stroke:black;opacity:1;stroke-width:0.5;" x1="263" x2="3036" y1="1903" y2="1903"/>
  <g transform="matrix(1 0 0 1 263 1933)">
   <path d="M9.24805 0.830078C13.5547 0.830078 17.1387-2.74414 17.1387-7.05078C17.1387-11.3574 13.5449-14.9316 9.23828-14.9316C4.94141-14.9316 1.36719-11.3574 1.36719-7.05078C1.36719-2.74414 4.95117 0.830078 9.24805 0.830078ZM9.24805-0.654297C5.70312-0.654297 2.87109-3.49609 2.87109-7.05078C2.87109-10.6055 5.69336-13.4473 9.23828-13.4473C12.793-13.4473 15.6445-10.6055 15.6445-7.05078C15.6445-3.49609 12.8027-0.654297 9.24805-0.654297ZM5.6543-7.05078C5.6543-6.62109 5.95703-6.32812 6.40625-6.32812L8.50586-6.32812L8.50586-4.20898C8.50586-3.76953 8.79883-3.4668 9.22852-3.4668C9.67773-3.4668 9.9707-3.76953 9.9707-4.20898L9.9707-6.32812L12.0898-6.32812C12.5293-6.32812 12.832-6.62109 12.832-7.05078C12.832-7.49023 12.5293-7.79297 12.0898-7.79297L9.9707-7.79297L9.9707-9.90234C9.9707-10.3516 9.67773-10.6543 9.22852-10.6543C8.79883-10.6543 8.50586-10.3516 8.50586-9.90234L8.50586-7.79297L6.40625-7.79297C5.95703-7.79297 5.6543-7.49023 5.6543-7.05078Z"/>
  </g>
  <g transform="matrix(1 0 0 1 281.867 1933)">
   <path d="M11.709 2.91016C17.1582 2.91016 21.6699-1.61133 21.6699-7.05078C21.6699-12.5 17.1484-17.0117 11.6992-17.0117C6.25977-17.0117 1.74805-12.5 1.74805-7.05078C1.74805-1.61133 6.26953 2.91016 11.709 2.91016ZM11.709 1.25C7.09961 1.25 3.41797-2.44141 3.41797-7.05078C3.41797-11.6602 7.08984-15.3516 11.6992-15.3516C16.3086-15.3516 20.0098-11.6602 20.0098-7.05078C20.0098-2.44141 16.3184 1.25 11.709 1.25ZM7.17773-7.05078C7.17773-6.57227 7.50977-6.25 8.00781-6.25L10.8789-6.25L10.8789-3.36914C10.8789-2.88086 11.2109-2.53906 11.6895-2.53906C12.1777-2.53906 12.5195-2.87109 12.5195-3.36914L12.5195-6.25L15.4004-6.25C15.8887-6.25 16.2305-6.57227 16.2305-7.05078C16.2305-7.53906 15.8887-7.88086 15.4004-7.88086L12.5195-7.88086L12.5195-10.752C12.5195-11.25 12.1777-11.5918 11.6895-11.5918C11.2109-11.5918 10.8789-11.25 10.8789-10.752L10.8789-7.88086L8.00781-7.88086C7.50977-7.88086 7.17773-7.53906 7.17773-7.05078Z"/>
  </g>
  <g transform="matrix(1 0 0 1 305.646 1933)">
   <path d="M14.9707 5.66406C21.9336 5.66406 27.6953-0.0976562 27.6953-7.05078C27.6953-14.0137 21.9238-19.7754 14.9609-19.7754C8.00781-19.7754 2.25586-14.0137 2.25586-7.05078C2.25586-0.0976562 8.01758 5.66406 14.9707 5.66406ZM14.9707 3.84766C8.93555 3.84766 4.08203-1.01562 4.08203-7.05078C4.08203-13.0957 8.92578-17.9492 14.9609-17.9492C21.0059-17.9492 25.8691-13.0957 25.8691-7.05078C25.8691-1.01562 21.0156 3.84766 14.9707 3.84766ZM9.19922-7.05078C9.19922-6.5332 9.57031-6.17188 10.1172-6.17188L14.0625-6.17188L14.0625-2.2168C14.0625-1.67969 14.4336-1.29883 14.9512-1.29883C15.4883-1.29883 15.8594-1.66992 15.8594-2.2168L15.8594-6.17188L19.8145-6.17188C20.3516-6.17188 20.7324-6.5332 20.7324-7.05078C20.7324-7.59766 20.3613-7.96875 19.8145-7.96875L15.8594-7.96875L15.8594-11.9141C15.8594-12.4609 15.4883-12.8418 14.9512-12.8418C14.4336-12.8418 14.0625-12.4609 14.0625-11.9141L14.0625-7.96875L10.1172-7.96875C9.57031-7.96875 9.19922-7.59766 9.19922-7.05078Z"/>
  </g>
  <text style="stroke:none;fill:black;font-family:sans-serif;font-size:13;font-weight:bold;" transform="matrix(1 0 0 1 263 1953)">Design Variations</text>
  <text style="stroke:none;fill:black;font-family:sans-serif;font-size:13;" transform="matrix(1 0 0 1 263 1971)">Symbols are supported in up to nine weights and three scales.</text>
  <text style="stroke:none;fill:black;font-family:sans-serif;font-size:13;" transform="matrix(1 0 0 1 263 1989)">For optimal layout with text and other symbols, vertically align</text>
  <text style="stroke:none;fill:black;font-family:sans-serif;font-size:13;" transform="matrix(1 0 0 1 263 2007)">symbols with the adjacent text.</text>
  <line style="fill:none;stroke:#00AEEF;stroke-width:0.5;opacity:1.0;" x1="776" x2="776" y1="1919" y2="1933"/>
  <g transform="matrix(1 0 0 1 776 1933)">
   <path d="M3.31055 0.15625C3.82812 0.15625 4.08203-0.0390625 4.26758-0.585938L5.52734-4.0332L11.2891-4.0332L12.5488-0.585938C12.7344-0.0390625 12.9883 0.15625 13.4961 0.15625C14.0137 0.15625 14.3457-0.15625 14.3457-0.644531C14.3457-0.810547 14.3164-0.966797 14.2383-1.17188L9.6582-13.3691C9.43359-13.9648 9.0332-14.2676 8.4082-14.2676C7.80273-14.2676 7.39258-13.9746 7.17773-13.3789L2.59766-1.16211C2.51953-0.957031 2.49023-0.800781 2.49023-0.634766C2.49023-0.146484 2.80273 0.15625 3.31055 0.15625ZM6.00586-5.51758L8.37891-12.0898L8.42773-12.0898L10.8008-5.51758Z"/>
  </g>
  <line style="fill:none;stroke:#00AEEF;stroke-width:0.5;opacity:1.0;" x1="793.197" x2="793.197" y1="1919" y2="1933"/>
  <text style="stroke:none;fill:black;font-family:sans-serif;font-size:13;font-weight:bold;" transform="matrix(1 0 0 1 776 1953)">Margins</text>
  <text style="stroke:none;fill:black;font-family:sans-serif;font-size:13;" transform="matrix(1 0 0 1 776 1971)">Leading and trailing margins on the left and right side of each symbol</text>
  <text style="stroke:none;fill:black;font-family:sans-serif;font-size:13;" transform="matrix(1 0 0 1 776 1989)">can be adjusted by modifying the x-location of the margin guidelines.</text>
  <text style="stroke:none;fill:black;font-family:sans-serif;font-size:13;" transform="matrix(1 0 0 1 776 2007)">Modifications are automatically applied proportionally to all</text>
  <text style="stroke:none;fill:black;font-family:sans-serif;font-size:13;" transform="matrix(1 0 0 1 776 2025)">scales and weights.</text>
  <g transform="matrix(1 0 0 1 1289 1933)">
   <path d="M2.8418 1.86523L4.54102 3.57422C5.40039 4.44336 6.38672 4.38477 7.31445 3.35938L18.0078-8.42773L17.041-9.4043L6.42578 2.27539C6.07422 2.67578 5.74219 2.77344 5.27344 2.30469L4.10156 1.14258C3.63281 0.683594 3.74023 0.341797 4.14062-0.0195312L15.6152-10.8203L14.6387-11.7871L3.04688-0.898438C2.06055 0.0195312 1.98242 0.996094 2.8418 1.86523ZM9.25781-16.3281C8.83789-15.918 8.80859-15.3418 9.04297-14.9512C9.27734-14.5898 9.73633-14.3555 10.3809-14.5215C11.8457-14.8633 13.3691-14.9219 14.7949-13.9844L14.209-12.5293C13.8672-11.6992 14.043-11.1133 14.5801-10.5664L16.875-8.25195C17.3633-7.76367 17.7734-7.74414 18.3398-7.8418L19.4043-8.03711L20.0684-7.36328L20.0293-6.80664C19.9902-6.30859 20.1172-5.92773 20.6055-5.44922L21.3672-4.70703C21.8457-4.22852 22.4609-4.19922 22.9297-4.66797L25.8398-7.58789C26.3086-8.05664 26.2891-8.65234 25.8105-9.13086L25.0391-9.89258C24.5605-10.3711 24.1895-10.5273 23.7109-10.4883L23.1348-10.4395L22.4902-11.0742L22.7344-12.1973C22.8613-12.7637 22.7051-13.2031 22.1191-13.7891L19.9219-15.9766C16.582-19.2969 12.1484-19.2188 9.25781-16.3281ZM10.752-15.957C13.1836-17.7344 16.4746-17.4316 18.7012-15.2051L21.1328-12.793C21.3672-12.5586 21.4062-12.373 21.3379-12.0312L21.0156-10.5469L22.5195-9.0625L23.5059-9.12109C23.7598-9.13086 23.8379-9.11133 24.0332-8.91602L24.6094-8.33984L22.168-5.89844L21.5918-6.47461C21.3965-6.66992 21.3672-6.74805 21.377-7.01172L21.4453-7.98828L19.9512-9.47266L18.4277-9.21875C18.1055-9.15039 17.959-9.17969 17.7148-9.41406L15.7129-11.416C15.459-11.6504 15.4297-11.8164 15.5859-12.1875L16.4648-14.2773C14.9023-15.7324 12.8711-16.3574 10.8398-15.7617C10.6836-15.7227 10.625-15.8496 10.752-15.957Z"/>
  </g>
  <text style="stroke:none;fill:black;font-family:sans-serif;font-size:13;font-weight:bold;" transform="matrix(1 0 0 1 1289 1953)">Exporting</text>
  <text style="stroke:none;fill:black;font-family:sans-serif;font-size:13;" transform="matrix(1 0 0 1 1289 1971)">Symbols should be outlined when exporting to ensure the</text>
  <text style="stroke:none;fill:black;font-family:sans-serif;font-size:13;" transform="matrix(1 0 0 1 1289 1989)">design is preserved when submitting to Xcode.</text>
  <text id="template-version" style="stroke:none;fill:black;font-family:sans-serif;font-size:13;text-anchor:end;" transform="matrix(1 0 0 1 3036 1933)">Template v.4.0</text>
  <text style="stroke:none;fill:black;font-family:sans-serif;font-size:13;text-anchor:end;" transform="matrix(1 0 0 1 3036 1951)">Requires Xcode 14 or greater</text>
  <text id="descriptive-name" style="stroke:none;fill:black;font-family:sans-serif;font-size:13;text-anchor:end;" transform="matrix(1 0 0 1 3036 1969)">Generated from cellar.six.bottles</text>
  <text style="stroke:none;fill:black;font-family:sans-serif;font-size:13;text-anchor:end;" transform="matrix(1 0 0 1 3036 1987)">Typeset at 100 points</text>
  <text style="stroke:none;fill:black;font-family:sans-serif;font-size:13;" transform="matrix(1 0 0 1 263 726)">Small</text>
  <text style="stroke:none;fill:black;font-family:sans-serif;font-size:13;" transform="matrix(1 0 0 1 263 1156)">Medium</text>
  <text style="stroke:none;fill:black;font-family:sans-serif;font-size:13;" transform="matrix(1 0 0 1 263 1586)">Large</text>
 </g>
 <g id="Guides">
  <g id="H-reference" style="fill:#27AAE1;stroke:none;" transform="matrix(1 0 0 1 339 696)">
   <path d="M0.993654 0L3.63775 0L29.3281-67.1323L30.0303-67.1323L30.0303-70.459L28.1226-70.459ZM11.6885-24.4799L46.9815-24.4799L46.2315-26.7285L12.4385-26.7285ZM55.1196 0L57.7637 0L30.6382-70.459L29.4326-70.459L29.4326-67.1323Z"/>
  </g>
  <line id="Baseline-S" style="fill:none;stroke:#27AAE1;opacity:1;stroke-width:0.5;" x1="263" x2="3036" y1="696" y2="696"/>
  <line id="Capline-S" style="fill:none;stroke:#27AAE1;opacity:1;stroke-width:0.5;" x1="263" x2="3036" y1="625.541" y2="625.541"/>
  <g id="H-reference" style="fill:#27AAE1;stroke:none;" transform="matrix(1 0 0 1 339 1126)">
   <path d="M0.993654 0L3.63775 0L29.3281-67.1323L30.0303-67.1323L30.0303-70.459L28.1226-70.459ZM11.6885-24.4799L46.9815-24.4799L46.2315-26.7285L12.4385-26.7285ZM55.1196 0L57.7637 0L30.6382-70.459L29.4326-70.459L29.4326-67.1323Z"/>
  </g>
  <line id="Baseline-M" style="fill:none;stroke:#27AAE1;opacity:1;stroke-width:0.5;" x1="263" x2="3036" y1="1126" y2="1126"/>
  <line id="Capline-M" style="fill:none;stroke:#27AAE1;opacity:1;stroke-width:0.5;" x1="263" x2="3036" y1="1055.54" y2="1055.54"/>
  <g id="H-reference" style="fill:#27AAE1;stroke:none;" transform="matrix(1 0 0 1 339 1556)">
   <path d="M0.993654 0L3.63775 0L29.3281-67.1323L30.0303-67.1323L30.0303-70.459L28.1226-70.459ZM11.6885-24.4799L46.9815-24.4799L46.2315-26.7285L12.4385-26.7285ZM55.1196 0L57.7637 0L30.6382-70.459L29.4326-70.459L29.4326-67.1323Z"/>
  </g>
  <line id="Baseline-L" style="fill:none;stroke:#27AAE1;opacity:1;stroke-width:0.5;" x1="263" x2="3036" y1="1556" y2="1556"/>
  <line id="Capline-L" style="fill:none;stroke:#27AAE1;opacity:1;stroke-width:0.5;" x1="263" x2="3036" y1="1485.54" y2="1485.54"/>
  <line id="left-margin-Ultralight-S" style="fill:none;stroke:#00AEEF;stroke-width:0.5;opacity:1.0;" x1="492.811" x2="492.811" y1="600.785" y2="720.121"/>
  <line id="right-margin-Ultralight-S" style="fill:none;stroke:#00AEEF;stroke-width:0.5;opacity:1.0;" x1="626.611" x2="626.611" y1="600.785" y2="720.121"/>
  <line id="left-margin-Regular-S" style="fill:none;stroke:#00AEEF;stroke-width:0.5;opacity:1.0;" x1="1376.19" x2="1376.19" y1="600.785" y2="720.121"/>
  <line id="right-margin-Regular-S" style="fill:none;stroke:#00AEEF;stroke-width:0.5;opacity:1.0;" x1="1523.49" x2="1523.49" y1="600.785" y2="720.121"/>
  <line id="left-margin-Black-S" style="fill:none;stroke:#00AEEF;stroke-width:0.5;opacity:1.0;" x1="2856.7" x2="2856.7" y1="600.785" y2="720.121"/>
  <line id="right-margin-Black-S" style="fill:none;stroke:#00AEEF;stroke-width:0.5;opacity:1.0;" x1="3010.1" x2="3010.1" y1="600.785" y2="720.121"/>
 </g>
 <g id="Symbols">
  <g id="Black-S" transform="matrix(1 0 0 1 2856.7 696)">
   <path class="monochrome-0 SFSymbolsPreview000000" d="M72.91-51.3C73.91-51.3 74.81-52.1 74.81-53.2L74.81-70.8C74.81-71.8 74.01-72.7 72.91-72.7L56.31-72.7L56.31-80.7C56.31-82.2 55.11-83.4 53.61-83.4C52.11-83.4 50.91-82.2 50.91-80.7L50.91-72.7L40.81-72.7C36.41-72.7 32.61-70 31.01-66.2L19.91-66.2L19.91-57.8L31.01-57.8C32.61-54 36.41-51.3 40.81-51.3L51.01-51.3L51.01-45.8L40.81-45.8C36.41-45.8 32.61-43.1 31.01-39.3L19.91-39.3L19.91-30.9L31.01-30.9C32.61-27.1 36.41-24.4 40.81-24.4L51.01-24.4L51.01-18.9L40.81-18.9C36.41-18.9 32.61-16.2 31.01-12.4L19.91-12.4L19.91-4L31.01-4C32.61-0.2 36.41 2.5 40.81 2.5L51.01 2.5L51.01 10.4C51.01 11.9 52.21 13.1 53.71 13.1C55.21 13.1 56.41 11.9 56.41 10.4L56.41 2.5L73.01 2.5C74.01 2.5 74.91 1.7 74.91 0.6L74.91-17C74.91-18 74.11-18.9 73.01-18.9L56.31-18.9L56.31-24.4L72.91-24.4C73.91-24.4 74.81-25.2 74.81-26.3L74.81-43.9C74.81-44.9 74.01-45.8 72.91-45.8L56.31-45.8L56.31-51.3L72.91-51.3ZM140.61-51.3C141.61-51.3 142.51-52.1 142.51-53.2L142.51-70.8C142.51-71.8 141.71-72.7 140.61-72.7L124.01-72.7L124.01-80.7C124.01-82.2 122.81-83.4 121.31-83.4C119.81-83.4 118.61-82.2 118.61-80.7L118.61-72.7L108.51-72.7C104.11-72.7 100.31-70 98.71-66.2L87.51-66.2L87.51-57.8L98.61-57.8C100.21-54 104.01-51.3 108.41-51.3L118.51-51.3L118.51-45.8L108.51-45.8C104.11-45.8 100.31-43.1 98.71-39.3L87.51-39.3L87.51-30.9L98.61-30.9C100.21-27.1 104.01-24.4 108.41-24.4L118.51-24.4L118.51-18.9L108.51-18.9C104.11-18.9 100.31-16.2 98.71-12.4L87.51-12.4L87.51-4L98.61-4C100.21-0.2 104.01 2.5 108.41 2.5L118.51 2.5L118.51 10.4C118.51 11.9 119.71 13.1 121.21 13.1C122.71 13.1 123.91 11.9 123.91 10.4L123.91 2.5L140.51 2.5C141.51 2.5 142.41 1.7 142.41 0.6L142.41-17C142.41-18 141.61-18.9 140.51-18.9L123.91-18.9L123.91-24.4L140.51-24.4C141.51-24.4 142.41-25.2 142.41-26.3L142.41-43.9C142.41-44.9 141.61-45.8 140.51-45.8L123.91-45.8L123.91-51.3L140.61-51.3ZM72.11-16.2L72.11-0.2L40.81-0.2C37.61-0.2 34.71-2.1 33.41-5.1C33.01-6.1 32.01-6.7 30.91-6.7L22.51-6.7L22.51-9.8L31.01-9.8C32.11-9.8 33.01-10.4 33.51-11.4C34.81-14.4 37.71-16.3 40.91-16.3L72.11-16.3ZM72.11-43.1L72.11-27.1L40.81-27.1C37.61-27.1 34.71-29 33.41-32C33.01-33 32.01-33.6 30.91-33.6L22.51-33.6L22.51-36.7L31.01-36.7C32.11-36.7 33.01-37.3 33.51-38.3C34.81-41.3 37.71-43.2 40.91-43.2L72.11-43.2ZM139.81-43.1L139.81-27.1L108.51-27.1C105.31-27.1 102.41-29 101.11-32C100.71-33 99.71-33.6 98.61-33.6L90.11-33.6L90.11-36.7L98.61-36.7C99.71-36.7 100.61-37.3 101.11-38.3C102.41-41.3 105.31-43.2 108.51-43.2L139.81-43.2ZM108.51-53.9C105.31-53.9 102.41-55.8 101.11-58.8C100.71-59.8 99.71-60.4 98.61-60.4L90.11-60.4L90.11-63.5L98.61-63.5C99.71-63.5 100.61-64.1 101.11-65.1C102.41-68.1 105.31-70 108.51-70L139.81-70L139.81-54L108.51-54ZM139.81-16.2L139.81-0.2L108.51-0.2C105.31-0.2 102.41-2.1 101.11-5.1C100.71-6.1 99.71-6.7 98.61-6.7L90.11-6.7L90.11-9.8L98.61-9.8C99.71-9.8 100.61-10.4 101.11-11.4C102.41-14.4 105.31-16.3 108.51-16.3L139.81-16.3ZM40.81-53.9C37.61-53.9 34.71-55.8 33.41-58.8C33.01-59.8 32.01-60.4 30.91-60.4L22.51-60.4L22.51-63.5L31.01-63.5C32.11-63.5 33.01-64.1 33.51-65.1C34.81-68.1 37.71-70 40.91-70L72.21-70L72.21-54L40.81-54ZM43.81-3.3L43.81-13C43.81-13.5 44.21-13.9 44.71-13.9L62.31-13.9C62.81-13.9 63.21-13.5 63.21-13L63.21-3.3C63.21-2.8 62.81-2.4 62.31-2.4L44.71-2.4C44.21-2.4 43.81-2.8 43.81-3.3ZM111.41-3.3L111.41-13C111.41-13.5 111.81-13.9 112.31-13.9L129.91-13.9C130.41-13.9 130.81-13.5 130.81-13L130.81-3.3C130.81-2.8 130.41-2.4 129.91-2.4L112.31-2.4C111.81-2.4 111.41-2.8 111.41-3.3ZM43.81-30.2L43.81-40C43.81-40.5 44.21-40.9 44.71-40.9L62.31-40.9C62.81-40.9 63.21-40.5 63.21-40L63.21-30.3C63.21-29.8 62.81-29.4 62.31-29.4L44.71-29.4C44.21-29.3 43.81-29.7 43.81-30.2ZM111.41-30.2L111.41-40C111.41-40.5 111.81-40.9 112.31-40.9L129.91-40.9C130.41-40.9 130.81-40.5 130.81-40L130.81-30.3C130.81-29.8 130.41-29.4 129.91-29.4L112.31-29.4C111.81-29.3 111.41-29.7 111.41-30.2ZM111.41-57.1L111.41-66.8C111.41-67.3 111.81-67.7 112.31-67.7L129.91-67.7C130.41-67.7 130.81-67.3 130.81-66.8L130.81-57.1C130.81-56.6 130.41-56.2 129.91-56.2L112.31-56.2C111.81-56.2 111.41-56.6 111.41-57.1ZM43.81-57.1L43.81-66.8C43.81-67.3 44.21-67.7 44.71-67.7L62.31-67.7C62.81-67.7 63.21-67.3 63.21-66.8L63.21-57.1C63.21-56.6 62.81-56.2 62.31-56.2L44.71-56.2C44.21-56.2 43.81-56.6 43.81-57.1ZM85.11-39.2L81.11-39.2C80.11-39.2 79.11-38.4 79.11-37.2L79.11-32.7C79.11-31.7 79.91-30.7 81.11-30.7L81.11-30.7L85.11-30.7L85.11-39.2L85.11-39.2ZM17.51-39.2L13.51-39.2C12.51-39.2 11.51-38.4 11.51-37.2L11.51-32.7C11.51-31.7 12.31-30.7 13.51-30.7L13.51-30.7L17.51-30.7L17.51-39.2L17.51-39.2ZM85.11-12.3L81.11-12.3C80.11-12.3 79.11-11.5 79.11-10.3L79.11-5.8C79.11-4.8 79.91-3.8 81.11-3.8L81.11-3.8L85.11-3.8L85.11-12.3L85.11-12.3ZM17.51-12.3L13.51-12.3C12.51-12.3 11.51-11.5 11.51-10.3L11.51-5.8C11.51-4.8 12.31-3.8 13.51-3.8L13.51-3.8L17.51-3.8L17.51-12.3L17.51-12.3ZM17.51-66.1L13.51-66.1C12.51-66.1 11.51-65.3 11.51-64.1L11.51-59.6C11.51-58.6 12.31-57.6 13.51-57.6L13.51-57.6L17.51-57.6L17.51-66.1L17.51-66.1ZM85.11-66.1L81.11-66.1C80.11-66.1 79.11-65.3 79.11-64.1L79.11-59.6C79.11-58.6 79.91-57.6 81.11-57.6L81.11-57.6L85.11-57.6L85.11-66.1L85.11-66.1Z"/>
  </g>
  <g id="Regular-S" transform="matrix(1 0 0 1 1376.19 696)">
   <path class="monochrome-0 SFSymbolsPreview000000" d="M69.9-50.4C70.9-50.4 71.6-51.2 71.6-52.1L71.6-68.6C71.6-69.6 70.8-70.3 69.9-70.3L54.3-70.3L54.3-77.8C54.3-79.2 53.2-80.3 51.8-80.3C50.4-80.3 49.3-79.2 49.3-77.8L49.3-70.3L39.8-70.3C35.7-70.3 32.1-67.8 30.6-64.2L20.1-64.2L20.1-56.3L30.5-56.3C32-52.7 35.6-50.2 39.7-50.2L49.2-50.2L49.2-45L39.7-45C35.6-45 32-42.5 30.5-38.9L20.1-38.9L20.1-31L30.5-31C32-27.4 35.6-24.9 39.7-24.9L49.2-24.9L49.2-19.7L39.7-19.7C35.6-19.7 32-17.2 30.5-13.6L20.1-13.6L20.1-6L30.5-6C32-2.4 35.6 0.1 39.7 0.1L49.2 0.1L49.2 7.5C49.2 8.9 50.3 10 51.7 10C53.1 10 54.2 8.9 54.2 7.5L54.2 0.1L69.8 0.1C70.8 0.1 71.5-0.7 71.5-1.6L71.5-18.1C71.5-19.1 70.7-19.8 69.8-19.8L54.3-19.8L54.3-25L69.9-25C70.9-25 71.6-25.8 71.6-26.7L71.6-43.2C71.6-44.2 70.8-44.9 69.9-44.9L54.3-44.9L54.3-50.1L69.9-50.1ZM133.3-50.4C134.3-50.4 135-51.2 135-52.1L135-68.6C135-69.6 134.2-70.3 133.3-70.3L117.7-70.3L117.7-77.8C117.7-79.2 116.6-80.3 115.2-80.3C113.8-80.3 112.7-79.2 112.7-77.8L112.7-70.3L103.2-70.3C99.1-70.3 95.5-67.8 94-64.2L83.5-64.2L83.5-56.3L94-56.3C95.5-52.7 99.1-50.2 103.2-50.2L112.7-50.2L112.7-45L103.2-45C99.1-45 95.5-42.5 94-38.9L83.5-38.9L83.5-31L94-31C95.5-27.4 99.1-24.9 103.2-24.9L112.7-24.9L112.7-19.7L103.2-19.7C99.1-19.7 95.5-17.2 94-13.6L83.5-13.6L83.5-6L94-6C95.5-2.4 99.1 0.1 103.2 0.1L112.7 0.1L112.7 7.5C112.7 8.9 113.8 10 115.2 10C116.6 10 117.7 8.9 117.7 7.5L117.7 0.1L133.3 0.1C134.3 0.1 135-0.7 135-1.6L135-18.1C135-19.1 134.2-19.8 133.3-19.8L117.7-19.8L117.7-25L133.3-25C134.3-25 135-25.8 135-26.7L135-43.2C135-44.2 134.2-44.9 133.3-44.9L117.7-44.9L117.7-50.1L133.3-50.1ZM69.1-17.5L69.1-2.5L39.8-2.5C36.8-2.5 34.1-4.3 32.9-7.1C32.5-8 31.6-8.6 30.6-8.6L22.6-8.6L22.6-11.5L30.5-11.5C31.5-11.5 32.4-12.1 32.8-13C34-15.8 36.7-17.6 39.7-17.6L69.1-17.6ZM69.1-42.7L69.1-27.7L39.8-27.7C36.8-27.7 34.1-29.5 32.9-32.3C32.5-33.2 31.6-33.8 30.6-33.8L22.6-33.8L22.6-36.7L30.5-36.7C31.5-36.7 32.4-37.3 32.8-38.2C34-41 36.7-42.8 39.7-42.8L69.1-42.8ZM132.5-42.7L132.5-27.7L103.2-27.7C100.2-27.7 97.5-29.5 96.3-32.3C95.9-33.2 95-33.8 94-33.8L86-33.8L86-36.7L94-36.7C95-36.7 95.9-37.3 96.3-38.2C97.5-41 100.2-42.8 103.2-42.8L132.5-42.8ZM103.2-52.9C100.2-52.9 97.5-54.7 96.3-57.5C95.9-58.4 95-59 94-59L86-59L86-61.9L94-61.9C95-61.9 95.9-62.5 96.3-63.4C97.5-66.2 100.2-68 103.2-68L132.5-68L132.5-53L103.2-53ZM132.5-17.5L132.5-2.5L103.2-2.5C100.2-2.5 97.5-4.3 96.3-7.1C95.9-7.9 95-8.5 94-8.5L86-8.5L86-11.4L94-11.4C95-11.4 95.9-12 96.3-12.9C97.5-15.7 100.2-17.5 103.2-17.5L132.5-17.5ZM39.8-52.9C36.8-52.9 34.1-54.7 32.9-57.5C32.5-58.4 31.6-59 30.6-59L22.6-59L22.6-61.9L30.5-61.9C31.5-61.9 32.4-62.5 32.8-63.4C34-66.2 36.7-68 39.7-68L69-68L69-53L39.8-53ZM42.5-5.4L42.5-14.5C42.5-15 42.9-15.4 43.4-15.4L59.9-15.4C60.4-15.4 60.8-15 60.8-14.5L60.8-5.4C60.8-4.9 60.4-4.5 59.9-4.5L43.4-4.5C42.9-4.5 42.5-4.9 42.5-5.4ZM105.9-5.4L105.9-14.5C105.9-15 106.3-15.4 106.8-15.4L123.3-15.4C123.8-15.4 124.2-15 124.2-14.5L124.2-5.4C124.2-4.9 123.8-4.5 123.3-4.5L106.8-4.5C106.3-4.5 105.9-4.9 105.9-5.4ZM42.5-30.7L42.5-39.8C42.5-40.3 42.9-40.7 43.4-40.7L59.9-40.7C60.4-40.7 60.8-40.3 60.8-39.8L60.8-30.7C60.8-30.2 60.4-29.8 59.9-29.8L43.4-29.8C42.9-29.8 42.5-30.2 42.5-30.7ZM105.9-30.7L105.9-39.8C105.9-40.3 106.3-40.7 106.8-40.7L123.3-40.7C123.8-40.7 124.2-40.3 124.2-39.8L124.2-30.7C124.2-30.2 123.8-29.8 123.3-29.8L106.8-29.8C106.3-29.8 105.9-30.2 105.9-30.7ZM105.9-55.9L105.9-65C105.9-65.5 106.3-65.9 106.8-65.9L123.3-65.9C123.8-65.9 124.2-65.5 124.2-65L124.2-55.9C124.2-55.4 123.8-55 123.3-55L106.8-55C106.3-55 105.9-55.4 105.9-55.9ZM42.5-55.9L42.5-65C42.5-65.5 42.9-65.9 43.4-65.9L59.9-65.9C60.4-65.9 60.8-65.5 60.8-65L60.8-55.9C60.8-55.4 60.4-55 59.9-55L43.4-55C42.9-55 42.5-55.4 42.5-55.9ZM81.3-39.1L77.6-39.1C76.6-39.1 75.8-38.3 75.8-37.3L75.8-33.1C75.8-32.1 76.6-31.3 77.6-31.3L77.6-31.3L81.3-31.3L81.3-39.1L81.3-39.1ZM17.9-39.1L14.2-39.1C13.2-39.1 12.4-38.3 12.4-37.3L12.4-33.1C12.4-32.1 13.2-31.3 14.2-31.3L14.2-31.3L17.9-31.3L17.9-39.1L17.9-39.1ZM81.3-13.8L77.6-13.8C76.6-13.8 75.8-13 75.8-12L75.8-7.8C75.8-6.8 76.6-6 77.6-6L77.6-6L81.3-6L81.3-13.8L81.3-13.8ZM17.9-13.8L14.2-13.8C13.2-13.8 12.4-13 12.4-12L12.4-7.8C12.4-6.8 13.2-6 14.2-6L14.2-6L17.9-6L17.9-13.8L17.9-13.8ZM17.9-64.3L14.2-64.3C13.2-64.3 12.4-63.5 12.4-62.5L12.4-58.3C12.4-57.3 13.2-56.5 14.2-56.5L14.2-56.5L17.9-56.5L17.9-64.3L17.9-64.3ZM81.3-64.3L77.6-64.3C76.6-64.3 75.8-63.5 75.8-62.5L75.8-58.3C75.8-57.3 76.6-56.5 77.6-56.5L77.6-56.5L81.3-56.5L81.3-64.3L81.3-64.3Z"/>
  </g>
  <g id="Ultralight-S" transform="matrix(1 0 0 1 492.811 696)">
   <path class="monochrome-0 SFSymbolsPreview000000" d="M63.404-49.1C64.304-49.1 65.004-49.8 65.004-50.7L65.004-65.9C65.004-66.8 64.304-67.5 63.404-67.5L49.104-67.5L49.104-74.4C49.104-75.7 48.104-76.7 46.804-76.7C45.504-76.7 44.504-75.7 44.504-74.4L44.504-67.5L35.804-67.5C32.004-67.5 28.704-65.2 27.304-61.9L17.704-61.9L17.704-54.7L27.304-54.7C28.704-51.4 32.004-49.1 35.804-49.1L44.504-49.1L44.504-44.3L35.804-44.3C32.004-44.3 28.704-42 27.304-38.7L17.704-38.7L17.704-31.5L27.304-31.5C28.704-28.2 32.004-25.9 35.804-25.9L44.504-25.9L44.504-21.1L35.804-21.1C32.004-21.1 28.704-18.8 27.304-15.5L17.704-15.5L17.704-8.3L27.304-8.3C28.704-5 32.004-2.7 35.804-2.7L44.504-2.7L44.504 4C44.504 5.3 45.504 6.3 46.804 6.3C48.104 6.3 49.104 5.3 49.104 4L49.104-2.8L63.404-2.8C64.304-2.8 65.004-3.5 65.004-4.4L65.004-19.6C65.004-20.5 64.304-21.2 63.404-21.2L49.104-21.2L49.104-26L63.404-26C64.304-26 65.004-26.7 65.004-27.6L65.004-42.8C65.004-43.7 64.304-44.4 63.404-44.4L49.104-44.4L49.104-49.2L63.404-49.2ZM121.604-49.1C122.504-49.1 123.204-49.8 123.204-50.7L123.204-65.9C123.204-66.8 122.504-67.5 121.604-67.5L107.304-67.5L107.304-74.4C107.304-75.7 106.304-76.7 105.004-76.7C103.704-76.7 102.704-75.7 102.704-74.4L102.704-67.5L94.004-67.5C90.204-67.5 86.904-65.2 85.504-61.9L76.004-61.9L76.004-54.7L85.604-54.7C87.004-51.4 90.304-49.1 94.104-49.1L102.804-49.1L102.804-44.3L94.004-44.3C90.204-44.3 86.904-42 85.504-38.7L76.004-38.7L76.004-31.5L85.604-31.5C87.004-28.3 90.204-26 94.004-26L102.704-26L102.704-21.2L94.004-21.2C90.204-21.2 86.904-18.9 85.504-15.6L76.004-15.6L76.004-8.4L85.604-8.4C87.004-5.1 90.204-2.8 94.004-2.8L102.704-2.8L102.704 4C102.704 5.3 103.704 6.3 105.004 6.3C106.304 6.3 107.304 5.3 107.304 4L107.304-2.8L121.604-2.8C122.504-2.8 123.204-3.5 123.204-4.4L123.204-19.6C123.204-20.5 122.504-21.2 121.604-21.2L107.304-21.2L107.304-26L121.604-26C122.504-26 123.204-26.7 123.204-27.6L123.204-42.8C123.204-43.7 122.504-44.4 121.604-44.4L107.304-44.4L107.304-49.2L121.604-49.2ZM62.704-18.9L62.704-5.1L35.804-5.1C33.004-5.1 30.504-6.7 29.504-9.3C29.104-10.1 28.304-10.7 27.404-10.7L20.004-10.7L20.004-13.3L27.304-13.3C28.204-13.3 29.004-13.8 29.404-14.7C30.504-17.2 33.004-18.9 35.704-18.9L62.704-18.9ZM62.704-42.1L62.704-28.3L35.804-28.3C33.004-28.3 30.504-29.9 29.504-32.5C29.104-33.3 28.304-33.9 27.404-33.9L20.004-33.9L20.004-36.5L27.304-36.5C28.204-36.5 29.004-37 29.404-37.9C30.504-40.4 33.004-42.1 35.704-42.1L62.704-42.1ZM121.004-42.1L121.004-28.3L94.004-28.3C91.204-28.3 88.704-29.9 87.704-32.5C87.304-33.3 86.504-33.9 85.604-33.9L78.304-33.9L78.304-36.5L85.604-36.5C86.504-36.5 87.304-37 87.704-37.9C88.804-40.4 91.304-42.1 94.004-42.1L121.004-42.1ZM94.004-51.4C91.204-51.4 88.704-53 87.704-55.6C87.304-56.4 86.504-57 85.604-57L78.304-57L78.304-59.6L85.604-59.6C86.504-59.6 87.304-60.1 87.704-61C88.804-63.5 91.304-65.2 94.004-65.2L121.004-65.2L121.004-51.4L94.004-51.4ZM121.004-18.9L121.004-5.1L94.004-5.1C91.204-5.1 88.704-6.7 87.704-9.3C87.304-10.1 86.504-10.7 85.604-10.7L78.304-10.7L78.304-13.3L85.604-13.3C86.504-13.3 87.304-13.8 87.704-14.7C88.804-17.2 91.304-18.9 94.004-18.9L121.004-18.9ZM35.804-51.4C33.004-51.4 30.504-53 29.504-55.6C29.104-56.4 28.304-57 27.404-57L20.004-57L20.004-59.6L27.304-59.6C28.204-59.6 29.004-60.1 29.404-61C30.504-63.5 33.004-65.2 35.704-65.2L62.604-65.2L62.604-51.4L35.804-51.4ZM38.304-7.8L38.304-16.2C38.304-16.6 38.704-17 39.104-17L54.204-17C54.604-17 55.004-16.6 55.004-16.2L55.004-7.8C55.004-7.3 54.704-7 54.204-7L39.104-7C38.704-7 38.304-7.3 38.304-7.8ZM96.504-7.8L96.504-16.2C96.504-16.6 96.904-17 97.304-17L112.404-17C112.804-17 113.204-16.6 113.204-16.2L113.204-7.8C113.204-7.4 112.804-7 112.404-7L97.304-7C96.904-7 96.504-7.3 96.504-7.8ZM38.304-31L38.304-39.4C38.304-39.8 38.704-40.2 39.104-40.2L54.204-40.2C54.604-40.2 55.004-39.8 55.004-39.4L55.004-31C55.004-30.6 54.604-30.2 54.204-30.2L39.104-30.2C38.704-30.2 38.304-30.6 38.304-31ZM96.504-31L96.504-39.4C96.504-39.8 96.904-40.2 97.304-40.2L112.404-40.2C112.804-40.2 113.204-39.8 113.204-39.4L113.204-31C113.204-30.6 112.804-30.2 112.404-30.2L97.304-30.2C96.904-30.2 96.504-30.6 96.504-31ZM96.504-54.1L96.504-62.5C96.504-62.9 96.904-63.3 97.304-63.3L112.404-63.3C112.804-63.3 113.204-62.9 113.204-62.5L113.204-54.1C113.204-53.7 112.804-53.3 112.404-53.3L97.304-53.3C96.904-53.3 96.504-53.7 96.504-54.1ZM38.304-54.1L38.304-62.5C38.304-62.9 38.704-63.3 39.104-63.3L54.204-63.3C54.604-63.3 55.004-62.9 55.004-62.5L55.004-54.1C55.004-53.7 54.604-53.3 54.204-53.3L39.104-53.3C38.704-53.3 38.304-53.7 38.304-54.1ZM73.904-38.7L70.504-38.7C69.604-38.7 68.804-38 68.804-37L68.804-33.1C68.804-32.2 69.504-31.4 70.504-31.4L70.504-31.4L73.904-31.4L73.904-38.7L73.904-38.7ZM15.704-38.7L12.304-38.7C11.404-38.7 10.604-38 10.604-37L10.604-33.1C10.604-32.2 11.304-31.4 12.304-31.4L12.304-31.4L15.704-31.4L15.704-38.7L15.704-38.7ZM73.904-15.5L70.504-15.5C69.604-15.5 68.804-14.8 68.804-13.8L68.804-9.9C68.804-9 69.504-8.2 70.504-8.2L70.504-8.2L73.904-8.2L73.904-15.5L73.904-15.5ZM15.704-15.5L12.304-15.5C11.404-15.5 10.604-14.8 10.604-13.8L10.604-9.9C10.604-9 11.304-8.2 12.304-8.2L12.304-8.2L15.704-8.2L15.704-15.5L15.704-15.5ZM15.704-61.9L12.304-61.9C11.404-61.9 10.604-61.2 10.604-60.2L10.604-56.3C10.604-55.4 11.304-54.6 12.304-54.6L12.304-54.6L15.704-54.6L15.704-61.9L15.704-61.9ZM73.904-61.9L70.504-61.9C69.604-61.9 68.804-61.2 68.804-60.2L68.804-56.3C68.804-55.4 69.504-54.6 70.504-54.6L70.504-54.6L73.904-54.6L73.904-61.9L73.904-61.9Z"/>
  </g>
 </g>
</svg>
