<?xml version="1.0" encoding="UTF-8"?>
<!--Generator: Apple Native CoreSVG 175.5-->
<!DOCTYPE svg
PUBLIC "-//W3C//DTD SVG 1.1//EN"
       "http://www.w3.org/Graphics/SVG/1.1/DTD/svg11.dtd">
<svg version="1.1" xmlns="http://www.w3.org/2000/svg" xmlns:xlink="http://www.w3.org/1999/xlink" width="3300" height="2200">
 <!--glyph: "", point size: 100.0, font version: "18.0d12e2", template writer version: "101"-->
 <style>.monochrome-0 {fill:#000000}

.SFSymbolsPreview000000 {fill:#000000;opacity:1.0}
</style>
 <g id="Notes">
  <rect height="2200" id="artboard" style="fill:white;opacity:1" width="3300" x="0" y="0"/>
  <line style="fill:none;stroke:black;opacity:1;stroke-width:0.5;" x1="263" x2="3036" y1="292" y2="292"/>
  <text style="stroke:none;fill:black;font-family:sans-serif;font-size:13;font-weight:bold;" transform="matrix(1 0 0 1 263 322)">Weight/Scale Variations</text>
  <text style="stroke:none;fill:black;font-family:sans-serif;font-size:13;text-anchor:middle;" transform="matrix(1 0 0 1 559.711 322)">Ultralight</text>
  <text style="stroke:none;fill:black;font-family:sans-serif;font-size:13;text-anchor:middle;" transform="matrix(1 0 0 1 856.422 322)">Thin</text>
  <text style="stroke:none;fill:black;font-family:sans-serif;font-size:13;text-anchor:middle;" transform="matrix(1 0 0 1 1153.13 322)">Light</text>
  <text style="stroke:none;fill:black;font-family:sans-serif;font-size:13;text-anchor:middle;" transform="matrix(1 0 0 1 1449.84 322)">Regular</text>
  <text style="stroke:none;fill:black;font-family:sans-serif;font-size:13;text-anchor:middle;" transform="matrix(1 0 0 1 1746.56 322)">Medium</text>
  <text style="stroke:none;fill:black;font-family:sans-serif;font-size:13;text-anchor:middle;" transform="matrix(1 0 0 1 2043.27 322)">Semibold</text>
  <text style="stroke:none;fill:black;font-family:sans-serif;font-size:13;text-anchor:middle;" transform="matrix(1 0 0 1 2339.98 322)">Bold</text>
  <text style="stroke:none;fill:black;font-family:sans-serif;font-size:13;text-anchor:middle;" transform="matrix(1 0 0 1 2636.69 322)">Heavy</text>
  <text style="stroke:none;fill:black;font-family:sans-serif;font-size:13;text-anchor:middle;" transform="matrix(1 0 0 1 2933.4 322)">Black</text>
  <line style="fill:none;stroke:black;opacity:1;stroke-width:0.5;" x1="263" x2="3036" y1="1903" y2="1903"/>
  <g transform="matrix(1 0 0 1 263 1933)">
   <path d="M9.24805 0.830078C13.5547 0.830078 17.1387-2.74414 17.1387-7.05078C17.1387-11.3574 13.5449-14.9316 9.23828-14.9316C4.94141-14.9316 1.36719-11.3574 1.36719-7.05078C1.36719-2.74414 4.95117 0.830078 9.24805 0.830078ZM9.24805-0.654297C5.70312-0.654297 2.87109-3.49609 2.87109-7.05078C2.87109-10.6055 5.69336-13.4473 9.23828-13.4473C12.793-13.4473 15.6445-10.6055 15.6445-7.05078C15.6445-3.49609 12.8027-0.654297 9.24805-0.654297ZM5.6543-7.05078C5.6543-6.62109 5.95703-6.32812 6.40625-6.32812L8.50586-6.32812L8.50586-4.20898C8.50586-3.76953 8.79883-3.4668 9.22852-3.4668C9.67773-3.4668 9.9707-3.76953 9.9707-4.20898L9.9707-6.32812L12.0898-6.32812C12.5293-6.32812 12.832-6.62109 12.832-7.05078C12.832-7.49023 12.5293-7.79297 12.0898-7.79297L9.9707-7.79297L9.9707-9.90234C9.9707-10.3516 9.67773-10.6543 9.22852-10.6543C8.79883-10.6543 8.50586-10.3516 8.50586-9.90234L8.50586-7.79297L6.40625-7.79297C5.95703-7.79297 5.6543-7.49023 5.6543-7.05078Z"/>
  </g>
  <g transform="matrix(1 0 0 1 281.867 1933)">
   <path d="M11.709 2.91016C17.1582 2.91016 21.6699-1.61133 21.6699-7.05078C21.6699-12.5 17.1484-17.0117 11.6992-17.0117C6.25977-17.0117 1.74805-12.5 1.74805-7.05078C1.74805-1.61133 6.26953 2.91016 11.709 2.91016ZM11.709 1.25C7.09961 1.25 3.41797-2.44141 3.41797-7.05078C3.41797-11.6602 7.08984-15.3516 11.6992-15.3516C16.3086-15.3516 20.0098-11.6602 20.0098-7.05078C20.0098-2.44141 16.3184 1.25 11.709 1.25ZM7.17773-7.05078C7.17773-6.57227 7.50977-6.25 8.00781-6.25L10.8789-6.25L10.8789-3.36914C10.8789-2.88086 11.2109-2.53906 11.6895-2.53906C12.1777-2.53906 12.5195-2.87109 12.5195-3.36914L12.5195-6.25L15.4004-6.25C15.8887-6.25 16.2305-6.57227 16.2305-7.05078C16.2305-7.53906 15.8887-7.88086 15.4004-7.88086L12.5195-7.88086L12.5195-10.752C12.5195-11.25 12.1777-11.5918 11.6895-11.5918C11.2109-11.5918 10.8789-11.25 10.8789-10.752L10.8789-7.88086L8.00781-7.88086C7.50977-7.88086 7.17773-7.53906 7.17773-7.05078Z"/>
  </g>
  <g transform="matrix(1 0 0 1 305.646 1933)">
   <path d="M14.9707 5.66406C21.9336 5.66406 27.6953-0.0976562 27.6953-7.05078C27.6953-14.0137 21.9238-19.7754 14.9609-19.7754C8.00781-19.7754 2.25586-14.0137 2.25586-7.05078C2.25586-0.0976562 8.01758 5.66406 14.9707 5.66406ZM14.9707 3.84766C8.93555 3.84766 4.08203-1.01562 4.08203-7.05078C4.08203-13.0957 8.92578-17.9492 14.9609-17.9492C21.0059-17.9492 25.8691-13.0957 25.8691-7.05078C25.8691-1.01562 21.0156 3.84766 14.9707 3.84766ZM9.19922-7.05078C9.19922-6.5332 9.57031-6.17188 10.1172-6.17188L14.0625-6.17188L14.0625-2.2168C14.0625-1.67969 14.4336-1.29883 14.9512-1.29883C15.4883-1.29883 15.8594-1.66992 15.8594-2.2168L15.8594-6.17188L19.8145-6.17188C20.3516-6.17188 20.7324-6.5332 20.7324-7.05078C20.7324-7.59766 20.3613-7.96875 19.8145-7.96875L15.8594-7.96875L15.8594-11.9141C15.8594-12.4609 15.4883-12.8418 14.9512-12.8418C14.4336-12.8418 14.0625-12.4609 14.0625-11.9141L14.0625-7.96875L10.1172-7.96875C9.57031-7.96875 9.19922-7.59766 9.19922-7.05078Z"/>
  </g>
  <text style="stroke:none;fill:black;font-family:sans-serif;font-size:13;font-weight:bold;" transform="matrix(1 0 0 1 263 1953)">Design Variations</text>
  <text style="stroke:none;fill:black;font-family:sans-serif;font-size:13;" transform="matrix(1 0 0 1 263 1971)">Symbols are supported in up to nine weights and three scales.</text>
  <text style="stroke:none;fill:black;font-family:sans-serif;font-size:13;" transform="matrix(1 0 0 1 263 1989)">For optimal layout with text and other symbols, vertically align</text>
  <text style="stroke:none;fill:black;font-family:sans-serif;font-size:13;" transform="matrix(1 0 0 1 263 2007)">symbols with the adjacent text.</text>
  <line style="fill:none;stroke:#00AEEF;stroke-width:0.5;opacity:1.0;" x1="776" x2="776" y1="1919" y2="1933"/>
  <g transform="matrix(1 0 0 1 776 1933)">
   <path d="M3.31055 0.15625C3.82812 0.15625 4.08203-0.0390625 4.26758-0.585938L5.52734-4.0332L11.2891-4.0332L12.5488-0.585938C12.7344-0.0390625 12.9883 0.15625 13.4961 0.15625C14.0137 0.15625 14.3457-0.15625 14.3457-0.644531C14.3457-0.810547 14.3164-0.966797 14.2383-1.17188L9.6582-13.3691C9.43359-13.9648 9.0332-14.2676 8.4082-14.2676C7.80273-14.2676 7.39258-13.9746 7.17773-13.3789L2.59766-1.16211C2.51953-0.957031 2.49023-0.800781 2.49023-0.634766C2.49023-0.146484 2.80273 0.15625 3.31055 0.15625ZM6.00586-5.51758L8.37891-12.0898L8.42773-12.0898L10.8008-5.51758Z"/>
  </g>
  <line style="fill:none;stroke:#00AEEF;stroke-width:0.5;opacity:1.0;" x1="793.197" x2="793.197" y1="1919" y2="1933"/>
  <text style="stroke:none;fill:black;font-family:sans-serif;font-size:13;font-weight:bold;" transform="matrix(1 0 0 1 776 1953)">Margins</text>
  <text style="stroke:none;fill:black;font-family:sans-serif;font-size:13;" transform="matrix(1 0 0 1 776 1971)">Leading and trailing margins on the left and right side of each symbol</text>
  <text style="stroke:none;fill:black;font-family:sans-serif;font-size:13;" transform="matrix(1 0 0 1 776 1989)">can be adjusted by modifying the x-location of the margin guidelines.</text>
  <text style="stroke:none;fill:black;font-family:sans-serif;font-size:13;" transform="matrix(1 0 0 1 776 2007)">Modifications are automatically applied proportionally to all</text>
  <text style="stroke:none;fill:black;font-family:sans-serif;font-size:13;" transform="matrix(1 0 0 1 776 2025)">scales and weights.</text>
  <g transform="matrix(1 0 0 1 1289 1933)">
   <path d="M2.8418 1.86523L4.54102 3.57422C5.40039 4.44336 6.38672 4.38477 7.31445 3.35938L18.0078-8.42773L17.041-9.4043L6.42578 2.27539C6.07422 2.67578 5.74219 2.77344 5.27344 2.30469L4.10156 1.14258C3.63281 0.683594 3.74023 0.341797 4.14062-0.0195312L15.6152-10.8203L14.6387-11.7871L3.04688-0.898438C2.06055 0.0195312 1.98242 0.996094 2.8418 1.86523ZM9.25781-16.3281C8.83789-15.918 8.80859-15.3418 9.04297-14.9512C9.27734-14.5898 9.73633-14.3555 10.3809-14.5215C11.8457-14.8633 13.3691-14.9219 14.7949-13.9844L14.209-12.5293C13.8672-11.6992 14.043-11.1133 14.5801-10.5664L16.875-8.25195C17.3633-7.76367 17.7734-7.74414 18.3398-7.8418L19.4043-8.03711L20.0684-7.36328L20.0293-6.80664C19.9902-6.30859 20.1172-5.92773 20.6055-5.44922L21.3672-4.70703C21.8457-4.22852 22.4609-4.19922 22.9297-4.66797L25.8398-7.58789C26.3086-8.05664 26.2891-8.65234 25.8105-9.13086L25.0391-9.89258C24.5605-10.3711 24.1895-10.5273 23.7109-10.4883L23.1348-10.4395L22.4902-11.0742L22.7344-12.1973C22.8613-12.7637 22.7051-13.2031 22.1191-13.7891L19.9219-15.9766C16.582-19.2969 12.1484-19.2188 9.25781-16.3281ZM10.752-15.957C13.1836-17.7344 16.4746-17.4316 18.7012-15.2051L21.1328-12.793C21.3672-12.5586 21.4062-12.373 21.3379-12.0312L21.0156-10.5469L22.5195-9.0625L23.5059-9.12109C23.7598-9.13086 23.8379-9.11133 24.0332-8.91602L24.6094-8.33984L22.168-5.89844L21.5918-6.47461C21.3965-6.66992 21.3672-6.74805 21.377-7.01172L21.4453-7.98828L19.9512-9.47266L18.4277-9.21875C18.1055-9.15039 17.959-9.17969 17.7148-9.41406L15.7129-11.416C15.459-11.6504 15.4297-11.8164 15.5859-12.1875L16.4648-14.2773C14.9023-15.7324 12.8711-16.3574 10.8398-15.7617C10.6836-15.7227 10.625-15.8496 10.752-15.957Z"/>
  </g>
  <text style="stroke:none;fill:black;font-family:sans-serif;font-size:13;font-weight:bold;" transform="matrix(1 0 0 1 1289 1953)">Exporting</text>
  <text style="stroke:none;fill:black;font-family:sans-serif;font-size:13;" transform="matrix(1 0 0 1 1289 1971)">Symbols should be outlined when exporting to ensure the</text>
  <text style="stroke:none;fill:black;font-family:sans-serif;font-size:13;" transform="matrix(1 0 0 1 1289 1989)">design is preserved when submitting to Xcode.</text>
  <text id="template-version" style="stroke:none;fill:black;font-family:sans-serif;font-size:13;text-anchor:end;" transform="matrix(1 0 0 1 3036 1933)">Template v.4.0</text>
  <text style="stroke:none;fill:black;font-family:sans-serif;font-size:13;text-anchor:end;" transform="matrix(1 0 0 1 3036 1951)">Requires Xcode 14 or greater</text>
  <text id="descriptive-name" style="stroke:none;fill:black;font-family:sans-serif;font-size:13;text-anchor:end;" transform="matrix(1 0 0 1 3036 1969)">Generated from case.garnish2</text>
  <text style="stroke:none;fill:black;font-family:sans-serif;font-size:13;text-anchor:end;" transform="matrix(1 0 0 1 3036 1987)">Typeset at 100 points</text>
  <text style="stroke:none;fill:black;font-family:sans-serif;font-size:13;" transform="matrix(1 0 0 1 263 726)">Small</text>
  <text style="stroke:none;fill:black;font-family:sans-serif;font-size:13;" transform="matrix(1 0 0 1 263 1156)">Medium</text>
  <text style="stroke:none;fill:black;font-family:sans-serif;font-size:13;" transform="matrix(1 0 0 1 263 1586)">Large</text>
 </g>
 <g id="Guides">
  <g id="H-reference" style="fill:#27AAE1;stroke:none;" transform="matrix(1 0 0 1 339 696)">
   <path d="M0.993654 0L3.63775 0L29.3281-67.1323L30.0303-67.1323L30.0303-70.459L28.1226-70.459ZM11.6885-24.4799L46.9815-24.4799L46.2315-26.7285L12.4385-26.7285ZM55.1196 0L57.7637 0L30.6382-70.459L29.4326-70.459L29.4326-67.1323Z"/>
  </g>
  <line id="Baseline-S" style="fill:none;stroke:#27AAE1;opacity:1;stroke-width:0.5;" x1="263" x2="3036" y1="696" y2="696"/>
  <line id="Capline-S" style="fill:none;stroke:#27AAE1;opacity:1;stroke-width:0.5;" x1="263" x2="3036" y1="625.541" y2="625.541"/>
  <g id="H-reference" style="fill:#27AAE1;stroke:none;" transform="matrix(1 0 0 1 339 1126)">
   <path d="M0.993654 0L3.63775 0L29.3281-67.1323L30.0303-67.1323L30.0303-70.459L28.1226-70.459ZM11.6885-24.4799L46.9815-24.4799L46.2315-26.7285L12.4385-26.7285ZM55.1196 0L57.7637 0L30.6382-70.459L29.4326-70.459L29.4326-67.1323Z"/>
  </g>
  <line id="Baseline-M" style="fill:none;stroke:#27AAE1;opacity:1;stroke-width:0.5;" x1="263" x2="3036" y1="1126" y2="1126"/>
  <line id="Capline-M" style="fill:none;stroke:#27AAE1;opacity:1;stroke-width:0.5;" x1="263" x2="3036" y1="1055.54" y2="1055.54"/>
  <g id="H-reference" style="fill:#27AAE1;stroke:none;" transform="matrix(1 0 0 1 339 1556)">
   <path d="M0.993654 0L3.63775 0L29.3281-67.1323L30.0303-67.1323L30.0303-70.459L28.1226-70.459ZM11.6885-24.4799L46.9815-24.4799L46.2315-26.7285L12.4385-26.7285ZM55.1196 0L57.7637 0L30.6382-70.459L29.4326-70.459L29.4326-67.1323Z"/>
  </g>
  <line id="Baseline-L" style="fill:none;stroke:#27AAE1;opacity:1;stroke-width:0.5;" x1="263" x2="3036" y1="1556" y2="1556"/>
  <line id="Capline-L" style="fill:none;stroke:#27AAE1;opacity:1;stroke-width:0.5;" x1="263" x2="3036" y1="1485.54" y2="1485.54"/>
  <line id="left-margin-Ultralight-S" style="fill:none;stroke:#00AEEF;stroke-width:0.5;opacity:1.0;" x1="497.811" x2="497.811" y1="600.785" y2="720.121"/>
  <line id="right-margin-Ultralight-S" style="fill:none;stroke:#00AEEF;stroke-width:0.5;opacity:1.0;" x1="621.611" x2="621.611" y1="600.785" y2="720.121"/>
  <line id="left-margin-Regular-S" style="fill:none;stroke:#00AEEF;stroke-width:0.5;opacity:1.0;" x1="1384.19" x2="1384.19" y1="600.785" y2="720.121"/>
  <line id="right-margin-Regular-S" style="fill:none;stroke:#00AEEF;stroke-width:0.5;opacity:1.0;" x1="1515.49" x2="1515.49" y1="600.785" y2="720.121"/>
  <line id="left-margin-Black-S" style="fill:none;stroke:#00AEEF;stroke-width:0.5;opacity:1.0;" x1="2864.7" x2="2864.7" y1="600.785" y2="720.121"/>
  <line id="right-margin-Black-S" style="fill:none;stroke:#00AEEF;stroke-width:0.5;opacity:1.0;" x1="3002.1" x2="3002.1" y1="600.785" y2="720.121"/>
 </g>
 <g id="Symbols">
  <g id="Black-S" transform="matrix(1 0 0 1 2864.7 696)">
   <path class="monochrome-0 SFSymbolsPreview000000" d="M74.21-74.6L72.91-74.6C72.91-74.6 72.91-74.6 72.91-74.6L70.71-74.6L70.71-80.7C70.71-82.3 69.41-83.5 67.91-83.5L29.81-83.5C28.21-83.5 27.01-82.2 27.01-80.7L27.01-74.6L23.51-74.6C20.71-74.6 18.31-72.3 18.31-69.4L18.31 7.7C18.31 10.5 20.61 12.9 23.51 12.9L74.21 12.9C77.01 12.9 79.41 10.6 79.41 7.7L79.41-69.5C79.31-72.3 77.01-74.6 74.21-74.6ZM75.61 7.7C75.61 8.5 75.01 9.1 74.21 9.1L23.51 9.1C22.71 9.1 22.11 8.5 22.11 7.7L22.11-69.5C22.11-70.3 22.71-70.9 23.51-70.9L27.01-70.9C27.01-70.9 27.11-70.9 27.11-70.9C27.11-70.9 27.21-70.9 27.21-70.9L70.71-70.9C70.71-70.9 70.71-70.9 70.71-70.9L74.21-70.9C75.01-70.9 75.61-70.3 75.61-69.5L75.61 7.7ZM52.51-34.3C41.71-34.3 33.01-25.6 33.01-14.8C32.91-4 41.71 4.8 52.51 4.8C63.31 4.8 72.01-4 72.01-14.8C72.01-25.6 63.31-34.3 52.51-34.3ZM52.51 2.1C43.21 2.1 35.61-5.5 35.61-14.8C35.61-24.1 43.21-31.7 52.51-31.7C61.81-31.7 69.41-24.1 69.41-14.8C69.31-5.5 61.81 2.1 52.51 2.1ZM116.41-58.7C112.61-62.5 102.31-66.1 101.21-66.5C101.21-66.5 101.21-66.5 101.11-66.5C101.01-66.5 100.91-66.6 100.71-66.6C100.71-66.6 100.61-66.6 100.61-66.6C100.61-66.6 100.61-66.6 100.51-66.6C100.41-66.6 100.21-66.6 100.11-66.6C100.11-66.6 100.11-66.6 100.01-66.6C99.91-66.6 99.71-66.5 99.61-66.5C99.61-66.5 99.51-66.5 99.51-66.4C99.41-66.3 99.21-66.2 99.11-66.1C99.11-66.1 99.11-66.1 99.11-66.1C99.11-66.1 99.11-66.1 99.11-66.1C99.01-66 98.91-65.9 98.81-65.7C98.81-65.7 98.81-65.6 98.71-65.6C98.61-65.5 98.61-65.4 98.61-65.2C98.61-65.2 98.61-65.1 98.61-65.1C98.61-65 98.61-64.8 98.61-64.7L98.61-39.5C94.61-38.6 91.61-35.1 91.61-30.9C91.61-26.7 94.61-23.1 98.61-22.3L98.61-21.9C94.61-21 91.61-17.5 91.61-13.3C91.61-9.1 94.61-5.5 98.61-4.7L98.61 10C98.61 11 99.41 11.9 100.51 11.9C101.61 11.9 102.41 11.1 102.41 10L102.41-4.6C106.41-5.5 109.41-9 109.41-13.2C109.41-17.4 106.41-21 102.41-21.8L102.41-22.2C106.41-23.1 109.41-26.6 109.41-30.8C109.41-35 106.41-38.6 102.41-39.4L102.41-55.2C103.61-52.7 105.01-50.3 106.51-48.8C108.31-47 110.61-46.1 112.71-46.1C114.41-46.1 116.01-46.7 117.21-47.9C120.01-50.7 119.61-55.5 116.41-58.7ZM37.01-32.1C31.81-35 28.31-40.5 28.31-46.8C28.31-56.1 35.91-63.7 45.21-63.7C54.51-63.7 62.11-56.1 62.11-46.8C62.11-43.2 60.91-39.8 59.01-37.1C59.91-36.8 60.81-36.5 61.61-36.2C63.61-39.3 64.81-42.9 64.81-46.8C64.81-57.6 56.11-66.3 45.31-66.3C34.51-66.3 25.81-57.6 25.81-46.8C25.81-39.7 29.61-33.6 35.21-30.1C35.71-30.8 36.31-31.5 37.01-32.1ZM67.01-79.8L67.01-74.6L30.71-74.6L30.71-79.8L67.01-79.8ZM114.61-50.6C113.41-49.4 110.91-49.8 109.11-51.5C107.11-53.5 105.01-58 103.61-61.5C107.21-60.1 111.71-57.9 113.61-56C115.51-54.3 115.91-51.8 114.61-50.6ZM57.81-49.5C57.51-51.1 56.81-52.7 55.91-54C55.51-54.6 54.71-54.7 54.21-54.2L50.11-50C49.41-49.3 49.91-48.1 50.91-48.1L56.81-48.1C57.41-48.2 58.01-48.8 57.81-49.5ZM61.61-22.1L57.41-18C56.71-17.3 57.21-16.1 58.21-16.1L64.01-16.1C64.71-16.1 65.21-16.7 65.11-17.4C64.81-19 64.11-20.6 63.21-21.9C62.91-22.5 62.01-22.6 61.61-22.1ZM43.71-58.5C43.71-59.2 43.01-59.7 42.41-59.6C40.81-59.2 39.31-58.6 38.01-57.7C37.41-57.3 37.31-56.5 37.81-56L41.91-51.9C42.61-51.2 43.81-51.7 43.81-52.7L43.81-58.5ZM64.01-13.4L58.21-13.4C57.21-13.4 56.71-12.2 57.41-11.5L61.51-7.4C62.01-7 62.81-7.1 63.21-7.7C64.11-9 64.71-10.5 65.11-12.1C65.21-12.8 64.71-13.4 64.01-13.4ZM49.61-27.5C48.01-27.1 46.51-26.5 45.21-25.6C44.61-25.2 44.51-24.4 45.01-23.9L49.11-19.8C49.81-19.1 51.01-19.6 51.01-20.6L51.01-26.4C51.01-27.1 50.31-27.7 49.61-27.5ZM48.21-51.9L52.41-56.1C52.91-56.6 52.81-57.4 52.21-57.8C50.81-58.7 49.31-59.3 47.71-59.7C47.01-59.8 46.41-59.3 46.41-58.6L46.41-52.7C46.41-51.7 47.51-51.2 48.21-51.9ZM55.51-19.9L59.71-24.1C60.21-24.6 60.11-25.4 59.51-25.8C58.11-26.7 56.61-27.3 55.01-27.7C54.31-27.8 53.71-27.3 53.71-26.6L53.71-20.7C53.61-19.7 54.81-19.2 55.51-19.9ZM55.91-39.7C56.81-41 57.41-42.5 57.81-44.1C58.01-44.8 57.41-45.4 56.71-45.4L50.91-45.4C49.91-45.4 49.41-44.2 50.11-43.5L54.21-39.4C54.71-39.1 55.51-39.2 55.91-39.7ZM40.81-16.1L46.41-16.1C47.41-16.1 47.91-17.3 47.21-18L43.21-22C42.71-22.5 41.91-22.4 41.51-21.8C40.71-20.5 40.11-19 39.71-17.4C39.61-16.7 40.11-16.1 40.81-16.1ZM39.21-48.2C40.21-48.2 40.71-49.4 40.01-50.1L36.01-54.1C35.51-54.6 34.71-54.5 34.31-53.9C33.51-52.6 32.91-51.1 32.51-49.5C32.41-48.8 32.91-48.2 33.61-48.2L39.21-48.2ZM55.51-9.7C54.81-10.4 53.61-9.9 53.61-8.9L53.61-3.3C53.61-2.6 54.21-2.1 54.91-2.2C56.61-2.5 58.01-3.1 59.31-4C59.91-4.4 60.01-5.2 59.51-5.7L55.51-9.7ZM46.51-13.4L40.91-13.4C40.21-13.4 39.71-12.7 39.81-12.1C40.11-10.5 40.81-9.1 41.61-7.8C42.01-7.2 42.81-7.1 43.31-7.6L47.21-11.5C47.91-12.3 47.41-13.4 46.51-13.4ZM34.31-39.9C34.71-39.3 35.51-39.2 36.01-39.7L39.91-43.6C40.61-44.3 40.11-45.5 39.11-45.5L33.51-45.5C32.81-45.5 32.31-44.8 32.41-44.2C32.91-42.6 33.51-41.2 34.31-39.9ZM49.11-9.7L45.21-5.8C44.71-5.3 44.81-4.5 45.41-4.1C46.71-3.3 48.11-2.6 49.71-2.3C50.31-2.1 51.01-2.6 51.01-3.3L51.01-8.9C51.01-9.9 49.81-10.4 49.11-9.7ZM40.71-34.8C41.71-35.4 42.71-35.9 43.71-36.3L43.71-41C43.71-42 42.51-42.5 41.81-41.8L37.91-37.9C37.41-37.4 37.51-36.6 38.11-36.2C38.91-35.6 39.81-35.2 40.71-34.8ZM46.41-37.2C48.11-37.7 50.01-38 52.01-38L48.31-41.7C47.61-42.4 46.41-41.9 46.41-40.9L46.41-37.2Z"/>
  </g>
  <g id="Regular-S" transform="matrix(1 0 0 1 1384.19 696)">
   <path class="monochrome-0 SFSymbolsPreview000000" d="M70.7-72.3L69.5-72.3C69.5-72.3 69.5-72.3 69.5-72.3L67.5-72.3L67.5-78C67.5-79.5 66.3-80.7 64.8-80.7L29.1-80.7C27.6-80.7 26.4-79.5 26.4-78L26.4-72.3L23.1-72.3C20.4-72.3 18.3-70.1 18.3-67.5L18.3 5C18.3 7.7 20.5 9.8 23.1 9.8L70.6 9.8C73.3 9.8 75.4 7.6 75.4 5L75.4-67.4C75.5-70.1 73.4-72.3 70.7-72.3ZM72 5C72 5.7 71.4 6.3 70.7 6.3L23.2 6.3C22.5 6.3 21.9 5.7 21.9 5L21.9-67.4C21.9-68.1 22.5-68.7 23.2-68.7L26.5-68.7C26.5-68.7 26.6-68.7 26.6-68.7C26.6-68.7 26.7-68.7 26.7-68.7L67.5-68.7C67.5-68.7 67.5-68.7 67.5-68.7L70.8-68.7C71.5-68.7 72.1-68.1 72.1-67.4L72.1 5ZM50.3-34.5C40.2-34.5 32-26.3 32-16.2C32-6 40.2 2.2 50.3 2.2C60.4 2.2 68.7-6 68.7-16.2C68.7-26.3 60.5-34.5 50.3-34.5ZM50.3-0.3C41.6-0.3 34.5-7.4 34.5-16.1C34.5-24.8 41.6-31.9 50.3-31.9C59-31.9 66.1-24.8 66.1-16.1C66.2-7.4 59.1-0.3 50.3-0.3ZM110.3-57.4C106.7-61 97.1-64.3 96-64.7C96-64.7 96-64.7 95.9-64.7C95.8-64.7 95.7-64.8 95.6-64.8C95.6-64.8 95.5-64.8 95.5-64.8C95.5-64.8 95.5-64.8 95.5-64.8C95.4-64.8 95.2-64.8 95.1-64.8C95.1-64.8 95.1-64.8 95-64.8C94.9-64.8 94.8-64.7 94.7-64.7C94.7-64.7 94.6-64.7 94.6-64.6C94.5-64.5 94.4-64.4 94.3-64.3C94.3-64.3 94.3-64.3 94.3-64.3C94.3-64.3 94.3-64.3 94.3-64.3C94.2-64.2 94.1-64.1 94-64C94-64 94-63.9 93.9-63.9C93.8-63.8 93.8-63.7 93.8-63.6C93.8-63.6 93.8-63.6 93.8-63.5C93.8-63.4 93.8-63.2 93.8-63.1L93.8-39.4C90.1-38.6 87.3-35.3 87.3-31.3C87.3-27.3 90.1-24 93.8-23.2L93.8-22.8C90.1-22 87.3-18.7 87.3-14.7C87.3-10.7 90.1-7.4 93.8-6.6L93.8 7.1C93.8 8.1 94.6 8.9 95.6 8.9C96.6 8.9 97.4 8.1 97.4 7.1L97.4-6.6C101.1-7.4 103.9-10.7 103.9-14.7C103.9-18.7 101.1-22 97.4-22.8L97.4-23.2C101.1-24 103.9-27.3 103.9-31.3C103.9-35.3 101.1-38.6 97.4-39.4L97.4-54.2C98.5-51.9 99.9-49.6 101.3-48.2C103-46.5 105.1-45.7 107.1-45.7C108.7-45.7 110.2-46.2 111.3-47.4C113.7-49.8 113.3-54.3 110.3-57.4ZM35.8-32.4C31-35.1 27.7-40.3 27.7-46.2C27.7-54.9 34.8-62 43.5-62C52.2-62 59.3-54.9 59.3-46.2C59.3-42.8 58.2-39.7 56.4-37.1C57.2-36.9 58.1-36.6 58.8-36.2C60.7-39.1 61.8-42.5 61.8-46.2C61.8-56.3 53.6-64.5 43.5-64.5C33.4-64.5 25.2-56.3 25.2-46.2C25.2-39.6 28.7-33.8 34-30.6C34.6-31.2 35.2-31.8 35.8-32.4ZM63.9-77.1L63.9-72.2L29.9-72.2L29.9-77.1L63.9-77.1ZM108.7-49.8C107.5-48.6 105.2-49 103.6-50.7C101.7-52.6 99.8-56.8 98.5-60.1C101.8-58.7 106.1-56.8 107.9-55C109.4-53.3 109.8-50.9 108.7-49.8ZM55.4-48.7C55.1-50.2 54.5-51.7 53.7-52.9C53.3-53.4 52.6-53.5 52.1-53.1L48.2-49.2C47.6-48.6 48-47.4 48.9-47.4L54.4-47.4C55-47.5 55.5-48.1 55.4-48.7ZM58.9-23.1L55-19.2C54.4-18.6 54.8-17.4 55.7-17.4L61.2-17.4C61.9-17.4 62.3-18 62.2-18.6C61.9-20.1 61.3-21.6 60.5-22.8C60.1-23.4 59.3-23.5 58.9-23.1ZM42.1-57.2C42.1-57.9 41.5-58.4 40.8-58.2C39.3-57.9 37.9-57.3 36.6-56.4C36.1-56 36-55.3 36.4-54.8L40.2-51C40.8-50.4 42-50.8 42-51.7L42-57.2ZM61.1-14.9L55.7-14.9C54.8-14.9 54.3-13.8 55-13.1L58.8-9.3C59.3-8.8 60-8.9 60.4-9.5C61.2-10.7 61.8-12.1 62.2-13.7C62.3-14.3 61.8-14.9 61.1-14.9ZM47.7-28.1C46.2-27.8 44.8-27.2 43.5-26.3C43-25.9 42.9-25.2 43.3-24.7L47.1-20.9C47.7-20.3 48.9-20.7 48.9-21.6L48.9-27C48.9-27.8 48.3-28.2 47.7-28.1ZM46.4-51L50.3-54.9C50.8-55.4 50.7-56.1 50.1-56.5C48.8-57.3 47.4-57.9 45.9-58.2C45.3-58.3 44.7-57.8 44.7-57.2L44.7-51.7C44.6-50.8 45.7-50.3 46.4-51ZM53.2-20.9L57.1-24.8C57.6-25.3 57.5-26 56.9-26.4C55.6-27.2 54.2-27.8 52.7-28.1C52.1-28.2 51.5-27.7 51.5-27.1L51.5-21.6C51.4-20.7 52.6-20.3 53.2-20.9ZM53.5-39.6C54.3-40.8 54.9-42.2 55.3-43.8C55.4-44.4 54.9-45.1 54.3-45.1L48.9-45.1C48-45.1 47.5-44 48.2-43.3L52-39.5C52.4-38.9 53.2-39 53.5-39.6ZM39.4-17.4L44.7-17.4C45.6-17.4 46.1-18.5 45.4-19.2L41.6-23C41.1-23.5 40.4-23.4 40-22.8C39.2-21.6 38.6-20.2 38.3-18.7C38.3-18 38.8-17.4 39.4-17.4ZM37.9-47.5C38.8-47.5 39.3-48.6 38.6-49.3L34.8-53C34.3-53.5 33.6-53.4 33.2-52.8C32.4-51.6 31.8-50.2 31.5-48.7C31.4-48.1 31.9-47.5 32.5-47.5L37.9-47.5ZM53.2-11.4C52.6-12 51.4-11.6 51.4-10.7L51.4-5.4C51.4-4.7 52-4.3 52.6-4.4C54.1-4.7 55.5-5.3 56.7-6.1C57.3-6.5 57.3-7.2 56.9-7.7L53.2-11.4ZM44.7-14.9L39.5-14.9C38.8-14.9 38.3-14.3 38.5-13.6C38.8-12.1 39.4-10.8 40.2-9.6C40.6-9.1 41.3-9 41.8-9.4L45.5-13.1C46.1-13.8 45.6-14.9 44.7-14.9ZM33.3-39.7C33.7-39.2 34.4-39.1 34.9-39.5L38.6-43.2C39.2-43.8 38.8-45 37.9-45L32.7-45C32-45 31.5-44.4 31.7-43.7C31.9-42.3 32.5-40.9 33.3-39.7ZM47.2-11.4L43.5-7.7C43-7.2 43.1-6.5 43.7-6.1C44.9-5.3 46.3-4.7 47.7-4.4C48.3-4.3 49-4.8 49-5.4L49-10.6C48.9-11.6 47.8-12 47.2-11.4ZM39.3-35C40.2-35.5 41.1-36 42.1-36.4L42.1-40.8C42.1-41.7 41-42.2 40.3-41.5L36.6-37.8C36.1-37.3 36.2-36.6 36.8-36.2C37.6-35.7 38.4-35.3 39.3-35ZM44.6-37.2C46.3-37.7 48-37.9 49.8-38L46.3-41.5C45.7-42.1 44.5-41.7 44.5-40.8L44.5-37.2Z"/>
  </g>
  <g id="Ultralight-S" transform="matrix(1 0 0 1 497.811 696)">
   <path class="monochrome-0 SFSymbolsPreview000000" d="M66.604-68.8L65.504-68.8C65.504-68.8 65.504-68.8 65.504-68.8L63.604-68.8L63.604-74C63.604-75.3 62.504-76.4 61.204-76.4L28.504-76.4C27.204-76.4 26.104-75.3 26.104-74L26.104-68.8L23.104-68.8C20.704-68.8 18.704-66.8 18.704-64.4L18.704 1.8C18.704 4.2 20.704 6.2 23.104 6.2L66.604 6.2C69.004 6.2 71.004 4.2 71.004 1.8L71.004-64.4C71.004-66.8 69.004-68.8 66.604-68.8ZM67.804 1.8C67.804 2.5 67.304 3 66.604 3L23.104 3C22.404 3 21.904 2.5 21.904 1.8L21.904-64.4C21.904-65.1 22.404-65.6 23.104-65.6L26.104-65.6C26.104-65.6 26.204-65.6 26.204-65.6C26.204-65.6 26.304-65.6 26.304-65.6L63.604-65.6C63.604-65.6 63.604-65.6 63.604-65.6L66.604-65.6C67.304-65.6 67.804-65.1 67.804-64.4L67.804 1.8ZM48.004-34.2C38.704-34.2 31.204-26.7 31.204-17.4C31.204-8.1 38.704-0.6 48.004-0.6C57.304-0.6 64.804-8.1 64.804-17.4C64.704-26.7 57.204-34.2 48.004-34.2ZM48.004-3C40.004-3 33.504-9.5 33.504-17.5C33.504-25.5 40.004-32 48.004-32C56.004-32 62.504-25.5 62.504-17.5C62.404-9.5 55.904-3 48.004-3ZM102.804-55.2C99.504-58.5 90.704-61.5 89.704-61.9C89.704-61.9 89.704-61.9 89.604-61.9C89.504-61.9 89.404-61.9 89.304-62C89.304-62 89.204-62 89.204-62C89.204-62 89.204-62 89.204-62C89.104-62 89.004-62 88.904-62C88.904-62 88.904-62 88.804-62C88.704-62 88.604-61.9 88.504-61.9C88.504-61.9 88.404-61.9 88.404-61.9C88.304-61.8 88.204-61.8 88.104-61.7C88.104-61.7 88.104-61.7 88.104-61.7C88.104-61.7 88.104-61.7 88.104-61.7C88.004-61.6 87.904-61.5 87.904-61.4C87.904-61.4 87.904-61.3 87.904-61.3C87.904-61.2 87.804-61.1 87.804-61C87.804-61 87.804-61 87.804-60.9C87.804-60.8 87.804-60.7 87.804-60.5L87.804-38.9C84.404-38.2 81.804-35.1 81.804-31.5C81.804-27.9 84.404-24.8 87.804-24.1L87.804-23.8C84.404-23.1 81.804-20 81.804-16.4C81.804-12.8 84.404-9.7 87.804-9L87.804 3.7C87.804 4.6 88.504 5.3 89.404 5.3C90.304 5.3 91.004 4.6 91.004 3.7L91.004-8.7C94.404-9.4 97.004-12.5 97.004-16.1C97.004-19.7 94.404-22.8 91.004-23.5L91.004-23.8C94.404-24.5 97.004-27.6 97.004-31.2C97.004-34.8 94.404-37.9 91.004-38.6L91.004-52.1C92.004-50 93.304-47.9 94.604-46.6C96.104-45.1 98.104-44.3 99.904-44.3C101.404-44.3 102.804-44.8 103.804-45.8C105.904-48.3 105.504-52.4 102.804-55.2ZM34.704-32.3C30.304-34.8 27.304-39.5 27.304-44.9C27.304-52.9 33.804-59.4 41.804-59.4C49.804-59.4 56.304-52.9 56.304-44.9C56.304-41.8 55.304-38.9 53.604-36.6C54.404-36.4 55.104-36.1 55.804-35.8C57.504-38.4 58.504-41.6 58.504-44.9C58.504-54.2 51.004-61.7 41.704-61.7C32.404-61.7 25.004-54.2 25.004-45C25.004-38.9 28.204-33.6 33.104-30.7C33.504-31.3 34.104-31.8 34.704-32.3ZM60.404-73.2L60.404-68.8L29.304-68.8L29.304-73.2L60.404-73.2ZM101.304-48.2C100.204-47.1 98.104-47.5 96.604-49C94.904-50.7 93.104-54.6 91.904-57.6C95.004-56.4 98.904-54.5 100.504-52.9C102.004-51.4 102.404-49.3 101.304-48.2ZM52.604-47.3C52.304-48.7 51.804-50 51.004-51.2C50.704-51.7 50.004-51.8 49.504-51.3L45.904-47.7C45.304-47.1 45.704-46.1 46.604-46.1L51.604-46.1C52.204-46.1 52.704-46.7 52.604-47.3ZM55.804-23.8L52.204-20.2C51.604-19.6 52.004-18.6 52.904-18.6L57.904-18.6C58.504-18.6 58.904-19.1 58.804-19.7C58.504-21.1 58.004-22.4 57.204-23.6C56.904-24.1 56.204-24.2 55.804-23.8ZM40.404-55C40.404-55.6 39.804-56.1 39.304-55.9C37.904-55.6 36.604-55 35.504-54.3C35.004-54 34.904-53.3 35.404-52.8L38.904-49.3C39.504-48.7 40.504-49.1 40.504-50L40.504-55ZM57.804-16.3L52.804-16.3C52.004-16.3 51.504-15.3 52.104-14.7L55.604-11.2C56.004-10.8 56.704-10.8 57.104-11.3C57.904-12.4 58.404-13.7 58.704-15.1C58.904-15.8 58.404-16.3 57.804-16.3ZM45.504-28.4C44.104-28.1 42.804-27.5 41.704-26.8C41.204-26.5 41.104-25.8 41.604-25.3L45.104-21.8C45.704-21.2 46.704-21.6 46.704-22.5L46.704-27.5C46.704-28.1 46.104-28.5 45.504-28.4ZM44.304-49.3L47.904-52.9C48.304-53.3 48.304-54 47.804-54.4C46.604-55.2 45.304-55.7 43.904-56C43.304-56.1 42.804-55.7 42.804-55.1L42.804-50.1C42.704-49.2 43.704-48.7 44.304-49.3ZM50.604-21.8L54.204-25.4C54.604-25.8 54.604-26.5 54.104-26.9C52.904-27.7 51.604-28.2 50.204-28.5C49.604-28.6 49.104-28.2 49.104-27.6L49.104-22.6C49.004-21.7 50.004-21.2 50.604-21.8ZM50.904-38.9C51.704-40 52.204-41.3 52.504-42.7C52.604-43.3 52.204-43.8 51.604-43.8L46.604-43.8C45.804-43.8 45.304-42.8 45.904-42.2L49.404-38.7C49.804-38.3 50.504-38.4 50.904-38.9ZM38.004-18.6L42.804-18.6C43.604-18.6 44.104-19.6 43.504-20.2L40.004-23.7C39.604-24.1 38.904-24.1 38.504-23.5C37.804-22.4 37.304-21.1 37.004-19.7C36.904-19.2 37.404-18.6 38.004-18.6ZM36.504-46.1C37.304-46.1 37.804-47.1 37.204-47.7L33.804-51.1C33.404-51.5 32.704-51.5 32.304-50.9C31.604-49.8 31.104-48.5 30.804-47.1C30.704-46.5 31.104-46 31.704-46L36.504-46ZM50.604-13.1C50.004-13.7 49.004-13.3 49.004-12.5L49.004-7.7C49.004-7.1 49.504-6.7 50.104-6.8C51.504-7.1 52.704-7.6 53.904-8.3C54.404-8.6 54.504-9.3 54.104-9.8L50.604-13.1ZM42.804-16.3L38.004-16.3C37.404-16.3 36.904-15.7 37.104-15.2C37.404-13.9 37.904-12.6 38.604-11.5C38.904-11 39.604-10.9 40.104-11.4L43.504-14.8C44.104-15.3 43.604-16.3 42.804-16.3ZM32.404-39C32.704-38.5 33.404-38.4 33.904-38.9L37.304-42.3C37.904-42.9 37.504-43.9 36.604-43.9L31.804-43.9C31.204-43.9 30.704-43.3 30.904-42.8C31.104-41.4 31.704-40.1 32.404-39ZM45.104-13.1L41.704-9.7C41.304-9.3 41.304-8.6 41.804-8.2C43.004-7.6 44.204-7 45.504-6.7C46.104-6.6 46.604-7 46.604-7.6L46.604-12.4C46.704-13.3 45.704-13.7 45.104-13.1ZM37.904-34.7C38.704-35.2 39.604-35.6 40.504-36L40.504-40C40.504-40.8 39.504-41.3 38.904-40.7L35.504-37.3C35.104-36.9 35.104-36.2 35.604-35.8C36.304-35.3 37.104-35 37.904-34.7ZM42.704-36.7C44.204-37.1 45.804-37.4 47.504-37.4L44.304-40.6C43.704-41.2 42.704-40.8 42.704-39.9L42.704-36.7Z"/>
  </g>
 </g>
</svg>
