<?xml version="1.0" encoding="UTF-8"?>
<!--Generator: Apple Native CoreSVG 175.5-->
<!DOCTYPE svg
PUBLIC "-//W3C//DTD SVG 1.1//EN"
       "http://www.w3.org/Graphics/SVG/1.1/DTD/svg11.dtd">
<svg version="1.1" xmlns="http://www.w3.org/2000/svg" xmlns:xlink="http://www.w3.org/1999/xlink" width="3300" height="2200">
 <!--glyph: "", point size: 100.0, font version: "18.0d12e2", template writer version: "101"-->
 <style>.monochrome-0 {fill:#000000}

.SFSymbolsPreview000000 {fill:#000000;opacity:1.0}
</style>
 <g id="Notes">
  <rect height="2200" id="artboard" style="fill:white;opacity:1" width="3300" x="0" y="0"/>
  <line style="fill:none;stroke:black;opacity:1;stroke-width:0.5;" x1="263" x2="3036" y1="292" y2="292"/>
  <text style="stroke:none;fill:black;font-family:sans-serif;font-size:13;font-weight:bold;" transform="matrix(1 0 0 1 263 322)">Weight/Scale Variations</text>
  <text style="stroke:none;fill:black;font-family:sans-serif;font-size:13;text-anchor:middle;" transform="matrix(1 0 0 1 559.711 322)">Ultralight</text>
  <text style="stroke:none;fill:black;font-family:sans-serif;font-size:13;text-anchor:middle;" transform="matrix(1 0 0 1 856.422 322)">Thin</text>
  <text style="stroke:none;fill:black;font-family:sans-serif;font-size:13;text-anchor:middle;" transform="matrix(1 0 0 1 1153.13 322)">Light</text>
  <text style="stroke:none;fill:black;font-family:sans-serif;font-size:13;text-anchor:middle;" transform="matrix(1 0 0 1 1449.84 322)">Regular</text>
  <text style="stroke:none;fill:black;font-family:sans-serif;font-size:13;text-anchor:middle;" transform="matrix(1 0 0 1 1746.56 322)">Medium</text>
  <text style="stroke:none;fill:black;font-family:sans-serif;font-size:13;text-anchor:middle;" transform="matrix(1 0 0 1 2043.27 322)">Semibold</text>
  <text style="stroke:none;fill:black;font-family:sans-serif;font-size:13;text-anchor:middle;" transform="matrix(1 0 0 1 2339.98 322)">Bold</text>
  <text style="stroke:none;fill:black;font-family:sans-serif;font-size:13;text-anchor:middle;" transform="matrix(1 0 0 1 2636.69 322)">Heavy</text>
  <text style="stroke:none;fill:black;font-family:sans-serif;font-size:13;text-anchor:middle;" transform="matrix(1 0 0 1 2933.4 322)">Black</text>
  <line style="fill:none;stroke:black;opacity:1;stroke-width:0.5;" x1="263" x2="3036" y1="1903" y2="1903"/>
  <g transform="matrix(1 0 0 1 263 1933)">
   <path d="M9.24805 0.830078C13.5547 0.830078 17.1387-2.74414 17.1387-7.05078C17.1387-11.3574 13.5449-14.9316 9.23828-14.9316C4.94141-14.9316 1.36719-11.3574 1.36719-7.05078C1.36719-2.74414 4.95117 0.830078 9.24805 0.830078ZM9.24805-0.654297C5.70312-0.654297 2.87109-3.49609 2.87109-7.05078C2.87109-10.6055 5.69336-13.4473 9.23828-13.4473C12.793-13.4473 15.6445-10.6055 15.6445-7.05078C15.6445-3.49609 12.8027-0.654297 9.24805-0.654297ZM5.6543-7.05078C5.6543-6.62109 5.95703-6.32812 6.40625-6.32812L8.50586-6.32812L8.50586-4.20898C8.50586-3.76953 8.79883-3.4668 9.22852-3.4668C9.67773-3.4668 9.9707-3.76953 9.9707-4.20898L9.9707-6.32812L12.0898-6.32812C12.5293-6.32812 12.832-6.62109 12.832-7.05078C12.832-7.49023 12.5293-7.79297 12.0898-7.79297L9.9707-7.79297L9.9707-9.90234C9.9707-10.3516 9.67773-10.6543 9.22852-10.6543C8.79883-10.6543 8.50586-10.3516 8.50586-9.90234L8.50586-7.79297L6.40625-7.79297C5.95703-7.79297 5.6543-7.49023 5.6543-7.05078Z"/>
  </g>
  <g transform="matrix(1 0 0 1 281.867 1933)">
   <path d="M11.709 2.91016C17.1582 2.91016 21.6699-1.61133 21.6699-7.05078C21.6699-12.5 17.1484-17.0117 11.6992-17.0117C6.25977-17.0117 1.74805-12.5 1.74805-7.05078C1.74805-1.61133 6.26953 2.91016 11.709 2.91016ZM11.709 1.25C7.09961 1.25 3.41797-2.44141 3.41797-7.05078C3.41797-11.6602 7.08984-15.3516 11.6992-15.3516C16.3086-15.3516 20.0098-11.6602 20.0098-7.05078C20.0098-2.44141 16.3184 1.25 11.709 1.25ZM7.17773-7.05078C7.17773-6.57227 7.50977-6.25 8.00781-6.25L10.8789-6.25L10.8789-3.36914C10.8789-2.88086 11.2109-2.53906 11.6895-2.53906C12.1777-2.53906 12.5195-2.87109 12.5195-3.36914L12.5195-6.25L15.4004-6.25C15.8887-6.25 16.2305-6.57227 16.2305-7.05078C16.2305-7.53906 15.8887-7.88086 15.4004-7.88086L12.5195-7.88086L12.5195-10.752C12.5195-11.25 12.1777-11.5918 11.6895-11.5918C11.2109-11.5918 10.8789-11.25 10.8789-10.752L10.8789-7.88086L8.00781-7.88086C7.50977-7.88086 7.17773-7.53906 7.17773-7.05078Z"/>
  </g>
  <g transform="matrix(1 0 0 1 305.646 1933)">
   <path d="M14.9707 5.66406C21.9336 5.66406 27.6953-0.0976562 27.6953-7.05078C27.6953-14.0137 21.9238-19.7754 14.9609-19.7754C8.00781-19.7754 2.25586-14.0137 2.25586-7.05078C2.25586-0.0976562 8.01758 5.66406 14.9707 5.66406ZM14.9707 3.84766C8.93555 3.84766 4.08203-1.01562 4.08203-7.05078C4.08203-13.0957 8.92578-17.9492 14.9609-17.9492C21.0059-17.9492 25.8691-13.0957 25.8691-7.05078C25.8691-1.01562 21.0156 3.84766 14.9707 3.84766ZM9.19922-7.05078C9.19922-6.5332 9.57031-6.17188 10.1172-6.17188L14.0625-6.17188L14.0625-2.2168C14.0625-1.67969 14.4336-1.29883 14.9512-1.29883C15.4883-1.29883 15.8594-1.66992 15.8594-2.2168L15.8594-6.17188L19.8145-6.17188C20.3516-6.17188 20.7324-6.5332 20.7324-7.05078C20.7324-7.59766 20.3613-7.96875 19.8145-7.96875L15.8594-7.96875L15.8594-11.9141C15.8594-12.4609 15.4883-12.8418 14.9512-12.8418C14.4336-12.8418 14.0625-12.4609 14.0625-11.9141L14.0625-7.96875L10.1172-7.96875C9.57031-7.96875 9.19922-7.59766 9.19922-7.05078Z"/>
  </g>
  <text style="stroke:none;fill:black;font-family:sans-serif;font-size:13;font-weight:bold;" transform="matrix(1 0 0 1 263 1953)">Design Variations</text>
  <text style="stroke:none;fill:black;font-family:sans-serif;font-size:13;" transform="matrix(1 0 0 1 263 1971)">Symbols are supported in up to nine weights and three scales.</text>
  <text style="stroke:none;fill:black;font-family:sans-serif;font-size:13;" transform="matrix(1 0 0 1 263 1989)">For optimal layout with text and other symbols, vertically align</text>
  <text style="stroke:none;fill:black;font-family:sans-serif;font-size:13;" transform="matrix(1 0 0 1 263 2007)">symbols with the adjacent text.</text>
  <line style="fill:none;stroke:#00AEEF;stroke-width:0.5;opacity:1.0;" x1="776" x2="776" y1="1919" y2="1933"/>
  <g transform="matrix(1 0 0 1 776 1933)">
   <path d="M3.31055 0.15625C3.82812 0.15625 4.08203-0.0390625 4.26758-0.585938L5.52734-4.0332L11.2891-4.0332L12.5488-0.585938C12.7344-0.0390625 12.9883 0.15625 13.4961 0.15625C14.0137 0.15625 14.3457-0.15625 14.3457-0.644531C14.3457-0.810547 14.3164-0.966797 14.2383-1.17188L9.6582-13.3691C9.43359-13.9648 9.0332-14.2676 8.4082-14.2676C7.80273-14.2676 7.39258-13.9746 7.17773-13.3789L2.59766-1.16211C2.51953-0.957031 2.49023-0.800781 2.49023-0.634766C2.49023-0.146484 2.80273 0.15625 3.31055 0.15625ZM6.00586-5.51758L8.37891-12.0898L8.42773-12.0898L10.8008-5.51758Z"/>
  </g>
  <line style="fill:none;stroke:#00AEEF;stroke-width:0.5;opacity:1.0;" x1="793.197" x2="793.197" y1="1919" y2="1933"/>
  <text style="stroke:none;fill:black;font-family:sans-serif;font-size:13;font-weight:bold;" transform="matrix(1 0 0 1 776 1953)">Margins</text>
  <text style="stroke:none;fill:black;font-family:sans-serif;font-size:13;" transform="matrix(1 0 0 1 776 1971)">Leading and trailing margins on the left and right side of each symbol</text>
  <text style="stroke:none;fill:black;font-family:sans-serif;font-size:13;" transform="matrix(1 0 0 1 776 1989)">can be adjusted by modifying the x-location of the margin guidelines.</text>
  <text style="stroke:none;fill:black;font-family:sans-serif;font-size:13;" transform="matrix(1 0 0 1 776 2007)">Modifications are automatically applied proportionally to all</text>
  <text style="stroke:none;fill:black;font-family:sans-serif;font-size:13;" transform="matrix(1 0 0 1 776 2025)">scales and weights.</text>
  <g transform="matrix(1 0 0 1 1289 1933)">
   <path d="M2.8418 1.86523L4.54102 3.57422C5.40039 4.44336 6.38672 4.38477 7.31445 3.35938L18.0078-8.42773L17.041-9.4043L6.42578 2.27539C6.07422 2.67578 5.74219 2.77344 5.27344 2.30469L4.10156 1.14258C3.63281 0.683594 3.74023 0.341797 4.14062-0.0195312L15.6152-10.8203L14.6387-11.7871L3.04688-0.898438C2.06055 0.0195312 1.98242 0.996094 2.8418 1.86523ZM9.25781-16.3281C8.83789-15.918 8.80859-15.3418 9.04297-14.9512C9.27734-14.5898 9.73633-14.3555 10.3809-14.5215C11.8457-14.8633 13.3691-14.9219 14.7949-13.9844L14.209-12.5293C13.8672-11.6992 14.043-11.1133 14.5801-10.5664L16.875-8.25195C17.3633-7.76367 17.7734-7.74414 18.3398-7.8418L19.4043-8.03711L20.0684-7.36328L20.0293-6.80664C19.9902-6.30859 20.1172-5.92773 20.6055-5.44922L21.3672-4.70703C21.8457-4.22852 22.4609-4.19922 22.9297-4.66797L25.8398-7.58789C26.3086-8.05664 26.2891-8.65234 25.8105-9.13086L25.0391-9.89258C24.5605-10.3711 24.1895-10.5273 23.7109-10.4883L23.1348-10.4395L22.4902-11.0742L22.7344-12.1973C22.8613-12.7637 22.7051-13.2031 22.1191-13.7891L19.9219-15.9766C16.582-19.2969 12.1484-19.2188 9.25781-16.3281ZM10.752-15.957C13.1836-17.7344 16.4746-17.4316 18.7012-15.2051L21.1328-12.793C21.3672-12.5586 21.4062-12.373 21.3379-12.0312L21.0156-10.5469L22.5195-9.0625L23.5059-9.12109C23.7598-9.13086 23.8379-9.11133 24.0332-8.91602L24.6094-8.33984L22.168-5.89844L21.5918-6.47461C21.3965-6.66992 21.3672-6.74805 21.377-7.01172L21.4453-7.98828L19.9512-9.47266L18.4277-9.21875C18.1055-9.15039 17.959-9.17969 17.7148-9.41406L15.7129-11.416C15.459-11.6504 15.4297-11.8164 15.5859-12.1875L16.4648-14.2773C14.9023-15.7324 12.8711-16.3574 10.8398-15.7617C10.6836-15.7227 10.625-15.8496 10.752-15.957Z"/>
  </g>
  <text style="stroke:none;fill:black;font-family:sans-serif;font-size:13;font-weight:bold;" transform="matrix(1 0 0 1 1289 1953)">Exporting</text>
  <text style="stroke:none;fill:black;font-family:sans-serif;font-size:13;" transform="matrix(1 0 0 1 1289 1971)">Symbols should be outlined when exporting to ensure the</text>
  <text style="stroke:none;fill:black;font-family:sans-serif;font-size:13;" transform="matrix(1 0 0 1 1289 1989)">design is preserved when submitting to Xcode.</text>
  <text id="template-version" style="stroke:none;fill:black;font-family:sans-serif;font-size:13;text-anchor:end;" transform="matrix(1 0 0 1 3036 1933)">Template v.4.0</text>
  <text style="stroke:none;fill:black;font-family:sans-serif;font-size:13;text-anchor:end;" transform="matrix(1 0 0 1 3036 1951)">Requires Xcode 14 or greater</text>
  <text id="descriptive-name" style="stroke:none;fill:black;font-family:sans-serif;font-size:13;text-anchor:end;" transform="matrix(1 0 0 1 3036 1969)">Generated from case.tequila</text>
  <text style="stroke:none;fill:black;font-family:sans-serif;font-size:13;text-anchor:end;" transform="matrix(1 0 0 1 3036 1987)">Typeset at 100 points</text>
  <text style="stroke:none;fill:black;font-family:sans-serif;font-size:13;" transform="matrix(1 0 0 1 263 726)">Small</text>
  <text style="stroke:none;fill:black;font-family:sans-serif;font-size:13;" transform="matrix(1 0 0 1 263 1156)">Medium</text>
  <text style="stroke:none;fill:black;font-family:sans-serif;font-size:13;" transform="matrix(1 0 0 1 263 1586)">Large</text>
 </g>
 <g id="Guides">
  <g id="H-reference" style="fill:#27AAE1;stroke:none;" transform="matrix(1 0 0 1 339 696)">
   <path d="M0.993654 0L3.63775 0L29.3281-67.1323L30.0303-67.1323L30.0303-70.459L28.1226-70.459ZM11.6885-24.4799L46.9815-24.4799L46.2315-26.7285L12.4385-26.7285ZM55.1196 0L57.7637 0L30.6382-70.459L29.4326-70.459L29.4326-67.1323Z"/>
  </g>
  <line id="Baseline-S" style="fill:none;stroke:#27AAE1;opacity:1;stroke-width:0.5;" x1="263" x2="3036" y1="696" y2="696"/>
  <line id="Capline-S" style="fill:none;stroke:#27AAE1;opacity:1;stroke-width:0.5;" x1="263" x2="3036" y1="625.541" y2="625.541"/>
  <g id="H-reference" style="fill:#27AAE1;stroke:none;" transform="matrix(1 0 0 1 339 1126)">
   <path d="M0.993654 0L3.63775 0L29.3281-67.1323L30.0303-67.1323L30.0303-70.459L28.1226-70.459ZM11.6885-24.4799L46.9815-24.4799L46.2315-26.7285L12.4385-26.7285ZM55.1196 0L57.7637 0L30.6382-70.459L29.4326-70.459L29.4326-67.1323Z"/>
  </g>
  <line id="Baseline-M" style="fill:none;stroke:#27AAE1;opacity:1;stroke-width:0.5;" x1="263" x2="3036" y1="1126" y2="1126"/>
  <line id="Capline-M" style="fill:none;stroke:#27AAE1;opacity:1;stroke-width:0.5;" x1="263" x2="3036" y1="1055.54" y2="1055.54"/>
  <g id="H-reference" style="fill:#27AAE1;stroke:none;" transform="matrix(1 0 0 1 339 1556)">
   <path d="M0.993654 0L3.63775 0L29.3281-67.1323L30.0303-67.1323L30.0303-70.459L28.1226-70.459ZM11.6885-24.4799L46.9815-24.4799L46.2315-26.7285L12.4385-26.7285ZM55.1196 0L57.7637 0L30.6382-70.459L29.4326-70.459L29.4326-67.1323Z"/>
  </g>
  <line id="Baseline-L" style="fill:none;stroke:#27AAE1;opacity:1;stroke-width:0.5;" x1="263" x2="3036" y1="1556" y2="1556"/>
  <line id="Capline-L" style="fill:none;stroke:#27AAE1;opacity:1;stroke-width:0.5;" x1="263" x2="3036" y1="1485.54" y2="1485.54"/>
  <line id="left-margin-Ultralight-S" style="fill:none;stroke:#00AEEF;stroke-width:0.5;opacity:1.0;" x1="516.611" x2="516.611" y1="600.785" y2="720.121"/>
  <line id="right-margin-Ultralight-S" style="fill:none;stroke:#00AEEF;stroke-width:0.5;opacity:1.0;" x1="602.811" x2="602.811" y1="600.785" y2="720.121"/>
  <line id="left-margin-Regular-S" style="fill:none;stroke:#00AEEF;stroke-width:0.5;opacity:1.0;" x1="1400.39" x2="1400.39" y1="600.785" y2="720.121"/>
  <line id="right-margin-Regular-S" style="fill:none;stroke:#00AEEF;stroke-width:0.5;opacity:1.0;" x1="1499.29" x2="1499.29" y1="600.785" y2="720.121"/>
  <line id="left-margin-Black-S" style="fill:none;stroke:#00AEEF;stroke-width:0.5;opacity:1.0;" x1="2882.6" x2="2882.6" y1="600.785" y2="720.121"/>
  <line id="right-margin-Black-S" style="fill:none;stroke:#00AEEF;stroke-width:0.5;opacity:1.0;" x1="2984.2" x2="2984.2" y1="600.785" y2="720.121"/>
 </g>
 <g id="Symbols">
  <g id="Black-S" transform="matrix(1 0 0 1 2882.6 696)">
   <path class="monochrome-0 SFSymbolsPreview000000" d="M91.12-41C91.12-47 86.22-51.9 80.22-51.9C74.42-51.9 69.72-47.4 69.42-41.6L40.12-41.6C39.12-41.6 38.22-40.8 38.22-39.7L38.22-31.6C38.22-26.3 42.52-21.9 47.92-21.9L50.72-21.9L50.72-19C50.72-14.4 54.02-10.6 58.32-9.7L58.32 3.2L46.82 10.4C45.72 11.1 46.22 12.8 47.52 12.8L72.92 12.8C74.22 12.8 74.72 11.1 73.62 10.4L62.02 3.2L62.02-9.7C66.32-10.6 69.62-14.4 69.62-19L69.62-21.9L72.42-21.9C77.32-21.9 81.32-25.5 82.02-30.2C87.12-31.1 91.12-35.6 91.12-41ZM35.52-16.3L32.22-32.8C30.22-43 28.92-53.2 28.22-63.6L27.82-69.3L20.12-69.3L19.72-63.6C19.02-53.3 17.72-43 15.72-32.8L12.62-16.3C11.12-9.1 10.42-1.8 10.42 5.5L10.42 10C10.42 11.6 11.72 12.9 13.32 12.9L34.72 12.9C36.32 12.9 37.62 11.6 37.62 10L37.62 5.5C37.62-1.8 36.92-9.1 35.52-16.3ZM33.92 9.1L14.22 9.1L14.22 5.5C14.22-1.5 14.92-8.6 16.32-15.5L19.52-32C21.52-42.3 22.92-52.8 23.62-63.3L23.72-65.5L24.42-65.5L24.52-63.3C25.22-52.8 26.52-42.3 28.62-32L31.92-15.5C33.32-8.6 34.02-1.5 34.02 5.5L34.02 9.1ZM28.02 3.4L20.32 3.4C19.42 3.4 18.72 2.6 18.82 1.7L24.12-39.7L29.42 1.7C29.62 2.6 28.92 3.4 28.02 3.4ZM78.42-32.9L41.92-32.9L41.92-37.8L78.32-37.8L78.32-32.9ZM28.92-76.5L28.02-76.5C29.32-77 30.22-78.1 30.22-79.6L30.22-80C30.22-81.8 28.72-83.3 26.92-83.3L21.22-83.3C19.42-83.3 17.92-81.8 17.92-80L17.92-79.5C17.92-78.1 18.82-76.9 20.12-76.4L19.22-76.4C18.22-76.4 17.32-75.6 17.32-74.5C17.32-73.5 18.12-72.6 19.22-72.6L29.02-72.6C30.02-72.6 30.92-73.4 30.92-74.5C30.82-75.7 30.02-76.5 28.92-76.5ZM82.12-34.1L82.12-39.8C82.12-40.8 81.32-41.7 80.22-41.7L73.12-41.7C73.42-45.4 76.52-48.2 80.22-48.2C84.12-48.2 87.42-45 87.42-41C87.42-37.7 85.12-34.9 82.12-34.1Z"/>
  </g>
  <g id="Regular-S" transform="matrix(1 0 0 1 1400.39 696)">
   <path class="monochrome-0 SFSymbolsPreview000000" d="M87.31-40.9C87.31-46.5 82.71-51.1 77.11-51.1C71.61-51.1 67.21-46.8 66.91-41.5L39.41-41.5C38.41-41.5 37.61-40.7 37.61-39.7L37.61-32.1C37.61-27.1 41.71-23 46.71-23L49.31-23L49.31-20.2C49.31-15.9 52.41-12.3 56.51-11.5L56.51 0.7L45.71 7.4C44.71 8 45.11 9.6 46.31 9.6L70.21 9.6C71.41 9.6 71.91 8 70.81 7.4L60.01 0.7L60.01-11.4C64.11-12.2 67.21-15.8 67.21-20.1L67.21-23L69.81-23C74.41-23 78.21-26.4 78.81-30.8C83.61-31.6 87.31-35.8 87.31-40.9ZM35.11-17.7L32.01-33.2C30.11-42.7 28.91-52.4 28.21-62.1L27.91-67.4L20.71-67.4L20.41-62.1C19.81-52.4 18.51-42.7 16.71-33.2L13.51-17.7C12.21-11 11.51-4.1 11.51 2.7L11.51 6.9C11.51 8.4 12.71 9.6 14.21 9.6L34.31 9.6C35.81 9.6 37.01 8.4 37.01 6.9L37.01 2.8C37.11-4.1 36.41-10.9 35.11-17.7ZM33.61 6.2L15.01 6.2L15.01 2.8C15.01-3.9 15.71-10.5 17.01-17L20.01-32.5C21.91-42.2 23.21-52.1 23.81-61.9L23.91-64L24.61-64L24.71-61.9C25.31-52.1 26.61-42.2 28.51-32.5L31.61-17C32.91-10.5 33.51-3.9 33.51 2.8L33.51 6.2ZM28.01 0.8L20.81 0.8C20.01 0.8 19.31 0.1 19.41-0.8L24.41-39.7L29.41-0.8C29.51 0.1 28.91 0.8 28.01 0.8ZM75.41-33.3L41.11-33.3L41.11-38L75.41-38L75.41-33.3ZM28.91-74.3L28.01-74.3C29.21-74.7 30.01-75.8 30.01-77.2L30.01-77.7C30.01-79.4 28.61-80.8 26.91-80.8L21.51-80.8C19.81-80.8 18.41-79.4 18.41-77.7L18.41-77.2C18.41-75.9 19.21-74.7 20.41-74.3L19.51-74.3C18.51-74.3 17.71-73.5 17.71-72.5C17.71-71.5 18.51-70.7 19.51-70.7L28.71-70.7C29.71-70.7 30.51-71.5 30.51-72.5C30.51-73.5 29.91-74.3 28.91-74.3ZM78.91-34.4L78.91-39.7C78.91-40.7 78.11-41.5 77.11-41.5L70.41-41.5C70.71-44.9 73.61-47.6 77.11-47.6C80.81-47.6 83.81-44.6 83.81-40.9C83.81-37.8 81.71-35.2 78.91-34.4Z"/>
  </g>
  <g id="Ultralight-S" transform="matrix(1 0 0 1 516.611 696)">
   <path class="monochrome-0 SFSymbolsPreview000000" d="M77.949-40.4C77.949-45.6 73.749-49.8 68.549-49.8C63.549-49.8 59.449-45.9 59.149-40.9L33.849-40.9C32.949-40.9 32.249-40.2 32.249-39.3L32.249-32.3C32.249-27.7 36.049-23.9 40.649-23.9L43.049-23.9L43.049-21.4C43.049-17.4 45.849-14.1 49.649-13.4L49.649-2.3L39.649 4C38.649 4.6 39.149 6.1 40.249 6.1L62.249 6.1C63.349 6.1 63.749 4.6 62.849 4L52.849-2.2L52.849-13.3C56.649-14 59.449-17.4 59.449-21.3L59.449-23.8L61.849-23.8C66.049-23.8 69.549-26.9 70.149-31C74.549-31.8 77.949-35.7 77.949-40.4ZM29.949-19L27.149-33.2C25.449-42 24.249-50.8 23.749-59.8L23.449-64.7L16.749-64.7L16.449-59.8C15.849-50.9 14.749-42 13.049-33.2L10.149-19C8.949-12.9 8.349-6.6 8.349-0.3L8.349 3.5C8.349 4.9 9.449 6 10.849 6L29.349 6C30.749 6 31.849 4.9 31.849 3.5L31.849-0.3C31.749-6.6 31.149-12.9 29.949-19ZM28.549 2.8L11.549 2.8L11.549-0.3C11.549-6.4 12.149-12.5 13.349-18.4L16.149-32.6C17.949-41.5 19.049-50.6 19.649-59.6L19.749-61.5L20.349-61.5L20.449-59.6C21.049-50.6 22.149-41.5 23.949-32.6L26.749-18.4C27.949-12.4 28.549-6.3 28.549-0.3L28.549 2.8ZM23.449-2.1L16.849-2.1C16.049-2.1 15.449-2.8 15.549-3.6L20.149-39.4L24.749-3.6C24.849-2.8 24.249-2.1 23.449-2.1ZM66.949-33.4L35.549-33.4L35.549-37.7L67.049-37.7L67.049-33.4ZM24.249-71.1L23.449-71.1C24.549-71.5 25.349-72.5 25.349-73.7L25.349-74.1C25.349-75.7 24.049-76.9 22.549-76.9L17.649-76.9C16.049-76.9 14.849-75.6 14.849-74.1L14.849-73.7C14.849-72.5 15.649-71.4 16.749-71.1L15.949-71.1C15.049-71.1 14.349-70.4 14.349-69.5C14.349-68.6 15.049-67.9 15.949-67.9L24.449-67.9C25.349-67.9 26.049-68.6 26.049-69.5C25.849-70.3 25.149-71.1 24.249-71.1ZM70.149-34.4L70.149-39.3C70.149-40.2 69.449-40.9 68.549-40.9L62.349-40.9C62.649-44.1 65.249-46.5 68.549-46.5C71.949-46.5 74.749-43.7 74.749-40.3C74.749-37.5 72.849-35.1 70.149-34.4Z"/>
  </g>
 </g>
</svg>
