<?xml version="1.0" encoding="UTF-8"?>
<!--Generator: Apple Native CoreSVG 175.5-->
<!DOCTYPE svg
PUBLIC "-//W3C//DTD SVG 1.1//EN"
       "http://www.w3.org/Graphics/SVG/1.1/DTD/svg11.dtd">
<svg version="1.1" xmlns="http://www.w3.org/2000/svg" xmlns:xlink="http://www.w3.org/1999/xlink" width="3300" height="2200">
 <!--glyph: "", point size: 100.0, font version: "18.0d12e2", template writer version: "101"-->
 <style>.monochrome-0 {fill:#000000}

.SFSymbolsPreview000000 {fill:#000000;opacity:1.0}
</style>
 <g id="Notes">
  <rect height="2200" id="artboard" style="fill:white;opacity:1" width="3300" x="0" y="0"/>
  <line style="fill:none;stroke:black;opacity:1;stroke-width:0.5;" x1="263" x2="3036" y1="292" y2="292"/>
  <text style="stroke:none;fill:black;font-family:sans-serif;font-size:13;font-weight:bold;" transform="matrix(1 0 0 1 263 322)">Weight/Scale Variations</text>
  <text style="stroke:none;fill:black;font-family:sans-serif;font-size:13;text-anchor:middle;" transform="matrix(1 0 0 1 559.711 322)">Ultralight</text>
  <text style="stroke:none;fill:black;font-family:sans-serif;font-size:13;text-anchor:middle;" transform="matrix(1 0 0 1 856.422 322)">Thin</text>
  <text style="stroke:none;fill:black;font-family:sans-serif;font-size:13;text-anchor:middle;" transform="matrix(1 0 0 1 1153.13 322)">Light</text>
  <text style="stroke:none;fill:black;font-family:sans-serif;font-size:13;text-anchor:middle;" transform="matrix(1 0 0 1 1449.84 322)">Regular</text>
  <text style="stroke:none;fill:black;font-family:sans-serif;font-size:13;text-anchor:middle;" transform="matrix(1 0 0 1 1746.56 322)">Medium</text>
  <text style="stroke:none;fill:black;font-family:sans-serif;font-size:13;text-anchor:middle;" transform="matrix(1 0 0 1 2043.27 322)">Semibold</text>
  <text style="stroke:none;fill:black;font-family:sans-serif;font-size:13;text-anchor:middle;" transform="matrix(1 0 0 1 2339.98 322)">Bold</text>
  <text style="stroke:none;fill:black;font-family:sans-serif;font-size:13;text-anchor:middle;" transform="matrix(1 0 0 1 2636.69 322)">Heavy</text>
  <text style="stroke:none;fill:black;font-family:sans-serif;font-size:13;text-anchor:middle;" transform="matrix(1 0 0 1 2933.4 322)">Black</text>
  <line style="fill:none;stroke:black;opacity:1;stroke-width:0.5;" x1="263" x2="3036" y1="1903" y2="1903"/>
  <g transform="matrix(1 0 0 1 263 1933)">
   <path d="M9.24805 0.830078C13.5547 0.830078 17.1387-2.74414 17.1387-7.05078C17.1387-11.3574 13.5449-14.9316 9.23828-14.9316C4.94141-14.9316 1.36719-11.3574 1.36719-7.05078C1.36719-2.74414 4.95117 0.830078 9.24805 0.830078ZM9.24805-0.654297C5.70312-0.654297 2.87109-3.49609 2.87109-7.05078C2.87109-10.6055 5.69336-13.4473 9.23828-13.4473C12.793-13.4473 15.6445-10.6055 15.6445-7.05078C15.6445-3.49609 12.8027-0.654297 9.24805-0.654297ZM5.6543-7.05078C5.6543-6.62109 5.95703-6.32812 6.40625-6.32812L8.50586-6.32812L8.50586-4.20898C8.50586-3.76953 8.79883-3.4668 9.22852-3.4668C9.67773-3.4668 9.9707-3.76953 9.9707-4.20898L9.9707-6.32812L12.0898-6.32812C12.5293-6.32812 12.832-6.62109 12.832-7.05078C12.832-7.49023 12.5293-7.79297 12.0898-7.79297L9.9707-7.79297L9.9707-9.90234C9.9707-10.3516 9.67773-10.6543 9.22852-10.6543C8.79883-10.6543 8.50586-10.3516 8.50586-9.90234L8.50586-7.79297L6.40625-7.79297C5.95703-7.79297 5.6543-7.49023 5.6543-7.05078Z"/>
  </g>
  <g transform="matrix(1 0 0 1 281.867 1933)">
   <path d="M11.709 2.91016C17.1582 2.91016 21.6699-1.61133 21.6699-7.05078C21.6699-12.5 17.1484-17.0117 11.6992-17.0117C6.25977-17.0117 1.74805-12.5 1.74805-7.05078C1.74805-1.61133 6.26953 2.91016 11.709 2.91016ZM11.709 1.25C7.09961 1.25 3.41797-2.44141 3.41797-7.05078C3.41797-11.6602 7.08984-15.3516 11.6992-15.3516C16.3086-15.3516 20.0098-11.6602 20.0098-7.05078C20.0098-2.44141 16.3184 1.25 11.709 1.25ZM7.17773-7.05078C7.17773-6.57227 7.50977-6.25 8.00781-6.25L10.8789-6.25L10.8789-3.36914C10.8789-2.88086 11.2109-2.53906 11.6895-2.53906C12.1777-2.53906 12.5195-2.87109 12.5195-3.36914L12.5195-6.25L15.4004-6.25C15.8887-6.25 16.2305-6.57227 16.2305-7.05078C16.2305-7.53906 15.8887-7.88086 15.4004-7.88086L12.5195-7.88086L12.5195-10.752C12.5195-11.25 12.1777-11.5918 11.6895-11.5918C11.2109-11.5918 10.8789-11.25 10.8789-10.752L10.8789-7.88086L8.00781-7.88086C7.50977-7.88086 7.17773-7.53906 7.17773-7.05078Z"/>
  </g>
  <g transform="matrix(1 0 0 1 305.646 1933)">
   <path d="M14.9707 5.66406C21.9336 5.66406 27.6953-0.0976562 27.6953-7.05078C27.6953-14.0137 21.9238-19.7754 14.9609-19.7754C8.00781-19.7754 2.25586-14.0137 2.25586-7.05078C2.25586-0.0976562 8.01758 5.66406 14.9707 5.66406ZM14.9707 3.84766C8.93555 3.84766 4.08203-1.01562 4.08203-7.05078C4.08203-13.0957 8.92578-17.9492 14.9609-17.9492C21.0059-17.9492 25.8691-13.0957 25.8691-7.05078C25.8691-1.01562 21.0156 3.84766 14.9707 3.84766ZM9.19922-7.05078C9.19922-6.5332 9.57031-6.17188 10.1172-6.17188L14.0625-6.17188L14.0625-2.2168C14.0625-1.67969 14.4336-1.29883 14.9512-1.29883C15.4883-1.29883 15.8594-1.66992 15.8594-2.2168L15.8594-6.17188L19.8145-6.17188C20.3516-6.17188 20.7324-6.5332 20.7324-7.05078C20.7324-7.59766 20.3613-7.96875 19.8145-7.96875L15.8594-7.96875L15.8594-11.9141C15.8594-12.4609 15.4883-12.8418 14.9512-12.8418C14.4336-12.8418 14.0625-12.4609 14.0625-11.9141L14.0625-7.96875L10.1172-7.96875C9.57031-7.96875 9.19922-7.59766 9.19922-7.05078Z"/>
  </g>
  <text style="stroke:none;fill:black;font-family:sans-serif;font-size:13;font-weight:bold;" transform="matrix(1 0 0 1 263 1953)">Design Variations</text>
  <text style="stroke:none;fill:black;font-family:sans-serif;font-size:13;" transform="matrix(1 0 0 1 263 1971)">Symbols are supported in up to nine weights and three scales.</text>
  <text style="stroke:none;fill:black;font-family:sans-serif;font-size:13;" transform="matrix(1 0 0 1 263 1989)">For optimal layout with text and other symbols, vertically align</text>
  <text style="stroke:none;fill:black;font-family:sans-serif;font-size:13;" transform="matrix(1 0 0 1 263 2007)">symbols with the adjacent text.</text>
  <line style="fill:none;stroke:#00AEEF;stroke-width:0.5;opacity:1.0;" x1="776" x2="776" y1="1919" y2="1933"/>
  <g transform="matrix(1 0 0 1 776 1933)">
   <path d="M3.31055 0.15625C3.82812 0.15625 4.08203-0.0390625 4.26758-0.585938L5.52734-4.0332L11.2891-4.0332L12.5488-0.585938C12.7344-0.0390625 12.9883 0.15625 13.4961 0.15625C14.0137 0.15625 14.3457-0.15625 14.3457-0.644531C14.3457-0.810547 14.3164-0.966797 14.2383-1.17188L9.6582-13.3691C9.43359-13.9648 9.0332-14.2676 8.4082-14.2676C7.80273-14.2676 7.39258-13.9746 7.17773-13.3789L2.59766-1.16211C2.51953-0.957031 2.49023-0.800781 2.49023-0.634766C2.49023-0.146484 2.80273 0.15625 3.31055 0.15625ZM6.00586-5.51758L8.37891-12.0898L8.42773-12.0898L10.8008-5.51758Z"/>
  </g>
  <line style="fill:none;stroke:#00AEEF;stroke-width:0.5;opacity:1.0;" x1="793.197" x2="793.197" y1="1919" y2="1933"/>
  <text style="stroke:none;fill:black;font-family:sans-serif;font-size:13;font-weight:bold;" transform="matrix(1 0 0 1 776 1953)">Margins</text>
  <text style="stroke:none;fill:black;font-family:sans-serif;font-size:13;" transform="matrix(1 0 0 1 776 1971)">Leading and trailing margins on the left and right side of each symbol</text>
  <text style="stroke:none;fill:black;font-family:sans-serif;font-size:13;" transform="matrix(1 0 0 1 776 1989)">can be adjusted by modifying the x-location of the margin guidelines.</text>
  <text style="stroke:none;fill:black;font-family:sans-serif;font-size:13;" transform="matrix(1 0 0 1 776 2007)">Modifications are automatically applied proportionally to all</text>
  <text style="stroke:none;fill:black;font-family:sans-serif;font-size:13;" transform="matrix(1 0 0 1 776 2025)">scales and weights.</text>
  <g transform="matrix(1 0 0 1 1289 1933)">
   <path d="M2.8418 1.86523L4.54102 3.57422C5.40039 4.44336 6.38672 4.38477 7.31445 3.35938L18.0078-8.42773L17.041-9.4043L6.42578 2.27539C6.07422 2.67578 5.74219 2.77344 5.27344 2.30469L4.10156 1.14258C3.63281 0.683594 3.74023 0.341797 4.14062-0.0195312L15.6152-10.8203L14.6387-11.7871L3.04688-0.898438C2.06055 0.0195312 1.98242 0.996094 2.8418 1.86523ZM9.25781-16.3281C8.83789-15.918 8.80859-15.3418 9.04297-14.9512C9.27734-14.5898 9.73633-14.3555 10.3809-14.5215C11.8457-14.8633 13.3691-14.9219 14.7949-13.9844L14.209-12.5293C13.8672-11.6992 14.043-11.1133 14.5801-10.5664L16.875-8.25195C17.3633-7.76367 17.7734-7.74414 18.3398-7.8418L19.4043-8.03711L20.0684-7.36328L20.0293-6.80664C19.9902-6.30859 20.1172-5.92773 20.6055-5.44922L21.3672-4.70703C21.8457-4.22852 22.4609-4.19922 22.9297-4.66797L25.8398-7.58789C26.3086-8.05664 26.2891-8.65234 25.8105-9.13086L25.0391-9.89258C24.5605-10.3711 24.1895-10.5273 23.7109-10.4883L23.1348-10.4395L22.4902-11.0742L22.7344-12.1973C22.8613-12.7637 22.7051-13.2031 22.1191-13.7891L19.9219-15.9766C16.582-19.2969 12.1484-19.2188 9.25781-16.3281ZM10.752-15.957C13.1836-17.7344 16.4746-17.4316 18.7012-15.2051L21.1328-12.793C21.3672-12.5586 21.4062-12.373 21.3379-12.0312L21.0156-10.5469L22.5195-9.0625L23.5059-9.12109C23.7598-9.13086 23.8379-9.11133 24.0332-8.91602L24.6094-8.33984L22.168-5.89844L21.5918-6.47461C21.3965-6.66992 21.3672-6.74805 21.377-7.01172L21.4453-7.98828L19.9512-9.47266L18.4277-9.21875C18.1055-9.15039 17.959-9.17969 17.7148-9.41406L15.7129-11.416C15.459-11.6504 15.4297-11.8164 15.5859-12.1875L16.4648-14.2773C14.9023-15.7324 12.8711-16.3574 10.8398-15.7617C10.6836-15.7227 10.625-15.8496 10.752-15.957Z"/>
  </g>
  <text style="stroke:none;fill:black;font-family:sans-serif;font-size:13;font-weight:bold;" transform="matrix(1 0 0 1 1289 1953)">Exporting</text>
  <text style="stroke:none;fill:black;font-family:sans-serif;font-size:13;" transform="matrix(1 0 0 1 1289 1971)">Symbols should be outlined when exporting to ensure the</text>
  <text style="stroke:none;fill:black;font-family:sans-serif;font-size:13;" transform="matrix(1 0 0 1 1289 1989)">design is preserved when submitting to Xcode.</text>
  <text id="template-version" style="stroke:none;fill:black;font-family:sans-serif;font-size:13;text-anchor:end;" transform="matrix(1 0 0 1 3036 1933)">Template v.4.0</text>
  <text style="stroke:none;fill:black;font-family:sans-serif;font-size:13;text-anchor:end;" transform="matrix(1 0 0 1 3036 1951)">Requires Xcode 14 or greater</text>
  <text id="descriptive-name" style="stroke:none;fill:black;font-family:sans-serif;font-size:13;text-anchor:end;" transform="matrix(1 0 0 1 3036 1969)">Generated from case.champagne</text>
  <text style="stroke:none;fill:black;font-family:sans-serif;font-size:13;text-anchor:end;" transform="matrix(1 0 0 1 3036 1987)">Typeset at 100 points</text>
  <text style="stroke:none;fill:black;font-family:sans-serif;font-size:13;" transform="matrix(1 0 0 1 263 726)">Small</text>
  <text style="stroke:none;fill:black;font-family:sans-serif;font-size:13;" transform="matrix(1 0 0 1 263 1156)">Medium</text>
  <text style="stroke:none;fill:black;font-family:sans-serif;font-size:13;" transform="matrix(1 0 0 1 263 1586)">Large</text>
 </g>
 <g id="Guides">
  <g id="H-reference" style="fill:#27AAE1;stroke:none;" transform="matrix(1 0 0 1 339 696)">
   <path d="M0.993654 0L3.63775 0L29.3281-67.1323L30.0303-67.1323L30.0303-70.459L28.1226-70.459ZM11.6885-24.4799L46.9815-24.4799L46.2315-26.7285L12.4385-26.7285ZM55.1196 0L57.7637 0L30.6382-70.459L29.4326-70.459L29.4326-67.1323Z"/>
  </g>
  <line id="Baseline-S" style="fill:none;stroke:#27AAE1;opacity:1;stroke-width:0.5;" x1="263" x2="3036" y1="696" y2="696"/>
  <line id="Capline-S" style="fill:none;stroke:#27AAE1;opacity:1;stroke-width:0.5;" x1="263" x2="3036" y1="625.541" y2="625.541"/>
  <g id="H-reference" style="fill:#27AAE1;stroke:none;" transform="matrix(1 0 0 1 339 1126)">
   <path d="M0.993654 0L3.63775 0L29.3281-67.1323L30.0303-67.1323L30.0303-70.459L28.1226-70.459ZM11.6885-24.4799L46.9815-24.4799L46.2315-26.7285L12.4385-26.7285ZM55.1196 0L57.7637 0L30.6382-70.459L29.4326-70.459L29.4326-67.1323Z"/>
  </g>
  <line id="Baseline-M" style="fill:none;stroke:#27AAE1;opacity:1;stroke-width:0.5;" x1="263" x2="3036" y1="1126" y2="1126"/>
  <line id="Capline-M" style="fill:none;stroke:#27AAE1;opacity:1;stroke-width:0.5;" x1="263" x2="3036" y1="1055.54" y2="1055.54"/>
  <g id="H-reference" style="fill:#27AAE1;stroke:none;" transform="matrix(1 0 0 1 339 1556)">
   <path d="M0.993654 0L3.63775 0L29.3281-67.1323L30.0303-67.1323L30.0303-70.459L28.1226-70.459ZM11.6885-24.4799L46.9815-24.4799L46.2315-26.7285L12.4385-26.7285ZM55.1196 0L57.7637 0L30.6382-70.459L29.4326-70.459L29.4326-67.1323Z"/>
  </g>
  <line id="Baseline-L" style="fill:none;stroke:#27AAE1;opacity:1;stroke-width:0.5;" x1="263" x2="3036" y1="1556" y2="1556"/>
  <line id="Capline-L" style="fill:none;stroke:#27AAE1;opacity:1;stroke-width:0.5;" x1="263" x2="3036" y1="1485.54" y2="1485.54"/>
  <line id="left-margin-Ultralight-S" style="fill:none;stroke:#00AEEF;stroke-width:0.5;opacity:1.0;" x1="519.611" x2="519.611" y1="600.785" y2="720.121"/>
  <line id="right-margin-Ultralight-S" style="fill:none;stroke:#00AEEF;stroke-width:0.5;opacity:1.0;" x1="599.811" x2="599.811" y1="600.785" y2="720.121"/>
  <line id="left-margin-Regular-S" style="fill:none;stroke:#00AEEF;stroke-width:0.5;opacity:1.0;" x1="1402.89" x2="1402.89" y1="600.785" y2="720.121"/>
  <line id="right-margin-Regular-S" style="fill:none;stroke:#00AEEF;stroke-width:0.5;opacity:1.0;" x1="1496.79" x2="1496.79" y1="600.785" y2="720.121"/>
  <line id="left-margin-Black-S" style="fill:none;stroke:#00AEEF;stroke-width:0.5;opacity:1.0;" x1="2885.6" x2="2885.6" y1="600.785" y2="720.121"/>
  <line id="right-margin-Black-S" style="fill:none;stroke:#00AEEF;stroke-width:0.5;opacity:1.0;" x1="2981.2" x2="2981.2" y1="600.785" y2="720.121"/>
 </g>
 <g id="Symbols">
  <g id="Black-S" transform="matrix(1 0 0 1 2885.6 696)">
   <path class="monochrome-0 SFSymbolsPreview000000" d="M44.52-32.6L41.02-39.9C37.32-47.6 35.32-56 35.32-64.5L35.32-70.7L25.42-70.7L25.42-64.2C25.42-55.9 23.62-47.7 20.02-40.1L16.42-32.5C14.62-28.7 13.72-24.6 13.72-20.5L13.72 10C13.72 11.6 15.02 12.8 16.52 12.8L44.42 12.8C46.02 12.8 47.22 11.5 47.22 10L47.22-20.3C47.42-24.6 46.42-28.8 44.52-32.6ZM43.72 9.1L17.62 9.1L17.62-20.5C17.62-24.1 18.42-27.7 19.92-30.9L23.52-38.5C27.32-46.5 29.32-55.3 29.32-64.1L29.32-66.9L31.72-66.9L31.72-64.4C31.72-55.4 33.82-46.3 37.72-38.2L41.22-31C42.82-27.7 43.72-24 43.72-20.3L43.72 9.1ZM81.12 10.4L69.62 3.3L69.62-17.4C71.82-17.8 73.82-18.8 75.32-20.4C77.32-22.5 78.42-25.2 78.32-28.1L77.52-58.6C77.52-59.6 76.62-60.4 75.62-60.4L59.82-60.4C58.82-60.4 58.02-59.6 57.92-58.6L57.12-28.1C57.02-25.2 58.12-22.5 60.12-20.4C61.72-18.8 63.72-17.7 65.82-17.4L65.82 3.3L54.32 10.5C53.22 11.2 53.72 12.9 55.02 12.9L80.42 12.9C81.72 12.8 82.22 11.1 81.12 10.4ZM40.42-1.1C40.42 0.4 39.22 1.6 37.72 1.6L23.52 1.6C22.02 1.6 20.82 0.4 20.82-1.1L20.82-11C20.82-12.5 22.02-13.7 23.52-13.7L37.82-13.7C39.32-13.7 40.52-12.5 40.52-11L40.52-1.1ZM61.62-56.8L73.82-56.8L74.12-46.7L61.32-46.7L61.62-56.8ZM34.02-83.3L27.32-83.3C25.72-83.3 24.52-82 24.52-80.5L24.52-77.1C24.52-75.5 25.82-74.3 27.32-74.3L34.02-74.3C35.62-74.3 36.82-75.6 36.82-77.1L36.82-80.5C36.82-82 35.52-83.3 34.02-83.3ZM70.72-32.6C69.32-32.6 68.22-33.7 68.22-35.1C68.22-36.5 69.32-37.6 70.72-37.6C72.12-37.6 73.22-36.5 73.22-35.1C73.22-33.8 72.12-32.6 70.72-32.6ZM67.72-24.8C66.32-24.8 65.22-25.9 65.22-27.3C65.22-28.7 66.32-29.8 67.72-29.8C69.12-29.8 70.22-28.7 70.22-27.3C70.22-25.9 69.12-24.8 67.72-24.8ZM62.12-40.6C62.12-42 63.22-43.1 64.62-43.1C66.02-43.1 67.12-42 67.12-40.6C67.12-39.2 66.02-38.1 64.62-38.1C63.22-38.1 62.12-39.2 62.12-40.6Z"/>
  </g>
  <g id="Regular-S" transform="matrix(1 0 0 1 1402.89 696)">
   <path class="monochrome-0 SFSymbolsPreview000000" d="M43.91-33.1L40.61-39.9C37.11-47.1 35.31-55 35.31-63L35.31-68.8L26.01-68.8L26.01-62.7C26.01-54.9 24.31-47.2 20.91-40.1L17.61-33C15.91-29.5 15.11-25.6 15.11-21.7L15.11 7C15.11 8.5 16.31 9.7 17.81 9.7L44.01 9.7C45.51 9.7 46.71 8.5 46.71 7L46.71-21.5C46.61-25.5 45.61-29.5 43.91-33.1ZM43.11 6.2L18.51 6.2L18.51-21.6C18.51-25 19.31-28.4 20.71-31.4L24.11-38.5C27.61-46 29.51-54.3 29.51-62.6L29.51-65.2L31.81-65.2L31.81-62.9C31.81-54.4 33.81-45.9 37.51-38.2L40.81-31.4C42.31-28.3 43.11-24.8 43.11-21.4L43.11 6.2ZM78.31 7.4L67.41 0.7L67.41-18.8C69.41-19.2 71.31-20.1 72.81-21.7C74.71-23.6 75.71-26.2 75.61-28.9L74.81-57.6C74.81-58.5 74.01-59.3 73.11-59.3L58.21-59.3C57.31-59.3 56.51-58.5 56.51-57.6L55.71-28.9C55.61-26.2 56.61-23.6 58.51-21.7C60.01-20.2 61.91-19.2 63.91-18.8L63.91 0.7L53.11 7.4C52.11 8 52.51 9.6 53.71 9.6L77.61 9.6C78.91 9.7 79.31 8.1 78.31 7.4ZM40.01-3.4C40.01-2 38.91-0.9 37.51-0.9L24.11-0.9C22.71-0.9 21.61-2 21.61-3.4L21.61-12.8C21.61-14.2 22.71-15.3 24.11-15.3L37.51-15.3C38.91-15.3 40.01-14.2 40.01-12.8L40.01-3.4ZM59.91-55.8L71.41-55.8L71.71-46.3L59.71-46.3L59.91-55.8ZM33.91-80.7L27.61-80.7C26.11-80.7 24.91-79.5 24.91-78L24.91-74.8C24.91-73.3 26.11-72.1 27.61-72.1L33.91-72.1C35.41-72.1 36.61-73.3 36.61-74.8L36.61-78C36.61-79.5 35.41-80.7 33.91-80.7ZM68.51-33.1C67.21-33.1 66.11-34.2 66.11-35.5C66.11-36.8 67.21-37.9 68.51-37.9C69.81-37.9 70.91-36.8 70.91-35.5C70.91-34.1 69.81-33.1 68.51-33.1ZM65.71-25.7C64.41-25.7 63.31-26.8 63.31-28.1C63.31-29.4 64.41-30.5 65.71-30.5C67.01-30.5 68.11-29.4 68.11-28.1C68.11-26.8 67.01-25.7 65.71-25.7ZM60.41-40.5C60.41-41.8 61.51-42.9 62.81-42.9C64.11-42.9 65.21-41.8 65.21-40.5C65.21-39.2 64.11-38.1 62.81-38.1C61.51-38.1 60.41-39.2 60.41-40.5Z"/>
  </g>
  <g id="Ultralight-S" transform="matrix(1 0 0 1 519.611 696)">
   <path class="monochrome-0 SFSymbolsPreview000000" d="M37.349-33.2L34.349-39.4C31.149-46 29.449-53.3 29.449-60.6L29.449-66L20.949-66L20.949-60.4C20.949-53.2 19.349-46.1 16.249-39.6L13.149-33.1C11.649-29.9 10.849-26.3 10.849-22.7L10.849 3.6C10.849 5 11.949 6 13.249 6L37.349 6C38.749 6 39.749 4.9 39.749 3.6L39.749-22.6C39.749-26.3 38.949-29.9 37.349-33.2ZM36.549 2.8L14.049 2.8L14.049-22.8C14.049-25.9 14.749-29 16.049-31.8L19.149-38.3C22.349-45.2 24.149-52.8 24.149-60.4L24.149-62.8L26.249-62.8L26.249-60.7C26.249-52.9 28.049-45.1 31.449-38.1L34.449-31.9C35.849-29 36.549-25.9 36.549-22.7L36.549 2.8ZM68.849 4L58.849-2.2L58.849-20.1C60.749-20.4 62.449-21.3 63.849-22.7C65.549-24.5 66.549-26.8 66.449-29.3L65.749-55.6C65.749-56.5 65.049-57.2 64.149-57.2L50.449-57.2C49.549-57.2 48.849-56.5 48.849-55.6L48.149-29.3C48.049-26.8 49.049-24.5 50.749-22.7C52.149-21.3 53.849-20.4 55.749-20.1L55.749-2.2L45.749 4C44.749 4.6 45.249 6.1 46.349 6.1L68.249 6.1C69.449 6.1 69.849 4.6 68.849 4ZM33.749-5.9C33.749-4.6 32.749-3.6 31.449-3.6L19.149-3.6C17.849-3.6 16.849-4.6 16.849-5.9L16.849-14.5C16.849-15.8 17.849-16.8 19.149-16.8L31.449-16.8C32.749-16.8 33.749-15.8 33.749-14.5L33.749-5.9ZM52.049-54L62.649-54L62.849-45.3L51.849-45.3L52.049-54ZM28.149-76.9L22.349-76.9C20.949-76.9 19.949-75.8 19.949-74.5L19.949-71.6C19.949-70.2 21.049-69.2 22.349-69.2L28.149-69.2C29.549-69.2 30.549-70.3 30.549-71.6L30.549-74.5C30.649-75.9 29.549-76.9 28.149-76.9ZM59.949-33.2C58.749-33.2 57.749-34.2 57.749-35.4C57.749-36.6 58.749-37.6 59.949-37.6C61.149-37.6 62.149-36.6 62.149-35.4C62.149-34.2 61.149-33.2 59.949-33.2ZM57.349-26.4C56.149-26.4 55.149-27.4 55.149-28.6C55.149-29.8 56.149-30.8 57.349-30.8C58.549-30.8 59.549-29.8 59.549-28.6C59.549-27.4 58.549-26.4 57.349-26.4ZM52.449-40.1C52.449-41.3 53.449-42.3 54.649-42.3C55.849-42.3 56.849-41.3 56.849-40.1C56.849-38.9 55.849-37.9 54.649-37.9C53.449-37.9 52.449-38.9 52.449-40.1Z"/>
  </g>
 </g>
</svg>
