<?xml version="1.0" encoding="UTF-8"?>
<!--Generator: Apple Native CoreSVG 175.5-->
<!DOCTYPE svg
PUBLIC "-//W3C//DTD SVG 1.1//EN"
       "http://www.w3.org/Graphics/SVG/1.1/DTD/svg11.dtd">
<svg version="1.1" xmlns="http://www.w3.org/2000/svg" xmlns:xlink="http://www.w3.org/1999/xlink" width="3300" height="2200">
 <!--glyph: "", point size: 100.0, font version: "18.0d12e2", template writer version: "101"-->
 <g id="Notes">
  <rect height="2200" id="artboard" style="fill:white;opacity:1" width="3300" x="0" y="0"/>
  <line style="fill:none;stroke:black;opacity:1;stroke-width:0.5;" x1="263" x2="3036" y1="292" y2="292"/>
  <text style="stroke:none;fill:black;font-family:sans-serif;font-size:13;font-weight:bold;" transform="matrix(1 0 0 1 263 322)">Weight/Scale Variations</text>
  <text style="stroke:none;fill:black;font-family:sans-serif;font-size:13;text-anchor:middle;" transform="matrix(1 0 0 1 559.711 322)">Ultralight</text>
  <text style="stroke:none;fill:black;font-family:sans-serif;font-size:13;text-anchor:middle;" transform="matrix(1 0 0 1 856.422 322)">Thin</text>
  <text style="stroke:none;fill:black;font-family:sans-serif;font-size:13;text-anchor:middle;" transform="matrix(1 0 0 1 1153.13 322)">Light</text>
  <text style="stroke:none;fill:black;font-family:sans-serif;font-size:13;text-anchor:middle;" transform="matrix(1 0 0 1 1449.84 322)">Regular</text>
  <text style="stroke:none;fill:black;font-family:sans-serif;font-size:13;text-anchor:middle;" transform="matrix(1 0 0 1 1746.56 322)">Medium</text>
  <text style="stroke:none;fill:black;font-family:sans-serif;font-size:13;text-anchor:middle;" transform="matrix(1 0 0 1 2043.27 322)">Semibold</text>
  <text style="stroke:none;fill:black;font-family:sans-serif;font-size:13;text-anchor:middle;" transform="matrix(1 0 0 1 2339.98 322)">Bold</text>
  <text style="stroke:none;fill:black;font-family:sans-serif;font-size:13;text-anchor:middle;" transform="matrix(1 0 0 1 2636.69 322)">Heavy</text>
  <text style="stroke:none;fill:black;font-family:sans-serif;font-size:13;text-anchor:middle;" transform="matrix(1 0 0 1 2933.4 322)">Black</text>
  <line style="fill:none;stroke:black;opacity:1;stroke-width:0.5;" x1="263" x2="3036" y1="1903" y2="1903"/>
  <g transform="matrix(1 0 0 1 263 1933)">
   <path d="M9.24805 0.830078C13.5547 0.830078 17.1387-2.74414 17.1387-7.05078C17.1387-11.3574 13.5449-14.9316 9.23828-14.9316C4.94141-14.9316 1.36719-11.3574 1.36719-7.05078C1.36719-2.74414 4.95117 0.830078 9.24805 0.830078ZM9.24805-0.654297C5.70312-0.654297 2.87109-3.49609 2.87109-7.05078C2.87109-10.6055 5.69336-13.4473 9.23828-13.4473C12.793-13.4473 15.6445-10.6055 15.6445-7.05078C15.6445-3.49609 12.8027-0.654297 9.24805-0.654297ZM5.6543-7.05078C5.6543-6.62109 5.95703-6.32812 6.40625-6.32812L8.50586-6.32812L8.50586-4.20898C8.50586-3.76953 8.79883-3.4668 9.22852-3.4668C9.67773-3.4668 9.9707-3.76953 9.9707-4.20898L9.9707-6.32812L12.0898-6.32812C12.5293-6.32812 12.832-6.62109 12.832-7.05078C12.832-7.49023 12.5293-7.79297 12.0898-7.79297L9.9707-7.79297L9.9707-9.90234C9.9707-10.3516 9.67773-10.6543 9.22852-10.6543C8.79883-10.6543 8.50586-10.3516 8.50586-9.90234L8.50586-7.79297L6.40625-7.79297C5.95703-7.79297 5.6543-7.49023 5.6543-7.05078Z"/>
  </g>
  <g transform="matrix(1 0 0 1 281.867 1933)">
   <path d="M11.709 2.91016C17.1582 2.91016 21.6699-1.61133 21.6699-7.05078C21.6699-12.5 17.1484-17.0117 11.6992-17.0117C6.25977-17.0117 1.74805-12.5 1.74805-7.05078C1.74805-1.61133 6.26953 2.91016 11.709 2.91016ZM11.709 1.25C7.09961 1.25 3.41797-2.44141 3.41797-7.05078C3.41797-11.6602 7.08984-15.3516 11.6992-15.3516C16.3086-15.3516 20.0098-11.6602 20.0098-7.05078C20.0098-2.44141 16.3184 1.25 11.709 1.25ZM7.17773-7.05078C7.17773-6.57227 7.50977-6.25 8.00781-6.25L10.8789-6.25L10.8789-3.36914C10.8789-2.88086 11.2109-2.53906 11.6895-2.53906C12.1777-2.53906 12.5195-2.87109 12.5195-3.36914L12.5195-6.25L15.4004-6.25C15.8887-6.25 16.2305-6.57227 16.2305-7.05078C16.2305-7.53906 15.8887-7.88086 15.4004-7.88086L12.5195-7.88086L12.5195-10.752C12.5195-11.25 12.1777-11.5918 11.6895-11.5918C11.2109-11.5918 10.8789-11.25 10.8789-10.752L10.8789-7.88086L8.00781-7.88086C7.50977-7.88086 7.17773-7.53906 7.17773-7.05078Z"/>
  </g>
  <g transform="matrix(1 0 0 1 305.646 1933)">
   <path d="M14.9707 5.66406C21.9336 5.66406 27.6953-0.0976562 27.6953-7.05078C27.6953-14.0137 21.9238-19.7754 14.9609-19.7754C8.00781-19.7754 2.25586-14.0137 2.25586-7.05078C2.25586-0.0976562 8.01758 5.66406 14.9707 5.66406ZM14.9707 3.84766C8.93555 3.84766 4.08203-1.01562 4.08203-7.05078C4.08203-13.0957 8.92578-17.9492 14.9609-17.9492C21.0059-17.9492 25.8691-13.0957 25.8691-7.05078C25.8691-1.01562 21.0156 3.84766 14.9707 3.84766ZM9.19922-7.05078C9.19922-6.5332 9.57031-6.17188 10.1172-6.17188L14.0625-6.17188L14.0625-2.2168C14.0625-1.67969 14.4336-1.29883 14.9512-1.29883C15.4883-1.29883 15.8594-1.66992 15.8594-2.2168L15.8594-6.17188L19.8145-6.17188C20.3516-6.17188 20.7324-6.5332 20.7324-7.05078C20.7324-7.59766 20.3613-7.96875 19.8145-7.96875L15.8594-7.96875L15.8594-11.9141C15.8594-12.4609 15.4883-12.8418 14.9512-12.8418C14.4336-12.8418 14.0625-12.4609 14.0625-11.9141L14.0625-7.96875L10.1172-7.96875C9.57031-7.96875 9.19922-7.59766 9.19922-7.05078Z"/>
  </g>
  <text style="stroke:none;fill:black;font-family:sans-serif;font-size:13;font-weight:bold;" transform="matrix(1 0 0 1 263 1953)">Design Variations</text>
  <text style="stroke:none;fill:black;font-family:sans-serif;font-size:13;" transform="matrix(1 0 0 1 263 1971)">Symbols are supported in up to nine weights and three scales.</text>
  <text style="stroke:none;fill:black;font-family:sans-serif;font-size:13;" transform="matrix(1 0 0 1 263 1989)">For optimal layout with text and other symbols, vertically align</text>
  <text style="stroke:none;fill:black;font-family:sans-serif;font-size:13;" transform="matrix(1 0 0 1 263 2007)">symbols with the adjacent text.</text>
  <line style="fill:none;stroke:#00AEEF;stroke-width:0.5;opacity:1.0;" x1="776" x2="776" y1="1919" y2="1933"/>
  <g transform="matrix(1 0 0 1 776 1933)">
   <path d="M3.31055 0.15625C3.82812 0.15625 4.08203-0.0390625 4.26758-0.585938L5.52734-4.0332L11.2891-4.0332L12.5488-0.585938C12.7344-0.0390625 12.9883 0.15625 13.4961 0.15625C14.0137 0.15625 14.3457-0.15625 14.3457-0.644531C14.3457-0.810547 14.3164-0.966797 14.2383-1.17188L9.6582-13.3691C9.43359-13.9648 9.0332-14.2676 8.4082-14.2676C7.80273-14.2676 7.39258-13.9746 7.17773-13.3789L2.59766-1.16211C2.51953-0.957031 2.49023-0.800781 2.49023-0.634766C2.49023-0.146484 2.80273 0.15625 3.31055 0.15625ZM6.00586-5.51758L8.37891-12.0898L8.42773-12.0898L10.8008-5.51758Z"/>
  </g>
  <line style="fill:none;stroke:#00AEEF;stroke-width:0.5;opacity:1.0;" x1="793.197" x2="793.197" y1="1919" y2="1933"/>
  <text style="stroke:none;fill:black;font-family:sans-serif;font-size:13;font-weight:bold;" transform="matrix(1 0 0 1 776 1953)">Margins</text>
  <text style="stroke:none;fill:black;font-family:sans-serif;font-size:13;" transform="matrix(1 0 0 1 776 1971)">Leading and trailing margins on the left and right side of each symbol</text>
  <text style="stroke:none;fill:black;font-family:sans-serif;font-size:13;" transform="matrix(1 0 0 1 776 1989)">can be adjusted by modifying the x-location of the margin guidelines.</text>
  <text style="stroke:none;fill:black;font-family:sans-serif;font-size:13;" transform="matrix(1 0 0 1 776 2007)">Modifications are automatically applied proportionally to all</text>
  <text style="stroke:none;fill:black;font-family:sans-serif;font-size:13;" transform="matrix(1 0 0 1 776 2025)">scales and weights.</text>
  <g transform="matrix(1 0 0 1 1289 1933)">
   <path d="M2.8418 1.86523L4.54102 3.57422C5.40039 4.44336 6.38672 4.38477 7.31445 3.35938L18.0078-8.42773L17.041-9.4043L6.42578 2.27539C6.07422 2.67578 5.74219 2.77344 5.27344 2.30469L4.10156 1.14258C3.63281 0.683594 3.74023 0.341797 4.14062-0.0195312L15.6152-10.8203L14.6387-11.7871L3.04688-0.898438C2.06055 0.0195312 1.98242 0.996094 2.8418 1.86523ZM9.25781-16.3281C8.83789-15.918 8.80859-15.3418 9.04297-14.9512C9.27734-14.5898 9.73633-14.3555 10.3809-14.5215C11.8457-14.8633 13.3691-14.9219 14.7949-13.9844L14.209-12.5293C13.8672-11.6992 14.043-11.1133 14.5801-10.5664L16.875-8.25195C17.3633-7.76367 17.7734-7.74414 18.3398-7.8418L19.4043-8.03711L20.0684-7.36328L20.0293-6.80664C19.9902-6.30859 20.1172-5.92773 20.6055-5.44922L21.3672-4.70703C21.8457-4.22852 22.4609-4.19922 22.9297-4.66797L25.8398-7.58789C26.3086-8.05664 26.2891-8.65234 25.8105-9.13086L25.0391-9.89258C24.5605-10.3711 24.1895-10.5273 23.7109-10.4883L23.1348-10.4395L22.4902-11.0742L22.7344-12.1973C22.8613-12.7637 22.7051-13.2031 22.1191-13.7891L19.9219-15.9766C16.582-19.2969 12.1484-19.2188 9.25781-16.3281ZM10.752-15.957C13.1836-17.7344 16.4746-17.4316 18.7012-15.2051L21.1328-12.793C21.3672-12.5586 21.4062-12.373 21.3379-12.0312L21.0156-10.5469L22.5195-9.0625L23.5059-9.12109C23.7598-9.13086 23.8379-9.11133 24.0332-8.91602L24.6094-8.33984L22.168-5.89844L21.5918-6.47461C21.3965-6.66992 21.3672-6.74805 21.377-7.01172L21.4453-7.98828L19.9512-9.47266L18.4277-9.21875C18.1055-9.15039 17.959-9.17969 17.7148-9.41406L15.7129-11.416C15.459-11.6504 15.4297-11.8164 15.5859-12.1875L16.4648-14.2773C14.9023-15.7324 12.8711-16.3574 10.8398-15.7617C10.6836-15.7227 10.625-15.8496 10.752-15.957Z"/>
  </g>
  <text style="stroke:none;fill:black;font-family:sans-serif;font-size:13;font-weight:bold;" transform="matrix(1 0 0 1 1289 1953)">Exporting</text>
  <text style="stroke:none;fill:black;font-family:sans-serif;font-size:13;" transform="matrix(1 0 0 1 1289 1971)">Symbols should be outlined when exporting to ensure the</text>
  <text style="stroke:none;fill:black;font-family:sans-serif;font-size:13;" transform="matrix(1 0 0 1 1289 1989)">design is preserved when submitting to Xcode.</text>
  <text id="template-version" style="stroke:none;fill:black;font-family:sans-serif;font-size:13;text-anchor:end;" transform="matrix(1 0 0 1 3036 1933)">Template v.4.0</text>
  <text style="stroke:none;fill:black;font-family:sans-serif;font-size:13;text-anchor:end;" transform="matrix(1 0 0 1 3036 1951)">Requires Xcode 14 or greater</text>
  <text id="descriptive-name" style="stroke:none;fill:black;font-family:sans-serif;font-size:13;text-anchor:end;" transform="matrix(1 0 0 1 3036 1969)">Generated from cellar.many.bottles.framed.fill</text>
  <text style="stroke:none;fill:black;font-family:sans-serif;font-size:13;text-anchor:end;" transform="matrix(1 0 0 1 3036 1987)">Typeset at 100 points</text>
  <text style="stroke:none;fill:black;font-family:sans-serif;font-size:13;" transform="matrix(1 0 0 1 263 726)">Small</text>
  <text style="stroke:none;fill:black;font-family:sans-serif;font-size:13;" transform="matrix(1 0 0 1 263 1156)">Medium</text>
  <text style="stroke:none;fill:black;font-family:sans-serif;font-size:13;" transform="matrix(1 0 0 1 263 1586)">Large</text>
 </g>
 <g id="Guides">
  <g id="H-reference" style="fill:#27AAE1;stroke:none;" transform="matrix(1 0 0 1 339 696)">
   <path d="M0.993654 0L3.63775 0L29.3281-67.1323L30.0303-67.1323L30.0303-70.459L28.1226-70.459ZM11.6885-24.4799L46.9815-24.4799L46.2315-26.7285L12.4385-26.7285ZM55.1196 0L57.7637 0L30.6382-70.459L29.4326-70.459L29.4326-67.1323Z"/>
  </g>
  <line id="Baseline-S" style="fill:none;stroke:#27AAE1;opacity:1;stroke-width:0.5;" x1="263" x2="3036" y1="696" y2="696"/>
  <line id="Capline-S" style="fill:none;stroke:#27AAE1;opacity:1;stroke-width:0.5;" x1="263" x2="3036" y1="625.541" y2="625.541"/>
  <g id="H-reference" style="fill:#27AAE1;stroke:none;" transform="matrix(1 0 0 1 339 1126)">
   <path d="M0.993654 0L3.63775 0L29.3281-67.1323L30.0303-67.1323L30.0303-70.459L28.1226-70.459ZM11.6885-24.4799L46.9815-24.4799L46.2315-26.7285L12.4385-26.7285ZM55.1196 0L57.7637 0L30.6382-70.459L29.4326-70.459L29.4326-67.1323Z"/>
  </g>
  <line id="Baseline-M" style="fill:none;stroke:#27AAE1;opacity:1;stroke-width:0.5;" x1="263" x2="3036" y1="1126" y2="1126"/>
  <line id="Capline-M" style="fill:none;stroke:#27AAE1;opacity:1;stroke-width:0.5;" x1="263" x2="3036" y1="1055.54" y2="1055.54"/>
  <g id="H-reference" style="fill:#27AAE1;stroke:none;" transform="matrix(1 0 0 1 339 1556)">
   <path d="M0.993654 0L3.63775 0L29.3281-67.1323L30.0303-67.1323L30.0303-70.459L28.1226-70.459ZM11.6885-24.4799L46.9815-24.4799L46.2315-26.7285L12.4385-26.7285ZM55.1196 0L57.7637 0L30.6382-70.459L29.4326-70.459L29.4326-67.1323Z"/>
  </g>
  <line id="Baseline-L" style="fill:none;stroke:#27AAE1;opacity:1;stroke-width:0.5;" x1="263" x2="3036" y1="1556" y2="1556"/>
  <line id="Capline-L" style="fill:none;stroke:#27AAE1;opacity:1;stroke-width:0.5;" x1="263" x2="3036" y1="1485.54" y2="1485.54"/>
  <line id="left-margin-Ultralight-S" style="fill:none;stroke:#00AEEF;stroke-width:0.5;opacity:1.0;" x1="504.811" x2="504.811" y1="600.785" y2="720.121"/>
  <line id="right-margin-Ultralight-S" style="fill:none;stroke:#00AEEF;stroke-width:0.5;opacity:1.0;" x1="614.611" x2="614.611" y1="600.785" y2="720.121"/>
  <line id="left-margin-Regular-S" style="fill:none;stroke:#00AEEF;stroke-width:0.5;opacity:1.0;" x1="1390.19" x2="1390.19" y1="600.785" y2="720.121"/>
  <line id="right-margin-Regular-S" style="fill:none;stroke:#00AEEF;stroke-width:0.5;opacity:1.0;" x1="1509.49" x2="1509.49" y1="600.785" y2="720.121"/>
  <line id="left-margin-Black-S" style="fill:none;stroke:#00AEEF;stroke-width:0.5;opacity:1.0;" x1="2870.7" x2="2870.7" y1="600.785" y2="720.121"/>
  <line id="right-margin-Black-S" style="fill:none;stroke:#00AEEF;stroke-width:0.5;opacity:1.0;" x1="2996.1" x2="2996.1" y1="600.785" y2="720.121"/>
 </g>
 <g id="Symbols">
  <g id="Black-S" transform="matrix(1 0 0 1 2870.7 696)">
   <path d="M107.91-83.4L17.51-83.4C15.91-83.4 14.71-82.1 14.71-80.6L14.71 9.8C14.71 11.4 16.01 12.6 17.51 12.6L107.91 12.6C109.51 12.6 110.71 11.3 110.71 9.8L110.71-80.6C110.81-82.2 109.51-83.4 107.91-83.4ZM62.71 7.3L59.51 4.1C60.41 4.7 61.51 5.1 62.71 5.1C64.01 5.1 65.21 4.7 66.21 4L62.81 7.4L62.71 7.4ZM62.81-78.1L82.81-58.1L75.71-51C76.41-52 76.81-53.1 76.81-54.4C76.81-57.7 74.11-60.3 70.91-60.3C69.61-60.3 68.51-59.9 67.51-59.2C68.21-60.2 68.61-61.4 68.61-62.7C68.61-66 65.91-68.6 62.71-68.6C59.41-68.6 56.81-65.9 56.81-62.7C56.81-61.4 57.21-60.2 57.91-59.2C56.91-59.9 55.81-60.3 54.51-60.3C51.21-60.3 48.61-57.6 48.61-54.4C48.61-53.1 49.01-52 49.71-51L42.71-58L62.81-78.1L62.81-78.1ZM93.51-37.6C90.21-37.6 87.61-34.9 87.61-31.7C87.61-30.5 87.91-29.4 88.51-28.5C87.61-29.1 86.51-29.4 85.31-29.4C84.11-29.4 83.01-29.1 82.11-28.5C82.71-29.4 83.01-30.5 83.01-31.7C83.01-35 80.31-37.6 77.11-37.6C73.81-37.6 71.21-34.9 71.21-31.7C71.21-30.5 71.61-29.4 72.21-28.4L65.31-35.3L85.41-55.4L105.41-35.4L105.41-35.3L98.31-28.2C99.01-29.2 99.41-30.4 99.41-31.7C99.51-35 96.81-37.6 93.51-37.6ZM90.31-26.7C91.21-26.1 92.31-25.8 93.51-25.8C94.81-25.8 96.01-26.2 97.01-26.9L90.11-20C90.81-21 91.21-22.2 91.21-23.5C91.31-24.7 90.91-25.8 90.31-26.7ZM70.91-14.9C69.61-14.9 68.51-14.5 67.51-13.8C68.21-14.8 68.61-16 68.61-17.3C68.61-20.6 65.91-23.2 62.71-23.2C59.41-23.2 56.81-20.5 56.81-17.3C56.81-16 57.21-14.8 57.91-13.8C56.91-14.5 55.81-14.9 54.51-14.9C51.21-14.9 48.61-12.2 48.61-9C48.61-7.8 49.01-6.7 49.61-5.8L42.71-12.7L62.71-32.7L82.81-12.6L75.71-5.5C76.41-6.5 76.81-7.7 76.81-9C76.81-12.3 74.11-14.9 70.91-14.9ZM67.71-4C68.61-3.4 69.71-3.1 70.91-3.1C72.21-3.1 73.41-3.5 74.41-4.2L67.51 2.7C68.21 1.7 68.61 0.5 68.61-0.8C68.61-2 68.31-3.1 67.71-4ZM65.91-5.8C65.01-6.4 63.91-6.7 62.71-6.7C61.51-6.7 60.41-6.4 59.51-5.8C60.11-6.7 60.41-7.8 60.41-9C60.41-10.3 60.01-11.5 59.31-12.5C60.31-11.8 61.41-11.4 62.71-11.4C64.01-11.4 65.11-11.8 66.11-12.5C65.41-11.5 65.01-10.3 65.01-9C64.91-7.8 65.31-6.7 65.91-5.8ZM54.51-3.1C55.71-3.1 56.81-3.4 57.71-4C57.11-3.1 56.81-2 56.81-0.8C56.81 0.4 57.21 1.5 57.81 2.4L51.31-4C52.21-3.4 53.31-3.1 54.51-3.1ZM31.81-25.8C33.01-25.8 34.11-26.1 35.01-26.7C34.41-25.8 34.11-24.7 34.11-23.5C34.11-22.3 34.51-21.2 35.11-20.3L28.71-26.7C29.51-26.1 30.61-25.8 31.81-25.8ZM31.81-37.6C28.51-37.6 25.91-34.9 25.91-31.7C25.91-30.5 26.31-29.4 26.91-28.5L20.01-35.3L20.01-35.4L40.01-55.4L60.01-35.3L53.11-28.4C53.71-29.3 54.11-30.5 54.11-31.7C54.11-35 51.41-37.6 48.21-37.6C44.91-37.6 42.31-34.9 42.31-31.7C42.31-30.5 42.61-29.4 43.21-28.5C42.31-29.1 41.21-29.4 40.01-29.4C38.81-29.4 37.71-29.1 36.81-28.5C37.41-29.4 37.71-30.5 37.71-31.7C37.71-35 35.11-37.6 31.81-37.6ZM54.51-48.5C55.71-48.5 56.81-48.8 57.71-49.4C57.11-48.5 56.81-47.4 56.81-46.2C56.81-44.9 57.21-43.8 57.91-42.8L51.21-49.5C52.11-48.9 53.21-48.5 54.51-48.5ZM62.71-56.8C64.01-56.8 65.11-57.2 66.11-57.9C65.41-56.9 65.01-55.7 65.01-54.4C65.01-53.2 65.31-52.1 65.91-51.2C65.01-51.8 63.91-52.1 62.71-52.1C61.51-52.1 60.41-51.8 59.51-51.2C60.11-52.1 60.41-53.2 60.41-54.4C60.41-55.7 60.01-56.9 59.31-57.9C60.31-57.2 61.41-56.8 62.71-56.8ZM62.71-40.3C64.01-40.3 65.11-40.7 66.11-41.4L62.71-38L59.31-41.4C60.31-40.7 61.41-40.3 62.71-40.3ZM45.01-26.7C45.91-26.1 47.01-25.8 48.21-25.8C49.41-25.8 50.51-26.2 51.51-26.8L45.01-20.3C45.61-21.2 46.01-22.4 46.01-23.6C45.91-24.7 45.61-25.8 45.01-26.7ZM40.01-17.6C41.21-17.6 42.31-18 43.31-18.6L40.01-15.3L36.81-18.5C37.71-17.9 38.81-17.6 40.01-17.6ZM77.21-25.8C78.41-25.8 79.51-26.1 80.41-26.7C79.81-25.8 79.51-24.7 79.51-23.5C79.51-22.3 79.91-21.2 80.51-20.2L74.01-26.7C74.81-26.1 76.01-25.8 77.21-25.8ZM82.11-18.6C83.01-18 84.21-17.6 85.41-17.6C86.71-17.6 87.91-18 88.91-18.7L85.41-15.2L82.11-18.6ZM67.71-49.4C68.61-48.8 69.71-48.5 70.91-48.5C72.21-48.5 73.31-48.9 74.31-49.6L67.61-42.9C68.31-43.9 68.71-45 68.71-46.3C68.61-47.4 68.31-48.5 67.71-49.4ZM105.41-40.7L88.11-58.1L105.51-75.5L105.51-40.7ZM85.41-60.7L68.01-78.1L102.81-78.1L85.41-60.7ZM40.01-60.7L22.51-78.1L57.41-78.1L40.01-60.7ZM37.31-58.1L20.01-40.7L20.01-75.4L37.31-58.1ZM20.01-30.1L37.41-12.7L20.01 4.7L20.01-30.1ZM40.01-10L57.41 7.3L22.61 7.3L40.01-10ZM85.41-10L102.81 7.4L68.01 7.4L85.41-10ZM88.01-12.6L105.41-30L105.41 4.8L88.01-12.6Z"/>
  </g>
  <g id="Regular-S" transform="matrix(1 0 0 1 1390.19 696)">
   <path d="M102.1-80.5L17.1-80.5C15.6-80.5 14.4-79.3 14.4-77.8L14.4 7.2C14.4 8.7 15.6 9.9 17.1 9.9L102.2 9.9C103.7 9.9 104.9 8.7 104.9 7.2L104.9-77.9C104.8-79.3 103.6-80.5 102.1-80.5ZM59.5 4.9L56.5 1.9C57.4 2.5 58.4 2.8 59.5 2.8C60.7 2.8 61.9 2.4 62.8 1.7L59.6 4.9L59.5 4.9ZM59.7-75.5L78.5-56.7L71.8-50C72.4-50.9 72.8-52 72.8-53.2C72.8-56.3 70.3-58.8 67.2-58.8C66-58.8 64.9-58.4 64-57.8C64.7-58.7 65.1-59.8 65.1-61.1C65.1-64.2 62.6-66.7 59.5-66.7C56.4-66.7 53.9-64.2 53.9-61.1C53.9-59.9 54.3-58.8 55-57.8C54.1-58.4 53-58.8 51.8-58.8C48.7-58.8 46.2-56.3 46.2-53.2C46.2-52 46.6-50.9 47.2-50L40.6-56.6L59.5-75.5L59.7-75.5ZM88.6-37.4C85.5-37.4 83-34.9 83-31.8C83-30.7 83.3-29.7 83.9-28.8C83-29.4 82-29.7 80.9-29.7C79.8-29.7 78.8-29.4 77.9-28.8C78.5-29.7 78.8-30.7 78.8-31.8C78.8-34.9 76.3-37.4 73.2-37.4C70.1-37.4 67.6-34.9 67.6-31.8C67.6-30.7 67.9-29.6 68.5-28.7L62-35.3L81-54.2L99.8-35.4L99.8-35.3L93.1-28.6C93.8-29.5 94.2-30.7 94.2-31.9C94.2-34.9 91.7-37.4 88.6-37.4ZM85.6-27.1C86.5-26.5 87.5-26.2 88.6-26.2C89.8-26.2 91-26.6 91.9-27.3L85.4-20.8C86.1-21.7 86.5-22.9 86.5-24.1C86.5-25.2 86.1-26.3 85.6-27.1ZM67.3-16.1C66.1-16.1 65-15.7 64.1-15.1C64.8-16 65.2-17.1 65.2-18.4C65.2-21.5 62.7-24 59.6-24C56.5-24 54-21.5 54-18.4C54-17.2 54.4-16.1 55.1-15.1C54.2-15.7 53.1-16.1 51.9-16.1C48.8-16.1 46.3-13.6 46.3-10.5C46.3-9.4 46.6-8.3 47.2-7.5L40.7-14L59.6-32.9L78.5-14L71.8-7.3C72.5-8.2 72.9-9.4 72.9-10.6C72.8-13.6 70.3-16.1 67.3-16.1ZM64.3-5.8C65.2-5.2 66.2-4.9 67.3-4.9C68.5-4.9 69.7-5.3 70.6-6L64.1 0.5C64.8-0.4 65.2-1.6 65.2-2.8C65.1-3.9 64.8-4.9 64.3-5.8ZM62.6-7.5C61.7-8.1 60.7-8.4 59.6-8.4C58.5-8.4 57.5-8.1 56.6-7.5C57.2-8.4 57.5-9.4 57.5-10.5C57.5-11.7 57.1-12.8 56.4-13.8C57.3-13.2 58.4-12.8 59.6-12.8C60.8-12.8 61.9-13.2 62.8-13.8C62.1-12.9 61.7-11.8 61.7-10.5C61.7-9.4 62-8.4 62.6-7.5ZM51.9-4.9C53-4.9 54-5.2 54.9-5.8C54.3-4.9 54-3.9 54-2.8C54-1.7 54.3-0.6 54.9 0.2L48.8-5.9C49.7-5.2 50.7-4.9 51.9-4.9ZM30.5-26.2C31.6-26.2 32.6-26.5 33.5-27.1C32.9-26.2 32.6-25.2 32.6-24.1C32.6-23 32.9-21.9 33.5-21.1L27.4-27.2C28.4-26.6 29.4-26.2 30.5-26.2ZM30.5-37.4C27.4-37.4 24.9-34.9 24.9-31.8C24.9-30.7 25.2-29.6 25.8-28.8L19.3-35.3L19.3-35.4L38.1-54.2L57-35.3L50.5-28.8C51.1-29.7 51.4-30.7 51.4-31.9C51.4-35 48.9-37.5 45.8-37.5C42.7-37.5 40.2-35 40.2-31.9C40.2-30.8 40.5-29.8 41.1-28.9C40.2-29.5 39.2-29.8 38.1-29.8C37-29.8 36-29.5 35.1-28.9C35.7-29.8 36-30.8 36-31.9C36.1-34.9 33.6-37.4 30.5-37.4ZM51.9-47.6C53-47.6 54-47.9 54.9-48.5C54.3-47.6 54-46.6 54-45.5C54-44.3 54.4-43.2 55-42.3L48.7-48.6C49.6-48 50.7-47.6 51.9-47.6ZM59.6-55.4C60.8-55.4 61.9-55.8 62.8-56.4C62.1-55.5 61.7-54.4 61.7-53.1C61.7-52 62-51 62.6-50.1C61.7-50.7 60.7-51 59.6-51C58.5-51 57.5-50.7 56.6-50.1C57.2-51 57.5-52 57.5-53.1C57.5-54.3 57.1-55.4 56.4-56.4C57.3-55.8 58.4-55.4 59.6-55.4ZM59.6-39.9C60.8-39.9 61.9-40.3 62.8-40.9L59.6-37.7L56.4-40.9C57.3-40.3 58.4-39.9 59.6-39.9ZM42.9-27.1C43.8-26.5 44.8-26.2 45.9-26.2C47-26.2 48.1-26.5 49-27.1L42.9-21C43.5-21.9 43.8-22.9 43.8-24.1C43.8-25.2 43.5-26.3 42.9-27.1ZM38.2-18.6C39.3-18.6 40.4-18.9 41.3-19.5L38.2-16.4L35.2-19.4C36.1-18.9 37.1-18.6 38.2-18.6ZM73.2-26.2C74.3-26.2 75.3-26.5 76.2-27.1C75.6-26.2 75.3-25.2 75.3-24.1C75.3-23 75.6-21.9 76.2-21L70.1-27.1C71-26.6 72.1-26.2 73.2-26.2ZM77.8-19.5C78.7-18.9 79.7-18.6 80.9-18.6C82.1-18.6 83.3-19 84.2-19.7L81-16.5L77.8-19.5ZM64.3-48.5C65.2-47.9 66.2-47.6 67.3-47.6C68.5-47.6 69.6-48 70.5-48.6L64.2-42.3C64.8-43.2 65.2-44.3 65.2-45.5C65.1-46.6 64.8-47.6 64.3-48.5ZM99.8-40.3L83.4-56.7L99.8-73L99.8-40.3ZM81-59.1L64.6-75.5L97.3-75.5L81-59.1ZM38.2-59.1L21.8-75.5L54.6-75.5L38.2-59.1ZM35.7-56.6L19.4-40.3L19.4-73L35.7-56.6ZM19.4-30.3L35.8-13.9L19.4 2.4L19.4-30.3ZM38.2-11.5L54.6 4.9L21.9 4.9L38.2-11.5ZM80.9-11.4L97.3 4.9L64.6 4.9L80.9-11.4ZM83.4-13.9L99.8-30.3L99.8 2.5L83.4-13.9Z"/>
  </g>
  <g id="Ultralight-S" transform="matrix(1 0 0 1 504.811 696)">
   <path d="M94.004-77L16.004-77C14.704-77 13.604-75.9 13.604-74.6L13.604 3.4C13.604 4.7 14.704 5.8 16.004 5.8L94.004 5.8C95.304 5.8 96.404 4.7 96.404 3.4L96.404-74.5C96.404-75.9 95.304-77 94.004-77ZM55.004 1.2L52.204-1.6C53.004-1 53.904-0.7 55.004-0.7C56.104-0.7 57.204-1.1 58.004-1.7L55.004 1.2L55.004 1.2ZM55.004-72.4L72.304-55.1L66.204-49C66.804-49.8 67.104-50.8 67.104-51.9C67.104-54.7 64.804-57 62.004-57C60.904-57 59.904-56.7 59.104-56.1C59.704-56.9 60.104-58 60.104-59.1C60.104-61.9 57.804-64.2 55.004-64.2C52.204-64.2 49.904-61.9 49.904-59.1C49.904-58 50.304-57 50.904-56.1C50.104-56.7 49.104-57 48.004-57C45.204-57 42.904-54.7 42.904-51.9C42.904-50.8 43.204-49.8 43.804-49L37.704-55.1L55.004-72.4L55.004-72.4ZM81.604-37.5C78.804-37.5 76.504-35.2 76.504-32.4C76.504-31.4 76.804-30.4 77.304-29.7C76.504-30.2 75.604-30.5 74.604-30.5C73.604-30.5 72.604-30.2 71.904-29.7C72.404-30.5 72.704-31.4 72.704-32.4C72.704-35.2 70.404-37.5 67.604-37.5C64.804-37.5 62.504-35.2 62.504-32.4C62.504-31.4 62.804-30.4 63.304-29.6L57.304-35.6L74.604-52.9L91.904-35.6L91.904-35.5L85.804-29.4C86.404-30.2 86.804-31.3 86.804-32.4C86.704-35.2 84.404-37.5 81.604-37.5ZM78.804-28.1C79.604-27.6 80.504-27.3 81.504-27.3C82.604-27.3 83.704-27.7 84.504-28.3L78.604-22.4C79.204-23.2 79.604-24.3 79.604-25.4C79.604-26.4 79.304-27.3 78.804-28.1ZM62.004-18C60.904-18 59.904-17.7 59.104-17.1C59.704-17.9 60.104-19 60.104-20.1C60.104-22.9 57.804-25.2 55.004-25.2C52.204-25.2 49.904-22.9 49.904-20.1C49.904-19 50.304-18 50.904-17.1C50.004-17.6 49.004-18 47.904-18C45.104-18 42.804-15.7 42.804-12.9C42.804-11.9 43.104-10.9 43.604-10.1L37.604-16.1L55.004-33.3L72.304-16L66.204-9.9C66.804-10.7 67.204-11.8 67.204-12.9C67.104-15.7 64.804-18 62.004-18ZM59.304-8.6C60.104-8.1 61.004-7.8 62.004-7.8C63.104-7.8 64.204-8.2 65.004-8.8L59.104-2.9C59.704-3.7 60.104-4.8 60.104-5.9C60.104-6.8 59.804-7.8 59.304-8.6ZM57.704-10.1C56.904-10.6 56.004-10.9 55.004-10.9C54.004-10.9 53.004-10.6 52.304-10.1C52.804-10.9 53.104-11.8 53.104-12.8C53.104-13.9 52.704-14.9 52.104-15.8C52.904-15.2 53.904-14.9 55.004-14.9C56.104-14.9 57.104-15.2 57.904-15.8C57.304-15 56.904-13.9 56.904-12.8C56.904-11.9 57.204-10.9 57.704-10.1ZM47.904-7.8C48.904-7.8 49.904-8.1 50.604-8.6C50.104-7.8 49.804-6.9 49.804-5.9C49.804-4.9 50.104-3.9 50.604-3.1L45.004-8.7C45.904-8.1 46.904-7.8 47.904-7.8ZM28.404-27.3C29.404-27.3 30.404-27.6 31.104-28.1C30.604-27.3 30.304-26.4 30.304-25.4C30.304-24.4 30.604-23.4 31.104-22.6L25.504-28.2C26.404-27.6 27.404-27.3 28.404-27.3ZM28.404-37.5C25.604-37.5 23.304-35.2 23.304-32.4C23.304-31.4 23.604-30.4 24.104-29.6L18.204-35.5L18.204-35.6L35.404-52.8L52.704-35.5L46.704-29.5C47.204-30.3 47.504-31.3 47.504-32.3C47.504-35.1 45.204-37.4 42.404-37.4C39.604-37.4 37.304-35.1 37.304-32.3C37.304-31.3 37.604-30.3 38.104-29.6C37.304-30.1 36.404-30.4 35.404-30.4C34.404-30.4 33.404-30.1 32.704-29.6C33.204-30.4 33.504-31.3 33.504-32.3C33.504-35.2 31.204-37.5 28.404-37.5ZM47.904-46.9C48.904-46.9 49.904-47.2 50.604-47.7C50.104-46.9 49.804-46 49.804-45C49.804-43.9 50.104-42.9 50.704-42.1L45.004-47.8C45.804-47.2 46.804-46.9 47.904-46.9ZM55.004-54.1C56.104-54.1 57.104-54.4 57.904-55C57.304-54.2 56.904-53.1 56.904-52C56.904-51 57.204-50 57.704-49.3C56.904-49.7 56.004-50 55.004-50C54.004-50 53.004-49.7 52.304-49.2C52.704-50 53.004-51 53.004-52C53.004-53.1 52.604-54.1 52.004-55C52.904-54.4 53.904-54.1 55.004-54.1ZM55.004-39.8C56.104-39.8 57.104-40.1 57.904-40.7L55.004-37.8L52.104-40.7C52.904-40.2 53.904-39.8 55.004-39.8ZM39.704-28.1C40.504-27.6 41.404-27.3 42.404-27.3C43.404-27.3 44.404-27.6 45.204-28.1L39.604-22.5C40.104-23.3 40.404-24.3 40.404-25.3C40.504-26.4 40.204-27.3 39.704-28.1ZM35.404-20.3C36.404-20.3 37.404-20.6 38.204-21.1L35.404-18.3L32.604-21.1C33.404-20.6 34.404-20.3 35.404-20.3ZM67.504-27.3C68.504-27.3 69.504-27.6 70.204-28.1C69.704-27.3 69.404-26.4 69.404-25.4C69.404-24.4 69.704-23.4 70.204-22.6L64.604-28.2C65.504-27.6 66.404-27.3 67.504-27.3ZM71.704-21.1C72.504-20.6 73.504-20.3 74.504-20.3C75.604-20.3 76.704-20.7 77.504-21.3L74.504-18.3L71.704-21.1ZM59.304-47.7C60.104-47.2 61.004-46.9 62.004-46.9C63.104-46.9 64.104-47.2 64.904-47.8L59.204-42C59.804-42.8 60.104-43.8 60.104-44.9C60.104-45.9 59.804-46.9 59.304-47.7ZM91.804-40.2L76.804-55.2L91.804-70.2L91.804-40.2ZM74.604-57.4L59.604-72.4L89.604-72.4L74.604-57.4ZM35.404-57.4L20.404-72.4L50.404-72.4L35.404-57.4ZM33.104-55.1L18.104-40.1L18.104-70L33.104-55.1ZM18.204-31L33.204-16L18.204-1L18.204-31ZM35.404-13.8L50.404 1.2L20.404 1.2L35.404-13.8ZM74.504-13.7L89.504 1.3L59.604 1.3L74.504-13.7ZM76.804-16L91.804-31L91.804-1L76.804-16Z"/>
  </g>
 </g>
</svg>
