<?xml version="1.0" encoding="UTF-8"?>
<!--Generator: Apple Native CoreSVG 175.5-->
<!DOCTYPE svg
PUBLIC "-//W3C//DTD SVG 1.1//EN"
       "http://www.w3.org/Graphics/SVG/1.1/DTD/svg11.dtd">
<svg version="1.1" xmlns="http://www.w3.org/2000/svg" xmlns:xlink="http://www.w3.org/1999/xlink" width="3300" height="2200">
 <!--glyph: "", point size: 100.0, font version: "18.0d12e2", template writer version: "101"-->
 <style>.monochrome-0 {fill:#000000}

.SFSymbolsPreview000000 {fill:#000000;opacity:1.0}
</style>
 <g id="Notes">
  <rect height="2200" id="artboard" style="fill:white;opacity:1" width="3300" x="0" y="0"/>
  <line style="fill:none;stroke:black;opacity:1;stroke-width:0.5;" x1="263" x2="3036" y1="292" y2="292"/>
  <text style="stroke:none;fill:black;font-family:sans-serif;font-size:13;font-weight:bold;" transform="matrix(1 0 0 1 263 322)">Weight/Scale Variations</text>
  <text style="stroke:none;fill:black;font-family:sans-serif;font-size:13;text-anchor:middle;" transform="matrix(1 0 0 1 559.711 322)">Ultralight</text>
  <text style="stroke:none;fill:black;font-family:sans-serif;font-size:13;text-anchor:middle;" transform="matrix(1 0 0 1 856.422 322)">Thin</text>
  <text style="stroke:none;fill:black;font-family:sans-serif;font-size:13;text-anchor:middle;" transform="matrix(1 0 0 1 1153.13 322)">Light</text>
  <text style="stroke:none;fill:black;font-family:sans-serif;font-size:13;text-anchor:middle;" transform="matrix(1 0 0 1 1449.84 322)">Regular</text>
  <text style="stroke:none;fill:black;font-family:sans-serif;font-size:13;text-anchor:middle;" transform="matrix(1 0 0 1 1746.56 322)">Medium</text>
  <text style="stroke:none;fill:black;font-family:sans-serif;font-size:13;text-anchor:middle;" transform="matrix(1 0 0 1 2043.27 322)">Semibold</text>
  <text style="stroke:none;fill:black;font-family:sans-serif;font-size:13;text-anchor:middle;" transform="matrix(1 0 0 1 2339.98 322)">Bold</text>
  <text style="stroke:none;fill:black;font-family:sans-serif;font-size:13;text-anchor:middle;" transform="matrix(1 0 0 1 2636.69 322)">Heavy</text>
  <text style="stroke:none;fill:black;font-family:sans-serif;font-size:13;text-anchor:middle;" transform="matrix(1 0 0 1 2933.4 322)">Black</text>
  <line style="fill:none;stroke:black;opacity:1;stroke-width:0.5;" x1="263" x2="3036" y1="1903" y2="1903"/>
  <g transform="matrix(1 0 0 1 263 1933)">
   <path d="M9.24805 0.830078C13.5547 0.830078 17.1387-2.74414 17.1387-7.05078C17.1387-11.3574 13.5449-14.9316 9.23828-14.9316C4.94141-14.9316 1.36719-11.3574 1.36719-7.05078C1.36719-2.74414 4.95117 0.830078 9.24805 0.830078ZM9.24805-0.654297C5.70312-0.654297 2.87109-3.49609 2.87109-7.05078C2.87109-10.6055 5.69336-13.4473 9.23828-13.4473C12.793-13.4473 15.6445-10.6055 15.6445-7.05078C15.6445-3.49609 12.8027-0.654297 9.24805-0.654297ZM5.6543-7.05078C5.6543-6.62109 5.95703-6.32812 6.40625-6.32812L8.50586-6.32812L8.50586-4.20898C8.50586-3.76953 8.79883-3.4668 9.22852-3.4668C9.67773-3.4668 9.9707-3.76953 9.9707-4.20898L9.9707-6.32812L12.0898-6.32812C12.5293-6.32812 12.832-6.62109 12.832-7.05078C12.832-7.49023 12.5293-7.79297 12.0898-7.79297L9.9707-7.79297L9.9707-9.90234C9.9707-10.3516 9.67773-10.6543 9.22852-10.6543C8.79883-10.6543 8.50586-10.3516 8.50586-9.90234L8.50586-7.79297L6.40625-7.79297C5.95703-7.79297 5.6543-7.49023 5.6543-7.05078Z"/>
  </g>
  <g transform="matrix(1 0 0 1 281.867 1933)">
   <path d="M11.709 2.91016C17.1582 2.91016 21.6699-1.61133 21.6699-7.05078C21.6699-12.5 17.1484-17.0117 11.6992-17.0117C6.25977-17.0117 1.74805-12.5 1.74805-7.05078C1.74805-1.61133 6.26953 2.91016 11.709 2.91016ZM11.709 1.25C7.09961 1.25 3.41797-2.44141 3.41797-7.05078C3.41797-11.6602 7.08984-15.3516 11.6992-15.3516C16.3086-15.3516 20.0098-11.6602 20.0098-7.05078C20.0098-2.44141 16.3184 1.25 11.709 1.25ZM7.17773-7.05078C7.17773-6.57227 7.50977-6.25 8.00781-6.25L10.8789-6.25L10.8789-3.36914C10.8789-2.88086 11.2109-2.53906 11.6895-2.53906C12.1777-2.53906 12.5195-2.87109 12.5195-3.36914L12.5195-6.25L15.4004-6.25C15.8887-6.25 16.2305-6.57227 16.2305-7.05078C16.2305-7.53906 15.8887-7.88086 15.4004-7.88086L12.5195-7.88086L12.5195-10.752C12.5195-11.25 12.1777-11.5918 11.6895-11.5918C11.2109-11.5918 10.8789-11.25 10.8789-10.752L10.8789-7.88086L8.00781-7.88086C7.50977-7.88086 7.17773-7.53906 7.17773-7.05078Z"/>
  </g>
  <g transform="matrix(1 0 0 1 305.646 1933)">
   <path d="M14.9707 5.66406C21.9336 5.66406 27.6953-0.0976562 27.6953-7.05078C27.6953-14.0137 21.9238-19.7754 14.9609-19.7754C8.00781-19.7754 2.25586-14.0137 2.25586-7.05078C2.25586-0.0976562 8.01758 5.66406 14.9707 5.66406ZM14.9707 3.84766C8.93555 3.84766 4.08203-1.01562 4.08203-7.05078C4.08203-13.0957 8.92578-17.9492 14.9609-17.9492C21.0059-17.9492 25.8691-13.0957 25.8691-7.05078C25.8691-1.01562 21.0156 3.84766 14.9707 3.84766ZM9.19922-7.05078C9.19922-6.5332 9.57031-6.17188 10.1172-6.17188L14.0625-6.17188L14.0625-2.2168C14.0625-1.67969 14.4336-1.29883 14.9512-1.29883C15.4883-1.29883 15.8594-1.66992 15.8594-2.2168L15.8594-6.17188L19.8145-6.17188C20.3516-6.17188 20.7324-6.5332 20.7324-7.05078C20.7324-7.59766 20.3613-7.96875 19.8145-7.96875L15.8594-7.96875L15.8594-11.9141C15.8594-12.4609 15.4883-12.8418 14.9512-12.8418C14.4336-12.8418 14.0625-12.4609 14.0625-11.9141L14.0625-7.96875L10.1172-7.96875C9.57031-7.96875 9.19922-7.59766 9.19922-7.05078Z"/>
  </g>
  <text style="stroke:none;fill:black;font-family:sans-serif;font-size:13;font-weight:bold;" transform="matrix(1 0 0 1 263 1953)">Design Variations</text>
  <text style="stroke:none;fill:black;font-family:sans-serif;font-size:13;" transform="matrix(1 0 0 1 263 1971)">Symbols are supported in up to nine weights and three scales.</text>
  <text style="stroke:none;fill:black;font-family:sans-serif;font-size:13;" transform="matrix(1 0 0 1 263 1989)">For optimal layout with text and other symbols, vertically align</text>
  <text style="stroke:none;fill:black;font-family:sans-serif;font-size:13;" transform="matrix(1 0 0 1 263 2007)">symbols with the adjacent text.</text>
  <line style="fill:none;stroke:#00AEEF;stroke-width:0.5;opacity:1.0;" x1="776" x2="776" y1="1919" y2="1933"/>
  <g transform="matrix(1 0 0 1 776 1933)">
   <path d="M3.31055 0.15625C3.82812 0.15625 4.08203-0.0390625 4.26758-0.585938L5.52734-4.0332L11.2891-4.0332L12.5488-0.585938C12.7344-0.0390625 12.9883 0.15625 13.4961 0.15625C14.0137 0.15625 14.3457-0.15625 14.3457-0.644531C14.3457-0.810547 14.3164-0.966797 14.2383-1.17188L9.6582-13.3691C9.43359-13.9648 9.0332-14.2676 8.4082-14.2676C7.80273-14.2676 7.39258-13.9746 7.17773-13.3789L2.59766-1.16211C2.51953-0.957031 2.49023-0.800781 2.49023-0.634766C2.49023-0.146484 2.80273 0.15625 3.31055 0.15625ZM6.00586-5.51758L8.37891-12.0898L8.42773-12.0898L10.8008-5.51758Z"/>
  </g>
  <line style="fill:none;stroke:#00AEEF;stroke-width:0.5;opacity:1.0;" x1="793.197" x2="793.197" y1="1919" y2="1933"/>
  <text style="stroke:none;fill:black;font-family:sans-serif;font-size:13;font-weight:bold;" transform="matrix(1 0 0 1 776 1953)">Margins</text>
  <text style="stroke:none;fill:black;font-family:sans-serif;font-size:13;" transform="matrix(1 0 0 1 776 1971)">Leading and trailing margins on the left and right side of each symbol</text>
  <text style="stroke:none;fill:black;font-family:sans-serif;font-size:13;" transform="matrix(1 0 0 1 776 1989)">can be adjusted by modifying the x-location of the margin guidelines.</text>
  <text style="stroke:none;fill:black;font-family:sans-serif;font-size:13;" transform="matrix(1 0 0 1 776 2007)">Modifications are automatically applied proportionally to all</text>
  <text style="stroke:none;fill:black;font-family:sans-serif;font-size:13;" transform="matrix(1 0 0 1 776 2025)">scales and weights.</text>
  <g transform="matrix(1 0 0 1 1289 1933)">
   <path d="M2.8418 1.86523L4.54102 3.57422C5.40039 4.44336 6.38672 4.38477 7.31445 3.35938L18.0078-8.42773L17.041-9.4043L6.42578 2.27539C6.07422 2.67578 5.74219 2.77344 5.27344 2.30469L4.10156 1.14258C3.63281 0.683594 3.74023 0.341797 4.14062-0.0195312L15.6152-10.8203L14.6387-11.7871L3.04688-0.898438C2.06055 0.0195312 1.98242 0.996094 2.8418 1.86523ZM9.25781-16.3281C8.83789-15.918 8.80859-15.3418 9.04297-14.9512C9.27734-14.5898 9.73633-14.3555 10.3809-14.5215C11.8457-14.8633 13.3691-14.9219 14.7949-13.9844L14.209-12.5293C13.8672-11.6992 14.043-11.1133 14.5801-10.5664L16.875-8.25195C17.3633-7.76367 17.7734-7.74414 18.3398-7.8418L19.4043-8.03711L20.0684-7.36328L20.0293-6.80664C19.9902-6.30859 20.1172-5.92773 20.6055-5.44922L21.3672-4.70703C21.8457-4.22852 22.4609-4.19922 22.9297-4.66797L25.8398-7.58789C26.3086-8.05664 26.2891-8.65234 25.8105-9.13086L25.0391-9.89258C24.5605-10.3711 24.1895-10.5273 23.7109-10.4883L23.1348-10.4395L22.4902-11.0742L22.7344-12.1973C22.8613-12.7637 22.7051-13.2031 22.1191-13.7891L19.9219-15.9766C16.582-19.2969 12.1484-19.2188 9.25781-16.3281ZM10.752-15.957C13.1836-17.7344 16.4746-17.4316 18.7012-15.2051L21.1328-12.793C21.3672-12.5586 21.4062-12.373 21.3379-12.0312L21.0156-10.5469L22.5195-9.0625L23.5059-9.12109C23.7598-9.13086 23.8379-9.11133 24.0332-8.91602L24.6094-8.33984L22.168-5.89844L21.5918-6.47461C21.3965-6.66992 21.3672-6.74805 21.377-7.01172L21.4453-7.98828L19.9512-9.47266L18.4277-9.21875C18.1055-9.15039 17.959-9.17969 17.7148-9.41406L15.7129-11.416C15.459-11.6504 15.4297-11.8164 15.5859-12.1875L16.4648-14.2773C14.9023-15.7324 12.8711-16.3574 10.8398-15.7617C10.6836-15.7227 10.625-15.8496 10.752-15.957Z"/>
  </g>
  <text style="stroke:none;fill:black;font-family:sans-serif;font-size:13;font-weight:bold;" transform="matrix(1 0 0 1 1289 1953)">Exporting</text>
  <text style="stroke:none;fill:black;font-family:sans-serif;font-size:13;" transform="matrix(1 0 0 1 1289 1971)">Symbols should be outlined when exporting to ensure the</text>
  <text style="stroke:none;fill:black;font-family:sans-serif;font-size:13;" transform="matrix(1 0 0 1 1289 1989)">design is preserved when submitting to Xcode.</text>
  <text id="template-version" style="stroke:none;fill:black;font-family:sans-serif;font-size:13;text-anchor:end;" transform="matrix(1 0 0 1 3036 1933)">Template v.4.0</text>
  <text style="stroke:none;fill:black;font-family:sans-serif;font-size:13;text-anchor:end;" transform="matrix(1 0 0 1 3036 1951)">Requires Xcode 14 or greater</text>
  <text id="descriptive-name" style="stroke:none;fill:black;font-family:sans-serif;font-size:13;text-anchor:end;" transform="matrix(1 0 0 1 3036 1969)">Generated from case.ice.cubes</text>
  <text style="stroke:none;fill:black;font-family:sans-serif;font-size:13;text-anchor:end;" transform="matrix(1 0 0 1 3036 1987)">Typeset at 100 points</text>
  <text style="stroke:none;fill:black;font-family:sans-serif;font-size:13;" transform="matrix(1 0 0 1 263 726)">Small</text>
  <text style="stroke:none;fill:black;font-family:sans-serif;font-size:13;" transform="matrix(1 0 0 1 263 1156)">Medium</text>
  <text style="stroke:none;fill:black;font-family:sans-serif;font-size:13;" transform="matrix(1 0 0 1 263 1586)">Large</text>
 </g>
 <g id="Guides">
  <g id="H-reference" style="fill:#27AAE1;stroke:none;" transform="matrix(1 0 0 1 339 696)">
   <path d="M0.993654 0L3.63775 0L29.3281-67.1323L30.0303-67.1323L30.0303-70.459L28.1226-70.459ZM11.6885-24.4799L46.9815-24.4799L46.2315-26.7285L12.4385-26.7285ZM55.1196 0L57.7637 0L30.6382-70.459L29.4326-70.459L29.4326-67.1323Z"/>
  </g>
  <line id="Baseline-S" style="fill:none;stroke:#27AAE1;opacity:1;stroke-width:0.5;" x1="263" x2="3036" y1="696" y2="696"/>
  <line id="Capline-S" style="fill:none;stroke:#27AAE1;opacity:1;stroke-width:0.5;" x1="263" x2="3036" y1="625.541" y2="625.541"/>
  <g id="H-reference" style="fill:#27AAE1;stroke:none;" transform="matrix(1 0 0 1 339 1126)">
   <path d="M0.993654 0L3.63775 0L29.3281-67.1323L30.0303-67.1323L30.0303-70.459L28.1226-70.459ZM11.6885-24.4799L46.9815-24.4799L46.2315-26.7285L12.4385-26.7285ZM55.1196 0L57.7637 0L30.6382-70.459L29.4326-70.459L29.4326-67.1323Z"/>
  </g>
  <line id="Baseline-M" style="fill:none;stroke:#27AAE1;opacity:1;stroke-width:0.5;" x1="263" x2="3036" y1="1126" y2="1126"/>
  <line id="Capline-M" style="fill:none;stroke:#27AAE1;opacity:1;stroke-width:0.5;" x1="263" x2="3036" y1="1055.54" y2="1055.54"/>
  <g id="H-reference" style="fill:#27AAE1;stroke:none;" transform="matrix(1 0 0 1 339 1556)">
   <path d="M0.993654 0L3.63775 0L29.3281-67.1323L30.0303-67.1323L30.0303-70.459L28.1226-70.459ZM11.6885-24.4799L46.9815-24.4799L46.2315-26.7285L12.4385-26.7285ZM55.1196 0L57.7637 0L30.6382-70.459L29.4326-70.459L29.4326-67.1323Z"/>
  </g>
  <line id="Baseline-L" style="fill:none;stroke:#27AAE1;opacity:1;stroke-width:0.5;" x1="263" x2="3036" y1="1556" y2="1556"/>
  <line id="Capline-L" style="fill:none;stroke:#27AAE1;opacity:1;stroke-width:0.5;" x1="263" x2="3036" y1="1485.54" y2="1485.54"/>
  <line id="left-margin-Ultralight-S" style="fill:none;stroke:#00AEEF;stroke-width:0.5;opacity:1.0;" x1="506.811" x2="506.811" y1="600.785" y2="720.121"/>
  <line id="right-margin-Ultralight-S" style="fill:none;stroke:#00AEEF;stroke-width:0.5;opacity:1.0;" x1="612.611" x2="612.611" y1="600.785" y2="720.121"/>
  <line id="left-margin-Regular-S" style="fill:none;stroke:#00AEEF;stroke-width:0.5;opacity:1.0;" x1="1392.19" x2="1392.19" y1="600.785" y2="720.121"/>
  <line id="right-margin-Regular-S" style="fill:none;stroke:#00AEEF;stroke-width:0.5;opacity:1.0;" x1="1507.49" x2="1507.49" y1="600.785" y2="720.121"/>
  <line id="left-margin-Black-S" style="fill:none;stroke:#00AEEF;stroke-width:0.5;opacity:1.0;" x1="2872.7" x2="2872.7" y1="600.785" y2="720.121"/>
  <line id="right-margin-Black-S" style="fill:none;stroke:#00AEEF;stroke-width:0.5;opacity:1.0;" x1="2994.1" x2="2994.1" y1="600.785" y2="720.121"/>
 </g>
 <g id="Symbols">
  <g id="Black-S" transform="matrix(1 0 0 1 2872.7 696)">
   <path class="monochrome-0 SFSymbolsPreview000000" d="M56.81-29.7L56.81-29.7L56.81-29.7C56.41-31 55.51-32.1 54.11-32.6L35.21-38.4C34.51-38.6 33.71-38.6 33.01-38.4C32.31-38.2 31.61-37.8 31.11-37.3L17.21-23.1C16.11-22 15.81-20.6 16.21-19.3L16.21-19.3L16.21-19.3C16.21-19.3 16.21-19.3 16.21-19.3L21.31 0.7C21.71 2.2 22.91 3.5 24.41 3.9L42.61 9.3C43.51 9.6 44.41 9.6 45.31 9.3C46.21 9.1 46.91 8.6 47.61 8L60.71-5.4C61.81-6.5 62.21-8.2 61.91-9.7L56.81-29.7C56.81-29.7 56.81-29.7 56.81-29.7ZM104.21-49.5C105.11-50.4 105.61-51.8 105.21-53.2L100.61-72.4C100.21-73.9 99.11-75 97.61-75.4L78.41-80.2C78.11-80.3 77.71-80.3 77.41-80.3C76.31-80.3 75.31-79.9 74.61-79.1L74.61-79.1L60.11-64.6C59.01-63.5 58.51-61.9 58.91-60.3L63.41-41.9C63.61-41 64.11-40.2 64.71-39.6C65.31-39 66.11-38.5 67.01-38.3L85.31-33.7C86.81-33.3 88.51-33.8 89.61-34.9L104.21-49.5C104.21-49.5 104.21-49.5 104.21-49.5L104.21-49.5L104.21-49.5ZM19.91-20.5L33.71-34.6C33.71-34.6 33.81-34.7 33.81-34.7C33.91-34.7 33.91-34.7 34.01-34.7L52.91-29C53.01-29 53.01-28.9 53.11-28.8L53.11-28.7C53.11-28.6 53.11-28.5 53.01-28.4L39.21-14.3C39.21-14.3 39.11-14.3 39.11-14.3C39.01-14.3 39.01-14.3 38.91-14.2C38.91-14.2 38.91-14.2 38.91-14.2L20.01-20C19.91-20 19.81-20.1 19.81-20.2C19.71-20.4 19.81-20.5 19.91-20.5ZM77.51-76.6C77.51-76.6 77.61-76.6 77.51-76.6L96.81-71.8C96.91-71.8 97.01-71.7 97.01-71.6L101.61-52.4C101.61-52.3 101.61-52.3 101.61-52.2L101.51-52.1C101.51-52.1 101.41-52.1 101.41-52.1C101.41-52.1 101.31-52.1 101.31-52.1L82.01-56.8C82.01-56.8 81.91-56.9 81.91-56.9C81.91-56.9 81.81-57 81.81-57C81.81-57 81.81-57 81.81-57L77.21-76.2C77.21-76.3 77.21-76.4 77.31-76.5C77.31-76.5 77.41-76.6 77.51-76.6ZM25.51 0.3C25.21 0.2 25.01 0 24.91-0.3L20.91-15.9L37.81-10.7C37.91-10.7 38.01-10.7 38.11-10.6L42.21 5.3L25.51 0.3ZM62.51-61.2C62.41-61.5 62.51-61.8 62.71-62L74.11-73.4L78.21-56.2C78.21-56.1 78.31-56 78.31-55.9L66.61-44.2L62.51-61.2ZM86.91-37.6C86.71-37.4 86.41-37.3 86.11-37.4L69.21-41.6L80.81-53.2C80.91-53.2 80.91-53.1 81.01-53.1L98.21-48.8L86.91-37.6ZM58.11-8L45.91 4.4L41.81-11.5C41.91-11.6 41.91-11.6 42.01-11.7L54.41-24.3L58.41-8.7C58.31-8.5 58.31-8.2 58.11-8Z"/>
  </g>
  <g id="Regular-S" transform="matrix(1 0 0 1 1392.19 696)">
   <path class="monochrome-0 SFSymbolsPreview000000" d="M53.8-29.9L53.8-29.9L53.8-29.9C53.4-31.2 52.6-32.2 51.2-32.6L33.5-38C32.8-38.2 32.1-38.2 31.4-38C30.7-37.8 30.1-37.5 29.6-37L16.6-23.7C15.6-22.7 15.3-21.3 15.6-20.1L15.6-20.1L15.6-20.1C15.6-20.1 15.6-20.1 15.6-20.1L20.4-1.4C20.8 0 21.9 1.2 23.3 1.6L40.3 6.7C41.1 6.9 42 7 42.8 6.7C43.6 6.5 44.3 6.1 44.9 5.5L57.6-7.2C58.6-8.3 59.1-9.8 58.7-11.2L53.8-29.9C53.8-29.9 53.8-29.9 53.8-29.9ZM98.3-48.6C99.1-49.5 99.6-50.8 99.3-52.1L95-70.1C94.7-71.5 93.6-72.6 92.2-72.9L74.2-77.4C73.9-77.5 73.6-77.5 73.3-77.5C72.3-77.5 71.3-77.1 70.7-76.4L70.7-76.4L56.9-62.7C55.8-61.7 55.4-60.1 55.8-58.7L60-41.4C60.2-40.6 60.6-39.8 61.2-39.2C61.8-38.6 62.5-38.2 63.3-38L80.4-33.7C81.8-33.3 83.4-33.8 84.4-34.8L98.3-48.6C98.3-48.5 98.3-48.5 98.3-48.6L98.3-48.6L98.3-48.6ZM19.3-21.4L32.3-34.7C32.3-34.7 32.4-34.8 32.4-34.8C32.5-34.8 32.5-34.8 32.6-34.8L50.3-29.4C50.3-29.4 50.4-29.3 50.5-29.2L50.5-29.1C50.5-29 50.5-28.9 50.4-28.9L37.4-15.6C37.4-15.6 37.3-15.6 37.3-15.6C37.2-15.6 37.2-15.6 37.1-15.5C37.1-15.5 37.1-15.5 37.1-15.5L19.4-20.9C19.3-20.9 19.2-20.9 19.2-21.1C19.1-21.3 19.2-21.3 19.3-21.4ZM73.3-74C73.3-74 73.4-74 73.3-74L91.4-69.5C91.5-69.5 91.6-69.4 91.6-69.3L95.9-51.3C95.9-51.2 95.9-51.2 95.9-51.1L95.8-51C95.8-51 95.7-51 95.7-51C95.7-51 95.6-51 95.6-51L77.6-55.5C77.6-55.5 77.5-55.6 77.5-55.6C77.5-55.6 77.4-55.7 77.4-55.7C77.4-55.7 77.4-55.7 77.4-55.7L73.1-73.7C73.1-73.8 73.1-73.8 73.2-73.9C73.1-73.9 73.2-74 73.3-74ZM24.5-1.8C24.2-1.9 24.1-2.1 24-2.3L20.2-17L36.1-12.1C36.2-12.1 36.3-12.1 36.4-12L40.3 2.9L24.5-1.8ZM59.2-59.5C59.1-59.8 59.2-60 59.4-60.2L70.1-70.9L74-54.8C74-54.7 74.1-54.6 74.1-54.5L63.1-43.6L59.2-59.5ZM82.1-37.3C81.9-37.1 81.6-37 81.4-37.1L65.6-41.1L76.5-52C76.6-52 76.6-52 76.7-51.9L92.8-47.9L82.1-37.3ZM55.1-9.6L43.6 2L39.7-12.9C39.8-12.9 39.8-13 39.9-13L51.5-24.8L55.3-10.2C55.3-10.1 55.2-9.8 55.1-9.6Z"/>
  </g>
  <g id="Ultralight-S" transform="matrix(1 0 0 1 506.811 696)">
   <path class="monochrome-0 SFSymbolsPreview000000" d="M49.504-30.2L49.504-30.2L49.504-30.2C49.204-31.3 48.404-32.3 47.104-32.7L30.904-37.7C30.304-37.9 29.604-37.9 29.004-37.7C28.404-37.5 27.804-37.2 27.404-36.8L15.504-24.6C14.604-23.7 14.304-22.4 14.604-21.3L14.604-21.3L14.604-21.3C14.604-21.3 14.604-21.3 14.604-21.3L19.004-4.1C19.304-2.8 20.304-1.7 21.604-1.3L37.204 3.4C38.004 3.6 38.704 3.6 39.504 3.4C40.204 3.2 40.904 2.8 41.504 2.3L52.904-9.4C53.904-10.4 54.204-11.8 53.904-13.1L49.504-30.2C49.504-30.2 49.504-30.2 49.504-30.2ZM90.304-47.3C91.104-48.1 91.504-49.3 91.204-50.5L87.204-67C86.904-68.3 85.904-69.3 84.704-69.6L68.204-73.7C67.904-73.8 67.604-73.8 67.304-73.8C66.404-73.8 65.504-73.4 64.904-72.8L64.904-72.8L52.304-60.3C51.304-59.3 50.904-57.9 51.304-56.6L55.204-40.8C55.404-40 55.804-39.3 56.304-38.8C56.804-38.3 57.504-37.9 58.304-37.7L74.004-33.7C75.304-33.4 76.704-33.8 77.704-34.7L90.304-47.3C90.204-47.2 90.204-47.2 90.304-47.3L90.304-47.3L90.304-47.3ZM17.804-22.4L29.704-34.5C29.704-34.5 29.804-34.6 29.804-34.6C29.804-34.6 29.904-34.6 29.904-34.6L46.104-29.6C46.104-29.6 46.204-29.5 46.304-29.4L46.304-29.3C46.304-29.2 46.304-29.1 46.204-29.1L34.504-17C34.504-17 34.404-17 34.404-17C34.404-17 34.304-17 34.304-16.9C34.304-16.9 34.304-16.9 34.304-16.9L18.104-21.9C18.104-21.9 18.004-21.9 17.904-22.1C17.704-22.3 17.804-22.3 17.804-22.4ZM67.304-70.6C67.404-70.6 67.404-70.5 67.304-70.6L83.904-66.5C84.004-66.5 84.104-66.4 84.104-66.3L88.004-49.7C88.004-49.6 88.004-49.6 88.004-49.5L87.904-49.4C87.904-49.4 87.804-49.4 87.804-49.4C87.804-49.4 87.704-49.4 87.704-49.4L71.204-53.5C71.204-53.5 71.204-53.6 71.104-53.6C71.104-53.6 71.004-53.7 71.004-53.7C71.004-53.7 71.004-53.7 71.004-53.7L67.104-70.2C67.104-70.3 67.104-70.3 67.104-70.4C67.104-70.5 67.204-70.6 67.304-70.6ZM22.604-4.5C22.404-4.6 22.204-4.8 22.104-5L18.604-18.4L33.104-14C33.204-14 33.304-14 33.404-13.9L36.904-0.2L22.604-4.5ZM54.404-57.3C54.304-57.5 54.404-57.8 54.604-58L64.404-67.8L67.904-53C67.904-52.9 68.004-52.8 68.004-52.7L58.004-42.7L54.404-57.3ZM75.404-37C75.204-36.8 75.004-36.8 74.804-36.8L60.304-40.4L70.304-50.4C70.404-50.4 70.404-50.4 70.504-50.3L85.204-46.6L75.404-37ZM50.604-11.6L40.204-1L36.604-14.7C36.604-14.7 36.704-14.8 36.704-14.8L47.304-25.6L50.704-12.2C50.904-12 50.804-11.8 50.604-11.6Z"/>
  </g>
 </g>
</svg>
