<?xml version="1.0" encoding="UTF-8"?>
<!--Generator: Apple Native CoreSVG 175.5-->
<!DOCTYPE svg
PUBLIC "-//W3C//DTD SVG 1.1//EN"
       "http://www.w3.org/Graphics/SVG/1.1/DTD/svg11.dtd">
<svg version="1.1" xmlns="http://www.w3.org/2000/svg" xmlns:xlink="http://www.w3.org/1999/xlink" width="3300" height="2200">
 <!--glyph: "", point size: 100.0, font version: "18.0d12e2", template writer version: "101"-->
 <style>.monochrome-0 {fill:#000000}

.SFSymbolsPreview000000 {fill:#000000;opacity:1.0}
</style>
 <g id="Notes">
  <rect height="2200" id="artboard" style="fill:white;opacity:1" width="3300" x="0" y="0"/>
  <line style="fill:none;stroke:black;opacity:1;stroke-width:0.5;" x1="263" x2="3036" y1="292" y2="292"/>
  <text style="stroke:none;fill:black;font-family:sans-serif;font-size:13;font-weight:bold;" transform="matrix(1 0 0 1 263 322)">Weight/Scale Variations</text>
  <text style="stroke:none;fill:black;font-family:sans-serif;font-size:13;text-anchor:middle;" transform="matrix(1 0 0 1 559.711 322)">Ultralight</text>
  <text style="stroke:none;fill:black;font-family:sans-serif;font-size:13;text-anchor:middle;" transform="matrix(1 0 0 1 856.422 322)">Thin</text>
  <text style="stroke:none;fill:black;font-family:sans-serif;font-size:13;text-anchor:middle;" transform="matrix(1 0 0 1 1153.13 322)">Light</text>
  <text style="stroke:none;fill:black;font-family:sans-serif;font-size:13;text-anchor:middle;" transform="matrix(1 0 0 1 1449.84 322)">Regular</text>
  <text style="stroke:none;fill:black;font-family:sans-serif;font-size:13;text-anchor:middle;" transform="matrix(1 0 0 1 1746.56 322)">Medium</text>
  <text style="stroke:none;fill:black;font-family:sans-serif;font-size:13;text-anchor:middle;" transform="matrix(1 0 0 1 2043.27 322)">Semibold</text>
  <text style="stroke:none;fill:black;font-family:sans-serif;font-size:13;text-anchor:middle;" transform="matrix(1 0 0 1 2339.98 322)">Bold</text>
  <text style="stroke:none;fill:black;font-family:sans-serif;font-size:13;text-anchor:middle;" transform="matrix(1 0 0 1 2636.69 322)">Heavy</text>
  <text style="stroke:none;fill:black;font-family:sans-serif;font-size:13;text-anchor:middle;" transform="matrix(1 0 0 1 2933.4 322)">Black</text>
  <line style="fill:none;stroke:black;opacity:1;stroke-width:0.5;" x1="263" x2="3036" y1="1903" y2="1903"/>
  <g transform="matrix(1 0 0 1 263 1933)">
   <path d="M9.24805 0.830078C13.5547 0.830078 17.1387-2.74414 17.1387-7.05078C17.1387-11.3574 13.5449-14.9316 9.23828-14.9316C4.94141-14.9316 1.36719-11.3574 1.36719-7.05078C1.36719-2.74414 4.95117 0.830078 9.24805 0.830078ZM9.24805-0.654297C5.70312-0.654297 2.87109-3.49609 2.87109-7.05078C2.87109-10.6055 5.69336-13.4473 9.23828-13.4473C12.793-13.4473 15.6445-10.6055 15.6445-7.05078C15.6445-3.49609 12.8027-0.654297 9.24805-0.654297ZM5.6543-7.05078C5.6543-6.62109 5.95703-6.32812 6.40625-6.32812L8.50586-6.32812L8.50586-4.20898C8.50586-3.76953 8.79883-3.4668 9.22852-3.4668C9.67773-3.4668 9.9707-3.76953 9.9707-4.20898L9.9707-6.32812L12.0898-6.32812C12.5293-6.32812 12.832-6.62109 12.832-7.05078C12.832-7.49023 12.5293-7.79297 12.0898-7.79297L9.9707-7.79297L9.9707-9.90234C9.9707-10.3516 9.67773-10.6543 9.22852-10.6543C8.79883-10.6543 8.50586-10.3516 8.50586-9.90234L8.50586-7.79297L6.40625-7.79297C5.95703-7.79297 5.6543-7.49023 5.6543-7.05078Z"/>
  </g>
  <g transform="matrix(1 0 0 1 281.867 1933)">
   <path d="M11.709 2.91016C17.1582 2.91016 21.6699-1.61133 21.6699-7.05078C21.6699-12.5 17.1484-17.0117 11.6992-17.0117C6.25977-17.0117 1.74805-12.5 1.74805-7.05078C1.74805-1.61133 6.26953 2.91016 11.709 2.91016ZM11.709 1.25C7.09961 1.25 3.41797-2.44141 3.41797-7.05078C3.41797-11.6602 7.08984-15.3516 11.6992-15.3516C16.3086-15.3516 20.0098-11.6602 20.0098-7.05078C20.0098-2.44141 16.3184 1.25 11.709 1.25ZM7.17773-7.05078C7.17773-6.57227 7.50977-6.25 8.00781-6.25L10.8789-6.25L10.8789-3.36914C10.8789-2.88086 11.2109-2.53906 11.6895-2.53906C12.1777-2.53906 12.5195-2.87109 12.5195-3.36914L12.5195-6.25L15.4004-6.25C15.8887-6.25 16.2305-6.57227 16.2305-7.05078C16.2305-7.53906 15.8887-7.88086 15.4004-7.88086L12.5195-7.88086L12.5195-10.752C12.5195-11.25 12.1777-11.5918 11.6895-11.5918C11.2109-11.5918 10.8789-11.25 10.8789-10.752L10.8789-7.88086L8.00781-7.88086C7.50977-7.88086 7.17773-7.53906 7.17773-7.05078Z"/>
  </g>
  <g transform="matrix(1 0 0 1 305.646 1933)">
   <path d="M14.9707 5.66406C21.9336 5.66406 27.6953-0.0976562 27.6953-7.05078C27.6953-14.0137 21.9238-19.7754 14.9609-19.7754C8.00781-19.7754 2.25586-14.0137 2.25586-7.05078C2.25586-0.0976562 8.01758 5.66406 14.9707 5.66406ZM14.9707 3.84766C8.93555 3.84766 4.08203-1.01562 4.08203-7.05078C4.08203-13.0957 8.92578-17.9492 14.9609-17.9492C21.0059-17.9492 25.8691-13.0957 25.8691-7.05078C25.8691-1.01562 21.0156 3.84766 14.9707 3.84766ZM9.19922-7.05078C9.19922-6.5332 9.57031-6.17188 10.1172-6.17188L14.0625-6.17188L14.0625-2.2168C14.0625-1.67969 14.4336-1.29883 14.9512-1.29883C15.4883-1.29883 15.8594-1.66992 15.8594-2.2168L15.8594-6.17188L19.8145-6.17188C20.3516-6.17188 20.7324-6.5332 20.7324-7.05078C20.7324-7.59766 20.3613-7.96875 19.8145-7.96875L15.8594-7.96875L15.8594-11.9141C15.8594-12.4609 15.4883-12.8418 14.9512-12.8418C14.4336-12.8418 14.0625-12.4609 14.0625-11.9141L14.0625-7.96875L10.1172-7.96875C9.57031-7.96875 9.19922-7.59766 9.19922-7.05078Z"/>
  </g>
  <text style="stroke:none;fill:black;font-family:sans-serif;font-size:13;font-weight:bold;" transform="matrix(1 0 0 1 263 1953)">Design Variations</text>
  <text style="stroke:none;fill:black;font-family:sans-serif;font-size:13;" transform="matrix(1 0 0 1 263 1971)">Symbols are supported in up to nine weights and three scales.</text>
  <text style="stroke:none;fill:black;font-family:sans-serif;font-size:13;" transform="matrix(1 0 0 1 263 1989)">For optimal layout with text and other symbols, vertically align</text>
  <text style="stroke:none;fill:black;font-family:sans-serif;font-size:13;" transform="matrix(1 0 0 1 263 2007)">symbols with the adjacent text.</text>
  <line style="fill:none;stroke:#00AEEF;stroke-width:0.5;opacity:1.0;" x1="776" x2="776" y1="1919" y2="1933"/>
  <g transform="matrix(1 0 0 1 776 1933)">
   <path d="M3.31055 0.15625C3.82812 0.15625 4.08203-0.0390625 4.26758-0.585938L5.52734-4.0332L11.2891-4.0332L12.5488-0.585938C12.7344-0.0390625 12.9883 0.15625 13.4961 0.15625C14.0137 0.15625 14.3457-0.15625 14.3457-0.644531C14.3457-0.810547 14.3164-0.966797 14.2383-1.17188L9.6582-13.3691C9.43359-13.9648 9.0332-14.2676 8.4082-14.2676C7.80273-14.2676 7.39258-13.9746 7.17773-13.3789L2.59766-1.16211C2.51953-0.957031 2.49023-0.800781 2.49023-0.634766C2.49023-0.146484 2.80273 0.15625 3.31055 0.15625ZM6.00586-5.51758L8.37891-12.0898L8.42773-12.0898L10.8008-5.51758Z"/>
  </g>
  <line style="fill:none;stroke:#00AEEF;stroke-width:0.5;opacity:1.0;" x1="793.197" x2="793.197" y1="1919" y2="1933"/>
  <text style="stroke:none;fill:black;font-family:sans-serif;font-size:13;font-weight:bold;" transform="matrix(1 0 0 1 776 1953)">Margins</text>
  <text style="stroke:none;fill:black;font-family:sans-serif;font-size:13;" transform="matrix(1 0 0 1 776 1971)">Leading and trailing margins on the left and right side of each symbol</text>
  <text style="stroke:none;fill:black;font-family:sans-serif;font-size:13;" transform="matrix(1 0 0 1 776 1989)">can be adjusted by modifying the x-location of the margin guidelines.</text>
  <text style="stroke:none;fill:black;font-family:sans-serif;font-size:13;" transform="matrix(1 0 0 1 776 2007)">Modifications are automatically applied proportionally to all</text>
  <text style="stroke:none;fill:black;font-family:sans-serif;font-size:13;" transform="matrix(1 0 0 1 776 2025)">scales and weights.</text>
  <g transform="matrix(1 0 0 1 1289 1933)">
   <path d="M2.8418 1.86523L4.54102 3.57422C5.40039 4.44336 6.38672 4.38477 7.31445 3.35938L18.0078-8.42773L17.041-9.4043L6.42578 2.27539C6.07422 2.67578 5.74219 2.77344 5.27344 2.30469L4.10156 1.14258C3.63281 0.683594 3.74023 0.341797 4.14062-0.0195312L15.6152-10.8203L14.6387-11.7871L3.04688-0.898438C2.06055 0.0195312 1.98242 0.996094 2.8418 1.86523ZM9.25781-16.3281C8.83789-15.918 8.80859-15.3418 9.04297-14.9512C9.27734-14.5898 9.73633-14.3555 10.3809-14.5215C11.8457-14.8633 13.3691-14.9219 14.7949-13.9844L14.209-12.5293C13.8672-11.6992 14.043-11.1133 14.5801-10.5664L16.875-8.25195C17.3633-7.76367 17.7734-7.74414 18.3398-7.8418L19.4043-8.03711L20.0684-7.36328L20.0293-6.80664C19.9902-6.30859 20.1172-5.92773 20.6055-5.44922L21.3672-4.70703C21.8457-4.22852 22.4609-4.19922 22.9297-4.66797L25.8398-7.58789C26.3086-8.05664 26.2891-8.65234 25.8105-9.13086L25.0391-9.89258C24.5605-10.3711 24.1895-10.5273 23.7109-10.4883L23.1348-10.4395L22.4902-11.0742L22.7344-12.1973C22.8613-12.7637 22.7051-13.2031 22.1191-13.7891L19.9219-15.9766C16.582-19.2969 12.1484-19.2188 9.25781-16.3281ZM10.752-15.957C13.1836-17.7344 16.4746-17.4316 18.7012-15.2051L21.1328-12.793C21.3672-12.5586 21.4062-12.373 21.3379-12.0312L21.0156-10.5469L22.5195-9.0625L23.5059-9.12109C23.7598-9.13086 23.8379-9.11133 24.0332-8.91602L24.6094-8.33984L22.168-5.89844L21.5918-6.47461C21.3965-6.66992 21.3672-6.74805 21.377-7.01172L21.4453-7.98828L19.9512-9.47266L18.4277-9.21875C18.1055-9.15039 17.959-9.17969 17.7148-9.41406L15.7129-11.416C15.459-11.6504 15.4297-11.8164 15.5859-12.1875L16.4648-14.2773C14.9023-15.7324 12.8711-16.3574 10.8398-15.7617C10.6836-15.7227 10.625-15.8496 10.752-15.957Z"/>
  </g>
  <text style="stroke:none;fill:black;font-family:sans-serif;font-size:13;font-weight:bold;" transform="matrix(1 0 0 1 1289 1953)">Exporting</text>
  <text style="stroke:none;fill:black;font-family:sans-serif;font-size:13;" transform="matrix(1 0 0 1 1289 1971)">Symbols should be outlined when exporting to ensure the</text>
  <text style="stroke:none;fill:black;font-family:sans-serif;font-size:13;" transform="matrix(1 0 0 1 1289 1989)">design is preserved when submitting to Xcode.</text>
  <text id="template-version" style="stroke:none;fill:black;font-family:sans-serif;font-size:13;text-anchor:end;" transform="matrix(1 0 0 1 3036 1933)">Template v.4.0</text>
  <text style="stroke:none;fill:black;font-family:sans-serif;font-size:13;text-anchor:end;" transform="matrix(1 0 0 1 3036 1951)">Requires Xcode 14 or greater</text>
  <text id="descriptive-name" style="stroke:none;fill:black;font-family:sans-serif;font-size:13;text-anchor:end;" transform="matrix(1 0 0 1 3036 1969)">Generated from case.ice.tongs</text>
  <text style="stroke:none;fill:black;font-family:sans-serif;font-size:13;text-anchor:end;" transform="matrix(1 0 0 1 3036 1987)">Typeset at 100 points</text>
  <text style="stroke:none;fill:black;font-family:sans-serif;font-size:13;" transform="matrix(1 0 0 1 263 726)">Small</text>
  <text style="stroke:none;fill:black;font-family:sans-serif;font-size:13;" transform="matrix(1 0 0 1 263 1156)">Medium</text>
  <text style="stroke:none;fill:black;font-family:sans-serif;font-size:13;" transform="matrix(1 0 0 1 263 1586)">Large</text>
 </g>
 <g id="Guides">
  <g id="H-reference" style="fill:#27AAE1;stroke:none;" transform="matrix(1 0 0 1 339 696)">
   <path d="M0.993654 0L3.63775 0L29.3281-67.1323L30.0303-67.1323L30.0303-70.459L28.1226-70.459ZM11.6885-24.4799L46.9815-24.4799L46.2315-26.7285L12.4385-26.7285ZM55.1196 0L57.7637 0L30.6382-70.459L29.4326-70.459L29.4326-67.1323Z"/>
  </g>
  <line id="Baseline-S" style="fill:none;stroke:#27AAE1;opacity:1;stroke-width:0.5;" x1="263" x2="3036" y1="696" y2="696"/>
  <line id="Capline-S" style="fill:none;stroke:#27AAE1;opacity:1;stroke-width:0.5;" x1="263" x2="3036" y1="625.541" y2="625.541"/>
  <g id="H-reference" style="fill:#27AAE1;stroke:none;" transform="matrix(1 0 0 1 339 1126)">
   <path d="M0.993654 0L3.63775 0L29.3281-67.1323L30.0303-67.1323L30.0303-70.459L28.1226-70.459ZM11.6885-24.4799L46.9815-24.4799L46.2315-26.7285L12.4385-26.7285ZM55.1196 0L57.7637 0L30.6382-70.459L29.4326-70.459L29.4326-67.1323Z"/>
  </g>
  <line id="Baseline-M" style="fill:none;stroke:#27AAE1;opacity:1;stroke-width:0.5;" x1="263" x2="3036" y1="1126" y2="1126"/>
  <line id="Capline-M" style="fill:none;stroke:#27AAE1;opacity:1;stroke-width:0.5;" x1="263" x2="3036" y1="1055.54" y2="1055.54"/>
  <g id="H-reference" style="fill:#27AAE1;stroke:none;" transform="matrix(1 0 0 1 339 1556)">
   <path d="M0.993654 0L3.63775 0L29.3281-67.1323L30.0303-67.1323L30.0303-70.459L28.1226-70.459ZM11.6885-24.4799L46.9815-24.4799L46.2315-26.7285L12.4385-26.7285ZM55.1196 0L57.7637 0L30.6382-70.459L29.4326-70.459L29.4326-67.1323Z"/>
  </g>
  <line id="Baseline-L" style="fill:none;stroke:#27AAE1;opacity:1;stroke-width:0.5;" x1="263" x2="3036" y1="1556" y2="1556"/>
  <line id="Capline-L" style="fill:none;stroke:#27AAE1;opacity:1;stroke-width:0.5;" x1="263" x2="3036" y1="1485.54" y2="1485.54"/>
  <line id="left-margin-Ultralight-S" style="fill:none;stroke:#00AEEF;stroke-width:0.5;opacity:1.0;" x1="508.811" x2="508.811" y1="600.785" y2="720.121"/>
  <line id="right-margin-Ultralight-S" style="fill:none;stroke:#00AEEF;stroke-width:0.5;opacity:1.0;" x1="610.611" x2="610.611" y1="600.785" y2="720.121"/>
  <line id="left-margin-Regular-S" style="fill:none;stroke:#00AEEF;stroke-width:0.5;opacity:1.0;" x1="1395.19" x2="1395.19" y1="600.785" y2="720.121"/>
  <line id="right-margin-Regular-S" style="fill:none;stroke:#00AEEF;stroke-width:0.5;opacity:1.0;" x1="1504.49" x2="1504.49" y1="600.785" y2="720.121"/>
  <line id="left-margin-Black-S" style="fill:none;stroke:#00AEEF;stroke-width:0.5;opacity:1.0;" x1="2875.7" x2="2875.7" y1="600.785" y2="720.121"/>
  <line id="right-margin-Black-S" style="fill:none;stroke:#00AEEF;stroke-width:0.5;opacity:1.0;" x1="2991.1" x2="2991.1" y1="600.785" y2="720.121"/>
 </g>
 <g id="Symbols">
  <g id="Black-S" transform="matrix(1 0 0 1 2875.7 696)">
   <path class="monochrome-0 SFSymbolsPreview000000" d="M61.91-10.5C60.71-10.7 60.11-11.9 60.61-13C61.51-14.9 61.51-17.2 60.51-19.2C59.51-21.2 57.61-22.5 55.51-22.8C54.31-23 53.71-24.2 54.21-25.3C55.11-27.2 55.11-29.5 54.11-31.5C52.91-33.9 50.51-35.2 47.91-35.2C46.81-35.2 45.71-35 44.71-34.4L25.01-73C23.91-75.1 21.81-76.3 19.61-76.3C18.71-76.3 17.71-76.1 16.91-75.6C14.11-74.1 13.01-70.5 14.41-67.7L50.51 2.5C51.61 4.6 53.71 5.8 55.91 5.8C56.81 5.8 57.81 5.6 58.71 5.1L63.71 2.5C67.01 0.8 68.51-3.3 66.91-6.7C65.91-8.8 64.01-10.2 61.91-10.5ZM97.21-54.9L27.71-74.3L35.11-59.9L59.91-53C58.91-49.3 61.01-45.5 64.71-44.5C65.31-44.3 65.91-44.2 66.61-44.2C68.11-44.2 69.61-44.7 70.81-45.6C71.11-45.8 71.51-46 71.91-46C72.61-46 73.31-45.6 73.51-44.9C74.31-43 75.91-41.4 78.11-40.8C78.71-40.6 79.31-40.5 80.01-40.5C81.51-40.5 83.01-41 84.21-41.9C84.51-42.1 84.91-42.3 85.31-42.3C86.01-42.3 86.71-41.9 86.91-41.2C87.71-39.2 89.41-37.6 91.71-37C92.21-36.9 92.81-36.8 93.31-36.8C96.41-36.8 99.21-38.9 100.01-42L101.51-47.5C102.31-50.7 100.51-54.1 97.21-54.9ZM87.91-34.8L71.61-34.8C69.11-34.8 67.01-32.7 67.01-30.2L67.01-13.8C67.01-11.3 69.11-9.2 71.61-9.2L88.01-9.2C90.51-9.2 92.61-11.3 92.61-13.8L92.61-30.2C92.51-32.7 90.51-34.8 87.91-34.8ZM62.01-0.8L57.01 1.8C56.61 1.9 56.31 2 55.91 2C55.01 2 54.21 1.5 53.81 0.7L17.71-69.4C17.21-70.5 17.61-71.8 18.61-72.3C18.91-72.5 19.21-72.5 19.51-72.5C20.41-72.5 21.21-72 21.61-71.2L41.51-32.7C42.21-31.4 43.51-30.7 44.81-30.7C45.41-30.7 46.01-30.8 46.51-31.1C47.01-31.3 47.41-31.5 48.01-31.5C49.21-31.5 50.31-30.8 50.81-29.8C51.31-28.9 51.31-27.9 50.81-27C50.11-25.4 50.11-23.6 50.91-22.1C51.71-20.6 53.11-19.5 54.81-19.2C55.81-19 56.61-18.4 57.11-17.5C57.61-16.6 57.61-15.6 57.11-14.7C56.41-13.1 56.41-11.3 57.21-9.8C58.01-8.3 59.41-7.2 61.11-6.9C62.11-6.7 63.01-6.1 63.41-5.1C64.31-3.5 63.61-1.6 62.01-0.8ZM97.81-48.5L96.31-43C95.91-41.6 94.61-40.5 93.21-40.5C93.01-40.5 92.71-40.5 92.51-40.6C91.51-40.8 90.71-41.5 90.31-42.5C89.51-44.6 87.51-46 85.21-46C84.01-46 82.81-45.6 81.91-44.9C81.31-44.5 80.71-44.2 80.01-44.2C79.71-44.2 79.41-44.2 79.11-44.3C78.11-44.6 77.41-45.3 77.01-46.2C76.21-48.3 74.21-49.7 71.91-49.7C70.71-49.7 69.51-49.3 68.61-48.6C68.01-48.2 67.41-47.9 66.71-47.9C66.41-47.9 66.11-47.9 65.81-48C65.01-48.2 64.31-48.8 63.91-49.5C63.51-50.2 63.41-51.1 63.61-51.9C63.91-52.9 63.71-53.9 63.31-54.7C62.91-55.5 62.01-56.2 61.01-56.5L37.81-63L35.11-68.3L96.41-51.3C97.01-51.1 97.51-50.7 97.81-50.2C97.91-49.7 98.01-49.1 97.81-48.5ZM88.81-13.8C88.81-13.3 88.41-12.9 87.91-12.9L71.61-12.9C71.11-12.9 70.71-13.3 70.71-13.8L70.71-30.2C70.71-30.7 71.11-31.1 71.61-31.1L88.01-31.1C88.51-31.1 88.91-30.7 88.91-30.2L88.91-13.8ZM73.21-27.1L73.21-18.9L82.81-28.5L74.61-28.5C73.81-28.5 73.21-27.9 73.21-27.1Z"/>
  </g>
  <g id="Regular-S" transform="matrix(1 0 0 1 1395.19 696)">
   <path class="monochrome-0 SFSymbolsPreview000000" d="M58.6-12.1C57.5-12.3 56.9-13.5 57.4-14.4C58.2-16.2 58.3-18.3 57.3-20.2C56.3-22.1 54.6-23.3 52.6-23.6C51.6-23.8 51-25 51.5-26C52.3-27.8 52.4-29.9 51.4-31.8C50.2-34 48-35.3 45.6-35.3C44.6-35.3 43.6-35.1 42.6-34.6L24-70.7C23-72.7 21-73.8 18.9-73.8C18-73.8 17.2-73.6 16.3-73.2C13.6-71.8 12.6-68.4 14-65.7L48 0.1C49 2.1 51 3.2 53.1 3.2C54 3.2 54.9 3 55.7 2.6L60.4 0.2C63.5-1.4 64.9-5.2 63.4-8.4C62.4-10.5 60.6-11.8 58.6-12.1ZM91.8-53.8L26.5-71.9L33.5-58.4L56.8-52C55.8-48.5 57.9-45 61.3-44C61.9-43.8 62.5-43.8 63-43.8C64.4-43.8 65.8-44.3 66.9-45.1C67.2-45.3 67.6-45.4 67.9-45.4C68.5-45.4 69.2-45 69.4-44.4C70.1-42.6 71.7-41.1 73.7-40.5C74.3-40.3 74.9-40.3 75.4-40.3C76.8-40.3 78.2-40.8 79.3-41.6C79.6-41.8 80-41.9 80.3-41.9C80.9-41.9 81.6-41.5 81.8-40.9C82.6-39 84.2-37.5 86.3-37C86.8-36.9 87.3-36.8 87.8-36.8C90.7-36.8 93.3-38.8 94.1-41.7L95.5-46.8C96.6-49.8 94.8-53 91.8-53.8ZM83.1-34.9L67.7-34.9C65.3-34.9 63.4-33 63.4-30.6L63.4-15.2C63.4-12.8 65.3-10.9 67.7-10.9L83.1-10.9C85.5-10.9 87.4-12.8 87.4-15.2L87.4-30.6C87.4-32.9 85.5-34.9 83.1-34.9ZM58.7-3L54-0.6C53.7-0.4 53.4-0.4 53-0.4C52.2-0.4 51.4-0.9 51.1-1.6L17.1-67.5C16.6-68.5 17-69.7 18-70.3C18.3-70.4 18.6-70.5 18.9-70.5C19.7-70.5 20.5-70 20.9-69.3L39.5-33C40.1-31.8 41.4-31.1 42.6-31.1C43.1-31.1 43.7-31.2 44.2-31.5C44.6-31.7 45.1-31.8 45.6-31.8C46.7-31.8 47.7-31.2 48.3-30.2C48.7-29.4 48.7-28.4 48.3-27.5C47.6-26 47.6-24.4 48.4-22.9C49.2-21.4 50.5-20.5 52.1-20.2C53-20 53.8-19.5 54.2-18.6C54.6-17.8 54.6-16.8 54.2-15.9C53.5-14.4 53.5-12.8 54.3-11.3C55-9.9 56.4-8.9 58-8.6C59-8.4 59.8-7.8 60.2-6.9C60.9-5.5 60.2-3.8 58.7-3ZM92.4-47.7L91-42.6C90.6-41.2 89.4-40.3 88-40.3C87.8-40.3 87.6-40.3 87.3-40.4C86.3-40.6 85.6-41.3 85.2-42.2C84.4-44.2 82.5-45.5 80.4-45.5C79.3-45.5 78.2-45.1 77.3-44.4C76.8-44 76.1-43.8 75.5-43.8C75.2-43.8 75-43.8 74.7-43.9C73.8-44.2 73.1-44.8 72.7-45.7C71.9-47.7 70-49 67.9-49C66.8-49 65.7-48.6 64.8-47.9C64.3-47.5 63.6-47.3 63-47.3C62.7-47.3 62.5-47.3 62.2-47.4C61.4-47.6 60.8-48.1 60.4-48.8C60-49.5 59.9-50.3 60.1-51.1C60.3-52 60.2-53 59.8-53.8C59.3-54.6 58.6-55.2 57.7-55.5L35.9-61.6L33.3-66.6L90.8-50.6C91.4-50.4 91.8-50.1 92.1-49.6C92.5-48.9 92.5-48.3 92.4-47.7ZM83.9-15.2C83.9-14.7 83.5-14.4 83.1-14.4L67.7-14.4C67.2-14.4 66.9-14.8 66.9-15.2L66.9-30.6C66.9-31.1 67.3-31.4 67.7-31.4L83.1-31.4C83.6-31.4 83.9-31 83.9-30.6L83.9-15.2ZM69.3-27.6L69.3-19.9L78.3-28.9L70.6-28.9C69.9-29 69.3-28.4 69.3-27.6Z"/>
  </g>
  <g id="Ultralight-S" transform="matrix(1 0 0 1 508.811 696)">
   <path class="monochrome-0 SFSymbolsPreview000000" d="M54.504-13.9C53.504-14.1 53.004-15.1 53.404-16.1C54.204-17.7 54.204-19.7 53.304-21.4C52.404-23.1 50.804-24.2 49.004-24.5C48.004-24.7 47.504-25.7 47.904-26.7C48.704-28.3 48.704-30.3 47.804-32C46.704-34 44.704-35.2 42.504-35.2C41.604-35.2 40.604-35 39.804-34.5L22.704-67.6C21.804-69.4 19.904-70.5 18.004-70.5C17.204-70.5 16.404-70.3 15.704-69.9C13.304-68.6 12.304-65.5 13.604-63.1L44.704-2.7C45.604-0.9 47.404 0.1 49.304 0.1C50.104 0.1 50.904-0.1 51.704-0.5L56.004-2.7C58.904-4.2 60.204-7.7 58.804-10.6C58.004-12.4 56.304-13.6 54.504-13.9ZM84.904-52.1L25.004-68.8L31.404-56.4L52.704-50.5C51.804-47.3 53.704-44.1 56.804-43.2C57.304-43.1 57.904-43 58.404-43C59.704-43 61.004-43.4 62.004-44.2C62.304-44.4 62.604-44.5 62.904-44.5C63.504-44.5 64.104-44.2 64.304-43.5C65.004-41.8 66.404-40.5 68.204-40C68.704-39.9 69.304-39.8 69.804-39.8C71.104-39.8 72.404-40.2 73.404-41C73.704-41.2 74.004-41.3 74.304-41.3C74.904-41.3 75.504-41 75.704-40.3C76.404-38.6 77.904-37.2 79.804-36.7C80.304-36.6 80.704-36.5 81.204-36.5C83.804-36.5 86.304-38.3 87.004-41L88.304-45.7C89.304-48.5 87.704-51.3 84.904-52.1ZM76.904-34.8L62.804-34.8C60.604-34.8 58.804-33 58.804-30.8L58.804-16.7C58.804-14.5 60.604-12.7 62.804-12.7L76.904-12.7C79.104-12.7 80.904-14.5 80.904-16.7L80.904-30.8C80.804-33 79.104-34.8 76.904-34.8ZM54.604-5.5L50.304-3.3C50.004-3.2 49.704-3.1 49.404-3.1C48.704-3.1 48.004-3.5 47.604-4.2L16.404-64.5C15.904-65.4 16.304-66.5 17.204-67C17.504-67.1 17.704-67.2 18.004-67.2C18.704-67.2 19.504-66.7 19.804-66.1L36.904-33C37.504-31.9 38.604-31.3 39.804-31.3C40.304-31.3 40.804-31.4 41.304-31.7C41.704-31.9 42.104-32 42.504-32C43.504-32 44.504-31.4 44.904-30.5C45.304-29.7 45.304-28.8 44.904-28.1C44.304-26.8 44.304-25.2 45.004-23.9C45.704-22.6 46.904-21.7 48.404-21.4C49.304-21.3 50.004-20.7 50.404-20C50.804-19.2 50.804-18.3 50.404-17.6C49.804-16.3 49.804-14.7 50.504-13.4C51.204-12.1 52.404-11.2 53.904-10.9C54.804-10.7 55.504-10.2 55.904-9.4C56.504-7.9 55.904-6.2 54.604-5.5ZM85.404-46.6L84.104-41.9C83.804-40.7 82.604-39.8 81.404-39.8C81.204-39.8 81.004-39.8 80.804-39.9C79.904-40.1 79.204-40.7 78.904-41.6C78.204-43.4 76.504-44.6 74.504-44.6C73.504-44.6 72.504-44.3 71.604-43.6C71.104-43.2 70.504-43 69.904-43C69.704-43 69.404-43 69.204-43.1C68.404-43.3 67.704-43.9 67.404-44.7C66.704-46.5 64.904-47.7 63.004-47.7C62.004-47.7 61.004-47.4 60.104-46.7C59.604-46.3 59.004-46.1 58.404-46.1C58.204-46.1 57.904-46.1 57.704-46.2C57.004-46.4 56.404-46.9 56.104-47.5C55.704-48.1 55.704-48.9 55.804-49.6C56.004-50.4 55.904-51.3 55.504-52C55.104-52.7 54.404-53.3 53.604-53.5L33.604-59.1L31.204-63.7L84.004-49C84.504-48.9 84.904-48.5 85.204-48.1C85.504-47.6 85.604-47.1 85.404-46.6ZM77.604-16.7C77.604-16.3 77.304-15.9 76.804-15.9L62.804-15.9C62.404-15.9 62.004-16.2 62.004-16.7L62.004-30.8C62.004-31.2 62.304-31.6 62.804-31.6L76.904-31.6C77.304-31.6 77.704-31.3 77.704-30.8L77.704-16.7ZM64.204-28.1L64.204-21.1L72.404-29.3L65.404-29.3C64.804-29.4 64.204-28.8 64.204-28.1Z"/>
  </g>
 </g>
</svg>
