<?xml version="1.0" encoding="UTF-8"?>
<!--Generator: Apple Native CoreSVG 175.5-->
<!DOCTYPE svg
PUBLIC "-//W3C//DTD SVG 1.1//EN"
       "http://www.w3.org/Graphics/SVG/1.1/DTD/svg11.dtd">
<svg version="1.1" xmlns="http://www.w3.org/2000/svg" xmlns:xlink="http://www.w3.org/1999/xlink" width="3300" height="2200">
 <!--glyph: "", point size: 100.0, font version: "18.0d12e2", template writer version: "101"-->
 <style>.monochrome-0 {fill:#000000}

.SFSymbolsPreview000000 {fill:#000000;opacity:1.0}
</style>
 <g id="Notes">
  <rect height="2200" id="artboard" style="fill:white;opacity:1" width="3300" x="0" y="0"/>
  <line style="fill:none;stroke:black;opacity:1;stroke-width:0.5;" x1="263" x2="3036" y1="292" y2="292"/>
  <text style="stroke:none;fill:black;font-family:sans-serif;font-size:13;font-weight:bold;" transform="matrix(1 0 0 1 263 322)">Weight/Scale Variations</text>
  <text style="stroke:none;fill:black;font-family:sans-serif;font-size:13;text-anchor:middle;" transform="matrix(1 0 0 1 559.711 322)">Ultralight</text>
  <text style="stroke:none;fill:black;font-family:sans-serif;font-size:13;text-anchor:middle;" transform="matrix(1 0 0 1 856.422 322)">Thin</text>
  <text style="stroke:none;fill:black;font-family:sans-serif;font-size:13;text-anchor:middle;" transform="matrix(1 0 0 1 1153.13 322)">Light</text>
  <text style="stroke:none;fill:black;font-family:sans-serif;font-size:13;text-anchor:middle;" transform="matrix(1 0 0 1 1449.84 322)">Regular</text>
  <text style="stroke:none;fill:black;font-family:sans-serif;font-size:13;text-anchor:middle;" transform="matrix(1 0 0 1 1746.56 322)">Medium</text>
  <text style="stroke:none;fill:black;font-family:sans-serif;font-size:13;text-anchor:middle;" transform="matrix(1 0 0 1 2043.27 322)">Semibold</text>
  <text style="stroke:none;fill:black;font-family:sans-serif;font-size:13;text-anchor:middle;" transform="matrix(1 0 0 1 2339.98 322)">Bold</text>
  <text style="stroke:none;fill:black;font-family:sans-serif;font-size:13;text-anchor:middle;" transform="matrix(1 0 0 1 2636.69 322)">Heavy</text>
  <text style="stroke:none;fill:black;font-family:sans-serif;font-size:13;text-anchor:middle;" transform="matrix(1 0 0 1 2933.4 322)">Black</text>
  <line style="fill:none;stroke:black;opacity:1;stroke-width:0.5;" x1="263" x2="3036" y1="1903" y2="1903"/>
  <g transform="matrix(1 0 0 1 263 1933)">
   <path d="M9.24805 0.830078C13.5547 0.830078 17.1387-2.74414 17.1387-7.05078C17.1387-11.3574 13.5449-14.9316 9.23828-14.9316C4.94141-14.9316 1.36719-11.3574 1.36719-7.05078C1.36719-2.74414 4.95117 0.830078 9.24805 0.830078ZM9.24805-0.654297C5.70312-0.654297 2.87109-3.49609 2.87109-7.05078C2.87109-10.6055 5.69336-13.4473 9.23828-13.4473C12.793-13.4473 15.6445-10.6055 15.6445-7.05078C15.6445-3.49609 12.8027-0.654297 9.24805-0.654297ZM5.6543-7.05078C5.6543-6.62109 5.95703-6.32812 6.40625-6.32812L8.50586-6.32812L8.50586-4.20898C8.50586-3.76953 8.79883-3.4668 9.22852-3.4668C9.67773-3.4668 9.9707-3.76953 9.9707-4.20898L9.9707-6.32812L12.0898-6.32812C12.5293-6.32812 12.832-6.62109 12.832-7.05078C12.832-7.49023 12.5293-7.79297 12.0898-7.79297L9.9707-7.79297L9.9707-9.90234C9.9707-10.3516 9.67773-10.6543 9.22852-10.6543C8.79883-10.6543 8.50586-10.3516 8.50586-9.90234L8.50586-7.79297L6.40625-7.79297C5.95703-7.79297 5.6543-7.49023 5.6543-7.05078Z"/>
  </g>
  <g transform="matrix(1 0 0 1 281.867 1933)">
   <path d="M11.709 2.91016C17.1582 2.91016 21.6699-1.61133 21.6699-7.05078C21.6699-12.5 17.1484-17.0117 11.6992-17.0117C6.25977-17.0117 1.74805-12.5 1.74805-7.05078C1.74805-1.61133 6.26953 2.91016 11.709 2.91016ZM11.709 1.25C7.09961 1.25 3.41797-2.44141 3.41797-7.05078C3.41797-11.6602 7.08984-15.3516 11.6992-15.3516C16.3086-15.3516 20.0098-11.6602 20.0098-7.05078C20.0098-2.44141 16.3184 1.25 11.709 1.25ZM7.17773-7.05078C7.17773-6.57227 7.50977-6.25 8.00781-6.25L10.8789-6.25L10.8789-3.36914C10.8789-2.88086 11.2109-2.53906 11.6895-2.53906C12.1777-2.53906 12.5195-2.87109 12.5195-3.36914L12.5195-6.25L15.4004-6.25C15.8887-6.25 16.2305-6.57227 16.2305-7.05078C16.2305-7.53906 15.8887-7.88086 15.4004-7.88086L12.5195-7.88086L12.5195-10.752C12.5195-11.25 12.1777-11.5918 11.6895-11.5918C11.2109-11.5918 10.8789-11.25 10.8789-10.752L10.8789-7.88086L8.00781-7.88086C7.50977-7.88086 7.17773-7.53906 7.17773-7.05078Z"/>
  </g>
  <g transform="matrix(1 0 0 1 305.646 1933)">
   <path d="M14.9707 5.66406C21.9336 5.66406 27.6953-0.0976562 27.6953-7.05078C27.6953-14.0137 21.9238-19.7754 14.9609-19.7754C8.00781-19.7754 2.25586-14.0137 2.25586-7.05078C2.25586-0.0976562 8.01758 5.66406 14.9707 5.66406ZM14.9707 3.84766C8.93555 3.84766 4.08203-1.01562 4.08203-7.05078C4.08203-13.0957 8.92578-17.9492 14.9609-17.9492C21.0059-17.9492 25.8691-13.0957 25.8691-7.05078C25.8691-1.01562 21.0156 3.84766 14.9707 3.84766ZM9.19922-7.05078C9.19922-6.5332 9.57031-6.17188 10.1172-6.17188L14.0625-6.17188L14.0625-2.2168C14.0625-1.67969 14.4336-1.29883 14.9512-1.29883C15.4883-1.29883 15.8594-1.66992 15.8594-2.2168L15.8594-6.17188L19.8145-6.17188C20.3516-6.17188 20.7324-6.5332 20.7324-7.05078C20.7324-7.59766 20.3613-7.96875 19.8145-7.96875L15.8594-7.96875L15.8594-11.9141C15.8594-12.4609 15.4883-12.8418 14.9512-12.8418C14.4336-12.8418 14.0625-12.4609 14.0625-11.9141L14.0625-7.96875L10.1172-7.96875C9.57031-7.96875 9.19922-7.59766 9.19922-7.05078Z"/>
  </g>
  <text style="stroke:none;fill:black;font-family:sans-serif;font-size:13;font-weight:bold;" transform="matrix(1 0 0 1 263 1953)">Design Variations</text>
  <text style="stroke:none;fill:black;font-family:sans-serif;font-size:13;" transform="matrix(1 0 0 1 263 1971)">Symbols are supported in up to nine weights and three scales.</text>
  <text style="stroke:none;fill:black;font-family:sans-serif;font-size:13;" transform="matrix(1 0 0 1 263 1989)">For optimal layout with text and other symbols, vertically align</text>
  <text style="stroke:none;fill:black;font-family:sans-serif;font-size:13;" transform="matrix(1 0 0 1 263 2007)">symbols with the adjacent text.</text>
  <line style="fill:none;stroke:#00AEEF;stroke-width:0.5;opacity:1.0;" x1="776" x2="776" y1="1919" y2="1933"/>
  <g transform="matrix(1 0 0 1 776 1933)">
   <path d="M3.31055 0.15625C3.82812 0.15625 4.08203-0.0390625 4.26758-0.585938L5.52734-4.0332L11.2891-4.0332L12.5488-0.585938C12.7344-0.0390625 12.9883 0.15625 13.4961 0.15625C14.0137 0.15625 14.3457-0.15625 14.3457-0.644531C14.3457-0.810547 14.3164-0.966797 14.2383-1.17188L9.6582-13.3691C9.43359-13.9648 9.0332-14.2676 8.4082-14.2676C7.80273-14.2676 7.39258-13.9746 7.17773-13.3789L2.59766-1.16211C2.51953-0.957031 2.49023-0.800781 2.49023-0.634766C2.49023-0.146484 2.80273 0.15625 3.31055 0.15625ZM6.00586-5.51758L8.37891-12.0898L8.42773-12.0898L10.8008-5.51758Z"/>
  </g>
  <line style="fill:none;stroke:#00AEEF;stroke-width:0.5;opacity:1.0;" x1="793.197" x2="793.197" y1="1919" y2="1933"/>
  <text style="stroke:none;fill:black;font-family:sans-serif;font-size:13;font-weight:bold;" transform="matrix(1 0 0 1 776 1953)">Margins</text>
  <text style="stroke:none;fill:black;font-family:sans-serif;font-size:13;" transform="matrix(1 0 0 1 776 1971)">Leading and trailing margins on the left and right side of each symbol</text>
  <text style="stroke:none;fill:black;font-family:sans-serif;font-size:13;" transform="matrix(1 0 0 1 776 1989)">can be adjusted by modifying the x-location of the margin guidelines.</text>
  <text style="stroke:none;fill:black;font-family:sans-serif;font-size:13;" transform="matrix(1 0 0 1 776 2007)">Modifications are automatically applied proportionally to all</text>
  <text style="stroke:none;fill:black;font-family:sans-serif;font-size:13;" transform="matrix(1 0 0 1 776 2025)">scales and weights.</text>
  <g transform="matrix(1 0 0 1 1289 1933)">
   <path d="M2.8418 1.86523L4.54102 3.57422C5.40039 4.44336 6.38672 4.38477 7.31445 3.35938L18.0078-8.42773L17.041-9.4043L6.42578 2.27539C6.07422 2.67578 5.74219 2.77344 5.27344 2.30469L4.10156 1.14258C3.63281 0.683594 3.74023 0.341797 4.14062-0.0195312L15.6152-10.8203L14.6387-11.7871L3.04688-0.898438C2.06055 0.0195312 1.98242 0.996094 2.8418 1.86523ZM9.25781-16.3281C8.83789-15.918 8.80859-15.3418 9.04297-14.9512C9.27734-14.5898 9.73633-14.3555 10.3809-14.5215C11.8457-14.8633 13.3691-14.9219 14.7949-13.9844L14.209-12.5293C13.8672-11.6992 14.043-11.1133 14.5801-10.5664L16.875-8.25195C17.3633-7.76367 17.7734-7.74414 18.3398-7.8418L19.4043-8.03711L20.0684-7.36328L20.0293-6.80664C19.9902-6.30859 20.1172-5.92773 20.6055-5.44922L21.3672-4.70703C21.8457-4.22852 22.4609-4.19922 22.9297-4.66797L25.8398-7.58789C26.3086-8.05664 26.2891-8.65234 25.8105-9.13086L25.0391-9.89258C24.5605-10.3711 24.1895-10.5273 23.7109-10.4883L23.1348-10.4395L22.4902-11.0742L22.7344-12.1973C22.8613-12.7637 22.7051-13.2031 22.1191-13.7891L19.9219-15.9766C16.582-19.2969 12.1484-19.2188 9.25781-16.3281ZM10.752-15.957C13.1836-17.7344 16.4746-17.4316 18.7012-15.2051L21.1328-12.793C21.3672-12.5586 21.4062-12.373 21.3379-12.0312L21.0156-10.5469L22.5195-9.0625L23.5059-9.12109C23.7598-9.13086 23.8379-9.11133 24.0332-8.91602L24.6094-8.33984L22.168-5.89844L21.5918-6.47461C21.3965-6.66992 21.3672-6.74805 21.377-7.01172L21.4453-7.98828L19.9512-9.47266L18.4277-9.21875C18.1055-9.15039 17.959-9.17969 17.7148-9.41406L15.7129-11.416C15.459-11.6504 15.4297-11.8164 15.5859-12.1875L16.4648-14.2773C14.9023-15.7324 12.8711-16.3574 10.8398-15.7617C10.6836-15.7227 10.625-15.8496 10.752-15.957Z"/>
  </g>
  <text style="stroke:none;fill:black;font-family:sans-serif;font-size:13;font-weight:bold;" transform="matrix(1 0 0 1 1289 1953)">Exporting</text>
  <text style="stroke:none;fill:black;font-family:sans-serif;font-size:13;" transform="matrix(1 0 0 1 1289 1971)">Symbols should be outlined when exporting to ensure the</text>
  <text style="stroke:none;fill:black;font-family:sans-serif;font-size:13;" transform="matrix(1 0 0 1 1289 1989)">design is preserved when submitting to Xcode.</text>
  <text id="template-version" style="stroke:none;fill:black;font-family:sans-serif;font-size:13;text-anchor:end;" transform="matrix(1 0 0 1 3036 1933)">Template v.4.0</text>
  <text style="stroke:none;fill:black;font-family:sans-serif;font-size:13;text-anchor:end;" transform="matrix(1 0 0 1 3036 1951)">Requires Xcode 14 or greater</text>
  <text id="descriptive-name" style="stroke:none;fill:black;font-family:sans-serif;font-size:13;text-anchor:end;" transform="matrix(1 0 0 1 3036 1969)">Generated from cellar.many.bottles.framed</text>
  <text style="stroke:none;fill:black;font-family:sans-serif;font-size:13;text-anchor:end;" transform="matrix(1 0 0 1 3036 1987)">Typeset at 100 points</text>
  <text style="stroke:none;fill:black;font-family:sans-serif;font-size:13;" transform="matrix(1 0 0 1 263 726)">Small</text>
  <text style="stroke:none;fill:black;font-family:sans-serif;font-size:13;" transform="matrix(1 0 0 1 263 1156)">Medium</text>
  <text style="stroke:none;fill:black;font-family:sans-serif;font-size:13;" transform="matrix(1 0 0 1 263 1586)">Large</text>
 </g>
 <g id="Guides">
  <g id="H-reference" style="fill:#27AAE1;stroke:none;" transform="matrix(1 0 0 1 339 696)">
   <path d="M0.993654 0L3.63775 0L29.3281-67.1323L30.0303-67.1323L30.0303-70.459L28.1226-70.459ZM11.6885-24.4799L46.9815-24.4799L46.2315-26.7285L12.4385-26.7285ZM55.1196 0L57.7637 0L30.6382-70.459L29.4326-70.459L29.4326-67.1323Z"/>
  </g>
  <line id="Baseline-S" style="fill:none;stroke:#27AAE1;opacity:1;stroke-width:0.5;" x1="263" x2="3036" y1="696" y2="696"/>
  <line id="Capline-S" style="fill:none;stroke:#27AAE1;opacity:1;stroke-width:0.5;" x1="263" x2="3036" y1="625.541" y2="625.541"/>
  <g id="H-reference" style="fill:#27AAE1;stroke:none;" transform="matrix(1 0 0 1 339 1126)">
   <path d="M0.993654 0L3.63775 0L29.3281-67.1323L30.0303-67.1323L30.0303-70.459L28.1226-70.459ZM11.6885-24.4799L46.9815-24.4799L46.2315-26.7285L12.4385-26.7285ZM55.1196 0L57.7637 0L30.6382-70.459L29.4326-70.459L29.4326-67.1323Z"/>
  </g>
  <line id="Baseline-M" style="fill:none;stroke:#27AAE1;opacity:1;stroke-width:0.5;" x1="263" x2="3036" y1="1126" y2="1126"/>
  <line id="Capline-M" style="fill:none;stroke:#27AAE1;opacity:1;stroke-width:0.5;" x1="263" x2="3036" y1="1055.54" y2="1055.54"/>
  <g id="H-reference" style="fill:#27AAE1;stroke:none;" transform="matrix(1 0 0 1 339 1556)">
   <path d="M0.993654 0L3.63775 0L29.3281-67.1323L30.0303-67.1323L30.0303-70.459L28.1226-70.459ZM11.6885-24.4799L46.9815-24.4799L46.2315-26.7285L12.4385-26.7285ZM55.1196 0L57.7637 0L30.6382-70.459L29.4326-70.459L29.4326-67.1323Z"/>
  </g>
  <line id="Baseline-L" style="fill:none;stroke:#27AAE1;opacity:1;stroke-width:0.5;" x1="263" x2="3036" y1="1556" y2="1556"/>
  <line id="Capline-L" style="fill:none;stroke:#27AAE1;opacity:1;stroke-width:0.5;" x1="263" x2="3036" y1="1485.54" y2="1485.54"/>
  <line id="left-margin-Ultralight-S" style="fill:none;stroke:#00AEEF;stroke-width:0.5;opacity:1.0;" x1="504.811" x2="504.811" y1="600.785" y2="720.121"/>
  <line id="right-margin-Ultralight-S" style="fill:none;stroke:#00AEEF;stroke-width:0.5;opacity:1.0;" x1="614.611" x2="614.611" y1="600.785" y2="720.121"/>
  <line id="left-margin-Regular-S" style="fill:none;stroke:#00AEEF;stroke-width:0.5;opacity:1.0;" x1="1390.19" x2="1390.19" y1="600.785" y2="720.121"/>
  <line id="right-margin-Regular-S" style="fill:none;stroke:#00AEEF;stroke-width:0.5;opacity:1.0;" x1="1509.49" x2="1509.49" y1="600.785" y2="720.121"/>
  <line id="left-margin-Black-S" style="fill:none;stroke:#00AEEF;stroke-width:0.5;opacity:1.0;" x1="2870.7" x2="2870.7" y1="600.785" y2="720.121"/>
  <line id="right-margin-Black-S" style="fill:none;stroke:#00AEEF;stroke-width:0.5;opacity:1.0;" x1="2996.1" x2="2996.1" y1="600.785" y2="720.121"/>
 </g>
 <g id="Symbols">
  <g id="Black-S" transform="matrix(1 0 0 1 2870.7 696)">
   <path class="monochrome-0 SFSymbolsPreview000000" d="M107.81-83.4L17.51-83.4C15.91-83.4 14.71-82.1 14.71-80.6L14.71 9.8C14.71 11.4 16.01 12.6 17.51 12.6L107.81 12.6C109.41 12.6 110.61 11.3 110.61 9.8L110.61-80.5C110.61-82.1 109.41-83.4 107.81-83.4ZM93.41-37.6C90.11-37.6 87.51-35 87.51-31.7C87.51-30.5 87.81-29.4 88.41-28.5C87.51-29.1 86.41-29.4 85.21-29.4C84.01-29.4 82.91-29.1 82.01-28.5C82.61-29.4 82.91-30.5 82.91-31.7C82.91-35 80.31-37.6 77.01-37.6C73.71-37.6 71.11-35 71.11-31.7C71.11-30.5 71.51-29.4 72.11-28.4L65.21-35.3L85.31-55.4L105.31-35.4L105.31-35.3L98.21-28.2C98.91-29.2 99.31-30.4 99.31-31.7C99.31-35 96.71-37.6 93.41-37.6ZM31.81-37.6C28.51-37.6 25.91-35 25.91-31.7C25.91-30.5 26.31-29.4 26.91-28.5L20.01-35.4L20.01-35.5L40.01-55.5L60.01-35.4L53.01-28.4C53.61-29.3 54.01-30.5 54.01-31.7C54.01-35 51.41-37.6 48.11-37.6C44.81-37.6 42.21-35 42.21-31.7C42.21-30.5 42.51-29.4 43.11-28.5C42.21-29.1 41.11-29.4 39.91-29.4C38.71-29.4 37.61-29.1 36.71-28.5C37.31-29.4 37.61-30.5 37.61-31.7C37.71-35 35.01-37.6 31.81-37.6ZM70.81-15C69.51-15 68.41-14.6 67.41-13.9C68.11-14.9 68.51-16.1 68.51-17.4C68.51-20.7 65.91-23.3 62.61-23.3C59.31-23.3 56.71-20.7 56.71-17.4C56.71-16.1 57.11-14.9 57.81-13.9C56.81-14.6 55.71-15 54.41-15C51.11-15 48.51-12.4 48.51-9.1C48.51-7.9 48.91-6.8 49.51-5.9L42.61-12.8L62.61-32.8L82.71-12.7L75.61-5.6C76.31-6.6 76.71-7.8 76.71-9.1C76.71-12.3 74.01-15 70.81-15ZM62.71-78.1L82.71-58.1L75.61-51C76.31-52 76.61-53.1 76.61-54.4C76.61-57.7 74.01-60.3 70.71-60.3C69.41-60.3 68.31-59.9 67.31-59.2C68.01-60.2 68.41-61.4 68.41-62.7C68.41-66 65.81-68.6 62.51-68.6C59.21-68.6 56.61-66 56.61-62.7C56.61-61.4 57.01-60.2 57.71-59.2C56.71-59.9 55.61-60.3 54.31-60.3C51.01-60.3 48.41-57.7 48.41-54.4C48.41-53.2 48.81-52 49.41-51L42.41-58L62.41-78L62.71-78ZM87.91-12.7L105.31-30.1L105.31 4.7L87.91-12.7ZM39.91-60.7L22.51-78.1L57.31-78.1L39.91-60.7ZM39.91-10.1L57.31 7.3L22.61 7.3L39.91-10.1ZM105.31-40.7L87.91-58.1L105.31-75.5L105.31-40.7ZM19.91-30.1L37.31-12.7L19.91 4.7L19.91-30.1ZM85.31-60.7L67.91-78.1L102.61-78.1L85.31-60.7ZM37.31-58L19.91-40.7L19.91-75.4L37.31-58ZM85.31-10L102.61 7.3L67.91 7.3L85.31-10ZM65.81-5.9C64.91-6.5 63.81-6.8 62.61-6.8C61.41-6.8 60.31-6.5 59.41-5.9C60.01-6.8 60.31-7.9 60.31-9.1C60.31-10.4 59.91-11.6 59.21-12.6C60.21-11.9 61.31-11.5 62.61-11.5C63.91-11.5 65.01-11.9 66.01-12.6C65.31-11.6 64.91-10.4 64.91-9.1C64.81-7.9 65.21-6.8 65.81-5.9ZM62.61-56.8C63.91-56.8 65.01-57.2 66.01-57.9C65.31-56.9 64.91-55.7 64.91-54.4C64.91-53.2 65.21-52.1 65.81-51.2C64.91-51.8 63.81-52.1 62.61-52.1C61.41-52.1 60.31-51.8 59.41-51.2C60.01-52.1 60.31-53.2 60.31-54.4C60.31-55.7 59.91-56.9 59.21-57.9C60.21-57.2 61.31-56.8 62.61-56.8ZM90.21-26.7C91.11-26.1 92.21-25.8 93.41-25.8C94.71-25.8 95.91-26.2 96.91-26.9L90.01-20.1C90.71-21.1 91.11-22.3 91.11-23.6C91.21-24.7 90.81-25.8 90.21-26.7ZM67.61-4.1C68.51-3.5 69.61-3.2 70.81-3.2C72.11-3.2 73.31-3.6 74.31-4.3L67.41 2.6C68.11 1.6 68.51 0.4 68.51-0.9C68.51-2.1 68.21-3.1 67.61-4.1ZM54.41-48.5C55.61-48.5 56.71-48.8 57.61-49.4C57.01-48.5 56.71-47.4 56.71-46.2C56.71-44.9 57.11-43.8 57.81-42.8L51.11-49.5C52.01-48.9 53.21-48.5 54.41-48.5ZM67.61-49.4C68.51-48.8 69.61-48.5 70.81-48.5C72.01-48.5 73.21-48.9 74.21-49.6L67.51-42.9C68.21-43.9 68.61-45 68.61-46.3C68.51-47.4 68.21-48.5 67.61-49.4ZM44.91-26.7C45.81-26.1 46.91-25.8 48.11-25.8C49.31-25.8 50.41-26.2 51.41-26.8L44.91-20.3C45.51-21.2 45.91-22.4 45.91-23.6C45.91-24.7 45.51-25.8 44.91-26.7ZM77.11-25.8C78.31-25.8 79.41-26.1 80.31-26.7C79.71-25.8 79.41-24.7 79.41-23.5C79.41-22.3 79.81-21.2 80.41-20.2L73.91-26.7C74.81-26.1 75.91-25.8 77.11-25.8ZM31.81-25.8C33.01-25.8 34.11-26.1 35.01-26.7C34.41-25.8 34.11-24.7 34.11-23.5C34.11-22.3 34.51-21.2 35.11-20.3L28.71-26.7C29.51-26.1 30.61-25.8 31.81-25.8ZM54.41-3.1C55.61-3.1 56.71-3.4 57.61-4C57.01-3.1 56.71-2 56.71-0.8C56.71 0.4 57.11 1.5 57.71 2.4L51.31-4C52.11-3.5 53.21-3.1 54.41-3.1ZM60.71-46.2C60.71-47.2 61.51-48.1 62.61-48.1C63.61-48.1 64.51-47.3 64.51-46.2C64.51-45.2 63.71-44.3 62.61-44.3C61.61-44.4 60.71-45.2 60.71-46.2ZM68.91-54.4C68.91-55.4 69.71-56.3 70.81-56.3C71.81-56.3 72.71-55.5 72.71-54.4C72.71-53.4 71.91-52.5 70.81-52.5C69.71-52.5 68.91-53.4 68.91-54.4ZM64.51-0.9C64.51 0.1 63.71 1 62.61 1C61.61 1 60.71 0.2 60.71-0.9C60.71-1.9 61.51-2.8 62.61-2.8C63.61-2.7 64.51-1.9 64.51-0.9ZM68.91-9C68.91-10 69.71-10.9 70.81-10.9C71.81-10.9 72.71-10.1 72.71-9C72.71-8 71.91-7.1 70.81-7.1C69.71-7.2 68.91-8 68.91-9ZM52.61-54.4C52.61-55.4 53.41-56.3 54.51-56.3C55.61-56.3 56.41-55.5 56.41-54.4C56.41-53.4 55.61-52.5 54.51-52.5C53.41-52.5 52.61-53.4 52.61-54.4ZM41.81-23.5C41.81-22.5 41.01-21.6 39.91-21.6C38.91-21.6 38.01-22.4 38.01-23.5C38.01-24.5 38.81-25.4 39.91-25.4C41.01-25.4 41.81-24.6 41.81-23.5ZM91.61-31.7C91.61-32.7 92.41-33.6 93.51-33.6C94.51-33.6 95.41-32.8 95.41-31.7C95.41-30.7 94.61-29.8 93.51-29.8C92.41-29.8 91.61-30.7 91.61-31.7ZM52.61-9C52.61-10 53.41-10.9 54.51-10.9C55.51-10.9 56.41-10.1 56.41-9C56.41-8 55.61-7.1 54.51-7.1C53.41-7.2 52.61-8 52.61-9ZM29.91-31.7C29.91-32.7 30.71-33.6 31.81-33.6C32.81-33.6 33.71-32.8 33.71-31.7C33.71-30.7 32.91-29.8 31.81-29.8C30.71-29.8 29.91-30.7 29.91-31.7ZM46.21-31.7C46.21-32.7 47.01-33.6 48.11-33.6C49.11-33.6 50.01-32.8 50.01-31.7C50.01-30.7 49.21-29.8 48.11-29.8C47.11-29.8 46.21-30.7 46.21-31.7ZM60.71-62.7C60.71-63.7 61.51-64.6 62.61-64.6C63.61-64.6 64.51-63.8 64.51-62.7C64.51-61.7 63.71-60.8 62.61-60.8C61.61-60.8 60.71-61.7 60.71-62.7ZM75.21-31.7C75.21-32.7 76.01-33.6 77.11-33.6C78.11-33.6 79.01-32.8 79.01-31.7C79.01-30.7 78.21-29.8 77.11-29.8C76.11-29.8 75.21-30.7 75.21-31.7ZM60.71-17.4C60.71-18.4 61.51-19.3 62.61-19.3C63.61-19.3 64.51-18.5 64.51-17.4C64.51-16.4 63.71-15.5 62.61-15.5C61.61-15.5 60.71-16.3 60.71-17.4ZM83.41-23.5C83.41-24.5 84.21-25.4 85.31-25.4C86.31-25.4 87.21-24.6 87.21-23.5C87.21-22.4 86.41-21.6 85.31-21.6C84.21-21.7 83.41-22.5 83.41-23.5ZM62.61-40.3C63.91-40.3 65.01-40.7 66.01-41.4L62.61-38L59.21-41.4C60.21-40.7 61.31-40.3 62.61-40.3ZM82.01-18.6C82.91-18 84.11-17.6 85.31-17.6C86.61-17.6 87.81-18 88.81-18.7L85.41-15.3L82.01-18.6ZM39.91-17.6C41.11-17.6 42.21-18 43.21-18.6L39.91-15.3L36.71-18.5C37.61-18 38.71-17.6 39.91-17.6ZM62.61 7.3L59.41 4.1C60.31 4.7 61.41 5.1 62.61 5.1C63.91 5.1 65.11 4.7 66.11 4L62.71 7.4L62.61 7.4Z"/>
  </g>
  <g id="Regular-S" transform="matrix(1 0 0 1 1390.19 696)">
   <path class="monochrome-0 SFSymbolsPreview000000" d="M102.2-80.5L17.1-80.5C15.6-80.5 14.4-79.3 14.4-77.8L14.4 7.2C14.4 8.7 15.6 9.9 17.1 9.9L102.2 9.9C103.7 9.9 104.9 8.7 104.9 7.2L104.9-77.9C104.9-79.3 103.7-80.5 102.2-80.5ZM88.7-37.4C85.6-37.4 83.1-34.9 83.1-31.8C83.1-30.7 83.4-29.7 84-28.8C83.1-29.4 82.1-29.7 81-29.7C79.9-29.7 78.9-29.4 78-28.8C78.6-29.7 78.9-30.7 78.9-31.8C78.9-34.9 76.4-37.4 73.3-37.4C70.2-37.4 67.7-34.9 67.7-31.8C67.7-30.7 68-29.6 68.6-28.7L62.1-35.2L81-54.2L99.8-35.4L99.8-35.3L93.1-28.6C93.8-29.5 94.2-30.7 94.2-31.9C94.2-34.9 91.7-37.4 88.7-37.4ZM30.6-37.4C27.5-37.4 25-34.9 25-31.8C25-30.7 25.3-29.6 25.9-28.8L19.4-35.3L19.4-35.4L38.2-54.2L57.1-35.3L50.6-28.8C51.2-29.7 51.5-30.7 51.5-31.9C51.5-35 49-37.5 45.9-37.5C42.8-37.5 40.3-35 40.3-31.9C40.3-30.8 40.6-29.8 41.2-28.9C40.3-29.5 39.3-29.8 38.2-29.8C37.1-29.8 36.1-29.5 35.2-28.9C35.8-29.8 36.1-30.8 36.1-31.9C36.2-34.9 33.7-37.4 30.6-37.4ZM67.3-16.1C66.1-16.1 65-15.7 64.1-15.1C64.8-16 65.2-17.1 65.2-18.4C65.2-21.5 62.7-24 59.6-24C56.5-24 54-21.5 54-18.4C54-17.2 54.4-16.1 55.1-15.1C54.2-15.7 53.1-16.1 51.9-16.1C48.8-16.1 46.3-13.6 46.3-10.5C46.3-9.4 46.6-8.3 47.2-7.5L40.7-14L59.6-32.9L78.5-14L71.8-7.3C72.5-8.2 72.9-9.4 72.9-10.6C72.9-13.6 70.4-16.1 67.3-16.1ZM59.7-75.5L78.5-56.7L71.9-50C72.5-50.9 72.9-52 72.9-53.2C72.9-56.3 70.4-58.8 67.3-58.8C66.1-58.8 65-58.4 64.1-57.8C64.8-58.7 65.2-59.8 65.2-61.1C65.2-64.2 62.7-66.7 59.6-66.7C56.5-66.7 54-64.2 54-61.1C54-59.9 54.4-58.8 55.1-57.8C54.2-58.4 53.1-58.8 51.9-58.8C48.8-58.8 46.3-56.3 46.3-53.2C46.3-52 46.7-50.9 47.3-50L40.7-56.6L59.6-75.5L59.7-75.5ZM83.5-13.9L99.9-30.3L99.9 2.5L83.5-13.9ZM38.3-59.1L21.9-75.5L54.7-75.5L38.3-59.1ZM38.3-11.5L54.7 4.9L21.9 4.9L38.3-11.5ZM99.9-40.3L83.5-56.7L99.9-73L99.9-40.3ZM19.5-30.3L35.9-13.9L19.5 2.4L19.5-30.3ZM81-59.1L64.7-75.5L97.4-75.5L81-59.1ZM35.8-56.6L19.5-40.3L19.5-73L35.8-56.6ZM81-11.4L97.3 4.9L64.7 4.9L81-11.4ZM62.6-7.5C61.7-8.1 60.7-8.4 59.6-8.4C58.5-8.4 57.5-8.1 56.6-7.5C57.2-8.4 57.5-9.4 57.5-10.5C57.5-11.7 57.1-12.8 56.4-13.8C57.3-13.2 58.4-12.8 59.6-12.8C60.8-12.8 61.9-13.2 62.8-13.8C62.1-12.9 61.7-11.8 61.7-10.5C61.7-9.4 62.1-8.4 62.6-7.5ZM59.6-55.4C60.8-55.4 61.9-55.8 62.8-56.4C62.1-55.5 61.7-54.4 61.7-53.1C61.7-52 62-51 62.6-50.1C61.7-50.7 60.7-51 59.6-51C58.5-51 57.5-50.7 56.6-50.1C57.2-51 57.5-52 57.5-53.1C57.5-54.3 57.1-55.4 56.4-56.4C57.4-55.8 58.4-55.4 59.6-55.4ZM85.7-27.1C86.6-26.5 87.6-26.2 88.7-26.2C89.9-26.2 91.1-26.6 92-27.3L85.5-20.8C86.2-21.7 86.6-22.9 86.6-24.1C86.5-25.2 86.2-26.3 85.7-27.1ZM64.3-5.8C65.2-5.2 66.2-4.9 67.3-4.9C68.5-4.9 69.7-5.3 70.6-6L64.1 0.5C64.8-0.4 65.2-1.6 65.2-2.8C65.2-3.9 64.9-4.9 64.3-5.8ZM51.9-47.6C53-47.6 54-47.9 54.9-48.5C54.3-47.6 54-46.6 54-45.5C54-44.3 54.4-43.2 55-42.3L48.7-48.6C49.7-48 50.8-47.6 51.9-47.6ZM64.3-48.5C65.2-47.9 66.2-47.6 67.3-47.6C68.5-47.6 69.6-48 70.5-48.6L64.2-42.3C64.8-43.2 65.2-44.3 65.2-45.5C65.2-46.6 64.9-47.6 64.3-48.5ZM43-27.1C43.9-26.5 44.9-26.2 46-26.2C47.1-26.2 48.2-26.5 49.1-27.1L43-21C43.6-21.9 43.9-22.9 43.9-24.1C43.9-25.2 43.5-26.3 43-27.1ZM73.3-26.2C74.4-26.2 75.4-26.5 76.3-27.1C75.7-26.2 75.4-25.2 75.4-24.1C75.4-23 75.7-21.9 76.3-21L70.2-27.1C71.1-26.6 72.1-26.2 73.3-26.2ZM30.6-26.2C31.7-26.2 32.7-26.5 33.6-27.1C33-26.2 32.7-25.2 32.7-24.1C32.7-23 33-21.9 33.6-21.1L27.5-27.2C28.4-26.6 29.5-26.2 30.6-26.2ZM51.9-4.9C53-4.9 54-5.2 54.9-5.8C54.3-4.9 54-3.9 54-2.8C54-1.7 54.3-0.6 54.9 0.2L48.8-5.9C49.8-5.2 50.8-4.9 51.9-4.9ZM57.9-45.5C57.9-46.5 58.7-47.3 59.7-47.3C60.7-47.3 61.5-46.5 61.5-45.5C61.5-44.5 60.7-43.7 59.7-43.7C58.7-43.7 57.9-44.5 57.9-45.5ZM65.6-53.2C65.6-54.2 66.4-55 67.4-55C68.4-55 69.2-54.2 69.2-53.2C69.2-52.2 68.4-51.4 67.4-51.4C66.4-51.4 65.6-52.2 65.6-53.2ZM61.4-2.8C61.4-1.8 60.6-1 59.6-1C58.6-1 57.8-1.8 57.8-2.8C57.8-3.8 58.6-4.6 59.6-4.6C60.6-4.6 61.4-3.8 61.4-2.8ZM65.6-10.5C65.6-11.5 66.4-12.3 67.4-12.3C68.4-12.3 69.2-11.5 69.2-10.5C69.2-9.5 68.4-8.7 67.4-8.7C66.4-8.7 65.6-9.5 65.6-10.5ZM50.2-53.2C50.2-54.2 51-55 52-55C53-55 53.8-54.2 53.8-53.2C53.8-52.2 53-51.4 52-51.4C51-51.4 50.2-52.2 50.2-53.2ZM40.1-24.1C40.1-23.1 39.3-22.3 38.3-22.3C37.3-22.3 36.5-23.1 36.5-24.1C36.5-25.1 37.3-25.9 38.3-25.9C39.3-25.9 40.1-25.1 40.1-24.1ZM86.9-31.8C86.9-32.8 87.7-33.6 88.7-33.6C89.7-33.6 90.5-32.8 90.5-31.8C90.5-30.8 89.7-30 88.7-30C87.7-30 86.9-30.8 86.9-31.8ZM50.2-10.5C50.2-11.5 51-12.3 52-12.3C53-12.3 53.8-11.5 53.8-10.5C53.8-9.5 53-8.7 52-8.7C51-8.7 50.2-9.5 50.2-10.5ZM28.9-31.8C28.9-32.8 29.7-33.6 30.7-33.6C31.7-33.6 32.5-32.8 32.5-31.8C32.5-30.8 31.7-30 30.7-30C29.6-30.1 28.9-30.8 28.9-31.8ZM44.2-31.8C44.2-32.8 45-33.6 46-33.6C47-33.6 47.8-32.8 47.8-31.8C47.8-30.8 47-30 46-30C45-30.1 44.2-30.8 44.2-31.8ZM57.9-61C57.9-62 58.7-62.8 59.7-62.8C60.7-62.8 61.5-62 61.5-61C61.5-60 60.7-59.2 59.7-59.2C58.7-59.3 57.9-60 57.9-61ZM71.5-31.8C71.5-32.8 72.3-33.6 73.3-33.6C74.3-33.6 75.1-32.8 75.1-31.8C75.1-30.8 74.3-30 73.3-30C72.3-30.1 71.5-30.8 71.5-31.8ZM57.9-18.3C57.9-19.3 58.7-20.1 59.7-20.1C60.7-20.1 61.5-19.3 61.5-18.3C61.5-17.3 60.7-16.5 59.7-16.5C58.7-16.6 57.9-17.4 57.9-18.3ZM79.2-24.1C79.2-25.1 80-25.9 81-25.9C82-25.9 82.8-25.1 82.8-24.1C82.8-23.1 82-22.3 81-22.3C80-22.4 79.2-23.2 79.2-24.1ZM59.6-39.9C60.8-39.9 61.9-40.3 62.8-40.9L59.6-37.7L56.4-40.9C57.4-40.3 58.5-39.9 59.6-39.9ZM77.9-19.5C78.8-18.9 79.8-18.6 81-18.6C82.2-18.6 83.4-19 84.3-19.7L81-16.4L77.9-19.5ZM38.3-18.6C39.4-18.6 40.5-18.9 41.4-19.5L38.3-16.4L35.3-19.4C36.1-18.9 37.2-18.6 38.3-18.6ZM59.6 4.9L56.6 1.9C57.5 2.5 58.5 2.8 59.6 2.8C60.8 2.8 62 2.4 62.9 1.7L59.7 4.9L59.6 4.9Z"/>
  </g>
  <g id="Ultralight-S" transform="matrix(1 0 0 1 504.811 696)">
   <path class="monochrome-0 SFSymbolsPreview000000" d="M94.004-76.9L16.004-76.9C14.704-76.9 13.604-75.8 13.604-74.5L13.604 3.5C13.604 4.8 14.704 5.9 16.004 5.9L94.004 5.9C95.304 5.9 96.404 4.8 96.404 3.5L96.404-74.5C96.404-75.8 95.304-76.9 94.004-76.9ZM81.504-37.4C78.704-37.4 76.404-35.1 76.404-32.3C76.404-31.3 76.704-30.3 77.204-29.6C76.404-30.1 75.504-30.4 74.504-30.4C73.504-30.4 72.504-30.1 71.804-29.6C72.304-30.4 72.604-31.3 72.604-32.3C72.604-35.1 70.304-37.4 67.504-37.4C64.704-37.4 62.404-35.1 62.404-32.3C62.404-31.3 62.704-30.3 63.204-29.5L57.204-35.5L74.504-52.8L91.804-35.5L91.804-35.4L85.604-29.2C86.204-30 86.604-31.1 86.604-32.2C86.604-35.1 84.404-37.4 81.504-37.4ZM28.304-37.4C25.504-37.4 23.204-35.1 23.204-32.3C23.204-31.3 23.504-30.3 24.004-29.5L18.104-35.4L18.104-35.5L35.304-52.7L52.604-35.4L46.604-29.4C47.104-30.2 47.404-31.2 47.404-32.2C47.404-35 45.104-37.3 42.304-37.3C39.504-37.3 37.204-35 37.204-32.2C37.204-31.2 37.504-30.2 38.004-29.5C37.204-30 36.304-30.3 35.304-30.3C34.304-30.3 33.304-30 32.604-29.5C33.104-30.3 33.404-31.2 33.404-32.2C33.404-35.1 31.204-37.4 28.304-37.4ZM62.004-17.9C60.904-17.9 59.904-17.6 59.104-17C59.704-17.8 60.104-18.9 60.104-20C60.104-22.8 57.804-25.1 55.004-25.1C52.204-25.1 49.904-22.8 49.904-20C49.904-18.9 50.304-17.9 50.904-17C50.104-17.6 49.104-17.9 48.004-17.9C45.204-17.9 42.904-15.6 42.904-12.8C42.904-11.8 43.204-10.8 43.704-10L37.704-16L55.004-33.3L72.304-16L66.204-9.9C66.804-10.7 67.204-11.8 67.204-12.9C67.104-15.6 64.804-17.9 62.004-17.9ZM55.004-72.4L72.304-55.1L66.204-49C66.804-49.8 67.104-50.8 67.104-51.9C67.104-54.7 64.804-57 62.004-57C60.904-57 59.904-56.7 59.104-56.1C59.704-56.9 60.104-58 60.104-59.1C60.104-61.9 57.804-64.2 55.004-64.2C52.204-64.2 49.904-61.9 49.904-59.1C49.904-58 50.304-57 50.904-56.1C50.004-56.7 49.004-57 47.904-57C45.104-57 42.804-54.7 42.804-51.9C42.804-50.8 43.104-49.8 43.704-49L37.604-55.1L55.004-72.4L55.004-72.4ZM76.804-15.9L91.804-30.9L91.804-0.8L76.804-15.9ZM35.404-57.3L20.404-72.3L50.504-72.3L35.404-57.3ZM35.404-13.7L50.404 1.3L20.404 1.3L35.404-13.7ZM91.804-40.1L76.804-55.1L91.804-70.1L91.804-40.1ZM18.104-30.9L33.104-15.9L18.104-0.9L18.104-30.9ZM74.604-57.4L59.604-72.4L89.604-72.4L74.604-57.4ZM33.104-55.1L18.104-40.1L18.104-70L33.104-55.1ZM74.504-13.6L89.504 1.4L59.604 1.4L74.504-13.6ZM57.704-10C56.904-10.5 56.004-10.8 55.004-10.8C54.004-10.8 53.004-10.5 52.304-10C52.804-10.8 53.104-11.7 53.104-12.7C53.104-13.8 52.704-14.8 52.104-15.7C52.904-15.1 53.904-14.8 55.004-14.8C56.104-14.8 57.104-15.1 57.904-15.7C57.304-14.9 56.904-13.8 56.904-12.7C56.904-11.8 57.204-10.8 57.704-10ZM54.904-54C56.004-54 57.004-54.3 57.804-54.9C57.204-54.1 56.804-53 56.804-51.9C56.804-50.9 57.104-49.9 57.604-49.2C56.904-49.7 56.004-50 54.904-50C53.904-50 52.904-49.7 52.204-49.2C52.704-50 53.004-50.9 53.004-51.9C53.004-53 52.604-54 52.004-54.9C52.904-54.3 53.904-54 54.904-54ZM78.804-28C79.604-27.5 80.504-27.2 81.504-27.2C82.604-27.2 83.704-27.6 84.504-28.2L78.604-22.3C79.204-23.1 79.604-24.2 79.604-25.3C79.604-26.3 79.304-27.2 78.804-28ZM59.204-8.5C60.004-8 61.004-7.7 62.004-7.7C63.104-7.7 64.204-8.1 65.004-8.7L59.104-2.8C59.704-3.6 60.104-4.7 60.104-5.8C60.004-6.7 59.704-7.7 59.204-8.5ZM47.904-46.8C48.904-46.8 49.904-47.1 50.604-47.6C50.104-46.8 49.804-45.9 49.804-44.9C49.804-43.8 50.104-42.8 50.704-42L45.004-47.7C45.804-47.1 46.804-46.8 47.904-46.8ZM59.204-47.6C60.004-47.1 60.904-46.8 61.904-46.8C63.004-46.8 64.004-47.1 64.804-47.7L59.104-42C59.704-42.8 60.004-43.8 60.004-44.9C60.004-45.9 59.704-46.8 59.204-47.6ZM39.704-28C40.504-27.5 41.404-27.2 42.404-27.2C43.404-27.2 44.404-27.5 45.204-28L39.604-22.4C40.104-23.2 40.404-24.2 40.404-25.2C40.504-26.3 40.204-27.2 39.704-28ZM67.404-27.2C68.404-27.2 69.404-27.5 70.104-28C69.604-27.2 69.304-26.3 69.304-25.3C69.304-24.3 69.604-23.3 70.104-22.5L64.504-28.1C65.404-27.5 66.404-27.2 67.404-27.2ZM28.304-27.2C29.304-27.2 30.304-27.5 31.004-28C30.504-27.2 30.204-26.3 30.204-25.3C30.204-24.3 30.504-23.3 31.004-22.5L25.504-28C26.404-27.5 27.304-27.2 28.304-27.2ZM47.904-7.7C48.904-7.7 49.904-8 50.604-8.5C50.104-7.7 49.804-6.8 49.804-5.8C49.804-4.8 50.104-3.8 50.604-3L45.004-8.6C45.904-8 46.904-7.7 47.904-7.7ZM53.304-44.9C53.304-45.8 54.004-46.5 54.904-46.5C55.804-46.5 56.504-45.8 56.504-44.9C56.504-44 55.804-43.3 54.904-43.3C54.104-43.2 53.304-44 53.304-44.9ZM60.404-51.9C60.404-52.8 61.104-53.5 62.004-53.5C62.904-53.5 63.604-52.8 63.604-51.9C63.604-51 62.904-50.3 62.004-50.3C61.104-50.3 60.404-51 60.404-51.9ZM56.504-5.7C56.504-4.8 55.804-4.1 54.904-4.1C54.004-4.1 53.304-4.8 53.304-5.7C53.304-6.6 54.004-7.3 54.904-7.3C55.804-7.3 56.504-6.6 56.504-5.7ZM60.404-12.8C60.404-13.7 61.104-14.4 62.004-14.4C62.904-14.4 63.604-13.7 63.604-12.8C63.604-11.9 62.904-11.2 62.004-11.2C61.104-11.2 60.404-11.9 60.404-12.8ZM46.304-51.9C46.304-52.8 47.004-53.5 47.904-53.5C48.804-53.5 49.504-52.8 49.504-51.9C49.504-51 48.804-50.3 47.904-50.3C47.004-50.3 46.304-51 46.304-51.9ZM37.004-25.3C37.004-24.4 36.304-23.7 35.404-23.7C34.504-23.7 33.804-24.4 33.804-25.3C33.804-26.2 34.504-26.9 35.404-26.9C36.304-26.9 37.004-26.2 37.004-25.3ZM79.904-32.3C79.904-33.2 80.604-33.9 81.504-33.9C82.404-33.9 83.104-33.2 83.104-32.3C83.104-31.4 82.404-30.7 81.504-30.7C80.604-30.7 79.904-31.4 79.904-32.3ZM46.304-12.8C46.304-13.7 47.004-14.4 47.904-14.4C48.804-14.4 49.504-13.7 49.504-12.8C49.504-11.9 48.804-11.2 47.904-11.2C47.004-11.2 46.304-11.9 46.304-12.8ZM26.704-32.3C26.704-33.2 27.404-33.9 28.304-33.9C29.204-33.9 29.904-33.2 29.904-32.3C29.904-31.4 29.204-30.7 28.304-30.7C27.404-30.7 26.704-31.4 26.704-32.3ZM40.804-32.3C40.804-33.2 41.504-33.9 42.404-33.9C43.304-33.9 44.004-33.2 44.004-32.3C44.004-31.4 43.304-30.7 42.404-30.7C41.504-30.7 40.804-31.4 40.804-32.3ZM53.304-59.1C53.304-60 54.004-60.7 54.904-60.7C55.804-60.7 56.504-60 56.504-59.1C56.504-58.2 55.804-57.5 54.904-57.5C54.104-57.5 53.304-58.2 53.304-59.1ZM65.804-32.3C65.804-33.2 66.504-33.9 67.404-33.9C68.304-33.9 69.004-33.2 69.004-32.3C69.004-31.4 68.304-30.7 67.404-30.7C66.604-30.7 65.804-31.4 65.804-32.3ZM53.304-20C53.304-20.9 54.004-21.6 54.904-21.6C55.804-21.6 56.504-20.9 56.504-20C56.504-19.1 55.804-18.4 54.904-18.4C54.104-18.3 53.304-19.1 53.304-20ZM72.904-25.3C72.904-26.2 73.604-26.9 74.504-26.9C75.404-26.9 76.104-26.2 76.104-25.3C76.104-24.4 75.404-23.7 74.504-23.7C73.604-23.7 72.904-24.4 72.904-25.3ZM54.904-39.7C56.004-39.7 57.004-40 57.804-40.6L54.904-37.7L52.004-40.7C52.904-40.1 53.904-39.7 54.904-39.7ZM71.704-21C72.504-20.5 73.504-20.2 74.504-20.2C75.604-20.2 76.704-20.6 77.504-21.2L74.504-18.2L71.704-21ZM35.404-20.2C36.404-20.2 37.404-20.5 38.204-21L35.404-18.2L32.604-21C33.404-20.5 34.404-20.2 35.404-20.2ZM54.904 1.3L52.104-1.5C52.904-1 53.904-0.7 54.904-0.7C56.004-0.7 57.104-1.1 57.904-1.7L54.904 1.3L54.904 1.3Z"/>
  </g>
 </g>
</svg>
