<?xml version="1.0" encoding="UTF-8"?>
<!--Generator: Apple Native CoreSVG 175.5-->
<!DOCTYPE svg
PUBLIC "-//W3C//DTD SVG 1.1//EN"
       "http://www.w3.org/Graphics/SVG/1.1/DTD/svg11.dtd">
<svg version="1.1" xmlns="http://www.w3.org/2000/svg" xmlns:xlink="http://www.w3.org/1999/xlink" width="3300" height="2200">
 <!--glyph: "", point size: 100.0, font version: "18.0d12e2", template writer version: "101"-->
 <g id="Notes">
  <rect height="2200" id="artboard" style="fill:white;opacity:1" width="3300" x="0" y="0"/>
  <line style="fill:none;stroke:black;opacity:1;stroke-width:0.5;" x1="263" x2="3036" y1="292" y2="292"/>
  <text style="stroke:none;fill:black;font-family:sans-serif;font-size:13;font-weight:bold;" transform="matrix(1 0 0 1 263 322)">Weight/Scale Variations</text>
  <text style="stroke:none;fill:black;font-family:sans-serif;font-size:13;text-anchor:middle;" transform="matrix(1 0 0 1 559.711 322)">Ultralight</text>
  <text style="stroke:none;fill:black;font-family:sans-serif;font-size:13;text-anchor:middle;" transform="matrix(1 0 0 1 856.422 322)">Thin</text>
  <text style="stroke:none;fill:black;font-family:sans-serif;font-size:13;text-anchor:middle;" transform="matrix(1 0 0 1 1153.13 322)">Light</text>
  <text style="stroke:none;fill:black;font-family:sans-serif;font-size:13;text-anchor:middle;" transform="matrix(1 0 0 1 1449.84 322)">Regular</text>
  <text style="stroke:none;fill:black;font-family:sans-serif;font-size:13;text-anchor:middle;" transform="matrix(1 0 0 1 1746.56 322)">Medium</text>
  <text style="stroke:none;fill:black;font-family:sans-serif;font-size:13;text-anchor:middle;" transform="matrix(1 0 0 1 2043.27 322)">Semibold</text>
  <text style="stroke:none;fill:black;font-family:sans-serif;font-size:13;text-anchor:middle;" transform="matrix(1 0 0 1 2339.98 322)">Bold</text>
  <text style="stroke:none;fill:black;font-family:sans-serif;font-size:13;text-anchor:middle;" transform="matrix(1 0 0 1 2636.69 322)">Heavy</text>
  <text style="stroke:none;fill:black;font-family:sans-serif;font-size:13;text-anchor:middle;" transform="matrix(1 0 0 1 2933.4 322)">Black</text>
  <line style="fill:none;stroke:black;opacity:1;stroke-width:0.5;" x1="263" x2="3036" y1="1903" y2="1903"/>
  <g transform="matrix(1 0 0 1 263 1933)">
   <path d="M9.24805 0.830078C13.5547 0.830078 17.1387-2.74414 17.1387-7.05078C17.1387-11.3574 13.5449-14.9316 9.23828-14.9316C4.94141-14.9316 1.36719-11.3574 1.36719-7.05078C1.36719-2.74414 4.95117 0.830078 9.24805 0.830078ZM9.24805-0.654297C5.70312-0.654297 2.87109-3.49609 2.87109-7.05078C2.87109-10.6055 5.69336-13.4473 9.23828-13.4473C12.793-13.4473 15.6445-10.6055 15.6445-7.05078C15.6445-3.49609 12.8027-0.654297 9.24805-0.654297ZM5.6543-7.05078C5.6543-6.62109 5.95703-6.32812 6.40625-6.32812L8.50586-6.32812L8.50586-4.20898C8.50586-3.76953 8.79883-3.4668 9.22852-3.4668C9.67773-3.4668 9.9707-3.76953 9.9707-4.20898L9.9707-6.32812L12.0898-6.32812C12.5293-6.32812 12.832-6.62109 12.832-7.05078C12.832-7.49023 12.5293-7.79297 12.0898-7.79297L9.9707-7.79297L9.9707-9.90234C9.9707-10.3516 9.67773-10.6543 9.22852-10.6543C8.79883-10.6543 8.50586-10.3516 8.50586-9.90234L8.50586-7.79297L6.40625-7.79297C5.95703-7.79297 5.6543-7.49023 5.6543-7.05078Z"/>
  </g>
  <g transform="matrix(1 0 0 1 281.867 1933)">
   <path d="M11.709 2.91016C17.1582 2.91016 21.6699-1.61133 21.6699-7.05078C21.6699-12.5 17.1484-17.0117 11.6992-17.0117C6.25977-17.0117 1.74805-12.5 1.74805-7.05078C1.74805-1.61133 6.26953 2.91016 11.709 2.91016ZM11.709 1.25C7.09961 1.25 3.41797-2.44141 3.41797-7.05078C3.41797-11.6602 7.08984-15.3516 11.6992-15.3516C16.3086-15.3516 20.0098-11.6602 20.0098-7.05078C20.0098-2.44141 16.3184 1.25 11.709 1.25ZM7.17773-7.05078C7.17773-6.57227 7.50977-6.25 8.00781-6.25L10.8789-6.25L10.8789-3.36914C10.8789-2.88086 11.2109-2.53906 11.6895-2.53906C12.1777-2.53906 12.5195-2.87109 12.5195-3.36914L12.5195-6.25L15.4004-6.25C15.8887-6.25 16.2305-6.57227 16.2305-7.05078C16.2305-7.53906 15.8887-7.88086 15.4004-7.88086L12.5195-7.88086L12.5195-10.752C12.5195-11.25 12.1777-11.5918 11.6895-11.5918C11.2109-11.5918 10.8789-11.25 10.8789-10.752L10.8789-7.88086L8.00781-7.88086C7.50977-7.88086 7.17773-7.53906 7.17773-7.05078Z"/>
  </g>
  <g transform="matrix(1 0 0 1 305.646 1933)">
   <path d="M14.9707 5.66406C21.9336 5.66406 27.6953-0.0976562 27.6953-7.05078C27.6953-14.0137 21.9238-19.7754 14.9609-19.7754C8.00781-19.7754 2.25586-14.0137 2.25586-7.05078C2.25586-0.0976562 8.01758 5.66406 14.9707 5.66406ZM14.9707 3.84766C8.93555 3.84766 4.08203-1.01562 4.08203-7.05078C4.08203-13.0957 8.92578-17.9492 14.9609-17.9492C21.0059-17.9492 25.8691-13.0957 25.8691-7.05078C25.8691-1.01562 21.0156 3.84766 14.9707 3.84766ZM9.19922-7.05078C9.19922-6.5332 9.57031-6.17188 10.1172-6.17188L14.0625-6.17188L14.0625-2.2168C14.0625-1.67969 14.4336-1.29883 14.9512-1.29883C15.4883-1.29883 15.8594-1.66992 15.8594-2.2168L15.8594-6.17188L19.8145-6.17188C20.3516-6.17188 20.7324-6.5332 20.7324-7.05078C20.7324-7.59766 20.3613-7.96875 19.8145-7.96875L15.8594-7.96875L15.8594-11.9141C15.8594-12.4609 15.4883-12.8418 14.9512-12.8418C14.4336-12.8418 14.0625-12.4609 14.0625-11.9141L14.0625-7.96875L10.1172-7.96875C9.57031-7.96875 9.19922-7.59766 9.19922-7.05078Z"/>
  </g>
  <text style="stroke:none;fill:black;font-family:sans-serif;font-size:13;font-weight:bold;" transform="matrix(1 0 0 1 263 1953)">Design Variations</text>
  <text style="stroke:none;fill:black;font-family:sans-serif;font-size:13;" transform="matrix(1 0 0 1 263 1971)">Symbols are supported in up to nine weights and three scales.</text>
  <text style="stroke:none;fill:black;font-family:sans-serif;font-size:13;" transform="matrix(1 0 0 1 263 1989)">For optimal layout with text and other symbols, vertically align</text>
  <text style="stroke:none;fill:black;font-family:sans-serif;font-size:13;" transform="matrix(1 0 0 1 263 2007)">symbols with the adjacent text.</text>
  <line style="fill:none;stroke:#00AEEF;stroke-width:0.5;opacity:1.0;" x1="776" x2="776" y1="1919" y2="1933"/>
  <g transform="matrix(1 0 0 1 776 1933)">
   <path d="M3.31055 0.15625C3.82812 0.15625 4.08203-0.0390625 4.26758-0.585938L5.52734-4.0332L11.2891-4.0332L12.5488-0.585938C12.7344-0.0390625 12.9883 0.15625 13.4961 0.15625C14.0137 0.15625 14.3457-0.15625 14.3457-0.644531C14.3457-0.810547 14.3164-0.966797 14.2383-1.17188L9.6582-13.3691C9.43359-13.9648 9.0332-14.2676 8.4082-14.2676C7.80273-14.2676 7.39258-13.9746 7.17773-13.3789L2.59766-1.16211C2.51953-0.957031 2.49023-0.800781 2.49023-0.634766C2.49023-0.146484 2.80273 0.15625 3.31055 0.15625ZM6.00586-5.51758L8.37891-12.0898L8.42773-12.0898L10.8008-5.51758Z"/>
  </g>
  <line style="fill:none;stroke:#00AEEF;stroke-width:0.5;opacity:1.0;" x1="793.197" x2="793.197" y1="1919" y2="1933"/>
  <text style="stroke:none;fill:black;font-family:sans-serif;font-size:13;font-weight:bold;" transform="matrix(1 0 0 1 776 1953)">Margins</text>
  <text style="stroke:none;fill:black;font-family:sans-serif;font-size:13;" transform="matrix(1 0 0 1 776 1971)">Leading and trailing margins on the left and right side of each symbol</text>
  <text style="stroke:none;fill:black;font-family:sans-serif;font-size:13;" transform="matrix(1 0 0 1 776 1989)">can be adjusted by modifying the x-location of the margin guidelines.</text>
  <text style="stroke:none;fill:black;font-family:sans-serif;font-size:13;" transform="matrix(1 0 0 1 776 2007)">Modifications are automatically applied proportionally to all</text>
  <text style="stroke:none;fill:black;font-family:sans-serif;font-size:13;" transform="matrix(1 0 0 1 776 2025)">scales and weights.</text>
  <g transform="matrix(1 0 0 1 1289 1933)">
   <path d="M2.8418 1.86523L4.54102 3.57422C5.40039 4.44336 6.38672 4.38477 7.31445 3.35938L18.0078-8.42773L17.041-9.4043L6.42578 2.27539C6.07422 2.67578 5.74219 2.77344 5.27344 2.30469L4.10156 1.14258C3.63281 0.683594 3.74023 0.341797 4.14062-0.0195312L15.6152-10.8203L14.6387-11.7871L3.04688-0.898438C2.06055 0.0195312 1.98242 0.996094 2.8418 1.86523ZM9.25781-16.3281C8.83789-15.918 8.80859-15.3418 9.04297-14.9512C9.27734-14.5898 9.73633-14.3555 10.3809-14.5215C11.8457-14.8633 13.3691-14.9219 14.7949-13.9844L14.209-12.5293C13.8672-11.6992 14.043-11.1133 14.5801-10.5664L16.875-8.25195C17.3633-7.76367 17.7734-7.74414 18.3398-7.8418L19.4043-8.03711L20.0684-7.36328L20.0293-6.80664C19.9902-6.30859 20.1172-5.92773 20.6055-5.44922L21.3672-4.70703C21.8457-4.22852 22.4609-4.19922 22.9297-4.66797L25.8398-7.58789C26.3086-8.05664 26.2891-8.65234 25.8105-9.13086L25.0391-9.89258C24.5605-10.3711 24.1895-10.5273 23.7109-10.4883L23.1348-10.4395L22.4902-11.0742L22.7344-12.1973C22.8613-12.7637 22.7051-13.2031 22.1191-13.7891L19.9219-15.9766C16.582-19.2969 12.1484-19.2188 9.25781-16.3281ZM10.752-15.957C13.1836-17.7344 16.4746-17.4316 18.7012-15.2051L21.1328-12.793C21.3672-12.5586 21.4062-12.373 21.3379-12.0312L21.0156-10.5469L22.5195-9.0625L23.5059-9.12109C23.7598-9.13086 23.8379-9.11133 24.0332-8.91602L24.6094-8.33984L22.168-5.89844L21.5918-6.47461C21.3965-6.66992 21.3672-6.74805 21.377-7.01172L21.4453-7.98828L19.9512-9.47266L18.4277-9.21875C18.1055-9.15039 17.959-9.17969 17.7148-9.41406L15.7129-11.416C15.459-11.6504 15.4297-11.8164 15.5859-12.1875L16.4648-14.2773C14.9023-15.7324 12.8711-16.3574 10.8398-15.7617C10.6836-15.7227 10.625-15.8496 10.752-15.957Z"/>
  </g>
  <text style="stroke:none;fill:black;font-family:sans-serif;font-size:13;font-weight:bold;" transform="matrix(1 0 0 1 1289 1953)">Exporting</text>
  <text style="stroke:none;fill:black;font-family:sans-serif;font-size:13;" transform="matrix(1 0 0 1 1289 1971)">Symbols should be outlined when exporting to ensure the</text>
  <text style="stroke:none;fill:black;font-family:sans-serif;font-size:13;" transform="matrix(1 0 0 1 1289 1989)">design is preserved when submitting to Xcode.</text>
  <text id="template-version" style="stroke:none;fill:black;font-family:sans-serif;font-size:13;text-anchor:end;" transform="matrix(1 0 0 1 3036 1933)">Template v.4.0</text>
  <text style="stroke:none;fill:black;font-family:sans-serif;font-size:13;text-anchor:end;" transform="matrix(1 0 0 1 3036 1951)">Requires Xcode 14 or greater</text>
  <text id="descriptive-name" style="stroke:none;fill:black;font-family:sans-serif;font-size:13;text-anchor:end;" transform="matrix(1 0 0 1 3036 1969)">Generated from case.other.fill</text>
  <text style="stroke:none;fill:black;font-family:sans-serif;font-size:13;text-anchor:end;" transform="matrix(1 0 0 1 3036 1987)">Typeset at 100 points</text>
  <text style="stroke:none;fill:black;font-family:sans-serif;font-size:13;" transform="matrix(1 0 0 1 263 726)">Small</text>
  <text style="stroke:none;fill:black;font-family:sans-serif;font-size:13;" transform="matrix(1 0 0 1 263 1156)">Medium</text>
  <text style="stroke:none;fill:black;font-family:sans-serif;font-size:13;" transform="matrix(1 0 0 1 263 1586)">Large</text>
 </g>
 <g id="Guides">
  <g id="H-reference" style="fill:#27AAE1;stroke:none;" transform="matrix(1 0 0 1 339 696)">
   <path d="M0.993654 0L3.63775 0L29.3281-67.1323L30.0303-67.1323L30.0303-70.459L28.1226-70.459ZM11.6885-24.4799L46.9815-24.4799L46.2315-26.7285L12.4385-26.7285ZM55.1196 0L57.7637 0L30.6382-70.459L29.4326-70.459L29.4326-67.1323Z"/>
  </g>
  <line id="Baseline-S" style="fill:none;stroke:#27AAE1;opacity:1;stroke-width:0.5;" x1="263" x2="3036" y1="696" y2="696"/>
  <line id="Capline-S" style="fill:none;stroke:#27AAE1;opacity:1;stroke-width:0.5;" x1="263" x2="3036" y1="625.541" y2="625.541"/>
  <g id="H-reference" style="fill:#27AAE1;stroke:none;" transform="matrix(1 0 0 1 339 1126)">
   <path d="M0.993654 0L3.63775 0L29.3281-67.1323L30.0303-67.1323L30.0303-70.459L28.1226-70.459ZM11.6885-24.4799L46.9815-24.4799L46.2315-26.7285L12.4385-26.7285ZM55.1196 0L57.7637 0L30.6382-70.459L29.4326-70.459L29.4326-67.1323Z"/>
  </g>
  <line id="Baseline-M" style="fill:none;stroke:#27AAE1;opacity:1;stroke-width:0.5;" x1="263" x2="3036" y1="1126" y2="1126"/>
  <line id="Capline-M" style="fill:none;stroke:#27AAE1;opacity:1;stroke-width:0.5;" x1="263" x2="3036" y1="1055.54" y2="1055.54"/>
  <g id="H-reference" style="fill:#27AAE1;stroke:none;" transform="matrix(1 0 0 1 339 1556)">
   <path d="M0.993654 0L3.63775 0L29.3281-67.1323L30.0303-67.1323L30.0303-70.459L28.1226-70.459ZM11.6885-24.4799L46.9815-24.4799L46.2315-26.7285L12.4385-26.7285ZM55.1196 0L57.7637 0L30.6382-70.459L29.4326-70.459L29.4326-67.1323Z"/>
  </g>
  <line id="Baseline-L" style="fill:none;stroke:#27AAE1;opacity:1;stroke-width:0.5;" x1="263" x2="3036" y1="1556" y2="1556"/>
  <line id="Capline-L" style="fill:none;stroke:#27AAE1;opacity:1;stroke-width:0.5;" x1="263" x2="3036" y1="1485.54" y2="1485.54"/>
  <line id="left-margin-Ultralight-S" style="fill:none;stroke:#00AEEF;stroke-width:0.5;opacity:1.0;" x1="511.811" x2="511.811" y1="600.785" y2="720.121"/>
  <line id="right-margin-Ultralight-S" style="fill:none;stroke:#00AEEF;stroke-width:0.5;opacity:1.0;" x1="607.611" x2="607.611" y1="600.785" y2="720.121"/>
  <line id="left-margin-Regular-S" style="fill:none;stroke:#00AEEF;stroke-width:0.5;opacity:1.0;" x1="1398.19" x2="1398.19" y1="600.785" y2="720.121"/>
  <line id="right-margin-Regular-S" style="fill:none;stroke:#00AEEF;stroke-width:0.5;opacity:1.0;" x1="1501.49" x2="1501.49" y1="600.785" y2="720.121"/>
  <line id="left-margin-Black-S" style="fill:none;stroke:#00AEEF;stroke-width:0.5;opacity:1.0;" x1="2878.7" x2="2878.7" y1="600.785" y2="720.121"/>
  <line id="right-margin-Black-S" style="fill:none;stroke:#00AEEF;stroke-width:0.5;opacity:1.0;" x1="2988.1" x2="2988.1" y1="600.785" y2="720.121"/>
 </g>
 <g id="Symbols">
  <g id="Black-S" transform="matrix(1 0 0 1 2878.7 696)">
   <path d="M80.71-72.3L76.91-72.3L76.91-73.3C76.91-74.9 77.01-76.6 77.31-78.2L77.81-81.1C77.91-82 77.41-82.8 76.51-82.9C75.61-83 74.81-82.5 74.71-81.6L74.21-78.7C73.91-76.9 73.81-75.1 73.81-73.3L73.81-72.3L70.01-72.3C69.01-72.3 68.11-71.5 68.11-70.4C68.11-69.3 68.91-68.5 70.01-68.5L70.81-68.5L70.81-65L80.01-65L80.01-68.5L80.81-68.5C81.81-68.5 82.71-69.3 82.71-70.4C82.71-71.5 81.81-72.3 80.71-72.3ZM88.31-37.4L83.31-41.5C82.61-42.1 82.21-42.9 82.11-43.7L79.91-61.4L70.71-61.4L68.51-43.7C68.41-42.8 68.01-42 67.31-41.5L62.31-37.4C60.61-36 59.51-34.2 59.11-32.1L72.61-32.1C76.21-32.1 79.11-29.2 79.11-25.6L79.11 2.6L85.71 2.6C87.01 2.6 88.11 1.6 88.31 0.3L91.91-28.8C92.21-32 90.91-35.3 88.31-37.4ZM38.31-74.9L28.51-74.9L28.51-80.2C28.51-81.8 29.81-83 31.31-83L35.51-83C37.11-83 38.31-81.7 38.31-80.2L38.31-74.9ZM31.81-25.6C31.81-29.2 34.71-32.1 38.31-32.1L47.41-32.1L49.21-50.1C49.41-52 48.61-53.9 47.01-55.1L39.71-60.5C38.91-61.1 38.41-62.1 38.41-63.1L38.41-71.3L28.61-71.3L28.61-63.1C28.61-62.1 28.11-61.1 27.31-60.5L20.01-55.1C18.41-53.9 17.61-52 17.81-50.1L22.81 0C22.91 1.4 24.21 2.5 25.61 2.5L32.01 2.5L32.01-25.6ZM23.71-38.5L22.81-47.2C22.71-47.9 23.31-48.6 24.01-48.6L42.71-48.6C43.41-48.6 44.01-48 43.91-47.2L43.01-38.5C42.91-37.9 42.41-37.4 41.81-37.4L24.91-37.4C24.31-37.3 23.71-37.8 23.71-38.5ZM72.51-28.5L38.31-28.5C36.71-28.5 35.51-27.2 35.51-25.7L35.51-21.8L75.31-21.8L75.31-25.7C75.31-27.2 74.01-28.5 72.51-28.5ZM35.51-17.5L35.51 8.1C35.51 10.7 37.61 12.8 40.21 12.8L70.71 12.8C73.31 12.8 75.41 10.7 75.41 8.1L75.41-17.5L35.51-17.5ZM63.21-10.3C61.01-9.2 59.11-7.3 57.41-4.5C56.91-3.7 56.51-2.8 56.01-1.8C56.31-1.8 56.71-1.7 57.11-1.6C59.91-0.6 60.51 2 58.91 4.3C57.31 6.6 53.61 7.3 51.21 6.1C48.81 5 47.01 1.7 47.71-1C48.51-3.8 50.91-4.8 53.41-3.4C53.71-3.2 53.91-3 54.11-2.8C54.51-3.8 55.01-4.8 55.51-5.6C57.31-8.7 59.51-10.9 62.11-12.2C62.61-12.5 63.31-12.3 63.51-11.7C63.91-11.2 63.71-10.6 63.21-10.3Z"/>
  </g>
  <g id="Regular-S" transform="matrix(1 0 0 1 1398.19 696)">
   <path d="M76.3-70.4L72.7-70.4L72.7-71.4C72.7-72.9 72.8-74.5 73.1-76L73.6-78.8C73.7-79.6 73.2-80.4 72.4-80.5C71.6-80.6 70.8-80.1 70.7-79.3L70-76.5C69.7-74.8 69.6-73.1 69.6-71.4L69.6-70.4L66-70.4C65-70.4 64.2-69.6 64.2-68.6C64.2-67.6 65-66.8 66-66.8L66.8-66.8L66.8-63.5L75.5-63.5L75.5-66.8L76.3-66.8C77.3-66.8 78.1-67.6 78.1-68.6C78-69.6 77.2-70.4 76.3-70.4ZM83.4-37.4L78.7-41.3C78.1-41.8 77.6-42.6 77.5-43.4L75.4-60.1L66.7-60.1L64.6-43.4C64.5-42.6 64.1-41.8 63.4-41.3L58.7-37.4C57.1-36.1 56.1-34.4 55.6-32.4L68.3-32.4C71.7-32.4 74.5-29.6 74.5-26.2L74.5 0.4L80.7 0.4C81.9 0.4 83-0.5 83.1-1.8L86.5-29.3C87.1-32.4 85.9-35.4 83.4-37.4ZM36.2-72.9L26.9-72.9L26.9-77.9C26.9-79.4 28.1-80.6 29.6-80.6L33.6-80.6C35.1-80.6 36.3-79.4 36.3-77.9L36.3-72.9ZM30-26.3C30-29.7 32.8-32.5 36.2-32.5L44.8-32.5L46.5-49.5C46.7-51.3 45.9-53.1 44.4-54.2L37.5-59.3C36.7-59.9 36.2-60.8 36.2-61.8L36.2-69.6L26.9-69.6L26.9-61.8C26.9-60.8 26.4-59.9 25.6-59.3L18.7-54.2C17.2-53.1 16.4-51.3 16.6-49.5L21.4-2.2C21.5-0.8 22.7 0.2 24.1 0.2L30.1 0.2L30.1-26.3ZM22.4-38.4L21.6-46.6C21.5-47.3 22.1-47.9 22.8-47.9L40.4-47.9C41.1-47.9 41.6-47.3 41.6-46.6L40.8-38.4C40.7-37.8 40.2-37.3 39.6-37.3L23.6-37.3C22.9-37.4 22.4-37.8 22.4-38.4ZM68.4-29L36.2-29C34.7-29 33.5-27.8 33.5-26.3L33.5-22.6L71.1-22.6L71.1-26.3C71.1-27.8 69.9-29 68.4-29ZM33.5-18.6L33.5 5.6C33.5 8 35.5 10 37.9 10L66.7 10C69.1 10 71.1 8 71.1 5.6L71.1-18.6L33.5-18.6ZM59.7-11.9C57.6-10.8 55.8-9 54.3-6.4C53.9-5.7 53.4-4.8 53-3.9C53.3-3.9 53.7-3.8 54.1-3.7C56.7-2.8 57.3-0.3 55.8 1.9C54.3 4.1 50.7 4.7 48.5 3.6C46.2 2.5 44.5-0.6 45.2-3.1C45.9-5.7 48.2-6.7 50.6-5.4C50.8-5.2 51-5 51.2-4.8C51.6-5.7 52.1-6.7 52.5-7.4C54.2-10.3 56.3-12.4 58.8-13.6C59.3-13.9 59.9-13.7 60.1-13.2C60.4-12.7 60.2-12.1 59.7-11.9Z"/>
  </g>
  <g id="Ultralight-S" transform="matrix(1 0 0 1 511.811 696)">
   <path d="M70.404-67.3L67.104-67.3L67.104-68.2C67.104-69.6 67.204-71 67.404-72.4L67.804-74.9C67.904-75.6 67.404-76.4 66.704-76.5C65.904-76.6 65.204-76.1 65.104-75.4L64.704-72.9C64.404-71.4 64.304-69.8 64.304-68.2L64.304-67.3L61.004-67.3C60.104-67.3 59.404-66.6 59.404-65.7C59.404-64.8 60.104-64.1 61.004-64.1L61.704-64.1L61.704-61.1L69.704-61.1L69.704-64.1L70.404-64.1C71.304-64.1 72.004-64.8 72.004-65.7C72.004-66.6 71.304-67.3 70.404-67.3ZM77.004-37.2L72.704-40.8C72.104-41.3 71.704-42 71.604-42.7L69.704-58L61.704-58L59.804-42.7C59.704-41.9 59.304-41.2 58.704-40.8L54.404-37.2C53.004-36 52.004-34.4 51.604-32.6L63.304-32.6C66.404-32.6 69.004-30.1 69.004-26.9L69.004-2.5L74.704-2.5C75.804-2.5 76.804-3.4 76.904-4.5L80.004-29.7C80.304-32.5 79.204-35.3 77.004-37.2ZM33.704-69.6L25.204-69.6L25.204-74.2C25.204-75.5 26.304-76.6 27.604-76.6L31.204-76.6C32.504-76.6 33.604-75.5 33.604-74.2L33.604-69.6ZM28.104-27C28.104-30.1 30.604-32.7 33.804-32.7L41.604-32.7L43.204-48.2C43.404-49.9 42.604-51.5 41.304-52.5L35.004-57.2C34.304-57.7 33.804-58.6 33.804-59.5L33.804-66.6L25.304-66.6L25.304-59.5C25.304-58.6 24.904-57.8 24.104-57.2L17.804-52.5C16.404-51.5 15.704-49.9 15.904-48.2L20.304-4.8C20.404-3.6 21.504-2.6 22.704-2.6L28.204-2.6L28.204-27ZM21.004-38.1L20.204-45.6C20.104-46.2 20.604-46.8 21.304-46.8L37.504-46.8C38.104-46.8 38.604-46.2 38.604-45.6L37.804-38.1C37.704-37.5 37.304-37.1 36.704-37.1L22.104-37.1C21.604-37.1 21.104-37.5 21.004-38.1ZM63.304-29.4L33.704-29.4C32.304-29.4 31.204-28.3 31.204-26.9L31.204-23.6L65.604-23.6L65.604-26.9C65.704-28.3 64.604-29.4 63.304-29.4ZM31.304-19.9L31.304 2.3C31.304 4.5 33.104 6.3 35.304 6.3L61.704 6.3C63.904 6.3 65.704 4.5 65.704 2.3L65.704-19.9L31.304-19.9ZM55.204-13.7C53.304-12.7 51.604-11.1 50.204-8.7C49.804-8 49.404-7.2 49.004-6.4C49.304-6.4 49.604-6.3 50.004-6.2C52.404-5.4 53.004-3.1 51.504-1.1C50.104 0.9 46.904 1.5 44.804 0.5C42.704-0.5 41.104-3.3 41.804-5.7C42.504-8.1 44.504-9 46.704-7.8C47.004-7.7 47.204-7.5 47.304-7.3C47.704-8.1 48.104-9 48.504-9.7C50.104-12.4 52.004-14.3 54.204-15.4C54.604-15.6 55.204-15.4 55.404-15C55.904-14.5 55.704-14 55.204-13.7Z"/>
  </g>
 </g>
</svg>
