<?xml version="1.0" encoding="UTF-8"?>
<!--Generator: Apple Native CoreSVG 175.5-->
<!DOCTYPE svg
PUBLIC "-//W3C//DTD SVG 1.1//EN"
       "http://www.w3.org/Graphics/SVG/1.1/DTD/svg11.dtd">
<svg version="1.1" xmlns="http://www.w3.org/2000/svg" xmlns:xlink="http://www.w3.org/1999/xlink" width="3300" height="2200">
 <!--glyph: "", point size: 100.0, font version: "18.0d12e2", template writer version: "101"-->
 <style>.monochrome-0 {fill:#000000}

.SFSymbolsPreview000000 {fill:#000000;opacity:1.0}
</style>
 <g id="Notes">
  <rect height="2200" id="artboard" style="fill:white;opacity:1" width="3300" x="0" y="0"/>
  <line style="fill:none;stroke:black;opacity:1;stroke-width:0.5;" x1="263" x2="3036" y1="292" y2="292"/>
  <text style="stroke:none;fill:black;font-family:sans-serif;font-size:13;font-weight:bold;" transform="matrix(1 0 0 1 263 322)">Weight/Scale Variations</text>
  <text style="stroke:none;fill:black;font-family:sans-serif;font-size:13;text-anchor:middle;" transform="matrix(1 0 0 1 559.711 322)">Ultralight</text>
  <text style="stroke:none;fill:black;font-family:sans-serif;font-size:13;text-anchor:middle;" transform="matrix(1 0 0 1 856.422 322)">Thin</text>
  <text style="stroke:none;fill:black;font-family:sans-serif;font-size:13;text-anchor:middle;" transform="matrix(1 0 0 1 1153.13 322)">Light</text>
  <text style="stroke:none;fill:black;font-family:sans-serif;font-size:13;text-anchor:middle;" transform="matrix(1 0 0 1 1449.84 322)">Regular</text>
  <text style="stroke:none;fill:black;font-family:sans-serif;font-size:13;text-anchor:middle;" transform="matrix(1 0 0 1 1746.56 322)">Medium</text>
  <text style="stroke:none;fill:black;font-family:sans-serif;font-size:13;text-anchor:middle;" transform="matrix(1 0 0 1 2043.27 322)">Semibold</text>
  <text style="stroke:none;fill:black;font-family:sans-serif;font-size:13;text-anchor:middle;" transform="matrix(1 0 0 1 2339.98 322)">Bold</text>
  <text style="stroke:none;fill:black;font-family:sans-serif;font-size:13;text-anchor:middle;" transform="matrix(1 0 0 1 2636.69 322)">Heavy</text>
  <text style="stroke:none;fill:black;font-family:sans-serif;font-size:13;text-anchor:middle;" transform="matrix(1 0 0 1 2933.4 322)">Black</text>
  <line style="fill:none;stroke:black;opacity:1;stroke-width:0.5;" x1="263" x2="3036" y1="1903" y2="1903"/>
  <g transform="matrix(1 0 0 1 263 1933)">
   <path d="M9.24805 0.830078C13.5547 0.830078 17.1387-2.74414 17.1387-7.05078C17.1387-11.3574 13.5449-14.9316 9.23828-14.9316C4.94141-14.9316 1.36719-11.3574 1.36719-7.05078C1.36719-2.74414 4.95117 0.830078 9.24805 0.830078ZM9.24805-0.654297C5.70312-0.654297 2.87109-3.49609 2.87109-7.05078C2.87109-10.6055 5.69336-13.4473 9.23828-13.4473C12.793-13.4473 15.6445-10.6055 15.6445-7.05078C15.6445-3.49609 12.8027-0.654297 9.24805-0.654297ZM5.6543-7.05078C5.6543-6.62109 5.95703-6.32812 6.40625-6.32812L8.50586-6.32812L8.50586-4.20898C8.50586-3.76953 8.79883-3.4668 9.22852-3.4668C9.67773-3.4668 9.9707-3.76953 9.9707-4.20898L9.9707-6.32812L12.0898-6.32812C12.5293-6.32812 12.832-6.62109 12.832-7.05078C12.832-7.49023 12.5293-7.79297 12.0898-7.79297L9.9707-7.79297L9.9707-9.90234C9.9707-10.3516 9.67773-10.6543 9.22852-10.6543C8.79883-10.6543 8.50586-10.3516 8.50586-9.90234L8.50586-7.79297L6.40625-7.79297C5.95703-7.79297 5.6543-7.49023 5.6543-7.05078Z"/>
  </g>
  <g transform="matrix(1 0 0 1 281.867 1933)">
   <path d="M11.709 2.91016C17.1582 2.91016 21.6699-1.61133 21.6699-7.05078C21.6699-12.5 17.1484-17.0117 11.6992-17.0117C6.25977-17.0117 1.74805-12.5 1.74805-7.05078C1.74805-1.61133 6.26953 2.91016 11.709 2.91016ZM11.709 1.25C7.09961 1.25 3.41797-2.44141 3.41797-7.05078C3.41797-11.6602 7.08984-15.3516 11.6992-15.3516C16.3086-15.3516 20.0098-11.6602 20.0098-7.05078C20.0098-2.44141 16.3184 1.25 11.709 1.25ZM7.17773-7.05078C7.17773-6.57227 7.50977-6.25 8.00781-6.25L10.8789-6.25L10.8789-3.36914C10.8789-2.88086 11.2109-2.53906 11.6895-2.53906C12.1777-2.53906 12.5195-2.87109 12.5195-3.36914L12.5195-6.25L15.4004-6.25C15.8887-6.25 16.2305-6.57227 16.2305-7.05078C16.2305-7.53906 15.8887-7.88086 15.4004-7.88086L12.5195-7.88086L12.5195-10.752C12.5195-11.25 12.1777-11.5918 11.6895-11.5918C11.2109-11.5918 10.8789-11.25 10.8789-10.752L10.8789-7.88086L8.00781-7.88086C7.50977-7.88086 7.17773-7.53906 7.17773-7.05078Z"/>
  </g>
  <g transform="matrix(1 0 0 1 305.646 1933)">
   <path d="M14.9707 5.66406C21.9336 5.66406 27.6953-0.0976562 27.6953-7.05078C27.6953-14.0137 21.9238-19.7754 14.9609-19.7754C8.00781-19.7754 2.25586-14.0137 2.25586-7.05078C2.25586-0.0976562 8.01758 5.66406 14.9707 5.66406ZM14.9707 3.84766C8.93555 3.84766 4.08203-1.01562 4.08203-7.05078C4.08203-13.0957 8.92578-17.9492 14.9609-17.9492C21.0059-17.9492 25.8691-13.0957 25.8691-7.05078C25.8691-1.01562 21.0156 3.84766 14.9707 3.84766ZM9.19922-7.05078C9.19922-6.5332 9.57031-6.17188 10.1172-6.17188L14.0625-6.17188L14.0625-2.2168C14.0625-1.67969 14.4336-1.29883 14.9512-1.29883C15.4883-1.29883 15.8594-1.66992 15.8594-2.2168L15.8594-6.17188L19.8145-6.17188C20.3516-6.17188 20.7324-6.5332 20.7324-7.05078C20.7324-7.59766 20.3613-7.96875 19.8145-7.96875L15.8594-7.96875L15.8594-11.9141C15.8594-12.4609 15.4883-12.8418 14.9512-12.8418C14.4336-12.8418 14.0625-12.4609 14.0625-11.9141L14.0625-7.96875L10.1172-7.96875C9.57031-7.96875 9.19922-7.59766 9.19922-7.05078Z"/>
  </g>
  <text style="stroke:none;fill:black;font-family:sans-serif;font-size:13;font-weight:bold;" transform="matrix(1 0 0 1 263 1953)">Design Variations</text>
  <text style="stroke:none;fill:black;font-family:sans-serif;font-size:13;" transform="matrix(1 0 0 1 263 1971)">Symbols are supported in up to nine weights and three scales.</text>
  <text style="stroke:none;fill:black;font-family:sans-serif;font-size:13;" transform="matrix(1 0 0 1 263 1989)">For optimal layout with text and other symbols, vertically align</text>
  <text style="stroke:none;fill:black;font-family:sans-serif;font-size:13;" transform="matrix(1 0 0 1 263 2007)">symbols with the adjacent text.</text>
  <line style="fill:none;stroke:#00AEEF;stroke-width:0.5;opacity:1.0;" x1="776" x2="776" y1="1919" y2="1933"/>
  <g transform="matrix(1 0 0 1 776 1933)">
   <path d="M3.31055 0.15625C3.82812 0.15625 4.08203-0.0390625 4.26758-0.585938L5.52734-4.0332L11.2891-4.0332L12.5488-0.585938C12.7344-0.0390625 12.9883 0.15625 13.4961 0.15625C14.0137 0.15625 14.3457-0.15625 14.3457-0.644531C14.3457-0.810547 14.3164-0.966797 14.2383-1.17188L9.6582-13.3691C9.43359-13.9648 9.0332-14.2676 8.4082-14.2676C7.80273-14.2676 7.39258-13.9746 7.17773-13.3789L2.59766-1.16211C2.51953-0.957031 2.49023-0.800781 2.49023-0.634766C2.49023-0.146484 2.80273 0.15625 3.31055 0.15625ZM6.00586-5.51758L8.37891-12.0898L8.42773-12.0898L10.8008-5.51758Z"/>
  </g>
  <line style="fill:none;stroke:#00AEEF;stroke-width:0.5;opacity:1.0;" x1="793.197" x2="793.197" y1="1919" y2="1933"/>
  <text style="stroke:none;fill:black;font-family:sans-serif;font-size:13;font-weight:bold;" transform="matrix(1 0 0 1 776 1953)">Margins</text>
  <text style="stroke:none;fill:black;font-family:sans-serif;font-size:13;" transform="matrix(1 0 0 1 776 1971)">Leading and trailing margins on the left and right side of each symbol</text>
  <text style="stroke:none;fill:black;font-family:sans-serif;font-size:13;" transform="matrix(1 0 0 1 776 1989)">can be adjusted by modifying the x-location of the margin guidelines.</text>
  <text style="stroke:none;fill:black;font-family:sans-serif;font-size:13;" transform="matrix(1 0 0 1 776 2007)">Modifications are automatically applied proportionally to all</text>
  <text style="stroke:none;fill:black;font-family:sans-serif;font-size:13;" transform="matrix(1 0 0 1 776 2025)">scales and weights.</text>
  <g transform="matrix(1 0 0 1 1289 1933)">
   <path d="M2.8418 1.86523L4.54102 3.57422C5.40039 4.44336 6.38672 4.38477 7.31445 3.35938L18.0078-8.42773L17.041-9.4043L6.42578 2.27539C6.07422 2.67578 5.74219 2.77344 5.27344 2.30469L4.10156 1.14258C3.63281 0.683594 3.74023 0.341797 4.14062-0.0195312L15.6152-10.8203L14.6387-11.7871L3.04688-0.898438C2.06055 0.0195312 1.98242 0.996094 2.8418 1.86523ZM9.25781-16.3281C8.83789-15.918 8.80859-15.3418 9.04297-14.9512C9.27734-14.5898 9.73633-14.3555 10.3809-14.5215C11.8457-14.8633 13.3691-14.9219 14.7949-13.9844L14.209-12.5293C13.8672-11.6992 14.043-11.1133 14.5801-10.5664L16.875-8.25195C17.3633-7.76367 17.7734-7.74414 18.3398-7.8418L19.4043-8.03711L20.0684-7.36328L20.0293-6.80664C19.9902-6.30859 20.1172-5.92773 20.6055-5.44922L21.3672-4.70703C21.8457-4.22852 22.4609-4.19922 22.9297-4.66797L25.8398-7.58789C26.3086-8.05664 26.2891-8.65234 25.8105-9.13086L25.0391-9.89258C24.5605-10.3711 24.1895-10.5273 23.7109-10.4883L23.1348-10.4395L22.4902-11.0742L22.7344-12.1973C22.8613-12.7637 22.7051-13.2031 22.1191-13.7891L19.9219-15.9766C16.582-19.2969 12.1484-19.2188 9.25781-16.3281ZM10.752-15.957C13.1836-17.7344 16.4746-17.4316 18.7012-15.2051L21.1328-12.793C21.3672-12.5586 21.4062-12.373 21.3379-12.0312L21.0156-10.5469L22.5195-9.0625L23.5059-9.12109C23.7598-9.13086 23.8379-9.11133 24.0332-8.91602L24.6094-8.33984L22.168-5.89844L21.5918-6.47461C21.3965-6.66992 21.3672-6.74805 21.377-7.01172L21.4453-7.98828L19.9512-9.47266L18.4277-9.21875C18.1055-9.15039 17.959-9.17969 17.7148-9.41406L15.7129-11.416C15.459-11.6504 15.4297-11.8164 15.5859-12.1875L16.4648-14.2773C14.9023-15.7324 12.8711-16.3574 10.8398-15.7617C10.6836-15.7227 10.625-15.8496 10.752-15.957Z"/>
  </g>
  <text style="stroke:none;fill:black;font-family:sans-serif;font-size:13;font-weight:bold;" transform="matrix(1 0 0 1 1289 1953)">Exporting</text>
  <text style="stroke:none;fill:black;font-family:sans-serif;font-size:13;" transform="matrix(1 0 0 1 1289 1971)">Symbols should be outlined when exporting to ensure the</text>
  <text style="stroke:none;fill:black;font-family:sans-serif;font-size:13;" transform="matrix(1 0 0 1 1289 1989)">design is preserved when submitting to Xcode.</text>
  <text id="template-version" style="stroke:none;fill:black;font-family:sans-serif;font-size:13;text-anchor:end;" transform="matrix(1 0 0 1 3036 1933)">Template v.4.0</text>
  <text style="stroke:none;fill:black;font-family:sans-serif;font-size:13;text-anchor:end;" transform="matrix(1 0 0 1 3036 1951)">Requires Xcode 14 or greater</text>
  <text id="descriptive-name" style="stroke:none;fill:black;font-family:sans-serif;font-size:13;text-anchor:end;" transform="matrix(1 0 0 1 3036 1969)">Generated from case.garnish</text>
  <text style="stroke:none;fill:black;font-family:sans-serif;font-size:13;text-anchor:end;" transform="matrix(1 0 0 1 3036 1987)">Typeset at 100 points</text>
  <text style="stroke:none;fill:black;font-family:sans-serif;font-size:13;" transform="matrix(1 0 0 1 263 726)">Small</text>
  <text style="stroke:none;fill:black;font-family:sans-serif;font-size:13;" transform="matrix(1 0 0 1 263 1156)">Medium</text>
  <text style="stroke:none;fill:black;font-family:sans-serif;font-size:13;" transform="matrix(1 0 0 1 263 1586)">Large</text>
 </g>
 <g id="Guides">
  <g id="H-reference" style="fill:#27AAE1;stroke:none;" transform="matrix(1 0 0 1 339 696)">
   <path d="M0.993654 0L3.63775 0L29.3281-67.1323L30.0303-67.1323L30.0303-70.459L28.1226-70.459ZM11.6885-24.4799L46.9815-24.4799L46.2315-26.7285L12.4385-26.7285ZM55.1196 0L57.7637 0L30.6382-70.459L29.4326-70.459L29.4326-67.1323Z"/>
  </g>
  <line id="Baseline-S" style="fill:none;stroke:#27AAE1;opacity:1;stroke-width:0.5;" x1="263" x2="3036" y1="696" y2="696"/>
  <line id="Capline-S" style="fill:none;stroke:#27AAE1;opacity:1;stroke-width:0.5;" x1="263" x2="3036" y1="625.541" y2="625.541"/>
  <g id="H-reference" style="fill:#27AAE1;stroke:none;" transform="matrix(1 0 0 1 339 1126)">
   <path d="M0.993654 0L3.63775 0L29.3281-67.1323L30.0303-67.1323L30.0303-70.459L28.1226-70.459ZM11.6885-24.4799L46.9815-24.4799L46.2315-26.7285L12.4385-26.7285ZM55.1196 0L57.7637 0L30.6382-70.459L29.4326-70.459L29.4326-67.1323Z"/>
  </g>
  <line id="Baseline-M" style="fill:none;stroke:#27AAE1;opacity:1;stroke-width:0.5;" x1="263" x2="3036" y1="1126" y2="1126"/>
  <line id="Capline-M" style="fill:none;stroke:#27AAE1;opacity:1;stroke-width:0.5;" x1="263" x2="3036" y1="1055.54" y2="1055.54"/>
  <g id="H-reference" style="fill:#27AAE1;stroke:none;" transform="matrix(1 0 0 1 339 1556)">
   <path d="M0.993654 0L3.63775 0L29.3281-67.1323L30.0303-67.1323L30.0303-70.459L28.1226-70.459ZM11.6885-24.4799L46.9815-24.4799L46.2315-26.7285L12.4385-26.7285ZM55.1196 0L57.7637 0L30.6382-70.459L29.4326-70.459L29.4326-67.1323Z"/>
  </g>
  <line id="Baseline-L" style="fill:none;stroke:#27AAE1;opacity:1;stroke-width:0.5;" x1="263" x2="3036" y1="1556" y2="1556"/>
  <line id="Capline-L" style="fill:none;stroke:#27AAE1;opacity:1;stroke-width:0.5;" x1="263" x2="3036" y1="1485.54" y2="1485.54"/>
  <line id="left-margin-Ultralight-S" style="fill:none;stroke:#00AEEF;stroke-width:0.5;opacity:1.0;" x1="502.811" x2="502.811" y1="600.785" y2="720.121"/>
  <line id="right-margin-Ultralight-S" style="fill:none;stroke:#00AEEF;stroke-width:0.5;opacity:1.0;" x1="616.611" x2="616.611" y1="600.785" y2="720.121"/>
  <line id="left-margin-Regular-S" style="fill:none;stroke:#00AEEF;stroke-width:0.5;opacity:1.0;" x1="1389.19" x2="1389.19" y1="600.785" y2="720.121"/>
  <line id="right-margin-Regular-S" style="fill:none;stroke:#00AEEF;stroke-width:0.5;opacity:1.0;" x1="1510.49" x2="1510.49" y1="600.785" y2="720.121"/>
  <line id="left-margin-Black-S" style="fill:none;stroke:#00AEEF;stroke-width:0.5;opacity:1.0;" x1="2869.7" x2="2869.7" y1="600.785" y2="720.121"/>
  <line id="right-margin-Black-S" style="fill:none;stroke:#00AEEF;stroke-width:0.5;opacity:1.0;" x1="2997.1" x2="2997.1" y1="600.785" y2="720.121"/>
 </g>
 <g id="Symbols">
  <g id="Black-S" transform="matrix(1 0 0 1 2869.7 696)">
   <path class="monochrome-0 SFSymbolsPreview000000" d="M101.81-73.5C93.11-82.2 79.41-83.4 73.51-83.5C73.51-83.5 73.51-83.5 73.51-83.5C71.91-83.5 70.71-82.2 70.71-80.7C70.81-74.8 72.01-61.1 80.71-52.4C89.11-44 102.11-42.6 108.31-42.4C108.31-42.4 108.41-42.4 108.41-42.4C110.31-42.4 111.91-44 111.81-45.9C111.71-52 110.21-65.1 101.81-73.5ZM82.61-26C85.41-29.9 85.01-35.4 81.51-38.9C78.01-42.4 72.51-42.8 68.61-40L68.41-40.2C71.21-44.1 70.81-49.6 67.31-53.1C63.81-56.6 58.31-57 54.41-54.2L40.61-68.1C44.01-66.8 47.81-65.8 50.61-65.8C55.61-65.8 59.61-69.2 59.61-73.3C59.61-77.4 55.61-80.8 50.61-80.8C44.41-80.8 32.81-75.1 32.31-74.9C32.31-74.9 32.31-74.9 32.21-74.9C32.11-74.8 32.01-74.8 31.91-74.7C31.91-74.7 31.81-74.7 31.81-74.6C31.81-74.6 31.81-74.6 31.81-74.6C31.71-74.5 31.61-74.4 31.61-74.3C31.61-74.3 31.61-74.3 31.61-74.2C31.51-74.1 31.51-74 31.51-73.9C31.51-73.9 31.51-73.8 31.51-73.8C31.51-73.7 31.41-73.5 31.41-73.4C31.41-73.4 31.41-73.4 31.41-73.4C31.41-73.4 31.41-73.4 31.41-73.4C31.41-73.3 31.41-73.1 31.51-73C31.51-73 31.51-72.9 31.51-72.9C31.51-72.8 31.61-72.7 31.61-72.6C31.61-72.6 31.61-72.6 31.61-72.5C31.71-72.4 31.71-72.3 31.81-72.2L52.01-51.8C49.21-47.9 49.61-42.4 53.11-38.9C56.61-35.4 62.11-35 66.01-37.8L66.21-37.6C63.41-33.7 63.81-28.2 67.31-24.7C70.81-21.2 76.31-20.8 80.21-23.6L91.81-12C92.11-11.7 92.61-11.5 93.01-11.5C93.41-11.5 93.91-11.7 94.21-12C94.91-12.7 94.91-13.8 94.21-14.4L82.61-26ZM83.11-54.8C76.51-61.4 74.71-71.3 74.21-77.5L95.11-56.6C95.41-56.3 95.91-56.1 96.31-56.1C96.71-56.1 97.21-56.3 97.51-56.6C98.21-57.3 98.21-58.4 97.51-59L76.71-79.9C82.91-79.4 92.81-77.6 99.41-71C107.11-63.3 108.31-50.8 108.41-45.8C103.31-45.9 90.81-47.1 83.11-54.8ZM78.21 1.7C71.81 6.7 64.01 9.4 55.81 9.4C35.81 9.4 19.51-6.9 19.51-26.9C19.51-35.1 22.21-42.8 27.21-49.2C27.81-50 27.71-51 26.91-51.6C26.21-52.2 25.11-52.1 24.51-51.3C19.01-44.3 16.11-35.8 16.11-26.8C16.11-4.9 33.91 13 55.91 13C64.91 13 73.41 10.1 80.41 4.6C81.11 4 81.31 2.9 80.71 2.2C80.01 1.3 79.01 1.2 78.21 1.7ZM36.11-0.9C40.51 2.4 45.71 4.7 51.51 5.5C51.61 5.5 51.71 5.5 51.91 5.5C53.41 5.5 54.61 4.3 54.61 2.8L54.61-17.1C54.61-18.7 53.31-19.8 51.81-19.8C51.11-19.8 50.41-19.6 49.91-19L35.81-5.1C34.71-3.9 34.81-2 36.11-0.9ZM46.21-25.6L26.31-25.6C24.61-25.6 23.41-24.1 23.61-22.5C24.41-16.8 26.61-11.5 30.01-7.1C30.51-6.4 31.41-6 32.21-6C32.91-6 33.61-6.3 34.11-6.8L48.21-20.9C49.81-22.6 48.61-25.6 46.21-25.6ZM60.21 5.4C65.61 4.7 70.61 2.6 74.81-0.4C76.21-1.4 76.31-3.4 75.11-4.6L61.81-18C61.21-18.6 60.61-18.8 59.91-18.8C58.51-18.8 57.11-17.7 57.11-16.1L57.11 2.7C57.11 4.2 58.41 5.4 59.81 5.4C60.01 5.4 60.11 5.4 60.21 5.4ZM26.31-28.1L45.01-28.1C47.41-28.1 48.71-31 46.91-32.8L33.51-46.2C33.01-46.7 32.31-47 31.61-47C30.81-47 29.91-46.6 29.41-45.9C26.41-41.7 24.31-36.7 23.61-31.3C23.31-29.6 24.61-28.1 26.31-28.1ZM51.11-15.5L51.11 1.9C46.71 1.2 42.51-0.6 38.81-3.2L51.11-15.5ZM32.21-9.9C29.61-13.5 27.81-17.7 27.11-22.2L44.41-22.2L32.21-9.9ZM50.61-77.3C53.61-77.3 56.11-75.4 56.11-73.3C56.11-71.2 53.61-69.3 50.61-69.3C46.91-69.3 40.91-71.7 37.11-73.3C41.21-75 47.21-77.3 50.61-77.3ZM60.51-14.3L72.11-2.7C68.61-0.3 64.71 1.2 60.51 1.9L60.51-14.3ZM31.71-43.1L43.31-31.5L27.11-31.5C27.81-35.7 29.41-39.7 31.71-43.1Z"/>
  </g>
  <g id="Regular-S" transform="matrix(1 0 0 1 1389.19 696)">
   <path class="monochrome-0 SFSymbolsPreview000000" d="M96.2-71C88-79.2 75.2-80.3 69.7-80.4C69.7-80.4 69.7-80.4 69.7-80.4C68.2-80.4 67.1-79.2 67.1-77.7C67.2-72.2 68.3-59.4 76.5-51.2C84.4-43.3 96.6-42 102.3-41.8C102.3-41.8 102.4-41.8 102.4-41.8C104.2-41.8 105.6-43.3 105.6-45.1C105.4-51 104.1-63.1 96.2-71ZM78.3-26.6C80.9-30.3 80.5-35.4 77.3-38.6C74-41.9 68.9-42.2 65.3-39.6L65-39.9C67.6-43.6 67.2-48.7 64-51.9C60.7-55.2 55.6-55.5 52-52.9L39-65.9C42.2-64.7 45.7-63.7 48.3-63.7C52.9-63.7 56.7-66.8 56.7-70.7C56.7-74.6 52.9-77.7 48.3-77.7C42.5-77.7 31.6-72.4 31.2-72.1C31.2-72.1 31.2-72.1 31.2-72.1C31.1-72 31-72 30.9-71.9C30.9-71.9 30.8-71.9 30.8-71.8C30.8-71.8 30.8-71.8 30.8-71.8C30.7-71.7 30.6-71.6 30.6-71.5C30.6-71.5 30.6-71.5 30.6-71.4C30.5-71.3 30.5-71.2 30.5-71.1C30.5-71.1 30.5-71 30.5-71C30.5-70.9 30.4-70.7 30.4-70.6C30.4-70.6 30.4-70.6 30.4-70.6C30.4-70.6 30.4-70.6 30.4-70.6C30.4-70.5 30.4-70.3 30.5-70.2C30.5-70.2 30.5-70.1 30.5-70.1C30.5-70 30.6-69.9 30.6-69.8C30.6-69.8 30.6-69.8 30.6-69.7C30.7-69.6 30.7-69.5 30.8-69.4L49.7-50.5C47.1-46.8 47.5-41.7 50.7-38.5C54-35.2 59.1-34.9 62.7-37.5L62.9-37.3C60.3-33.6 60.7-28.5 63.9-25.3C67.2-22 72.3-21.7 75.9-24.3L86.8-13.4C87.1-13.1 87.5-12.9 87.9-12.9C88.3-12.9 88.7-13.1 89-13.4C89.6-14 89.6-15.1 89-15.7L78.3-26.6ZM78.8-53.5C72.7-59.6 71-68.9 70.5-74.7L90-55.2C90.3-54.9 90.7-54.7 91.1-54.7C91.5-54.7 91.9-54.9 92.2-55.2C92.8-55.8 92.8-56.9 92.2-57.5L72.7-77C78.5-76.5 87.8-74.8 93.9-68.7C101.1-61.5 102.2-49.8 102.3-45.1C97.6-45.3 85.9-46.4 78.8-53.5ZM74.1-0.6C68.1 4.1 60.8 6.6 53.2 6.6C34.5 6.6 19.2-8.6 19.2-27.4C19.2-35.1 21.7-42.3 26.4-48.3C26.9-49 26.8-50 26.1-50.6C25.4-51.1 24.4-51 23.8-50.3C18.7-43.7 16-35.8 16-27.4C16-6.9 32.7 9.8 53.2 9.8C61.6 9.8 69.5 7.1 76.1 1.9C76.8 1.4 76.9 0.3 76.4-0.4C75.8-1.1 74.8-1.2 74.1-0.6ZM34.7-3.2C38.8-0.1 43.7 2 49.1 2.7C49.2 2.7 49.3 2.7 49.4 2.7C50.8 2.7 52 1.6 52 0.1L52-18.5C52-20 50.7-21.1 49.4-21.1C48.8-21.1 48.1-20.9 47.6-20.3L34.5-7C33.4-5.9 33.5-4.1 34.7-3.2ZM44.1-26.2L25.5-26.2C24-26.2 22.8-24.8 23-23.3C23.7-18 25.8-13 28.9-8.9C29.4-8.2 30.2-7.9 30.9-7.9C31.6-7.9 32.2-8.1 32.7-8.7L45.8-21.8C47.6-23.5 46.4-26.2 44.1-26.2ZM57.3 2.8C62.3 2.1 67 0.2 71-2.7C72.3-3.6 72.4-5.5 71.3-6.6L58.7-19.1C58.2-19.6 57.5-19.9 56.9-19.9C55.6-19.9 54.3-18.9 54.3-17.3L54.3 0.2C54.3 1.6 55.5 2.8 56.9 2.8C57.1 2.8 57.2 2.8 57.3 2.8ZM25.5-28.6L43-28.6C45.3-28.6 46.4-31.4 44.8-33L32.3-45.5C31.8-46 31.1-46.3 30.5-46.3C29.7-46.3 28.9-45.9 28.4-45.2C25.5-41.2 23.6-36.6 22.9-31.5C22.8-30 24-28.6 25.5-28.6ZM48.8-16.7L48.8-0.5C44.7-1.2 40.7-2.8 37.3-5.3L48.8-16.7ZM31.1-11.5C28.7-14.9 27-18.8 26.3-23L42.5-23L31.1-11.5ZM48.3-74.6C51.1-74.6 53.5-72.9 53.5-70.8C53.5-68.7 51.1-67 48.3-67C44.8-67 39.2-69.2 35.7-70.8C39.5-72.5 45.1-74.6 48.3-74.6ZM57.6-15.7L68.4-4.8C65.1-2.6 61.4-1.1 57.6-0.5L57.6-15.7ZM30.6-42.6L41.4-31.8L26.3-31.8C26.9-35.7 28.4-39.4 30.6-42.6Z"/>
  </g>
  <g id="Ultralight-S" transform="matrix(1 0 0 1 502.811 696)">
   <path class="monochrome-0 SFSymbolsPreview000000" d="M89.404-67.9C81.904-75.4 70.104-76.4 65.104-76.5C65.104-76.5 65.104-76.5 65.104-76.5C63.804-76.5 62.704-75.4 62.704-74.1C62.804-69.1 63.804-57.3 71.304-49.8C78.504-42.6 89.704-41.4 95.004-41.2C95.004-41.2 95.104-41.2 95.104-41.2C96.704-41.2 98.104-42.6 98.004-44.2C97.904-49.5 96.704-60.7 89.404-67.9ZM73.004-27.1C75.404-30.5 75.104-35.1 72.004-38.2C69.004-41.2 64.304-41.5 60.904-39.2L60.704-39.4C63.104-42.8 62.804-47.4 59.704-50.5C56.704-53.5 52.004-53.8 48.604-51.5L36.904-63.3C39.804-62.2 43.004-61.3 45.504-61.3C49.804-61.3 53.204-64.2 53.204-67.7C53.204-71.2 49.704-74.1 45.504-74.1C40.204-74.1 30.204-69.2 29.804-69C29.804-69 29.804-69 29.804-69C29.704-69 29.604-68.9 29.604-68.8C29.604-68.8 29.604-68.8 29.504-68.7C29.504-68.7 29.504-68.7 29.504-68.7C29.404-68.6 29.404-68.5 29.304-68.4C29.304-68.4 29.304-68.4 29.304-68.3C29.204-68.2 29.204-68.1 29.204-68C29.204-68 29.204-67.9 29.204-67.9C29.204-67.8 29.204-67.7 29.104-67.6C29.104-67.6 29.104-67.6 29.104-67.6C29.104-67.6 29.104-67.6 29.104-67.6C29.104-67.5 29.104-67.4 29.104-67.2C29.104-67.2 29.104-67.1 29.104-67.1C29.104-67 29.204-66.9 29.204-66.8C29.204-66.8 29.204-66.8 29.204-66.7C29.304-66.6 29.304-66.5 29.404-66.4L46.804-49C44.404-45.6 44.704-41 47.804-37.9C50.804-34.9 55.504-34.6 58.904-36.9L59.104-36.7C56.704-33.3 57.004-28.7 60.104-25.6C63.104-22.6 67.804-22.3 71.204-24.6L81.204-14.6C81.504-14.3 81.904-14.2 82.204-14.2C82.604-14.2 83.004-14.3 83.204-14.6C83.804-15.2 83.804-16.1 83.204-16.7L73.004-27.1ZM73.404-51.9C67.804-57.5 66.204-66.1 65.804-71.4L83.704-53.5C84.004-53.2 84.404-53.1 84.704-53.1C85.104-53.1 85.504-53.2 85.704-53.5C86.304-54.1 86.304-55 85.704-55.6L67.904-73.4C73.204-73 81.704-71.4 87.404-65.8C94.004-59.2 95.004-48.5 95.104-44.1C90.704-44.2 80.004-45.3 73.404-51.9ZM69.204-3.3C63.604 1 57.004 3.3 49.904 3.3C32.704 3.3 18.704-10.7 18.704-27.9C18.704-34.9 21.004-41.6 25.304-47.1C25.804-47.7 25.704-48.7 25.004-49.2C24.404-49.7 23.404-49.6 22.904-48.9C18.204-42.9 15.704-35.6 15.704-27.9C15.804-9 31.104 6.3 49.904 6.3C57.604 6.3 64.904 3.8 70.904-1C71.504-1.5 71.704-2.4 71.204-3.1C70.704-3.7 69.804-3.8 69.204-3.3ZM33.004-5.6C36.804-2.7 41.304-0.8 46.204-0.1C46.304-0.1 46.404-0.1 46.504-0.1C47.804-0.1 48.804-1.1 48.804-2.5L48.804-19.6C48.804-21 47.604-22 46.404-22C45.804-22 45.204-21.8 44.804-21.3L32.804-9.1C31.804-8.1 31.904-6.5 33.004-5.6ZM41.604-26.8L24.604-26.8C23.204-26.8 22.104-25.6 22.304-24.1C23.004-19.2 24.904-14.7 27.804-10.9C28.304-10.3 29.004-10 29.704-10C30.304-10 30.904-10.2 31.404-10.7L43.504-22.8C44.804-24.2 43.704-26.8 41.604-26.8ZM53.704-0.1C58.304-0.7 62.604-2.5 66.304-5.1C67.504-5.9 67.604-7.6 66.604-8.7L55.004-20.2C54.504-20.7 53.904-20.9 53.404-20.9C52.204-20.9 51.004-20 51.004-18.5L51.004-2.4C51.004-1.1 52.104 0 53.404 0C53.504-0.1 53.604-0.1 53.704-0.1ZM24.604-28.9L40.704-28.9C42.804-28.9 43.804-31.4 42.404-32.9L30.804-44.4C30.304-44.9 29.704-45.1 29.104-45.1C28.404-45.1 27.704-44.8 27.204-44.1C24.604-40.5 22.804-36.2 22.204-31.5C22.004-30.2 23.104-28.9 24.604-28.9ZM45.904-18.1L45.904-3.2C42.104-3.8 38.504-5.3 35.404-7.6L45.904-18.1ZM29.604-13.3C27.404-16.4 25.904-20 25.204-23.8L40.104-23.8L29.604-13.3ZM45.404-71.2C48.004-71.2 50.204-69.6 50.204-67.7C50.204-65.8 48.004-64.2 45.404-64.2C42.204-64.2 37.104-66.2 33.804-67.7C37.404-69.2 42.604-71.2 45.404-71.2ZM54.004-17.1L63.904-7.2C60.904-5.2 57.504-3.8 54.004-3.2L54.004-17.1ZM29.204-41.8L39.104-31.9L25.304-31.9C25.904-35.4 27.204-38.9 29.204-41.8Z"/>
  </g>
 </g>
</svg>
