<?xml version="1.0" encoding="UTF-8"?>
<!--Generator: Apple Native CoreSVG 175.5-->
<!DOCTYPE svg
PUBLIC "-//W3C//DTD SVG 1.1//EN"
       "http://www.w3.org/Graphics/SVG/1.1/DTD/svg11.dtd">
<svg version="1.1" xmlns="http://www.w3.org/2000/svg" xmlns:xlink="http://www.w3.org/1999/xlink" width="3300" height="2200">
 <!--glyph: "", point size: 100.0, font version: "18.0d12e2", template writer version: "101"-->
 <style>.monochrome-0 {fill:#000000}

.SFSymbolsPreview000000 {fill:#000000;opacity:1.0}
</style>
 <g id="Notes">
  <rect height="2200" id="artboard" style="fill:white;opacity:1" width="3300" x="0" y="0"/>
  <line style="fill:none;stroke:black;opacity:1;stroke-width:0.5;" x1="263" x2="3036" y1="292" y2="292"/>
  <text style="stroke:none;fill:black;font-family:sans-serif;font-size:13;font-weight:bold;" transform="matrix(1 0 0 1 263 322)">Weight/Scale Variations</text>
  <text style="stroke:none;fill:black;font-family:sans-serif;font-size:13;text-anchor:middle;" transform="matrix(1 0 0 1 559.711 322)">Ultralight</text>
  <text style="stroke:none;fill:black;font-family:sans-serif;font-size:13;text-anchor:middle;" transform="matrix(1 0 0 1 856.422 322)">Thin</text>
  <text style="stroke:none;fill:black;font-family:sans-serif;font-size:13;text-anchor:middle;" transform="matrix(1 0 0 1 1153.13 322)">Light</text>
  <text style="stroke:none;fill:black;font-family:sans-serif;font-size:13;text-anchor:middle;" transform="matrix(1 0 0 1 1449.84 322)">Regular</text>
  <text style="stroke:none;fill:black;font-family:sans-serif;font-size:13;text-anchor:middle;" transform="matrix(1 0 0 1 1746.56 322)">Medium</text>
  <text style="stroke:none;fill:black;font-family:sans-serif;font-size:13;text-anchor:middle;" transform="matrix(1 0 0 1 2043.27 322)">Semibold</text>
  <text style="stroke:none;fill:black;font-family:sans-serif;font-size:13;text-anchor:middle;" transform="matrix(1 0 0 1 2339.98 322)">Bold</text>
  <text style="stroke:none;fill:black;font-family:sans-serif;font-size:13;text-anchor:middle;" transform="matrix(1 0 0 1 2636.69 322)">Heavy</text>
  <text style="stroke:none;fill:black;font-family:sans-serif;font-size:13;text-anchor:middle;" transform="matrix(1 0 0 1 2933.4 322)">Black</text>
  <line style="fill:none;stroke:black;opacity:1;stroke-width:0.5;" x1="263" x2="3036" y1="1903" y2="1903"/>
  <g transform="matrix(1 0 0 1 263 1933)">
   <path d="M9.24805 0.830078C13.5547 0.830078 17.1387-2.74414 17.1387-7.05078C17.1387-11.3574 13.5449-14.9316 9.23828-14.9316C4.94141-14.9316 1.36719-11.3574 1.36719-7.05078C1.36719-2.74414 4.95117 0.830078 9.24805 0.830078ZM9.24805-0.654297C5.70312-0.654297 2.87109-3.49609 2.87109-7.05078C2.87109-10.6055 5.69336-13.4473 9.23828-13.4473C12.793-13.4473 15.6445-10.6055 15.6445-7.05078C15.6445-3.49609 12.8027-0.654297 9.24805-0.654297ZM5.6543-7.05078C5.6543-6.62109 5.95703-6.32812 6.40625-6.32812L8.50586-6.32812L8.50586-4.20898C8.50586-3.76953 8.79883-3.4668 9.22852-3.4668C9.67773-3.4668 9.9707-3.76953 9.9707-4.20898L9.9707-6.32812L12.0898-6.32812C12.5293-6.32812 12.832-6.62109 12.832-7.05078C12.832-7.49023 12.5293-7.79297 12.0898-7.79297L9.9707-7.79297L9.9707-9.90234C9.9707-10.3516 9.67773-10.6543 9.22852-10.6543C8.79883-10.6543 8.50586-10.3516 8.50586-9.90234L8.50586-7.79297L6.40625-7.79297C5.95703-7.79297 5.6543-7.49023 5.6543-7.05078Z"/>
  </g>
  <g transform="matrix(1 0 0 1 281.867 1933)">
   <path d="M11.709 2.91016C17.1582 2.91016 21.6699-1.61133 21.6699-7.05078C21.6699-12.5 17.1484-17.0117 11.6992-17.0117C6.25977-17.0117 1.74805-12.5 1.74805-7.05078C1.74805-1.61133 6.26953 2.91016 11.709 2.91016ZM11.709 1.25C7.09961 1.25 3.41797-2.44141 3.41797-7.05078C3.41797-11.6602 7.08984-15.3516 11.6992-15.3516C16.3086-15.3516 20.0098-11.6602 20.0098-7.05078C20.0098-2.44141 16.3184 1.25 11.709 1.25ZM7.17773-7.05078C7.17773-6.57227 7.50977-6.25 8.00781-6.25L10.8789-6.25L10.8789-3.36914C10.8789-2.88086 11.2109-2.53906 11.6895-2.53906C12.1777-2.53906 12.5195-2.87109 12.5195-3.36914L12.5195-6.25L15.4004-6.25C15.8887-6.25 16.2305-6.57227 16.2305-7.05078C16.2305-7.53906 15.8887-7.88086 15.4004-7.88086L12.5195-7.88086L12.5195-10.752C12.5195-11.25 12.1777-11.5918 11.6895-11.5918C11.2109-11.5918 10.8789-11.25 10.8789-10.752L10.8789-7.88086L8.00781-7.88086C7.50977-7.88086 7.17773-7.53906 7.17773-7.05078Z"/>
  </g>
  <g transform="matrix(1 0 0 1 305.646 1933)">
   <path d="M14.9707 5.66406C21.9336 5.66406 27.6953-0.0976562 27.6953-7.05078C27.6953-14.0137 21.9238-19.7754 14.9609-19.7754C8.00781-19.7754 2.25586-14.0137 2.25586-7.05078C2.25586-0.0976562 8.01758 5.66406 14.9707 5.66406ZM14.9707 3.84766C8.93555 3.84766 4.08203-1.01562 4.08203-7.05078C4.08203-13.0957 8.92578-17.9492 14.9609-17.9492C21.0059-17.9492 25.8691-13.0957 25.8691-7.05078C25.8691-1.01562 21.0156 3.84766 14.9707 3.84766ZM9.19922-7.05078C9.19922-6.5332 9.57031-6.17188 10.1172-6.17188L14.0625-6.17188L14.0625-2.2168C14.0625-1.67969 14.4336-1.29883 14.9512-1.29883C15.4883-1.29883 15.8594-1.66992 15.8594-2.2168L15.8594-6.17188L19.8145-6.17188C20.3516-6.17188 20.7324-6.5332 20.7324-7.05078C20.7324-7.59766 20.3613-7.96875 19.8145-7.96875L15.8594-7.96875L15.8594-11.9141C15.8594-12.4609 15.4883-12.8418 14.9512-12.8418C14.4336-12.8418 14.0625-12.4609 14.0625-11.9141L14.0625-7.96875L10.1172-7.96875C9.57031-7.96875 9.19922-7.59766 9.19922-7.05078Z"/>
  </g>
  <text style="stroke:none;fill:black;font-family:sans-serif;font-size:13;font-weight:bold;" transform="matrix(1 0 0 1 263 1953)">Design Variations</text>
  <text style="stroke:none;fill:black;font-family:sans-serif;font-size:13;" transform="matrix(1 0 0 1 263 1971)">Symbols are supported in up to nine weights and three scales.</text>
  <text style="stroke:none;fill:black;font-family:sans-serif;font-size:13;" transform="matrix(1 0 0 1 263 1989)">For optimal layout with text and other symbols, vertically align</text>
  <text style="stroke:none;fill:black;font-family:sans-serif;font-size:13;" transform="matrix(1 0 0 1 263 2007)">symbols with the adjacent text.</text>
  <line style="fill:none;stroke:#00AEEF;stroke-width:0.5;opacity:1.0;" x1="776" x2="776" y1="1919" y2="1933"/>
  <g transform="matrix(1 0 0 1 776 1933)">
   <path d="M3.31055 0.15625C3.82812 0.15625 4.08203-0.0390625 4.26758-0.585938L5.52734-4.0332L11.2891-4.0332L12.5488-0.585938C12.7344-0.0390625 12.9883 0.15625 13.4961 0.15625C14.0137 0.15625 14.3457-0.15625 14.3457-0.644531C14.3457-0.810547 14.3164-0.966797 14.2383-1.17188L9.6582-13.3691C9.43359-13.9648 9.0332-14.2676 8.4082-14.2676C7.80273-14.2676 7.39258-13.9746 7.17773-13.3789L2.59766-1.16211C2.51953-0.957031 2.49023-0.800781 2.49023-0.634766C2.49023-0.146484 2.80273 0.15625 3.31055 0.15625ZM6.00586-5.51758L8.37891-12.0898L8.42773-12.0898L10.8008-5.51758Z"/>
  </g>
  <line style="fill:none;stroke:#00AEEF;stroke-width:0.5;opacity:1.0;" x1="793.197" x2="793.197" y1="1919" y2="1933"/>
  <text style="stroke:none;fill:black;font-family:sans-serif;font-size:13;font-weight:bold;" transform="matrix(1 0 0 1 776 1953)">Margins</text>
  <text style="stroke:none;fill:black;font-family:sans-serif;font-size:13;" transform="matrix(1 0 0 1 776 1971)">Leading and trailing margins on the left and right side of each symbol</text>
  <text style="stroke:none;fill:black;font-family:sans-serif;font-size:13;" transform="matrix(1 0 0 1 776 1989)">can be adjusted by modifying the x-location of the margin guidelines.</text>
  <text style="stroke:none;fill:black;font-family:sans-serif;font-size:13;" transform="matrix(1 0 0 1 776 2007)">Modifications are automatically applied proportionally to all</text>
  <text style="stroke:none;fill:black;font-family:sans-serif;font-size:13;" transform="matrix(1 0 0 1 776 2025)">scales and weights.</text>
  <g transform="matrix(1 0 0 1 1289 1933)">
   <path d="M2.8418 1.86523L4.54102 3.57422C5.40039 4.44336 6.38672 4.38477 7.31445 3.35938L18.0078-8.42773L17.041-9.4043L6.42578 2.27539C6.07422 2.67578 5.74219 2.77344 5.27344 2.30469L4.10156 1.14258C3.63281 0.683594 3.74023 0.341797 4.14062-0.0195312L15.6152-10.8203L14.6387-11.7871L3.04688-0.898438C2.06055 0.0195312 1.98242 0.996094 2.8418 1.86523ZM9.25781-16.3281C8.83789-15.918 8.80859-15.3418 9.04297-14.9512C9.27734-14.5898 9.73633-14.3555 10.3809-14.5215C11.8457-14.8633 13.3691-14.9219 14.7949-13.9844L14.209-12.5293C13.8672-11.6992 14.043-11.1133 14.5801-10.5664L16.875-8.25195C17.3633-7.76367 17.7734-7.74414 18.3398-7.8418L19.4043-8.03711L20.0684-7.36328L20.0293-6.80664C19.9902-6.30859 20.1172-5.92773 20.6055-5.44922L21.3672-4.70703C21.8457-4.22852 22.4609-4.19922 22.9297-4.66797L25.8398-7.58789C26.3086-8.05664 26.2891-8.65234 25.8105-9.13086L25.0391-9.89258C24.5605-10.3711 24.1895-10.5273 23.7109-10.4883L23.1348-10.4395L22.4902-11.0742L22.7344-12.1973C22.8613-12.7637 22.7051-13.2031 22.1191-13.7891L19.9219-15.9766C16.582-19.2969 12.1484-19.2188 9.25781-16.3281ZM10.752-15.957C13.1836-17.7344 16.4746-17.4316 18.7012-15.2051L21.1328-12.793C21.3672-12.5586 21.4062-12.373 21.3379-12.0312L21.0156-10.5469L22.5195-9.0625L23.5059-9.12109C23.7598-9.13086 23.8379-9.11133 24.0332-8.91602L24.6094-8.33984L22.168-5.89844L21.5918-6.47461C21.3965-6.66992 21.3672-6.74805 21.377-7.01172L21.4453-7.98828L19.9512-9.47266L18.4277-9.21875C18.1055-9.15039 17.959-9.17969 17.7148-9.41406L15.7129-11.416C15.459-11.6504 15.4297-11.8164 15.5859-12.1875L16.4648-14.2773C14.9023-15.7324 12.8711-16.3574 10.8398-15.7617C10.6836-15.7227 10.625-15.8496 10.752-15.957Z"/>
  </g>
  <text style="stroke:none;fill:black;font-family:sans-serif;font-size:13;font-weight:bold;" transform="matrix(1 0 0 1 1289 1953)">Exporting</text>
  <text style="stroke:none;fill:black;font-family:sans-serif;font-size:13;" transform="matrix(1 0 0 1 1289 1971)">Symbols should be outlined when exporting to ensure the</text>
  <text style="stroke:none;fill:black;font-family:sans-serif;font-size:13;" transform="matrix(1 0 0 1 1289 1989)">design is preserved when submitting to Xcode.</text>
  <text id="template-version" style="stroke:none;fill:black;font-family:sans-serif;font-size:13;text-anchor:end;" transform="matrix(1 0 0 1 3036 1933)">Template v.4.0</text>
  <text style="stroke:none;fill:black;font-family:sans-serif;font-size:13;text-anchor:end;" transform="matrix(1 0 0 1 3036 1951)">Requires Xcode 14 or greater</text>
  <text id="descriptive-name" style="stroke:none;fill:black;font-family:sans-serif;font-size:13;text-anchor:end;" transform="matrix(1 0 0 1 3036 1969)">Generated from case.beer</text>
  <text style="stroke:none;fill:black;font-family:sans-serif;font-size:13;text-anchor:end;" transform="matrix(1 0 0 1 3036 1987)">Typeset at 100 points</text>
  <text style="stroke:none;fill:black;font-family:sans-serif;font-size:13;" transform="matrix(1 0 0 1 263 726)">Small</text>
  <text style="stroke:none;fill:black;font-family:sans-serif;font-size:13;" transform="matrix(1 0 0 1 263 1156)">Medium</text>
  <text style="stroke:none;fill:black;font-family:sans-serif;font-size:13;" transform="matrix(1 0 0 1 263 1586)">Large</text>
 </g>
 <g id="Guides">
  <g id="H-reference" style="fill:#27AAE1;stroke:none;" transform="matrix(1 0 0 1 339 696)">
   <path d="M0.993654 0L3.63775 0L29.3281-67.1323L30.0303-67.1323L30.0303-70.459L28.1226-70.459ZM11.6885-24.4799L46.9815-24.4799L46.2315-26.7285L12.4385-26.7285ZM55.1196 0L57.7637 0L30.6382-70.459L29.4326-70.459L29.4326-67.1323Z"/>
  </g>
  <line id="Baseline-S" style="fill:none;stroke:#27AAE1;opacity:1;stroke-width:0.5;" x1="263" x2="3036" y1="696" y2="696"/>
  <line id="Capline-S" style="fill:none;stroke:#27AAE1;opacity:1;stroke-width:0.5;" x1="263" x2="3036" y1="625.541" y2="625.541"/>
  <g id="H-reference" style="fill:#27AAE1;stroke:none;" transform="matrix(1 0 0 1 339 1126)">
   <path d="M0.993654 0L3.63775 0L29.3281-67.1323L30.0303-67.1323L30.0303-70.459L28.1226-70.459ZM11.6885-24.4799L46.9815-24.4799L46.2315-26.7285L12.4385-26.7285ZM55.1196 0L57.7637 0L30.6382-70.459L29.4326-70.459L29.4326-67.1323Z"/>
  </g>
  <line id="Baseline-M" style="fill:none;stroke:#27AAE1;opacity:1;stroke-width:0.5;" x1="263" x2="3036" y1="1126" y2="1126"/>
  <line id="Capline-M" style="fill:none;stroke:#27AAE1;opacity:1;stroke-width:0.5;" x1="263" x2="3036" y1="1055.54" y2="1055.54"/>
  <g id="H-reference" style="fill:#27AAE1;stroke:none;" transform="matrix(1 0 0 1 339 1556)">
   <path d="M0.993654 0L3.63775 0L29.3281-67.1323L30.0303-67.1323L30.0303-70.459L28.1226-70.459ZM11.6885-24.4799L46.9815-24.4799L46.2315-26.7285L12.4385-26.7285ZM55.1196 0L57.7637 0L30.6382-70.459L29.4326-70.459L29.4326-67.1323Z"/>
  </g>
  <line id="Baseline-L" style="fill:none;stroke:#27AAE1;opacity:1;stroke-width:0.5;" x1="263" x2="3036" y1="1556" y2="1556"/>
  <line id="Capline-L" style="fill:none;stroke:#27AAE1;opacity:1;stroke-width:0.5;" x1="263" x2="3036" y1="1485.54" y2="1485.54"/>
  <line id="left-margin-Ultralight-S" style="fill:none;stroke:#00AEEF;stroke-width:0.5;opacity:1.0;" x1="516.611" x2="516.611" y1="600.785" y2="720.121"/>
  <line id="right-margin-Ultralight-S" style="fill:none;stroke:#00AEEF;stroke-width:0.5;opacity:1.0;" x1="602.811" x2="602.811" y1="600.785" y2="720.121"/>
  <line id="left-margin-Regular-S" style="fill:none;stroke:#00AEEF;stroke-width:0.5;opacity:1.0;" x1="1400.89" x2="1400.89" y1="600.785" y2="720.121"/>
  <line id="right-margin-Regular-S" style="fill:none;stroke:#00AEEF;stroke-width:0.5;opacity:1.0;" x1="1498.79" x2="1498.79" y1="600.785" y2="720.121"/>
  <line id="left-margin-Black-S" style="fill:none;stroke:#00AEEF;stroke-width:0.5;opacity:1.0;" x1="2881.6" x2="2881.6" y1="600.785" y2="720.121"/>
  <line id="right-margin-Black-S" style="fill:none;stroke:#00AEEF;stroke-width:0.5;opacity:1.0;" x1="2985.2" x2="2985.2" y1="600.785" y2="720.121"/>
 </g>
 <g id="Symbols">
  <g id="Black-S" transform="matrix(1 0 0 1 2881.6 696)">
   <path class="monochrome-0 SFSymbolsPreview000000" d="M83.72-33.9L78.82-33.9L78.82-34.5L78.82-36.4L78.82-38.8C78.82-42.3 75.92-45.2 72.42-45.2C71.62-45.2 70.82-45 70.12-44.8C68.62-47 66.12-48.5 63.22-48.5C60.32-48.5 57.82-47 56.32-44.8C55.62-45.1 54.82-45.2 54.02-45.2C50.52-45.2 47.62-42.3 47.62-38.8L47.62-36.4L47.62-34.5L47.62 3.7C47.62 6.3 49.72 8.4 52.32 8.4L74.32 8.4C76.92 8.4 79.02 6.3 79.02 3.7L79.02-3.6L87.22-8.2C89.72-9.6 91.32-12.3 91.32-15.2L91.32-26.5C91.22-30.6 87.82-33.9 83.72-33.9ZM35.62-44.7C34.72-45.4 34.22-46.5 34.12-47.7L32.72-70.5L20.12-70.5L18.72-47.7C18.62-46.6 18.12-45.5 17.22-44.7C14.22-42.3 12.32-38.6 12.32-34.7L12.32 5.8C12.32 7.2 13.52 8.4 14.92 8.4L37.92 8.4C39.32 8.4 40.52 7.2 40.52 5.8L40.52-34.7C40.52-38.6 38.72-42.3 35.62-44.7ZM36.82 4.7L16.12 4.7L16.12-34.6C16.12-37.4 17.42-40 19.52-41.7C21.22-43 22.32-45.1 22.42-47.4L23.62-66.7L29.22-66.7L30.42-47.4C30.52-45.1 31.62-43.1 33.32-41.7C35.52-40 36.72-37.4 36.72-34.6L36.72 4.7ZM33.92-5.4C33.92-4.6 33.32-4 32.52-4L20.42-4C19.62-4 19.02-4.6 19.02-5.4L19.02-28.8C19.02-29.6 19.62-30.2 20.42-30.2L32.62-30.2C33.42-30.2 34.02-29.6 34.02-28.8L34.02-5.4ZM78.92-30.2L83.82-30.2C85.92-30.2 87.52-28.5 87.52-26.5L87.52-15.2C87.52-13.6 86.72-12.2 85.32-11.4L78.92-7.8L78.92-30.2ZM51.32-27.2L51.32-34.5L62.62-34.5C63.22-32.1 65.32-30.3 67.92-30.3C70.52-30.3 72.62-32.1 73.22-34.5L75.12-34.5L75.12-27.2L51.32-27.2ZM51.32-38.7C51.32-39.7 51.82-40.7 52.72-41.2C53.42-41.6 54.22-41.6 54.92-41.3L56.52-40.7C57.22-40.4 58.02-40.7 58.52-41.3L59.42-42.6C60.02-43.5 60.82-44.2 61.82-44.5C63.82-45.1 65.92-44.4 67.02-42.7L67.92-41.3C68.32-40.7 69.12-40.4 69.92-40.7L71.52-41.3C72.32-41.6 73.12-41.5 73.92-41.1C74.72-40.6 75.12-39.7 75.12-38.7L75.12-38.2L73.22-38.2L71.22-38.2C70.62-38.2 70.12-37.8 70.02-37.3L69.52-35.4C69.32-34.6 68.62-34.1 67.82-34.1C67.02-34.1 66.32-34.6 66.12-35.4L65.62-37.3C65.52-37.8 65.02-38.2 64.42-38.2L62.42-38.2L60.12-38.2L54.62-38.2L51.02-38.2L51.32-38.7ZM20.72-74.1L32.22-74.1C33.12-74.1 33.82-74.8 33.82-75.7L33.82-77.4C33.82-78.3 33.12-79 32.22-79L20.72-79C19.82-79 19.12-78.3 19.12-77.4L19.12-75.7C19.12-74.8 19.82-74.1 20.72-74.1Z"/>
  </g>
  <g id="Regular-S" transform="matrix(1 0 0 1 1400.89 696)">
   <path class="monochrome-0 SFSymbolsPreview000000" d="M78.91-34.1L74.31-34.1L74.31-34.7L74.31-36.5L74.31-38.8C74.31-42.1 71.61-44.8 68.31-44.8C67.51-44.8 66.81-44.6 66.11-44.4C64.71-46.5 62.31-47.8 59.61-47.8C56.91-47.8 54.51-46.4 53.11-44.4C52.41-44.7 51.71-44.8 50.91-44.8C47.61-44.8 44.91-42.1 44.91-38.8L44.91-36.5L44.91-34.7L44.91 1.3C44.91 3.7 46.91 5.7 49.31 5.7L70.01 5.7C72.41 5.7 74.41 3.7 74.41 1.3L74.41-5.5L82.11-9.8C84.51-11.1 86.01-13.7 86.01-16.4L86.01-27C86.01-30.9 82.81-34.1 78.91-34.1ZM33.81-44.2C33.01-44.9 32.51-45.9 32.41-47L31.11-68.4L19.21-68.4L17.91-47C17.81-45.9 17.41-44.9 16.51-44.2C13.71-42 11.91-38.5 11.91-34.8L11.91 3.2C11.91 4.5 13.01 5.6 14.31 5.6L35.91 5.6C37.21 5.6 38.31 4.5 38.31 3.2L38.31-34.8C38.31-38.5 36.61-41.9 33.81-44.2ZM34.81 2.2L15.41 2.2L15.41-34.7C15.41-37.3 16.61-39.7 18.61-41.4C20.21-42.7 21.21-44.6 21.31-46.7L22.41-64.8L27.61-64.8L28.71-46.7C28.81-44.6 29.81-42.6 31.41-41.4C33.51-39.8 34.61-37.3 34.61-34.7L34.61 2.2ZM32.21-7.3C32.21-6.6 31.61-6 30.91-6L19.41-6C18.71-6 18.11-6.6 18.11-7.3L18.11-29.3C18.11-30 18.71-30.6 19.41-30.6L30.81-30.6C31.51-30.6 32.11-30 32.11-29.3L32.11-7.3ZM74.41-30.6L79.01-30.6C80.91-30.6 82.51-29 82.51-27.1L82.51-16.5C82.51-15 81.71-13.7 80.41-12.9L74.41-9.5L74.41-30.6ZM48.51-27.7L48.51-34.6L59.11-34.6C59.61-32.4 61.71-30.7 64.11-30.7C66.51-30.7 68.51-32.4 69.11-34.6L70.91-34.6L70.91-27.7L48.51-27.7ZM48.51-38.6C48.51-39.6 49.01-40.5 49.81-41C50.51-41.4 51.21-41.4 51.91-41.1L53.41-40.5C54.11-40.2 54.81-40.5 55.21-41.1L56.01-42.3C56.61-43.1 57.31-43.8 58.31-44.1C60.21-44.7 62.21-44 63.21-42.4L64.11-41.1C64.51-40.5 65.31-40.3 65.91-40.5L67.41-41.1C68.11-41.4 68.91-41.3 69.61-40.9C70.41-40.4 70.81-39.6 70.81-38.7L70.81-38.2L69.01-38.2L67.11-38.2C66.61-38.2 66.11-37.8 66.01-37.3L65.61-35.5C65.41-34.8 64.81-34.3 64.01-34.3C63.31-34.3 62.61-34.8 62.41-35.5L62.01-37.3C61.91-37.8 61.41-38.2 60.91-38.2L59.01-38.2L57.01-38.2L51.91-38.2L48.51-38.2L48.51-38.6ZM19.71-71.8L30.51-71.8C31.31-71.8 32.01-72.5 32.01-73.3L32.01-74.9C32.01-75.7 31.31-76.4 30.51-76.4L19.71-76.4C18.91-76.4 18.21-75.7 18.21-74.9L18.21-73.3C18.31-72.4 18.91-71.8 19.71-71.8Z"/>
  </g>
  <g id="Ultralight-S" transform="matrix(1 0 0 1 516.611 696)">
   <path class="monochrome-0 SFSymbolsPreview000000" d="M70.449-34.1L66.249-34.1L66.249-34.6L66.249-36.2L66.249-38.3C66.249-41.3 63.749-43.8 60.749-43.8C60.049-43.8 59.349-43.7 58.749-43.4C57.449-45.3 55.249-46.5 52.849-46.5C50.349-46.5 48.249-45.3 46.949-43.4C46.349-43.6 45.649-43.8 44.949-43.8C41.949-43.8 39.449-41.3 39.449-38.3L39.449-36.2L39.449-34.6L39.449-1.8C39.449 0.4 41.249 2.2 43.449 2.2L62.249 2.2C64.449 2.2 66.249 0.4 66.249-1.8L66.249-8L73.249-12C75.449-13.2 76.749-15.5 76.749-18L76.749-27.7C76.849-31.2 74.049-34.1 70.449-34.1ZM29.249-43.3C28.449-43.9 28.049-44.9 27.949-45.8L26.749-65.3L15.949-65.3L14.749-45.8C14.649-44.8 14.249-43.9 13.449-43.3C10.849-41.3 9.249-38.1 9.249-34.7L9.249 0C9.249 1.2 10.249 2.2 11.449 2.2L31.149 2.2C32.349 2.2 33.349 1.2 33.349 0L33.349-34.7C33.449-38.1 31.849-41.3 29.249-43.3ZM30.249-1.1L12.549-1.1L12.549-34.8C12.549-37.2 13.649-39.4 15.449-40.9C16.949-42.1 17.849-43.8 17.949-45.8L18.949-62.3L23.749-62.3L24.749-45.8C24.849-43.9 25.749-42.1 27.249-40.9C29.149-39.4 30.149-37.2 30.149-34.8L30.149-1.1ZM27.849-9.6C27.849-8.9 27.349-8.4 26.649-8.4L16.149-8.4C15.449-8.4 14.949-8.9 14.949-9.6L14.949-29.6C14.949-30.3 15.449-30.8 16.149-30.8L26.549-30.8C27.249-30.8 27.749-30.3 27.749-29.6L27.749-9.6ZM66.349-30.9L70.549-30.9C72.349-30.9 73.749-29.5 73.749-27.7L73.749-18C73.749-16.7 73.049-15.4 71.849-14.8L66.349-11.7L66.349-30.9ZM42.749-28.3L42.749-34.6L52.449-34.6C52.949-32.6 54.749-31 56.949-31C59.149-31 60.949-32.5 61.449-34.6L63.049-34.6L63.049-28.3L42.749-28.3ZM42.749-38.2C42.749-39.1 43.149-39.9 43.949-40.3C44.549-40.6 45.249-40.7 45.849-40.4L47.149-39.9C47.749-39.7 48.449-39.9 48.849-40.4L49.549-41.5C50.049-42.3 50.749-42.9 51.649-43.1C53.349-43.6 55.149-43 56.149-41.6L56.949-40.4C57.349-39.9 58.049-39.6 58.649-39.9L59.949-40.4C60.649-40.7 61.349-40.6 61.949-40.2C62.649-39.8 63.049-39 63.049-38.2L63.049-37.8L61.449-37.8L59.749-37.8C59.249-37.8 58.849-37.5 58.749-37L58.349-35.4C58.149-34.7 57.649-34.3 56.949-34.3C56.249-34.3 55.649-34.8 55.549-35.4L55.149-37C55.049-37.5 54.649-37.8 54.149-37.8L52.449-37.8L50.449-37.8L45.749-37.8L42.649-37.8L42.649-38.2ZM16.449-68.5L26.249-68.5C26.949-68.5 27.549-69.1 27.549-69.8L27.549-71.3C27.549-72 26.949-72.6 26.249-72.6L16.449-72.6C15.749-72.6 15.149-72 15.149-71.3L15.149-69.8C15.149-69.1 15.749-68.5 16.449-68.5Z"/>
  </g>
 </g>
</svg>
