<?xml version="1.0" encoding="utf-8"?>
<!-- Generator: Adobe Illustrator 27.0.0, SVG Export Plug-In . SVG Version: 6.00 Build 0)  -->
<svg version="1.1" id="Layer_1" xmlns="http://www.w3.org/2000/svg" xmlns:xlink="http://www.w3.org/1999/xlink" x="0px" y="0px"
	 viewBox="0 0 3300 2200" style="enable-background:new 0 0 3300 2200;" xml:space="preserve">
<style type="text/css">
	.st0{fill:#FFFFFF;}
	.st1{fill:none;stroke:#000000;stroke-width:0.5;}
	.st2{font-family:'Helvetica-Bold';}
	.st3{font-size:13px;}
	.st4{font-family:'Helvetica';}
	.st5{fill:none;stroke:#00AEEF;stroke-width:0.5;}
	.st6{fill:#27AAE1;}
	.st7{fill:none;stroke:#27AAE1;stroke-width:0.5;}
</style>
<g id="Notes">
	<rect id="artboard" class="st0" width="3300" height="2200"/>
	<line class="st1" x1="263" y1="292" x2="3036" y2="292"/>
	<text transform="matrix(1 0 0 1 263 322)" class="st2 st3">Weight/Scale Variations</text>
	<text transform="matrix(1 0 0 1 534.0633 322)" class="st4 st3">Ultralight</text>
	<text transform="matrix(1 0 0 1 843.7775 322)" class="st4 st3">Thin</text>
	<text transform="matrix(1 0 0 1 1139.035 322)" class="st4 st3">Light</text>
	<text transform="matrix(1 0 0 1 1427.0773 322)" class="st4 st3">Regular</text>
	<text transform="matrix(1 0 0 1 1723.4419 322)" class="st4 st3">Medium</text>
	<text transform="matrix(1 0 0 1 2016.1719 322)" class="st4 st3">Semibold</text>
	<text transform="matrix(1 0 0 1 2326.9705 322)" class="st4 st3">Bold</text>
	<text transform="matrix(1 0 0 1 2618.2659 322)" class="st4 st3">Heavy</text>
	<text transform="matrix(1 0 0 1 2917.5054 322)" class="st4 st3">Black</text>
	<line class="st1" x1="263" y1="1903" x2="3036" y2="1903"/>
	<g transform="matrix(1 0 0 1 263 1933)">
		<path d="M9.2,0.8c4.3,0,7.9-3.6,7.9-7.9c0-4.3-3.6-7.9-7.9-7.9c-4.3,0-7.9,3.6-7.9,7.9C1.4-2.7,5,0.8,9.2,0.8z M9.2-0.7
			c-3.5,0-6.4-2.8-6.4-6.4c0-3.6,2.8-6.4,6.4-6.4c3.6,0,6.4,2.8,6.4,6.4C15.6-3.5,12.8-0.7,9.2-0.7z M5.7-7.1c0,0.4,0.3,0.7,0.8,0.7
			h2.1v2.1c0,0.4,0.3,0.7,0.7,0.7c0.4,0,0.7-0.3,0.7-0.7v-2.1h2.1c0.4,0,0.7-0.3,0.7-0.7c0-0.4-0.3-0.7-0.7-0.7H10v-2.1
			c0-0.4-0.3-0.8-0.7-0.8c-0.4,0-0.7,0.3-0.7,0.8v2.1H6.4C6-7.8,5.7-7.5,5.7-7.1z"/>
	</g>
	<g transform="matrix(1 0 0 1 281.867 1933)">
		<path d="M11.7,2.9c5.4,0,10-4.5,10-10c0-5.4-4.5-10-10-10c-5.4,0-10,4.5-10,10C1.7-1.6,6.3,2.9,11.7,2.9z M11.7,1.2
			c-4.6,0-8.3-3.7-8.3-8.3c0-4.6,3.7-8.3,8.3-8.3c4.6,0,8.3,3.7,8.3,8.3C20-2.4,16.3,1.2,11.7,1.2z M7.2-7.1c0,0.5,0.3,0.8,0.8,0.8
			h2.9v2.9c0,0.5,0.3,0.8,0.8,0.8c0.5,0,0.8-0.3,0.8-0.8v-2.9h2.9c0.5,0,0.8-0.3,0.8-0.8c0-0.5-0.3-0.8-0.8-0.8h-2.9v-2.9
			c0-0.5-0.3-0.8-0.8-0.8c-0.5,0-0.8,0.3-0.8,0.8v2.9H8C7.5-7.9,7.2-7.5,7.2-7.1z"/>
	</g>
	<g transform="matrix(1 0 0 1 305.646 1933)">
		<path d="M15,5.7c7,0,12.7-5.8,12.7-12.7c0-7-5.8-12.7-12.7-12.7C8-19.8,2.3-14,2.3-7.1C2.3-0.1,8,5.7,15,5.7z M15,3.8
			C8.9,3.8,4.1-1,4.1-7.1c0-6,4.8-10.9,10.9-10.9c6,0,10.9,4.9,10.9,10.9C25.9-1,21,3.8,15,3.8z M9.2-7.1c0,0.5,0.4,0.9,0.9,0.9h3.9
			v4c0,0.5,0.4,0.9,0.9,0.9c0.5,0,0.9-0.4,0.9-0.9v-4h4c0.5,0,0.9-0.4,0.9-0.9c0-0.5-0.4-0.9-0.9-0.9h-4v-3.9c0-0.5-0.4-0.9-0.9-0.9
			c-0.5,0-0.9,0.4-0.9,0.9V-8h-3.9C9.6-8,9.2-7.6,9.2-7.1z"/>
	</g>
	<text transform="matrix(1 0 0 1 263 1953)" class="st2 st3">Design Variations</text>
	<text transform="matrix(1 0 0 1 263 1971)" class="st4 st3">Symbols are supported in up to nine weights and three scales.</text>
	<text transform="matrix(1 0 0 1 263 1989)" class="st4 st3">For optimal layout with text and other symbols, vertically align</text>
	<text transform="matrix(1 0 0 1 263 2007)" class="st4 st3">symbols with the adjacent text.</text>
	<line class="st5" x1="776" y1="1919" x2="776" y2="1933"/>
	<g transform="matrix(1 0 0 1 776 1933)">
		<path d="M3.3,0.2c0.5,0,0.8-0.2,1-0.7L5.5-4h5.8l1.3,3.4C12.7,0,13,0.2,13.5,0.2c0.5,0,0.8-0.3,0.8-0.8c0-0.2,0-0.3-0.1-0.5
			L9.7-13.4C9.4-14,9-14.3,8.4-14.3c-0.6,0-1,0.3-1.2,0.9L2.6-1.2C2.5-1,2.5-0.8,2.5-0.6C2.5-0.1,2.8,0.2,3.3,0.2z M6-5.5l2.4-6.6h0
			l2.4,6.6H6z"/>
	</g>
	<line class="st5" x1="793.2" y1="1919" x2="793.2" y2="1933"/>
	<text transform="matrix(1 0 0 1 776 1953)" class="st2 st3">Margins</text>
	<text transform="matrix(1 0 0 1 776 1971)" class="st4 st3">Leading and trailing margins on the left and right side of each symbol</text>
	<text transform="matrix(1 0 0 1 776 1989)" class="st4 st3">can be adjusted by modifying the x-location of the margin guidelines.</text>
	<text transform="matrix(1 0 0 1 776 2007)" class="st4 st3">Modifications are automatically applied proportionally to all</text>
	<text transform="matrix(1 0 0 1 776 2025)" class="st4 st3">scales and weights.</text>
	<g transform="matrix(1 0 0 1 1289 1933)">
		<path d="M2.8,1.9l1.7,1.7c0.9,0.9,1.8,0.8,2.8-0.2L18-8.4l-1-1L6.4,2.3c-0.4,0.4-0.7,0.5-1.2,0L4.1,1.1C3.6,0.7,3.7,0.3,4.1,0
			l11.5-10.8l-1-1L3-0.9C2.1,0,2,1,2.8,1.9z M9.3-16.3c-0.4,0.4-0.4,1-0.2,1.4c0.2,0.4,0.7,0.6,1.3,0.4c1.5-0.3,3-0.4,4.4,0.5
			l-0.6,1.5c-0.3,0.8-0.2,1.4,0.4,2l2.3,2.3c0.5,0.5,0.9,0.5,1.5,0.4L19.4-8l0.7,0.7l0,0.6c0,0.5,0.1,0.9,0.6,1.4l0.8,0.7
			c0.5,0.5,1.1,0.5,1.6,0l2.9-2.9c0.5-0.5,0.4-1.1,0-1.5L25-9.9c-0.5-0.5-0.8-0.6-1.3-0.6l-0.6,0l-0.6-0.6l0.2-1.1
			c0.1-0.6,0-1-0.6-1.6L19.9-16C16.6-19.3,12.1-19.2,9.3-16.3z M10.8-16c2.4-1.8,5.7-1.5,7.9,0.8l2.4,2.4c0.2,0.2,0.3,0.4,0.2,0.8
			L21-10.5l1.5,1.5l1-0.1c0.3,0,0.3,0,0.5,0.2l0.6,0.6l-2.4,2.4l-0.6-0.6c-0.2-0.2-0.2-0.3-0.2-0.5l0.1-1L20-9.5l-1.5,0.3
			c-0.3,0.1-0.5,0-0.7-0.2l-2-2c-0.3-0.2-0.3-0.4-0.1-0.8l0.9-2.1c-1.6-1.5-3.6-2.1-5.6-1.5C10.7-15.7,10.6-15.8,10.8-16z"/>
	</g>
	<text transform="matrix(1 0 0 1 1289 1953)" class="st2 st3">Exporting</text>
	<text transform="matrix(1 0 0 1 1289 1971)" class="st4 st3">Symbols should be outlined when exporting to ensure the</text>
	<text transform="matrix(1 0 0 1 1289 1989)" class="st4 st3">design is preserved when submitting to Xcode.</text>
	<text id="template-version" transform="matrix(1 0 0 1 2952.4141 1933)" class="st4 st3">Template v.4.0</text>
	<text transform="matrix(1 0 0 1 2865.4575 1951)" class="st4 st3">Requires Xcode 14 or greater</text>
	<text id="descriptive-name" transform="matrix(1 0 0 1 2858.9829 1969)" class="st4 st3">Generated from case.bitters.fill</text>
	<text transform="matrix(1 0 0 1 2912.4111 1987)" class="st4 st3">Typeset at 100 points</text>
	<text transform="matrix(1 0 0 1 263 726)" class="st4 st3">Small</text>
	<text transform="matrix(1 0 0 1 263 1156)" class="st4 st3">Medium</text>
	<text transform="matrix(1 0 0 1 263 1586)" class="st4 st3">Large</text>
</g>
<g id="Guides">
	<g id="H-reference" transform="matrix(1 0 0 1 339 696)">
		<path class="st6" d="M1,0h2.6l25.7-67.1H30v-3.3h-1.9L1,0z M11.7-24.5H47l-0.8-2.2H12.4L11.7-24.5z M55.1,0h2.6L30.6-70.5h-1.2
			v3.3L55.1,0z"/>
	</g>
	<line id="Baseline-S" class="st7" x1="263" y1="696" x2="3036" y2="696"/>
	<line id="Capline-S" class="st7" x1="263" y1="625.5" x2="3036" y2="625.5"/>
	<g id="H-reference_00000025403720631897164600000000171815080720762801_" transform="matrix(1 0 0 1 339 1126)">
		<path class="st6" d="M1,0h2.6l25.7-67.1H30v-3.3h-1.9L1,0z M11.7-24.5H47l-0.8-2.2H12.4L11.7-24.5z M55.1,0h2.6L30.6-70.5h-1.2
			v3.3L55.1,0z"/>
	</g>
	<line id="Baseline-M" class="st7" x1="263" y1="1126" x2="3036" y2="1126"/>
	<line id="Capline-M" class="st7" x1="263" y1="1055.5" x2="3036" y2="1055.5"/>
	<g id="H-reference_00000075857113166148749780000012288930398626376628_" transform="matrix(1 0 0 1 339 1556)">
		<path class="st6" d="M1,0h2.6l25.7-67.1H30v-3.3h-1.9L1,0z M11.7-24.5H47l-0.8-2.2H12.4L11.7-24.5z M55.1,0h2.6L30.6-70.5h-1.2
			v3.3L55.1,0z"/>
	</g>
	<line id="Baseline-L" class="st7" x1="263" y1="1556" x2="3036" y2="1556"/>
	<line id="Capline-L" class="st7" x1="263" y1="1485.5" x2="3036" y2="1485.5"/>
	<line id="left-margin-Ultralight-S" class="st5" x1="516.8" y1="600.8" x2="516.8" y2="720.1"/>
	<line id="right-margin-Ultralight-S" class="st5" x1="602.6" y1="600.8" x2="602.6" y2="720.1"/>
	<line id="left-margin-Regular-S" class="st5" x1="1403.2" y1="600.8" x2="1403.2" y2="720.1"/>
	<line id="right-margin-Regular-S" class="st5" x1="1496.5" y1="600.8" x2="1496.5" y2="720.1"/>
	<line id="left-margin-Black-S" class="st5" x1="2883.7" y1="600.8" x2="2883.7" y2="720.1"/>
	<line id="right-margin-Black-S" class="st5" x1="2983.1" y1="600.8" x2="2983.1" y2="720.1"/>
</g>
<g id="Symbols">
	<g id="Black-S" transform="matrix(1 0 0 1 2883.7 696)">
		<g>
			<g>
				<g>
					<path d="M25.7-60.8h12.7c0.8,0,1.4-0.7,1.3-1.5l-1.5-10.5C38.1-74.1,37-75,35.6-75h-7.2c-1.3,0-2.4,1-2.6,2.3l-1.5,10.5
						C24.2-61.5,24.8-60.8,25.7-60.8z"/>
					<path d="M38.7-46.6l-0.9-10.8H26.2l-0.9,10.8h-6.8V0.5c0,2.2,1.8,4,4,4h18.9c2.2,0,4-1.8,4-4v-47.1H38.7z M37.9-9
						C37.9-8,37-7.1,36-7.1h-7.9C27-7.1,26.2-8,26.2-9v-28.1c0-1.1,0.9-1.9,1.9-1.9H36c1.1,0,1.9,0.9,1.9,1.9V-9z"/>
				</g>
			</g>
			<path d="M79.3-13.6l-4-4.6c-1.4-1.6-2.5-3.5-3.2-5.5c-0.7-2-1.1-4-1.1-6.1V-45v-8.3v-3.5c0-0.6-0.5-1.1-1.1-1.1h-1.7l-0.8-9.5
				c0-0.5-0.5-0.9-1-0.9s-1,0.4-1,0.9l-0.8,9.5h-1.7c-0.6,0-1.1,0.5-1.1,1.1v3.5v8.3v15.1c0,2.1-0.4,4.2-1.1,6.1
				c-0.7,2-1.8,3.9-3.2,5.5l-4,4.6c-1.8,2.1-2.2,5.1-0.9,7.6l4.7,9.2c0.4,0.8,1.3,1.3,2.2,1.3h13.8c0.9,0,1.8-0.5,2.2-1.3L80.2-6
				C81.5-8.5,81.1-11.5,79.3-13.6z M58-13.1l2.3-2.7c1.7-2,3-4.2,3.9-6.6c0.9-2.4,1.3-4.9,1.3-7.4V-45h1.8v15.1c0,2.5,0.4,5,1.3,7.4
				c0.9,2.4,2.2,4.6,3.9,6.6l2.3,2.7H58z"/>
		</g>
	</g>
	<g id="Regular-S" transform="matrix(1 0 0 1 1403.19 696)">
		<g>
			<g>
				<g>
					<path d="M24-59.5h12.1c0.8,0,1.3-0.7,1.2-1.4L36-70.8c-0.2-1.2-1.2-2.2-2.5-2.2h-6.8c-1.2,0-2.3,0.9-2.5,2.2l-1.4,9.9
						C22.7-60.2,23.3-59.5,24-59.5z"/>
					<path d="M36.4-46.1l-0.8-10.2h-11l-0.8,10.2h-6.4v44.6c0,2.1,1.7,3.8,3.8,3.8H39c2.1,0,3.8-1.7,3.8-3.8v-44.6H36.4z M35.6-10.6
						c0,1-0.8,1.8-1.8,1.8h-7.4c-1,0-1.8-0.8-1.8-1.8v-26.6c0-1,0.8-1.8,1.8-1.8h7.4c1,0,1.8,0.8,1.8,1.8V-10.6z"/>
				</g>
			</g>
			<path d="M74.8-14.9l-3.7-4.4c-1.3-1.5-2.3-3.3-3-5.2c-0.7-1.9-1-3.8-1-5.8v-14.3v-7.8v-3.3c0-0.6-0.5-1-1-1h-1.6l-0.8-9
				c0-0.5-0.5-0.9-0.9-0.9s-0.9,0.4-0.9,0.9l-0.8,9h-1.6c-0.6,0-1,0.5-1,1v3.3v7.8v14.3c0,2-0.3,3.9-1,5.8c-0.7,1.9-1.7,3.6-3,5.2
				l-3.7,4.4c-1.7,2-2.1,4.9-0.9,7.2L54,1c0.4,0.8,1.2,1.3,2.1,1.3h13.1c0.9,0,1.7-0.5,2.1-1.3l4.4-8.7
				C76.9-10.1,76.5-12.9,74.8-14.9z M54.7-14.5l2.2-2.6c1.6-1.9,2.8-4,3.7-6.3c0.8-2.3,1.2-4.6,1.2-7v-14.3h1.7v14.3
				c0,2.4,0.4,4.7,1.2,7c0.8,2.3,2.1,4.4,3.7,6.3l2.2,2.6H54.7z"/>
		</g>
	</g>
	<g id="Ultralight-S" transform="matrix(1 0 0 1 516.811 696)">
		<g>
			<g>
				<g>
					<path d="M21.5-57.9h11.3c0.7,0,1.3-0.6,1.2-1.3l-1.3-9.3c-0.2-1.2-1.1-2-2.3-2h-6.4c-1.2,0-2.2,0.9-2.3,2l-1.3,9.3
						C20.2-58.5,20.8-57.9,21.5-57.9z"/>
					<path d="M33.1-45.4l-0.8-9.6H22l-0.8,9.6h-6v41.7c0,2,1.6,3.6,3.6,3.6h16.7c2,0,3.6-1.6,3.6-3.6v-41.7H33.1z M32.3-12.1
						c0,0.9-0.8,1.7-1.7,1.7h-7c-0.9,0-1.7-0.8-1.7-1.7V-37c0-0.9,0.8-1.7,1.7-1.7h7c0.9,0,1.7,0.8,1.7,1.7V-12.1z"/>
				</g>
			</g>
			<path d="M69-16.2l-3.5-4.1c-1.2-1.4-2.2-3.1-2.8-4.9c-0.6-1.7-1-3.6-1-5.4v-13.4v-7.3v-3.1c0-0.5-0.4-1-1-1h-1.5l-0.7-8.4
				c0-0.5-0.4-0.8-0.9-0.8s-0.8,0.4-0.9,0.8L56-55.3h-1.5c-0.5,0-1,0.4-1,1v3.1v7.3v13.4c0,1.8-0.3,3.7-1,5.4
				c-0.6,1.8-1.6,3.4-2.8,4.9l-3.5,4.1c-1.6,1.9-1.9,4.6-0.8,6.8l4.1,8.2c0.4,0.7,1.1,1.2,2,1.2h12.2c0.8,0,1.6-0.5,2-1.2l4.1-8.2
				C71-11.6,70.6-14.3,69-16.2z M50.2-15.7l2.1-2.4c1.5-1.7,2.6-3.7,3.4-5.9c0.8-2.1,1.2-4.3,1.2-6.6v-13.4h1.6v13.4
				c0,2.2,0.4,4.4,1.2,6.6c0.8,2.1,1.9,4.1,3.4,5.9l2.1,2.4H50.2z"/>
		</g>
	</g>
</g>
</svg>
