<?xml version="1.0" encoding="UTF-8"?>
<!--Generator: Apple Native CoreSVG 175.5-->
<!DOCTYPE svg
PUBLIC "-//W3C//DTD SVG 1.1//EN"
       "http://www.w3.org/Graphics/SVG/1.1/DTD/svg11.dtd">
<svg version="1.1" xmlns="http://www.w3.org/2000/svg" xmlns:xlink="http://www.w3.org/1999/xlink" width="3300" height="2200">
 <!--glyph: "", point size: 100.0, font version: "18.0d12e2", template writer version: "101"-->
 <style>.monochrome-0 {fill:#000000}

.SFSymbolsPreview000000 {fill:#000000;opacity:1.0}
</style>
 <g id="Notes">
  <rect height="2200" id="artboard" style="fill:white;opacity:1" width="3300" x="0" y="0"/>
  <line style="fill:none;stroke:black;opacity:1;stroke-width:0.5;" x1="263" x2="3036" y1="292" y2="292"/>
  <text style="stroke:none;fill:black;font-family:sans-serif;font-size:13;font-weight:bold;" transform="matrix(1 0 0 1 263 322)">Weight/Scale Variations</text>
  <text style="stroke:none;fill:black;font-family:sans-serif;font-size:13;text-anchor:middle;" transform="matrix(1 0 0 1 559.711 322)">Ultralight</text>
  <text style="stroke:none;fill:black;font-family:sans-serif;font-size:13;text-anchor:middle;" transform="matrix(1 0 0 1 856.422 322)">Thin</text>
  <text style="stroke:none;fill:black;font-family:sans-serif;font-size:13;text-anchor:middle;" transform="matrix(1 0 0 1 1153.13 322)">Light</text>
  <text style="stroke:none;fill:black;font-family:sans-serif;font-size:13;text-anchor:middle;" transform="matrix(1 0 0 1 1449.84 322)">Regular</text>
  <text style="stroke:none;fill:black;font-family:sans-serif;font-size:13;text-anchor:middle;" transform="matrix(1 0 0 1 1746.56 322)">Medium</text>
  <text style="stroke:none;fill:black;font-family:sans-serif;font-size:13;text-anchor:middle;" transform="matrix(1 0 0 1 2043.27 322)">Semibold</text>
  <text style="stroke:none;fill:black;font-family:sans-serif;font-size:13;text-anchor:middle;" transform="matrix(1 0 0 1 2339.98 322)">Bold</text>
  <text style="stroke:none;fill:black;font-family:sans-serif;font-size:13;text-anchor:middle;" transform="matrix(1 0 0 1 2636.69 322)">Heavy</text>
  <text style="stroke:none;fill:black;font-family:sans-serif;font-size:13;text-anchor:middle;" transform="matrix(1 0 0 1 2933.4 322)">Black</text>
  <line style="fill:none;stroke:black;opacity:1;stroke-width:0.5;" x1="263" x2="3036" y1="1903" y2="1903"/>
  <g transform="matrix(1 0 0 1 263 1933)">
   <path d="M9.24805 0.830078C13.5547 0.830078 17.1387-2.74414 17.1387-7.05078C17.1387-11.3574 13.5449-14.9316 9.23828-14.9316C4.94141-14.9316 1.36719-11.3574 1.36719-7.05078C1.36719-2.74414 4.95117 0.830078 9.24805 0.830078ZM9.24805-0.654297C5.70312-0.654297 2.87109-3.49609 2.87109-7.05078C2.87109-10.6055 5.69336-13.4473 9.23828-13.4473C12.793-13.4473 15.6445-10.6055 15.6445-7.05078C15.6445-3.49609 12.8027-0.654297 9.24805-0.654297ZM5.6543-7.05078C5.6543-6.62109 5.95703-6.32812 6.40625-6.32812L8.50586-6.32812L8.50586-4.20898C8.50586-3.76953 8.79883-3.4668 9.22852-3.4668C9.67773-3.4668 9.9707-3.76953 9.9707-4.20898L9.9707-6.32812L12.0898-6.32812C12.5293-6.32812 12.832-6.62109 12.832-7.05078C12.832-7.49023 12.5293-7.79297 12.0898-7.79297L9.9707-7.79297L9.9707-9.90234C9.9707-10.3516 9.67773-10.6543 9.22852-10.6543C8.79883-10.6543 8.50586-10.3516 8.50586-9.90234L8.50586-7.79297L6.40625-7.79297C5.95703-7.79297 5.6543-7.49023 5.6543-7.05078Z"/>
  </g>
  <g transform="matrix(1 0 0 1 281.867 1933)">
   <path d="M11.709 2.91016C17.1582 2.91016 21.6699-1.61133 21.6699-7.05078C21.6699-12.5 17.1484-17.0117 11.6992-17.0117C6.25977-17.0117 1.74805-12.5 1.74805-7.05078C1.74805-1.61133 6.26953 2.91016 11.709 2.91016ZM11.709 1.25C7.09961 1.25 3.41797-2.44141 3.41797-7.05078C3.41797-11.6602 7.08984-15.3516 11.6992-15.3516C16.3086-15.3516 20.0098-11.6602 20.0098-7.05078C20.0098-2.44141 16.3184 1.25 11.709 1.25ZM7.17773-7.05078C7.17773-6.57227 7.50977-6.25 8.00781-6.25L10.8789-6.25L10.8789-3.36914C10.8789-2.88086 11.2109-2.53906 11.6895-2.53906C12.1777-2.53906 12.5195-2.87109 12.5195-3.36914L12.5195-6.25L15.4004-6.25C15.8887-6.25 16.2305-6.57227 16.2305-7.05078C16.2305-7.53906 15.8887-7.88086 15.4004-7.88086L12.5195-7.88086L12.5195-10.752C12.5195-11.25 12.1777-11.5918 11.6895-11.5918C11.2109-11.5918 10.8789-11.25 10.8789-10.752L10.8789-7.88086L8.00781-7.88086C7.50977-7.88086 7.17773-7.53906 7.17773-7.05078Z"/>
  </g>
  <g transform="matrix(1 0 0 1 305.646 1933)">
   <path d="M14.9707 5.66406C21.9336 5.66406 27.6953-0.0976562 27.6953-7.05078C27.6953-14.0137 21.9238-19.7754 14.9609-19.7754C8.00781-19.7754 2.25586-14.0137 2.25586-7.05078C2.25586-0.0976562 8.01758 5.66406 14.9707 5.66406ZM14.9707 3.84766C8.93555 3.84766 4.08203-1.01562 4.08203-7.05078C4.08203-13.0957 8.92578-17.9492 14.9609-17.9492C21.0059-17.9492 25.8691-13.0957 25.8691-7.05078C25.8691-1.01562 21.0156 3.84766 14.9707 3.84766ZM9.19922-7.05078C9.19922-6.5332 9.57031-6.17188 10.1172-6.17188L14.0625-6.17188L14.0625-2.2168C14.0625-1.67969 14.4336-1.29883 14.9512-1.29883C15.4883-1.29883 15.8594-1.66992 15.8594-2.2168L15.8594-6.17188L19.8145-6.17188C20.3516-6.17188 20.7324-6.5332 20.7324-7.05078C20.7324-7.59766 20.3613-7.96875 19.8145-7.96875L15.8594-7.96875L15.8594-11.9141C15.8594-12.4609 15.4883-12.8418 14.9512-12.8418C14.4336-12.8418 14.0625-12.4609 14.0625-11.9141L14.0625-7.96875L10.1172-7.96875C9.57031-7.96875 9.19922-7.59766 9.19922-7.05078Z"/>
  </g>
  <text style="stroke:none;fill:black;font-family:sans-serif;font-size:13;font-weight:bold;" transform="matrix(1 0 0 1 263 1953)">Design Variations</text>
  <text style="stroke:none;fill:black;font-family:sans-serif;font-size:13;" transform="matrix(1 0 0 1 263 1971)">Symbols are supported in up to nine weights and three scales.</text>
  <text style="stroke:none;fill:black;font-family:sans-serif;font-size:13;" transform="matrix(1 0 0 1 263 1989)">For optimal layout with text and other symbols, vertically align</text>
  <text style="stroke:none;fill:black;font-family:sans-serif;font-size:13;" transform="matrix(1 0 0 1 263 2007)">symbols with the adjacent text.</text>
  <line style="fill:none;stroke:#00AEEF;stroke-width:0.5;opacity:1.0;" x1="776" x2="776" y1="1919" y2="1933"/>
  <g transform="matrix(1 0 0 1 776 1933)">
   <path d="M3.31055 0.15625C3.82812 0.15625 4.08203-0.0390625 4.26758-0.585938L5.52734-4.0332L11.2891-4.0332L12.5488-0.585938C12.7344-0.0390625 12.9883 0.15625 13.4961 0.15625C14.0137 0.15625 14.3457-0.15625 14.3457-0.644531C14.3457-0.810547 14.3164-0.966797 14.2383-1.17188L9.6582-13.3691C9.43359-13.9648 9.0332-14.2676 8.4082-14.2676C7.80273-14.2676 7.39258-13.9746 7.17773-13.3789L2.59766-1.16211C2.51953-0.957031 2.49023-0.800781 2.49023-0.634766C2.49023-0.146484 2.80273 0.15625 3.31055 0.15625ZM6.00586-5.51758L8.37891-12.0898L8.42773-12.0898L10.8008-5.51758Z"/>
  </g>
  <line style="fill:none;stroke:#00AEEF;stroke-width:0.5;opacity:1.0;" x1="793.197" x2="793.197" y1="1919" y2="1933"/>
  <text style="stroke:none;fill:black;font-family:sans-serif;font-size:13;font-weight:bold;" transform="matrix(1 0 0 1 776 1953)">Margins</text>
  <text style="stroke:none;fill:black;font-family:sans-serif;font-size:13;" transform="matrix(1 0 0 1 776 1971)">Leading and trailing margins on the left and right side of each symbol</text>
  <text style="stroke:none;fill:black;font-family:sans-serif;font-size:13;" transform="matrix(1 0 0 1 776 1989)">can be adjusted by modifying the x-location of the margin guidelines.</text>
  <text style="stroke:none;fill:black;font-family:sans-serif;font-size:13;" transform="matrix(1 0 0 1 776 2007)">Modifications are automatically applied proportionally to all</text>
  <text style="stroke:none;fill:black;font-family:sans-serif;font-size:13;" transform="matrix(1 0 0 1 776 2025)">scales and weights.</text>
  <g transform="matrix(1 0 0 1 1289 1933)">
   <path d="M2.8418 1.86523L4.54102 3.57422C5.40039 4.44336 6.38672 4.38477 7.31445 3.35938L18.0078-8.42773L17.041-9.4043L6.42578 2.27539C6.07422 2.67578 5.74219 2.77344 5.27344 2.30469L4.10156 1.14258C3.63281 0.683594 3.74023 0.341797 4.14062-0.0195312L15.6152-10.8203L14.6387-11.7871L3.04688-0.898438C2.06055 0.0195312 1.98242 0.996094 2.8418 1.86523ZM9.25781-16.3281C8.83789-15.918 8.80859-15.3418 9.04297-14.9512C9.27734-14.5898 9.73633-14.3555 10.3809-14.5215C11.8457-14.8633 13.3691-14.9219 14.7949-13.9844L14.209-12.5293C13.8672-11.6992 14.043-11.1133 14.5801-10.5664L16.875-8.25195C17.3633-7.76367 17.7734-7.74414 18.3398-7.8418L19.4043-8.03711L20.0684-7.36328L20.0293-6.80664C19.9902-6.30859 20.1172-5.92773 20.6055-5.44922L21.3672-4.70703C21.8457-4.22852 22.4609-4.19922 22.9297-4.66797L25.8398-7.58789C26.3086-8.05664 26.2891-8.65234 25.8105-9.13086L25.0391-9.89258C24.5605-10.3711 24.1895-10.5273 23.7109-10.4883L23.1348-10.4395L22.4902-11.0742L22.7344-12.1973C22.8613-12.7637 22.7051-13.2031 22.1191-13.7891L19.9219-15.9766C16.582-19.2969 12.1484-19.2188 9.25781-16.3281ZM10.752-15.957C13.1836-17.7344 16.4746-17.4316 18.7012-15.2051L21.1328-12.793C21.3672-12.5586 21.4062-12.373 21.3379-12.0312L21.0156-10.5469L22.5195-9.0625L23.5059-9.12109C23.7598-9.13086 23.8379-9.11133 24.0332-8.91602L24.6094-8.33984L22.168-5.89844L21.5918-6.47461C21.3965-6.66992 21.3672-6.74805 21.377-7.01172L21.4453-7.98828L19.9512-9.47266L18.4277-9.21875C18.1055-9.15039 17.959-9.17969 17.7148-9.41406L15.7129-11.416C15.459-11.6504 15.4297-11.8164 15.5859-12.1875L16.4648-14.2773C14.9023-15.7324 12.8711-16.3574 10.8398-15.7617C10.6836-15.7227 10.625-15.8496 10.752-15.957Z"/>
  </g>
  <text style="stroke:none;fill:black;font-family:sans-serif;font-size:13;font-weight:bold;" transform="matrix(1 0 0 1 1289 1953)">Exporting</text>
  <text style="stroke:none;fill:black;font-family:sans-serif;font-size:13;" transform="matrix(1 0 0 1 1289 1971)">Symbols should be outlined when exporting to ensure the</text>
  <text style="stroke:none;fill:black;font-family:sans-serif;font-size:13;" transform="matrix(1 0 0 1 1289 1989)">design is preserved when submitting to Xcode.</text>
  <text id="template-version" style="stroke:none;fill:black;font-family:sans-serif;font-size:13;text-anchor:end;" transform="matrix(1 0 0 1 3036 1933)">Template v.4.0</text>
  <text style="stroke:none;fill:black;font-family:sans-serif;font-size:13;text-anchor:end;" transform="matrix(1 0 0 1 3036 1951)">Requires Xcode 14 or greater</text>
  <text id="descriptive-name" style="stroke:none;fill:black;font-family:sans-serif;font-size:13;text-anchor:end;" transform="matrix(1 0 0 1 3036 1969)">Generated from case.bartender4</text>
  <text style="stroke:none;fill:black;font-family:sans-serif;font-size:13;text-anchor:end;" transform="matrix(1 0 0 1 3036 1987)">Typeset at 100 points</text>
  <text style="stroke:none;fill:black;font-family:sans-serif;font-size:13;" transform="matrix(1 0 0 1 263 726)">Small</text>
  <text style="stroke:none;fill:black;font-family:sans-serif;font-size:13;" transform="matrix(1 0 0 1 263 1156)">Medium</text>
  <text style="stroke:none;fill:black;font-family:sans-serif;font-size:13;" transform="matrix(1 0 0 1 263 1586)">Large</text>
 </g>
 <g id="Guides">
  <g id="H-reference" style="fill:#27AAE1;stroke:none;" transform="matrix(1 0 0 1 339 696)">
   <path d="M0.993654 0L3.63775 0L29.3281-67.1323L30.0303-67.1323L30.0303-70.459L28.1226-70.459ZM11.6885-24.4799L46.9815-24.4799L46.2315-26.7285L12.4385-26.7285ZM55.1196 0L57.7637 0L30.6382-70.459L29.4326-70.459L29.4326-67.1323Z"/>
  </g>
  <line id="Baseline-S" style="fill:none;stroke:#27AAE1;opacity:1;stroke-width:0.5;" x1="263" x2="3036" y1="696" y2="696"/>
  <line id="Capline-S" style="fill:none;stroke:#27AAE1;opacity:1;stroke-width:0.5;" x1="263" x2="3036" y1="625.541" y2="625.541"/>
  <g id="H-reference" style="fill:#27AAE1;stroke:none;" transform="matrix(1 0 0 1 339 1126)">
   <path d="M0.993654 0L3.63775 0L29.3281-67.1323L30.0303-67.1323L30.0303-70.459L28.1226-70.459ZM11.6885-24.4799L46.9815-24.4799L46.2315-26.7285L12.4385-26.7285ZM55.1196 0L57.7637 0L30.6382-70.459L29.4326-70.459L29.4326-67.1323Z"/>
  </g>
  <line id="Baseline-M" style="fill:none;stroke:#27AAE1;opacity:1;stroke-width:0.5;" x1="263" x2="3036" y1="1126" y2="1126"/>
  <line id="Capline-M" style="fill:none;stroke:#27AAE1;opacity:1;stroke-width:0.5;" x1="263" x2="3036" y1="1055.54" y2="1055.54"/>
  <g id="H-reference" style="fill:#27AAE1;stroke:none;" transform="matrix(1 0 0 1 339 1556)">
   <path d="M0.993654 0L3.63775 0L29.3281-67.1323L30.0303-67.1323L30.0303-70.459L28.1226-70.459ZM11.6885-24.4799L46.9815-24.4799L46.2315-26.7285L12.4385-26.7285ZM55.1196 0L57.7637 0L30.6382-70.459L29.4326-70.459L29.4326-67.1323Z"/>
  </g>
  <line id="Baseline-L" style="fill:none;stroke:#27AAE1;opacity:1;stroke-width:0.5;" x1="263" x2="3036" y1="1556" y2="1556"/>
  <line id="Capline-L" style="fill:none;stroke:#27AAE1;opacity:1;stroke-width:0.5;" x1="263" x2="3036" y1="1485.54" y2="1485.54"/>
  <line id="left-margin-Ultralight-S" style="fill:none;stroke:#00AEEF;stroke-width:0.5;opacity:1.0;" x1="509.811" x2="509.811" y1="600.785" y2="720.121"/>
  <line id="right-margin-Ultralight-S" style="fill:none;stroke:#00AEEF;stroke-width:0.5;opacity:1.0;" x1="609.611" x2="609.611" y1="600.785" y2="720.121"/>
  <line id="left-margin-Regular-S" style="fill:none;stroke:#00AEEF;stroke-width:0.5;opacity:1.0;" x1="1396.19" x2="1396.19" y1="600.785" y2="720.121"/>
  <line id="right-margin-Regular-S" style="fill:none;stroke:#00AEEF;stroke-width:0.5;opacity:1.0;" x1="1503.49" x2="1503.49" y1="600.785" y2="720.121"/>
  <line id="left-margin-Black-S" style="fill:none;stroke:#00AEEF;stroke-width:0.5;opacity:1.0;" x1="2876.7" x2="2876.7" y1="600.785" y2="720.121"/>
  <line id="right-margin-Black-S" style="fill:none;stroke:#00AEEF;stroke-width:0.5;opacity:1.0;" x1="2990.1" x2="2990.1" y1="600.785" y2="720.121"/>
 </g>
 <g id="Symbols">
  <g id="Black-S" transform="matrix(1 0 0 1 2876.7 696)">
   <path class="monochrome-0 SFSymbolsPreview000000" d="M98.91-67.6L93.21-81.6C92.91-82.4 92.11-83 91.21-83C91.21-83 91.11-83 91.11-83L87.31-82.9C78.71-82.6 70.21-80.7 62.31-77.5L50.71-72.8C50.51-73.3 49.91-73.7 49.41-73.7C49.21-73.7 49.01-73.7 48.91-73.6L43.81-71.5C43.11-71.2 42.61-70.6 42.51-69.9L40.91-62.6C40.71-61.5 39.91-60.6 38.91-60.2L36.41-59.2C35.31-58.8 34.81-57.5 35.21-56.4L37.71-50.2L36.51-49.7C33.01-48.2 30.81-44.8 30.81-41L30.81-28C24.41-28 18.21-28 15.61-28C15.11-28 14.81-27.9 14.61-27.6C14.41-27.4 14.31-27.1 14.31-26.7C14.31-17.2 21.51-9.4 30.71-8.5L30.71 4.3L20.51 10.6C19.51 11.2 19.91 12.8 21.11 12.8L44.01 12.8C45.21 12.8 45.61 11.3 44.61 10.6L34.41 4.2L34.41-8.5C43.71-9.4 51.01-17.2 51.01-26.8C51.01-27.2 50.91-27.4 50.71-27.7C50.41-28 50.01-28.1 49.51-28.1C49.31-28.1 42.21-28.1 34.41-28.1L34.41-41.1C34.41-43.4 35.81-45.5 37.91-46.4L39.11-46.9L39.71-45.5C40.01-44.7 40.91-44.1 41.71-44.1C42.01-44.1 42.21-44.2 42.51-44.3L45.01-45.3C45.41-45.5 45.81-45.5 46.31-45.5C46.91-45.5 47.61-45.3 48.11-44.9L54.31-40.8C54.71-40.6 55.11-40.4 55.51-40.4C55.81-40.4 56.11-40.5 56.31-40.6L61.41-42.7C62.11-43 62.51-43.8 62.21-44.6L73.81-49.3C81.81-52.5 89.11-57.1 95.51-62.9L98.31-65.4C99.01-65.8 99.21-66.8 98.91-67.6ZM93.01-65.4C86.91-59.9 80.01-55.6 72.41-52.5L60.81-47.8L52.11-69.3L63.71-74C71.31-77.1 79.31-78.8 87.51-79.1L90.21-79.2L95.11-67.2L93.01-65.4ZM55.61-44.2L50.01-47.9C48.81-48.7 47.51-49.1 46.11-49.1C45.21-49.1 44.31-48.9 43.51-48.6L42.51-48.2L39.21-56.4L40.21-56.8C42.41-57.7 43.91-59.6 44.41-61.8L45.81-68.3L48.11-69.2L57.91-45.1L55.61-44.2ZM47.01-24.3C46.71-22.8 46.21-21.3 45.51-20L34.41-20L34.41-24.3L47.01-24.3ZM30.71-24.3L30.71-20L19.71-20C19.01-21.3 18.51-22.8 18.21-24.3L30.71-24.3Z"/>
  </g>
  <g id="Regular-S" transform="matrix(1 0 0 1 1396.19 696)">
   <path class="monochrome-0 SFSymbolsPreview000000" d="M94.6-65.9L89.2-79.1C88.9-79.9 88.1-80.4 87.3-80.4C87.3-80.4 87.2-80.4 87.2-80.4L83.6-80.3C75.5-80 67.5-78.3 60-75.2L49.1-70.8C48.9-71.3 48.4-71.6 47.9-71.6C47.7-71.6 47.6-71.6 47.4-71.5L42.6-69.5C42-69.2 41.5-68.7 41.3-68L39.8-61.1C39.6-60.1 38.9-59.2 37.9-58.8L35.5-58C34.5-57.6 33.9-56.4 34.4-55.3L36.8-49.5L35.6-49C32.3-47.6 30.2-44.4 30.2-40.8L30.2-28.5C24.1-28.5 18.3-28.5 15.9-28.5C15.4-28.5 15.2-28.4 14.9-28.1C14.7-27.9 14.7-27.7 14.7-27.3C14.7-18.3 21.5-11 30.2-10.1L30.2 2L20.6 8C19.7 8.6 20.1 10 21.2 10L42.9 10C44 10 44.4 8.5 43.5 8L33.8 2L33.8-10C42.6-10.9 49.4-18.2 49.4-27.2C49.4-27.6 49.3-27.8 49.1-28C48.9-28.3 48.4-28.4 48-28.4C47.8-28.4 41.1-28.4 33.8-28.4L33.8-40.7C33.8-42.9 35.1-44.8 37.1-45.7L38.2-46.2L38.7-44.9C39-44.1 39.8-43.6 40.6-43.6C40.9-43.6 41.1-43.6 41.4-43.8L43.7-44.7C44.1-44.9 44.5-44.9 44.9-44.9C45.5-44.9 46.1-44.7 46.6-44.4L52.5-40.5C52.8-40.3 53.2-40.2 53.7-40.2C54-40.2 54.2-40.3 54.5-40.4L59.3-42.4C60-42.7 60.3-43.5 60.1-44.1L71-48.5C78.5-51.5 85.5-55.9 91.5-61.3L94.1-63.7C94.7-64.2 94.9-65.1 94.6-65.9ZM89-63.9C83.2-58.7 76.7-54.6 69.5-51.7L58.6-47.3L50.4-67.6L61.3-72C68.5-74.9 76-76.5 83.8-76.8L86.3-76.9L90.9-65.5L89-63.9ZM53.7-43.8L48.4-47.3C47.3-48 46-48.4 44.7-48.4C43.8-48.4 43-48.2 42.2-47.9L41.2-47.5L38.1-55.2L39.1-55.6C41.1-56.4 42.6-58.2 43.1-60.4L44.4-66.6L46.5-67.5L55.7-44.7L53.7-43.8ZM45.6-25C45.4-23.6 44.9-22.2 44.2-20.9L33.7-20.9L33.7-25L45.6-25ZM30.2-25L30.2-20.9L19.7-20.9C19-22.2 18.6-23.5 18.3-25L30.2-25Z"/>
  </g>
  <g id="Ultralight-S" transform="matrix(1 0 0 1 509.811 696)">
   <path class="monochrome-0 SFSymbolsPreview000000" d="M86.604-63.3L81.704-75.5C81.404-76.2 80.704-76.7 80.004-76.7C80.004-76.7 80.004-76.7 79.904-76.7L76.604-76.6C69.104-76.3 61.804-74.7 54.904-71.9L44.904-67.8C44.704-68.3 44.204-68.6 43.804-68.6C43.604-68.6 43.504-68.6 43.304-68.5L38.904-66.7C38.304-66.5 37.904-66 37.704-65.3L36.204-59C36.004-58.1 35.304-57.3 34.504-56.9L32.404-56C31.404-55.6 31.004-54.5 31.404-53.6L33.604-48.3L32.504-47.8C29.504-46.5 27.504-43.5 27.504-40.3L27.504-29C21.904-29 16.604-29 14.404-29C14.004-29 13.704-28.9 13.504-28.7C13.404-28.5 13.304-28.3 13.304-27.9C13.304-19.7 19.504-12.9 27.504-12.1L27.504-1L18.704 4.5C17.804 5 18.204 6.4 19.204 6.4L39.004 6.4C40.004 6.4 40.404 5.1 39.504 4.5L30.704-1L30.704-12C38.704-12.8 45.004-19.6 45.004-27.9C45.004-28.3 44.904-28.5 44.704-28.7C44.504-29 44.104-29 43.704-29C43.504-29 37.404-29 30.604-29L30.604-40.3C30.604-42.3 31.804-44.1 33.604-44.9L34.604-45.3L35.104-44.1C35.404-43.4 36.104-42.9 36.804-42.9C37.004-42.9 37.304-42.9 37.504-43L39.604-43.9C39.904-44 40.304-44.1 40.704-44.1C41.304-44.1 41.804-43.9 42.304-43.6L47.704-40C48.004-39.8 48.404-39.7 48.804-39.7C49.004-39.7 49.304-39.7 49.504-39.8L53.904-41.6C54.504-41.9 54.804-42.6 54.604-43.2L64.604-47.3C71.504-50.1 77.904-54.1 83.404-59.1L85.804-61.3C86.704-61.7 86.904-62.6 86.604-63.3ZM81.504-61.4C76.204-56.7 70.204-52.9 63.604-50.2L53.604-46.1L46.004-64.8L56.004-68.9C62.604-71.6 69.504-73.1 76.604-73.3L78.904-73.4L83.204-63L81.504-61.4ZM49.104-43L44.304-46.2C43.304-46.9 42.104-47.2 40.904-47.2C40.104-47.2 39.304-47 38.604-46.8L37.704-46.4L34.804-53.5L35.704-53.9C37.604-54.7 38.904-56.3 39.404-58.3L40.604-64L42.604-64.8L51.004-43.8L49.104-43ZM41.604-25.8C41.404-24.5 40.904-23.2 40.304-22.1L30.604-22.1L30.604-25.8L41.604-25.8ZM27.404-25.8L27.404-22.1L17.804-22.1C17.204-23.3 16.804-24.5 16.504-25.8L27.404-25.8Z"/>
  </g>
 </g>
</svg>
