<?xml version="1.0" encoding="UTF-8"?>
<!--Generator: Apple Native CoreSVG 175.5-->
<!DOCTYPE svg
PUBLIC "-//W3C//DTD SVG 1.1//EN"
       "http://www.w3.org/Graphics/SVG/1.1/DTD/svg11.dtd">
<svg version="1.1" xmlns="http://www.w3.org/2000/svg" xmlns:xlink="http://www.w3.org/1999/xlink" width="3300" height="2200">
 <!--glyph: "", point size: 100.0, font version: "18.0d12e2", template writer version: "101"-->
 <g id="Notes">
  <rect height="2200" id="artboard" style="fill:white;opacity:1" width="3300" x="0" y="0"/>
  <line style="fill:none;stroke:black;opacity:1;stroke-width:0.5;" x1="263" x2="3036" y1="292" y2="292"/>
  <text style="stroke:none;fill:black;font-family:sans-serif;font-size:13;font-weight:bold;" transform="matrix(1 0 0 1 263 322)">Weight/Scale Variations</text>
  <text style="stroke:none;fill:black;font-family:sans-serif;font-size:13;text-anchor:middle;" transform="matrix(1 0 0 1 559.711 322)">Ultralight</text>
  <text style="stroke:none;fill:black;font-family:sans-serif;font-size:13;text-anchor:middle;" transform="matrix(1 0 0 1 856.422 322)">Thin</text>
  <text style="stroke:none;fill:black;font-family:sans-serif;font-size:13;text-anchor:middle;" transform="matrix(1 0 0 1 1153.13 322)">Light</text>
  <text style="stroke:none;fill:black;font-family:sans-serif;font-size:13;text-anchor:middle;" transform="matrix(1 0 0 1 1449.84 322)">Regular</text>
  <text style="stroke:none;fill:black;font-family:sans-serif;font-size:13;text-anchor:middle;" transform="matrix(1 0 0 1 1746.56 322)">Medium</text>
  <text style="stroke:none;fill:black;font-family:sans-serif;font-size:13;text-anchor:middle;" transform="matrix(1 0 0 1 2043.27 322)">Semibold</text>
  <text style="stroke:none;fill:black;font-family:sans-serif;font-size:13;text-anchor:middle;" transform="matrix(1 0 0 1 2339.98 322)">Bold</text>
  <text style="stroke:none;fill:black;font-family:sans-serif;font-size:13;text-anchor:middle;" transform="matrix(1 0 0 1 2636.69 322)">Heavy</text>
  <text style="stroke:none;fill:black;font-family:sans-serif;font-size:13;text-anchor:middle;" transform="matrix(1 0 0 1 2933.4 322)">Black</text>
  <line style="fill:none;stroke:black;opacity:1;stroke-width:0.5;" x1="263" x2="3036" y1="1903" y2="1903"/>
  <g transform="matrix(1 0 0 1 263 1933)">
   <path d="M9.24805 0.830078C13.5547 0.830078 17.1387-2.74414 17.1387-7.05078C17.1387-11.3574 13.5449-14.9316 9.23828-14.9316C4.94141-14.9316 1.36719-11.3574 1.36719-7.05078C1.36719-2.74414 4.95117 0.830078 9.24805 0.830078ZM9.24805-0.654297C5.70312-0.654297 2.87109-3.49609 2.87109-7.05078C2.87109-10.6055 5.69336-13.4473 9.23828-13.4473C12.793-13.4473 15.6445-10.6055 15.6445-7.05078C15.6445-3.49609 12.8027-0.654297 9.24805-0.654297ZM5.6543-7.05078C5.6543-6.62109 5.95703-6.32812 6.40625-6.32812L8.50586-6.32812L8.50586-4.20898C8.50586-3.76953 8.79883-3.4668 9.22852-3.4668C9.67773-3.4668 9.9707-3.76953 9.9707-4.20898L9.9707-6.32812L12.0898-6.32812C12.5293-6.32812 12.832-6.62109 12.832-7.05078C12.832-7.49023 12.5293-7.79297 12.0898-7.79297L9.9707-7.79297L9.9707-9.90234C9.9707-10.3516 9.67773-10.6543 9.22852-10.6543C8.79883-10.6543 8.50586-10.3516 8.50586-9.90234L8.50586-7.79297L6.40625-7.79297C5.95703-7.79297 5.6543-7.49023 5.6543-7.05078Z"/>
  </g>
  <g transform="matrix(1 0 0 1 281.867 1933)">
   <path d="M11.709 2.91016C17.1582 2.91016 21.6699-1.61133 21.6699-7.05078C21.6699-12.5 17.1484-17.0117 11.6992-17.0117C6.25977-17.0117 1.74805-12.5 1.74805-7.05078C1.74805-1.61133 6.26953 2.91016 11.709 2.91016ZM11.709 1.25C7.09961 1.25 3.41797-2.44141 3.41797-7.05078C3.41797-11.6602 7.08984-15.3516 11.6992-15.3516C16.3086-15.3516 20.0098-11.6602 20.0098-7.05078C20.0098-2.44141 16.3184 1.25 11.709 1.25ZM7.17773-7.05078C7.17773-6.57227 7.50977-6.25 8.00781-6.25L10.8789-6.25L10.8789-3.36914C10.8789-2.88086 11.2109-2.53906 11.6895-2.53906C12.1777-2.53906 12.5195-2.87109 12.5195-3.36914L12.5195-6.25L15.4004-6.25C15.8887-6.25 16.2305-6.57227 16.2305-7.05078C16.2305-7.53906 15.8887-7.88086 15.4004-7.88086L12.5195-7.88086L12.5195-10.752C12.5195-11.25 12.1777-11.5918 11.6895-11.5918C11.2109-11.5918 10.8789-11.25 10.8789-10.752L10.8789-7.88086L8.00781-7.88086C7.50977-7.88086 7.17773-7.53906 7.17773-7.05078Z"/>
  </g>
  <g transform="matrix(1 0 0 1 305.646 1933)">
   <path d="M14.9707 5.66406C21.9336 5.66406 27.6953-0.0976562 27.6953-7.05078C27.6953-14.0137 21.9238-19.7754 14.9609-19.7754C8.00781-19.7754 2.25586-14.0137 2.25586-7.05078C2.25586-0.0976562 8.01758 5.66406 14.9707 5.66406ZM14.9707 3.84766C8.93555 3.84766 4.08203-1.01562 4.08203-7.05078C4.08203-13.0957 8.92578-17.9492 14.9609-17.9492C21.0059-17.9492 25.8691-13.0957 25.8691-7.05078C25.8691-1.01562 21.0156 3.84766 14.9707 3.84766ZM9.19922-7.05078C9.19922-6.5332 9.57031-6.17188 10.1172-6.17188L14.0625-6.17188L14.0625-2.2168C14.0625-1.67969 14.4336-1.29883 14.9512-1.29883C15.4883-1.29883 15.8594-1.66992 15.8594-2.2168L15.8594-6.17188L19.8145-6.17188C20.3516-6.17188 20.7324-6.5332 20.7324-7.05078C20.7324-7.59766 20.3613-7.96875 19.8145-7.96875L15.8594-7.96875L15.8594-11.9141C15.8594-12.4609 15.4883-12.8418 14.9512-12.8418C14.4336-12.8418 14.0625-12.4609 14.0625-11.9141L14.0625-7.96875L10.1172-7.96875C9.57031-7.96875 9.19922-7.59766 9.19922-7.05078Z"/>
  </g>
  <text style="stroke:none;fill:black;font-family:sans-serif;font-size:13;font-weight:bold;" transform="matrix(1 0 0 1 263 1953)">Design Variations</text>
  <text style="stroke:none;fill:black;font-family:sans-serif;font-size:13;" transform="matrix(1 0 0 1 263 1971)">Symbols are supported in up to nine weights and three scales.</text>
  <text style="stroke:none;fill:black;font-family:sans-serif;font-size:13;" transform="matrix(1 0 0 1 263 1989)">For optimal layout with text and other symbols, vertically align</text>
  <text style="stroke:none;fill:black;font-family:sans-serif;font-size:13;" transform="matrix(1 0 0 1 263 2007)">symbols with the adjacent text.</text>
  <line style="fill:none;stroke:#00AEEF;stroke-width:0.5;opacity:1.0;" x1="776" x2="776" y1="1919" y2="1933"/>
  <g transform="matrix(1 0 0 1 776 1933)">
   <path d="M3.31055 0.15625C3.82812 0.15625 4.08203-0.0390625 4.26758-0.585938L5.52734-4.0332L11.2891-4.0332L12.5488-0.585938C12.7344-0.0390625 12.9883 0.15625 13.4961 0.15625C14.0137 0.15625 14.3457-0.15625 14.3457-0.644531C14.3457-0.810547 14.3164-0.966797 14.2383-1.17188L9.6582-13.3691C9.43359-13.9648 9.0332-14.2676 8.4082-14.2676C7.80273-14.2676 7.39258-13.9746 7.17773-13.3789L2.59766-1.16211C2.51953-0.957031 2.49023-0.800781 2.49023-0.634766C2.49023-0.146484 2.80273 0.15625 3.31055 0.15625ZM6.00586-5.51758L8.37891-12.0898L8.42773-12.0898L10.8008-5.51758Z"/>
  </g>
  <line style="fill:none;stroke:#00AEEF;stroke-width:0.5;opacity:1.0;" x1="793.197" x2="793.197" y1="1919" y2="1933"/>
  <text style="stroke:none;fill:black;font-family:sans-serif;font-size:13;font-weight:bold;" transform="matrix(1 0 0 1 776 1953)">Margins</text>
  <text style="stroke:none;fill:black;font-family:sans-serif;font-size:13;" transform="matrix(1 0 0 1 776 1971)">Leading and trailing margins on the left and right side of each symbol</text>
  <text style="stroke:none;fill:black;font-family:sans-serif;font-size:13;" transform="matrix(1 0 0 1 776 1989)">can be adjusted by modifying the x-location of the margin guidelines.</text>
  <text style="stroke:none;fill:black;font-family:sans-serif;font-size:13;" transform="matrix(1 0 0 1 776 2007)">Modifications are automatically applied proportionally to all</text>
  <text style="stroke:none;fill:black;font-family:sans-serif;font-size:13;" transform="matrix(1 0 0 1 776 2025)">scales and weights.</text>
  <g transform="matrix(1 0 0 1 1289 1933)">
   <path d="M2.8418 1.86523L4.54102 3.57422C5.40039 4.44336 6.38672 4.38477 7.31445 3.35938L18.0078-8.42773L17.041-9.4043L6.42578 2.27539C6.07422 2.67578 5.74219 2.77344 5.27344 2.30469L4.10156 1.14258C3.63281 0.683594 3.74023 0.341797 4.14062-0.0195312L15.6152-10.8203L14.6387-11.7871L3.04688-0.898438C2.06055 0.0195312 1.98242 0.996094 2.8418 1.86523ZM9.25781-16.3281C8.83789-15.918 8.80859-15.3418 9.04297-14.9512C9.27734-14.5898 9.73633-14.3555 10.3809-14.5215C11.8457-14.8633 13.3691-14.9219 14.7949-13.9844L14.209-12.5293C13.8672-11.6992 14.043-11.1133 14.5801-10.5664L16.875-8.25195C17.3633-7.76367 17.7734-7.74414 18.3398-7.8418L19.4043-8.03711L20.0684-7.36328L20.0293-6.80664C19.9902-6.30859 20.1172-5.92773 20.6055-5.44922L21.3672-4.70703C21.8457-4.22852 22.4609-4.19922 22.9297-4.66797L25.8398-7.58789C26.3086-8.05664 26.2891-8.65234 25.8105-9.13086L25.0391-9.89258C24.5605-10.3711 24.1895-10.5273 23.7109-10.4883L23.1348-10.4395L22.4902-11.0742L22.7344-12.1973C22.8613-12.7637 22.7051-13.2031 22.1191-13.7891L19.9219-15.9766C16.582-19.2969 12.1484-19.2188 9.25781-16.3281ZM10.752-15.957C13.1836-17.7344 16.4746-17.4316 18.7012-15.2051L21.1328-12.793C21.3672-12.5586 21.4062-12.373 21.3379-12.0312L21.0156-10.5469L22.5195-9.0625L23.5059-9.12109C23.7598-9.13086 23.8379-9.11133 24.0332-8.91602L24.6094-8.33984L22.168-5.89844L21.5918-6.47461C21.3965-6.66992 21.3672-6.74805 21.377-7.01172L21.4453-7.98828L19.9512-9.47266L18.4277-9.21875C18.1055-9.15039 17.959-9.17969 17.7148-9.41406L15.7129-11.416C15.459-11.6504 15.4297-11.8164 15.5859-12.1875L16.4648-14.2773C14.9023-15.7324 12.8711-16.3574 10.8398-15.7617C10.6836-15.7227 10.625-15.8496 10.752-15.957Z"/>
  </g>
  <text style="stroke:none;fill:black;font-family:sans-serif;font-size:13;font-weight:bold;" transform="matrix(1 0 0 1 1289 1953)">Exporting</text>
  <text style="stroke:none;fill:black;font-family:sans-serif;font-size:13;" transform="matrix(1 0 0 1 1289 1971)">Symbols should be outlined when exporting to ensure the</text>
  <text style="stroke:none;fill:black;font-family:sans-serif;font-size:13;" transform="matrix(1 0 0 1 1289 1989)">design is preserved when submitting to Xcode.</text>
  <text id="template-version" style="stroke:none;fill:black;font-family:sans-serif;font-size:13;text-anchor:end;" transform="matrix(1 0 0 1 3036 1933)">Template v.4.0</text>
  <text style="stroke:none;fill:black;font-family:sans-serif;font-size:13;text-anchor:end;" transform="matrix(1 0 0 1 3036 1951)">Requires Xcode 14 or greater</text>
  <text id="descriptive-name" style="stroke:none;fill:black;font-family:sans-serif;font-size:13;text-anchor:end;" transform="matrix(1 0 0 1 3036 1969)">Generated from case.garnish2.fill</text>
  <text style="stroke:none;fill:black;font-family:sans-serif;font-size:13;text-anchor:end;" transform="matrix(1 0 0 1 3036 1987)">Typeset at 100 points</text>
  <text style="stroke:none;fill:black;font-family:sans-serif;font-size:13;" transform="matrix(1 0 0 1 263 726)">Small</text>
  <text style="stroke:none;fill:black;font-family:sans-serif;font-size:13;" transform="matrix(1 0 0 1 263 1156)">Medium</text>
  <text style="stroke:none;fill:black;font-family:sans-serif;font-size:13;" transform="matrix(1 0 0 1 263 1586)">Large</text>
 </g>
 <g id="Guides">
  <g id="H-reference" style="fill:#27AAE1;stroke:none;" transform="matrix(1 0 0 1 339 696)">
   <path d="M0.993654 0L3.63775 0L29.3281-67.1323L30.0303-67.1323L30.0303-70.459L28.1226-70.459ZM11.6885-24.4799L46.9815-24.4799L46.2315-26.7285L12.4385-26.7285ZM55.1196 0L57.7637 0L30.6382-70.459L29.4326-70.459L29.4326-67.1323Z"/>
  </g>
  <line id="Baseline-S" style="fill:none;stroke:#27AAE1;opacity:1;stroke-width:0.5;" x1="263" x2="3036" y1="696" y2="696"/>
  <line id="Capline-S" style="fill:none;stroke:#27AAE1;opacity:1;stroke-width:0.5;" x1="263" x2="3036" y1="625.541" y2="625.541"/>
  <g id="H-reference" style="fill:#27AAE1;stroke:none;" transform="matrix(1 0 0 1 339 1126)">
   <path d="M0.993654 0L3.63775 0L29.3281-67.1323L30.0303-67.1323L30.0303-70.459L28.1226-70.459ZM11.6885-24.4799L46.9815-24.4799L46.2315-26.7285L12.4385-26.7285ZM55.1196 0L57.7637 0L30.6382-70.459L29.4326-70.459L29.4326-67.1323Z"/>
  </g>
  <line id="Baseline-M" style="fill:none;stroke:#27AAE1;opacity:1;stroke-width:0.5;" x1="263" x2="3036" y1="1126" y2="1126"/>
  <line id="Capline-M" style="fill:none;stroke:#27AAE1;opacity:1;stroke-width:0.5;" x1="263" x2="3036" y1="1055.54" y2="1055.54"/>
  <g id="H-reference" style="fill:#27AAE1;stroke:none;" transform="matrix(1 0 0 1 339 1556)">
   <path d="M0.993654 0L3.63775 0L29.3281-67.1323L30.0303-67.1323L30.0303-70.459L28.1226-70.459ZM11.6885-24.4799L46.9815-24.4799L46.2315-26.7285L12.4385-26.7285ZM55.1196 0L57.7637 0L30.6382-70.459L29.4326-70.459L29.4326-67.1323Z"/>
  </g>
  <line id="Baseline-L" style="fill:none;stroke:#27AAE1;opacity:1;stroke-width:0.5;" x1="263" x2="3036" y1="1556" y2="1556"/>
  <line id="Capline-L" style="fill:none;stroke:#27AAE1;opacity:1;stroke-width:0.5;" x1="263" x2="3036" y1="1485.54" y2="1485.54"/>
  <line id="left-margin-Ultralight-S" style="fill:none;stroke:#00AEEF;stroke-width:0.5;opacity:1.0;" x1="497.811" x2="497.811" y1="600.785" y2="720.121"/>
  <line id="right-margin-Ultralight-S" style="fill:none;stroke:#00AEEF;stroke-width:0.5;opacity:1.0;" x1="621.611" x2="621.611" y1="600.785" y2="720.121"/>
  <line id="left-margin-Regular-S" style="fill:none;stroke:#00AEEF;stroke-width:0.5;opacity:1.0;" x1="1384.19" x2="1384.19" y1="600.785" y2="720.121"/>
  <line id="right-margin-Regular-S" style="fill:none;stroke:#00AEEF;stroke-width:0.5;opacity:1.0;" x1="1515.49" x2="1515.49" y1="600.785" y2="720.121"/>
  <line id="left-margin-Black-S" style="fill:none;stroke:#00AEEF;stroke-width:0.5;opacity:1.0;" x1="2864.7" x2="2864.7" y1="600.785" y2="720.121"/>
  <line id="right-margin-Black-S" style="fill:none;stroke:#00AEEF;stroke-width:0.5;opacity:1.0;" x1="3002.1" x2="3002.1" y1="600.785" y2="720.121"/>
 </g>
 <g id="Symbols">
  <g id="Black-S" transform="matrix(1 0 0 1 2864.7 696)">
   <path d="M116.31-58.7C112.51-62.5 102.21-66.1 101.11-66.5C101.11-66.5 101.11-66.5 101.01-66.5C100.91-66.5 100.81-66.6 100.61-66.6C100.61-66.6 100.51-66.6 100.51-66.6C100.51-66.6 100.51-66.6 100.41-66.6C100.31-66.6 100.11-66.6 100.01-66.6C100.01-66.6 100.01-66.6 99.91-66.6C99.81-66.6 99.61-66.5 99.51-66.5C99.51-66.5 99.41-66.5 99.41-66.4C99.31-66.3 99.11-66.2 99.01-66.1C99.01-66.1 99.01-66.1 99.01-66.1C99.01-66.1 99.01-66.1 99.01-66.1C98.91-66 98.81-65.9 98.71-65.7C98.71-65.7 98.71-65.6 98.61-65.6C98.51-65.5 98.51-65.4 98.51-65.2C98.51-65.2 98.51-65.1 98.51-65.1C98.51-65 98.51-64.8 98.51-64.7L98.51-39.5C94.51-38.6 91.51-35.1 91.51-30.9C91.51-26.7 94.51-23.1 98.51-22.3L98.51-21.9C94.51-21 91.51-17.5 91.51-13.3C91.51-9.1 94.51-5.5 98.51-4.7L98.51 10C98.51 11 99.31 11.9 100.41 11.9C101.41 11.9 102.31 11.1 102.31 10L102.31-4.6C106.31-5.5 109.31-9 109.31-13.2C109.31-17.4 106.31-21 102.31-21.8L102.31-22.2C106.31-23.1 109.31-26.6 109.31-30.8C109.31-35 106.31-38.6 102.31-39.4L102.31-55.2C103.51-52.7 104.91-50.3 106.41-48.8C108.21-47 110.51-46.1 112.61-46.1C114.31-46.1 115.91-46.7 117.11-47.9C120.01-50.6 119.61-55.5 116.31-58.7ZM114.61-50.6C113.41-49.4 110.91-49.8 109.11-51.5C107.11-53.5 105.01-58 103.61-61.5C107.21-60.1 111.71-57.9 113.61-56C115.41-54.3 115.91-51.8 114.61-50.6ZM74.21-74.6L70.71-74.6L70.71-80.7C70.71-82.3 69.41-83.5 67.91-83.5L29.81-83.5C28.21-83.5 27.01-82.2 27.01-80.7L27.01-74.6L23.51-74.6C20.71-74.6 18.31-72.3 18.31-69.4L18.31 7.7C18.31 10.5 20.61 12.9 23.51 12.9L74.21 12.9C77.01 12.9 79.41 10.6 79.41 7.7L79.41-69.5C79.31-72.3 77.01-74.6 74.21-74.6ZM25.61-46.5C25.61-57.3 34.31-66 45.11-66C55.91-66 64.61-57.3 64.61-46.5C64.61-42.6 63.41-38.9 61.41-35.9C60.61-36.3 59.71-36.6 58.81-36.8C60.71-39.6 61.91-42.9 61.91-46.5C61.91-55.8 54.31-63.4 45.01-63.4C35.71-63.4 28.11-55.8 28.11-46.5C28.11-40.2 31.61-34.7 36.81-31.8C36.11-31.2 35.51-30.5 34.91-29.9C29.41-33.3 25.61-39.4 25.61-46.5ZM48.21-41.4L51.91-37.7C50.01-37.7 48.11-37.4 46.31-36.9L46.31-40.7C46.31-41.6 47.51-42.1 48.21-41.4ZM46.31-52.4L46.31-58.3C46.31-59 46.91-59.5 47.61-59.4C49.21-59.1 50.81-58.4 52.11-57.5C52.71-57.1 52.81-56.3 52.31-55.8L48.11-51.6C47.51-50.9 46.31-51.4 46.31-52.4ZM50.11-43.3C49.41-44 49.91-45.2 50.91-45.2L56.71-45.2C57.41-45.2 57.91-44.5 57.81-43.9C57.41-42.3 56.81-40.8 55.91-39.5C55.51-38.9 54.71-38.8 54.21-39.3L50.11-43.3ZM56.71-47.8L50.81-47.8C49.81-47.8 49.31-49 50.01-49.7L54.21-53.9C54.71-54.4 55.51-54.3 55.91-53.7C56.81-52.3 57.41-50.8 57.81-49.2C57.91-48.5 57.41-47.8 56.71-47.8ZM33.61-45.2L39.21-45.2C40.21-45.2 40.71-44 40.01-43.3L36.01-39.4C35.51-38.9 34.71-39 34.31-39.6C33.51-40.9 32.81-42.3 32.51-43.9C32.41-44.5 32.91-45.2 33.61-45.2ZM32.51-49.1C32.81-50.7 33.41-52.2 34.31-53.5C34.71-54.1 35.51-54.2 36.01-53.7L40.01-49.7C40.71-49 40.21-47.8 39.21-47.8L33.61-47.8C32.81-47.8 32.31-48.5 32.51-49.1ZM37.91-37.5L41.81-41.4C42.51-42.1 43.71-41.6 43.71-40.6L43.71-35.9C42.71-35.5 41.71-35 40.71-34.4C39.81-34.7 38.91-35.2 38.11-35.7C37.51-36.2 37.41-37 37.91-37.5ZM41.81-51.6L37.71-55.7C37.21-56.2 37.31-57 37.91-57.4C39.21-58.3 40.71-58.9 42.31-59.3C43.01-59.5 43.61-58.9 43.61-58.2L43.61-52.4C43.71-51.4 42.51-50.9 41.81-51.6ZM52.51 5.1C41.71 5.1 33.01-3.6 33.01-14.4C33.01-25.2 41.71-34 52.51-34C63.21-34 72.01-25.2 72.01-14.4C72.01-3.6 63.21 5.1 52.51 5.1ZM52.51-31.3C43.21-31.3 35.61-23.7 35.61-14.4C35.61-5.1 43.21 2.4 52.51 2.4C61.81 2.4 69.41-5.2 69.41-14.5C69.41-23.8 61.81-31.3 52.51-31.3ZM39.71-17.1C40.01-18.7 40.61-20.2 41.51-21.5C41.91-22.1 42.71-22.2 43.21-21.7L47.21-17.7C47.91-17 47.41-15.8 46.41-15.8L40.81-15.8C40.11-15.8 39.61-16.4 39.71-17.1ZM41.61-7.5C40.81-8.8 40.11-10.2 39.81-11.8C39.61-12.5 40.21-13.1 40.91-13.1L46.51-13.1C47.51-13.1 48.01-11.9 47.31-11.2L43.41-7.3C42.81-6.8 42.01-6.9 41.61-7.5ZM51.01-3C51.01-2.3 50.31-1.8 49.71-1.9C48.11-2.2 46.71-2.9 45.41-3.7C44.81-4.1 44.71-4.9 45.21-5.4L49.11-9.3C49.81-10 51.01-9.6 51.01-8.6L51.01-3ZM51.01-20.3C51.01-19.3 49.81-18.8 49.11-19.5L45.01-23.6C44.51-24.1 44.61-24.9 45.21-25.3C46.51-26.2 48.01-26.8 49.61-27.2C50.31-27.4 50.91-26.8 50.91-26.1L50.91-20.3ZM53.61-26.2C53.61-26.9 54.21-27.4 54.91-27.3C56.51-27 58.11-26.3 59.41-25.4C60.01-25 60.11-24.2 59.61-23.7L55.41-19.5C54.71-18.8 53.51-19.3 53.51-20.3L53.51-26.2ZM59.31-3.6C58.01-2.8 56.51-2.2 55.01-1.9C54.31-1.8 53.71-2.3 53.71-3L53.71-8.6C53.71-9.6 54.91-10.1 55.61-9.4L59.61-5.4C60.01-4.8 59.91-4 59.31-3.6ZM65.01-11.8C64.61-10.2 64.01-8.7 63.11-7.4C62.71-6.8 61.91-6.7 61.41-7.2L57.31-11.3C56.61-12 57.11-13.2 58.11-13.2L64.01-13.2C64.71-13.1 65.21-12.5 65.01-11.8ZM64.01-15.8L58.11-15.8C57.11-15.8 56.61-17 57.31-17.7L61.51-21.9C62.01-22.4 62.81-22.3 63.21-21.7C64.11-20.3 64.71-18.8 65.11-17.2C65.21-16.4 64.71-15.8 64.01-15.8Z"/>
  </g>
  <g id="Regular-S" transform="matrix(1 0 0 1 1384.19 696)">
   <path d="M110.2-57.2C106.6-60.8 97-64.1 96-64.5C96-64.5 96-64.5 95.9-64.5C95.8-64.5 95.7-64.6 95.6-64.6C95.6-64.6 95.5-64.6 95.5-64.6C95.5-64.6 95.5-64.6 95.5-64.6C95.4-64.6 95.2-64.6 95.1-64.6C95.1-64.6 95.1-64.6 95-64.6C94.9-64.6 94.8-64.5 94.7-64.5C94.7-64.5 94.6-64.5 94.6-64.4C94.5-64.3 94.4-64.2 94.3-64.1C94.3-64.1 94.3-64.1 94.3-64.1C94.3-64.1 94.3-64.1 94.3-64.1C94.2-64 94.1-63.9 94-63.8C94-63.8 94-63.7 93.9-63.7C93.8-63.6 93.8-63.5 93.8-63.4C93.8-63.4 93.8-63.4 93.8-63.3C93.8-63.2 93.8-63 93.8-62.9L93.8-39.3C90.1-38.5 87.3-35.2 87.3-31.2C87.3-27.2 90.1-23.9 93.8-23.1L93.8-22.7C90.1-21.9 87.3-18.6 87.3-14.6C87.3-10.6 90.1-7.3 93.8-6.5L93.8 7.1C93.8 8.1 94.6 8.8 95.5 8.8C96.5 8.8 97.2 8 97.2 7.1L97.2-6.5C100.9-7.3 103.7-10.6 103.7-14.6C103.7-18.6 100.9-21.9 97.2-22.7L97.2-23.1C100.9-23.9 103.7-27.2 103.7-31.2C103.7-35.2 100.9-38.5 97.2-39.3L97.2-54C98.3-51.7 99.7-49.4 101.1-48C102.8-46.3 104.9-45.5 106.9-45.5C108.5-45.5 110-46 111.1-47.2C113.6-49.7 113.3-54.2 110.2-57.2ZM108.6-49.6C107.4-48.4 105.1-48.8 103.5-50.5C101.6-52.4 99.7-56.6 98.4-59.9C101.7-58.6 106-56.6 107.8-54.8C109.4-53.1 109.8-50.7 108.6-49.6ZM70.8-72.1L67.6-72.1L67.6-77.8C67.6-79.3 66.4-80.5 64.9-80.5L29.2-80.5C27.7-80.5 26.5-79.3 26.5-77.8L26.5-72.1L23.3-72.1C20.6-72.1 18.5-69.9 18.5-67.3L18.5 5C18.5 7.7 20.7 9.8 23.3 9.8L70.7 9.8C73.4 9.8 75.5 7.6 75.5 5L75.5-67.2C75.6-69.9 73.4-72.1 70.8-72.1ZM25.4-45.8C25.4-55.9 33.6-64.1 43.7-64.1C53.8-64.1 62-55.9 62-45.8C62-42.1 60.9-38.7 59-35.8C58.2-36.1 57.4-36.4 56.6-36.7C58.4-39.3 59.5-42.4 59.5-45.8C59.5-54.5 52.4-61.6 43.7-61.6C35-61.6 27.9-54.5 27.9-45.8C27.9-39.9 31.2-34.7 36-32C35.4-31.4 34.8-30.8 34.2-30.2C28.9-33.4 25.4-39.2 25.4-45.8ZM46.5-41L50-37.5C48.2-37.5 46.4-37.2 44.8-36.7L44.8-40.2C44.7-41.2 45.8-41.7 46.5-41ZM44.7-51.3L44.7-56.8C44.7-57.5 45.3-57.9 45.9-57.8C47.4-57.5 48.9-56.9 50.1-56.1C50.6-55.7 50.7-55 50.3-54.5L46.4-50.6C45.8-49.9 44.7-50.3 44.7-51.3ZM48.3-42.8C47.7-43.4 48.1-44.5 49-44.5L54.4-44.5C55.1-44.5 55.5-43.9 55.4-43.2C55.1-41.7 54.5-40.3 53.6-39.1C53.2-38.6 52.5-38.5 52-38.9L48.3-42.8ZM54.5-47L49-47C48.1-47 47.6-48.1 48.3-48.7L52.2-52.6C52.7-53.1 53.4-53 53.8-52.4C54.6-51.1 55.2-49.7 55.5-48.2C55.6-47.6 55.1-47 54.5-47ZM32.8-44.5L38-44.5C38.9-44.5 39.4-43.4 38.7-42.8L35-39.1C34.5-38.6 33.8-38.7 33.4-39.3C32.6-40.5 32-41.9 31.7-43.3C31.7-43.9 32.1-44.5 32.8-44.5ZM31.7-48.3C32-49.8 32.6-51.2 33.3-52.4C33.7-53 34.4-53 34.9-52.6L38.7-48.8C39.3-48.2 38.9-47.1 38-47.1L32.7-47.1C32.1-47 31.6-47.6 31.7-48.3ZM36.8-37.3L40.5-41C41.1-41.6 42.2-41.2 42.2-40.3L42.2-35.9C41.2-35.5 40.3-35 39.4-34.5C38.5-34.8 37.7-35.2 36.9-35.7C36.4-36.1 36.4-36.9 36.8-37.3ZM40.5-50.5L36.7-54.3C36.2-54.8 36.3-55.5 36.9-55.9C38.1-56.7 39.5-57.3 41-57.7C41.6-57.8 42.3-57.4 42.3-56.7L42.3-51.3C42.3-50.3 41.1-49.9 40.5-50.5ZM50.5 2.5C40.4 2.5 32.2-5.7 32.2-15.8C32.2-25.9 40.4-34.1 50.5-34.1C60.6-34.1 68.8-25.9 68.8-15.8C68.8-5.7 60.6 2.5 50.5 2.5ZM50.5-31.6C41.8-31.6 34.7-24.5 34.7-15.8C34.7-7.1 41.8 0 50.5 0C59.2 0 66.3-7.1 66.3-15.8C66.3-24.5 59.2-31.6 50.5-31.6ZM38.6-18.3C38.9-19.8 39.5-21.2 40.2-22.4C40.6-23 41.3-23 41.8-22.6L45.6-18.8C46.2-18.2 45.8-17.1 44.9-17.1L39.6-17.1C38.9-17 38.4-17.6 38.6-18.3ZM40.3-9.3C39.5-10.5 38.9-11.9 38.6-13.3C38.5-13.9 39-14.6 39.6-14.6L44.8-14.6C45.7-14.6 46.2-13.5 45.5-12.9L41.8-9.2C41.4-8.7 40.7-8.7 40.3-9.3ZM49.1-5.1C49.1-4.4 48.5-4 47.8-4.1C46.3-4.4 45-5 43.8-5.8C43.3-6.2 43.2-6.9 43.6-7.4L47.3-11.1C47.9-11.7 49-11.3 49-10.4L49-5.1ZM49.1-21.3C49.1-20.4 48-19.9 47.4-20.6L43.6-24.4C43.1-24.9 43.2-25.6 43.8-26C45-26.8 46.4-27.4 47.9-27.8C48.5-27.9 49.2-27.5 49.2-26.8L49.2-21.3ZM51.6-26.7C51.6-27.4 52.2-27.8 52.8-27.7C54.3-27.4 55.8-26.8 57-26C57.5-25.6 57.6-24.9 57.2-24.4L53.3-20.5C52.7-19.9 51.6-20.3 51.6-21.2L51.6-26.7ZM56.9-5.7C55.7-4.9 54.3-4.3 52.8-4.1C52.2-4 51.6-4.5 51.6-5.1L51.6-10.4C51.6-11.3 52.7-11.8 53.3-11.1L57.1-7.3C57.5-6.8 57.5-6 56.9-5.7ZM62.2-13.3C61.9-11.8 61.3-10.4 60.4-9.2C60-8.7 59.3-8.6 58.8-9L55-12.8C54.4-13.4 54.8-14.5 55.7-14.5L61.1-14.5C61.9-14.5 62.4-13.9 62.2-13.3ZM61.3-17L55.8-17C54.9-17 54.4-18.1 55.1-18.7L59-22.6C59.5-23.1 60.2-23 60.6-22.4C61.4-21.1 62-19.7 62.3-18.2C62.4-17.6 61.9-17 61.3-17Z"/>
  </g>
  <g id="Ultralight-S" transform="matrix(1 0 0 1 497.811 696)">
   <path d="M102.804-55.2C99.504-58.5 90.704-61.5 89.704-61.9C89.704-61.9 89.704-61.9 89.604-61.9C89.504-61.9 89.404-61.9 89.304-62C89.304-62 89.204-62 89.204-62C89.204-62 89.204-62 89.204-62C89.104-62 89.004-62 88.904-62C88.904-62 88.904-62 88.804-62C88.704-62 88.604-61.9 88.504-61.9C88.504-61.9 88.404-61.9 88.404-61.9C88.304-61.8 88.204-61.8 88.104-61.7C88.104-61.7 88.104-61.7 88.104-61.7C88.104-61.7 88.104-61.7 88.104-61.7C88.004-61.6 87.904-61.5 87.904-61.4C87.904-61.4 87.904-61.3 87.904-61.3C87.904-61.2 87.804-61.1 87.804-61C87.804-61 87.804-61 87.804-60.9C87.804-60.8 87.804-60.7 87.804-60.5L87.804-38.8C84.404-38.1 81.804-35 81.804-31.4C81.804-27.8 84.404-24.7 87.804-24L87.804-23.7C84.404-23 81.804-19.9 81.804-16.3C81.804-12.7 84.404-9.6 87.804-8.9L87.804 3.8C87.804 4.7 88.504 5.4 89.404 5.4C90.304 5.4 91.004 4.7 91.004 3.8L91.004-8.7C94.404-9.4 97.004-12.5 97.004-16.1C97.004-19.7 94.404-22.8 91.004-23.5L91.004-23.8C94.404-24.5 97.004-27.6 97.004-31.2C97.004-34.8 94.404-37.9 91.004-38.6L91.004-52.1C92.004-50 93.304-47.9 94.604-46.6C96.104-45.1 98.104-44.3 99.904-44.3C101.404-44.3 102.804-44.8 103.804-45.8C105.904-48.3 105.604-52.4 102.804-55.2ZM101.404-48.2C100.304-47.1 98.204-47.5 96.704-49C95.004-50.7 93.204-54.6 92.004-57.6C95.104-56.4 99.004-54.5 100.604-52.9C102.104-51.4 102.404-49.3 101.404-48.2ZM66.604-68.8L63.604-68.8L63.604-74C63.604-75.3 62.504-76.4 61.204-76.4L28.504-76.4C27.204-76.4 26.104-75.3 26.104-74L26.104-68.8L23.104-68.8C20.704-68.8 18.704-66.8 18.704-64.4L18.704 1.9C18.704 4.3 20.704 6.3 23.104 6.3L66.604 6.3C69.004 6.3 71.004 4.3 71.004 1.9L71.004-64.4C71.004-66.9 69.004-68.8 66.604-68.8ZM24.904-44.7C24.904-54 32.404-61.5 41.704-61.5C51.004-61.5 58.504-54 58.504-44.7C58.504-41.3 57.504-38.2 55.804-35.6C55.104-35.9 54.304-36.2 53.604-36.4C55.304-38.8 56.304-41.6 56.304-44.7C56.304-52.7 49.804-59.2 41.804-59.2C33.804-59.2 27.304-52.7 27.304-44.7C27.304-39.3 30.304-34.5 34.704-32.1C34.104-31.6 33.604-31 33.004-30.4C28.204-33.3 24.904-38.6 24.904-44.7ZM44.304-40.3L47.504-37.1C45.804-37.1 44.204-36.8 42.704-36.4L42.704-39.6C42.704-40.5 43.704-40.9 44.304-40.3ZM42.704-49.7L42.704-54.7C42.704-55.3 43.304-55.7 43.804-55.6C45.204-55.3 46.504-54.8 47.704-54C48.204-53.7 48.304-53 47.804-52.5L44.204-48.9C43.704-48.5 42.704-48.9 42.704-49.7ZM45.904-42C45.304-42.6 45.704-43.6 46.604-43.6L51.604-43.6C52.204-43.6 52.704-43 52.504-42.4C52.204-41 51.604-39.7 50.904-38.6C50.604-38.1 49.904-38 49.404-38.5L45.904-42ZM51.604-45.9L46.604-45.9C45.804-45.9 45.304-46.9 45.904-47.5L49.504-51.1C49.904-51.5 50.604-51.5 51.004-51C51.804-49.8 52.304-48.5 52.604-47.1C52.704-46.4 52.204-45.9 51.604-45.9ZM31.704-43.6L36.504-43.6C37.304-43.6 37.804-42.6 37.204-42L33.804-38.6C33.404-38.2 32.704-38.2 32.304-38.7C31.604-39.8 31.004-41.1 30.804-42.4C30.704-43 31.104-43.6 31.704-43.6ZM30.804-47C31.104-48.4 31.604-49.6 32.304-50.8C32.604-51.3 33.304-51.4 33.804-51L37.204-47.6C37.804-47 37.404-46 36.504-46L31.704-46C31.104-45.9 30.704-46.4 30.804-47ZM35.404-37L38.804-40.4C39.404-41 40.404-40.6 40.404-39.7L40.404-35.7C39.504-35.3 38.604-34.9 37.804-34.4C37.004-34.7 36.204-35.1 35.604-35.5C35.104-35.8 35.004-36.6 35.404-37ZM38.804-49.1L35.304-52.6C34.904-53 35.004-53.7 35.504-54C36.604-54.8 37.904-55.3 39.304-55.6C39.904-55.7 40.504-55.3 40.504-54.7L40.504-49.7C40.404-48.9 39.404-48.5 38.804-49.1ZM48.004-0.4C38.704-0.4 31.204-7.9 31.204-17.2C31.204-26.5 38.704-34 48.004-34C57.304-34 64.804-26.5 64.804-17.2C64.804-7.9 57.204-0.4 48.004-0.4ZM48.004-31.7C40.004-31.7 33.504-25.2 33.504-17.2C33.504-9.2 40.004-2.7 48.004-2.7C56.004-2.7 62.504-9.2 62.504-17.2C62.504-25.2 55.904-31.7 48.004-31.7ZM37.004-19.5C37.304-20.9 37.804-22.1 38.504-23.3C38.804-23.8 39.504-23.9 40.004-23.5L43.404-20.1C44.004-19.5 43.604-18.5 42.704-18.5L38.004-18.5C37.404-18.3 36.904-18.9 37.004-19.5ZM38.604-11.2C37.904-12.3 37.304-13.6 37.104-14.9C36.904-15.5 37.404-16 38.004-16L42.804-16C43.604-16 44.104-15 43.504-14.4L40.104-11C39.704-10.6 38.904-10.7 38.604-11.2ZM46.704-7.4C46.704-6.8 46.104-6.3 45.604-6.5C44.204-6.7 43.004-7.3 41.804-8C41.304-8.3 41.204-9 41.704-9.5L45.104-12.9C45.704-13.5 46.704-13.1 46.704-12.2L46.704-7.4ZM46.704-22.2C46.704-21.4 45.704-20.9 45.104-21.5L41.604-25C41.204-25.4 41.204-26.1 41.704-26.5C42.804-27.3 44.104-27.8 45.504-28.1C46.104-28.2 46.704-27.8 46.704-27.2L46.704-22.2ZM49.004-27.2C49.004-27.8 49.604-28.2 50.104-28.1C51.504-27.8 52.804-27.3 54.004-26.5C54.504-26.2 54.604-25.5 54.104-25L50.504-21.4C50.004-21 49.004-21.4 49.004-22.2L49.004-27.2ZM53.904-7.9C52.804-7.2 51.504-6.7 50.104-6.4C49.504-6.3 49.004-6.7 49.004-7.3L49.004-12.1C49.004-12.9 50.004-13.4 50.604-12.8L54.004-9.4C54.404-8.9 54.404-8.2 53.904-7.9ZM58.804-14.9C58.504-13.5 57.904-12.2 57.204-11.1C56.904-10.6 56.204-10.5 55.704-11L52.204-14.5C51.604-15 52.004-16 52.904-16L57.904-16C58.404-16 58.904-15.5 58.804-14.9ZM57.904-18.3L52.904-18.3C52.104-18.3 51.604-19.3 52.204-19.9L55.804-23.5C56.204-23.9 56.904-23.9 57.304-23.4C58.104-22.2 58.604-20.9 58.904-19.5C58.904-18.9 58.504-18.3 57.904-18.3Z"/>
  </g>
 </g>
</svg>
