<?xml version="1.0" encoding="UTF-8"?>
<!--Generator: Apple Native CoreSVG 175.5-->
<!DOCTYPE svg
PUBLIC "-//W3C//DTD SVG 1.1//EN"
       "http://www.w3.org/Graphics/SVG/1.1/DTD/svg11.dtd">
<svg version="1.1" xmlns="http://www.w3.org/2000/svg" xmlns:xlink="http://www.w3.org/1999/xlink" width="3300" height="2200">
 <!--glyph: "", point size: 100.0, font version: "18.0d12e2", template writer version: "101"-->
 <g id="Notes">
  <rect height="2200" id="artboard" style="fill:white;opacity:1" width="3300" x="0" y="0"/>
  <line style="fill:none;stroke:black;opacity:1;stroke-width:0.5;" x1="263" x2="3036" y1="292" y2="292"/>
  <text style="stroke:none;fill:black;font-family:sans-serif;font-size:13;font-weight:bold;" transform="matrix(1 0 0 1 263 322)">Weight/Scale Variations</text>
  <text style="stroke:none;fill:black;font-family:sans-serif;font-size:13;text-anchor:middle;" transform="matrix(1 0 0 1 559.711 322)">Ultralight</text>
  <text style="stroke:none;fill:black;font-family:sans-serif;font-size:13;text-anchor:middle;" transform="matrix(1 0 0 1 856.422 322)">Thin</text>
  <text style="stroke:none;fill:black;font-family:sans-serif;font-size:13;text-anchor:middle;" transform="matrix(1 0 0 1 1153.13 322)">Light</text>
  <text style="stroke:none;fill:black;font-family:sans-serif;font-size:13;text-anchor:middle;" transform="matrix(1 0 0 1 1449.84 322)">Regular</text>
  <text style="stroke:none;fill:black;font-family:sans-serif;font-size:13;text-anchor:middle;" transform="matrix(1 0 0 1 1746.56 322)">Medium</text>
  <text style="stroke:none;fill:black;font-family:sans-serif;font-size:13;text-anchor:middle;" transform="matrix(1 0 0 1 2043.27 322)">Semibold</text>
  <text style="stroke:none;fill:black;font-family:sans-serif;font-size:13;text-anchor:middle;" transform="matrix(1 0 0 1 2339.98 322)">Bold</text>
  <text style="stroke:none;fill:black;font-family:sans-serif;font-size:13;text-anchor:middle;" transform="matrix(1 0 0 1 2636.69 322)">Heavy</text>
  <text style="stroke:none;fill:black;font-family:sans-serif;font-size:13;text-anchor:middle;" transform="matrix(1 0 0 1 2933.4 322)">Black</text>
  <line style="fill:none;stroke:black;opacity:1;stroke-width:0.5;" x1="263" x2="3036" y1="1903" y2="1903"/>
  <g transform="matrix(1 0 0 1 263 1933)">
   <path d="M9.24805 0.830078C13.5547 0.830078 17.1387-2.74414 17.1387-7.05078C17.1387-11.3574 13.5449-14.9316 9.23828-14.9316C4.94141-14.9316 1.36719-11.3574 1.36719-7.05078C1.36719-2.74414 4.95117 0.830078 9.24805 0.830078ZM9.24805-0.654297C5.70312-0.654297 2.87109-3.49609 2.87109-7.05078C2.87109-10.6055 5.69336-13.4473 9.23828-13.4473C12.793-13.4473 15.6445-10.6055 15.6445-7.05078C15.6445-3.49609 12.8027-0.654297 9.24805-0.654297ZM5.6543-7.05078C5.6543-6.62109 5.95703-6.32812 6.40625-6.32812L8.50586-6.32812L8.50586-4.20898C8.50586-3.76953 8.79883-3.4668 9.22852-3.4668C9.67773-3.4668 9.9707-3.76953 9.9707-4.20898L9.9707-6.32812L12.0898-6.32812C12.5293-6.32812 12.832-6.62109 12.832-7.05078C12.832-7.49023 12.5293-7.79297 12.0898-7.79297L9.9707-7.79297L9.9707-9.90234C9.9707-10.3516 9.67773-10.6543 9.22852-10.6543C8.79883-10.6543 8.50586-10.3516 8.50586-9.90234L8.50586-7.79297L6.40625-7.79297C5.95703-7.79297 5.6543-7.49023 5.6543-7.05078Z"/>
  </g>
  <g transform="matrix(1 0 0 1 281.867 1933)">
   <path d="M11.709 2.91016C17.1582 2.91016 21.6699-1.61133 21.6699-7.05078C21.6699-12.5 17.1484-17.0117 11.6992-17.0117C6.25977-17.0117 1.74805-12.5 1.74805-7.05078C1.74805-1.61133 6.26953 2.91016 11.709 2.91016ZM11.709 1.25C7.09961 1.25 3.41797-2.44141 3.41797-7.05078C3.41797-11.6602 7.08984-15.3516 11.6992-15.3516C16.3086-15.3516 20.0098-11.6602 20.0098-7.05078C20.0098-2.44141 16.3184 1.25 11.709 1.25ZM7.17773-7.05078C7.17773-6.57227 7.50977-6.25 8.00781-6.25L10.8789-6.25L10.8789-3.36914C10.8789-2.88086 11.2109-2.53906 11.6895-2.53906C12.1777-2.53906 12.5195-2.87109 12.5195-3.36914L12.5195-6.25L15.4004-6.25C15.8887-6.25 16.2305-6.57227 16.2305-7.05078C16.2305-7.53906 15.8887-7.88086 15.4004-7.88086L12.5195-7.88086L12.5195-10.752C12.5195-11.25 12.1777-11.5918 11.6895-11.5918C11.2109-11.5918 10.8789-11.25 10.8789-10.752L10.8789-7.88086L8.00781-7.88086C7.50977-7.88086 7.17773-7.53906 7.17773-7.05078Z"/>
  </g>
  <g transform="matrix(1 0 0 1 305.646 1933)">
   <path d="M14.9707 5.66406C21.9336 5.66406 27.6953-0.0976562 27.6953-7.05078C27.6953-14.0137 21.9238-19.7754 14.9609-19.7754C8.00781-19.7754 2.25586-14.0137 2.25586-7.05078C2.25586-0.0976562 8.01758 5.66406 14.9707 5.66406ZM14.9707 3.84766C8.93555 3.84766 4.08203-1.01562 4.08203-7.05078C4.08203-13.0957 8.92578-17.9492 14.9609-17.9492C21.0059-17.9492 25.8691-13.0957 25.8691-7.05078C25.8691-1.01562 21.0156 3.84766 14.9707 3.84766ZM9.19922-7.05078C9.19922-6.5332 9.57031-6.17188 10.1172-6.17188L14.0625-6.17188L14.0625-2.2168C14.0625-1.67969 14.4336-1.29883 14.9512-1.29883C15.4883-1.29883 15.8594-1.66992 15.8594-2.2168L15.8594-6.17188L19.8145-6.17188C20.3516-6.17188 20.7324-6.5332 20.7324-7.05078C20.7324-7.59766 20.3613-7.96875 19.8145-7.96875L15.8594-7.96875L15.8594-11.9141C15.8594-12.4609 15.4883-12.8418 14.9512-12.8418C14.4336-12.8418 14.0625-12.4609 14.0625-11.9141L14.0625-7.96875L10.1172-7.96875C9.57031-7.96875 9.19922-7.59766 9.19922-7.05078Z"/>
  </g>
  <text style="stroke:none;fill:black;font-family:sans-serif;font-size:13;font-weight:bold;" transform="matrix(1 0 0 1 263 1953)">Design Variations</text>
  <text style="stroke:none;fill:black;font-family:sans-serif;font-size:13;" transform="matrix(1 0 0 1 263 1971)">Symbols are supported in up to nine weights and three scales.</text>
  <text style="stroke:none;fill:black;font-family:sans-serif;font-size:13;" transform="matrix(1 0 0 1 263 1989)">For optimal layout with text and other symbols, vertically align</text>
  <text style="stroke:none;fill:black;font-family:sans-serif;font-size:13;" transform="matrix(1 0 0 1 263 2007)">symbols with the adjacent text.</text>
  <line style="fill:none;stroke:#00AEEF;stroke-width:0.5;opacity:1.0;" x1="776" x2="776" y1="1919" y2="1933"/>
  <g transform="matrix(1 0 0 1 776 1933)">
   <path d="M3.31055 0.15625C3.82812 0.15625 4.08203-0.0390625 4.26758-0.585938L5.52734-4.0332L11.2891-4.0332L12.5488-0.585938C12.7344-0.0390625 12.9883 0.15625 13.4961 0.15625C14.0137 0.15625 14.3457-0.15625 14.3457-0.644531C14.3457-0.810547 14.3164-0.966797 14.2383-1.17188L9.6582-13.3691C9.43359-13.9648 9.0332-14.2676 8.4082-14.2676C7.80273-14.2676 7.39258-13.9746 7.17773-13.3789L2.59766-1.16211C2.51953-0.957031 2.49023-0.800781 2.49023-0.634766C2.49023-0.146484 2.80273 0.15625 3.31055 0.15625ZM6.00586-5.51758L8.37891-12.0898L8.42773-12.0898L10.8008-5.51758Z"/>
  </g>
  <line style="fill:none;stroke:#00AEEF;stroke-width:0.5;opacity:1.0;" x1="793.197" x2="793.197" y1="1919" y2="1933"/>
  <text style="stroke:none;fill:black;font-family:sans-serif;font-size:13;font-weight:bold;" transform="matrix(1 0 0 1 776 1953)">Margins</text>
  <text style="stroke:none;fill:black;font-family:sans-serif;font-size:13;" transform="matrix(1 0 0 1 776 1971)">Leading and trailing margins on the left and right side of each symbol</text>
  <text style="stroke:none;fill:black;font-family:sans-serif;font-size:13;" transform="matrix(1 0 0 1 776 1989)">can be adjusted by modifying the x-location of the margin guidelines.</text>
  <text style="stroke:none;fill:black;font-family:sans-serif;font-size:13;" transform="matrix(1 0 0 1 776 2007)">Modifications are automatically applied proportionally to all</text>
  <text style="stroke:none;fill:black;font-family:sans-serif;font-size:13;" transform="matrix(1 0 0 1 776 2025)">scales and weights.</text>
  <g transform="matrix(1 0 0 1 1289 1933)">
   <path d="M2.8418 1.86523L4.54102 3.57422C5.40039 4.44336 6.38672 4.38477 7.31445 3.35938L18.0078-8.42773L17.041-9.4043L6.42578 2.27539C6.07422 2.67578 5.74219 2.77344 5.27344 2.30469L4.10156 1.14258C3.63281 0.683594 3.74023 0.341797 4.14062-0.0195312L15.6152-10.8203L14.6387-11.7871L3.04688-0.898438C2.06055 0.0195312 1.98242 0.996094 2.8418 1.86523ZM9.25781-16.3281C8.83789-15.918 8.80859-15.3418 9.04297-14.9512C9.27734-14.5898 9.73633-14.3555 10.3809-14.5215C11.8457-14.8633 13.3691-14.9219 14.7949-13.9844L14.209-12.5293C13.8672-11.6992 14.043-11.1133 14.5801-10.5664L16.875-8.25195C17.3633-7.76367 17.7734-7.74414 18.3398-7.8418L19.4043-8.03711L20.0684-7.36328L20.0293-6.80664C19.9902-6.30859 20.1172-5.92773 20.6055-5.44922L21.3672-4.70703C21.8457-4.22852 22.4609-4.19922 22.9297-4.66797L25.8398-7.58789C26.3086-8.05664 26.2891-8.65234 25.8105-9.13086L25.0391-9.89258C24.5605-10.3711 24.1895-10.5273 23.7109-10.4883L23.1348-10.4395L22.4902-11.0742L22.7344-12.1973C22.8613-12.7637 22.7051-13.2031 22.1191-13.7891L19.9219-15.9766C16.582-19.2969 12.1484-19.2188 9.25781-16.3281ZM10.752-15.957C13.1836-17.7344 16.4746-17.4316 18.7012-15.2051L21.1328-12.793C21.3672-12.5586 21.4062-12.373 21.3379-12.0312L21.0156-10.5469L22.5195-9.0625L23.5059-9.12109C23.7598-9.13086 23.8379-9.11133 24.0332-8.91602L24.6094-8.33984L22.168-5.89844L21.5918-6.47461C21.3965-6.66992 21.3672-6.74805 21.377-7.01172L21.4453-7.98828L19.9512-9.47266L18.4277-9.21875C18.1055-9.15039 17.959-9.17969 17.7148-9.41406L15.7129-11.416C15.459-11.6504 15.4297-11.8164 15.5859-12.1875L16.4648-14.2773C14.9023-15.7324 12.8711-16.3574 10.8398-15.7617C10.6836-15.7227 10.625-15.8496 10.752-15.957Z"/>
  </g>
  <text style="stroke:none;fill:black;font-family:sans-serif;font-size:13;font-weight:bold;" transform="matrix(1 0 0 1 1289 1953)">Exporting</text>
  <text style="stroke:none;fill:black;font-family:sans-serif;font-size:13;" transform="matrix(1 0 0 1 1289 1971)">Symbols should be outlined when exporting to ensure the</text>
  <text style="stroke:none;fill:black;font-family:sans-serif;font-size:13;" transform="matrix(1 0 0 1 1289 1989)">design is preserved when submitting to Xcode.</text>
  <text id="template-version" style="stroke:none;fill:black;font-family:sans-serif;font-size:13;text-anchor:end;" transform="matrix(1 0 0 1 3036 1933)">Template v.4.0</text>
  <text style="stroke:none;fill:black;font-family:sans-serif;font-size:13;text-anchor:end;" transform="matrix(1 0 0 1 3036 1951)">Requires Xcode 14 or greater</text>
  <text id="descriptive-name" style="stroke:none;fill:black;font-family:sans-serif;font-size:13;text-anchor:end;" transform="matrix(1 0 0 1 3036 1969)">Generated from cellar.three.bottles.fill</text>
  <text style="stroke:none;fill:black;font-family:sans-serif;font-size:13;text-anchor:end;" transform="matrix(1 0 0 1 3036 1987)">Typeset at 100 points</text>
  <text style="stroke:none;fill:black;font-family:sans-serif;font-size:13;" transform="matrix(1 0 0 1 263 726)">Small</text>
  <text style="stroke:none;fill:black;font-family:sans-serif;font-size:13;" transform="matrix(1 0 0 1 263 1156)">Medium</text>
  <text style="stroke:none;fill:black;font-family:sans-serif;font-size:13;" transform="matrix(1 0 0 1 263 1586)">Large</text>
 </g>
 <g id="Guides">
  <g id="H-reference" style="fill:#27AAE1;stroke:none;" transform="matrix(1 0 0 1 339 696)">
   <path d="M0.993654 0L3.63775 0L29.3281-67.1323L30.0303-67.1323L30.0303-70.459L28.1226-70.459ZM11.6885-24.4799L46.9815-24.4799L46.2315-26.7285L12.4385-26.7285ZM55.1196 0L57.7637 0L30.6382-70.459L29.4326-70.459L29.4326-67.1323Z"/>
  </g>
  <line id="Baseline-S" style="fill:none;stroke:#27AAE1;opacity:1;stroke-width:0.5;" x1="263" x2="3036" y1="696" y2="696"/>
  <line id="Capline-S" style="fill:none;stroke:#27AAE1;opacity:1;stroke-width:0.5;" x1="263" x2="3036" y1="625.541" y2="625.541"/>
  <g id="H-reference" style="fill:#27AAE1;stroke:none;" transform="matrix(1 0 0 1 339 1126)">
   <path d="M0.993654 0L3.63775 0L29.3281-67.1323L30.0303-67.1323L30.0303-70.459L28.1226-70.459ZM11.6885-24.4799L46.9815-24.4799L46.2315-26.7285L12.4385-26.7285ZM55.1196 0L57.7637 0L30.6382-70.459L29.4326-70.459L29.4326-67.1323Z"/>
  </g>
  <line id="Baseline-M" style="fill:none;stroke:#27AAE1;opacity:1;stroke-width:0.5;" x1="263" x2="3036" y1="1126" y2="1126"/>
  <line id="Capline-M" style="fill:none;stroke:#27AAE1;opacity:1;stroke-width:0.5;" x1="263" x2="3036" y1="1055.54" y2="1055.54"/>
  <g id="H-reference" style="fill:#27AAE1;stroke:none;" transform="matrix(1 0 0 1 339 1556)">
   <path d="M0.993654 0L3.63775 0L29.3281-67.1323L30.0303-67.1323L30.0303-70.459L28.1226-70.459ZM11.6885-24.4799L46.9815-24.4799L46.2315-26.7285L12.4385-26.7285ZM55.1196 0L57.7637 0L30.6382-70.459L29.4326-70.459L29.4326-67.1323Z"/>
  </g>
  <line id="Baseline-L" style="fill:none;stroke:#27AAE1;opacity:1;stroke-width:0.5;" x1="263" x2="3036" y1="1556" y2="1556"/>
  <line id="Capline-L" style="fill:none;stroke:#27AAE1;opacity:1;stroke-width:0.5;" x1="263" x2="3036" y1="1485.54" y2="1485.54"/>
  <line id="left-margin-Ultralight-S" style="fill:none;stroke:#00AEEF;stroke-width:0.5;opacity:1.0;" x1="522.811" x2="522.811" y1="600.785" y2="720.121"/>
  <line id="right-margin-Ultralight-S" style="fill:none;stroke:#00AEEF;stroke-width:0.5;opacity:1.0;" x1="596.611" x2="596.611" y1="600.785" y2="720.121"/>
  <line id="left-margin-Regular-S" style="fill:none;stroke:#00AEEF;stroke-width:0.5;opacity:1.0;" x1="1409.19" x2="1409.19" y1="600.785" y2="720.121"/>
  <line id="right-margin-Regular-S" style="fill:none;stroke:#00AEEF;stroke-width:0.5;opacity:1.0;" x1="1490.49" x2="1490.49" y1="600.785" y2="720.121"/>
  <line id="left-margin-Black-S" style="fill:none;stroke:#00AEEF;stroke-width:0.5;opacity:1.0;" x1="2889.7" x2="2889.7" y1="600.785" y2="720.121"/>
  <line id="right-margin-Black-S" style="fill:none;stroke:#00AEEF;stroke-width:0.5;opacity:1.0;" x1="2977.1" x2="2977.1" y1="600.785" y2="720.121"/>
 </g>
 <g id="Symbols">
  <g id="Black-S" transform="matrix(1 0 0 1 2889.7 696)">
   <path d="M18.01-66.2L14.01-66.2C13.01-66.2 12.01-65.4 12.01-64.2L12.01-59.7C12.01-58.7 12.81-57.7 14.01-57.7L14.01-57.7L18.01-57.7L18.01-66.2L18.01-66.2ZM18.01-39.3L14.01-39.3C13.01-39.3 12.01-38.5 12.01-37.3L12.01-32.8C12.01-31.8 12.81-30.8 14.01-30.8L14.01-30.8L18.01-30.8L18.01-39.3L18.01-39.3ZM18.01-12.4L14.01-12.4C13.01-12.4 12.01-11.6 12.01-10.4L12.01-5.9C12.01-4.9 12.81-3.9 14.01-3.9L14.01-3.9L18.01-3.9L18.01-12.4L18.01-12.4ZM73.41-51.4C74.41-51.4 75.31-52.2 75.31-53.3L75.31-70.9C75.31-71.9 74.51-72.8 73.41-72.8L56.31-72.8L56.31-80.8C56.31-82.3 55.11-83.5 53.61-83.5C52.11-83.5 50.91-82.3 50.91-80.8L50.91-72.8L41.31-72.8C36.91-72.8 33.11-70.1 31.51-66.3L20.41-66.3L20.41-57.9L31.51-57.9C33.11-54.1 36.91-51.4 41.31-51.4L51.01-51.4L51.01-45.9L41.41-45.9C37.01-45.9 33.21-43.2 31.61-39.4L20.41-39.4L20.41-31L31.51-31C33.11-27.2 36.91-24.5 41.31-24.5L51.01-24.5L51.01-19L41.41-19C37.01-19 33.21-16.3 31.61-12.5L20.41-12.5L20.41-4L31.51-4C33.11-0.2 36.91 2.5 41.31 2.5L51.01 2.5L51.01 10.4C51.01 11.9 52.21 13.1 53.71 13.1C55.21 13.1 56.41 11.9 56.41 10.4L56.41 2.4L73.51 2.4C74.51 2.4 75.41 1.6 75.41 0.5L75.41-17.1C75.41-18.1 74.61-19 73.51-19L56.31-19L56.31-24.5L73.41-24.5C74.41-24.5 75.31-25.3 75.31-26.4L75.31-44C75.31-45 74.51-45.9 73.41-45.9L56.31-45.9L56.31-51.4L73.41-51.4ZM64.71-13.7L64.71-2.9C64.71-2.3 64.21-1.9 63.71-1.9L44.21-1.9C43.61-1.9 43.21-2.4 43.21-2.9L43.21-13.7C43.21-14.3 43.71-14.7 44.21-14.7L63.71-14.7C64.31-14.7 64.71-14.2 64.71-13.7ZM64.71-40.6L64.71-29.8C64.71-29.2 64.21-28.8 63.71-28.8L44.21-28.8C43.61-28.8 43.21-29.3 43.21-29.8L43.21-40.6C43.21-41.2 43.71-41.6 44.21-41.6L63.71-41.6C64.31-41.6 64.71-41.1 64.71-40.6ZM43.21-56.6L43.21-67.4C43.21-68 43.71-68.4 44.21-68.4L63.71-68.4C64.31-68.4 64.71-67.9 64.71-67.4L64.71-56.6C64.71-56 64.21-55.6 63.71-55.6L44.21-55.6C43.71-55.6 43.21-56.1 43.21-56.6Z"/>
  </g>
  <g id="Regular-S" transform="matrix(1 0 0 1 1409.19 696)">
   <path d="M16.6-64.4L12.9-64.4C11.9-64.4 11.1-63.6 11.1-62.6L11.1-58.4C11.1-57.4 11.9-56.6 12.9-56.6L12.9-56.6L16.6-56.6L16.6-64.4L16.6-64.4ZM16.6-39.1L12.9-39.1C11.9-39.1 11.1-38.3 11.1-37.3L11.1-33.1C11.1-32.1 11.9-31.3 12.9-31.3L12.9-31.3L16.6-31.3L16.6-39.1L16.6-39.1ZM16.6-13.9L12.9-13.9C11.9-13.9 11.1-13.1 11.1-12.1L11.1-7.9C11.1-6.9 11.9-6.1 12.9-6.1L12.9-6.1L16.6-6.1L16.6-13.9L16.6-13.9ZM68.6-50.5C69.6-50.5 70.3-51.3 70.3-52.2L70.3-68.7C70.3-69.7 69.5-70.4 68.6-70.4L52.6-70.4L52.6-78C52.6-79.4 51.5-80.5 50.1-80.5C48.7-80.5 47.6-79.4 47.6-78L47.6-70.5L38.6-70.5C34.5-70.5 30.9-68 29.4-64.4L18.8-64.4L18.8-56.5L29.2-56.5C30.7-52.9 34.3-50.4 38.4-50.4L47.4-50.4L47.4-45.2L38.4-45.2C34.3-45.2 30.7-42.7 29.2-39.1L18.8-39.1L18.8-31.2L29.2-31.2C30.7-27.6 34.3-25.1 38.4-25.1L47.4-25.1L47.4-19.9L38.4-19.9C34.3-19.9 30.7-17.4 29.2-13.8L18.8-13.8L18.8-5.9L29.2-5.9C30.8-2.5 34.3 0 38.5 0L47.5 0L47.5 7.4C47.5 8.8 48.6 9.9 50 9.9C51.4 9.9 52.5 8.8 52.5 7.4L52.5 0L68.5 0C69.5 0 70.2-0.8 70.2-1.7L70.2-18.2C70.2-19.2 69.4-19.9 68.5-19.9L52.5-19.9L52.5-25.1L68.5-25.1C69.5-25.1 70.2-25.9 70.2-26.8L70.2-43.3C70.2-44.3 69.4-45 68.5-45L52.5-45L52.5-50.2L68.6-50.2ZM60.4-15.1L60.4-5C60.4-4.5 60-4 59.4-4L41.2-4C40.7-4 40.2-4.4 40.2-5L40.2-15.1C40.2-15.6 40.6-16.1 41.2-16.1L59.5-16.1C60-16.1 60.4-15.6 60.4-15.1ZM60.4-40.3L60.4-30.2C60.4-29.7 60-29.2 59.4-29.2L41.2-29.2C40.7-29.2 40.2-29.6 40.2-30.2L40.2-40.3C40.2-40.8 40.6-41.3 41.2-41.3L59.5-41.3C60-41.3 60.4-40.9 60.4-40.3ZM40.2-55.4L40.2-65.5C40.2-66 40.6-66.5 41.2-66.5L59.5-66.5C60-66.5 60.5-66.1 60.5-65.5L60.5-55.4C60.5-54.9 60.1-54.4 59.5-54.4L41.2-54.4C40.6-54.4 40.2-54.9 40.2-55.4Z"/>
  </g>
  <g id="Ultralight-S" transform="matrix(1 0 0 1 522.811 696)">
   <path d="M14.804-61.9L11.404-61.9C10.504-61.9 9.704-61.2 9.704-60.2L9.704-56.3C9.704-55.4 10.404-54.6 11.404-54.6L11.404-54.6L14.804-54.6L14.804-61.9L14.804-61.9ZM14.804-38.7L11.404-38.7C10.504-38.7 9.704-38 9.704-37L9.704-33.1C9.704-32.2 10.404-31.4 11.404-31.4L11.404-31.4L14.804-31.4L14.804-38.7L14.804-38.7ZM14.804-15.5L11.404-15.5C10.504-15.5 9.704-14.8 9.704-13.8L9.704-9.9C9.704-9 10.404-8.2 11.404-8.2L11.404-8.2L14.804-8.2L14.804-15.5L14.804-15.5ZM62.504-49.1C63.404-49.1 64.104-49.8 64.104-50.7L64.104-65.9C64.104-66.8 63.404-67.5 62.504-67.5L47.804-67.5L47.804-74.4C47.804-75.7 46.804-76.7 45.504-76.7C44.204-76.7 43.204-75.7 43.204-74.4L43.204-67.5L34.904-67.5C31.104-67.5 27.804-65.2 26.404-61.9L16.804-61.9L16.804-54.7L26.404-54.7C27.804-51.4 31.104-49.1 34.904-49.1L43.204-49.1L43.204-44.3L34.904-44.3C31.104-44.3 27.804-42 26.404-38.7L16.804-38.7L16.804-31.5L26.404-31.5C27.804-28.2 31.104-25.9 34.904-25.9L43.204-25.9L43.204-21.1L34.904-21.1C31.104-21.1 27.804-18.8 26.404-15.5L16.804-15.5L16.804-8.3L26.404-8.3C27.804-5 31.104-2.7 34.904-2.7L43.204-2.7L43.204 4C43.204 5.3 44.204 6.3 45.504 6.3C46.804 6.3 47.804 5.3 47.804 4L47.804-2.8L62.504-2.8C63.404-2.8 64.104-3.5 64.104-4.4L64.104-19.6C64.104-20.5 63.404-21.2 62.504-21.2L47.804-21.2L47.804-26L62.504-26C63.404-26 64.104-26.7 64.104-27.6L64.104-42.8C64.104-43.7 63.404-44.4 62.504-44.4L47.804-44.4L47.804-49.2L62.504-49.2ZM55.004-16.6L55.004-7.3C55.004-6.8 54.604-6.4 54.104-6.4L37.404-6.4C36.904-6.4 36.504-6.8 36.504-7.3L36.504-16.6C36.504-17.1 36.904-17.5 37.404-17.5L54.204-17.5C54.604-17.5 55.004-17.1 55.004-16.6ZM55.004-39.8L55.004-30.5C55.004-30 54.604-29.6 54.104-29.6L37.404-29.6C36.904-29.6 36.504-30 36.504-30.5L36.504-39.8C36.504-40.3 36.904-40.7 37.404-40.7L54.204-40.7C54.604-40.7 55.004-40.3 55.004-39.8ZM36.504-53.7L36.504-63C36.504-63.5 36.904-63.9 37.404-63.9L54.204-63.9C54.704-63.9 55.104-63.5 55.104-63L55.104-53.7C55.104-53.2 54.704-52.8 54.204-52.8L37.404-52.8C36.904-52.8 36.504-53.2 36.504-53.7Z"/>
  </g>
 </g>
</svg>
