<?xml version="1.0" encoding="UTF-8"?>
<!--Generator: Apple Native CoreSVG 175.5-->
<!DOCTYPE svg
PUBLIC "-//W3C//DTD SVG 1.1//EN"
       "http://www.w3.org/Graphics/SVG/1.1/DTD/svg11.dtd">
<svg version="1.1" xmlns="http://www.w3.org/2000/svg" xmlns:xlink="http://www.w3.org/1999/xlink" width="3300" height="2200">
 <!--glyph: "", point size: 100.0, font version: "18.0d12e2", template writer version: "101"-->
 <style>.monochrome-0 {fill:#000000}

.SFSymbolsPreview000000 {fill:#000000;opacity:1.0}
</style>
 <g id="Notes">
  <rect height="2200" id="artboard" style="fill:white;opacity:1" width="3300" x="0" y="0"/>
  <line style="fill:none;stroke:black;opacity:1;stroke-width:0.5;" x1="263" x2="3036" y1="292" y2="292"/>
  <text style="stroke:none;fill:black;font-family:sans-serif;font-size:13;font-weight:bold;" transform="matrix(1 0 0 1 263 322)">Weight/Scale Variations</text>
  <text style="stroke:none;fill:black;font-family:sans-serif;font-size:13;text-anchor:middle;" transform="matrix(1 0 0 1 559.711 322)">Ultralight</text>
  <text style="stroke:none;fill:black;font-family:sans-serif;font-size:13;text-anchor:middle;" transform="matrix(1 0 0 1 856.422 322)">Thin</text>
  <text style="stroke:none;fill:black;font-family:sans-serif;font-size:13;text-anchor:middle;" transform="matrix(1 0 0 1 1153.13 322)">Light</text>
  <text style="stroke:none;fill:black;font-family:sans-serif;font-size:13;text-anchor:middle;" transform="matrix(1 0 0 1 1449.84 322)">Regular</text>
  <text style="stroke:none;fill:black;font-family:sans-serif;font-size:13;text-anchor:middle;" transform="matrix(1 0 0 1 1746.56 322)">Medium</text>
  <text style="stroke:none;fill:black;font-family:sans-serif;font-size:13;text-anchor:middle;" transform="matrix(1 0 0 1 2043.27 322)">Semibold</text>
  <text style="stroke:none;fill:black;font-family:sans-serif;font-size:13;text-anchor:middle;" transform="matrix(1 0 0 1 2339.98 322)">Bold</text>
  <text style="stroke:none;fill:black;font-family:sans-serif;font-size:13;text-anchor:middle;" transform="matrix(1 0 0 1 2636.69 322)">Heavy</text>
  <text style="stroke:none;fill:black;font-family:sans-serif;font-size:13;text-anchor:middle;" transform="matrix(1 0 0 1 2933.4 322)">Black</text>
  <line style="fill:none;stroke:black;opacity:1;stroke-width:0.5;" x1="263" x2="3036" y1="1903" y2="1903"/>
  <g transform="matrix(1 0 0 1 263 1933)">
   <path d="M9.24805 0.830078C13.5547 0.830078 17.1387-2.74414 17.1387-7.05078C17.1387-11.3574 13.5449-14.9316 9.23828-14.9316C4.94141-14.9316 1.36719-11.3574 1.36719-7.05078C1.36719-2.74414 4.95117 0.830078 9.24805 0.830078ZM9.24805-0.654297C5.70312-0.654297 2.87109-3.49609 2.87109-7.05078C2.87109-10.6055 5.69336-13.4473 9.23828-13.4473C12.793-13.4473 15.6445-10.6055 15.6445-7.05078C15.6445-3.49609 12.8027-0.654297 9.24805-0.654297ZM5.6543-7.05078C5.6543-6.62109 5.95703-6.32812 6.40625-6.32812L8.50586-6.32812L8.50586-4.20898C8.50586-3.76953 8.79883-3.4668 9.22852-3.4668C9.67773-3.4668 9.9707-3.76953 9.9707-4.20898L9.9707-6.32812L12.0898-6.32812C12.5293-6.32812 12.832-6.62109 12.832-7.05078C12.832-7.49023 12.5293-7.79297 12.0898-7.79297L9.9707-7.79297L9.9707-9.90234C9.9707-10.3516 9.67773-10.6543 9.22852-10.6543C8.79883-10.6543 8.50586-10.3516 8.50586-9.90234L8.50586-7.79297L6.40625-7.79297C5.95703-7.79297 5.6543-7.49023 5.6543-7.05078Z"/>
  </g>
  <g transform="matrix(1 0 0 1 281.867 1933)">
   <path d="M11.709 2.91016C17.1582 2.91016 21.6699-1.61133 21.6699-7.05078C21.6699-12.5 17.1484-17.0117 11.6992-17.0117C6.25977-17.0117 1.74805-12.5 1.74805-7.05078C1.74805-1.61133 6.26953 2.91016 11.709 2.91016ZM11.709 1.25C7.09961 1.25 3.41797-2.44141 3.41797-7.05078C3.41797-11.6602 7.08984-15.3516 11.6992-15.3516C16.3086-15.3516 20.0098-11.6602 20.0098-7.05078C20.0098-2.44141 16.3184 1.25 11.709 1.25ZM7.17773-7.05078C7.17773-6.57227 7.50977-6.25 8.00781-6.25L10.8789-6.25L10.8789-3.36914C10.8789-2.88086 11.2109-2.53906 11.6895-2.53906C12.1777-2.53906 12.5195-2.87109 12.5195-3.36914L12.5195-6.25L15.4004-6.25C15.8887-6.25 16.2305-6.57227 16.2305-7.05078C16.2305-7.53906 15.8887-7.88086 15.4004-7.88086L12.5195-7.88086L12.5195-10.752C12.5195-11.25 12.1777-11.5918 11.6895-11.5918C11.2109-11.5918 10.8789-11.25 10.8789-10.752L10.8789-7.88086L8.00781-7.88086C7.50977-7.88086 7.17773-7.53906 7.17773-7.05078Z"/>
  </g>
  <g transform="matrix(1 0 0 1 305.646 1933)">
   <path d="M14.9707 5.66406C21.9336 5.66406 27.6953-0.0976562 27.6953-7.05078C27.6953-14.0137 21.9238-19.7754 14.9609-19.7754C8.00781-19.7754 2.25586-14.0137 2.25586-7.05078C2.25586-0.0976562 8.01758 5.66406 14.9707 5.66406ZM14.9707 3.84766C8.93555 3.84766 4.08203-1.01562 4.08203-7.05078C4.08203-13.0957 8.92578-17.9492 14.9609-17.9492C21.0059-17.9492 25.8691-13.0957 25.8691-7.05078C25.8691-1.01562 21.0156 3.84766 14.9707 3.84766ZM9.19922-7.05078C9.19922-6.5332 9.57031-6.17188 10.1172-6.17188L14.0625-6.17188L14.0625-2.2168C14.0625-1.67969 14.4336-1.29883 14.9512-1.29883C15.4883-1.29883 15.8594-1.66992 15.8594-2.2168L15.8594-6.17188L19.8145-6.17188C20.3516-6.17188 20.7324-6.5332 20.7324-7.05078C20.7324-7.59766 20.3613-7.96875 19.8145-7.96875L15.8594-7.96875L15.8594-11.9141C15.8594-12.4609 15.4883-12.8418 14.9512-12.8418C14.4336-12.8418 14.0625-12.4609 14.0625-11.9141L14.0625-7.96875L10.1172-7.96875C9.57031-7.96875 9.19922-7.59766 9.19922-7.05078Z"/>
  </g>
  <text style="stroke:none;fill:black;font-family:sans-serif;font-size:13;font-weight:bold;" transform="matrix(1 0 0 1 263 1953)">Design Variations</text>
  <text style="stroke:none;fill:black;font-family:sans-serif;font-size:13;" transform="matrix(1 0 0 1 263 1971)">Symbols are supported in up to nine weights and three scales.</text>
  <text style="stroke:none;fill:black;font-family:sans-serif;font-size:13;" transform="matrix(1 0 0 1 263 1989)">For optimal layout with text and other symbols, vertically align</text>
  <text style="stroke:none;fill:black;font-family:sans-serif;font-size:13;" transform="matrix(1 0 0 1 263 2007)">symbols with the adjacent text.</text>
  <line style="fill:none;stroke:#00AEEF;stroke-width:0.5;opacity:1.0;" x1="776" x2="776" y1="1919" y2="1933"/>
  <g transform="matrix(1 0 0 1 776 1933)">
   <path d="M3.31055 0.15625C3.82812 0.15625 4.08203-0.0390625 4.26758-0.585938L5.52734-4.0332L11.2891-4.0332L12.5488-0.585938C12.7344-0.0390625 12.9883 0.15625 13.4961 0.15625C14.0137 0.15625 14.3457-0.15625 14.3457-0.644531C14.3457-0.810547 14.3164-0.966797 14.2383-1.17188L9.6582-13.3691C9.43359-13.9648 9.0332-14.2676 8.4082-14.2676C7.80273-14.2676 7.39258-13.9746 7.17773-13.3789L2.59766-1.16211C2.51953-0.957031 2.49023-0.800781 2.49023-0.634766C2.49023-0.146484 2.80273 0.15625 3.31055 0.15625ZM6.00586-5.51758L8.37891-12.0898L8.42773-12.0898L10.8008-5.51758Z"/>
  </g>
  <line style="fill:none;stroke:#00AEEF;stroke-width:0.5;opacity:1.0;" x1="793.197" x2="793.197" y1="1919" y2="1933"/>
  <text style="stroke:none;fill:black;font-family:sans-serif;font-size:13;font-weight:bold;" transform="matrix(1 0 0 1 776 1953)">Margins</text>
  <text style="stroke:none;fill:black;font-family:sans-serif;font-size:13;" transform="matrix(1 0 0 1 776 1971)">Leading and trailing margins on the left and right side of each symbol</text>
  <text style="stroke:none;fill:black;font-family:sans-serif;font-size:13;" transform="matrix(1 0 0 1 776 1989)">can be adjusted by modifying the x-location of the margin guidelines.</text>
  <text style="stroke:none;fill:black;font-family:sans-serif;font-size:13;" transform="matrix(1 0 0 1 776 2007)">Modifications are automatically applied proportionally to all</text>
  <text style="stroke:none;fill:black;font-family:sans-serif;font-size:13;" transform="matrix(1 0 0 1 776 2025)">scales and weights.</text>
  <g transform="matrix(1 0 0 1 1289 1933)">
   <path d="M2.8418 1.86523L4.54102 3.57422C5.40039 4.44336 6.38672 4.38477 7.31445 3.35938L18.0078-8.42773L17.041-9.4043L6.42578 2.27539C6.07422 2.67578 5.74219 2.77344 5.27344 2.30469L4.10156 1.14258C3.63281 0.683594 3.74023 0.341797 4.14062-0.0195312L15.6152-10.8203L14.6387-11.7871L3.04688-0.898438C2.06055 0.0195312 1.98242 0.996094 2.8418 1.86523ZM9.25781-16.3281C8.83789-15.918 8.80859-15.3418 9.04297-14.9512C9.27734-14.5898 9.73633-14.3555 10.3809-14.5215C11.8457-14.8633 13.3691-14.9219 14.7949-13.9844L14.209-12.5293C13.8672-11.6992 14.043-11.1133 14.5801-10.5664L16.875-8.25195C17.3633-7.76367 17.7734-7.74414 18.3398-7.8418L19.4043-8.03711L20.0684-7.36328L20.0293-6.80664C19.9902-6.30859 20.1172-5.92773 20.6055-5.44922L21.3672-4.70703C21.8457-4.22852 22.4609-4.19922 22.9297-4.66797L25.8398-7.58789C26.3086-8.05664 26.2891-8.65234 25.8105-9.13086L25.0391-9.89258C24.5605-10.3711 24.1895-10.5273 23.7109-10.4883L23.1348-10.4395L22.4902-11.0742L22.7344-12.1973C22.8613-12.7637 22.7051-13.2031 22.1191-13.7891L19.9219-15.9766C16.582-19.2969 12.1484-19.2188 9.25781-16.3281ZM10.752-15.957C13.1836-17.7344 16.4746-17.4316 18.7012-15.2051L21.1328-12.793C21.3672-12.5586 21.4062-12.373 21.3379-12.0312L21.0156-10.5469L22.5195-9.0625L23.5059-9.12109C23.7598-9.13086 23.8379-9.11133 24.0332-8.91602L24.6094-8.33984L22.168-5.89844L21.5918-6.47461C21.3965-6.66992 21.3672-6.74805 21.377-7.01172L21.4453-7.98828L19.9512-9.47266L18.4277-9.21875C18.1055-9.15039 17.959-9.17969 17.7148-9.41406L15.7129-11.416C15.459-11.6504 15.4297-11.8164 15.5859-12.1875L16.4648-14.2773C14.9023-15.7324 12.8711-16.3574 10.8398-15.7617C10.6836-15.7227 10.625-15.8496 10.752-15.957Z"/>
  </g>
  <text style="stroke:none;fill:black;font-family:sans-serif;font-size:13;font-weight:bold;" transform="matrix(1 0 0 1 1289 1953)">Exporting</text>
  <text style="stroke:none;fill:black;font-family:sans-serif;font-size:13;" transform="matrix(1 0 0 1 1289 1971)">Symbols should be outlined when exporting to ensure the</text>
  <text style="stroke:none;fill:black;font-family:sans-serif;font-size:13;" transform="matrix(1 0 0 1 1289 1989)">design is preserved when submitting to Xcode.</text>
  <text id="template-version" style="stroke:none;fill:black;font-family:sans-serif;font-size:13;text-anchor:end;" transform="matrix(1 0 0 1 3036 1933)">Template v.4.0</text>
  <text style="stroke:none;fill:black;font-family:sans-serif;font-size:13;text-anchor:end;" transform="matrix(1 0 0 1 3036 1951)">Requires Xcode 14 or greater</text>
  <text id="descriptive-name" style="stroke:none;fill:black;font-family:sans-serif;font-size:13;text-anchor:end;" transform="matrix(1 0 0 1 3036 1969)">Generated from cellar.eight.bottles</text>
  <text style="stroke:none;fill:black;font-family:sans-serif;font-size:13;text-anchor:end;" transform="matrix(1 0 0 1 3036 1987)">Typeset at 100 points</text>
  <text style="stroke:none;fill:black;font-family:sans-serif;font-size:13;" transform="matrix(1 0 0 1 263 726)">Small</text>
  <text style="stroke:none;fill:black;font-family:sans-serif;font-size:13;" transform="matrix(1 0 0 1 263 1156)">Medium</text>
  <text style="stroke:none;fill:black;font-family:sans-serif;font-size:13;" transform="matrix(1 0 0 1 263 1586)">Large</text>
 </g>
 <g id="Guides">
  <g id="H-reference" style="fill:#27AAE1;stroke:none;" transform="matrix(1 0 0 1 339 696)">
   <path d="M0.993654 0L3.63775 0L29.3281-67.1323L30.0303-67.1323L30.0303-70.459L28.1226-70.459ZM11.6885-24.4799L46.9815-24.4799L46.2315-26.7285L12.4385-26.7285ZM55.1196 0L57.7637 0L30.6382-70.459L29.4326-70.459L29.4326-67.1323Z"/>
  </g>
  <line id="Baseline-S" style="fill:none;stroke:#27AAE1;opacity:1;stroke-width:0.5;" x1="263" x2="3036" y1="696" y2="696"/>
  <line id="Capline-S" style="fill:none;stroke:#27AAE1;opacity:1;stroke-width:0.5;" x1="263" x2="3036" y1="625.541" y2="625.541"/>
  <g id="H-reference" style="fill:#27AAE1;stroke:none;" transform="matrix(1 0 0 1 339 1126)">
   <path d="M0.993654 0L3.63775 0L29.3281-67.1323L30.0303-67.1323L30.0303-70.459L28.1226-70.459ZM11.6885-24.4799L46.9815-24.4799L46.2315-26.7285L12.4385-26.7285ZM55.1196 0L57.7637 0L30.6382-70.459L29.4326-70.459L29.4326-67.1323Z"/>
  </g>
  <line id="Baseline-M" style="fill:none;stroke:#27AAE1;opacity:1;stroke-width:0.5;" x1="263" x2="3036" y1="1126" y2="1126"/>
  <line id="Capline-M" style="fill:none;stroke:#27AAE1;opacity:1;stroke-width:0.5;" x1="263" x2="3036" y1="1055.54" y2="1055.54"/>
  <g id="H-reference" style="fill:#27AAE1;stroke:none;" transform="matrix(1 0 0 1 339 1556)">
   <path d="M0.993654 0L3.63775 0L29.3281-67.1323L30.0303-67.1323L30.0303-70.459L28.1226-70.459ZM11.6885-24.4799L46.9815-24.4799L46.2315-26.7285L12.4385-26.7285ZM55.1196 0L57.7637 0L30.6382-70.459L29.4326-70.459L29.4326-67.1323Z"/>
  </g>
  <line id="Baseline-L" style="fill:none;stroke:#27AAE1;opacity:1;stroke-width:0.5;" x1="263" x2="3036" y1="1556" y2="1556"/>
  <line id="Capline-L" style="fill:none;stroke:#27AAE1;opacity:1;stroke-width:0.5;" x1="263" x2="3036" y1="1485.54" y2="1485.54"/>
  <line id="left-margin-Ultralight-S" style="fill:none;stroke:#00AEEF;stroke-width:0.5;opacity:1.0;" x1="500.811" x2="500.811" y1="600.785" y2="720.121"/>
  <line id="right-margin-Ultralight-S" style="fill:none;stroke:#00AEEF;stroke-width:0.5;opacity:1.0;" x1="618.611" x2="618.611" y1="600.785" y2="720.121"/>
  <line id="left-margin-Regular-S" style="fill:none;stroke:#00AEEF;stroke-width:0.5;opacity:1.0;" x1="1386.19" x2="1386.19" y1="600.785" y2="720.121"/>
  <line id="right-margin-Regular-S" style="fill:none;stroke:#00AEEF;stroke-width:0.5;opacity:1.0;" x1="1513.49" x2="1513.49" y1="600.785" y2="720.121"/>
  <line id="left-margin-Black-S" style="fill:none;stroke:#00AEEF;stroke-width:0.5;opacity:1.0;" x1="2866.7" x2="2866.7" y1="600.785" y2="720.121"/>
  <line id="right-margin-Black-S" style="fill:none;stroke:#00AEEF;stroke-width:0.5;opacity:1.0;" x1="3000.1" x2="3000.1" y1="600.785" y2="720.121"/>
 </g>
 <g id="Symbols">
  <g id="Black-S" transform="matrix(1 0 0 1 2866.7 696)">
   <path class="monochrome-0 SFSymbolsPreview000000" d="M118.71-59.3C119.51-59.3 120.21-60 120.21-60.8L120.21-75.2C120.21-76 119.51-76.7 118.71-76.7L104.81-76.7L104.81-80.7C104.81-81.9 103.81-82.9 102.61-82.9C101.41-82.9 100.41-81.9 100.41-80.7L100.41-76.7L92.51-76.7C88.91-76.7 85.81-74.5 84.51-71.4L70.21-71.4C69.31-71.4 68.61-70.7 68.61-69.8L68.61-66.1C68.61-65.2 69.31-64.5 70.21-64.5L84.51-64.5C85.81-61.4 88.91-59.2 92.51-59.2L100.41-59.2L100.41-54.7L92.51-54.7C88.91-54.7 85.81-52.5 84.51-49.4L70.21-49.4C69.31-49.4 68.61-48.7 68.61-47.8L68.61-44.1C68.61-43.2 69.31-42.5 70.21-42.5L84.51-42.5C85.81-39.4 88.91-37.2 92.51-37.2L100.41-37.2L100.41-32.7L92.51-32.7C88.91-32.7 85.81-30.5 84.51-27.4L70.21-27.4C69.31-27.4 68.61-26.7 68.61-25.8L68.61-22.1C68.61-21.2 69.31-20.5 70.21-20.5L84.51-20.5C85.81-17.4 88.91-15.2 92.51-15.2L100.41-15.2L100.41-10.7L92.51-10.7C88.91-10.7 85.81-8.5 84.51-5.4L70.21-5.4C69.31-5.4 68.61-4.7 68.61-3.8L68.61-0.1C68.61 0.8 69.31 1.5 70.21 1.5L84.51 1.5C85.81 4.6 88.91 6.8 92.51 6.8L100.41 6.8L100.41 10.9C100.41 12.1 101.41 13.1 102.61 13.1C103.81 13.1 104.81 12.1 104.81 10.9L104.81 6.8L118.71 6.8C119.51 6.8 120.21 6.1 120.21 5.3L120.21-9.1C120.21-9.9 119.51-10.6 118.71-10.6L104.81-10.6L104.81-15.1L118.71-15.1C119.51-15.1 120.21-15.8 120.21-16.6L120.21-31C120.21-31.8 119.51-32.5 118.71-32.5L104.81-32.5L104.81-37L118.71-37C119.51-37 120.21-37.7 120.21-38.5L120.21-52.9C120.21-53.7 119.51-54.4 118.71-54.4L104.81-54.4L104.81-58.9L118.71-58.9ZM63.31-76.8L49.41-76.8L49.41-80.8C49.41-82 48.41-83 47.21-83C46.01-83 45.01-82 45.01-80.8L45.01-76.8L37.11-76.8C33.51-76.8 30.41-74.6 29.11-71.5L14.81-71.5C13.91-71.5 13.21-70.8 13.21-69.9L13.21-66.2C13.21-65.3 13.91-64.6 14.81-64.6L29.11-64.6C30.41-61.5 33.51-59.3 37.11-59.3L45.01-59.3L45.01-54.8L37.11-54.8C33.51-54.8 30.41-52.6 29.11-49.5L14.81-49.5C13.91-49.5 13.21-48.8 13.21-47.9L13.21-44.2C13.21-43.3 13.91-42.6 14.81-42.6L29.11-42.6C30.41-39.5 33.51-37.3 37.11-37.3L45.01-37.3L45.01-32.8L37.11-32.8C33.51-32.8 30.41-30.6 29.11-27.5L14.81-27.5C13.91-27.5 13.21-26.8 13.21-25.9L13.21-22.2C13.21-21.3 13.91-20.6 14.81-20.6L29.11-20.6C30.41-17.5 33.51-15.3 37.11-15.3L45.01-15.3L45.01-10.8L37.11-10.8C33.51-10.8 30.41-8.6 29.11-5.5L14.81-5.5C13.91-5.5 13.21-4.8 13.21-3.9L13.21-0.2C13.21 0.7 13.91 1.4 14.81 1.4L29.11 1.4C30.41 4.5 33.51 6.7 37.11 6.7L45.01 6.7L45.01 10.8C45.01 12 46.01 13 47.21 13C48.41 13 49.41 12 49.41 10.8L49.41 6.7L63.31 6.7C64.11 6.7 64.81 6 64.81 5.2L64.81-9.2C64.81-10 64.11-10.7 63.31-10.7L49.41-10.7L49.41-15.2L63.31-15.2C64.11-15.2 64.81-15.9 64.81-16.7L64.81-31.1C64.81-31.9 64.11-32.6 63.31-32.6L49.41-32.6L49.41-37.1L63.31-37.1C64.11-37.1 64.81-37.8 64.81-38.6L64.81-53C64.81-53.8 64.11-54.5 63.31-54.5L49.41-54.5L49.41-59L63.31-59C64.11-59 64.81-59.7 64.81-60.5L64.81-74.9C64.81-76.1 64.11-76.8 63.31-76.8ZM62.11-52.2L62.11-40.1L37.01-40.1C34.61-40.1 32.41-41.5 31.41-43.8C31.01-44.8 30.01-45.4 29.01-45.4L15.81-45.4L15.81-47L29.01-47C30.11-47 31.01-47.6 31.41-48.6C32.41-50.8 34.61-52.3 37.01-52.3L62.11-52.3ZM117.51-52.2L117.51-40.1L92.41-40.1C90.01-40.1 87.81-41.5 86.81-43.8C86.41-44.8 85.41-45.4 84.41-45.4L71.21-45.4L71.21-47L84.41-47C85.51-47 86.41-47.6 86.81-48.6C87.81-50.8 90.01-52.3 92.41-52.3L117.51-52.3ZM92.51-62C90.11-62 87.91-63.4 86.91-65.7C86.51-66.7 85.51-67.3 84.51-67.3L71.31-67.3L71.31-68.9L84.51-68.9C85.61-68.9 86.51-69.5 86.91-70.5C87.91-72.7 90.11-74.2 92.51-74.2L117.61-74.2L117.61-62.1L92.51-62.1ZM62.11-62L37.01-62C34.61-62 32.41-63.4 31.41-65.7C31.01-66.7 30.01-67.3 29.01-67.3L15.81-67.3L15.81-68.9L29.01-68.9C30.11-68.9 31.01-69.5 31.41-70.5C32.41-72.7 34.61-74.2 37.01-74.2L62.11-74.2L62.11-62ZM62.11-8.2L62.11 3.9L37.01 3.9C34.61 3.9 32.41 2.5 31.41 0.2C31.01-0.8 30.01-1.4 29.01-1.4L15.81-1.4L15.81-3L29.01-3C30.11-3 31.01-3.6 31.41-4.6C32.41-6.8 34.61-8.3 37.01-8.3L62.11-8.3ZM117.51-8.2L117.51 3.9L92.41 3.9C90.01 3.9 87.81 2.5 86.81 0.2C86.41-0.8 85.41-1.4 84.41-1.4L71.21-1.4L71.21-3L84.41-3C85.51-3 86.41-3.6 86.81-4.6C87.81-6.8 90.01-8.3 92.41-8.3L117.51-8.3ZM62.11-30.2L62.11-18.1L37.01-18.1C34.61-18.1 32.41-19.5 31.41-21.8C31.01-22.8 30.01-23.4 29.01-23.4L15.81-23.4L15.81-25L29.01-25C30.11-25 31.01-25.6 31.41-26.6C32.41-28.8 34.61-30.3 37.01-30.3L62.11-30.3ZM117.51-30.2L117.51-18.1L92.41-18.1C90.01-18.1 87.81-19.5 86.81-21.8C86.41-22.8 85.41-23.4 84.41-23.4L71.21-23.4L71.21-25L84.41-25C85.51-25 86.41-25.6 86.81-26.6C87.81-28.8 90.01-30.3 92.41-30.3L117.51-30.3ZM40.01 2.1L54.11 2.1C54.51 2.1 54.81 1.8 54.81 1.4L54.81-5.6C54.81-6 54.51-6.3 54.11-6.3L40.01-6.3C39.61-6.3 39.31-6 39.31-5.6L39.31 1.4C39.21 1.8 39.61 2.1 40.01 2.1ZM94.71 2.1L108.81 2.1C109.21 2.1 109.51 1.8 109.51 1.4L109.51-5.6C109.51-6 109.21-6.3 108.81-6.3L94.71-6.3C94.31-6.3 94.01-6 94.01-5.6L94.01 1.4C93.91 1.8 94.21 2.1 94.71 2.1ZM40.01-63.8L54.11-63.8C54.51-63.8 54.81-64.1 54.81-64.5L54.81-71.5C54.81-71.9 54.51-72.2 54.11-72.2L40.01-72.2C39.61-72.2 39.31-71.9 39.31-71.5L39.31-64.5C39.21-64.1 39.61-63.8 40.01-63.8ZM40.01-41.9L54.11-41.9C54.51-41.9 54.81-42.2 54.81-42.6L54.81-49.6C54.81-50 54.51-50.3 54.11-50.3L40.01-50.3C39.61-50.3 39.31-50 39.31-49.6L39.31-42.6C39.21-42.2 39.61-41.9 40.01-41.9ZM94.71-41.9L108.81-41.9C109.21-41.9 109.51-42.2 109.51-42.6L109.51-49.6C109.51-50 109.21-50.3 108.81-50.3L94.71-50.3C94.31-50.3 94.01-50 94.01-49.6L94.01-42.6C93.91-42.2 94.21-41.9 94.71-41.9ZM108.81-72.2L94.71-72.2C94.31-72.2 94.01-71.9 94.01-71.5L94.01-64.5C94.01-64.1 94.31-63.8 94.71-63.8L108.81-63.8C109.21-63.8 109.51-64.1 109.51-64.5L109.51-71.5C109.51-71.9 109.21-72.2 108.81-72.2ZM40.01-19.9L54.11-19.9C54.51-19.9 54.81-20.2 54.81-20.6L54.81-27.6C54.81-28 54.51-28.3 54.11-28.3L40.01-28.3C39.61-28.3 39.31-28 39.31-27.6L39.31-20.6C39.21-20.2 39.61-19.9 40.01-19.9ZM94.71-19.9L108.81-19.9C109.21-19.9 109.51-20.2 109.51-20.6L109.51-27.6C109.51-28 109.21-28.3 108.81-28.3L94.71-28.3C94.31-28.3 94.01-28 94.01-27.6L94.01-20.6C93.91-20.2 94.21-19.9 94.71-19.9Z"/>
  </g>
  <g id="Regular-S" transform="matrix(1 0 0 1 1386.19 696)">
   <path class="monochrome-0 SFSymbolsPreview000000" d="M112.8-58.2C113.6-58.2 114.2-58.8 114.2-59.6L114.2-73.2C114.2-74 113.6-74.6 112.8-74.6L99.7-74.6L99.7-78.4C99.7-79.5 98.8-80.5 97.6-80.5C96.5-80.5 95.5-79.6 95.5-78.4L95.5-74.6L88.1-74.6C84.7-74.6 81.8-72.5 80.5-69.6L67-69.6C66.2-69.6 65.5-69 65.5-68.1L65.5-64.6C65.5-63.8 66.1-63.1 67-63.1L80.5-63.1C81.8-60.2 84.7-58.1 88.1-58.1L95.5-58.1L95.5-53.8L88.1-53.8C84.7-53.8 81.8-51.7 80.5-48.8L67-48.8C66.2-48.8 65.5-48.2 65.5-47.3L65.5-43.8C65.5-43 66.1-42.3 67-42.3L80.5-42.3C81.8-39.4 84.7-37.3 88.1-37.3L95.5-37.3L95.5-33L88.1-33C84.7-33 81.8-30.9 80.5-28L67-28C66.2-28 65.5-27.4 65.5-26.5L65.5-23C65.5-22.2 66.1-21.5 67-21.5L80.5-21.5C81.8-18.6 84.7-16.5 88.1-16.5L95.5-16.5L95.5-12.2L88.1-12.2C84.7-12.2 81.8-10.1 80.5-7.2L67-7.4C66.2-7.4 65.5-6.8 65.5-5.9L65.5-2.4C65.5-1.7 66.2-1 67-1L80.5-1C81.8 1.9 84.7 4 88.1 4L95.5 4L95.5 7.9C95.5 9 96.4 10 97.6 10C98.7 10 99.7 9.1 99.7 7.9L99.7 4L112.8 4C113.6 4 114.2 3.4 114.2 2.6L114.2-11C114.2-11.8 113.6-12.4 112.8-12.4L99.7-12.4L99.7-16.7L112.8-16.7C113.6-16.7 114.2-17.3 114.2-18.1L114.2-31.7C114.2-32.5 113.6-33.1 112.8-33.1L99.7-33.1L99.7-37.4L112.8-37.4C113.6-37.4 114.2-38 114.2-38.8L114.2-52.4C114.2-53.2 113.6-53.8 112.8-53.8L99.7-53.8L99.7-58.1L112.8-58.1ZM60.6-74.6L47.4-74.6L47.4-78.4C47.4-79.5 46.5-80.5 45.3-80.5C44.2-80.5 43.2-79.6 43.2-78.4L43.2-74.6L35.8-74.6C32.4-74.6 29.5-72.5 28.2-69.6L14.7-69.6C13.9-69.6 13.2-69 13.2-68.1L13.2-64.6C13.2-63.8 13.8-63.1 14.7-63.1L28.2-63.1C29.5-60.2 32.4-58.1 35.8-58.1L43.2-58.1L43.2-53.8L35.8-53.8C32.4-53.8 29.5-51.7 28.2-48.8L14.7-48.8C13.9-48.8 13.2-48.2 13.2-47.3L13.2-43.8C13.2-43 13.8-42.3 14.7-42.3L28.2-42.3C29.5-39.4 32.4-37.3 35.8-37.3L43.2-37.3L43.2-33L35.8-33C32.4-33 29.5-30.9 28.2-28L14.7-28C13.9-28 13.2-27.4 13.2-26.5L13.2-23C13.2-22.2 13.8-21.5 14.7-21.5L28.2-21.5C29.5-18.6 32.4-16.5 35.8-16.5L43.2-16.5L43.2-12.2L35.8-12.2C32.4-12.2 29.5-10.1 28.2-7.2L14.7-7.2C14-7.4 13.3-6.8 13.3-5.9L13.3-2.4C13.3-1.7 13.9-1 14.8-1L28.3-1C29.6 1.9 32.5 4 35.9 4L43.3 4L43.3 7.9C43.3 9 44.2 10 45.4 10C46.5 10 47.5 9.1 47.5 7.9L47.5 4L60.6 4C61.4 4 62 3.4 62 2.6L62-11C62-11.8 61.4-12.4 60.6-12.4L47.4-12.4L47.4-16.7L60.5-16.7C61.3-16.7 61.9-17.3 61.9-18.1L61.9-31.7C61.9-32.5 61.3-33.1 60.5-33.1L47.4-33.1L47.4-37.4L60.5-37.4C61.3-37.4 61.9-38 61.9-38.8L61.9-52.4C61.9-53.2 61.3-53.8 60.5-53.8L47.4-53.8L47.4-58.1L60.5-58.1C61.3-58.1 61.9-58.7 61.9-59.5L61.9-73.1C62-74 61.4-74.6 60.6-74.6ZM59.5-51.4L59.5-39.9L35.8-39.9C33.5-39.9 31.4-41.3 30.5-43.4C30.1-44.3 29.2-44.9 28.2-44.9L15.7-44.9L15.7-46.4L28.2-46.4C29.2-46.4 30.1-47 30.5-47.9C31.4-50 33.5-51.4 35.8-51.4L59.5-51.4ZM111.8-51.4L111.8-39.9L88.1-39.9C85.8-39.9 83.7-41.3 82.8-43.4C82.4-44.3 81.5-44.9 80.5-44.9L68-44.9L68-46.4L80.5-46.4C81.5-46.4 82.4-47 82.8-47.9C83.7-50 85.8-51.4 88.1-51.4L111.8-51.4ZM88.1-60.7C85.8-60.7 83.7-62.1 82.8-64.2C82.4-65.1 81.5-65.7 80.5-65.7L68-65.7L68-67.2L80.5-67.2C81.5-67.2 82.4-67.8 82.8-68.7C83.7-70.8 85.8-72.2 88.1-72.2L111.8-72.2L111.8-60.7L88.1-60.7ZM59.5-60.7L35.8-60.7C33.5-60.7 31.4-62.1 30.5-64.2C30.1-65.1 29.2-65.7 28.2-65.7L15.7-65.7L15.7-67.2L28.2-67.2C29.2-67.2 30.1-67.8 30.5-68.7C31.4-70.8 33.5-72.2 35.8-72.2L59.5-72.2L59.5-60.7ZM59.5-9.9L59.5 1.5L35.8 1.5C33.5 1.5 31.4 0.1 30.5-2C30.1-2.9 29.2-3.5 28.2-3.5L15.7-3.5L15.7-5L28.2-5C29.2-5 30.1-5.6 30.5-6.5C31.4-8.6 33.5-10 35.8-10L59.5-10ZM111.8-9.9L111.8 1.5L88.1 1.5C85.8 1.5 83.7 0.1 82.8-2C82.4-2.9 81.5-3.5 80.5-3.5L68-3.5L68-5L80.5-5C81.5-5 82.4-5.6 82.8-6.5C83.7-8.6 85.8-10 88.1-10L111.8-10ZM59.5-30.7L59.5-19.2L35.8-19.2C33.5-19.2 31.4-20.6 30.5-22.7C30.1-23.6 29.2-24.2 28.2-24.2L15.7-24.2L15.7-25.7L28.2-25.7C29.2-25.7 30.1-26.3 30.5-27.2C31.4-29.3 33.5-30.7 35.8-30.7L59.5-30.7ZM111.8-30.7L111.8-19.2L88.1-19.2C85.8-19.2 83.7-20.6 82.8-22.7C82.4-23.6 81.5-24.2 80.5-24.2L68-24.2L68-25.7L80.5-25.7C81.5-25.7 82.4-26.3 82.8-27.2C83.7-29.3 85.8-30.7 88.1-30.7L111.8-30.7ZM38.6-0.2L51.9-0.2C52.3-0.2 52.6-0.5 52.6-0.9L52.6-7.5C52.6-7.9 52.3-8.2 51.9-8.2L38.6-8.2C38.2-8.2 37.9-7.9 37.9-7.5L37.9-0.9C37.9-0.5 38.2-0.2 38.6-0.2ZM90.2-0.2L103.5-0.2C103.9-0.2 104.2-0.5 104.2-0.9L104.2-7.5C104.2-7.9 103.9-8.2 103.5-8.2L90.2-8.2C89.8-8.2 89.5-7.9 89.5-7.5L89.5-0.9C89.5-0.5 89.8-0.2 90.2-0.2ZM38.6-62.4L51.9-62.4C52.3-62.4 52.6-62.7 52.6-63.1L52.6-69.7C52.6-70.1 52.3-70.4 51.9-70.4L38.6-70.4C38.2-70.4 37.9-70.1 37.9-69.7L37.9-63.1C37.9-62.7 38.2-62.4 38.6-62.4ZM38.6-41.7L51.9-41.7C52.3-41.7 52.6-42 52.6-42.4L52.6-49C52.6-49.4 52.3-49.7 51.9-49.7L38.6-49.7C38.2-49.7 37.9-49.4 37.9-49L37.9-42.4C37.9-42 38.2-41.7 38.6-41.7ZM90.2-41.7L103.5-41.7C103.9-41.7 104.2-42 104.2-42.4L104.2-49C104.2-49.4 103.9-49.7 103.5-49.7L90.2-49.7C89.8-49.7 89.5-49.4 89.5-49L89.5-42.4C89.5-42 89.8-41.7 90.2-41.7ZM103.5-70.4L90.2-70.4C89.8-70.4 89.5-70.1 89.5-69.7L89.5-63.1C89.5-62.7 89.8-62.4 90.2-62.4L103.5-62.4C103.9-62.4 104.2-62.7 104.2-63.1L104.2-69.7C104.2-70 103.9-70.4 103.5-70.4ZM38.6-20.9L51.9-20.9C52.3-20.9 52.6-21.2 52.6-21.6L52.6-28.2C52.6-28.6 52.3-28.9 51.9-28.9L38.6-28.9C38.2-28.9 37.9-28.6 37.9-28.2L37.9-21.6C37.9-21.3 38.2-20.9 38.6-20.9ZM90.2-20.9L103.5-20.9C103.9-20.9 104.2-21.2 104.2-21.6L104.2-28.2C104.2-28.6 103.9-28.9 103.5-28.9L90.2-28.9C89.8-28.9 89.5-28.6 89.5-28.2L89.5-21.6C89.5-21.3 89.8-20.9 90.2-20.9Z"/>
  </g>
  <g id="Ultralight-S" transform="matrix(1 0 0 1 500.811 696)">
   <path class="monochrome-0 SFSymbolsPreview000000" d="M103.904-56.2C104.604-56.2 105.204-56.8 105.204-57.5L105.204-70C105.204-70.7 104.604-71.3 103.904-71.3L91.904-71.3L91.904-74.8C91.904-75.9 91.004-76.7 90.004-76.7C88.904-76.7 88.104-75.8 88.104-74.8L88.104-71.3L81.304-71.3C78.204-71.3 75.504-69.4 74.404-66.7L62.004-66.7C61.304-66.7 60.604-66.1 60.604-65.3L60.604-62.1C60.604-61.4 61.204-60.7 62.004-60.7L74.404-60.7C75.604-58 78.204-56.1 81.304-56.1L88.104-56.1L88.104-52.2L81.304-52.2C78.204-52.2 75.504-50.3 74.404-47.6L62.004-47.6C61.304-47.6 60.604-47 60.604-46.2L60.604-43C60.604-42.3 61.204-41.6 62.004-41.6L74.404-41.6C75.604-38.9 78.204-37 81.304-37L88.104-37L88.104-33.1L81.304-33.1C78.204-33.1 75.504-31.2 74.404-28.5L62.004-28.5C61.304-28.5 60.604-27.9 60.604-27.1L60.604-23.9C60.604-23.2 61.204-22.5 62.004-22.5L74.404-22.5C75.604-19.8 78.204-17.9 81.304-17.9L88.104-17.9L88.104-14L81.304-14C78.204-14 75.504-12.1 74.404-9.4L62.004-9.4C61.304-9.4 60.604-8.8 60.604-8L60.604-4.8C60.604-4.1 61.204-3.4 62.004-3.4L74.404-3.4C75.604-0.7 78.204 1.2 81.304 1.2L88.104 1.2L88.104 4.8C88.104 5.9 89.004 6.7 90.004 6.7C91.104 6.7 91.904 5.8 91.904 4.8L91.904 1.2L103.904 1.2C104.604 1.2 105.204 0.6 105.204-0.1L105.204-13C105.204-13.7 104.604-14.3 103.904-14.3L91.904-14.3L91.904-18.2L103.904-18.2C104.604-18.2 105.204-18.8 105.204-19.5L105.204-32C105.204-32.7 104.604-33.3 103.904-33.3L91.904-33.3L91.904-37.2L103.904-37.2C104.604-37.2 105.204-37.8 105.204-38.5L105.204-51C105.204-51.7 104.604-52.3 103.904-52.3L91.904-52.3L91.904-56.2L103.904-56.2ZM56.004-71.3L44.004-71.3L44.004-74.8C44.004-75.9 43.104-76.7 42.104-76.7C41.004-76.7 40.204-75.8 40.204-74.8L40.204-71.3L33.404-71.3C30.304-71.3 27.604-69.4 26.504-66.7L14.104-66.7C13.404-66.7 12.704-66.1 12.704-65.3L12.704-62.1C12.704-61.4 13.304-60.7 14.104-60.7L26.504-60.7C27.704-58 30.304-56.1 33.404-56.1L40.204-56.1L40.204-52.2L33.404-52.2C30.304-52.2 27.604-50.3 26.504-47.6L14.104-47.6C13.404-47.6 12.704-47 12.704-46.2L12.704-43C12.704-42.3 13.304-41.6 14.104-41.6L26.504-41.6C27.704-38.9 30.304-37 33.404-37L40.204-37L40.204-33.1L33.404-33.1C30.304-33.1 27.604-31.2 26.504-28.5L14.104-28.5C13.404-28.5 12.704-27.9 12.704-27.1L12.704-23.9C12.704-23.2 13.304-22.5 14.104-22.5L26.504-22.5C27.704-19.8 30.304-17.9 33.404-17.9L40.204-17.9L40.204-14L33.404-14C30.304-14 27.604-12.1 26.504-9.4L14.104-9.4C13.404-9.4 12.704-8.8 12.704-8L12.704-4.8C12.704-4.1 13.304-3.4 14.104-3.4L26.504-3.4C27.704-0.7 30.304 1.2 33.404 1.2L40.204 1.2L40.204 4.8C40.204 5.9 41.104 6.7 42.104 6.7C43.204 6.7 44.004 5.8 44.004 4.8L44.004 1.2L56.004 1.2C56.704 1.2 57.304 0.6 57.304-0.1L57.304-13C57.304-13.7 56.704-14.3 56.004-14.3L44.004-14.3L44.004-18.2L56.004-18.2C56.704-18.2 57.304-18.8 57.304-19.5L57.304-32C57.304-32.7 56.704-33.3 56.004-33.3L44.004-33.3L44.004-37.2L56.004-37.2C56.704-37.2 57.304-37.8 57.304-38.5L57.304-51C57.304-51.7 56.704-52.3 56.004-52.3L44.004-52.3L44.004-56.2L56.004-56.2C56.704-56.2 57.304-56.8 57.304-57.5L57.304-70C57.304-70.7 56.704-71.3 56.004-71.3ZM55.004-50L55.004-39.5L33.304-39.5C31.204-39.5 29.304-40.8 28.504-42.7C28.104-43.5 27.304-44.1 26.404-44.1L14.904-44.1L14.904-45.4L26.404-45.4C27.304-45.4 28.104-45.9 28.504-46.8C29.304-48.7 31.204-50 33.304-50L55.004-50ZM102.904-50L102.904-39.5L81.204-39.5C79.104-39.5 77.204-40.8 76.404-42.7C76.004-43.5 75.204-44.1 74.304-44.1L62.804-44.1L62.804-45.4L74.304-45.4C75.204-45.4 76.004-45.9 76.404-46.8C77.204-48.7 79.104-50 81.204-50L102.904-50ZM81.204-58.5C79.104-58.5 77.204-59.8 76.404-61.7C76.004-62.5 75.204-63.1 74.304-63.1L62.804-63.1L62.804-64.4L74.304-64.4C75.204-64.4 76.004-64.9 76.404-65.8C77.204-67.7 79.104-69 81.204-69L102.904-69L102.904-58.5L81.204-58.5ZM55.004-58.5L33.304-58.5C31.204-58.5 29.304-59.8 28.504-61.7C28.104-62.5 27.304-63.1 26.404-63.1L14.904-63.1L14.904-64.4L26.404-64.4C27.304-64.4 28.104-64.9 28.504-65.8C29.304-67.7 31.204-69 33.304-69L55.004-69L55.004-58.5ZM55.004-12L55.004-1.5L33.304-1.5C31.204-1.5 29.304-2.8 28.504-4.7C28.104-5.5 27.304-6.1 26.404-6.1L14.904-6.1L14.904-7.4L26.404-7.4C27.304-7.4 28.104-7.9 28.504-8.8C29.304-10.7 31.204-12 33.304-12L55.004-12ZM102.904-12L102.904-1.5L81.204-1.5C79.104-1.5 77.204-2.8 76.404-4.7C76.004-5.5 75.204-6.1 74.304-6.1L62.804-6.1L62.804-7.4L74.304-7.4C75.204-7.4 76.004-7.9 76.404-8.8C77.204-10.7 79.104-12 81.204-12L102.904-12ZM55.004-31L55.004-20.5L33.304-20.5C31.204-20.5 29.304-21.8 28.504-23.7C28.104-24.5 27.304-25.1 26.404-25.1L14.904-25.1L14.904-26.4L26.404-26.4C27.304-26.4 28.104-26.9 28.504-27.8C29.304-29.7 31.204-31 33.304-31L55.004-31ZM102.904-31L102.904-20.5L81.204-20.5C79.104-20.5 77.204-21.8 76.404-23.7C76.004-24.5 75.204-25.1 74.304-25.1L62.804-25.1L62.804-26.4L74.304-26.4C75.204-26.4 76.004-26.9 76.404-27.8C77.204-29.7 79.104-31 81.204-31L102.904-31ZM35.804-3.1L48.004-3.1C48.404-3.1 48.604-3.4 48.604-3.7L48.604-9.7C48.604-10.1 48.304-10.3 48.004-10.3L35.804-10.3C35.404-10.3 35.204-10 35.204-9.7L35.204-3.7C35.204-3.3 35.404-3.1 35.804-3.1ZM83.104-3.1L95.304-3.1C95.704-3.1 95.904-3.4 95.904-3.7L95.904-9.7C95.904-10.1 95.604-10.3 95.304-10.3L83.104-10.3C82.704-10.3 82.504-10 82.504-9.7L82.504-3.7C82.504-3.3 82.804-3.1 83.104-3.1ZM35.804-60.1L48.004-60.1C48.404-60.1 48.604-60.4 48.604-60.7L48.604-66.7C48.604-67.1 48.304-67.3 48.004-67.3L35.804-67.3C35.404-67.3 35.204-67 35.204-66.7L35.204-60.7C35.204-60.4 35.404-60.1 35.804-60.1ZM35.804-41.1L48.004-41.1C48.404-41.1 48.604-41.4 48.604-41.7L48.604-47.7C48.604-48.1 48.304-48.3 48.004-48.3L35.804-48.3C35.404-48.3 35.204-48 35.204-47.7L35.204-41.7C35.204-41.4 35.404-41.1 35.804-41.1ZM83.104-41.1L95.304-41.1C95.704-41.1 95.904-41.4 95.904-41.7L95.904-47.7C95.904-48.1 95.604-48.3 95.304-48.3L83.104-48.3C82.704-48.3 82.504-48 82.504-47.7L82.504-41.7C82.504-41.4 82.804-41.1 83.104-41.1ZM95.304-67.4L83.104-67.4C82.704-67.4 82.504-67.1 82.504-66.8L82.504-60.8C82.504-60.4 82.804-60.2 83.104-60.2L95.304-60.2C95.704-60.2 95.904-60.5 95.904-60.8L95.904-66.8C96.004-67.1 95.704-67.4 95.304-67.4ZM35.804-22.1L48.004-22.1C48.404-22.1 48.604-22.4 48.604-22.7L48.604-28.7C48.604-29.1 48.304-29.3 48.004-29.3L35.804-29.3C35.404-29.3 35.204-29 35.204-28.7L35.204-22.7C35.204-22.4 35.404-22.1 35.804-22.1ZM83.104-22.1L95.304-22.1C95.704-22.1 95.904-22.4 95.904-22.7L95.904-28.7C95.904-29.1 95.604-29.3 95.304-29.3L83.104-29.3C82.704-29.3 82.504-29 82.504-28.7L82.504-22.7C82.504-22.4 82.804-22.1 83.104-22.1Z"/>
  </g>
 </g>
</svg>
