<?xml version="1.0" encoding="UTF-8"?>
<!--Generator: Apple Native CoreSVG 175.5-->
<!DOCTYPE svg
PUBLIC "-//W3C//DTD SVG 1.1//EN"
       "http://www.w3.org/Graphics/SVG/1.1/DTD/svg11.dtd">
<svg version="1.1" xmlns="http://www.w3.org/2000/svg" xmlns:xlink="http://www.w3.org/1999/xlink" width="3300" height="2200">
 <!--glyph: "", point size: 100.0, font version: "18.0d12e2", template writer version: "101"-->
 <g id="Notes">
  <rect height="2200" id="artboard" style="fill:white;opacity:1" width="3300" x="0" y="0"/>
  <line style="fill:none;stroke:black;opacity:1;stroke-width:0.5;" x1="263" x2="3036" y1="292" y2="292"/>
  <text style="stroke:none;fill:black;font-family:sans-serif;font-size:13;font-weight:bold;" transform="matrix(1 0 0 1 263 322)">Weight/Scale Variations</text>
  <text style="stroke:none;fill:black;font-family:sans-serif;font-size:13;text-anchor:middle;" transform="matrix(1 0 0 1 559.711 322)">Ultralight</text>
  <text style="stroke:none;fill:black;font-family:sans-serif;font-size:13;text-anchor:middle;" transform="matrix(1 0 0 1 856.422 322)">Thin</text>
  <text style="stroke:none;fill:black;font-family:sans-serif;font-size:13;text-anchor:middle;" transform="matrix(1 0 0 1 1153.13 322)">Light</text>
  <text style="stroke:none;fill:black;font-family:sans-serif;font-size:13;text-anchor:middle;" transform="matrix(1 0 0 1 1449.84 322)">Regular</text>
  <text style="stroke:none;fill:black;font-family:sans-serif;font-size:13;text-anchor:middle;" transform="matrix(1 0 0 1 1746.56 322)">Medium</text>
  <text style="stroke:none;fill:black;font-family:sans-serif;font-size:13;text-anchor:middle;" transform="matrix(1 0 0 1 2043.27 322)">Semibold</text>
  <text style="stroke:none;fill:black;font-family:sans-serif;font-size:13;text-anchor:middle;" transform="matrix(1 0 0 1 2339.98 322)">Bold</text>
  <text style="stroke:none;fill:black;font-family:sans-serif;font-size:13;text-anchor:middle;" transform="matrix(1 0 0 1 2636.69 322)">Heavy</text>
  <text style="stroke:none;fill:black;font-family:sans-serif;font-size:13;text-anchor:middle;" transform="matrix(1 0 0 1 2933.4 322)">Black</text>
  <line style="fill:none;stroke:black;opacity:1;stroke-width:0.5;" x1="263" x2="3036" y1="1903" y2="1903"/>
  <g transform="matrix(1 0 0 1 263 1933)">
   <path d="M9.24805 0.830078C13.5547 0.830078 17.1387-2.74414 17.1387-7.05078C17.1387-11.3574 13.5449-14.9316 9.23828-14.9316C4.94141-14.9316 1.36719-11.3574 1.36719-7.05078C1.36719-2.74414 4.95117 0.830078 9.24805 0.830078ZM9.24805-0.654297C5.70312-0.654297 2.87109-3.49609 2.87109-7.05078C2.87109-10.6055 5.69336-13.4473 9.23828-13.4473C12.793-13.4473 15.6445-10.6055 15.6445-7.05078C15.6445-3.49609 12.8027-0.654297 9.24805-0.654297ZM5.6543-7.05078C5.6543-6.62109 5.95703-6.32812 6.40625-6.32812L8.50586-6.32812L8.50586-4.20898C8.50586-3.76953 8.79883-3.4668 9.22852-3.4668C9.67773-3.4668 9.9707-3.76953 9.9707-4.20898L9.9707-6.32812L12.0898-6.32812C12.5293-6.32812 12.832-6.62109 12.832-7.05078C12.832-7.49023 12.5293-7.79297 12.0898-7.79297L9.9707-7.79297L9.9707-9.90234C9.9707-10.3516 9.67773-10.6543 9.22852-10.6543C8.79883-10.6543 8.50586-10.3516 8.50586-9.90234L8.50586-7.79297L6.40625-7.79297C5.95703-7.79297 5.6543-7.49023 5.6543-7.05078Z"/>
  </g>
  <g transform="matrix(1 0 0 1 281.867 1933)">
   <path d="M11.709 2.91016C17.1582 2.91016 21.6699-1.61133 21.6699-7.05078C21.6699-12.5 17.1484-17.0117 11.6992-17.0117C6.25977-17.0117 1.74805-12.5 1.74805-7.05078C1.74805-1.61133 6.26953 2.91016 11.709 2.91016ZM11.709 1.25C7.09961 1.25 3.41797-2.44141 3.41797-7.05078C3.41797-11.6602 7.08984-15.3516 11.6992-15.3516C16.3086-15.3516 20.0098-11.6602 20.0098-7.05078C20.0098-2.44141 16.3184 1.25 11.709 1.25ZM7.17773-7.05078C7.17773-6.57227 7.50977-6.25 8.00781-6.25L10.8789-6.25L10.8789-3.36914C10.8789-2.88086 11.2109-2.53906 11.6895-2.53906C12.1777-2.53906 12.5195-2.87109 12.5195-3.36914L12.5195-6.25L15.4004-6.25C15.8887-6.25 16.2305-6.57227 16.2305-7.05078C16.2305-7.53906 15.8887-7.88086 15.4004-7.88086L12.5195-7.88086L12.5195-10.752C12.5195-11.25 12.1777-11.5918 11.6895-11.5918C11.2109-11.5918 10.8789-11.25 10.8789-10.752L10.8789-7.88086L8.00781-7.88086C7.50977-7.88086 7.17773-7.53906 7.17773-7.05078Z"/>
  </g>
  <g transform="matrix(1 0 0 1 305.646 1933)">
   <path d="M14.9707 5.66406C21.9336 5.66406 27.6953-0.0976562 27.6953-7.05078C27.6953-14.0137 21.9238-19.7754 14.9609-19.7754C8.00781-19.7754 2.25586-14.0137 2.25586-7.05078C2.25586-0.0976562 8.01758 5.66406 14.9707 5.66406ZM14.9707 3.84766C8.93555 3.84766 4.08203-1.01562 4.08203-7.05078C4.08203-13.0957 8.92578-17.9492 14.9609-17.9492C21.0059-17.9492 25.8691-13.0957 25.8691-7.05078C25.8691-1.01562 21.0156 3.84766 14.9707 3.84766ZM9.19922-7.05078C9.19922-6.5332 9.57031-6.17188 10.1172-6.17188L14.0625-6.17188L14.0625-2.2168C14.0625-1.67969 14.4336-1.29883 14.9512-1.29883C15.4883-1.29883 15.8594-1.66992 15.8594-2.2168L15.8594-6.17188L19.8145-6.17188C20.3516-6.17188 20.7324-6.5332 20.7324-7.05078C20.7324-7.59766 20.3613-7.96875 19.8145-7.96875L15.8594-7.96875L15.8594-11.9141C15.8594-12.4609 15.4883-12.8418 14.9512-12.8418C14.4336-12.8418 14.0625-12.4609 14.0625-11.9141L14.0625-7.96875L10.1172-7.96875C9.57031-7.96875 9.19922-7.59766 9.19922-7.05078Z"/>
  </g>
  <text style="stroke:none;fill:black;font-family:sans-serif;font-size:13;font-weight:bold;" transform="matrix(1 0 0 1 263 1953)">Design Variations</text>
  <text style="stroke:none;fill:black;font-family:sans-serif;font-size:13;" transform="matrix(1 0 0 1 263 1971)">Symbols are supported in up to nine weights and three scales.</text>
  <text style="stroke:none;fill:black;font-family:sans-serif;font-size:13;" transform="matrix(1 0 0 1 263 1989)">For optimal layout with text and other symbols, vertically align</text>
  <text style="stroke:none;fill:black;font-family:sans-serif;font-size:13;" transform="matrix(1 0 0 1 263 2007)">symbols with the adjacent text.</text>
  <line style="fill:none;stroke:#00AEEF;stroke-width:0.5;opacity:1.0;" x1="776" x2="776" y1="1919" y2="1933"/>
  <g transform="matrix(1 0 0 1 776 1933)">
   <path d="M3.31055 0.15625C3.82812 0.15625 4.08203-0.0390625 4.26758-0.585938L5.52734-4.0332L11.2891-4.0332L12.5488-0.585938C12.7344-0.0390625 12.9883 0.15625 13.4961 0.15625C14.0137 0.15625 14.3457-0.15625 14.3457-0.644531C14.3457-0.810547 14.3164-0.966797 14.2383-1.17188L9.6582-13.3691C9.43359-13.9648 9.0332-14.2676 8.4082-14.2676C7.80273-14.2676 7.39258-13.9746 7.17773-13.3789L2.59766-1.16211C2.51953-0.957031 2.49023-0.800781 2.49023-0.634766C2.49023-0.146484 2.80273 0.15625 3.31055 0.15625ZM6.00586-5.51758L8.37891-12.0898L8.42773-12.0898L10.8008-5.51758Z"/>
  </g>
  <line style="fill:none;stroke:#00AEEF;stroke-width:0.5;opacity:1.0;" x1="793.197" x2="793.197" y1="1919" y2="1933"/>
  <text style="stroke:none;fill:black;font-family:sans-serif;font-size:13;font-weight:bold;" transform="matrix(1 0 0 1 776 1953)">Margins</text>
  <text style="stroke:none;fill:black;font-family:sans-serif;font-size:13;" transform="matrix(1 0 0 1 776 1971)">Leading and trailing margins on the left and right side of each symbol</text>
  <text style="stroke:none;fill:black;font-family:sans-serif;font-size:13;" transform="matrix(1 0 0 1 776 1989)">can be adjusted by modifying the x-location of the margin guidelines.</text>
  <text style="stroke:none;fill:black;font-family:sans-serif;font-size:13;" transform="matrix(1 0 0 1 776 2007)">Modifications are automatically applied proportionally to all</text>
  <text style="stroke:none;fill:black;font-family:sans-serif;font-size:13;" transform="matrix(1 0 0 1 776 2025)">scales and weights.</text>
  <g transform="matrix(1 0 0 1 1289 1933)">
   <path d="M2.8418 1.86523L4.54102 3.57422C5.40039 4.44336 6.38672 4.38477 7.31445 3.35938L18.0078-8.42773L17.041-9.4043L6.42578 2.27539C6.07422 2.67578 5.74219 2.77344 5.27344 2.30469L4.10156 1.14258C3.63281 0.683594 3.74023 0.341797 4.14062-0.0195312L15.6152-10.8203L14.6387-11.7871L3.04688-0.898438C2.06055 0.0195312 1.98242 0.996094 2.8418 1.86523ZM9.25781-16.3281C8.83789-15.918 8.80859-15.3418 9.04297-14.9512C9.27734-14.5898 9.73633-14.3555 10.3809-14.5215C11.8457-14.8633 13.3691-14.9219 14.7949-13.9844L14.209-12.5293C13.8672-11.6992 14.043-11.1133 14.5801-10.5664L16.875-8.25195C17.3633-7.76367 17.7734-7.74414 18.3398-7.8418L19.4043-8.03711L20.0684-7.36328L20.0293-6.80664C19.9902-6.30859 20.1172-5.92773 20.6055-5.44922L21.3672-4.70703C21.8457-4.22852 22.4609-4.19922 22.9297-4.66797L25.8398-7.58789C26.3086-8.05664 26.2891-8.65234 25.8105-9.13086L25.0391-9.89258C24.5605-10.3711 24.1895-10.5273 23.7109-10.4883L23.1348-10.4395L22.4902-11.0742L22.7344-12.1973C22.8613-12.7637 22.7051-13.2031 22.1191-13.7891L19.9219-15.9766C16.582-19.2969 12.1484-19.2188 9.25781-16.3281ZM10.752-15.957C13.1836-17.7344 16.4746-17.4316 18.7012-15.2051L21.1328-12.793C21.3672-12.5586 21.4062-12.373 21.3379-12.0312L21.0156-10.5469L22.5195-9.0625L23.5059-9.12109C23.7598-9.13086 23.8379-9.11133 24.0332-8.91602L24.6094-8.33984L22.168-5.89844L21.5918-6.47461C21.3965-6.66992 21.3672-6.74805 21.377-7.01172L21.4453-7.98828L19.9512-9.47266L18.4277-9.21875C18.1055-9.15039 17.959-9.17969 17.7148-9.41406L15.7129-11.416C15.459-11.6504 15.4297-11.8164 15.5859-12.1875L16.4648-14.2773C14.9023-15.7324 12.8711-16.3574 10.8398-15.7617C10.6836-15.7227 10.625-15.8496 10.752-15.957Z"/>
  </g>
  <text style="stroke:none;fill:black;font-family:sans-serif;font-size:13;font-weight:bold;" transform="matrix(1 0 0 1 1289 1953)">Exporting</text>
  <text style="stroke:none;fill:black;font-family:sans-serif;font-size:13;" transform="matrix(1 0 0 1 1289 1971)">Symbols should be outlined when exporting to ensure the</text>
  <text style="stroke:none;fill:black;font-family:sans-serif;font-size:13;" transform="matrix(1 0 0 1 1289 1989)">design is preserved when submitting to Xcode.</text>
  <text id="template-version" style="stroke:none;fill:black;font-family:sans-serif;font-size:13;text-anchor:end;" transform="matrix(1 0 0 1 3036 1933)">Template v.4.0</text>
  <text style="stroke:none;fill:black;font-family:sans-serif;font-size:13;text-anchor:end;" transform="matrix(1 0 0 1 3036 1951)">Requires Xcode 14 or greater</text>
  <text id="descriptive-name" style="stroke:none;fill:black;font-family:sans-serif;font-size:13;text-anchor:end;" transform="matrix(1 0 0 1 3036 1969)">Generated from cellar.eight.bottles.fill</text>
  <text style="stroke:none;fill:black;font-family:sans-serif;font-size:13;text-anchor:end;" transform="matrix(1 0 0 1 3036 1987)">Typeset at 100 points</text>
  <text style="stroke:none;fill:black;font-family:sans-serif;font-size:13;" transform="matrix(1 0 0 1 263 726)">Small</text>
  <text style="stroke:none;fill:black;font-family:sans-serif;font-size:13;" transform="matrix(1 0 0 1 263 1156)">Medium</text>
  <text style="stroke:none;fill:black;font-family:sans-serif;font-size:13;" transform="matrix(1 0 0 1 263 1586)">Large</text>
 </g>
 <g id="Guides">
  <g id="H-reference" style="fill:#27AAE1;stroke:none;" transform="matrix(1 0 0 1 339 696)">
   <path d="M0.993654 0L3.63775 0L29.3281-67.1323L30.0303-67.1323L30.0303-70.459L28.1226-70.459ZM11.6885-24.4799L46.9815-24.4799L46.2315-26.7285L12.4385-26.7285ZM55.1196 0L57.7637 0L30.6382-70.459L29.4326-70.459L29.4326-67.1323Z"/>
  </g>
  <line id="Baseline-S" style="fill:none;stroke:#27AAE1;opacity:1;stroke-width:0.5;" x1="263" x2="3036" y1="696" y2="696"/>
  <line id="Capline-S" style="fill:none;stroke:#27AAE1;opacity:1;stroke-width:0.5;" x1="263" x2="3036" y1="625.541" y2="625.541"/>
  <g id="H-reference" style="fill:#27AAE1;stroke:none;" transform="matrix(1 0 0 1 339 1126)">
   <path d="M0.993654 0L3.63775 0L29.3281-67.1323L30.0303-67.1323L30.0303-70.459L28.1226-70.459ZM11.6885-24.4799L46.9815-24.4799L46.2315-26.7285L12.4385-26.7285ZM55.1196 0L57.7637 0L30.6382-70.459L29.4326-70.459L29.4326-67.1323Z"/>
  </g>
  <line id="Baseline-M" style="fill:none;stroke:#27AAE1;opacity:1;stroke-width:0.5;" x1="263" x2="3036" y1="1126" y2="1126"/>
  <line id="Capline-M" style="fill:none;stroke:#27AAE1;opacity:1;stroke-width:0.5;" x1="263" x2="3036" y1="1055.54" y2="1055.54"/>
  <g id="H-reference" style="fill:#27AAE1;stroke:none;" transform="matrix(1 0 0 1 339 1556)">
   <path d="M0.993654 0L3.63775 0L29.3281-67.1323L30.0303-67.1323L30.0303-70.459L28.1226-70.459ZM11.6885-24.4799L46.9815-24.4799L46.2315-26.7285L12.4385-26.7285ZM55.1196 0L57.7637 0L30.6382-70.459L29.4326-70.459L29.4326-67.1323Z"/>
  </g>
  <line id="Baseline-L" style="fill:none;stroke:#27AAE1;opacity:1;stroke-width:0.5;" x1="263" x2="3036" y1="1556" y2="1556"/>
  <line id="Capline-L" style="fill:none;stroke:#27AAE1;opacity:1;stroke-width:0.5;" x1="263" x2="3036" y1="1485.54" y2="1485.54"/>
  <line id="left-margin-Ultralight-S" style="fill:none;stroke:#00AEEF;stroke-width:0.5;opacity:1.0;" x1="500.811" x2="500.811" y1="600.785" y2="720.121"/>
  <line id="right-margin-Ultralight-S" style="fill:none;stroke:#00AEEF;stroke-width:0.5;opacity:1.0;" x1="618.611" x2="618.611" y1="600.785" y2="720.121"/>
  <line id="left-margin-Regular-S" style="fill:none;stroke:#00AEEF;stroke-width:0.5;opacity:1.0;" x1="1386.19" x2="1386.19" y1="600.785" y2="720.121"/>
  <line id="right-margin-Regular-S" style="fill:none;stroke:#00AEEF;stroke-width:0.5;opacity:1.0;" x1="1513.49" x2="1513.49" y1="600.785" y2="720.121"/>
  <line id="left-margin-Black-S" style="fill:none;stroke:#00AEEF;stroke-width:0.5;opacity:1.0;" x1="2866.7" x2="2866.7" y1="600.785" y2="720.121"/>
  <line id="right-margin-Black-S" style="fill:none;stroke:#00AEEF;stroke-width:0.5;opacity:1.0;" x1="3000.1" x2="3000.1" y1="600.785" y2="720.121"/>
 </g>
 <g id="Symbols">
  <g id="Black-S" transform="matrix(1 0 0 1 2866.7 696)">
   <path d="M13.21-69.9L13.21-66.2C13.21-65.3 13.91-64.6 14.81-64.6L18.11-64.6L18.11-71.5L14.81-71.5C14.01-71.5 13.21-70.9 13.21-69.9ZM63.41-76.9L49.51-76.9L49.51-80.9C49.51-82.1 48.51-83.1 47.31-83.1C46.11-83.1 45.11-82.1 45.11-80.9L45.11-76.9L37.21-76.9C33.61-76.9 30.51-74.7 29.21-71.6L20.01-71.6L20.01-64.7L29.11-64.7C30.41-61.6 33.51-59.4 37.11-59.4L45.01-59.4L45.01-54.9L37.11-54.9C33.51-54.9 30.41-52.7 29.11-49.6L20.01-49.6L20.01-42.7L29.11-42.7C30.41-39.6 33.51-37.4 37.11-37.4L45.01-37.4L45.01-32.9L37.11-32.9C33.51-32.9 30.41-30.7 29.11-27.6L20.01-27.6L20.01-20.7L29.11-20.7C30.41-17.6 33.51-15.4 37.11-15.4L45.01-15.4L45.01-10.9L37.11-10.9C33.51-10.9 30.41-8.7 29.11-5.6L20.01-5.6L20.01 1.3L29.11 1.3C30.41 4.4 33.51 6.6 37.11 6.6L45.01 6.6L45.01 10.7C45.01 11.9 46.01 12.9 47.21 12.9C48.41 12.9 49.41 11.9 49.41 10.7L49.41 6.5L63.31 6.5C64.11 6.5 64.81 5.8 64.81 5L64.81-9.4C64.81-10.2 64.11-10.9 63.31-10.9L49.51-10.9L49.51-15.4L63.41-15.4C64.21-15.4 64.91-16.1 64.91-16.9L64.91-31.3C64.91-32.1 64.21-32.8 63.41-32.8L49.51-32.8L49.51-37.3L63.41-37.3C64.21-37.3 64.91-38 64.91-38.8L64.91-53.2C64.91-54 64.21-54.7 63.41-54.7L49.51-54.7L49.51-59.2L63.41-59.2C64.21-59.2 64.91-59.9 64.91-60.7L64.91-75.1C64.91-76.2 64.21-76.9 63.41-76.9ZM56.31-6.7L56.31 2.1C56.31 2.6 55.91 2.9 55.51 2.9L39.51 2.9C39.01 2.9 38.71 2.5 38.71 2.1L38.71-6.7C38.71-7.2 39.11-7.5 39.51-7.5L55.41-7.5C55.91-7.5 56.31-7.1 56.31-6.7ZM56.31-28.6L56.31-19.8C56.31-19.3 55.91-19 55.51-19L39.51-19C39.01-19 38.71-19.4 38.71-19.8L38.71-28.6C38.71-29.1 39.11-29.4 39.51-29.4L55.41-29.4C55.91-29.5 56.31-29.1 56.31-28.6ZM56.31-50.6L56.31-41.8C56.31-41.3 55.91-41 55.51-41L39.51-41C39.01-41 38.71-41.4 38.71-41.8L38.71-50.6C38.71-51.1 39.11-51.4 39.51-51.4L55.41-51.4C55.91-51.5 56.31-51.1 56.31-50.6ZM56.31-63.8C56.31-63.3 55.91-63 55.51-63L39.51-63C39.01-63 38.71-63.4 38.71-63.8L38.71-72.6C38.71-73.1 39.11-73.4 39.51-73.4L55.41-73.4C55.91-73.4 56.21-73 56.21-72.6L56.21-63.8ZM68.51-69.9L68.51-66.2C68.51-65.3 69.21-64.6 70.11-64.6L73.41-64.6L73.41-71.5L70.11-71.5C69.21-71.5 68.51-70.9 68.51-69.9ZM118.61-59.4C119.41-59.4 120.11-60.1 120.11-60.9L120.11-75.3C120.11-76.1 119.41-76.8 118.61-76.8L104.91-76.8L104.91-80.8C104.91-82 103.91-83 102.71-83C101.51-83 100.51-82 100.51-80.8L100.51-76.8L92.41-76.8C88.81-76.8 85.71-74.6 84.41-71.5L75.31-71.5L75.31-64.6L84.41-64.6C85.71-61.5 88.81-59.3 92.41-59.3L100.51-59.3L100.51-54.8L92.41-54.8C88.81-54.8 85.71-52.6 84.41-49.5L75.31-49.5L75.31-42.6L84.41-42.6C85.71-39.5 88.81-37.3 92.41-37.3L100.51-37.3L100.51-32.8L92.41-32.8C88.81-32.8 85.71-30.6 84.41-27.5L75.31-27.5L75.31-20.6L84.41-20.6C85.71-17.5 88.81-15.3 92.41-15.3L100.51-15.3L100.51-10.8L92.41-10.8C88.81-10.8 85.71-8.6 84.41-5.5L75.31-5.5L75.31 1.4L84.41 1.4C85.71 4.5 88.81 6.7 92.41 6.7L100.51 6.7L100.51 10.8C100.51 12 101.51 13 102.71 13C103.91 13 104.91 12 104.91 10.8L104.91 6.5L118.61 6.5C119.41 6.5 120.11 5.8 120.11 5L120.11-9.4C120.11-10.2 119.41-10.9 118.61-10.9L104.91-10.9L104.91-15.4L118.61-15.4C119.41-15.4 120.11-16.1 120.11-16.9L120.11-31.3C120.11-32.1 119.41-32.8 118.61-32.8L104.91-32.8L104.91-37.3L118.61-37.3C119.41-37.3 120.11-38 120.11-38.8L120.11-53.2C120.11-54 119.41-54.7 118.61-54.7L104.91-54.7L104.91-59.2L118.61-59.2ZM111.51-6.7L111.51 2.1C111.51 2.6 111.11 2.9 110.71 2.9L94.71 2.9C94.21 2.9 93.91 2.5 93.91 2.1L93.91-6.7C93.91-7.2 94.31-7.5 94.71-7.5L110.61-7.5C111.11-7.5 111.51-7.1 111.51-6.7ZM111.51-28.6L111.51-19.8C111.51-19.3 111.11-19 110.71-19L94.71-19C94.21-19 93.91-19.4 93.91-19.8L93.91-28.6C93.91-29.1 94.31-29.4 94.71-29.4L110.61-29.4C111.11-29.5 111.51-29.1 111.51-28.6ZM111.51-50.6L111.51-41.8C111.51-41.3 111.11-41 110.71-41L94.71-41C94.21-41 93.91-41.4 93.91-41.8L93.91-50.6C93.91-51.1 94.31-51.4 94.71-51.4L110.61-51.4C111.11-51.5 111.51-51.1 111.51-50.6ZM93.91-63.8L93.91-72.6C93.91-73.1 94.31-73.4 94.71-73.4L110.61-73.4C111.11-73.4 111.41-73 111.41-72.6L111.41-63.8C111.41-63.3 111.01-63 110.61-63L94.71-63C94.31-62.9 93.91-63.3 93.91-63.8ZM13.21-48L13.21-44.3C13.21-43.4 13.91-42.7 14.81-42.7L18.11-42.7L18.11-49.6L14.81-49.6C14.01-49.6 13.21-48.9 13.21-48ZM68.51-48L68.51-44.3C68.51-43.4 69.21-42.7 70.11-42.7L73.41-42.7L73.41-49.6L70.11-49.6C69.21-49.6 68.51-48.9 68.51-48ZM13.21-26L13.21-22.3C13.21-21.4 13.91-20.7 14.81-20.7L18.11-20.7L18.11-27.6L14.81-27.6C14.01-27.6 13.21-26.9 13.21-26ZM68.51-26L68.51-22.3C68.51-21.4 69.21-20.7 70.11-20.7L73.41-20.7L73.41-27.6L70.11-27.6C69.21-27.6 68.51-26.9 68.51-26ZM13.21-4L13.21-0.3C13.21 0.6 13.91 1.3 14.81 1.3L18.11 1.3L18.11-5.6L14.81-5.6C14.01-5.6 13.21-4.9 13.21-4ZM68.51-4L68.51-0.3C68.51 0.6 69.21 1.3 70.11 1.3L73.41 1.3L73.41-5.6L70.11-5.6C69.21-5.6 68.51-4.9 68.51-4Z"/>
  </g>
  <g id="Regular-S" transform="matrix(1 0 0 1 1386.19 696)">
   <path d="M13.2-68.1L13.2-64.6C13.2-63.8 13.8-63.1 14.7-63.1L17.8-63.1L17.8-69.6L14.7-69.6C13.9-69.6 13.2-68.9 13.2-68.1ZM60.5-74.6L47.4-74.6L47.4-78.4C47.4-79.5 46.5-80.5 45.3-80.5C44.2-80.5 43.2-79.6 43.2-78.4L43.2-74.6L35.8-74.6C32.4-74.6 29.5-72.5 28.2-69.6L19.6-69.6L19.6-63.1L28.2-63.1C29.5-60.2 32.4-58.1 35.8-58.1L43.2-58.1L43.2-53.8L35.8-53.8C32.4-53.8 29.5-51.7 28.2-48.8L19.6-48.8L19.6-42.3L28.2-42.3C29.5-39.4 32.4-37.3 35.8-37.3L43.2-37.3L43.2-33L35.8-33C32.4-33 29.5-30.9 28.2-28L19.6-28L19.6-21.5L28.2-21.5C29.5-18.6 32.4-16.5 35.8-16.5L43.2-16.5L43.2-12.2L35.8-12.2C32.4-12.2 29.5-10.1 28.2-7.2L19.6-7.2L19.6-1L28.2-1C29.5 1.9 32.4 4 35.8 4L43.2 4L43.2 7.9C43.2 9 44.1 10 45.3 10C46.4 10 47.4 9.1 47.4 7.9L47.4 4L60.5 4C61.3 4 62 3.4 62 2.6L62-11C62-11.8 61.4-12.4 60.6-12.4L47.4-12.4L47.4-16.7L60.5-16.7C61.3-16.7 61.9-17.3 61.9-18.1L61.9-31.7C61.9-32.5 61.3-33.1 60.5-33.1L47.4-33.1L47.4-37.4L60.5-37.4C61.3-37.4 61.9-38 61.9-38.8L61.9-52.4C61.9-53.2 61.3-53.8 60.5-53.8L47.4-53.8L47.4-58.1L60.5-58.1C61.3-58.1 61.9-58.7 61.9-59.5L61.9-73.1C62-74 61.3-74.6 60.5-74.6ZM53.8-8.4L53.8 0C53.8 0.4 53.4 0.8 53 0.8L38 0.8C37.6 0.8 37.2 0.4 37.2 0L37.2-8.3C37.2-8.7 37.6-9.1 38-9.1L53-9.1C53.5-9.2 53.8-8.8 53.8-8.4ZM53.8-29.1L53.8-20.8C53.8-20.4 53.4-20 53-20L38-20C37.6-20 37.2-20.4 37.2-20.8L37.2-29.1C37.2-29.5 37.6-29.9 38-29.9L53-29.9C53.5-29.9 53.8-29.5 53.8-29.1ZM53.8-49.8L53.8-41.5C53.8-41.1 53.4-40.7 53-40.7L38-40.7C37.6-40.7 37.2-41.1 37.2-41.5L37.2-49.8C37.2-50.2 37.6-50.6 38-50.6L53-50.6C53.5-50.6 53.8-50.3 53.8-49.8ZM53.8-62.2C53.8-61.8 53.4-61.4 53-61.4L38-61.4C37.6-61.4 37.2-61.8 37.2-62.2L37.2-70.5C37.2-70.9 37.6-71.3 38-71.3L53-71.3C53.4-71.3 53.8-70.9 53.8-70.5L53.8-62.2ZM65.3-68.1L65.3-64.6C65.3-63.8 65.9-63.1 66.8-63.1L69.9-63.1L69.9-69.6L66.8-69.6C66-69.6 65.3-68.9 65.3-68.1ZM112.6-58.2C113.4-58.2 114-58.8 114-59.6L114-73.2C114-74 113.4-74.6 112.6-74.6L99.7-74.6L99.7-78.4C99.7-79.5 98.8-80.5 97.6-80.5C96.5-80.5 95.5-79.6 95.5-78.4L95.5-74.6L87.9-74.6C84.5-74.6 81.6-72.5 80.3-69.6L71.7-69.6L71.7-63.1L80.3-63.1C81.6-60.2 84.5-58.1 87.9-58.1L95.5-58.1L95.5-53.8L87.9-53.8C84.5-53.8 81.6-51.7 80.3-48.8L71.7-48.8L71.7-42.3L80.3-42.3C81.6-39.4 84.5-37.3 87.9-37.3L95.5-37.3L95.5-33L87.9-33C84.5-33 81.6-30.9 80.3-28L71.7-28L71.7-21.5L80.3-21.5C81.6-18.6 84.5-16.5 87.9-16.5L95.5-16.5L95.5-12.2L87.9-12.2C84.5-12.2 81.6-10.1 80.3-7.2L71.7-7.2L71.7-1L80.3-1C81.6 1.9 84.5 4 87.9 4L95.5 4L95.5 7.9C95.5 9 96.4 10 97.6 10C98.7 10 99.7 9.1 99.7 7.9L99.7 4L112.6 4C113.4 4 114 3.4 114 2.6L114-11C114-11.8 113.4-12.4 112.6-12.4L99.7-12.4L99.7-16.7L112.6-16.7C113.4-16.7 114-17.3 114-18.1L114-31.7C114-32.5 113.4-33.1 112.6-33.1L99.7-33.1L99.7-37.4L112.6-37.4C113.4-37.4 114-38 114-38.8L114-52.4C114-53.2 113.4-53.8 112.6-53.8L99.7-53.8L99.7-58.1L112.6-58.1ZM105.9-8.4L105.9 0C105.9 0.4 105.5 0.8 105.1 0.8L90.1 0.8C89.7 0.8 89.3 0.4 89.3 0L89.3-8.3C89.3-8.7 89.7-9.1 90.1-9.1L105.1-9.1C105.6-9.2 105.9-8.8 105.9-8.4ZM105.9-29.1L105.9-20.8C105.9-20.4 105.5-20 105.1-20L90.1-20C89.7-20 89.3-20.4 89.3-20.8L89.3-29.1C89.3-29.5 89.7-29.9 90.1-29.9L105.1-29.9C105.6-29.9 105.9-29.5 105.9-29.1ZM105.9-49.8L105.9-41.5C105.9-41.1 105.5-40.7 105.1-40.7L90.1-40.7C89.7-40.7 89.3-41.1 89.3-41.5L89.3-49.8C89.3-50.2 89.7-50.6 90.1-50.6L105.1-50.6C105.6-50.6 105.9-50.3 105.9-49.8ZM89.3-62.2L89.3-70.5C89.3-70.9 89.7-71.3 90.1-71.3L105.1-71.3C105.5-71.3 105.9-70.9 105.9-70.5L105.9-62.2C105.9-61.8 105.5-61.4 105.1-61.4L90.1-61.4C89.7-61.4 89.3-61.8 89.3-62.2ZM13.2-47.3L13.2-43.8C13.2-43 13.8-42.3 14.7-42.3L17.8-42.3L17.8-48.8L14.7-48.8C13.9-48.9 13.2-48.2 13.2-47.3ZM65.3-47.3L65.3-43.8C65.3-43 65.9-42.3 66.8-42.3L69.9-42.3L69.9-48.8L66.8-48.8C66-48.9 65.3-48.2 65.3-47.3ZM13.2-26.6L13.2-23.1C13.2-22.3 13.8-21.6 14.7-21.6L17.8-21.6L17.8-28.1L14.7-28.1C13.9-28.1 13.2-27.5 13.2-26.6ZM65.3-26.6L65.3-23.1C65.3-22.3 65.9-21.6 66.8-21.6L69.9-21.6L69.9-28.1L66.8-28.1C66-28.1 65.3-27.5 65.3-26.6ZM13.2-5.9L13.2-2.4C13.2-1.6 13.8-0.9 14.7-0.9L17.8-0.9L17.8-7.4L14.7-7.4C13.9-7.4 13.2-6.7 13.2-5.9ZM65.3-5.9L65.3-2.4C65.3-1.6 65.9-0.9 66.8-0.9L69.9-0.9L69.9-7.4L66.8-7.4C66-7.4 65.3-6.7 65.3-5.9Z"/>
  </g>
  <g id="Ultralight-S" transform="matrix(1 0 0 1 500.811 696)">
   <path d="M12.604-65.3L12.604-62.1C12.604-61.4 13.204-60.7 14.004-60.7L16.804-60.7L16.804-66.6L14.004-66.6C13.304-66.7 12.604-66.1 12.604-65.3ZM56.004-71.3L44.004-71.3L44.004-74.8C44.004-75.9 43.104-76.7 42.104-76.7C41.004-76.7 40.204-75.8 40.204-74.8L40.204-71.3L33.404-71.3C30.304-71.3 27.604-69.4 26.504-66.7L18.604-66.7L18.604-60.8L26.504-60.8C27.704-58.1 30.304-56.2 33.404-56.2L40.204-56.2L40.204-52.3L33.404-52.3C30.304-52.3 27.604-50.4 26.504-47.7L18.604-47.7L18.604-41.8L26.504-41.8C27.704-39.1 30.304-37.2 33.404-37.2L40.204-37.2L40.204-33.3L33.404-33.3C30.304-33.3 27.604-31.4 26.504-28.7L18.604-28.7L18.604-22.8L26.504-22.8C27.704-20.1 30.304-18.2 33.404-18.2L40.204-18.2L40.204-14.3L33.404-14.3C30.304-14.3 27.604-12.4 26.504-9.7L18.604-9.7L18.604-3.8L26.504-3.8C27.704-1.1 30.304 0.8 33.404 0.8L40.204 0.8L40.204 4.4C40.204 5.5 41.104 6.3 42.104 6.3C43.204 6.3 44.004 5.4 44.004 4.4L44.004 0.8L56.004 0.8C56.704 0.8 57.304 0.2 57.304-0.5L57.304-13C57.304-13.7 56.704-14.3 56.004-14.3L44.004-14.3L44.004-18.2L56.004-18.2C56.704-18.2 57.304-18.8 57.304-19.5L57.304-32C57.304-32.7 56.704-33.3 56.004-33.3L44.004-33.3L44.004-37.2L56.004-37.2C56.704-37.2 57.304-37.8 57.304-38.5L57.304-51C57.304-51.7 56.704-52.3 56.004-52.3L44.004-52.3L44.004-56.2L56.004-56.2C56.704-56.2 57.304-56.8 57.304-57.5L57.304-70C57.304-70.7 56.804-71.3 56.004-71.3ZM49.904-10.5L49.904-2.9C49.904-2.5 49.604-2.2 49.204-2.2L35.404-2.2C35.004-2.2 34.704-2.5 34.704-2.9L34.704-10.5C34.704-10.9 35.004-11.2 35.404-11.2L49.204-11.2C49.604-11.3 49.904-10.9 49.904-10.5ZM49.904-29.6L49.904-22C49.904-21.6 49.604-21.3 49.204-21.3L35.404-21.3C35.004-21.3 34.704-21.6 34.704-22L34.704-29.6C34.704-30 35.004-30.3 35.404-30.3L49.204-30.3C49.604-30.3 49.904-30 49.904-29.6ZM49.904-48.6L49.904-41C49.904-40.6 49.604-40.3 49.204-40.3L35.404-40.3C35.004-40.3 34.704-40.6 34.704-41L34.704-48.6C34.704-49 35.004-49.3 35.404-49.3L49.204-49.3C49.604-49.3 49.904-49 49.904-48.6ZM49.904-60C49.904-59.6 49.604-59.3 49.204-59.3L35.404-59.3C35.004-59.3 34.704-59.6 34.704-60L34.704-67.6C34.704-68 35.004-68.3 35.404-68.3L49.204-68.3C49.604-68.3 49.904-68 49.904-67.6L49.904-60ZM60.404-65.3L60.404-62.1C60.404-61.4 61.004-60.7 61.804-60.7L64.604-60.7L64.604-66.6L61.804-66.6C61.104-66.7 60.404-66.1 60.404-65.3ZM103.804-56.2C104.504-56.2 105.104-56.8 105.104-57.5L105.104-70C105.104-70.7 104.504-71.3 103.804-71.3L92.004-71.3L92.004-74.8C92.004-75.9 91.104-76.7 90.104-76.7C89.004-76.7 88.204-75.8 88.204-74.8L88.204-71.3L81.204-71.3C78.104-71.3 75.404-69.4 74.304-66.7L66.404-66.7L66.404-60.8L74.304-60.8C75.504-58.1 78.104-56.2 81.204-56.2L88.204-56.2L88.204-52.3L81.204-52.3C78.104-52.3 75.404-50.4 74.304-47.7L66.404-47.7L66.404-41.8L74.304-41.8C75.504-39.1 78.104-37.2 81.204-37.2L88.204-37.2L88.204-33.3L81.204-33.3C78.104-33.3 75.404-31.4 74.304-28.7L66.404-28.7L66.404-22.8L74.304-22.8C75.504-20.1 78.104-18.2 81.204-18.2L88.204-18.2L88.204-14.3L81.204-14.3C78.104-14.3 75.404-12.4 74.304-9.7L66.404-9.7L66.404-3.8L74.304-3.8C75.504-1.1 78.104 0.8 81.204 0.8L88.204 0.8L88.204 4.4C88.204 5.5 89.104 6.3 90.104 6.3C91.204 6.3 92.004 5.4 92.004 4.4L92.004 0.8L103.904 0.8C104.604 0.8 105.204 0.2 105.204-0.5L105.204-13C105.204-13.7 104.604-14.3 103.904-14.3L92.004-14.3L92.004-18.2L103.904-18.2C104.604-18.2 105.204-18.8 105.204-19.5L105.204-32C105.204-32.7 104.604-33.3 103.904-33.3L92.004-33.3L92.004-37.2L103.904-37.2C104.604-37.2 105.204-37.8 105.204-38.5L105.204-51C105.204-51.7 104.604-52.3 103.904-52.3L92.004-52.3L92.004-56.2L103.804-56.2ZM97.704-10.5L97.704-2.9C97.704-2.5 97.404-2.2 97.004-2.2L83.204-2.2C82.804-2.2 82.504-2.5 82.504-2.9L82.504-10.5C82.504-10.9 82.804-11.2 83.204-11.2L97.004-11.2C97.404-11.3 97.704-10.9 97.704-10.5ZM97.704-29.6L97.704-22C97.704-21.6 97.404-21.3 97.004-21.3L83.204-21.3C82.804-21.3 82.504-21.6 82.504-22L82.504-29.6C82.504-30 82.804-30.3 83.204-30.3L97.004-30.3C97.404-30.3 97.704-30 97.704-29.6ZM97.704-48.6L97.704-41C97.704-40.6 97.404-40.3 97.004-40.3L83.204-40.3C82.804-40.3 82.504-40.6 82.504-41L82.504-48.6C82.504-49 82.804-49.3 83.204-49.3L97.004-49.3C97.404-49.3 97.704-49 97.704-48.6ZM82.504-60L82.504-67.6C82.504-68 82.804-68.3 83.204-68.3L97.004-68.3C97.404-68.3 97.704-68 97.704-67.6L97.704-60C97.704-59.6 97.404-59.3 97.004-59.3L83.204-59.3C82.804-59.2 82.504-59.6 82.504-60ZM12.604-46.3L12.604-43.1C12.604-42.4 13.204-41.7 14.004-41.7L16.804-41.7L16.804-47.6L14.004-47.6C13.304-47.7 12.604-47.1 12.604-46.3ZM60.404-46.3L60.404-43.1C60.404-42.4 61.004-41.7 61.804-41.7L64.604-41.7L64.604-47.6L61.804-47.6C61.104-47.7 60.404-47.1 60.404-46.3ZM12.604-27.3L12.604-24.1C12.604-23.4 13.204-22.7 14.004-22.7L16.804-22.7L16.804-28.6L14.004-28.6C13.304-28.7 12.604-28.1 12.604-27.3ZM60.404-27.3L60.404-24.1C60.404-23.4 61.004-22.7 61.804-22.7L64.604-22.7L64.604-28.6L61.804-28.6C61.104-28.7 60.404-28.1 60.404-27.3ZM12.604-8.3L12.604-5.1C12.604-4.4 13.204-3.7 14.004-3.7L16.804-3.7L16.804-9.6L14.004-9.6C13.304-9.6 12.604-9 12.604-8.3ZM60.404-8.3L60.404-5.1C60.404-4.4 61.004-3.7 61.804-3.7L64.604-3.7L64.604-9.6L61.804-9.6C61.104-9.6 60.404-9 60.404-8.3Z"/>
  </g>
 </g>
</svg>
