<?xml version="1.0" encoding="UTF-8"?>
<!--Generator: Apple Native CoreSVG 175.5-->
<!DOCTYPE svg
PUBLIC "-//W3C//DTD SVG 1.1//EN"
       "http://www.w3.org/Graphics/SVG/1.1/DTD/svg11.dtd">
<svg version="1.1" xmlns="http://www.w3.org/2000/svg" xmlns:xlink="http://www.w3.org/1999/xlink" width="3300" height="2200">
 <!--glyph: "", point size: 100.0, font version: "18.0d12e2", template writer version: "101"-->
 <g id="Notes">
  <rect height="2200" id="artboard" style="fill:white;opacity:1" width="3300" x="0" y="0"/>
  <line style="fill:none;stroke:black;opacity:1;stroke-width:0.5;" x1="263" x2="3036" y1="292" y2="292"/>
  <text style="stroke:none;fill:black;font-family:sans-serif;font-size:13;font-weight:bold;" transform="matrix(1 0 0 1 263 322)">Weight/Scale Variations</text>
  <text style="stroke:none;fill:black;font-family:sans-serif;font-size:13;text-anchor:middle;" transform="matrix(1 0 0 1 559.711 322)">Ultralight</text>
  <text style="stroke:none;fill:black;font-family:sans-serif;font-size:13;text-anchor:middle;" transform="matrix(1 0 0 1 856.422 322)">Thin</text>
  <text style="stroke:none;fill:black;font-family:sans-serif;font-size:13;text-anchor:middle;" transform="matrix(1 0 0 1 1153.13 322)">Light</text>
  <text style="stroke:none;fill:black;font-family:sans-serif;font-size:13;text-anchor:middle;" transform="matrix(1 0 0 1 1449.84 322)">Regular</text>
  <text style="stroke:none;fill:black;font-family:sans-serif;font-size:13;text-anchor:middle;" transform="matrix(1 0 0 1 1746.56 322)">Medium</text>
  <text style="stroke:none;fill:black;font-family:sans-serif;font-size:13;text-anchor:middle;" transform="matrix(1 0 0 1 2043.27 322)">Semibold</text>
  <text style="stroke:none;fill:black;font-family:sans-serif;font-size:13;text-anchor:middle;" transform="matrix(1 0 0 1 2339.98 322)">Bold</text>
  <text style="stroke:none;fill:black;font-family:sans-serif;font-size:13;text-anchor:middle;" transform="matrix(1 0 0 1 2636.69 322)">Heavy</text>
  <text style="stroke:none;fill:black;font-family:sans-serif;font-size:13;text-anchor:middle;" transform="matrix(1 0 0 1 2933.4 322)">Black</text>
  <line style="fill:none;stroke:black;opacity:1;stroke-width:0.5;" x1="263" x2="3036" y1="1903" y2="1903"/>
  <g transform="matrix(1 0 0 1 263 1933)">
   <path d="M9.24805 0.830078C13.5547 0.830078 17.1387-2.74414 17.1387-7.05078C17.1387-11.3574 13.5449-14.9316 9.23828-14.9316C4.94141-14.9316 1.36719-11.3574 1.36719-7.05078C1.36719-2.74414 4.95117 0.830078 9.24805 0.830078ZM9.24805-0.654297C5.70312-0.654297 2.87109-3.49609 2.87109-7.05078C2.87109-10.6055 5.69336-13.4473 9.23828-13.4473C12.793-13.4473 15.6445-10.6055 15.6445-7.05078C15.6445-3.49609 12.8027-0.654297 9.24805-0.654297ZM5.6543-7.05078C5.6543-6.62109 5.95703-6.32812 6.40625-6.32812L8.50586-6.32812L8.50586-4.20898C8.50586-3.76953 8.79883-3.4668 9.22852-3.4668C9.67773-3.4668 9.9707-3.76953 9.9707-4.20898L9.9707-6.32812L12.0898-6.32812C12.5293-6.32812 12.832-6.62109 12.832-7.05078C12.832-7.49023 12.5293-7.79297 12.0898-7.79297L9.9707-7.79297L9.9707-9.90234C9.9707-10.3516 9.67773-10.6543 9.22852-10.6543C8.79883-10.6543 8.50586-10.3516 8.50586-9.90234L8.50586-7.79297L6.40625-7.79297C5.95703-7.79297 5.6543-7.49023 5.6543-7.05078Z"/>
  </g>
  <g transform="matrix(1 0 0 1 281.867 1933)">
   <path d="M11.709 2.91016C17.1582 2.91016 21.6699-1.61133 21.6699-7.05078C21.6699-12.5 17.1484-17.0117 11.6992-17.0117C6.25977-17.0117 1.74805-12.5 1.74805-7.05078C1.74805-1.61133 6.26953 2.91016 11.709 2.91016ZM11.709 1.25C7.09961 1.25 3.41797-2.44141 3.41797-7.05078C3.41797-11.6602 7.08984-15.3516 11.6992-15.3516C16.3086-15.3516 20.0098-11.6602 20.0098-7.05078C20.0098-2.44141 16.3184 1.25 11.709 1.25ZM7.17773-7.05078C7.17773-6.57227 7.50977-6.25 8.00781-6.25L10.8789-6.25L10.8789-3.36914C10.8789-2.88086 11.2109-2.53906 11.6895-2.53906C12.1777-2.53906 12.5195-2.87109 12.5195-3.36914L12.5195-6.25L15.4004-6.25C15.8887-6.25 16.2305-6.57227 16.2305-7.05078C16.2305-7.53906 15.8887-7.88086 15.4004-7.88086L12.5195-7.88086L12.5195-10.752C12.5195-11.25 12.1777-11.5918 11.6895-11.5918C11.2109-11.5918 10.8789-11.25 10.8789-10.752L10.8789-7.88086L8.00781-7.88086C7.50977-7.88086 7.17773-7.53906 7.17773-7.05078Z"/>
  </g>
  <g transform="matrix(1 0 0 1 305.646 1933)">
   <path d="M14.9707 5.66406C21.9336 5.66406 27.6953-0.0976562 27.6953-7.05078C27.6953-14.0137 21.9238-19.7754 14.9609-19.7754C8.00781-19.7754 2.25586-14.0137 2.25586-7.05078C2.25586-0.0976562 8.01758 5.66406 14.9707 5.66406ZM14.9707 3.84766C8.93555 3.84766 4.08203-1.01562 4.08203-7.05078C4.08203-13.0957 8.92578-17.9492 14.9609-17.9492C21.0059-17.9492 25.8691-13.0957 25.8691-7.05078C25.8691-1.01562 21.0156 3.84766 14.9707 3.84766ZM9.19922-7.05078C9.19922-6.5332 9.57031-6.17188 10.1172-6.17188L14.0625-6.17188L14.0625-2.2168C14.0625-1.67969 14.4336-1.29883 14.9512-1.29883C15.4883-1.29883 15.8594-1.66992 15.8594-2.2168L15.8594-6.17188L19.8145-6.17188C20.3516-6.17188 20.7324-6.5332 20.7324-7.05078C20.7324-7.59766 20.3613-7.96875 19.8145-7.96875L15.8594-7.96875L15.8594-11.9141C15.8594-12.4609 15.4883-12.8418 14.9512-12.8418C14.4336-12.8418 14.0625-12.4609 14.0625-11.9141L14.0625-7.96875L10.1172-7.96875C9.57031-7.96875 9.19922-7.59766 9.19922-7.05078Z"/>
  </g>
  <text style="stroke:none;fill:black;font-family:sans-serif;font-size:13;font-weight:bold;" transform="matrix(1 0 0 1 263 1953)">Design Variations</text>
  <text style="stroke:none;fill:black;font-family:sans-serif;font-size:13;" transform="matrix(1 0 0 1 263 1971)">Symbols are supported in up to nine weights and three scales.</text>
  <text style="stroke:none;fill:black;font-family:sans-serif;font-size:13;" transform="matrix(1 0 0 1 263 1989)">For optimal layout with text and other symbols, vertically align</text>
  <text style="stroke:none;fill:black;font-family:sans-serif;font-size:13;" transform="matrix(1 0 0 1 263 2007)">symbols with the adjacent text.</text>
  <line style="fill:none;stroke:#00AEEF;stroke-width:0.5;opacity:1.0;" x1="776" x2="776" y1="1919" y2="1933"/>
  <g transform="matrix(1 0 0 1 776 1933)">
   <path d="M3.31055 0.15625C3.82812 0.15625 4.08203-0.0390625 4.26758-0.585938L5.52734-4.0332L11.2891-4.0332L12.5488-0.585938C12.7344-0.0390625 12.9883 0.15625 13.4961 0.15625C14.0137 0.15625 14.3457-0.15625 14.3457-0.644531C14.3457-0.810547 14.3164-0.966797 14.2383-1.17188L9.6582-13.3691C9.43359-13.9648 9.0332-14.2676 8.4082-14.2676C7.80273-14.2676 7.39258-13.9746 7.17773-13.3789L2.59766-1.16211C2.51953-0.957031 2.49023-0.800781 2.49023-0.634766C2.49023-0.146484 2.80273 0.15625 3.31055 0.15625ZM6.00586-5.51758L8.37891-12.0898L8.42773-12.0898L10.8008-5.51758Z"/>
  </g>
  <line style="fill:none;stroke:#00AEEF;stroke-width:0.5;opacity:1.0;" x1="793.197" x2="793.197" y1="1919" y2="1933"/>
  <text style="stroke:none;fill:black;font-family:sans-serif;font-size:13;font-weight:bold;" transform="matrix(1 0 0 1 776 1953)">Margins</text>
  <text style="stroke:none;fill:black;font-family:sans-serif;font-size:13;" transform="matrix(1 0 0 1 776 1971)">Leading and trailing margins on the left and right side of each symbol</text>
  <text style="stroke:none;fill:black;font-family:sans-serif;font-size:13;" transform="matrix(1 0 0 1 776 1989)">can be adjusted by modifying the x-location of the margin guidelines.</text>
  <text style="stroke:none;fill:black;font-family:sans-serif;font-size:13;" transform="matrix(1 0 0 1 776 2007)">Modifications are automatically applied proportionally to all</text>
  <text style="stroke:none;fill:black;font-family:sans-serif;font-size:13;" transform="matrix(1 0 0 1 776 2025)">scales and weights.</text>
  <g transform="matrix(1 0 0 1 1289 1933)">
   <path d="M2.8418 1.86523L4.54102 3.57422C5.40039 4.44336 6.38672 4.38477 7.31445 3.35938L18.0078-8.42773L17.041-9.4043L6.42578 2.27539C6.07422 2.67578 5.74219 2.77344 5.27344 2.30469L4.10156 1.14258C3.63281 0.683594 3.74023 0.341797 4.14062-0.0195312L15.6152-10.8203L14.6387-11.7871L3.04688-0.898438C2.06055 0.0195312 1.98242 0.996094 2.8418 1.86523ZM9.25781-16.3281C8.83789-15.918 8.80859-15.3418 9.04297-14.9512C9.27734-14.5898 9.73633-14.3555 10.3809-14.5215C11.8457-14.8633 13.3691-14.9219 14.7949-13.9844L14.209-12.5293C13.8672-11.6992 14.043-11.1133 14.5801-10.5664L16.875-8.25195C17.3633-7.76367 17.7734-7.74414 18.3398-7.8418L19.4043-8.03711L20.0684-7.36328L20.0293-6.80664C19.9902-6.30859 20.1172-5.92773 20.6055-5.44922L21.3672-4.70703C21.8457-4.22852 22.4609-4.19922 22.9297-4.66797L25.8398-7.58789C26.3086-8.05664 26.2891-8.65234 25.8105-9.13086L25.0391-9.89258C24.5605-10.3711 24.1895-10.5273 23.7109-10.4883L23.1348-10.4395L22.4902-11.0742L22.7344-12.1973C22.8613-12.7637 22.7051-13.2031 22.1191-13.7891L19.9219-15.9766C16.582-19.2969 12.1484-19.2188 9.25781-16.3281ZM10.752-15.957C13.1836-17.7344 16.4746-17.4316 18.7012-15.2051L21.1328-12.793C21.3672-12.5586 21.4062-12.373 21.3379-12.0312L21.0156-10.5469L22.5195-9.0625L23.5059-9.12109C23.7598-9.13086 23.8379-9.11133 24.0332-8.91602L24.6094-8.33984L22.168-5.89844L21.5918-6.47461C21.3965-6.66992 21.3672-6.74805 21.377-7.01172L21.4453-7.98828L19.9512-9.47266L18.4277-9.21875C18.1055-9.15039 17.959-9.17969 17.7148-9.41406L15.7129-11.416C15.459-11.6504 15.4297-11.8164 15.5859-12.1875L16.4648-14.2773C14.9023-15.7324 12.8711-16.3574 10.8398-15.7617C10.6836-15.7227 10.625-15.8496 10.752-15.957Z"/>
  </g>
  <text style="stroke:none;fill:black;font-family:sans-serif;font-size:13;font-weight:bold;" transform="matrix(1 0 0 1 1289 1953)">Exporting</text>
  <text style="stroke:none;fill:black;font-family:sans-serif;font-size:13;" transform="matrix(1 0 0 1 1289 1971)">Symbols should be outlined when exporting to ensure the</text>
  <text style="stroke:none;fill:black;font-family:sans-serif;font-size:13;" transform="matrix(1 0 0 1 1289 1989)">design is preserved when submitting to Xcode.</text>
  <text id="template-version" style="stroke:none;fill:black;font-family:sans-serif;font-size:13;text-anchor:end;" transform="matrix(1 0 0 1 3036 1933)">Template v.4.0</text>
  <text style="stroke:none;fill:black;font-family:sans-serif;font-size:13;text-anchor:end;" transform="matrix(1 0 0 1 3036 1951)">Requires Xcode 14 or greater</text>
  <text id="descriptive-name" style="stroke:none;fill:black;font-family:sans-serif;font-size:13;text-anchor:end;" transform="matrix(1 0 0 1 3036 1969)">Generated from case.beer.fill</text>
  <text style="stroke:none;fill:black;font-family:sans-serif;font-size:13;text-anchor:end;" transform="matrix(1 0 0 1 3036 1987)">Typeset at 100 points</text>
  <text style="stroke:none;fill:black;font-family:sans-serif;font-size:13;" transform="matrix(1 0 0 1 263 726)">Small</text>
  <text style="stroke:none;fill:black;font-family:sans-serif;font-size:13;" transform="matrix(1 0 0 1 263 1156)">Medium</text>
  <text style="stroke:none;fill:black;font-family:sans-serif;font-size:13;" transform="matrix(1 0 0 1 263 1586)">Large</text>
 </g>
 <g id="Guides">
  <g id="H-reference" style="fill:#27AAE1;stroke:none;" transform="matrix(1 0 0 1 339 696)">
   <path d="M0.993654 0L3.63775 0L29.3281-67.1323L30.0303-67.1323L30.0303-70.459L28.1226-70.459ZM11.6885-24.4799L46.9815-24.4799L46.2315-26.7285L12.4385-26.7285ZM55.1196 0L57.7637 0L30.6382-70.459L29.4326-70.459L29.4326-67.1323Z"/>
  </g>
  <line id="Baseline-S" style="fill:none;stroke:#27AAE1;opacity:1;stroke-width:0.5;" x1="263" x2="3036" y1="696" y2="696"/>
  <line id="Capline-S" style="fill:none;stroke:#27AAE1;opacity:1;stroke-width:0.5;" x1="263" x2="3036" y1="625.541" y2="625.541"/>
  <g id="H-reference" style="fill:#27AAE1;stroke:none;" transform="matrix(1 0 0 1 339 1126)">
   <path d="M0.993654 0L3.63775 0L29.3281-67.1323L30.0303-67.1323L30.0303-70.459L28.1226-70.459ZM11.6885-24.4799L46.9815-24.4799L46.2315-26.7285L12.4385-26.7285ZM55.1196 0L57.7637 0L30.6382-70.459L29.4326-70.459L29.4326-67.1323Z"/>
  </g>
  <line id="Baseline-M" style="fill:none;stroke:#27AAE1;opacity:1;stroke-width:0.5;" x1="263" x2="3036" y1="1126" y2="1126"/>
  <line id="Capline-M" style="fill:none;stroke:#27AAE1;opacity:1;stroke-width:0.5;" x1="263" x2="3036" y1="1055.54" y2="1055.54"/>
  <g id="H-reference" style="fill:#27AAE1;stroke:none;" transform="matrix(1 0 0 1 339 1556)">
   <path d="M0.993654 0L3.63775 0L29.3281-67.1323L30.0303-67.1323L30.0303-70.459L28.1226-70.459ZM11.6885-24.4799L46.9815-24.4799L46.2315-26.7285L12.4385-26.7285ZM55.1196 0L57.7637 0L30.6382-70.459L29.4326-70.459L29.4326-67.1323Z"/>
  </g>
  <line id="Baseline-L" style="fill:none;stroke:#27AAE1;opacity:1;stroke-width:0.5;" x1="263" x2="3036" y1="1556" y2="1556"/>
  <line id="Capline-L" style="fill:none;stroke:#27AAE1;opacity:1;stroke-width:0.5;" x1="263" x2="3036" y1="1485.54" y2="1485.54"/>
  <line id="left-margin-Ultralight-S" style="fill:none;stroke:#00AEEF;stroke-width:0.5;opacity:1.0;" x1="514.811" x2="514.811" y1="600.785" y2="720.121"/>
  <line id="right-margin-Ultralight-S" style="fill:none;stroke:#00AEEF;stroke-width:0.5;opacity:1.0;" x1="604.611" x2="604.611" y1="600.785" y2="720.121"/>
  <line id="left-margin-Regular-S" style="fill:none;stroke:#00AEEF;stroke-width:0.5;opacity:1.0;" x1="1401.19" x2="1401.19" y1="600.785" y2="720.121"/>
  <line id="right-margin-Regular-S" style="fill:none;stroke:#00AEEF;stroke-width:0.5;opacity:1.0;" x1="1498.49" x2="1498.49" y1="600.785" y2="720.121"/>
  <line id="left-margin-Black-S" style="fill:none;stroke:#00AEEF;stroke-width:0.5;opacity:1.0;" x1="2881.7" x2="2881.7" y1="600.785" y2="720.121"/>
  <line id="right-margin-Black-S" style="fill:none;stroke:#00AEEF;stroke-width:0.5;opacity:1.0;" x1="2985.1" x2="2985.1" y1="600.785" y2="720.121"/>
 </g>
 <g id="Symbols">
  <g id="Black-S" transform="matrix(1 0 0 1 2881.7 696)">
   <path d="M20.91-74.1L32.41-74.1C33.31-74.1 34.01-74.8 34.01-75.7L34.01-77.4C34.01-78.3 33.31-79 32.41-79L20.91-79C20.01-79 19.31-78.3 19.31-77.4L19.31-75.7C19.31-74.8 20.01-74.1 20.91-74.1ZM83.81-34L78.91-34L78.91-34.6L78.91-36.5L78.91-39C78.91-42.5 76.01-45.4 72.51-45.4C71.71-45.4 70.91-45.2 70.21-45C68.71-47.2 66.21-48.7 63.31-48.7C60.41-48.7 57.91-47.2 56.41-45C55.71-45.3 54.91-45.4 54.11-45.4C50.61-45.4 47.71-42.5 47.71-39L47.71-36.6L47.71-34.7L47.71 3.6C47.71 6.2 49.81 8.2 52.31 8.2L74.21 8.2C76.81 8.2 78.81 6.1 78.81 3.6L78.81-3.6L87.01-8.2C89.51-9.6 91.11-12.3 91.11-15.2L91.11-26.4C91.21-30.7 87.91-34 83.81-34ZM78.91-30.3L83.81-30.3C85.91-30.3 87.51-28.6 87.51-26.6L87.51-15.4C87.51-13.8 86.71-12.4 85.31-11.6L78.91-8L78.91-30.3ZM51.51-38.8C51.51-39.8 52.01-40.8 52.91-41.3C53.61-41.7 54.41-41.7 55.11-41.4L56.71-40.8C57.41-40.5 58.21-40.8 58.71-41.4L59.61-42.7C60.21-43.6 61.01-44.3 62.01-44.6C64.01-45.2 66.11-44.5 67.21-42.8L68.11-41.4C68.51-40.8 69.31-40.5 70.11-40.8L71.71-41.4C72.51-41.7 73.31-41.6 74.11-41.2C74.91-40.7 75.31-39.8 75.31-38.8L75.31-38.3L73.41-38.3L71.41-38.3C70.81-38.3 70.31-37.9 70.21-37.4L69.71-35.5C69.51-34.7 68.81-34.2 68.01-34.2C67.21-34.2 66.51-34.7 66.31-35.5L65.81-37.4C65.71-37.9 65.21-38.3 64.61-38.3L62.61-38.3L60.31-38.3L54.91-38.3L51.31-38.3L51.31-38.8ZM51.51-27.3L51.51-34.6L62.81-34.6C63.41-32.2 65.51-30.5 68.11-30.5C70.71-30.5 72.81-32.3 73.41-34.6L75.31-34.6L75.31-27.3L51.51-27.3ZM35.81-44.8C34.91-45.5 34.41-46.6 34.31-47.8L32.91-70.5L20.31-70.5L18.91-47.8C18.81-46.7 18.31-45.6 17.41-44.8C14.41-42.4 12.61-38.8 12.61-34.8L12.61 5.6C12.61 7 13.71 8.2 15.21 8.2L38.11 8.2C39.51 8.2 40.71 7 40.71 5.6L40.71-34.8C40.71-38.7 38.81-42.4 35.81-44.8ZM35.51-4.6C35.51-3.8 34.81-3.1 34.01-3.1L19.31-3.1C18.51-3.1 17.81-3.8 17.81-4.6L17.81-29.7C17.81-30.5 18.51-31.2 19.31-31.2L34.01-31.2C34.81-31.2 35.51-30.5 35.51-29.7L35.51-4.6Z"/>
  </g>
  <g id="Regular-S" transform="matrix(1 0 0 1 1401.19 696)">
   <path d="M19.6-71.6L30.4-71.6C31.2-71.6 31.9-72.3 31.9-73.1L31.9-74.7C31.9-75.5 31.2-76.2 30.4-76.2L19.6-76.2C18.8-76.2 18.1-75.5 18.1-74.7L18.1-73.1C18.2-72.2 18.8-71.6 19.6-71.6ZM78.7-34L74.1-34L74.1-34.6L74.1-36.4L74.1-38.7C74.1-42 71.4-44.7 68.1-44.7C67.3-44.7 66.6-44.5 65.9-44.3C64.5-46.4 62.1-47.7 59.4-47.7C56.7-47.7 54.3-46.3 52.9-44.3C52.2-44.6 51.5-44.7 50.7-44.7C47.4-44.7 44.7-42 44.7-38.7L44.7-36.4L44.7-34.6L44.7 1.3C44.7 3.7 46.7 5.7 49.1 5.7L69.7 5.7C72.1 5.7 74.1 3.7 74.1 1.3L74.1-5.5L81.8-9.8C84.2-11.1 85.7-13.7 85.7-16.4L85.7-27C85.7-30.8 82.5-34 78.7-34ZM74.1-30.5L78.7-30.5C80.6-30.5 82.2-28.9 82.2-27L82.2-16.4C82.2-14.9 81.4-13.6 80.1-12.9L74.1-9.5L74.1-30.5ZM48.3-38.5C48.3-39.5 48.8-40.4 49.6-40.8C50.3-41.2 51-41.2 51.7-40.9L53.2-40.3C53.9-40 54.6-40.3 55-40.9L55.8-42.1C56.4-42.9 57.1-43.6 58.1-43.9C60-44.5 61.9-43.8 63-42.2L63.9-40.9C64.3-40.3 65.1-40.1 65.7-40.3L67.2-40.9C67.9-41.2 68.7-41.1 69.4-40.7C70.2-40.2 70.6-39.4 70.6-38.5L70.6-38L68.8-38L67-38C66.5-38 66-37.6 65.9-37.1L65.5-35.3C65.3-34.6 64.7-34.1 63.9-34.1C63.1-34.1 62.5-34.6 62.3-35.3L61.9-37.1C61.8-37.6 61.3-38 60.8-38L58.9-38L56.8-38L51.7-38L48.3-38L48.3-38.5ZM48.3-27.6L48.3-34.5L58.9-34.5C59.4-32.3 61.5-30.6 63.9-30.6C66.3-30.6 68.3-32.3 68.9-34.5L70.7-34.5L70.7-27.6L48.3-27.6ZM33.6-44C32.8-44.7 32.3-45.7 32.2-46.8L30.9-68.1L19.1-68.1L17.8-46.8C17.7-45.7 17.3-44.7 16.4-44C13.6-41.8 11.9-38.3 11.9-34.6L11.9 3.3C11.9 4.6 13 5.7 14.3 5.7L35.8 5.7C37.1 5.7 38.2 4.6 38.2 3.3L38.2-34.6C38.2-38.4 36.5-41.8 33.6-44ZM33.3-6.3C33.3-5.5 32.7-4.9 31.9-4.9L18.1-4.9C17.3-4.9 16.7-5.5 16.7-6.3L16.7-30C16.7-30.8 17.3-31.4 18.1-31.4L31.9-31.4C32.7-31.4 33.3-30.8 33.3-30L33.3-6.3Z"/>
  </g>
  <g id="Ultralight-S" transform="matrix(1 0 0 1 514.811 696)">
   <path d="M18.304-68.5L28.104-68.5C28.804-68.5 29.404-69.1 29.404-69.8L29.404-71.3C29.404-72 28.804-72.6 28.104-72.6L18.304-72.6C17.604-72.6 17.004-72 17.004-71.3L17.004-69.8C17.004-69.1 17.604-68.5 18.304-68.5ZM72.304-34.1L68.104-34.1L68.104-34.6L68.104-36.2L68.104-38.3C68.104-41.3 65.604-43.8 62.604-43.8C61.904-43.8 61.204-43.7 60.604-43.4C59.304-45.3 57.104-46.5 54.704-46.5C52.304-46.5 50.104-45.3 48.804-43.4C48.204-43.6 47.504-43.8 46.804-43.8C43.804-43.8 41.304-41.3 41.304-38.3L41.304-36.2L41.304-34.6L41.304-1.8C41.304 0.4 43.104 2.2 45.304 2.2L64.104 2.2C66.304 2.2 68.104 0.4 68.104-1.8L68.104-8L75.104-12C77.304-13.2 78.604-15.5 78.604-18L78.604-27.7C78.704-31.2 75.804-34.1 72.304-34.1ZM68.104-30.9L72.304-30.9C74.104-30.9 75.504-29.5 75.504-27.7L75.504-18C75.504-16.7 74.804-15.4 73.604-14.8L68.104-11.7L68.104-30.9ZM44.604-38.2C44.604-39.1 45.004-39.9 45.804-40.3C46.404-40.6 47.104-40.7 47.704-40.4L49.004-39.9C49.604-39.7 50.304-39.9 50.704-40.4L51.404-41.5C51.904-42.3 52.604-42.9 53.504-43.1C55.204-43.6 57.004-43 58.004-41.6L58.804-40.4C59.204-39.9 59.904-39.6 60.504-39.9L61.804-40.4C62.504-40.7 63.204-40.6 63.804-40.2C64.504-39.8 64.904-39 64.904-38.2L64.904-37.8L63.304-37.8L61.604-37.8C61.104-37.8 60.704-37.5 60.604-37L60.204-35.4C60.004-34.7 59.504-34.3 58.804-34.3C58.104-34.3 57.504-34.8 57.404-35.4L57.004-37C56.904-37.5 56.504-37.8 56.004-37.8L54.304-37.8L52.304-37.8L47.604-37.8L44.504-37.8L44.504-38.2ZM44.504-28.3L44.504-34.6L54.204-34.6C54.704-32.6 56.504-31 58.704-31C60.904-31 62.704-32.5 63.204-34.6L64.804-34.6L64.804-28.3L44.504-28.3ZM31.104-43.3C30.304-43.9 29.904-44.9 29.804-45.8L28.604-65.3L17.804-65.3L16.604-45.8C16.504-44.8 16.104-43.9 15.304-43.3C12.704-41.3 11.104-38.1 11.104-34.7L11.104 0C11.104 1.2 12.104 2.2 13.304 2.2L33.004 2.2C34.204 2.2 35.204 1.2 35.204 0L35.204-34.7C35.304-38.1 33.704-41.2 31.104-43.3ZM30.804-8.8C30.804-8.1 30.204-7.5 29.504-7.5L16.904-7.5C16.204-7.5 15.604-8.1 15.604-8.8L15.604-30.4C15.604-31.1 16.204-31.7 16.904-31.7L29.504-31.7C30.204-31.7 30.804-31.1 30.804-30.4L30.804-8.8Z"/>
  </g>
 </g>
</svg>
